<svg xmlns="http://www.w3.org/2000/svg" width="59" height="59" fill="#fff" xmlns:v="https://vecta.io/nano"><path d="M36.267 34.333H35.2a.95.95 0 0 1-.9-.624l-.381-.912c-.17-.364-.092-.796.193-1.079l.758-.759a2.91 2.91 0 0 0 0-4.1l-2.728-2.726a2.91 2.91 0 0 0-4.1 0l-.758.757c-.284.284-.714.361-1.079.193l-.913-.387a.95.95 0 0 1-.627-.9v-1.063a2.9 2.9 0 0 0-2.9-2.9H17.9a2.9 2.9 0 0 0-2.9 2.9v1.063a.95.95 0 0 1-.624.9l-.912.381c-.364.169-.796.092-1.079-.193l-.759-.758a2.91 2.91 0 0 0-4.1 0L4.8 26.862a2.91 2.91 0 0 0 0 4.1l.757.758c.285.283.363.715.193 1.079l-.382.913a.95.95 0 0 1-.9.624H3.4a2.9 2.9 0 0 0-2.9 2.897V41.1A2.9 2.9 0 0 0 3.4 44h1.063a.95.95 0 0 1 .9.624l.381.912c.17.364.092.796-.193 1.079l-.758.759a2.91 2.91 0 0 0 0 4.1l2.727 2.729a2.91 2.91 0 0 0 4.1 0l.758-.757c.284-.284.714-.361 1.079-.193l.913.387a.95.95 0 0 1 .632.9v1.063a2.9 2.9 0 0 0 2.9 2.9h3.867a2.9 2.9 0 0 0 2.9-2.9v-1.07a.95.95 0 0 1 .624-.9l.912-.381c.364-.169.796-.092 1.079.193l.759.758a2.91 2.91 0 0 0 4.1 0l2.732-2.732a2.91 2.91 0 0 0 0-4.1l-.757-.758c-.285-.283-.363-.715-.193-1.079l.387-.913a.95.95 0 0 1 .9-.627h1.063a2.9 2.9 0 0 0 2.9-2.9v-3.861a2.9 2.9 0 0 0-2.908-2.9zm.967 6.767c0 .256-.102.502-.283.684s-.427.283-.684.283H35.2a2.91 2.91 0 0 0-2.7 1.866q-.154.406-.333.8a2.91 2.91 0 0 0 .58 3.244l.753.756c.377.378.377.989 0 1.367h0l-2.732 2.733c-.378.377-.989.377-1.367 0l-.758-.757c-.857-.847-2.147-1.078-3.244-.58l-.8.333a2.91 2.91 0 0 0-1.869 2.7v1.063c0 .256-.102.502-.283.684s-.427.283-.684.283H17.9c-.256 0-.502-.102-.684-.283s-.283-.427-.283-.684v-1.059a2.91 2.91 0 0 0-1.869-2.7q-.406-.154-.8-.333a2.91 2.91 0 0 0-3.244.58l-.757.753c-.377.375-.986.375-1.363 0h0l-2.732-2.729c-.377-.378-.377-.989 0-1.367l.757-.758a2.91 2.91 0 0 0 .575-3.246l-.333-.8a2.91 2.91 0 0 0-2.7-1.871H3.4c-.256 0-.502-.102-.684-.283s-.283-.427-.283-.684v-3.862c0-.256.102-.502.283-.684s.427-.283.684-.283h1.063a2.91 2.91 0 0 0 2.707-1.87q.154-.406.333-.8a2.91 2.91 0 0 0-.58-3.244l-.76-.757c-.377-.378-.377-.989 0-1.367h0l2.732-2.732c.378-.377.989-.377 1.367 0l.758.757c.857.847 2.147 1.078 3.244.58l.8-.333a2.91 2.91 0 0 0 1.872-2.7v-1.067c0-.256.102-.502.283-.684s.427-.283.684-.283h3.867c.256 0 .502.102.684.283s.283.427.283.684v1.063a2.91 2.91 0 0 0 1.87 2.707q.406.154.8.333c1.097.498 2.387.267 3.244-.58l.757-.756a.97.97 0 0 1 1.368 0l2.724 2.733c.377.378.377.989 0 1.367l-.757.758a2.91 2.91 0 0 0-.58 3.244l.333.8a2.91 2.91 0 0 0 2.7 1.869h1.063c.256 0 .502.102.684.283s.283.427.283.684z"/><path d="M17.9 19.333h3.867a3.4 3.4 0 0 1 3.4 3.4v1.063a.45.45 0 0 0 .3.427l.015.006.934.4a.46.46 0 0 0 .518-.091l.759-.758a3.41 3.41 0 0 1 4.8 0l2.733 2.733c1.316 1.329 1.318 3.468.006 4.8l-.759.76c-.137.135-.174.341-.094.515l.395.944v.006c.064.179.234.299.424.3h1.065a3.4 3.4 0 0 1 3.4 3.4v3.867a3.4 3.4 0 0 1-3.4 3.4H35.2c-.191 0-.362.12-.427.3l-.006.015-.4.934c-.082.174-.046.381.09.517l.759.76c1.314 1.33 1.314 3.47 0 4.8l-2.733 2.733a3.41 3.41 0 0 1-4.8.006l-.76-.759c-.135-.137-.342-.174-.516-.093l-.943.394h-.006c-.179.064-.299.234-.3.425v1.064a3.4 3.4 0 0 1-3.4 3.4H17.9a3.4 3.4 0 0 1-3.4-3.4v-1.068a.45.45 0 0 0-.3-.426l-.018-.007-.934-.4a.46.46 0 0 0-.518.091l-.759.758a3.41 3.41 0 0 1-4.8 0l-2.733-2.733c-1.314-1.33-1.314-3.47 0-4.8l.759-.76c.137-.135.174-.341.094-.515l-.395-.944v-.006c-.064-.179-.234-.299-.424-.3H3.4a3.4 3.4 0 0 1-3.4-3.4v-3.858a3.4 3.4 0 0 1 3.4-3.4h1.068c.191 0 .362-.12.427-.3v-.007l.394-.941c.082-.174.046-.381-.09-.517l-.759-.76c-1.314-1.33-1.314-3.47 0-4.8l2.732-2.741a3.41 3.41 0 0 1 4.8 0l.76.759c.135.137.342.174.516.093l.943-.394h.006c.179-.064.299-.234.3-.425v-1.067a3.4 3.4 0 0 1 3.403-3.4zm7.216 5.828c-.571-.212-.95-.757-.949-1.366v-1.062a2.4 2.4 0 0 0-2.4-2.4H17.9a2.4 2.4 0 0 0-2.4 2.4v1.063c0 .608-.379 1.152-.949 1.363l-.88.368c-.555.254-1.21.134-1.64-.3l-.758-.757a2.41 2.41 0 0 0-3.392 0l-2.73 2.739a2.41 2.41 0 0 0 0 3.393l.756.757c.433.432.55 1.088.293 1.643l-.367.878c-.211.569-.753.946-1.36.948H3.4a2.4 2.4 0 0 0-2.4 2.4v3.867a2.4 2.4 0 0 0 2.4 2.4h1.063a1.46 1.46 0 0 1 1.364.949l.368.88c.254.556.135 1.211-.3 1.641l-.756.757c-.929.94-.929 2.452 0 3.392l2.731 2.731a2.41 2.41 0 0 0 3.393 0l.757-.756c.432-.433 1.087-.55 1.642-.294l.88.373a1.45 1.45 0 0 1 .958 1.365v1.062a2.4 2.4 0 0 0 2.4 2.4h3.867a2.4 2.4 0 0 0 2.4-2.4v-1.062c0-.608.378-1.151.948-1.363l.881-.368c.555-.254 1.21-.134 1.64.3l.758.757a2.41 2.41 0 0 0 3.392-.005l2.731-2.731a2.41 2.41 0 0 0 0-3.393l-.756-.757c-.433-.432-.55-1.088-.293-1.643l.373-.88c.211-.57.754-.948 1.361-.949h1.067a2.4 2.4 0 0 0 2.4-2.4v-3.868a2.4 2.4 0 0 0-2.4-2.4H35.2c-.608-.001-1.151-.379-1.363-.949l-.368-.88c-.254-.556-.135-1.211.3-1.641l.756-.757a2.41 2.41 0 0 0-.005-3.392l-2.731-2.731a2.41 2.41 0 0 0-3.393 0l-.757.756c-.432.433-1.087.55-1.642.294l-.881-.372zM17.9 21.266h3.867a1.47 1.47 0 0 1 1.467 1.467v1.063c.008.993.622 1.881 1.548 2.24l.828.344c.908.413 1.977.222 2.686-.48l.755-.754a1.47 1.47 0 0 1 2.073 0l2.734 2.734a1.47 1.47 0 0 1 0 2.074l-.757.758a2.42 2.42 0 0 0-.478 2.685l.344.826c.359.926 1.247 1.539 2.24 1.547h1.061a1.47 1.47 0 0 1 1.467 1.467v3.867a1.47 1.47 0 0 1-1.467 1.467H35.2c-.993.008-1.881.622-2.24 1.548l-.344.828a2.42 2.42 0 0 0 .484 2.686l.754.755a1.47 1.47 0 0 1 .008 2.066l-.011.011-2.729 2.729a1.47 1.47 0 0 1-2.074 0l-.758-.757c-.709-.7-1.777-.89-2.684-.478l-.826.344c-.926.359-1.539 1.247-1.547 2.24v1.061a1.47 1.47 0 0 1-1.467 1.467H17.9a1.47 1.47 0 0 1-1.467-1.467v-1.071c-.008-.993-.622-1.881-1.548-2.24l-.828-.344a2.41 2.41 0 0 0-2.686.481l-.755.754c-.567.568-1.486.574-2.061.014l-.014-.014-2.731-2.726a1.47 1.47 0 0 1 0-2.074l.757-.758a2.42 2.42 0 0 0 .478-2.685l-.344-.826c-.358-.927-1.246-1.541-2.24-1.55H3.4a1.47 1.47 0 0 1-1.467-1.467v-3.865A1.47 1.47 0 0 1 3.4 35.766h1.063c.993-.008 1.881-.622 2.24-1.548l.344-.828c.407-.909.216-1.975-.481-2.686l-.757-.754c-.275-.275-.43-.648-.43-1.037s.155-.762.43-1.037l2.733-2.733a1.47 1.47 0 0 1 2.074 0l.758.757c.709.7 1.777.89 2.684.478l.826-.344c.927-.358 1.542-1.246 1.551-2.24v-1.06a1.47 1.47 0 0 1 1.465-1.467zm8.7 6.329a3.38 3.38 0 0 1-1.407-.3l-.77-.32a3.43 3.43 0 0 1-2.193-3.172v-1.07c0-.124-.049-.243-.137-.33a.47.47 0 0 0-.33-.137H17.9c-.124 0-.243.049-.33.137a.47.47 0 0 0-.137.33v1.063a3.43 3.43 0 0 1-2.194 3.172l-.769.321c-1.285.583-2.797.312-3.8-.68l-.76-.759c-.182-.182-.478-.182-.66 0L6.5 28.596c-.17.184-.164.47.013.647l.759.756a3.43 3.43 0 0 1 .683 3.8l-.32.77a3.43 3.43 0 0 1-3.172 2.193H3.4c-.124 0-.243.049-.33.137a.47.47 0 0 0-.137.33v3.867c0 .124.049.243.137.33a.47.47 0 0 0 .33.137h1.063a3.43 3.43 0 0 1 3.172 2.193l.321.769a3.43 3.43 0 0 1-.68 3.8l-.759.76c-.182.182-.182.478 0 .66l2.732 2.729c.182.182.478.182.66 0l.757-.756a3.41 3.41 0 0 1 3.8-.682l.77.32a3.43 3.43 0 0 1 2.193 3.172v1.065c0 .124.049.243.137.33a.47.47 0 0 0 .33.137h3.867c.124 0 .243-.049.33-.137a.47.47 0 0 0 .137-.33v-1.06a3.43 3.43 0 0 1 2.19-3.172l.77-.321c1.285-.583 2.797-.312 3.8.68l.76.759c.182.182.478.182.66 0l2.732-2.732c.182-.182.182-.478 0-.66l-.756-.757a3.43 3.43 0 0 1-.682-3.8l.32-.77a3.43 3.43 0 0 1 3.172-2.193h1.065c.124 0 .243-.049.33-.137a.47.47 0 0 0 .137-.33v-3.867c0-.124-.049-.243-.137-.33a.47.47 0 0 0-.33-.137H35.2a3.43 3.43 0 0 1-3.172-2.19l-.321-.77a3.43 3.43 0 0 1 .68-3.8l.759-.76c.182-.182.182-.478 0-.66l-2.732-2.732c-.184-.181-.479-.181-.663 0l-.755.754a3.39 3.39 0 0 1-2.396.987zm1.913 11.185l-.054-.693-.119-.734-.121-.47q-.081-.3-.183-.589l-.147-.4a8.62 8.62 0 0 0-.426-.9c-.013-.022-.02-.046-.033-.069-.251-.448-.543-.872-.87-1.267-.028-.035-.06-.068-.089-.1l-.415-.456-.234-.227-.29-.264q-.176-.153-.359-.3l-.159-.118a8.64 8.64 0 0 0-5.181-1.726c-.1 0-.193.015-.29.018l-.621.039-.329.04a8.78 8.78 0 0 0-.937.175 8.7 8.7 0 0 0 .007 16.858c.016.001.032.004.048.009a9.18 9.18 0 0 0 1.013.193c.225.028.45.034.677.044l.448.03c.275 0 .562-.018.854-.047l.1-.013a8.43 8.43 0 0 0 .715-.109l.279-.064.513-.132.4-.134.407-.149c.137-.049.252-.112.377-.17a7.4 7.4 0 0 0 .483-.235h.006a11.44 11.44 0 0 0 2.478-1.789 3.04 3.04 0 0 0 .518-.634 10.32 10.32 0 0 0 1.456-3.973 8.68 8.68 0 0 0 .066-.564l.027-.523c0-.055.008-.107.008-.162l-.023-.395zm-1.927.633c0 .08-.007.16-.012.24-.017.234-.047.468-.087.7a6.78 6.78 0 0 1-3.4 4.737 7.32 7.32 0 0 1-.356.176l-.08.039c-.562.255-1.154.435-1.763.534l-.13.02a7.74 7.74 0 0 1-.358.043l-.472.024h-.2a6.83 6.83 0 0 1-.684-.043l-.116-.014a7.17 7.17 0 0 1-.79-.149 6.77 6.77 0 0 1-.007-13.109h0a7 7 0 0 1 1.7-.213 6.67 6.67 0 0 1 .826.056l.218.033.62.127.2.051c.514.149 1.009.357 1.474.621l.22.134.447.3.233.174a6.98 6.98 0 0 1 .544.483l.2.218.323.375.208.276.28.431.146.241a6.63 6.63 0 0 1 .333.709l.106.29a6.54 6.54 0 0 1 .164.539l.072.276a6.81 6.81 0 0 1 .123.792l.011.213a7.65 7.65 0 0 1 .008.676z"/><path d="M19.833 29.967h0a9.2 9.2 0 0 1 5.479 1.824l.167.124.378.312.3.275.048.045.2.2.438.482.025.028.069.08c.346.418.653.866.919 1.339l.039.079h0a9.15 9.15 0 0 1 .448.952v.009l.151.411.194.624.021.077.106.419.126.777.058.734c0 .041 0 .083.007.124l.011.294-.005.114v.045.011a7.34 7.34 0 0 1-.028.55l-.069.6c-.214 1.48-.733 2.898-1.526 4.166-.166.271-.368.518-.6.735a11.93 11.93 0 0 1-2.583 1.864l-.111.059h-.008l-.384.183-.014.007-.089.042-.318.141-.42.153-.055.019-.366.122-.544.141-.086.02-.213.048-.754.115h-.009c-.036.007-.073.011-.11.013l-.886.048c-.118 0-.225-.01-.319-.018l-.154-.012-.116-.005-.6-.042a9.78 9.78 0 0 1-1.048-.2h-.016l-.061-.016a9.2 9.2 0 0 1-.007-17.826h.007a9.39 9.39 0 0 1 .99-.185 10.19 10.19 0 0 1 .341-.041 9.08 9.08 0 0 1 .656-.041l.1-.007.221-.012zm5.039 2.74l-.154-.114a8.19 8.19 0 0 0-4.881-1.626v-.5.5c-.034 0-.078 0-.125.008s-.093.008-.145.01h-.006l-.584.036-.31.037a8.43 8.43 0 0 0-.885.165 8.2 8.2 0 0 0-.024 15.88c.029 0 .052.01.067.014h.011a8.76 8.76 0 0 0 .958.183c.161.02.331.027.512.035l.122.005c.072 0 .135.01.2.015l.227.014c.236 0 .5-.015.8-.045h.025l.065-.01.673-.1a3.42 3.42 0 0 0 .169-.038l.1-.023.484-.125.319-.107.056-.02.394-.144a2.85 2.85 0 0 0 .242-.108l.1-.048.017-.008.438-.213.112-.061h.006a10.94 10.94 0 0 0 2.26-1.652 2.54 2.54 0 0 0 .436-.533 9.77 9.77 0 0 0 1.387-3.784 8.56 8.56 0 0 0 .062-.529 8.93 8.93 0 0 0 .026-.492l.005-.11v-.045l-.009-.225c0-.049-.006-.1-.009-.147l-.051-.655-.112-.69a6.52 6.52 0 0 0-.093-.364l-.021-.078a8.7 8.7 0 0 0-.172-.555l-.141-.383a8.15 8.15 0 0 0-.4-.846c-.017-.031-.029-.058-.036-.075h0a8.1 8.1 0 0 0-.813-1.183v-.005c-.011-.014-.023-.027-.035-.04l-.044-.049-.391-.431h0l-.173-.169-.043-.041a13.17 13.17 0 0 0-.278-.253 6.66 6.66 0 0 0-.341-.278zm-5.039-.807a7.2 7.2 0 0 1 .889.06l.157.023.073.011h.005a7.12 7.12 0 0 1 .666.136l.075.019.135.035c.553.159 1.085.383 1.586.667h.006a7.62 7.62 0 0 1 .193.117l.043.026.477.324.037.027.212.16.581.516.005.005.142.155.068.076.347.4a7.17 7.17 0 0 1 .221.294l.005.007.3.462.064.105.08.133.011.019c.134.247.254.501.358.762l.087.236.025.07.178.583h0l.027.1.049.192a7.34 7.34 0 0 1 .132.85v.006c0 .046.006.092.007.139v.081l.01.714-.009.211v.056l-.093.749v.005a7.25 7.25 0 0 1-3.647 5.086l-.01.005a7.96 7.96 0 0 1-.375.185l-.087.042a7.49 7.49 0 0 1-1.889.572l-.04.007-.1.015a6.94 6.94 0 0 1-.381.045l-.507.026h-.217a7.35 7.35 0 0 1-.735-.046l-.125-.001a7.71 7.71 0 0 1-.845-.159 7.27 7.27 0 0 1-.387-13.971v-.013l.378-.1c.594-.149 1.204-.224 1.817-.224zm.97 1.083l-.084-.013-.118-.017h-.006c-.254-.033-.509-.05-.765-.052a6.5 6.5 0 0 0-1.5.18l-.068.018a6.27 6.27 0 0 0 .006 12.14 6.67 6.67 0 0 0 .728.137l.112.013a6.23 6.23 0 0 0 .629.039h.195c.152 0 .293-.01.433-.022a6.56 6.56 0 0 0 .33-.039h.006l.073-.011.044-.007a6.48 6.48 0 0 0 1.629-.493l.084-.04.328-.162c1.655-.911 2.81-2.522 3.141-4.382a7.13 7.13 0 0 0 .081-.653v-.049l.007-.155v-.019a6.18 6.18 0 0 0-.008-.62l-.005-.108v-.09a6.22 6.22 0 0 0-.113-.73l-.036-.139-.032-.119-.151-.5-.026-.072-.074-.2c-.087-.221-.188-.437-.3-.646l-.071-.118-.069-.113a6.16 6.16 0 0 0-.26-.4l-.191-.254-.3-.348-.082-.092-.1-.112a6.5 6.5 0 0 0-.5-.446l-.173-.13-.05-.036-.411-.279-.037-.023-.168-.1a6.31 6.31 0 0 0-1.364-.574l-.1-.027-.083-.021-.582-.116zM55.6 20.8h-3.04c-.405.004-.767-.252-.9-.634a20.13 20.13 0 0 0-1.086-2.621c-.179-.366-.104-.805.186-1.091l2.156-2.159a2.9 2.9 0 0 0 0-4.1l-4.11-4.1a2.9 2.9 0 0 0-4.1 0l-2.155 2.154c-.285.29-.724.366-1.09.187a20.08 20.08 0 0 0-2.622-1.091c-.384-.131-.641-.494-.638-.9V3.4a2.9 2.9 0 0 0-2.9-2.9h-5.8a2.9 2.9 0 0 0-2.9 2.9v3.04c.004.405-.251.767-.634.9a20.06 20.06 0 0 0-2.621 1.09c-.366.18-.806.105-1.091-.186l-2.16-2.154c-1.134-1.128-2.966-1.128-4.1 0l-4.1 4.1a2.9 2.9 0 0 0 0 4.1l3.17 3.176c.381.353.973.341 1.34-.026a.97.97 0 0 0 .027-1.34l-3.172-3.175a.97.97 0 0 1 0-1.367l4.1-4.1a.97.97 0 0 1 1.367 0l2.16 2.156c.874.879 2.212 1.098 3.321.545a18.29 18.29 0 0 1 2.369-.985c1.172-.397 1.959-1.499 1.954-2.736V3.4c0-.534.433-.967.967-.967h5.8c.534 0 .967.433.967.967v3.04c-.005 1.237.782 2.339 1.954 2.735a18.3 18.3 0 0 1 2.37.986 2.88 2.88 0 0 0 3.321-.546l2.16-2.155a.97.97 0 0 1 1.367 0l4.1 4.1c.377.377.377.989 0 1.366l-2.156 2.16c-.878.874-1.097 2.212-.545 3.321a18.29 18.29 0 0 1 .985 2.369c.396 1.172 1.499 1.959 2.736 1.954h3.04a.97.97 0 0 1 .684.283c.182.181.283.427.283.684V29.5a.97.97 0 0 1-.283.684c-.181.182-.427.283-.684.283h-3.04c-1.237-.005-2.339.782-2.735 1.954a18.22 18.22 0 0 1-.986 2.37 2.88 2.88 0 0 0 .546 3.321l2.156 2.16a.97.97 0 0 1 0 1.367l-4.1 4.1c-.377.377-.989.377-1.366 0l-3.176-3.17c-.374-.369-.974-.372-1.352-.006s-.394.965-.037 1.351l.024.024 3.175 3.17a2.9 2.9 0 0 0 4.1 0l4.1-4.1a2.9 2.9 0 0 0 0-4.1l-2.153-2.157c-.29-.285-.365-.724-.187-1.09a20.08 20.08 0 0 0 1.091-2.622c.131-.384.494-.641.9-.638h3.04a2.9 2.9 0 0 0 2.9-2.9V23.7a2.9 2.9 0 0 0-2.897-2.9z"/><path d="M29.5 0h5.8a3.4 3.4 0 0 1 3.4 3.4v3.04c-.003.193.118.366.3.428a20.64 20.64 0 0 1 2.683 1.116c.172.084.379.048.513-.089l2.158-2.157a3.4 3.4 0 0 1 4.807 0l4.11 4.1a3.4 3.4 0 0 1 0 4.807l-2.156 2.158a.45.45 0 0 0-.091.518 20.69 20.69 0 0 1 1.11 2.68c.061.179.229.299.418.3h3.05a3.4 3.4 0 0 1 3.4 3.4V29.5a3.4 3.4 0 0 1-3.4 3.4h-3.04l-.008-.5v.5c-.189 0-.358.121-.419.3a20.73 20.73 0 0 1-1.116 2.681.45.45 0 0 0 .089.513l2.156 2.16a3.4 3.4 0 0 1 0 4.807l-4.1 4.1a3.4 3.4 0 0 1-4.807 0L41.183 44.3l-.032-.032c-.518-.587-.484-1.476.077-2.022s1.451-.555 2.023-.022l3.174 3.167a.47.47 0 0 0 .659 0l4.1-4.1c.182-.182.182-.478 0-.66l-2.156-2.16c-1.032-1.026-1.29-2.598-.64-3.9a17.81 17.81 0 0 0 .96-2.307 3.37 3.37 0 0 1 3.2-2.295H55.6c.124 0 .243-.049.33-.137a.47.47 0 0 0 .137-.33V23.7c0-.124-.049-.243-.137-.33a.47.47 0 0 0-.33-.137h-3.053c-1.448.002-2.736-.921-3.2-2.293a17.86 17.86 0 0 0-.958-2.306 3.37 3.37 0 0 1 .64-3.9l2.155-2.158a.47.47 0 0 0 0-.659l-4.1-4.1c-.182-.182-.478-.182-.66 0l-2.16 2.155a3.36 3.36 0 0 1-2.394.993 3.4 3.4 0 0 1-1.5-.353 17.8 17.8 0 0 0-2.307-.96 3.37 3.37 0 0 1-2.295-3.211V3.4c0-.258-.209-.467-.467-.467h-5.8c-.258 0-.467.209-.467.467v3.04a3.37 3.37 0 0 1-2.293 3.209 17.79 17.79 0 0 0-2.306.959 3.39 3.39 0 0 1-1.506.355 3.35 3.35 0 0 1-2.393-1l-2.16-2.149c-.182-.182-.478-.182-.66 0l-4.1 4.1c-.182.182-.182.478 0 .66l3.178 3.181c.548.577.535 1.486-.029 2.048s-1.473.572-2.048.023l-.006-.006-3.17-3.176a3.4 3.4 0 0 1 0-4.807l4.1-4.1c1.329-1.323 3.477-1.323 4.806 0l2.159 2.156c.134.14.343.177.517.091a20.7 20.7 0 0 1 2.679-1.115c.181-.062.302-.232.3-.423V3.4A3.4 3.4 0 0 1 29.5 0zm12.375 9.029c-.22 0-.437-.051-.635-.147h0a19.65 19.65 0 0 0-2.557-1.067 1.44 1.44 0 0 1-.979-1.379V3.4a2.4 2.4 0 0 0-2.4-2.4h-5.8a2.4 2.4 0 0 0-2.4 2.4v3.038a1.44 1.44 0 0 1-.97 1.375h0c-.876.294-1.73.649-2.556 1.063-.561.284-1.24.172-1.681-.276l-2.155-2.156c-.939-.934-2.455-.934-3.394 0l-4.1 4.1a2.4 2.4 0 0 0 0 3.394l3.167 3.172c.184.171.47.167.648-.011s.184-.464.013-.648l-3.168-3.171a1.47 1.47 0 0 1 0-2.074l4.1-4.1a1.47 1.47 0 0 1 2.074 0l2.159 2.155a2.36 2.36 0 0 0 1.686.7c.368-.001.73-.086 1.059-.25.787-.393 1.601-.731 2.435-1.011a2.37 2.37 0 0 0 1.613-2.26V3.4a1.47 1.47 0 0 1 1.467-1.467h5.8A1.47 1.47 0 0 1 36.767 3.4v3.04a2.37 2.37 0 0 0 1.616 2.26 18.81 18.81 0 0 1 2.434 1.013 2.38 2.38 0 0 0 2.742-.452l2.16-2.156a1.47 1.47 0 0 1 2.074 0l4.1 4.1a1.47 1.47 0 0 1 0 2.073l-2.156 2.16c-.727.722-.909 1.828-.452 2.745.394.786.732 1.599 1.012 2.433.326.964 1.231 1.613 2.249 1.613h3.053a1.47 1.47 0 0 1 1.467 1.467V29.5a1.47 1.47 0 0 1-1.467 1.467h-3.052c-1.018 0-1.923.649-2.249 1.614a18.78 18.78 0 0 1-1.013 2.434c-.456.916-.274 2.021.452 2.742l2.157 2.161a1.47 1.47 0 0 1 0 2.074l-4.1 4.1c-.573.572-1.5.572-2.073 0l-3.182-3.176c-.114-.13-.289-.187-.457-.147a.47.47 0 0 0-.212.796l.013.013.005.005 3.175 3.17a2.4 2.4 0 0 0 3.393 0l4.1-4.1a2.4 2.4 0 0 0 0-3.394L50.4 37.1c-.441-.436-.555-1.106-.282-1.663v-.005a19.65 19.65 0 0 0 1.064-2.556c.199-.585.748-.979 1.366-.979h3.049a2.4 2.4 0 0 0 2.4-2.4V23.7a2.4 2.4 0 0 0-2.4-2.4h-3.05c-.615 0-1.162-.389-1.364-.97v-.006a19.7 19.7 0 0 0-1.059-2.556c-.277-.559-.163-1.233.282-1.671l2.153-2.156a2.4 2.4 0 0 0 0-3.393l-4.11-4.1a2.4 2.4 0 0 0-3.393 0L42.904 8.6a1.45 1.45 0 0 1-1.029.429zm-.59 8.685a12.58 12.58 0 0 0-17.771 0c-.36.38-.351.978.019 1.348s.968.379 1.348.019c2.668-2.705 6.577-3.781 10.254-2.823s6.563 3.805 7.572 7.469-.014 7.586-2.682 10.291l-.1.1c-.258.238-.366.596-.284.937a.97.97 0 0 0 .68.705c.337.095.7-.002.947-.251l.024-.024a12.58 12.58 0 0 0-.006-17.771z"/><path d="M32.4 13.539c5.283.001 10.046 3.183 12.068 8.064s.907 10.499-2.826 14.236l-.032.032c-.585.545-1.498.521-2.054-.053s-.55-1.487.013-2.054l.094-.094c3.931-3.984 3.888-10.4-.095-14.33s-10.4-3.888-14.33.096l-.009.008c-.577.548-1.486.537-2.048-.026s-.574-1.472-.026-2.048l.007-.007a13 13 0 0 1 9.239-3.823zm8.19 21.741c.121 0 .237-.047.324-.131l.012-.012h0a12.07 12.07 0 0 0 .004-17.064 12.07 12.07 0 0 0-17.064-.004c-.171.184-.167.47.011.648s.464.184.648.013c2.087-2.125 4.942-3.318 7.92-3.309h0c4.489 0 8.54 2.697 10.271 6.839s.806 8.919-2.347 12.114l-.105.106h0c-.135.132-.176.333-.105.508s.24.29.429.292z"/></svg>