<svg xmlns="http://www.w3.org/2000/svg" width="83.531" height="38.252" xmlns:v="https://vecta.io/nano"><path d="M40.273 0h.445v38.122h-.445zm-9.716 0v28.128s.148 6.712-8.2 7.639c-.5 0-5.748 0-7.083 1.854-1.335-2-6.564-1.854-7.083-1.854-8.344-.927-8.2-7.639-8.2-7.639V0z" fill="#fff"/><g fill="#2966ff"><path d="M5.766 31.448c0 .167 0 .2-.222 0a2.04 2.04 0 0 1-.742-.76 4 4 0 0 0 .8.5c.167 0 .2 0 .167.167m.241-.371s-1.483-.371-1.613-1.15a1.85 1.85 0 0 1 .223-1.057s.426-.093.464-.26a.39.39 0 0 0-.223-.482c-.08-.052-.178-.068-.27-.043s-.169.088-.212.173a.22.22 0 0 0 0 .315s.26.352-.2.686a5.36 5.36 0 0 1-.3-1.409 11.33 11.33 0 0 1 .909-1.984c.2-.352.686-1.038.686-1.038a5.36 5.36 0 0 1-1.057 2.874 3.93 3.93 0 0 0 1.576-3.189 9.18 9.18 0 0 0-.167-1.131 18.95 18.95 0 0 0-1.372 2.077 10.01 10.01 0 0 0-.649 1.576v-1.391a4.73 4.73 0 0 1 .612-.871s.26 0 .352-.148.111-.445-.111-.538-.5.167-.5.167a.67.67 0 0 0 0 .445l-.389.334v-1.243a12.98 12.98 0 0 1 .909-1.854c.2-.352.686-1.057.686-1.057a5.38 5.38 0 0 1-1.057 2.893c.996-.775 1.555-1.984 1.5-3.245 0-.3-.093-1.075-.093-1.075-.503.583-.962 1.203-1.372 1.854a8.53 8.53 0 0 0-.593 1.539v-1.261a4.47 4.47 0 0 1 .612-.853s.26 0 .352-.167.111-.445-.111-.538-.5.167-.5.167c-.051.144-.051.301 0 .445l-.389.334v-1.28a12.98 12.98 0 0 1 .904-1.857c.2-.352.686-1.038.686-1.038a5.36 5.36 0 0 1-1.057 2.874 3.93 3.93 0 0 0 1.576-3.189 9.27 9.27 0 0 0-.167-1.113 14.2 14.2 0 0 0-1.316 1.854 12.2 12.2 0 0 0-.649 1.613v-1.257a4.73 4.73 0 0 1 .612-.871s.26 0 .352-.148.111-.464-.111-.556-.5.167-.5.167c-.051.144-.051.301 0 .445l-.389.352V15.78a8.49 8.49 0 0 1 .816-1.854l.519-.853a4.45 4.45 0 0 1-.853 2.577 3 3 0 0 0 1.409-2.744v-1.335a12.11 12.11 0 0 0-1.338 1.687 9.27 9.27 0 0 0-.538 1.632v-1.243a5.82 5.82 0 0 1 .389-.779s.278.093.371 0c.14-.145.14-.374 0-.519-.185-.167-.464.093-.464.093-.06.123-.06.266 0 .389l-.241.278v-.89a6.13 6.13 0 0 1 .7-1.854l.63-1.02a4.08 4.08 0 0 1-.8 2.466c.989-.741 1.578-1.899 1.595-3.134 0-.315-.093-1.224-.093-1.224a13.44 13.44 0 0 0-1.483 1.854 4.73 4.73 0 0 0-.482 1.854V9.789c.086-.234.187-.463.3-.686a.26.26 0 0 0 .3-.111c.044-.083.051-.181.019-.269s-.099-.159-.186-.195c-.223-.13-.315 0-.315 0a.61.61 0 0 0 0 .445l-.185.148v-1a9.03 9.03 0 0 1 .816-1.854c.222-.352.76-1.038.76-1.038a3.71 3.71 0 0 1-.816 2.41 2.63 2.63 0 0 0 1.354-2.522 3.56 3.56 0 0 0 0-1.057A9.74 9.74 0 0 0 4.28 5.784a10.55 10.55 0 0 0-.63 1.854V2.077a5.25 5.25 0 0 1 .482 3.115c.164-.514.282-1.041.352-1.576a2.82 2.82 0 0 0-.477-1.594 8.79 8.79 0 0 1-.389-1.02 2.93 2.93 0 0 1-.392 1.04 3.32 3.32 0 0 0-.408 1.632c.049.75.211 1.487.482 2.188v1.947a4.8 4.8 0 0 1-1.131-1.131 4.54 4.54 0 0 1-.5-1.576l.593.649c.279.359.533.737.76 1.131.111-1.224-1.854-2.8-1.854-2.8a6.38 6.38 0 0 0 .5 3.078 4.19 4.19 0 0 0 1.613 1.168v.779l-.274-.165a.54.54 0 0 0 0-.445s-.278-.241-.5-.111-.148.389 0 .556a.4.4 0 0 0 .371.111 2.76 2.76 0 0 1 .482.556v2.114a3.91 3.91 0 0 1-1-1.187 5.75 5.75 0 0 1-.575-1.465 13.77 13.77 0 0 1 .668.593 8.2 8.2 0 0 1 .63 1.02c.111-1.224-1.854-2.967-1.854-2.967a6.94 6.94 0 0 0 .5 3.078 3.8 3.8 0 0 0 1.613 1.316v.76l-.426-.3a.59.59 0 0 0 0-.445s-.278-.223-.5-.111-.167.389 0 .556c.087.1.223.143.352.111a4.95 4.95 0 0 1 .63.779v2.114a4.12 4.12 0 0 1-1.057-1.205 6.01 6.01 0 0 1-.575-1.465l.668.575a8.13 8.13 0 0 1 .63 1.038c.106-1.223-1.857-2.984-1.857-2.984-.069 1.058.102 2.117.5 3.1a3.82 3.82 0 0 0 1.63 1.308v.816l-.43-.311a.59.59 0 0 0 0-.445s-.278-.2-.5-.093-.167.371 0 .538c.087.1.223.143.352.111.231.242.442.502.63.779v2.114c-.426-.324-.785-.727-1.057-1.187a6.01 6.01 0 0 1-.575-1.465l.668.575a8.2 8.2 0 0 1 .63 1.02c.115-1.224-1.848-2.967-1.848-2.967a6.94 6.94 0 0 0 .5 3.078 3.93 3.93 0 0 0 1.612 1.337v1.02l-.426-.3a.59.59 0 0 0 0-.445s-.278-.222-.5-.111-.167.389 0 .556c.087.1.223.143.352.111a4.95 4.95 0 0 1 .63.779v2.114c-.428-.328-.787-.738-1.058-1.204a6.01 6.01 0 0 1-.575-1.465l.668.575a8.13 8.13 0 0 1 .63 1.038c.111-1.224-1.854-2.985-1.854-2.985-.069 1.058.102 2.117.5 3.1a3.71 3.71 0 0 0 1.613 1.3v1.017l-.426-.3a.59.59 0 0 0 0-.445s-.278-.223-.5-.111-.167.389 0 .556c.087.1.223.143.352.111.231.242.442.502.63.779v2.1c-.426-.325-.784-.729-1.056-1.19-.255-.461-.448-.954-.575-1.465l.668.575a8.13 8.13 0 0 1 .63 1.038c.111-1.224-1.854-2.967-1.854-2.967a6.97 6.97 0 0 0 .5 3.078 3.93 3.93 0 0 0 1.669 1.335 7.23 7.23 0 0 0 .167 1.279c-.371-.241-.2-.538-.2-.538.027-.14-.014-.285-.111-.389-.167-.148-.334-.26-.556-.148s-.111.315 0 .482a1 1 0 0 0 .334.278 7.23 7.23 0 0 0 .964.834 3.95 3.95 0 0 0 2.54 2.448zm19.077.499c-.167.111-.185 0-.223-.093s0-.13.167-.167a3.71 3.71 0 0 0 .816-.5c-.173.323-.437.587-.76.76m2.781-6.249a9.27 9.27 0 0 0-.649 1.595V25.42a4.47 4.47 0 0 1 .612-.853s.26 0 .352-.167.13-.445-.111-.538-.482.148-.482.148a.65.65 0 0 0 0 .464l-.389.334v-1.3a12.98 12.98 0 0 1 .909-1.854l.7-1.057c-.054 1.051-.412 2.063-1.032 2.913a3.91 3.91 0 0 0 1.483-3.282c0-.3-.093-1.075-.093-1.075a16.69 16.69 0 0 0-1.372 1.854c-.25.498-.449 1.02-.593 1.558v-1.28a4.73 4.73 0 0 1 .612-.871s.26 0 .352-.148.13-.464-.111-.556-.482.167-.482.167a.61.61 0 0 0 0 .445l-.389.352v-1.3a12.63 12.63 0 0 1 .909-1.854l.7-1.057c-.067 1.054-.44 2.066-1.075 2.911a3.95 3.95 0 0 0 1.65-3.282c-.035-.381-.097-.759-.185-1.131a17.25 17.25 0 0 0-1.316 1.86 10.1 10.1 0 0 0-.649 1.613V17.15a4.76 4.76 0 0 1 .612-.871s.26 0 .352-.148.13-.464-.111-.538c-.175-.028-.353.027-.482.148a.65.65 0 0 0 0 .464l-.389.334v-1.094c.208-.644.482-1.265.816-1.854l.538-.853c-.012.936-.316 1.845-.871 2.6a3.04 3.04 0 0 0 1.428-2.763v-1.339a10.79 10.79 0 0 0-1.355 1.685 9.05 9.05 0 0 0-.538 1.65v-1.259a5.82 5.82 0 0 1 .389-.779s.278.093.371 0c.14-.145.14-.374 0-.519-.142-.087-.322-.087-.464 0a.48.48 0 0 0-.111.371l-.241.278v-.909a6.08 6.08 0 0 1 .723-1.854l.63-1.02a4.04 4.04 0 0 1-.816 2.485 3.97 3.97 0 0 0 1.558-2.967c0-.315-.093-1.242-.093-1.242a13.2 13.2 0 0 0-1.487 1.855 4.99 4.99 0 0 0-.482 1.854V9.474a5.38 5.38 0 0 1 .315-.686.24.24 0 0 0 .3-.111c.08-.174.006-.381-.167-.464-.241-.13-.334 0-.334 0a.65.65 0 0 0 .093.464l-.185.148v-.904a8.96 8.96 0 0 1 .816-1.854c.223-.352.779-1.057.779-1.057a3.71 3.71 0 0 1-.835 2.425c.908-.533 1.411-1.556 1.279-2.6a3.56 3.56 0 0 0-.093-1.057c-.591.517-1.12 1.102-1.574 1.743a13.22 13.22 0 0 0-.649 1.854V1.821c.482.976.645 2.079.464 3.152a9.07 9.07 0 0 0 .352-1.576 2.84 2.84 0 0 0-.482-1.613c-.151-.338-.281-.684-.389-1.038a3.08 3.08 0 0 1-.389 1.057 3.71 3.71 0 0 0-.426 1.65 8.12 8.12 0 0 0 .63 2.188 17.6 17.6 0 0 1 0 1.947c-.446-.307-.835-.69-1.15-1.131a4.54 4.54 0 0 1-.5-1.576l.593.649a10.72 10.72 0 0 1 .779 1.131c.111-1.224-1.854-2.818-1.854-2.818-.09 1.064.082 2.133.5 3.115A4.19 4.19 0 0 0 26.7 8.121V8.9l-.148-.222c.054-.15.054-.314 0-.464 0 0-.278-.223-.5-.111s-.167.408 0 .575c.087.1.223.143.352.111a2.1 2.1 0 0 1 .482.575v2.114a3.91 3.91 0 0 1-1.058-1.207 5.55 5.55 0 0 1-.593-1.483 13.43 13.43 0 0 1 .667.593c.247.326.464.673.649 1.038.111-1.224-1.854-3-1.854-3a7.1 7.1 0 0 0 .5 3.115 4.04 4.04 0 0 0 1.632 1.335v.76l-.426-.241a.65.65 0 0 0 0-.464s-.3-.2-.5-.111-.185.408 0 .575c.087.1.223.143.352.111a4.17 4.17 0 0 1 .612.779v2.132c-.423-.333-.782-.742-1.057-1.205a5.88 5.88 0 0 1-.593-1.483 10.03 10.03 0 0 1 .667.575c.247.326.464.673.649 1.038.111-1.224-1.854-2.985-1.854-2.985-.069 1.058.102 2.117.5 3.1.415.59.986 1.052 1.65 1.335v.816l-.426-.3a.65.65 0 0 0 0-.464s-.3-.2-.5-.093c-.092.063-.147.167-.147.278s.055.215.147.278c.087.1.223.143.352.111a4.17 4.17 0 0 1 .612.779v2.131c-.423-.333-.782-.742-1.057-1.205a5.56 5.56 0 0 1-.593-1.483l.668.593a6.9 6.9 0 0 1 .649 1.02c.11-1.225-1.856-2.987-1.856-2.987a7.14 7.14 0 0 0 .5 3.115 4.04 4.04 0 0 0 1.632 1.335v1.038l-.426-.315a.59.59 0 0 0 0-.445s-.3-.223-.5-.111c-.092.063-.147.167-.147.278s.055.215.147.278c.087.1.223.143.352.111a4.45 4.45 0 0 1 .612.8v2.114c-.426-.324-.785-.727-1.057-1.187a5.88 5.88 0 0 1-.593-1.483l.668.575c.247.326.464.673.649 1.038.111-1.242-1.854-3-1.854-3a7.1 7.1 0 0 0 .5 3.115 3.93 3.93 0 0 0 1.632 1.306v1.02l-.426-.3a.59.59 0 0 0 0-.445s-.3-.223-.5-.111c-.092.063-.147.167-.147.278s.055.215.147.278c.087.1.223.143.352.111a4.85 4.85 0 0 1 .612.779v2.14a4.12 4.12 0 0 1-1.057-1.205 5.54 5.54 0 0 1-.593-1.483l.667.593c.247.326.464.673.649 1.038.111-1.242-1.854-3-1.854-3a7.1 7.1 0 0 0 .5 3.115 4.17 4.17 0 0 0 1.613 1.354 3.71 3.71 0 0 1-.278 1.238c-.464-.334-.185-.686-.185-.686v-.314c-.043-.085-.12-.148-.212-.173s-.19-.009-.27.043a.39.39 0 0 0-.223.482c0 .167.464.26.464.26.181.328.258.702.222 1.075-.13.779-1.613 1.15-1.613 1.15l-.352 1.224c1.184-.383 2.122-1.294 2.54-2.466a8.79 8.79 0 0 0 .983-.834s.278-.13.334-.3.167-.389 0-.5-.389 0-.556.167c-.097.104-.138.249-.111.389 0 0 .111.241-.408.519a14.3 14.3 0 0 0 .223-1.446c.239-.701.543-1.377.909-2.021l.7-1.038c-.067 1.054-.44 2.066-1.075 2.911 1.014-.76 1.607-1.958 1.595-3.226-.035-.381-.097-.759-.185-1.131a22.65 22.65 0 0 0-1.316 1.965m-10.717 6.361v2.044h-.257v-1.859h-1.43a.26.26 0 0 1-.278-.241v-.278a.54.54 0 0 0 .371.185h1.337c.051-.006.101.012.137.048s.054.087.048.137m0-.612h-1.856a.84.84 0 0 1-.482-.241l-.3 1.038c.018.178.173.311.352.3h1.5v2.169l.909-.371v-2.653s0-.278-.223-.278m6.773.63a3.58 3.58 0 0 0-.13.8h-.223v-.688c-.156.055-.326.055-.482 0l.167-.426h.538c.111 0 .167 0 .093.2m.2-.8h-.723a2.91 2.91 0 0 1-.389-.13l-.464 1.261c.111.111.686 0 .686 0l-.107.915.927-.241a3.95 3.95 0 0 1 .278-1.465c0-.278 0-.426-.2-.426m-10.165 3.208l-.167-.13-2.336-1.613v1.465h.63l-.2.315h-.742a8.2 8.2 0 0 0 0-.983c0-.3-.093-1.038-.093-1.038a.98.98 0 0 0 .13-.185s.111-.093.185 0a9.27 9.27 0 0 0 2.689 1.854zm-.352-2.559a.76.76 0 0 0 .26 0h.222c.13 0 .111.167.111.278v.2a.83.83 0 0 1 0 .426c-.079.076-.166.143-.26.2a3 3 0 0 0 0-.612h-.445a1.94 1.94 0 0 0 .148-.445m.334 1.743c-.111 0 0-.241 0-.241a2 2 0 0 0 .352-.26c.102-.087.157-.218.148-.352v-.983c0-.148 0-.2-.13-.223a4.84 4.84 0 0 0-.742 0 1.17 1.17 0 0 1-.315 0 5.82 5.82 0 0 1-.371 1.038 1.5 1.5 0 0 0 .389.093c.148 0 0 0 .111.111a1.5 1.5 0 0 1 0 .5 15.24 15.24 0 0 1-2.04-1.576h-.26c-.161.214-.31.436-.445.667l.2 1.113a9.83 9.83 0 0 1-.185 1.372h1.428l.371-.909h-.779v-.766l2.151 1.595c.13.075.167 0 .167 0l.426-.871c-.148 0-.426-.26-.538-.315"/><path d="M21.954 32.597a1.22 1.22 0 0 1 0 .352l-.519.5c-.055.055-.115.09-.185.111l-2.522.334v-1.631c0-.037.3-.352.13-.408a1.3 1.3 0 0 1-.334-.093l.2-.426h.359c.093 0 .2 0 .167.13s-.167.556-.241.76a3.71 3.71 0 0 0 0 1.205h.668l.7-1.669h-.389l.167-.334h.5c0 .093-.612 1.984-.612 1.984l1.187-.185a1.19 1.19 0 0 0 .445-.464 6.66 6.66 0 0 0 .111-.89h-.278l.13-.445h.371l-.093 1.131m-.5-1.576l-.3.964h.315c.026.197.026.396 0 .593a.61.61 0 0 1-.278.352 6.9 6.9 0 0 1-.779.148l.575-2.114h-.964l-.352.909.334.093a12.98 12.98 0 0 1-.556 1.205c-.223-.319-.278-.727-.148-1.094a3.28 3.28 0 0 1 .3-.964c.074-.148-.111-.148-.2-.148a1.6 1.6 0 0 1-.927-.167l-.408.927a.52.52 0 0 0 .371.241c.278 0 0 .278 0 .315a.41.41 0 0 0-.111.3v1.65l3.022-.426c.13 0 .13 0 .223-.13s.519-.612.575-.667 0 0 0-.2.111-1.854.111-1.854zm-5.359-12.719l.019.019h.019l-.037-.019z"/><path d="M16.057 18.264z"/><path d="M23.529 4.746c-.111.371-.408.742-.26 1.15s.241.5.093.7a.35.35 0 0 1-.25.104c-.094 0-.184-.038-.25-.104-.028-.039-.028-.091 0-.13.093-.167.334-.3.223-.519s0-.5-.13-.7-.389-.334-.464-.593.519-.352.816-.3.315.13.241.315m-.111 2.188c-.13 0-.315.093-.371 0s.185 0 .3 0h.111m0 .871h-.133c-.168-.042-.329-.104-.482-.185-.148-.093-.13-.167 0-.167s.3-.13.482-.148h0c.111 0 .13-.148.185-.241s.111 0 .111 0a1.13 1.13 0 0 1 0 .7m0 .5c-.223 0-.408-.13-.63-.148s-.148 0-.13-.111h.519c.185 0 .185 0 .241.167s0 .148 0 .148m0 .668c0 .148-.2.241-.241.445s-.093.093-.148 0-.334 0-.445-.185 0-.093 0-.093h.482c.13 0 0-.26.185-.334h.185v.185m-.241 1.224c0 .13-.26.185-.482.13s-.2-.148-.13-.223.241-.148.167-.26 0-.111 0-.13-.13 0-.167 0h0a.61.61 0 0 1 .649.223.35.35 0 0 1 0 .352m-.5.723c-.046.077-.121.132-.209.153a.33.33 0 0 1-.255-.042s-.148 0-.148-.13v-.111a2.35 2.35 0 0 1 .371 0v-.093s-.3-.185-.185-.241a.37.37 0 0 1 .408.519m-.315.871h0s0 .222-.111.3 0 0-.093-.13c-.04-.068-.108-.115-.185-.13-.093 0-.111-.148-.185-.2s.426-.093.63 0 0 .148 0 .185m-.538.76s-.093.26-.2.2-.222-.223-.352-.352h0s.223.093.3 0 0-.2 0-.278.093 0 .148 0h0a.38.38 0 0 1 .278.315c0 .13-.148.148-.222.223m-1.057.964h0c0 .148-.111.26-.13.408s-.167 0-.2 0a3.41 3.41 0 0 1-.482-.668h.148c.185.185.426 0 .593.13a.2.2 0 0 1 .111.167m-.723.575c0 .111-.13.26-.26.2a2.29 2.29 0 0 1-.482-.575h0a.16.16 0 0 0 .048.119c.032.031.075.049.119.048.167 0 0-.13.111-.167s.093 0 .167 0c.072.021.132.071.167.137s.041.144.018.215m-.668.241c0 .3-.389.371-.649.426-.612.2-1.224.334-1.854.5a3.17 3.17 0 0 1-1.02.093h.185a1.04 1.04 0 0 1-.389-.111h0a5.06 5.06 0 0 1 .927-.111 9.27 9.27 0 0 0 1.224-.334c.205-.097.404-.209.593-.334h.156c.193-.144.414-.246.649-.3.148 0 .26.13.241.2m-2.744 1.965c0 .093 0 .222-.167.222s0 .315-.167.371c-.243.088-.503.119-.76.093v-.093c.065-.023.116-.074.138-.14a.22.22 0 0 0-.027-.194h-.163c-.019 0 0 .315-.093.426s-.148 0-.241 0-.13-.093 0-.13.13 0 .185 0 0 0 0-.13h0c0-.111-.093-.223-.2-.185s-.111.093-.185.13a.24.24 0 0 0-.223-.223h-.148c-.019 0 0-.148 0-.241.5.028 1 .028 1.5 0v-.072c0-.093.111-.111.185-.111s0-.093.111-.13c.056-.037.129-.037.185 0a.5.5 0 0 1 0 .426m.093 1.558c.185 0 .426.241.3.445s-.148 0-.241 0c-.142-.009-.284-.009-.426 0h-.102c-.148-.13-.278-.334-.426-.241a.43.43 0 0 1-.334 0h0s.093-.185.2-.2c.231-.051.473-.004.668.13h.392m-1.854-1s.13 0 0 .111-.13 0-.185 0 0 0 .111-.111m1.854 2.522c-.185 0-.445.093-.575 0s0-.148 0-.222-.148-.093-.167 0a2 2 0 0 0 0 .334c0 .074-.334 0-.371 0s.278 0 .223-.223c-.069-.104-.191-.162-.315-.148a.8.8 0 0 1 0 .426c0 .093-.2 0-.3 0v-.723s.2 0 .167-.148-.167-.334-.315-.223 0 .389-.167.519a.2.2 0 0 1-.278 0h.222c.074 0 0-.26 0-.371s-.148-.111-.2 0-.111 0 0 .111c-.113-.127-.113-.318 0-.445.2-.148.5 0 .76 0a8.88 8.88 0 0 0 1.224 0c-.039.295-.001.595.111.871m.185.315c.093 0 .13 0 .167.167a7.03 7.03 0 0 1 .538 1.428 2.22 2.22 0 0 1-.7 0s-.093 0-.093-.13-.167-.7-.278-1.168c.006-.116.06-.224.148-.3.072-.027.151-.027.223 0m-.63 1.5c-.096-.103-.201-.196-.315-.278h0a7.03 7.03 0 0 1 0-.871.24.24 0 0 1 .13-.167c.111 0 .26 0 .278.111a5.73 5.73 0 0 0 .167 1.15h-.241m-.556-.223c-.185 0-.2-.185-.3-.3h0a1 1 0 0 1 0-.575c.031-.047.083-.074.139-.074s.108.028.139.074c.167.3 0 .63 0 .946m-.612-.389h-.26c-.13 0 0-.26 0-.426h.278a.39.39 0 0 1 0 .352v.111m-.983-5.321c-.693-.065-1.373-.227-2.021-.482-.185-.093-.352-.241-.538-.352h.09c.058-.178.153-.342.278-.482h0c.066.162.146.317.241.464a.52.52 0 0 0 .185.167 4.95 4.95 0 0 0 1.446.5h1.21c.074 0 0 0 0 .093h-.853m-3.264-1.167h-.167c-.056 0-.334-.148-.334-.315.029.017.064.017.093 0 0-.167 0-.334.241-.334s.612-.315.593 0-.445.389-.426.723m-.816-.538c-.158.008-.302-.091-.352-.241v-.3c0-.037 0 0 .093 0v-.13h.223c.037 0 0 .167 0 .2a3.1 3.1 0 0 0 .482-.315c.023.018.037.045.037.074s-.014.056-.037.074c-.2.26-.3.649-.668.668m-.519-.927c-.093 0-.093.223-.2.26s-.13 0-.185-.13 0 0 0-.093-.167 0-.223-.111 0-.093 0-.13.2 0 .241 0 0-.093 0-.111.167 0 .2 0 .148.111.223.185c.02.041.02.089 0 .13h-.148m-1.057-.575c0-.093.111-.148.2-.185l.371-.2c.027.085.027.175 0 .26 0 .093-.148.13-.241.2s-.2 0-.26 0m-.2-.389a.3.3 0 0 1-.167-.111v-.13h.26l.167-.111c.068-.048.144-.085.223-.111h0s-.315.464-.575.389m-.593-1v-.093c0-.093.482-.2.723-.352s.13 0 .167 0a.15.15 0 0 1 0 .148c-.2.223-.556.464-.853.278m-.222-1.038h.111c.111 0 .167-.13.185-.26s0-.167-.148-.223h0c.072-.027.151-.027.223 0v.111c0 .111.093.13.13.185a.39.39 0 0 1-.278.538h0c-.13 0-.315 0-.278-.223m0-1.483s-.315 0-.241-.13c.111-.095.228-.182.352-.26.148-.093 0-.334.185-.464s0 0 .111 0a1.72 1.72 0 0 1 0 .686c-.099.108-.243.163-.389.148h0zm-.482-1.476c.3-.185.222-.593.334-.89h0l.111-.185c.111-.185 0-.352-.093-.5s-.2-.13-.278-.223 0-.167.111-.185a.99.99 0 0 0 .426-.3s.111 0 .093.148h0c-.046.189-.046.386 0 .575a6.8 6.8 0 0 1 0 1.743c-.2 0-.593.148-.593-.167m7.472 5.97a4.71 4.71 0 0 1-1.856-.534s-.148-.111-.13-.185.13 0 .185 0a3.82 3.82 0 0 0 1.65.649h.223m-2.522-.89c-.005-.039.005-.079.03-.111s.061-.052.1-.056h0c.148-.13.278-.408.5-.389a4.99 4.99 0 0 1-.315.723c-.093.111-.2 0-.241-.167m-.093-.538h0c-.029.11-.101.204-.2.26-.101-.011-.175-.099-.167-.2v-.096c.13-.111.26-.408.426-.241s0 .13 0 .2m-.834-.334h0s0-.26.185-.241h0c.111 0 .241-.111.315 0s-.241.482-.371.426m3.5 0h.13c.445-.13.89.148 1.3 0a1.6 1.6 0 0 1 0 .723.37.37 0 0 1-.556.2c-.241-.185-.26-.556-.556-.742a.78.78 0 0 0-.241 0s-.13 0 0 0m0-6.415c-.025-.033-.025-.078 0-.111h.555c.167 0 .111-.111.2-.111s0-.093 0-.148a1.41 1.41 0 0 0 0-.278c.176.007.34.091.448.231a.59.59 0 0 1 .108.492.78.78 0 0 1-.2.3.82.82 0 0 0-.2.464c0 .389.2.742.148 1.113a.54.54 0 0 1-.167.371c-.073.047-.168.047-.241 0-.148 0-.389 0-.482-.185.236.005.447-.146.519-.371a1.1 1.1 0 0 0 0-.686c.025-.277-.013-.556-.111-.816-.111-.2-.426-.148-.649-.241m.7 4.376h0v-.464c0-.13.148 0 .222 0 .016.042.016.088 0 .13 0 .278.148.593 0 .779s-.575.111-.853 0-.13-.223 0-.26a2.41 2.41 0 0 0 .556-.241m.222-.89c.111-.111 0-.2 0-.26s.315.278.223.408-.426.111-.668.093-.13-.148 0-.167a2.2 2.2 0 0 1 .5 0zm.927 2.021a2.6 2.6 0 0 0 .3-.185s.148-.13.241-.093a.2.2 0 0 1 .093.334 2.58 2.58 0 0 1-1.094.445c-.426.093-1.3.148-1.261-.2h.426a3.71 3.71 0 0 0 1.298-.352m-.667 3.7a.54.54 0 0 1-.445 0c-.185 0-.148-.352-.241-.538s0 0-.13-.111-.315 0-.408-.2h.111a7.08 7.08 0 0 0 1.261 0c0 .241.13.593-.148.742m.593-1.335l.389-.13c.387-.165.764-.351 1.131-.556 0 0 .315.278.241.334l-1.242.519c-.431.19-.906.255-1.372.185-.126-.049-.256-.086-.389-.111h-.185c.445-.26.964 0 1.428-.167m-6.249-2.281s-.111 0 0-.111.13 0 .185 0h0c.072-.027.151-.027.223 0-.043.145-.184.238-.334.223m-.167-.519h-.167l.332-.144h0c.093.13-.111.223-.222.26m.111-.482a.13.13 0 0 1-.167 0h0c0 .111.167 0 .111.13m-.352-1.3c.148 0 .111-.185.185-.26s.2.093.241.2-.223.278-.408.2-.093-.111 0-.148m-.556-.927h0a.83.83 0 0 1 .371 0h.538c-.13.13-.315 0-.482 0a.37.37 0 0 1-.426 0m-.111-2.689V4.74h0a3.71 3.71 0 0 0 .649 0h.185a2.87 2.87 0 0 0 0 .556 3.43 3.43 0 0 0 0 .871c.019.228.019.458 0 .686h0v.148a.13.13 0 0 1-.148 0s-.148-.111-.111-.185c.099-.214.138-.451.111-.686a.5.5 0 0 0-.2-.334v-.093-.575c0-.185-.185-.148-.241-.241m5.006 5.97a2.13 2.13 0 0 1-1.113-.3c-.278-.111-.575-.334-.408-.63s.167.093.241.2c.3.445.853.426 1.3.649h0m-1.854-1.15s0-.2.111-.278.2-.185.334-.093 0 0 0 .13-.2.111-.3.223-.148 0-.167 0m-.3-.426s-.093.093-.111.093 0-.111 0-.167 0-.13.111-.111a.3.3 0 0 1 .352-.315.2.2 0 0 1 .111.2.63.63 0 0 1-.445.3m-.482-.779h0v-.2c0-.074 0 0 .13 0 .189-.046.386-.046.575 0 0 0 .167 0 .111.13s-.519 0-.723.167m.315-.649c0 .111-.241.13-.371.148v-.093c.148 0 .352-.241.371 0m-.779-.686h0a.91.91 0 0 1 .389 0h.518c-.13.13-.3 0-.482 0a.37.37 0 0 1-.426 0m-.167-2.262c-.039-.032-.062-.079-.062-.13s.023-.098.062-.13a1.45 1.45 0 0 1 .8 0h.26a.22.22 0 0 1 .166.105c.036.059.043.131.019.195-.056.13-.241.334-.315.519a2.72 2.72 0 0 0 0 .779c-.035.233-.213.419-.445.464h-.2c-.037 0 .222-.3.315-.464s0-.13 0-.167a1.7 1.7 0 0 1-.3-.445c-.093-.167 0-.334 0-.464s-.223-.26-.3-.26m6.119 4.858h.241l.223-.223s.241 0 .315.148a.2.2 0 0 1 0 .185.66.66 0 0 1-.167.2l-.2.111a.42.42 0 0 1-.408-.334m.612-4.951v-.175c.346-.018.692-.018 1.038 0 .13 0 0 0 0 .093s-.241.426-.13.649 0 .668.167 1.038a.35.35 0 0 1 0 .3.54.54 0 0 1-.649 0c-.093 0 0-.185.093-.2h.221c.144-.115.203-.306.148-.482 0-.148-.223-.148-.371-.13s.315-.223.185-.315a2.69 2.69 0 0 1-.334-.148.29.29 0 0 0-.111-.222c-.108-.076-.209-.164-.3-.26m1.242 2.04v.352c0-.019-.612-.148-.519-.26s.241 0 .408 0 .111-.241.185-.111m-.13.816h0a4.72 4.72 0 0 0-.464-.148c-.167-.037-.13 0-.093 0 .098-.047.191-.103.278-.167.093-.056.26 0 .26.2h0v.111m-.482.909l-.334-.167v-.13c0-.019.223 0 .3-.185s0-.223 0-.241.26 0 .26.111-.185.649-.371.575m-.13.8c-.057.052-.143.052-.2 0v-.093c.143-.056.275-.138.389-.241.093.167 0 .3-.093.426m0 2.429h.277c.223 0 0-.2.111-.334s.278.315.2.482-.2.111-.315.148-.3-.167-.2-.278m.445-.63h.148c.148 0 0-.093 0-.167h0a.91.91 0 0 1 .26.241c.056.111 0 0 0 .111a.2.2 0 0 1 0 .2h0l-.352-.2h0v-.093m.519-.556h.352v-.26a.5.5 0 0 1 .426.223.26.26 0 0 1 0 .26c-.102 0-.199.048-.26.13-.074.13 0 .13-.111.185s-.093 0-.111 0 0 0-.111-.093-.148-.093-.185-.13-.185-.13 0-.2m.556-1.242a.76.76 0 0 1 .723.148h0c-.078.056-.182.056-.26 0-.148-.093-.315 0-.464-.167s-.093 0 0 0m.26-1.057h0v.111h0a.87.87 0 0 1 .649.167.75.75 0 0 1-.223.649c-.223.167-.241 0-.315 0s-.111-.148 0-.185.278-.2.2-.352-.278 0-.371 0 0-.111 0-.148m.099-3.712a3.19 3.19 0 0 0 .482 0h.148c.037 0 0-.2.167-.241a.13.13 0 0 1 .2 0 .52.52 0 0 1 0 .334c0 .111-.13.223-.167.334a1.02 1.02 0 0 0 0 .334 5.12 5.12 0 0 0 0 1.187.24.24 0 0 1-.111.241 1.15 1.15 0 0 1-.5.093h0c0-.111.093-.093.13-.167v-.2a1.11 1.11 0 0 0-.111-.686.2.2 0 0 0 .222-.148c0-.241.093-.593-.148-.723s-.26 0-.371-.093 0-.148 0-.148m.668 3.412h-.26c-.074 0 0-.352.111-.538a.47.47 0 0 1 0-.278h0a.13.13 0 0 1 .148 0 .65.65 0 0 1 0 .871m-.445 1.965c0 .13-.185.3-.3.167s-.223 0-.26-.167.111-.093.148-.2.185 0 .278 0 .167 0 .13.13m2.855-6.193c-.346-.099-.716-.066-1.038.093a.63.63 0 0 0-.167.853c.222.223.093.8.148 1.038a1.32 1.32 0 0 1 0 .538v.63c-.063.129-.063.279 0 .408v.278a2.65 2.65 0 0 0 0 .445c.036.178.036.36 0 .538a5.56 5.56 0 0 1-.241.779.89.89 0 0 1-.185.593l-.148.575a4.32 4.32 0 0 0-.482.538l-.408.593-.3.464s-.612.241-.7.482-.575.278-.946.612l-.723.278s-.482 0-.612.185a7.62 7.62 0 0 0-.8.185 1.85 1.85 0 0 1-.556-.519v-.519a1.63 1.63 0 0 0 0-.26h0c.318-.061.628-.154.927-.278a1.85 1.85 0 0 0 1.038-.426c.371 0 .389-.223.389-.223a2.77 2.77 0 0 0 .519-.2c.2 0 .408-.445.408-.445l.278-.26c.3-.148.538-.668.612-.779a3.71 3.71 0 0 0 .3-.519 5.82 5.82 0 0 0 .408-1.168 4.08 4.08 0 0 0 .2-.816c.093-.575.13-1.316.13-1.316a2.24 2.24 0 0 1 0-.612 2.32 2.32 0 0 1 0-.5 2.54 2.54 0 0 1 .278-1.168c.223-.352-.148-.742-.575-.76-.327-.02-.65.079-.909.278-.223.111-.519.63-.278.853s.2.686.26.927a1.9 1.9 0 0 1 0 .593.78.78 0 0 0-.093.445 1.65 1.65 0 0 1 0 .334c-.026.135-.026.273 0 .408v.408l-.111.649a3.3 3.3 0 0 0-.426.816c-.096.233-.214.457-.352.668a1.04 1.04 0 0 0-.241.13 1.63 1.63 0 0 0-.668.649 1.6 1.6 0 0 0-.575.389 1.62 1.62 0 0 0-.593.241l-.834.408h-.118a8.16 8.16 0 0 0 0-.964 3.54 3.54 0 0 0 1.854-.7c.2-.223.093-.278.26-.315s.371-.575.538-.742a3.71 3.71 0 0 0 .371-.8 2.93 2.93 0 0 0 .26-1.113c.2-.278 0-.723 0-.723v-.742a7.73 7.73 0 0 1 .093-1.205c.111-.389.111-.612-.26-.742-.398-.129-.826-.129-1.224 0-.2.111-.723.649-.5.871a2.52 2.52 0 0 1 .556.946c0 .223.111.871.111.871v.464s-.093.742-.241.853-.111.389-.111.389l-.352.575a4.32 4.32 0 0 1-.5.482 1.45 1.45 0 0 1-.779.26h-.226a2.6 2.6 0 0 1 0-.426v-.464c0-.241-.111-.241-.111-.241l.111-.26s.13 0 .13-.167c.011-.086-.045-.166-.13-.185.028-.233.028-.467 0-.7.013-.129.013-.26 0-.389a1.86 1.86 0 0 0 0-.779c-.065-.199-.065-.413 0-.612a13.44 13.44 0 0 1 .519-.853c.111-.167.2-.5-.63-.779a1.6 1.6 0 0 0-1.5.223c-.278.13-.167.556-.167.723s.538.556.538.742v.853c0 .074-.2.111-.2.2s.111.167.167.278 0 .111 0 .111-.167.185-.148.3 0 .315.167.352 0 .13 0 .241c-.069.076-.109.175-.111.278a.7.7 0 0 0 .2.371c-.043-.002-.085.016-.114.048s-.041.076-.034.119a1.1 1.1 0 0 0 0 .334v.7h0a1.43 1.43 0 0 1-1-.482.82.82 0 0 0-.352-.334s-.13-.538-.352-.593 0-.278-.111-.389a3 3 0 0 1-.278-.7.41.41 0 0 0 .093-.2v-.26a7.33 7.33 0 0 1 0-.983 2.8 2.8 0 0 1 .556-.946.48.48 0 0 0 0-.742 3.71 3.71 0 0 0-1.65 0c-.389.13-.668.408-.445.742.201.332.322.707.352 1.094v.723c-.109.209-.109.459 0 .668a4.32 4.32 0 0 0 .315 1.279c.167.352.13.668.278.834s.371.575.538.63 0 .111.278.334a2.69 2.69 0 0 0 1.687.779.48.48 0 0 0 0 .185.52.52 0 0 1 .111.278.84.84 0 0 1-.13.408l-.278-.111-.742-.334a1.28 1.28 0 0 0-.612-.223c-.111-.2-.538-.352-.538-.352-.094-.149-.206-.286-.334-.408l-.371-.408a4.32 4.32 0 0 1-.5-.7 4.21 4.21 0 0 0-.408-.668s0-.7-.185-.76a.78.78 0 0 1 0-.352 1.33 1.33 0 0 0 0-.408 1.28 1.28 0 0 1 0-.334v-.241a7.25 7.25 0 0 1 0-.8c0-.241-.111-.871.093-1.094.097-.117.143-.269.125-.42s-.096-.289-.218-.38a1.72 1.72 0 0 0-1.131-.093c-.389.148-.668.426-.445.76.201.332.322.707.352 1.094v.593a2.41 2.41 0 0 1 0 .63 5.56 5.56 0 0 0 .148 1.205 4.08 4.08 0 0 0 .2.816 3.54 3.54 0 0 0 .408.89 5.3 5.3 0 0 0 .3.519 2.06 2.06 0 0 0 .649.946l.315.223s.241.426.464.464a1.48 1.48 0 0 0 .482.278.76.76 0 0 0 .538.3s.148.26.723.315a3.71 3.71 0 0 0 .8.26h.334c-.008.055-.008.112 0 .167a2.76 2.76 0 0 1-.093.7l-.519-.111c-.258-.078-.519-.141-.784-.19a1.43 1.43 0 0 0-.519-.241 3.28 3.28 0 0 1-.63-.315c-.371-.315-.927-.538-.964-.649s-.556-.389-.556-.389c-.158-.233-.352-.44-.575-.612a2.17 2.17 0 0 0-.356-.426l-.352-.612c-.064-.186-.107-.379-.13-.575-.126-.162-.209-.353-.241-.556l-.649-.927a2.69 2.69 0 0 1 0-.556 1.44 1.44 0 0 1-.167-.371c-.015-.129-.015-.26 0-.389a.26.26 0 0 0 0-.3c.013-.128-.027-.255-.111-.352a4.06 4.06 0 0 1 0-.816c0-.241-.13-.871 0-1.094a.56.56 0 0 0 .117-.424c-.021-.151-.103-.287-.228-.376a1.37 1.37 0 0 0-1.02 0 .52.52 0 0 0-.3.834 1.43 1.43 0 0 1 .111.927v1.335a6.08 6.08 0 0 0 .111 1.038 3.22 3.22 0 0 0 .13.668c0 .222 0 .816.167.983a2.42 2.42 0 0 0 .278.519 1.9 1.9 0 0 0 .519 1 1.85 1.85 0 0 0 .519.871s.241.408.352.389.26.482.408.519.13.464.5.519c.138.23.356.402.612.482.179.231.436.389.723.445 0 0-.111.315.593.315h0a.87.87 0 0 0 .426.167 3.71 3.71 0 0 0 .834.26h.668v.76s.371 0 .371.278 0 .278.13.315.111 0 0 .278a.47.47 0 0 0 0 .278.52.52 0 0 0-.278.5h-.185v.6h.352a.26.26 0 0 1 0 .13v.5c0 .074-.167.2-.223.278-.515.383-.813.991-.8 1.632 0 .315-.426.389-.8.5h5.841c-.408-.111-.593-.185-.612-.5.009-.644-.295-1.253-.816-1.632-.08-.088-.155-.181-.223-.278-.056-.093 0-.408 0-.5a.26.26 0 0 1 0-.13h.371v-.334h-.2a.52.52 0 0 0-.278-.5.54.54 0 0 0 0-.278c-.093-.2 0-.278 0-.278a.49.49 0 0 0 .13-.315c0-.185.371-.278.371-.278v-.777l.816-.2a4.62 4.62 0 0 0 .593-.148c.185 0 .167-.167.371-.167.686 0 .7-.223.7-.223a.76.76 0 0 0 .63-.538 1.52 1.52 0 0 0 .834-.519c.315 0 .464-.5.464-.5l.5-.519.278-.389a2.13 2.13 0 0 0 .519-1.038c.315-.26.3-.593.371-.686.107-.233.194-.475.26-.723a5.3 5.3 0 0 0 .241-1 4.47 4.47 0 0 0 .111-.668c0-.356.043-.711.13-1.057v-1.3a1.43 1.43 0 0 1 0-.871.61.61 0 0 0-.278-.927m-3.306 21.542h.2a.3.3 0 0 1 .278 0c.102.043.157.153.13.26.008.08.008.161 0 .241h0a.47.47 0 0 0 .241-.093h0l.111-.093h0l-.111.13h0c-.073.063-.164.102-.26.111h-.2a.65.65 0 0 0 .111-.26.22.22 0 0 0-.111-.222h-.223c-.072.025-.15.025-.222 0zm-.816.3v.111h0c.053.043.092.101.111.167h0a.24.24 0 0 1 0 .223.26.26 0 0 1-.2.13h-.393l-.371-.111h.056a.91.91 0 0 0 .315.111 1.24 1.24 0 0 0 .371 0h0a.2.2 0 0 0 .185-.3h0c.009-.043.009-.087 0-.13h0c-.028-.039-.028-.091 0-.13-.013-.036-.013-.075 0-.111zm-1.224.185h.074a1 1 0 0 0 .464 0h0s.148-.093.148-.148h0v-.111c0-.111 0-.241.148-.278a.26.26 0 0 1 .278 0 .39.39 0 0 0 .241.093h0c-.096.011-.192-.024-.26-.093-.071-.031-.151-.031-.222 0-.093 0-.111.148-.13.241s0 0 0 .111c-.024.088-.085.161-.167.2h-.111a1.09 1.09 0 0 1-.482 0h0zm2.058-.2h0a.91.91 0 0 1 0 .222v.389h0a.54.54 0 0 0 .3 0h.111c.079.017.162.017.241 0h0c.101-.051.18-.136.222-.241h0a.82.82 0 0 1-.241.26h0a.5.5 0 0 1-.26 0h-.111a.46.46 0 0 1-.315 0c-.185-.111-.148-.278-.093-.445s0-.13 0-.2h0z"/><path d="M19.005 23.103h0a.2.2 0 0 1 0 .093h0zm.334.612h-.111a.52.52 0 0 1-.445-.26h0a.56.56 0 0 1-.093-.3h0c-.131-.027-.233-.129-.26-.26h0a.34.34 0 0 0-.278.223h0a.48.48 0 0 1 .315-.26h.111c.015.128.101.236.223.278h.111a.41.41 0 0 1 .13-.167h.111a.26.26 0 0 1 .26 0h0c.084.137.084.308 0 .445h0a.41.41 0 0 0 0-.389h0c-.056-.037-.129-.037-.185 0h-.094a.39.39 0 0 0-.13.241.78.78 0 0 0 0 .278h0a.63.63 0 0 0 .426.241h.111zm-1.205-.334h0a.24.24 0 0 0 .13-.093h-.13a.24.24 0 0 1 .167 0h0c.009.03.009.063 0 .093h0a.3.3 0 0 1-.167.131h0zm.742.167h-.371l-.352.111h0l.389-.111h.392zm-2.448 2.543a.37.37 0 0 0-.148 0 .26.26 0 0 0-.167 0h0c-.093 0-.093.13-.111.2a.5.5 0 0 0 0 .167h-.186c.013.036.013.075 0 .111.14.099.315.133.482.093h.093c.085 0 .157-.063.167-.148a.39.39 0 0 0 0-.148c-.02-.05-.052-.095-.093-.13m-2.039-.296h0a.3.3 0 0 1 .148.093h.111a.69.69 0 0 0-.259-.112h0"/><path d="M22.046 27.535h-4.932v-2.8h4.932zm-5.173-5.748h3.3v2.448h-3.3zm-.3 4.6h0c-.037.087-.11.155-.2.185h-.093a.54.54 0 0 1-.516-.092.61.61 0 0 1-.26.185c-.16.027-.322.027-.482 0h0c.154.027.31.027.464 0 .143-.046.254-.157.3-.3a.24.24 0 0 0 0-.111c.009-.043.009-.087 0-.13h0v-.093h0a.3.3 0 0 0-.278 0h0a.24.24 0 0 0 0 .111h0a.54.54 0 0 0-.185 0 .26.26 0 0 0-.167 0h-.13c-.03-.014-.063-.014-.093 0h-.315c-.064-.025-.136-.025-.2 0-.053.098-.053.217 0 .315-.019.123-.019.248 0 .371h0c-.05-.124-.082-.255-.093-.389a.37.37 0 0 1 .111-.352c.076-.037.165-.037.241 0 .079-.017.162-.017.241 0h-.482c.149.007.289.074.389.185h0a.54.54 0 0 1 .185 0h0c.001-.054.04-.101.093-.111a.37.37 0 0 1 .334 0h0a.41.41 0 0 1 0 .148h.2v-.129c0-.037 0-.222.148-.26a.39.39 0 0 1 .371.093v.334m-2.262.111a.72.72 0 0 0-.2-.167c-.063-.033-.12-.077-.167-.13h0c.008.049.008.099 0 .148h0v-.129a.26.26 0 0 1 0-.111h.13l.167.111c.107.017.195.095.223.2zm-.111.371h-.099a.13.13 0 0 1-.111 0h0a1 1 0 0 1-.278.167h0a.48.48 0 0 0 .26-.167h.222zm-1.187.445h-.132V24.98h3.13v.148h-2.578zm-.334.223h.315v-2.892h3.708v.148h-3.714zm-.834-3.986v-.093h0zm.8-.538h0c-.027.131-.129.233-.26.26h0a.61.61 0 0 1 0 .315h.389l.371.111h0l-.371-.111h-.371a.76.76 0 0 1-.426.2h-.111c.164-.02.315-.099.426-.222h0a.48.48 0 0 0 0-.278c.002-.098-.047-.189-.13-.241h-.2c-.083.116-.083.273 0 .389h0c-.084-.137-.084-.308 0-.445h0a.24.24 0 0 1 .241 0h.111c.057.035.103.087.13.148h.111c.122-.042.208-.15.223-.278h.093a.4.4 0 0 1 .334.278h0a.52.52 0 0 0-.334-.241m.223.426h-.148a.24.24 0 0 0 .223.111h0a.3.3 0 0 1-.278-.13.2.2 0 0 1 0-.093h0c.06-.017.125-.017.185 0zm-.593 3.708h-.371c-.102.037-.213.037-.315 0-.185-.111-.148-.278 0-.445s0-.148 0-.2h0a.5.5 0 0 1 0 .222v.371h0c.098.027.202.027.3 0h.111c.079.017.162.017.241 0h0a.61.61 0 0 0 .241-.241h0a.65.65 0 0 1-.241.26m-1.391-1.038h-.222c-.074 0-.111.148-.13.26h0a.39.39 0 0 1-.185.2h-.167c-.06.019-.125.019-.185 0a.48.48 0 0 1 0-.167v-.13h0v.111a.37.37 0 0 0 0 .148h.3a.26.26 0 0 0 .148-.167h0a.13.13 0 0 0 0-.093c0-.111 0-.241.167-.3h.278c.072.027.151.027.223 0h0a.37.37 0 0 1-.278-.093m0 .964c-.045.064-.11.109-.185.13h0c-.122.028-.249.028-.371 0a1.41 1.41 0 0 1-.388-.104h.037l.334.093h.389c.068-.015.127-.055.167-.111a.3.3 0 0 0 0-.185h0c.016-.042.016-.088 0-.13h0c-.037-.056-.037-.129 0-.185h0v.111h0c.054.031.089.086.093.148h0a.26.26 0 0 1 0 .223m-1.52.464h-.3v-1.854h2.707v.111h-2.56zm2.874-1.075l.111-.111h0c-.027.046-.065.084-.111.111h0c-.075.058-.166.09-.26.093h-.13a.87.87 0 0 0 .111-.278c.003-.082-.04-.159-.111-.2a.24.24 0 0 0-.223 0 .5.5 0 0 1-.222 0h0c.066.016.134.016.2 0a.3.3 0 0 1 .278 0 .26.26 0 0 1 .13.278 1.04 1.04 0 0 1 0 .222h0c.078.03.163.03.241 0h0m-3.189 1.3h-.148V24.88h3.208v.148H8.696zm3.523-5.568v.13h-1.483v1.743h-.185v-1.855h1.465zm-1.854-.315h2.04v.13H10.55v2.335h-.13zm2.373 0h3.708v.13h-3.671v2.335h-.148zm.482.445v1.743h-.26v-1.855h3.152v.13zm.668 1.279s0 .093-.13.111h0l.111-.093c.111-.093 0-.111.148-.111h.111c.101.07.152.194.13.315h0c-.036-.079-.114-.129-.2-.13h-.167l-.111.093m1.743 0h0a.3.3 0 0 1 0-.222h0a1.02 1.02 0 0 1-.742 0c-.067-.02-.129-.051-.185-.093a.5.5 0 0 1-.148-.13h0c-.022.127.059.25.185.278h0c-.13-.093-.241-.2-.2-.352h.241l.148.13h.167c.292.102.614.061.871-.111h0a.3.3 0 0 0-.13.13c-.027.052-.027.115 0 .167m.7-.426c-.068-.008-.122-.062-.13-.13h0s0-.185-.148-.222h-.225a.61.61 0 0 0-.185.111l-.13.093h0c-.161.063-.339.063-.5 0a1.63 1.63 0 0 1-.482-.223c-.06-.019-.125-.019-.185 0h0a.3.3 0 0 0-.148.106c-.004.06-.051.107-.111.111h-.26c-.026.046-.026.102 0 .148s.026.102 0 .148h0v.111h0a.3.3 0 0 1 0-.13c-.013-.036-.013-.075 0-.111h0v-.3c.054-.017.113-.017.167 0h.111v-.093a.3.3 0 0 1 .167-.13h0a.5.5 0 0 1 .222 0h0a1.43 1.43 0 0 0 .445.222.63.63 0 0 0 .482 0h.111a.76.76 0 0 1 .2-.13h.26c.097.064.164.164.185.278h.074m-.371.389h0c.012-.114.108-.2.222-.2a.3.3 0 0 1 .167 0h.111l-.371.612a.2.2 0 0 0-.13 0s-.13 0-.167.167m4.394.964V21.49H10.064v3h-1.85v3.319h14.073v-3.315z"/><path d="M17.281 23.936h2.429v-1.724h-2.429zm-.093 0v-1.854h2.61v1.854h-2.61zm.464 3.154h3.917v-1.947h-3.917zm0 0v-2.04h4.005v2.17h-4.1zm-7.973 5.525c0 .482 0 .612-.167.723a6.32 6.32 0 0 1-1.094.538l.093-.315a6.34 6.34 0 0 0 .7-.278c.334-.13.2-1.094.2-1.261s0-.2-.111-.241H7.138a9.12 9.12 0 0 0 0-1.539v-.927c.5-.241-.13-.241-.13-.241v-.593c0 .111.5 0 .593 0s.167.111 0 .167 0 .223-.148.519c-.075.721-.075 1.448 0 2.169v.109h2.225a3.25 3.25 0 0 0 0 1.113m-1.965-1.632h0v-1.537c0-.074 0-.7.3-.834s0-.223-.111-.185a2.82 2.82 0 0 1-1.168 0l-.185.964s.593 0 .111.334a3.3 3.3 0 0 1 0 .649 9.6 9.6 0 0 1-.111 1.854h2.373c.111 0 .148 0 .148.26s.13.686-.26.816a2.06 2.06 0 0 1-.779.167l-.167.964c.458-.147.904-.326 1.335-.538.278-.185.667-.334.667-.927a6.12 6.12 0 0 1 .148-1.854z"/></g><path d="M50.063 14.351h4.784v9.568h-4.784zM59.63 23.9h23.9v14.351h-23.9z" fill="#9ee0fc"/><g fill="#fff"><path d="M59.63 23.9h19.117v9.549H59.63z"/><path d="M54.846 14.351h4.784v9.568h-4.784z"/></g><path d="M54.846 23.9h4.784v9.549h-4.784zm0-23.9h23.9v14.351h-23.9z" fill="#9ee0fc"/><path fill="#fff" d="M59.63 4.783h19.117v9.549H59.63z"/><path fill="#9ee0fc" d="M78.747 4.783h4.784v9.549h-4.784z"/></svg>