<svg id="Layer_1" data-name="Layer 1" xmlns="http://www.w3.org/2000/svg" viewBox="0 0 150 150">
  <defs>
    <style>
      .cls-1 {
        fill: #fff;
      }

      .cls-2 {
        fill: #b7c2ce;
      }
    </style>
  </defs>
  <g id="Group_331" data-name="Group 331">
    <g id="Group_330" data-name="Group 330">
      <g id="Group_327" data-name="Group 327">
        <path id="Path_44" data-name="Path 44" class="cls-1" d="M111.5,98.12a7.72,7.72,0,0,1-4.34-1.34l-.26-.18c-.41-.29-.88-.56-1.37-.84l-.14-.08c-.44-.26-.91-.53-1.38-.83a5.7,5.7,0,0,1-2.62-3.47,5.57,5.57,0,0,1,.74-4.32l3.35-5.6a5.46,5.46,0,0,1,3.43-2.69,5.57,5.57,0,0,1,4.3.74l2.24,1.34.29-.27a27.44,27.44,0,0,0,4.9-7.38,18.09,18.09,0,0,0,1-2.57l-1.18-.71-1.05-.64a5.47,5.47,0,0,1-2.22-7.4l.26-.43,1.73-2.88c.17-.27.34-.55.49-.83.36-.62.77-1.32,1.22-2a5.49,5.49,0,0,1,3.37-2.55,5.7,5.7,0,0,1,4.25.67l.09.06L132,56a7.7,7.7,0,0,1,3.39,4.2,16.15,16.15,0,0,1,.55,7,37.76,37.76,0,0,1-3.8,12.5,41.22,41.22,0,0,1-10.72,13.75,22,22,0,0,1-7.19,4.21,5.83,5.83,0,0,1-.62.17A8.87,8.87,0,0,1,111.5,98.12Zm-2.45-3.87a4.77,4.77,0,0,0,3.81.54l.43-.13A18.92,18.92,0,0,0,119.42,91a38.07,38.07,0,0,0,9.89-12.7,34.7,34.7,0,0,0,3.5-11.47,13.17,13.17,0,0,0-.39-5.65,4.56,4.56,0,0,0-2-2.51l-3.48-2.11a2.64,2.64,0,0,0-1.9-.34,2.43,2.43,0,0,0-1.47,1.17c-.44.66-.82,1.32-1.14,1.87-.16.29-.35.6-.53.9l-1.73,2.88a2.3,2.3,0,0,0,.42,3.22,2.07,2.07,0,0,0,.45.27l1.08.66c.67.41,1.37.84,2.08,1.22l1,.55L125,70.12a18.85,18.85,0,0,1-1.45,4.39A30.7,30.7,0,0,1,118,82.76c-.25.25-.52.49-.82.75l-.16.14-.35.31-.87.79-4.23-2.53a2.47,2.47,0,0,0-1.92-.39A2.32,2.32,0,0,0,108.21,83l0,0-3.36,5.62a2.59,2.59,0,0,0-.38,1.92,2.7,2.7,0,0,0,1.25,1.56c.42.27.85.52,1.26.76l.15.09a20.36,20.36,0,0,1,1.78,1.11Z"/>
      </g>
      <g id="Group_329" data-name="Group 329">
        <g id="Group_328" data-name="Group 328">
          <path id="Path_45" data-name="Path 45" class="cls-2" d="M80.32,51.88h0a17.69,17.69,0,0,0-6.82,1.24,14.82,14.82,0,0,0-5,3.35,14.43,14.43,0,0,0-3.14,5,17.27,17.27,0,0,0-.12,11.69,12.39,12.39,0,0,0,2.87,4.56,13.4,13.4,0,0,0,4.83,3,19,19,0,0,0,6.81,1.11,8,8,0,0,0,2-.24A14.78,14.78,0,0,0,83.54,81a13.25,13.25,0,0,0,1.71-.79,12.94,12.94,0,0,0,1.36-.86c0,.45,0,.94-.08,1.49a16.79,16.79,0,0,1-.24,1.67c-.1.56-.23,1.09-.37,1.61a6.93,6.93,0,0,1-.5,1.31,5.74,5.74,0,0,1-1.23,1.62,8.15,8.15,0,0,1-1.68,1.17,8.29,8.29,0,0,1-1.87.71,8.14,8.14,0,0,1-1.84.24,19,19,0,0,1-2-.13,25.19,25.19,0,0,1-2.6-.44c-.94-.21-1.93-.48-3-.8a21.93,21.93,0,0,1-3.09-1.2l-1.06,9a18.63,18.63,0,0,0,2.83,1c1,.28,2.14.52,3.26.71s2.26.33,3.39.43,2.21.14,3.21.14a22.43,22.43,0,0,0,4.76-.49,15.24,15.24,0,0,0,4.22-1.57,15,15,0,0,0,3.58-2.77,16.22,16.22,0,0,0,2.81-4.13,21.46,21.46,0,0,0,1.5-4,39.75,39.75,0,0,0,.87-4.18,37.6,37.6,0,0,0,.41-3.84c.06-1.2.1-2.22.09-3s0-1.54-.1-2.53-.2-2-.36-3.1-.38-2.15-.63-3.22A17.44,17.44,0,0,0,96,62.08a20.6,20.6,0,0,0-2.2-4,13.51,13.51,0,0,0-3.17-3.23,15,15,0,0,0-4.41-2.14,20,20,0,0,0-5.87-.77M81.05,73a7.4,7.4,0,0,1-2.63-.42,5.3,5.3,0,0,1-1.89-1.2,5.19,5.19,0,0,1-1.15-1.86,6.74,6.74,0,0,1-.38-2.4,6.6,6.6,0,0,1,1.41-4.42,5,5,0,0,1,4-1.66,5.54,5.54,0,0,1,2.92.73,5.8,5.8,0,0,1,2,1.94,8.07,8.07,0,0,1,1.06,2.8,11.73,11.73,0,0,1,.14,3.29,6.87,6.87,0,0,1-2.33,2.28,5.94,5.94,0,0,1-3.17.92M60.77,52H53.13a20.31,20.31,0,0,1-2.4,3.43,22,22,0,0,1-3,2.74c-.54.42-1.11.82-1.69,1.2s-1.23.76-2,1.14-1.52.76-2.41,1.15-1.9.82-3.05,1.28v9.47a19.42,19.42,0,0,0,2.11-.72c.85-.32,1.72-.69,2.61-1.09s1.77-.81,2.61-1.23,1.56-.8,2.14-1.14l1-.65c.36-.24.69-.45,1-.62V97.17H60.76ZM36,52H28.36A20.37,20.37,0,0,1,26,55.41a21.45,21.45,0,0,1-3,2.74q-.81.63-1.68,1.2c-.59.38-1.24.76-2,1.14s-1.52.76-2.4,1.15-1.9.82-3.05,1.28v9.47A19.42,19.42,0,0,0,16,71.67c.84-.32,1.71-.69,2.61-1.09s1.76-.81,2.61-1.23,1.56-.8,2.14-1.14l1-.65c.37-.24.7-.45,1-.62V97.17H36Z"/>
        </g>
      </g>
    </g>
  </g>
</svg>
