<svg version="1.2" xmlns="http://www.w3.org/2000/svg" viewBox="0 0 849 648" width="849" height="648"><defs><clipPath clipPathUnits="userSpaceOnUse" id="cp1"><path d="m75.09 0h748v653h-748z"/></clipPath><clipPath clipPathUnits="userSpaceOnUse" id="cp2"><path d="m0.56-13h831.59v666.49h-831.59z"/></clipPath><clipPath clipPathUnits="userSpaceOnUse" id="cp3"><path d="m709.77 41.4v373.9c0 2.23-0.37 4.46-1.1 6.57-0.72 2.12-1.79 4.1-3.17 5.87-1.37 1.76-3.03 3.29-4.9 4.51-1.88 1.23-3.94 2.13-6.11 2.68l-515.49 130.46c-2.98 0.75-6.1 0.81-9.12 0.18-3.02-0.63-5.85-1.95-8.28-3.84-2.43-1.89-4.4-4.32-5.75-7.09-1.36-2.77-2.06-5.81-2.06-8.89v-373.9c0-2.24 0.37-4.46 1.1-6.58 0.73-2.11 1.8-4.1 3.17-5.86 1.38-1.77 3.03-3.3 4.91-4.52 1.87-1.22 3.93-2.13 6.1-2.68l515.49-130.45c2.99-0.76 6.11-0.83 9.13-0.2 3.02 0.63 5.85 1.94 8.29 3.84 2.43 1.89 4.4 4.32 5.75 7.09 1.35 2.78 2.05 5.82 2.04 8.91z"/></clipPath><clipPath clipPathUnits="userSpaceOnUse" id="cp4"><path d="m75.09-13h757.06v666.49h-757.06z"/></clipPath><clipPath clipPathUnits="userSpaceOnUse" id="cp5"><path d="m302.49 163.34h210.52v308.04h-210.52z"/></clipPath><clipPath clipPathUnits="userSpaceOnUse" id="cp6"><path d="m393.45 240.32h115.98v161.51h-115.98z"/></clipPath><clipPath clipPathUnits="userSpaceOnUse" id="cp7"><path d="m0.56-13h831.59v666.49h-831.59z"/></clipPath><clipPath clipPathUnits="userSpaceOnUse" id="cp8"><path d="m593.37 223.49h116.4v159.74h-116.4z"/></clipPath><clipPath clipPathUnits="userSpaceOnUse" id="cp9"><path d="m808.61 235.67l-2.38 99.84c-0.25 10.54-6.42 18.58-16.19 21.09l-155.73 39.05c-13.69 3.51-24.61-6.08-24.26-20.85l2.05-90.55c0.26-11.37 6.92-20.04 17.46-22.75l163.27-41.91q0.4-0.11 0.81-0.18 0.4-0.08 0.81-0.14 0.41-0.05 0.82-0.08 0.41-0.03 0.82-0.03c7.34 0 12.75 6.76 12.52 16.51z"/></clipPath><clipPath clipPathUnits="userSpaceOnUse" id="cp10"><path d="m660.86 296.4c9.24 5.43 20.91 10.86 37.9 7.53 11.05-2.16 19.73 1.63 26.67 5.43 5.74 3.13 10.28 6.27 13.97 6.04 13.84-0.88 7.8-1.84 19.39-4.86q3.12-0.91 6.36-0.87c2.14 0.02 4.28 0.37 6.32 1.03 2.05 0.66 3.98 1.63 5.75 2.86 1.76 1.23 3.32 2.72 4.64 4.42l-0.26 11.8-149.22 39.79 1.76-78.53q0.82-0.74 1.75-1.32 0.93-0.59 1.96-0.99 1.02-0.41 2.1-0.63 1.07-0.22 2.17-0.24c5.68 0 11.46 4.27 18.74 8.54z"/></clipPath><clipPath clipPathUnits="userSpaceOnUse" id="cp11"><path d="m605.38 114.26h104.39v79.13h-104.39z"/></clipPath><clipPath clipPathUnits="userSpaceOnUse" id="cp12"><path d="m539.74 572.38c-0.01 2.74 6.87 4.1 10.91 2.16 4.58-2.2 11.97-2.21 16.52-0.02l2.34 1.12c4.55 2.19 4.52 5.75-0.05 7.95-4.04 1.95-1.21 5.26 4.49 5.25 6.45-0.01 11.66 2.5 11.64 5.6l-0.01 1.6c-0.02 3.1-5.26 5.63-11.71 5.64-5.71 0-8.58 3.32-4.56 5.26 4.55 2.18 4.52 5.74-0.05 7.94l-2.36 1.14c-4.58 2.2-11.97 2.21-16.52 0.02-4.02-1.93-10.92-0.55-10.93 2.2-0.02 3.1-5.27 5.62-11.72 5.63h-3.32c-6.45 0.01-11.67-2.5-11.65-5.6 0.02-2.74-6.86-4.1-10.9-2.16-4.58 2.2-11.98 2.22-16.52 0.03l-2.34-1.13c-4.55-2.19-4.53-5.74 0.05-7.95 4.04-1.94 1.21-5.25-4.49-5.24-6.45 0.01-11.66-2.5-11.64-5.6l0.01-1.6c0.02-3.1 5.26-5.63 11.71-5.64 5.7-0.01 8.58-3.33 4.56-5.26-4.55-2.19-4.52-5.75 0.05-7.95l2.36-1.13c4.57-2.2 11.97-2.21 16.52-0.03 4.02 1.94 10.92 0.55 10.93-2.19 0.02-3.1 5.27-5.63 11.72-5.64h3.36c6.43 0 11.63 2.5 11.6 5.6zm6.95 32.78c11.36-5.46 11.41-14.29 0.13-19.72-11.29-5.43-29.65-5.4-41 0.06-11.36 5.46-11.42 14.29-0.13 19.72 5.62 2.7 12.99 4.06 20.38 4.06 7.45 0 14.92-1.38 20.62-4.12z"/></clipPath><clipPath clipPathUnits="userSpaceOnUse" id="cp13"><path d="m421.06 546.47c-0.02 2.21 5.54 3.31 8.81 1.74q1.59-0.66 3.27-1 1.69-0.34 3.4-0.34 1.72 0 3.41 0.33 1.68 0.34 3.27 0.99l1.89 0.91c3.67 1.77 3.66 4.64-0.04 6.42-3.27 1.58-0.98 4.25 3.62 4.24 5.22 0 9.43 2.02 9.41 4.53v1.29c-0.02 2.51-4.26 4.55-9.47 4.56-4.6 0-6.93 2.69-3.69 4.25 3.68 1.77 3.66 4.64-0.04 6.42l-1.9 0.91q-1.58 0.66-3.27 1-1.68 0.34-3.4 0.34-1.72 0.01-3.4-0.33-1.69-0.33-3.28-0.99c-3.24-1.56-8.82-0.44-8.83 1.78-0.02 2.5-4.26 4.54-9.47 4.55h-2.68c-5.21 0.01-9.43-2.02-9.41-4.53 0.01-2.21-5.55-3.31-8.81-1.74q-1.59 0.66-3.27 1-1.69 0.33-3.41 0.34-1.71 0-3.4-0.33-1.69-0.34-3.27-0.99l-1.89-0.91c-3.68-1.77-3.66-4.64 0.04-6.42 3.26-1.58 0.98-4.25-3.63-4.24-5.21 0-9.43-2.02-9.41-4.53l0.01-1.29c0.02-2.51 4.25-4.55 9.47-4.56 4.6-0.01 6.93-2.69 3.68-4.25-3.67-1.77-3.66-4.64 0.04-6.42l1.9-0.92q1.59-0.66 3.27-1 1.69-0.33 3.41-0.34 1.71 0 3.4 0.33 1.68 0.34 3.27 0.99c3.25 1.57 8.82 0.45 8.84-1.77 0.01-2.51 4.25-4.55 9.46-4.55h2.72c5.2 0 9.4 2.02 9.38 4.53zm5.61 26.48c9.18-4.41 9.22-11.55 0.1-15.94-9.12-4.38-23.95-4.36-33.13 0.05-9.18 4.42-9.22 11.55-0.1 15.94q1.94 0.85 3.96 1.48 2.02 0.64 4.1 1.05 2.08 0.41 4.18 0.6 2.11 0.19 4.23 0.15 2.14 0.04 4.28-0.15 2.13-0.19 4.23-0.61 2.1-0.42 4.14-1.07 2.05-0.64 4.01-1.5z"/></clipPath></defs><style>.a{fill:#050c27}.b{fill:none}.c{fill:#003091}.d{fill:#c8dbff}.e{opacity:.4;fill:#050c27;stroke:#fff}.f{fill:#0044c9}.g{mix-blend-mode:multiply;fill:#0049d8}.h{fill:#f5f6f7}.i{fill:#0049d8}.j{fill:#0039aa}.k{fill:#1d69ff}.l{fill:none;stroke:#002e8a;stroke-linecap:round;stroke-linejoin:round;stroke-width:4.4}.m{fill:#fff}.n{fill:#dce8ff}.o{mix-blend-mode:multiply;fill:#050c27}.p{fill:#0068f5}.q{fill:none;stroke:#fff;stroke-linecap:round;stroke-linejoin:round;stroke-width:4.3}.r{mix-blend-mode:multiply;fill:#719bf8}.s{fill:#fac05e}.t{fill:#e59000}.u{fill:#ce8100}.v{fill:#ffb12e}.w{fill:none;stroke:#fffcfa;stroke-linecap:round;stroke-linejoin:round;stroke-width:1.9}.x{fill:#050c27;stroke:#fff}.y{fill:#1a68ff}.z{fill:none;stroke:#fff;stroke-linecap:round;stroke-linejoin:round;stroke-width:2.9}.A{opacity:.4;fill:none;stroke:#fff}.B{fill:#719bf8}.C{fill:#004ad9}.D{fill:#0042c4}.E{fill:#075bff}</style><path class="a" d="m158.4 517.7c-5.5-21.9 7.9-44.2 29.9-49.7l452.1-112.7c22-5.5 44.3 7.9 49.7 29.9 5.5 21.9-7.9 44.2-29.8 49.7l-452.2 112.7c-22 5.5-44.2-7.9-49.7-29.9z"/><path class="b" d="m308.7 280.8l1 100.8c0.1 10.6-5.9 18.6-15.7 20.9l-155.1 35.6c-13.8 3.2-27.4-11.9-27.5-26.8l-0.9-86.3c-0.1-11.5 6.4-20.1 17-22.6l164.6-38.2q0.4-0.1 0.7-0.2 0.4-0.1 0.8-0.1 0.4 0 0.7-0.1 0.4 0 0.8 0c7.6 0 13.5 7 13.6 17z"/><g clip-path="url(#cp1)"><g clip-path="url(#cp2)"><path class="c" d="m149.7 139.1l515.5-130.5q2.3-0.6 4.7-0.6 2.4 0 4.7 0.5 2.4 0.6 4.5 1.6 2.2 1.1 4 2.6l18.1 12.4-10.8 14.8v362.3c0 2.2-0.4 4.4-1.1 6.6-0.7 2.1-1.8 4.1-3.2 5.8-1.4 1.8-3 3.3-4.9 4.5-1.9 1.3-3.9 2.2-6.1 2.7l-511.8 141.1c0 0-15.3-10.4-19.8-13.4q-2.1-1.4-3.8-3.2-1.7-1.9-2.9-4.1-1.2-2.2-1.8-4.6-0.6-2.5-0.6-5v-373.9c0-2.2 0.4-4.4 1.1-6.5 0.7-2.2 1.8-4.1 3.2-5.9 1.4-1.8 3-3.3 4.9-4.5 1.9-1.2 3.9-2.1 6.1-2.7z"/></g><g clip-path="url(#cp3)"><path class="d" d="m153.8 21.1h556v547.5h-556z"/></g><path class="e" d="m269.8 313.9l-2.2 90.4c-0.2 9.6-5.8 16.9-14.7 19.2l-141.1 35.3c-12.4 3.2-22.3-5.5-21.9-18.8l1.8-82.1c0.3-10.3 6.3-18.1 15.8-20.6l148-38q0.3-0.1 0.7-0.1 0.4-0.1 0.7-0.2 0.4 0 0.8 0 0.4-0.1 0.7-0.1c6.7 0 11.6 6.2 11.4 15z"/><g clip-path="url(#cp4)"><path class="f" d="m153.8 222.2v-50.3c0-2.3 0.4-4.5 1.1-6.6 0.7-2.1 1.8-4.1 3.2-5.9 1.3-1.8 3-3.3 4.9-4.5 1.8-1.2 3.9-2.1 6.1-2.7l515.5-130.4c2.9-0.8 6.1-0.9 9.1-0.2 3 0.6 5.8 1.9 8.3 3.8 2.4 1.9 4.4 4.3 5.7 7.1 1.4 2.8 2.1 5.8 2.1 8.9v33.6z"/><g style="opacity:.2"><g clip-path="url(#cp5)"><path class="g" d="m303.5 382.6l-1-142.7 104.4-76.6 105.1 18.7 1 142.7c0.5 60.8-42.8 107.4-101.1 146.7-68-16.9-109.4-68.4-108.4-88.8z"/></g></g><path class="h" d="m219.1 168.4q0.7-1.4 1.8-2.6 1.1-1.1 2.6-1.8 1.4-0.7 2.9-0.9c1-0.2 1.9-0.1 2.8 0.2 0.9 0.2 1.7 0.7 2.3 1.4 0.7 0.6 1.2 1.4 1.5 2.3q0.5 1.4 0.3 2.7-0.3 1.6-0.9 3-0.7 1.4-1.9 2.6-1.1 1.1-2.5 1.8-1.4 0.7-3 0.9c-0.9 0.2-1.8 0.1-2.7-0.2-0.9-0.2-1.7-0.7-2.4-1.4-0.6-0.6-1.1-1.4-1.4-2.3q-0.4-1.4-0.3-2.7 0.2-1.6 0.9-3z"/><path class="h" d="m196.5 174.2q0.7-1.4 1.8-2.5 1.1-1.1 2.6-1.9 1.4-0.7 2.9-0.9c1-0.2 1.9-0.1 2.8 0.2 0.9 0.3 1.7 0.7 2.3 1.4 0.7 0.6 1.2 1.4 1.5 2.3q0.5 1.3 0.3 2.7-0.3 1.6-1 3-0.6 1.5-1.8 2.6-1.1 1.1-2.5 1.8-1.4 0.7-3 1c-0.9 0.1-1.8 0.1-2.7-0.2-0.9-0.3-1.7-0.8-2.4-1.4-0.6-0.7-1.1-1.5-1.4-2.3-0.3-0.9-0.4-1.9-0.3-2.8q0.2-1.6 0.9-3z"/><path class="h" d="m174.4 180.3q0.7-1.4 1.8-2.5 1.1-1.1 2.5-1.9 1.4-0.7 3-0.9c0.9-0.1 1.8-0.1 2.7 0.2 0.9 0.3 1.7 0.7 2.4 1.4 0.7 0.6 1.2 1.4 1.5 2.3 0.2 0.9 0.3 1.8 0.2 2.7q-0.2 1.6-0.9 3-0.7 1.5-1.8 2.6-1.1 1.1-2.5 1.8-1.5 0.7-3 1c-0.9 0.1-1.9 0.1-2.8-0.2-0.9-0.3-1.7-0.8-2.3-1.4-0.7-0.7-1.2-1.5-1.5-2.3-0.3-0.9-0.4-1.9-0.2-2.8q0.2-1.5 0.9-3z"/><path class="i" d="m329.6 382.3l-1.1-142.7 104.4-76.6 105.1 18.7 23.7 17.5-22.6 125.2c0.4 60.8-36.2 127.6-89.9 146.5-59.7 7.6-120.7-38.8-119.6-88.6z"/><path class="j" d="m329.6 382.3l-1.1-142.7 104.4-76.6 23.7 17.5 82.5 143.9c0.4 60.8-36.2 127.6-89.9 146.5-59.7 7.6-120.7-38.8-119.6-88.6z"/><path class="i" d="m329.6 382.3l-1.1-142.7 23.7 17.5 186.9 67.3c0.4 60.8-36.2 127.6-89.9 146.5-59.7 7.6-120.7-38.8-119.6-88.6z"/><path class="k" d="m353.2 399.7l-1-142.6 104.4-76.6 105.1 18.7 1 142.7c0.5 60.8-42.7 107.4-101.1 146.7-68-16.9-109.4-68.4-108.4-88.9z"/><path class="l" d="m353.2 399.7l-1-142.6 104.4-76.6 105.1 18.7 1 142.7c0.5 60.8-42.7 107.4-101.1 146.7-68-16.9-109.4-68.4-108.4-88.9z"/><path class="m" d="m391.8 347.1l-14.4-73.3 83.5-61.2 84.1 15 0.8 114.1c0.3 48.6-44.4 86.1-83.8 123.7 0 0-69.9-69.7-70.2-118.3z"/><path class="n" d="m378.2 388l-0.8-114.2 83.5-61.2 1.1 252.8c-51.2-20.1-79.6-53.6-83.8-77.4z"/><g style="opacity:.1"><g clip-path="url(#cp6)"><path fill-rule="evenodd" class="o" d="m393.5 387.7l0.2-63.3v-11c0.1-3.7 4-7.1 11-8.9l15.2-3.9c-0.3-19 2.7-56.4 31.6-59.9 0 0 32-7.4 31.7 45.8 8.4 0.4 16.8 2.7 21.9 6.5 2.7 2 4.1 4.3 4.3 6.4 0 0.2 0 0.6 0 0.8v73.7h-0.1c0.6 4-3.2 7.9-10.8 9.9l-65.4 16.8c-11.4 2.9-27.2 0.5-35-5.3q-0.7-0.5-1.2-1-0.6-0.5-1.1-1.1-0.5-0.6-0.9-1.3-0.4-0.6-0.8-1.4-0.1-0.3-0.3-0.6-0.1-0.4-0.2-0.7-0.1-0.4-0.1-0.8 0-0.3 0-0.7zm60.7-124.7q-0.5 0-0.9 0-0.5 0-0.9 0.1-0.5 0.1-0.9 0.2-0.4 0.1-0.9 0.3c-3.4 1.7-10.9 7.9-11.6 32.1l25.6-6.6c0.4-11.1-0.8-26.7-10.4-26.1z"/></g></g></g><path class="m" d="m221.5 333.8c18.1-4.7 33 7.5 33.2 27.2 0.2 19.7-14.2 39.4-32.4 44.1-18.1 4.6-32.9-7.5-33.2-27.2-0.2-19.7 14.3-39.5 32.4-44.1z"/><path fill-rule="evenodd" class="p" d="m210.6 391.3c-2.8 0.7-6.4-2.8-5.6-5.6 0.8-2.7 1.7-5.2 2.6-6.2q0.3-0.3 0.6-0.5 0.3-0.3 0.6-0.5 0.3-0.3 0.7-0.5 0.3-0.2 0.7-0.4c0.9-0.6 2-1.3 3.1-2.1q0.5-0.4 1.1-0.8l2.2-1.6 1-0.9q0 0 0-0.1 0.1 0 0.1 0 0 0 0.1-0.1 0-0.1 0-0.1 0-0.1 0-0.1 0-0.1 0-0.2 0 0 0-0.1 0.1-1.4 0.1-2.8-0.3-0.3-0.6-0.7-0.3-0.4-0.5-0.8-0.2-0.5-0.4-0.9-0.1-0.5-0.1-0.9c-1.5 0.4-1.9-1.5-2-2.9-0.1-0.9-0.3-3.3 0.9-3.9q-0.1-0.2-0.1-0.4-0.1-0.3-0.1-0.6-0.1-0.3-0.1-0.7-0.1-0.3-0.1-0.6 0-0.3 0-0.6-0.1-0.4 0-0.7 0-0.4 0.1-0.7 0-0.4 0.2-0.7 0.1-0.3 0.2-0.7 0 0 0.1-0.1 0-0.1 0.1-0.2 0 0 0.1-0.1 0-0.1 0.1-0.1 0-0.1 0-0.3 0-0.1 0-0.2 0-0.1 0.1-0.3 0-0.1 0-0.2 0.3-0.9 0.8-1.7 0.4-0.8 1-1.5 0.5-0.7 1.2-1.3 0.7-0.6 1.5-1 0.6-0.4 1.3-0.6 0.7-0.2 1.4-0.3 0.7-0.1 1.4-0.1 0.7 0 1.4 0.1c1.3 0.2 3 0.9 3.1 3.1q0 0.1 0 0.2 0 0.1-0.1 0.2 0 0.1 0 0.2 0 0.1-0.1 0.1c0.3 0 0.5 0.2 0.6 0.4q0.1 0.3 0.2 0.6 0.1 0.3 0.2 0.6 0.1 0.3 0.1 0.6 0 0.4 0 0.7 0 0.3-0.1 0.7 0 0.3-0.1 0.6 0 0.4-0.1 0.7 0 0.4-0.1 0.7-0.1 0.2-0.1 0.5c1.4-0.4 1.2 2.3 1 3.4-0.2 1.4-0.6 3.4-2 3.8q0 0.3 0 0.5-0.1 0.2-0.1 0.5-0.1 0.2-0.1 0.4-0.1 0.2-0.2 0.4-0.1 0.3-0.2 0.6-0.1 0.3-0.3 0.6-0.2 0.3-0.3 0.5-0.2 0.3-0.4 0.6 0 1.5-0.1 2.9 0 0.1 0 0.1 0 0.1 0 0.1 0 0.1 0 0.1 0 0 0 0.1c0-0.1 0.2 0.1 0.3 0.2l0.6 0.4 0.6 0.1h0.1q0.2 0 0.3 0.1 0.2 0 0.3 0 0.2 0 0.3 0 0.2 0.1 0.3 0.1h0.1q0.7 0.2 1.5 0.4c0.9 0.2 1.8 0.3 2.7 0.5 2.1 0.7 5.1 3.4 5.6 8.3q0.1 0.8-0.1 1.6-0.1 0.7-0.5 1.4-0.4 0.6-1 1.1-0.7 0.5-1.4 0.7zm3.9-28.7q0.1 0.2 0.1 0.3 0-0.2-0.1-0.3z"/><path class="m" d="m128.3 377.8l32.9-8.4c4.1-1.1 8.3 2.4 8.4 7.1q0 1.1-0.3 2.2-0.3 1.1-1 2-0.6 0.9-1.5 1.5-0.9 0.7-2 1l-32.9 8.5c-4.1 1-8.3-2.5-8.4-7.2q0-1.1 0.3-2.2 0.3-1 1-1.9 0.6-1 1.5-1.6 0.9-0.6 2-1z"/><path class="m" d="m169.9 402.1q0 1.2-0.3 2.2-0.3 1.1-1 2-0.6 0.9-1.5 1.6-0.9 0.6-2 0.9l-56.7 14.6c-4.1 1.1-8.3-2.5-8.4-7.1q0-1.1 0.3-2.2 0.3-1.1 1-2 0.6-0.9 1.5-1.5 0.9-0.7 2-1l56.7-14.6c4.1-1.1 8.3 2.5 8.4 7.1z"/><path class="q" d="m245.9 328.7c18.7 11 22.6 38.7 8.8 61.9-13.8 23.2-39.9 33-58.5 22-18.7-11-22.6-38.7-8.8-61.9 13.8-23.2 39.9-33.1 58.5-22z"/><path class="b" d="m0.6-13h831.6v666.5h-831.6z"/><g clip-path="url(#cp7)"><g style="opacity:.3"><g clip-path="url(#cp8)"><path class="r" d="m595.4 271.1c0.3-11.4 6.9-20 17.5-22.7l96.9-24.9v135.9l-92.2 23.1c-13.7 3.5-24.6-6.1-24.2-20.8z"/></g></g><path class="s" d="m410.1 401c-7.8-5.9-4.8-13.1 6.6-16l65.4-16.8c11.4-3 27.2-0.6 35 5.3 7.8 5.8 4.9 13-6.6 16l-65.3 16.8c-11.4 2.9-27.2 0.5-35.1-5.3z"/><path class="s" d="m521.5 305.1v74.5l-115.7 14.4v-74.9z"/><path class="t" d="m435.3 314.9v76c0 3.1 1.9 6.3 5.9 9.3q0.9 0.7 1.9 1.3 1 0.6 2 1.1 1 0.6 2 1.1 1.1 0.5 2.2 0.9l-4.3 1.1c-11.5 2.9-27.3 0.5-35.1-5.3-3-2.2-4.4-4.7-4.4-7l0.3-73.4z"/><path class="a" d="m467.5 385.2v-21.5c0-3.8 3.1-7.9 6.8-9.3 3.8-1.3 6.9 0.8 6.9 4.5v21.6c0 3.7-3.1 7.9-6.9 9.2-3.7 1.3-6.8-0.7-6.8-4.5z"/><path class="a" d="m463.6 352.4c0.8-1.5 1.8-2.9 3-4.1 1.1-1.2 2.5-2.3 4-3 1.6-0.8 3.2-1.3 4.9-1.5 6.7-0.8 11.6 4 11 10.7-0.2 1.7-0.7 3.3-1.4 4.9-0.8 1.5-1.8 2.9-3 4.1-1.2 1.2-2.6 2.2-4.1 3q-2.3 1-4.8 1.5c-6.7 0.7-11.7-4.1-11-10.8 0.2-1.7 0.7-3.3 1.4-4.8z"/><path class="u" d="m476.4 382.5v-16.1q1.1-0.9 2-2 0.9-1.1 1.6-2.4 0.7-1.2 1.1-2.6 0.4-1.4 0.6-2.8c0.6-6.7-4.3-11.5-11-10.7q-0.2 0-0.4 0-0.2 0-0.4 0.1-0.2 0-0.4 0-0.1 0.1-0.3 0.1 0.7-0.5 1.4-0.8 0.8-0.4 1.6-0.7 0.8-0.3 1.6-0.5 0.8-0.2 1.7-0.3c6.7-0.8 11.7 4 11 10.7q-0.2 1.4-0.6 2.8-0.4 1.4-1.1 2.6-0.7 1.3-1.6 2.4-0.9 1.1-2 2.1v16.1c0 3.7-3.1 7.9-6.9 9.2q-0.2 0.1-0.4 0.1-0.2 0.1-0.5 0.2-0.2 0-0.4 0-0.3 0.1-0.5 0.1 0.8-0.7 1.5-1.5 0.7-0.9 1.2-1.9 0.5-0.9 0.8-2 0.3-1.1 0.4-2.2z"/><path class="v" d="m410.1 326.2c-7.8-5.8-4.8-13 6.6-16l65.4-16.8c11.4-2.9 27.2-0.6 35 5.3 7.8 5.8 4.9 13-6.6 16l-65.3 16.8c-11.4 3-27.2 0.6-35.1-5.3z"/><path class="a" d="m442.1 312.6c5.1 0 9.3 1.9 9.3 4.2 0 2.4-4.2 4.3-9.3 4.3-5.2 0-9.4-1.9-9.4-4.3 0-2.3 4.2-4.2 9.4-4.2z"/><path class="a" d="m485.2 301.5c5.2 0 9.4 1.9 9.4 4.3 0 2.3-4.2 4.2-9.4 4.2-5.2 0-9.4-1.9-9.4-4.2 0-2.4 4.2-4.3 9.4-4.3z"/><path class="a" d="m463.6 246.4c0 0 37.2-8.6 31 59.4h-18.8c0 0 5.4-38-9.6-37.1q-0.4 0-0.9 0-0.4 0-0.9 0.1-0.4 0.1-0.8 0.2-0.5 0.1-0.9 0.3c-4.1 2-13.9 10.4-11.3 47.9h-18.8c0 0-7.9-66.1 31-70.8z"/><path class="w" d="m510.5 314.7l-65.3 16.8c0 0-8.8 2.2-9.9 1.3"/><path class="w" d="m451.4 316.8c0 0-0.4 4.4-9.3 4.3-9-0.2-9.5-3.9-9.5-3.9"/><path class="w" d="m495.4 305.8c0 0-0.4 4.4-9.4 4.2-9-0.2-9.5-3.9-9.5-3.9"/></g><g clip-path="url(#cp9)"><path class="x" d="m793 446.9l-238.2-62 70.7-213.5 238.3 62.1z"/></g><g style="opacity:.8"><g clip-path="url(#cp10)"><path class="y" d="m653.3 404.4l-63.1-105.1 170.7-46.3 63.2 105.1z"/></g></g><path class="z" d="m781.6 330.2l1.7-78.4"/><path class="z" d="m744.4 339.2l1.8-78.4"/><path class="z" d="m707.3 349.2l1.7-78.4"/><path class="z" d="m670.1 359.2l1.8-78.5"/><path class="z" d="m632.9 370.4l1.8-78.5"/><path class="m" d="m777.4 339.9l4.8-1.4q0 0 0.1 0l3.6-1c0.5-0.2 0.9 0.3 0.9 0.9q0 0.3 0 0.5-0.1 0.2-0.3 0.4-0.1 0.2-0.3 0.4-0.2 0.1-0.4 0.2l-4.8 1.4q-0.1 0-0.1 0l-3.6 1c-0.5 0.2-1-0.2-0.9-0.9q0-0.2 0-0.5 0.1-0.2 0.2-0.4 0.2-0.2 0.4-0.4 0.1-0.1 0.4-0.2z"/><path class="m" d="m744 348.6l4.8-1.4q0 0 0.1 0l3.6-1c0.5-0.2 0.9 0.3 0.9 0.9q0 0.3-0.1 0.5 0 0.2-0.2 0.4-0.1 0.2-0.3 0.4-0.2 0.2-0.4 0.2l-4.9 1.4-3.6 1c-0.5 0.2-1-0.2-1-0.9q0-0.2 0.1-0.5 0.1-0.2 0.2-0.4 0.2-0.2 0.3-0.4 0.2-0.1 0.5-0.2z"/><path class="m" d="m710.5 357.3l4.9-1.4q0 0 0.1 0l3.6-1c0.5-0.1 0.9 0.3 0.9 1q0 0.2-0.1 0.4 0 0.3-0.2 0.5-0.1 0.2-0.3 0.3-0.2 0.2-0.4 0.3l-4.9 1.3-3.6 1.1c-0.6 0.1-1-0.3-1-1q0-0.2 0.1-0.5 0.1-0.2 0.2-0.4 0.2-0.2 0.3-0.3 0.2-0.2 0.4-0.3z"/><path class="m" d="m672.5 367.1l4.9-1.3 3.7-1.1c0.5-0.1 0.9 0.3 0.9 1q0 0.2-0.1 0.5 0 0.2-0.2 0.4-0.1 0.2-0.3 0.3-0.2 0.2-0.4 0.3l-4.9 1.4-3.6 1c-0.6 0.1-1-0.3-1-1q0-0.2 0.1-0.4 0.1-0.3 0.2-0.5 0.1-0.2 0.3-0.3 0.2-0.2 0.4-0.3z"/><path class="m" d="m635.5 377.2l4.9-1.3 3.6-1.1c0.6-0.1 1 0.3 1 1q0 0.2-0.1 0.5-0.1 0.2-0.2 0.4-0.1 0.2-0.3 0.3-0.2 0.2-0.4 0.3l-4.9 1.4-3.6 1c-0.6 0.1-1-0.3-1-1q0-0.2 0.1-0.4 0.1-0.3 0.2-0.5 0.1-0.2 0.3-0.3 0.2-0.2 0.4-0.3z"/><path class="b" d="m0.6-13h831.6v666.5h-831.6z"/><path class="b" d="m0.6-13h831.6v666.5h-831.6z"/><path class="A" d="m808.6 235.7l-2.4 99.8c-0.2 10.6-6.4 18.6-16.2 21.1l-155.7 39c-13.7 3.6-24.6-6-24.2-20.8l2-90.5c0.3-11.4 6.9-20.1 17.5-22.8l163.2-41.9q0.4-0.1 0.8-0.2 0.4-0.1 0.8-0.1 0.5-0.1 0.9-0.1 0.4 0 0.8 0c7.3 0 12.7 6.7 12.5 16.5z"/><g style="opacity:.4"><g clip-path="url(#cp11)"><path class="B" d="m629.9 136.2l79.9-21.9v57.9l-73.5 20.2c-15.2 4.2-29-5.1-30.7-20.5-1.8-15.5 9.2-31.5 24.3-35.7z"/></g></g><path class="C" d="m617 185.8c-1.7-15.4 9.2-31.5 24.4-35.6l122.5-33.7c15.2-4.2 29 5 30.7 20.5 1.8 15.4-9.2 31.4-24.4 35.6l-122.5 33.7c-15.1 4.2-29-5-30.7-20.5z"/><path class="m" d="m753.3 150.1l3.9-1-2.8-1.9 2.6-3.2 2.8 1.9-0.1-3.6 3.8-0.9 0.2 3.6 2.6-3.2 2.9 1.8-2.6 3.3 3.9-1 0.1 3.6-3.9 1 2.9 1.9-2.6 3.2-2.9-1.9 0.2 3.6-3.9 0.9-0.1-3.6-2.7 3.3-2.8-1.9 2.6-3.3-3.9 1z"/><path class="m" d="m732.5 155.5l3.9-0.9-2.9-1.9 2.6-3.2 2.9 1.9-0.2-3.7 3.9-0.9 0.1 3.6 2.7-3.2 2.8 1.9-2.6 3.2 3.9-0.9 0.1 3.6-3.9 0.9 2.9 1.9-2.6 3.2-2.9-1.9 0.2 3.7-3.9 0.9-0.1-3.6-2.7 3.2-2.8-1.9 2.6-3.2-3.9 0.9z"/><path class="m" d="m711.6 161l3.9-1-2.9-1.9 2.6-3.2 2.9 1.9-0.2-3.6 3.9-1 0.1 3.7 2.7-3.3 2.8 1.9-2.6 3.3 3.9-1 0.1 3.6-3.8 1 2.8 1.9-2.6 3.2-2.9-1.9 0.2 3.6-3.8 0.9-0.2-3.6-2.6 3.2-2.9-1.8 2.6-3.3-3.9 1z"/><path class="m" d="m690.7 166.4l3.9-0.9-2.9-1.9 2.6-3.3 2.9 1.9-0.2-3.6 3.9-0.9 0.2 3.6 2.6-3.2 2.8 1.9-2.6 3.2 3.9-0.9 0.2 3.6-3.9 0.9 2.8 1.9-2.6 3.2-2.8-1.9 0.1 3.6-3.8 1-0.2-3.7-2.6 3.3-2.9-1.9 2.6-3.2-3.8 0.9z"/><path class="m" d="m669.8 171.8l3.9-0.9-2.9-1.9 2.6-3.2 2.9 1.9-0.2-3.6 3.9-1 0.2 3.7 2.6-3.3 2.8 1.9-2.6 3.2 3.9-0.9 0.2 3.6-3.9 0.9 2.9 1.9-2.7 3.3-2.8-1.9 0.1 3.6-3.8 0.9-0.2-3.6-2.6 3.2-2.9-1.9 2.7-3.2-3.9 0.9z"/><path class="m" d="m648.9 177.3l3.9-1-2.9-1.9 2.6-3.2 2.9 1.9-0.2-3.6 3.9-0.9 0.2 3.6 2.6-3.2 2.9 1.9-2.7 3.2 3.9-1 0.2 3.6-3.9 1 2.9 1.9-2.6 3.2-2.9-1.9 0.2 3.6-3.9 1-0.2-3.7-2.6 3.3-2.9-1.9 2.7-3.3-3.9 1z"/><path fill-rule="evenodd" class="D" d="m466.9 596.5l9.2-1.2 4-1.6q0.2-0.4 0.6-0.9 0.3-0.4 0.7-0.7 0.4-0.4 0.9-0.7 0.4-0.3 0.9-0.5l2.4-1.1q0.2-0.1 0.4-0.2 0.2-0.1 0.4-0.1 0.2-0.1 0.4-0.2 0.2-0.1 0.4-0.1l-7-0.3-0.4-8.9 30.7-3 2.9-5.9 26.3 0.6-3.7 5.8c6.8 0.4 15.6 1 15.6 1l1.5 1.5c2.8-0.2 19.7-1.2 19.7-1.2v11.5l-6.2-0.9q0.3 0.2 0.6 0.3l2.3 1.1q0.5 0.2 1 0.5 0.5 0.3 0.9 0.7 0.4 0.3 0.7 0.8 0.4 0.4 0.6 0.9l12.9 0.7v14.4h-0.1q0 0.1 0 0.2 0 0.1 0.1 0.2 0 0.1 0 0.2 0 0.1 0 0.2v1.6c0 3.1-5.3 5.6-11.7 5.6q-0.6 0-1.1 0.1l-0.1 9c0 1.5-1.1 3-3.4 4.1l-2.4 1.2c-4.6 2.2-12 2.2-16.5 0-4-1.9-10.9-0.6-11 2.2 0 3.1-5.2 5.6-11.7 5.6h-3.3c-6.4 0-11.7-2.5-11.6-5.6 0-2.7-6.9-4.1-10.9-2.1-4.6 2.2-12 2.2-16.6 0l-2.3-1.1c-2.8-1.4-3.9-3.3-3.2-5.1v-8.1q-0.6 0-1.2 0c-6.3 0-11.4-2.4-11.7-5.3 0-0.1 0-0.3 0-0.3zm58.6 16.5c11.3 0 20.5-4.4 20.5-9.8 0-5.5-9.2-9.9-20.5-9.9-11.4 0-20.6 4.4-20.6 9.9 0 5.4 9.2 9.8 20.6 9.8z"/><g clip-path="url(#cp12)"><path class="E" d="m466.9 566.8h118.7v57.1h-118.7z"/></g><path fill-rule="evenodd" class="D" d="m362.2 566l7.4-1 3.2-1.3q0.3-0.4 0.5-0.7 0.3-0.3 0.6-0.6 0.4-0.3 0.7-0.5 0.4-0.3 0.8-0.4l1.9-1q0.2 0 0.3-0.1 0.2-0.1 0.4-0.1 0.1-0.1 0.3-0.2 0.1 0 0.3-0.1l-5.7-0.2-0.3-7.2 24.8-2.4 2.4-4.8 21.2 0.6-3 4.6c5.6 0.3 12.7 0.8 12.7 0.8l1.1 1.2c2.3-0.1 16-0.9 16-0.9v9.3l-5-0.8q0.2 0.1 0.4 0.2l1.9 1q0.4 0.1 0.8 0.4 0.4 0.2 0.7 0.5 0.4 0.3 0.6 0.7 0.3 0.3 0.5 0.7l10.4 0.6v11.6h-0.1q0 0.1 0 0.2 0.1 0.1 0.1 0.1 0 0.1 0 0.2 0 0.1 0 0.1v1.3c0 2.5-4.3 4.6-9.5 4.6q-0.4 0-0.9 0v7.3c0 1.2-0.9 2.4-2.8 3.4l-1.9 0.9q-1.6 0.6-3.3 1-1.7 0.3-3.4 0.3-1.7 0-3.4-0.3-1.7-0.3-3.2-1c-3.3-1.6-8.9-0.4-8.9 1.8 0 2.5-4.2 4.5-9.4 4.5h-2.7c-5.2 0-9.5-2-9.4-4.5 0-2.2-5.6-3.3-8.9-1.7q-1.5 0.6-3.2 1-1.7 0.3-3.4 0.3-1.7 0-3.4-0.3-1.7-0.4-3.3-1l-1.9-0.9c-2.3-1.1-3.1-2.7-2.6-4.1v-6.6q-0.4 0-1 0c-5 0-9.1-1.9-9.4-4.3 0-0.1 0-0.2 0-0.2zm47.3 13.3c9.2 0 16.6-3.5 16.6-8 0-4.4-7.4-8-16.6-8-9.2 0-16.6 3.6-16.6 8 0 4.5 7.4 8 16.6 8z"/><g clip-path="url(#cp13)"><path class="E" d="m362.2 541.9h95.9v46.2h-95.9z"/></g></g></svg>