<svg xmlns="http://www.w3.org/2000/svg" width="60.948" height="58.8" viewBox="0 0 60.948 58.8">
  <g id="Spy" transform="translate(-3.6 -4.6)">
    <path id="Path_1011" data-name="Path 1011" d="M59.852,37.593H8.3A4.3,4.3,0,1,1,8.3,29H59.852a4.3,4.3,0,1,1,0,8.593ZM8.3,31.148a2.148,2.148,0,1,0,0,4.3H59.852a2.148,2.148,0,1,0,0-4.3Z" transform="translate(0 1.778)" fill="#fff"/>
    <path id="Path_1011_-_Outline" data-name="Path 1011 - Outline" d="M59.852,37.993H8.3a4.7,4.7,0,1,1,0-9.393H59.852a4.7,4.7,0,1,1,0,9.393ZM8.3,29.4a3.9,3.9,0,1,0,0,7.793H59.852a3.9,3.9,0,1,0,0-7.793Zm51.556,6.444H8.3a2.548,2.548,0,1,1,0-5.1H59.852a2.548,2.548,0,1,1,0,5.1ZM8.3,31.548a1.748,1.748,0,1,0,0,3.5H59.852a1.748,1.748,0,1,0,0-3.5Z" transform="translate(0 1.778)" fill="#fff"/>
    <path id="Path_1012" data-name="Path 1012" d="M56.184,32.926a1.074,1.074,0,0,1-1.041-.814L50.017,11.606a5.887,5.887,0,0,0-10.14-2.448l-3.822,4.369a3.224,3.224,0,0,1-4.851,0L27.382,9.158a5.886,5.886,0,0,0-10.139,2.448L12.116,32.112a1.074,1.074,0,1,1-2.084-.52l5.126-20.506A8.034,8.034,0,0,1,29,7.744l3.822,4.369a1.1,1.1,0,0,0,1.617,0L38.26,7.744A8.034,8.034,0,0,1,52.1,11.086l5.126,20.506a1.076,1.076,0,0,1-1.043,1.334Z" transform="translate(0.444)" fill="#fff"/>
    <path id="Path_1012_-_Outline" data-name="Path 1012 - Outline" d="M11.075,33.326a1.474,1.474,0,0,1-1.431-1.831L14.77,10.989A8.434,8.434,0,0,1,29.3,7.481l3.818,4.364a.7.7,0,0,0,1.023,0l3.818-4.363a8.434,8.434,0,0,1,14.53,3.508l5.126,20.506a1.474,1.474,0,1,1-2.86.714L49.629,11.7a5.486,5.486,0,0,0-9.451-2.282l-3.822,4.369a3.624,3.624,0,0,1-5.453,0L27.081,9.421a5.486,5.486,0,0,0-9.45,2.282L12.5,32.209A1.471,1.471,0,0,1,11.075,33.326ZM22.953,5.4a7.635,7.635,0,0,0-7.406,5.783L10.42,31.689a.674.674,0,0,0,.491.817.673.673,0,0,0,.817-.491l5.127-20.506A6.286,6.286,0,0,1,27.683,8.894l3.822,4.369a2.824,2.824,0,0,0,4.249,0l3.822-4.369A6.287,6.287,0,0,1,50.4,11.508l5.127,20.507a.674.674,0,0,0,1.308-.327L51.713,11.183A7.634,7.634,0,0,0,38.561,8.007l-3.828,4.375a1.5,1.5,0,0,1-2.206,0l-.007-.008L28.7,8.007A7.634,7.634,0,0,0,22.953,5.4Z" transform="translate(0.444)" fill="#fff"/>
    <path id="Path_1013" data-name="Path 1013" d="M54.463,25.148H12.574a1.074,1.074,0,1,1,0-2.148H54.463a1.074,1.074,0,1,1,0,2.148Z" transform="translate(0.556 1.333)" fill="#fff"/>
    <path id="Path_1013_-_Outline" data-name="Path 1013 - Outline" d="M54.463,25.548H12.574a1.474,1.474,0,1,1,0-2.948H54.463a1.474,1.474,0,1,1,0,2.948ZM12.574,23.4a.674.674,0,0,0,0,1.348H54.463a.674.674,0,1,0,0-1.348Z" transform="translate(0.556 1.333)" fill="#fff"/>
    <path id="Path_1014" data-name="Path 1014" d="M20.741,60.481A10.741,10.741,0,1,1,31.481,49.741,10.741,10.741,0,0,1,20.741,60.481Zm0-19.333a8.593,8.593,0,1,0,8.593,8.593,8.593,8.593,0,0,0-8.593-8.593Z" transform="translate(0.444 2.519)" fill="#fff"/>
    <path id="Path_1014_-_Outline" data-name="Path 1014 - Outline" d="M20.741,60.881h0a11.153,11.153,0,1,1,7.874-3.267A11.068,11.068,0,0,1,20.741,60.881Zm0-21.481A10.341,10.341,0,1,0,31.081,49.74,10.352,10.352,0,0,0,20.741,39.4Zm0,19.333a8.993,8.993,0,0,1,0-17.985h0a8.993,8.993,0,0,1,0,17.985Zm0-17.185a8.193,8.193,0,1,0,8.193,8.193,8.2,8.2,0,0,0-8.193-8.193Z" transform="translate(0.444 2.519)" fill="#fff"/>
    <path id="Path_1015" data-name="Path 1015" d="M44.741,60.481A10.741,10.741,0,1,1,55.481,49.741,10.741,10.741,0,0,1,44.741,60.481Zm0-19.333a8.593,8.593,0,1,0,8.593,8.593,8.593,8.593,0,0,0-8.593-8.593Z" transform="translate(2.222 2.519)" fill="#fff"/>
    <path id="Path_1015_-_Outline" data-name="Path 1015 - Outline" d="M44.741,60.881h0a11.153,11.153,0,1,1,7.874-3.267A11.068,11.068,0,0,1,44.741,60.881Zm0-21.481A10.341,10.341,0,1,0,55.081,49.74,10.352,10.352,0,0,0,44.741,39.4Zm0,19.333a8.993,8.993,0,1,1,0-17.985h0a8.993,8.993,0,0,1,0,17.985Zm0-17.185a8.193,8.193,0,1,0,8.193,8.193,8.2,8.2,0,0,0-8.193-8.193Z" transform="translate(2.222 2.519)" fill="#fff"/>
    <path id="Path_1016" data-name="Path 1016" d="M25.444,50.519a1.074,1.074,0,0,1-1.074-1.074,4.3,4.3,0,0,0-4.3-4.3,1.074,1.074,0,1,1,0-2.148,6.452,6.452,0,0,1,6.444,6.444,1.074,1.074,0,0,1-1.074,1.074Z" transform="translate(1.111 2.815)" fill="#fff"/>
    <path id="Path_1016_-_Outline" data-name="Path 1016 - Outline" d="M25.444,50.919a1.476,1.476,0,0,1-1.474-1.474,3.907,3.907,0,0,0-3.9-3.9,1.474,1.474,0,0,1,0-2.948,6.863,6.863,0,0,1,6.844,6.844A1.476,1.476,0,0,1,25.444,50.919ZM20.074,43.4a.674.674,0,0,0,0,1.348,4.708,4.708,0,0,1,4.7,4.7.675.675,0,0,0,.674.674h0a.675.675,0,0,0,.674-.674A6.061,6.061,0,0,0,20.074,43.4Z" transform="translate(1.111 2.815)" fill="#fff"/>
    <path id="Path_1017" data-name="Path 1017" d="M49.444,50.519a1.074,1.074,0,0,1-1.074-1.074,4.3,4.3,0,0,0-4.3-4.3,1.074,1.074,0,0,1,0-2.148,6.452,6.452,0,0,1,6.444,6.444A1.074,1.074,0,0,1,49.444,50.519Z" transform="translate(2.889 2.815)" fill="#fff"/>
    <path id="Path_1017_-_Outline" data-name="Path 1017 - Outline" d="M49.444,50.919a1.476,1.476,0,0,1-1.474-1.474,3.907,3.907,0,0,0-3.9-3.9,1.474,1.474,0,0,1,0-2.948,6.863,6.863,0,0,1,6.844,6.844,1.474,1.474,0,0,1-1.474,1.475ZM44.074,43.4a.674.674,0,0,0,0,1.348,4.708,4.708,0,0,1,4.7,4.7.674.674,0,1,0,1.348,0A6.061,6.061,0,0,0,44.074,43.4Z" transform="translate(2.889 2.815)" fill="#fff"/>
    <path id="Path_1018" data-name="Path 1018" d="M36.61,46.209a1.071,1.071,0,0,1-.539-.146,8.171,8.171,0,0,0-7.406,0,1.074,1.074,0,1,1-1.079-1.857,10.355,10.355,0,0,1,9.565,0,1.074,1.074,0,0,1-.541,2Z" transform="translate(1.706 2.817)" fill="#fff"/>
    <path id="Path_1018_-_Outline" data-name="Path 1018 - Outline" d="M28.1,46.623a1.474,1.474,0,0,1-.708-2.767l.007,0a10.8,10.8,0,0,1,4.967-1.216h0a10.8,10.8,0,0,1,4.967,1.216l.017.009a1.474,1.474,0,0,1-1.471,2.554,7.771,7.771,0,0,0-7.021,0A1.473,1.473,0,0,1,28.1,46.623Zm-.327-2.064a.674.674,0,0,0,0,1.177.685.685,0,0,0,.684-.014l.029-.016a8.571,8.571,0,0,1,7.769,0l.02.011a.674.674,0,0,0,.684-1.161,9.955,9.955,0,0,0-9.182,0Z" transform="translate(1.706 2.817)" fill="#fff"/>
  </g>
</svg>
