<svg xmlns="http://www.w3.org/2000/svg" width="57.8" height="57.8" viewBox="0 0 57.8 57.8">
  <g id="Group_854" data-name="Group 854" transform="translate(-725.5 -1025.5)">
    <g id="Group_851" data-name="Group 851" transform="translate(2 2)">
      <path id="Path_1086" data-name="Path 1086" d="M50.883,0h-22.5a1.17,1.17,0,0,0-.445.095A1.016,1.016,0,0,1,28.381,0H5.917A5.919,5.919,0,0,0,0,5.917V50.883A5.919,5.919,0,0,0,5.917,56.8H50.883A5.919,5.919,0,0,0,56.8,50.883V5.917A5.919,5.919,0,0,0,50.883,0M2.367,5.917V5.907a3.537,3.537,0,0,1,3.55-3.541h21.3v24.85H2.367ZM5.907,54.433a3.549,3.549,0,0,1-3.541-3.55v-21.3h24.85v24.85H5.907Zm21.309,1.2a1.17,1.17,0,0,0,.095.445.988.988,0,0,1-.095-.445m0-54.48a.975.975,0,0,1,.095-.435,1.123,1.123,0,0,0-.095.435m2.367.028a1.268,1.268,0,0,0-.095-.464,1.1,1.1,0,0,1,.095.464m24.85,49.7v.009a3.543,3.543,0,0,1-3.55,3.541h-21.3V29.583h24.85Zm0-23.667H29.583V2.367H50.893a3.543,3.543,0,0,1,3.541,3.55Z" transform="translate(724 1024)" fill="#fff"/>
      <path id="Path_1086_-_Outline" data-name="Path 1086 - Outline" d="M5.917-.5H50.883A6.424,6.424,0,0,1,57.3,5.917V50.883A6.424,6.424,0,0,1,50.883,57.3H5.917A6.424,6.424,0,0,1-.5,50.883V5.917A6.424,6.424,0,0,1,5.917-.5ZM26.862.5H5.917A5.423,5.423,0,0,0,.5,5.917V50.883A5.423,5.423,0,0,0,5.917,56.3H26.862a1.483,1.483,0,0,1-.145-.664h1a.678.678,0,0,0,.059.259l-.9.405h24.01A5.423,5.423,0,0,0,56.3,50.883V5.917A5.423,5.423,0,0,0,50.883.5h-22.5a.678.678,0,0,0-.259.059L28.1.5H26.873l.9.416a.627.627,0,0,0-.054.239h-1A1.461,1.461,0,0,1,26.862.5Zm3.08.008a1.585,1.585,0,0,1,.142.675h-1a.775.775,0,0,0-.059-.278ZM5.9,1.867H27.717v25.85H1.867V5.907A4.041,4.041,0,0,1,5.9,1.867Zm20.817,1H5.9A3.04,3.04,0,0,0,2.867,5.907V26.717h23.85Zm2.367-1H50.893a4.05,4.05,0,0,1,4.041,4.05v21.8H29.083Zm24.85,24.85V5.917a3.049,3.049,0,0,0-3.041-3.05H30.083v23.85ZM1.867,29.083h25.85v25.85H5.907a4.049,4.049,0,0,1-4.041-4.05Zm24.85,1H2.867v20.8a3.06,3.06,0,0,0,3.043,3.05H26.717Zm2.367-1h25.85V50.893a4.05,4.05,0,0,1-4.05,4.041h-21.8Zm24.85,1H30.083v23.85h20.8a3.049,3.049,0,0,0,3.05-3.041Z" transform="translate(724 1024)" fill="#fff"/>
      <path id="Path_1087" data-name="Path 1087" d="M49.4,15H39.931a1.183,1.183,0,1,0,0,2.367H49.4A1.183,1.183,0,1,0,49.4,15" transform="translate(721.933 1023.2)" fill="#fff"/>
      <path id="Path_1087_-_Outline" data-name="Path 1087 - Outline" d="M49.4,17.864H39.931a1.683,1.683,0,1,1,0-3.367H49.4a1.683,1.683,0,1,1,0,3.367ZM39.931,15.5a.683.683,0,1,0,0,1.367H49.4a.683.683,0,1,0,0-1.367Z" transform="translate(721.933 1023.2)" fill="#fff"/>
      <path id="Path_1088" data-name="Path 1088" d="M39.931,42.364H49.4A1.183,1.183,0,1,0,49.4,40H39.931a1.183,1.183,0,1,0,0,2.367" transform="translate(721.933 1021.867)" fill="#fff"/>
      <path id="Path_1088_-_Outline" data-name="Path 1088 - Outline" d="M49.4,42.864H39.931a1.683,1.683,0,0,1,0-3.367H49.4a1.683,1.683,0,1,1,0,3.367ZM39.931,40.5a.683.683,0,0,0,0,1.367H49.4a.683.683,0,1,0,0-1.367Z" transform="translate(721.933 1021.867)" fill="#fff"/>
      <path id="Path_1089" data-name="Path 1089" d="M39.931,49.864H49.4a1.183,1.183,0,1,0,0-2.367H39.931a1.183,1.183,0,1,0,0,2.367" transform="translate(721.933 1021.467)" fill="#fff"/>
      <path id="Path_1089_-_Outline" data-name="Path 1089 - Outline" d="M49.4,50.364H39.931a1.683,1.683,0,0,1,0-3.367H49.4a1.683,1.683,0,1,1,0,3.367ZM39.931,48a.683.683,0,0,0,0,1.367H49.4A.683.683,0,1,0,49.4,48Z" transform="translate(721.933 1021.467)" fill="#fff"/>
      <path id="Path_1090" data-name="Path 1090" d="M9.931,17.1h3.55v3.55a1.183,1.183,0,1,0,2.367,0V17.1H19.4a1.183,1.183,0,0,0,0-2.367h-3.55V11.18a1.183,1.183,0,1,0-2.367,0v3.55H9.931a1.183,1.183,0,0,0,0,2.367" transform="translate(723.533 1023.467)" fill="#fff"/>
      <path id="Path_1090_-_Outline" data-name="Path 1090 - Outline" d="M14.665,22.33a1.685,1.685,0,0,1-1.683-1.683V17.6H9.931a1.683,1.683,0,0,1,0-3.367h3.05V11.18a1.683,1.683,0,0,1,3.367,0v3.05H19.4a1.683,1.683,0,1,1,0,3.367h-3.05v3.05A1.685,1.685,0,0,1,14.665,22.33Zm-4.733-7.1a.683.683,0,1,0,0,1.367h4.05v4.05a.683.683,0,1,0,1.367,0V16.6H19.4a.683.683,0,1,0,0-1.367h-4.05V11.18a.683.683,0,0,0-1.367,0v4.05Z" transform="translate(723.533 1023.467)" fill="#fff"/>
      <path id="Path_1091" data-name="Path 1091" d="M17.72,49.375l.04.04a1.144,1.144,0,0,0,1.617-.04l.04-.04a1.144,1.144,0,0,0-.04-1.617L16.655,45,15,46.654Z" transform="translate(723.2 1021.6)" fill="#fff"/>
      <path id="Path_1091_-_Outline" data-name="Path 1091 - Outline" d="M18.548,50.23a1.636,1.636,0,0,1-1.131-.452l-.041-.04-.009-.009-3.075-3.075,2.364-2.364,3.071,3.071a1.646,1.646,0,0,1,.052,2.319l-.044.045A1.652,1.652,0,0,1,18.548,50.23Zm-2.843-3.577,2.4,2.4a.644.644,0,0,0,.913-.019l.043-.044a.644.644,0,0,0-.026-.906l-.009-.009L16.655,45.7Z" transform="translate(723.2 1021.6)" fill="#fff"/>
      <path id="Path_1092" data-name="Path 1092" d="M19.376,42.009a1.171,1.171,0,1,0-1.657-1.657L15,43.074l1.657,1.657Z" transform="translate(723.2 1021.866)" fill="#fff"/>
      <path id="Path_1092_-_Outline" data-name="Path 1092 - Outline" d="M18.548,39.51a1.671,1.671,0,0,1,1.182,2.853l-3.075,3.075-2.364-2.364L17.366,40A1.66,1.66,0,0,1,18.548,39.51Zm-1.893,4.514,2.368-2.368a.671.671,0,0,0-.95-.95l-2.368,2.368Z" transform="translate(723.2 1021.866)" fill="#fff"/>
      <path id="Path_1093" data-name="Path 1093" d="M10.313,47.493a1.144,1.144,0,0,0,.04,1.617l.04.04a1.144,1.144,0,0,0,1.617-.04l2.722-2.722,0,0,1.654-1.654-1.652-1.653,0,0L12.01,40.354a1.171,1.171,0,1,0-1.657,1.657l2.718,2.717,0,0,0,0-2.72,2.72-.04.04" transform="translate(723.467 1021.866)" fill="#fff"/>
      <path id="Path_1093_-_Outline" data-name="Path 1093 - Outline" d="M11.181,49.965a1.638,1.638,0,0,1-1.133-.453L10,49.468a1.644,1.644,0,0,1-.052-2.319L10,47.1l2.325-2.325,0,0,.044-.044L10,42.364A1.671,1.671,0,0,1,12.363,40l3.076,3.076,0,0,1.651,1.652L15.4,46.421l0,0L12.367,49.46A1.651,1.651,0,0,1,11.181,49.965Zm-.44-1.174a.644.644,0,0,0,.907-.026l.009-.009,2.4-2.4,0,0,1.617-1.617-1.653-1.654,0,0-2.367-2.367a.671.671,0,0,0-.95.95l2.724,2.723.39.313-3.149,3.149a.644.644,0,0,0,.026.906Z" transform="translate(723.467 1021.866)" fill="#fff"/>
    </g>
  </g>
</svg>
