<svg xmlns="http://www.w3.org/2000/svg" width="52" height="52" viewBox="0 0 52 52">
  <g id="light_mode" data-name="light mode" transform="translate(-38 -19)">
    <rect id="Rectangle_656" data-name="Rectangle 656" width="52" height="52" rx="26" transform="translate(38 19)" fill="#0068f5"/>
    <g id="sun_1_" data-name="sun (1)" transform="translate(49 30)">
      <g id="Group_760" data-name="Group 760">
        <path id="Path_993" data-name="Path 993" d="M19.02,11.269a7.752,7.752,0,1,0,7.751,7.752A7.76,7.76,0,0,0,19.02,11.269Z" transform="translate(-3.547 -3.547)" fill="#fff"/>
        <g id="Group_759" data-name="Group 759">
          <g id="Group_751" data-name="Group 751" transform="translate(13.961)">
            <path id="Path_994" data-name="Path 994" d="M21.885,5.444a1.512,1.512,0,0,1-1.512-1.512V1.512a1.512,1.512,0,0,1,3.025,0v2.42A1.513,1.513,0,0,1,21.885,5.444Z" transform="translate(-20.373 0)" fill="#fff"/>
          </g>
          <g id="Group_752" data-name="Group 752" transform="translate(13.961 25.502)">
            <path id="Path_995" data-name="Path 995" d="M21.885,37.215a1.512,1.512,0,0,0-1.512,1.512v2.419a1.512,1.512,0,1,0,3.025,0V38.727A1.513,1.513,0,0,0,21.885,37.215Z" transform="translate(-20.373 -37.215)" fill="#fff"/>
          </g>
          <g id="Group_753" data-name="Group 753" transform="translate(22.122 4.089)">
            <path id="Path_996" data-name="Path 996" d="M32.725,10.26a1.513,1.513,0,0,1,0-2.139L34.436,6.41a1.512,1.512,0,0,1,2.139,2.139L34.863,10.26A1.512,1.512,0,0,1,32.725,10.26Z" transform="translate(-32.282 -5.967)" fill="#fff"/>
          </g>
          <g id="Group_754" data-name="Group 754" transform="translate(4.089 22.122)">
            <path id="Path_997" data-name="Path 997" d="M10.259,32.726a1.511,1.511,0,0,0-2.139,0L6.41,34.437a1.512,1.512,0,0,0,2.139,2.139l1.711-1.712A1.51,1.51,0,0,0,10.259,32.726Z" transform="translate(-5.967 -32.283)" fill="#fff"/>
          </g>
          <g id="Group_755" data-name="Group 755" transform="translate(25.502 13.961)">
            <path id="Path_998" data-name="Path 998" d="M37.215,21.885a1.512,1.512,0,0,1,1.512-1.512h2.42a1.512,1.512,0,1,1,0,3.024h-2.42A1.512,1.512,0,0,1,37.215,21.885Z" transform="translate(-37.215 -20.373)" fill="#fff"/>
          </g>
          <g id="Group_756" data-name="Group 756" transform="translate(0 13.961)">
            <path id="Path_999" data-name="Path 999" d="M5.444,21.885a1.512,1.512,0,0,0-1.512-1.512H1.512a1.512,1.512,0,1,0,0,3.024h2.42A1.512,1.512,0,0,0,5.444,21.885Z" transform="translate(0 -20.373)" fill="#fff"/>
          </g>
          <g id="Group_757" data-name="Group 757" transform="translate(22.121 22.123)">
            <path id="Path_1000" data-name="Path 1000" d="M32.725,32.727a1.513,1.513,0,0,1,2.139,0l1.711,1.711a1.512,1.512,0,0,1-2.139,2.138l-1.711-1.711A1.511,1.511,0,0,1,32.725,32.727Z" transform="translate(-32.281 -32.284)" fill="#fff"/>
          </g>
          <g id="Group_758" data-name="Group 758" transform="translate(4.089 4.089)">
            <path id="Path_1001" data-name="Path 1001" d="M10.259,10.26a1.512,1.512,0,0,0,0-2.139L8.548,6.411A1.512,1.512,0,0,0,6.41,8.549L8.121,10.26A1.511,1.511,0,0,0,10.259,10.26Z" transform="translate(-5.967 -5.968)" fill="#fff"/>
          </g>
        </g>
      </g>
    </g>
  </g>
</svg>
