<svg xmlns="http://www.w3.org/2000/svg" xmlns:xlink="http://www.w3.org/1999/xlink" width="304.55" height="48.014" viewBox="0 0 304.55 48.014">
  <defs>
    <clipPath id="clip-path">
      <rect id="Rectangle_2" data-name="Rectangle 2" width="304.55" height="48.014" fill="none"/>
    </clipPath>
  </defs>
  <g id="logo" transform="translate(-7.22 -14.32)">
    <rect id="Rectangle_1" data-name="Rectangle 1" width="0.539" height="46.194" transform="translate(56.02 14.32)" fill="#fff"/>
    <g id="Group_1" data-name="Group 1" transform="translate(7.22 14.32)" clip-path="url(#clip-path)">
      <path id="Path_1" data-name="Path 1" d="M44.247,14.32V48.4s.18,8.133-9.931,9.257c-.607,0-6.965,0-8.583,2.247-1.618-2.427-7.954-2.247-8.583-2.247C7.04,56.537,7.22,48.4,7.22,48.4V14.32Z" transform="translate(-7.22 -14.32)" fill="#fff"/>
      <path id="Path_2" data-name="Path 2" d="M13.438,51.752c0,.2,0,.247-.27,0a2.471,2.471,0,0,1-.9-.921,4.853,4.853,0,0,0,.966.607c.2,0,.247,0,.2.2m.292-.449s-1.8-.449-1.955-1.393a2.247,2.247,0,0,1,.27-1.281s.517-.112.562-.315a.472.472,0,0,0-.27-.584.4.4,0,0,0-.584.157.265.265,0,0,0,0,.382s.315.427-.247.831a6.493,6.493,0,0,1-.359-1.708,13.728,13.728,0,0,1,1.1-2.4c.247-.427.831-1.258.831-1.258A6.493,6.493,0,0,1,11.8,47.1a4.763,4.763,0,0,0,1.91-3.864,11.01,11.01,0,0,0-.2-1.371,22.962,22.962,0,0,0-1.663,2.516,12.133,12.133,0,0,0-.786,1.91s0-1.505,0-1.685a5.73,5.73,0,0,1,.741-1.056s.315,0,.427-.18.135-.539-.135-.652-.607.2-.607.2a.809.809,0,0,0,0,.539l-.472.4V42.36a15.727,15.727,0,0,1,1.1-2.247c.247-.427.831-1.281.831-1.281a6.516,6.516,0,0,1-1.281,3.5,4.718,4.718,0,0,0,1.82-3.932c0-.359-.112-1.3-.112-1.3a18.693,18.693,0,0,0-1.663,2.247,10.335,10.335,0,0,0-.719,1.865s0-1.348,0-1.528a5.415,5.415,0,0,1,.741-1.034s.315,0,.427-.2.135-.539-.135-.652-.607.2-.607.2a.809.809,0,0,0,0,.539l-.472.4V37.4a15.727,15.727,0,0,1,1.1-2.247c.247-.427.831-1.258.831-1.258A6.493,6.493,0,0,1,11.6,37.373a4.763,4.763,0,0,0,1.91-3.864,11.234,11.234,0,0,0-.2-1.348,17.21,17.21,0,0,0-1.6,2.247,14.784,14.784,0,0,0-.786,1.955V34.834a5.729,5.729,0,0,1,.741-1.056s.315,0,.427-.18.135-.562-.135-.674-.607.2-.607.2a.809.809,0,0,0,0,.539l-.472.427V32.767a10.245,10.245,0,0,1,.989-2.247l.629-1.034a5.392,5.392,0,0,1-1.034,3.123,3.64,3.64,0,0,0,1.708-3.325c0-.382,0-1.618,0-1.618a14.672,14.672,0,0,0-1.618,2.045,11.234,11.234,0,0,0-.652,1.977V30.183a7.055,7.055,0,0,1,.472-.944s.337.112.449,0a.451.451,0,0,0,0-.629c-.225-.2-.562.112-.562.112a.539.539,0,0,0,0,.472l-.292.337V28.453a7.437,7.437,0,0,1,.854-2.247l.764-1.236a4.943,4.943,0,0,1-.966,2.988,4.831,4.831,0,0,0,1.932-3.8c0-.382-.112-1.483-.112-1.483a16.245,16.245,0,0,0-1.8,2.247,5.729,5.729,0,0,0-.584,2.247s0-1.505,0-1.663a7.662,7.662,0,0,1,.359-.831.315.315,0,0,0,.359-.135.4.4,0,0,0-.2-.562c-.27-.157-.382,0-.382,0a.741.741,0,0,0,0,.539l-.225.18V23.488a10.942,10.942,0,0,1,.989-2.247c.27-.427.921-1.258.921-1.258a4.494,4.494,0,0,1-.989,2.921,3.19,3.19,0,0,0,1.64-3.056,4.314,4.314,0,0,0,0-1.281,11.8,11.8,0,0,0-1.887,2.09,12.829,12.829,0,0,0-.764,2.247v-6.74a6.358,6.358,0,0,1,.584,3.775,10.987,10.987,0,0,0,.427-1.91A3.415,3.415,0,0,0,11.3,16.1a10.65,10.65,0,0,1-.472-1.236,3.55,3.55,0,0,1-.472,1.258A4.022,4.022,0,0,0,9.865,18.1a8.987,8.987,0,0,0,.584,2.651c0,.157,0,2.359,0,2.359a5.819,5.819,0,0,1-1.371-1.371,5.5,5.5,0,0,1-.607-1.91s.449.517.719.786a12.042,12.042,0,0,1,.921,1.371c.135-1.483-2.247-3.393-2.247-3.393a7.729,7.729,0,0,0,.607,3.73,5.078,5.078,0,0,0,1.955,1.415v.944l-.337-.2a.652.652,0,0,0,0-.539s-.337-.292-.607-.135-.18.472,0,.674a.481.481,0,0,0,.449.135,3.347,3.347,0,0,1,.584.674v2.561A4.741,4.741,0,0,1,9.3,26.408a6.965,6.965,0,0,1-.7-1.775s.539.449.809.719a9.931,9.931,0,0,1,.764,1.236c.135-1.483-2.247-3.595-2.247-3.595a8.4,8.4,0,0,0,.607,3.73,4.606,4.606,0,0,0,1.955,1.6v.921l-.517-.359a.719.719,0,0,0,0-.539s-.337-.27-.607-.135-.2.472,0,.674a.427.427,0,0,0,.427.135,6,6,0,0,1,.764.944V32.52a5.01,5.01,0,0,1-1.281-1.46,7.28,7.28,0,0,1-.7-1.775s.539.427.809.7a9.8,9.8,0,0,1,.764,1.258c.135-1.483-2.247-3.617-2.247-3.617a8.538,8.538,0,0,0,.607,3.752,4.628,4.628,0,0,0,1.977,1.6v.989l-.517-.382a.719.719,0,0,0,0-.539s-.337-.247-.607-.112-.2.449,0,.652a.427.427,0,0,0,.427.135,7.347,7.347,0,0,1,.764.944v2.561a5.01,5.01,0,0,1-1.281-1.438A7.28,7.28,0,0,1,8.585,34s.539.427.809.7a9.93,9.93,0,0,1,.764,1.236c.135-1.483-2.247-3.595-2.247-3.595a8.4,8.4,0,0,0,.607,3.73,4.763,4.763,0,0,0,1.955,1.618v1.236l-.517-.359a.719.719,0,0,0,0-.539s-.337-.27-.607-.135-.2.472,0,.674a.427.427,0,0,0,.427.135,6,6,0,0,1,.764.944c0,.157,0,2.561,0,2.561a5.01,5.01,0,0,1-1.281-1.46,7.28,7.28,0,0,1-.7-1.775s.539.427.809.7a9.8,9.8,0,0,1,.764,1.258c.135-1.483-2.247-3.617-2.247-3.617a8.538,8.538,0,0,0,.607,3.752A4.494,4.494,0,0,0,10.45,42.63v1.236l-.517-.359a.719.719,0,0,0,0-.539s-.337-.27-.607-.135-.2.472,0,.674a.427.427,0,0,0,.427.135,7.347,7.347,0,0,1,.764.944v2.539a5.01,5.01,0,0,1-1.281-1.438,7.28,7.28,0,0,1-.7-1.775s.539.427.809.7a9.8,9.8,0,0,1,.764,1.258c.135-1.483-2.247-3.595-2.247-3.595A8.448,8.448,0,0,0,8.472,46a4.763,4.763,0,0,0,2.022,1.618,8.758,8.758,0,0,0,.2,1.55c-.449-.292-.247-.652-.247-.652a.539.539,0,0,0-.135-.472c-.2-.18-.4-.315-.674-.18s-.135.382,0,.584a1.207,1.207,0,0,0,.4.337A8.763,8.763,0,0,0,11.213,49.8a4.786,4.786,0,0,0,3.078,2.966Z" transform="translate(-6.45 -13.647)" fill="#2966ff"/>
      <path id="Path_3" data-name="Path 3" d="M21.274,51.971c-.2.135-.225,0-.27-.112s0-.157.2-.2a4.494,4.494,0,0,0,.989-.607,2.247,2.247,0,0,1-.921.921m3.37-7.572a11.234,11.234,0,0,0-.786,1.932s0-1.528,0-1.708a5.415,5.415,0,0,1,.741-1.034s.315,0,.427-.2.157-.539-.135-.652-.584.18-.584.18a.786.786,0,0,0,0,.562l-.472.4V42.31a15.728,15.728,0,0,1,1.1-2.247c.27-.427.854-1.281.854-1.281a6.561,6.561,0,0,1-1.258,3.527,4.741,4.741,0,0,0,1.8-3.977c0-.359-.112-1.3-.112-1.3a20.223,20.223,0,0,0-1.663,2.247,9.953,9.953,0,0,0-.719,1.887v-1.55a5.729,5.729,0,0,1,.741-1.056s.315,0,.427-.18.157-.562-.135-.674-.584.2-.584.2a.741.741,0,0,0,0,.539l-.472.427V37.3a15.481,15.481,0,0,1,1.1-2.247c.27-.427.854-1.281.854-1.281a6.561,6.561,0,0,1-1.3,3.527,4.786,4.786,0,0,0,2-3.977,9.976,9.976,0,0,0-.225-1.371,20.85,20.85,0,0,0-1.6,2.247,12.244,12.244,0,0,0-.786,1.955V34.6a5.729,5.729,0,0,1,.741-1.056s.315,0,.427-.18.157-.562-.135-.652a.694.694,0,0,0-.584.18.786.786,0,0,0,0,.562l-.472.4V32.537a12.088,12.088,0,0,1,.989-2.247l.652-1.034A5.437,5.437,0,0,1,24.419,32.4a3.685,3.685,0,0,0,1.73-3.348V27.437a13.076,13.076,0,0,0-1.64,2.045,10.964,10.964,0,0,0-.652,2V29.953a7.055,7.055,0,0,1,.472-.944s.337.112.449,0a.453.453,0,0,0,0-.629.539.539,0,0,0-.562,0,.584.584,0,0,0-.135.449l-.292.337v-1.1a7.37,7.37,0,0,1,.876-2.247c.247-.427.764-1.236.764-1.236a4.9,4.9,0,0,1-.989,3.011A4.808,4.808,0,0,0,26.329,24c0-.382-.112-1.505-.112-1.505a16,16,0,0,0-1.8,2.247,6.044,6.044,0,0,0-.584,2.247s0-1.505,0-1.685a6.515,6.515,0,0,1,.382-.831.292.292,0,0,0,.359-.135.427.427,0,0,0-.2-.562c-.292-.157-.4,0-.4,0a.786.786,0,0,0,.112.562l-.225.18v-1.1a10.851,10.851,0,0,1,.989-2.247c.27-.427.944-1.281.944-1.281a4.494,4.494,0,0,1-1.011,2.943,3.19,3.19,0,0,0,1.55-3.145,4.314,4.314,0,0,0-.112-1.281,12.11,12.11,0,0,0-1.91,2.112,15.929,15.929,0,0,0-.786,2.247v-6.74a6.269,6.269,0,0,1,.562,3.82,10.987,10.987,0,0,0,.427-1.91,3.438,3.438,0,0,0-.584-1.955,10.718,10.718,0,0,1-.472-1.258A3.73,3.73,0,0,1,22.981,16a4.493,4.493,0,0,0-.517,2,9.841,9.841,0,0,0,.764,2.651,21.321,21.321,0,0,1,0,2.359,5.64,5.64,0,0,1-1.393-1.371,5.5,5.5,0,0,1-.607-1.91s.449.517.719.786a12.987,12.987,0,0,1,.944,1.371c.135-1.483-2.247-3.415-2.247-3.415a7.931,7.931,0,0,0,.607,3.775,5.078,5.078,0,0,0,1.977,1.415v.944l-.18-.27a.831.831,0,0,0,0-.562s-.337-.27-.607-.135-.2.494,0,.7a.427.427,0,0,0,.427.135,2.561,2.561,0,0,1,.584.7c0,.157,0,2.561,0,2.561a4.741,4.741,0,0,1-1.281-1.46,6.74,6.74,0,0,1-.719-1.8s.539.449.809.719a8.268,8.268,0,0,1,.786,1.258c.135-1.483-2.247-3.64-2.247-3.64a8.605,8.605,0,0,0,.607,3.775A4.9,4.9,0,0,0,23.386,28.2v.921l-.517-.292a.786.786,0,0,0,0-.562s-.359-.247-.607-.135-.225.494,0,.7a.427.427,0,0,0,.427.135,5.055,5.055,0,0,1,.741.944c0,.157,0,2.584,0,2.584a5.325,5.325,0,0,1-1.281-1.46,7.122,7.122,0,0,1-.719-1.8s.539.427.809.7a8.268,8.268,0,0,1,.786,1.258c.135-1.483-2.247-3.617-2.247-3.617a8.538,8.538,0,0,0,.607,3.752,4.7,4.7,0,0,0,2,1.618v.989l-.517-.359a.786.786,0,0,0,0-.562s-.359-.247-.607-.112a.408.408,0,0,0,0,.674.427.427,0,0,0,.427.135,5.055,5.055,0,0,1,.741.944v2.584a5.325,5.325,0,0,1-1.281-1.46,6.74,6.74,0,0,1-.719-1.8s.539.449.809.719a8.358,8.358,0,0,1,.786,1.236c.135-1.483-2.247-3.617-2.247-3.617a8.65,8.65,0,0,0,.607,3.775A4.9,4.9,0,0,0,23.363,37.7v1.258l-.517-.382a.719.719,0,0,0,0-.539s-.359-.27-.607-.135a.408.408,0,0,0,0,.674.427.427,0,0,0,.427.135,5.392,5.392,0,0,1,.741.966c0,.157,0,2.561,0,2.561a5.01,5.01,0,0,1-1.281-1.438,7.122,7.122,0,0,1-.719-1.8s.539.427.809.7A8.268,8.268,0,0,1,23,40.962c.135-1.505-2.247-3.64-2.247-3.64a8.605,8.605,0,0,0,.607,3.775,4.763,4.763,0,0,0,1.977,1.6v1.236l-.517-.359a.719.719,0,0,0,0-.539s-.359-.27-.607-.135a.408.408,0,0,0,0,.674.427.427,0,0,0,.427.135,5.954,5.954,0,0,1,.741.944v2.584A5.01,5.01,0,0,1,22.1,45.77a6.74,6.74,0,0,1-.719-1.8s.539.449.809.719a8.268,8.268,0,0,1,.786,1.258c.135-1.505-2.247-3.64-2.247-3.64a8.605,8.605,0,0,0,.607,3.775,5.055,5.055,0,0,0,1.955,1.64,4.494,4.494,0,0,1-.337,1.505c-.562-.4-.225-.831-.225-.831v-.382a.4.4,0,0,0-.584-.157.472.472,0,0,0-.27.584c0,.2.562.315.562.315a2.247,2.247,0,0,1,.27,1.3c-.157.944-1.955,1.393-1.955,1.393l-.427,1.483a4.853,4.853,0,0,0,3.078-2.988A10.649,10.649,0,0,0,24.6,48.938s.337-.157.4-.359.2-.472,0-.607-.472,0-.674.2a.539.539,0,0,0-.135.472s.135.292-.494.629a17.322,17.322,0,0,0,.27-1.752,14.244,14.244,0,0,1,1.1-2.449c.27-.427.854-1.258.854-1.258a6.561,6.561,0,0,1-1.3,3.527,4.831,4.831,0,0,0,1.932-3.909,9.976,9.976,0,0,0-.225-1.371,27.411,27.411,0,0,0-1.6,2.382" transform="translate(9.125 -13.821)" fill="#2966ff"/>
      <path id="Path_4" data-name="Path 4" d="M18.33,31.929V34.4h-.315V32.153h-1.73a.315.315,0,0,1-.337-.292v-.337a.652.652,0,0,0,.449.225h1.618a.2.2,0,0,1,.225.225m0-.741H15.994a1.011,1.011,0,0,1-.584-.292L15.05,32.2a.4.4,0,0,0,.427.359H17.3v2.629l1.1-.449V31.524s0-.337-.27-.337" transform="translate(2.542 6.401)" fill="#2966ff"/>
      <path id="Path_5" data-name="Path 5" d="M21.018,32.088a4.336,4.336,0,0,0-.157.966h-.27v-.831a.876.876,0,0,1-.584,0l.2-.517h.652c.135,0,.2,0,.112.247m.247-.966h-.876a3.5,3.5,0,0,1-.472-.157l-.562,1.528c.135.135.831,0,.831,0l-.135,1.1,1.123-.292a4.786,4.786,0,0,1,.337-1.775c0-.337,0-.517-.247-.517" transform="translate(7.853 6.264)" fill="#2966ff"/>
      <path id="Path_6" data-name="Path 6" d="M16.887,34.485l-.2-.157-2.831-1.955v1.775h.764l-.247.382h-.9a9.93,9.93,0,0,0,0-1.191c0-.359-.112-1.258-.112-1.258a1.191,1.191,0,0,0,.157-.225s.135-.112.225,0A11.234,11.234,0,0,0,17,34.1Zm-.427-3.1a.921.921,0,0,0,.315,0h.27c.157,0,.135.2.135.337v.247a1.011,1.011,0,0,1,0,.517,1.775,1.775,0,0,1-.315.247,3.64,3.64,0,0,0,0-.741h-.539a2.359,2.359,0,0,0,.18-.539m.4,2.112c-.135,0,0-.292,0-.292a2.427,2.427,0,0,0,.427-.315.517.517,0,0,0,.18-.427V31.339c0-.18,0-.247-.157-.27a5.864,5.864,0,0,0-.9,0,1.415,1.415,0,0,1-.382,0,7.052,7.052,0,0,1-.449,1.258,1.819,1.819,0,0,0,.472.112c.18,0,0,0,.135.135a1.82,1.82,0,0,1,0,.607,18.469,18.469,0,0,1-2.471-1.91h-.315a8.428,8.428,0,0,0-.539.809s.2.944.247,1.348a11.909,11.909,0,0,1-.225,1.663h1.73l.449-1.1h-.944v-.944s2.449,1.842,2.606,1.932.2,0,.2,0l.517-1.056c-.18,0-.517-.315-.652-.382" transform="translate(-0.126 6.541)" fill="#2966ff"/>
      <path id="Path_7" data-name="Path 7" d="M21.7,33.134a1.438,1.438,0,0,1,0,.427s-.562.539-.629.607a.539.539,0,0,1-.225.135l-3.056.4V32.73c0-.045.359-.427.157-.494a1.572,1.572,0,0,1-.4-.112l.247-.517h.427c.112,0,.247,0,.2.157s-.2.674-.292.921a4.493,4.493,0,0,0,0,1.46h.809l.854-2.022h-.472l.2-.4h.607c0,.112-.741,2.4-.741,2.4s1.326-.18,1.438-.225a1.438,1.438,0,0,0,.539-.562,8.224,8.224,0,0,0,.135-1.078h-.337l.157-.539h.449s-.112,1.236-.112,1.371m-.607-1.91-.359,1.168h.382a2.719,2.719,0,0,1,0,.719.741.741,0,0,1-.337.427,8.224,8.224,0,0,1-.944.18s.7-2.427.7-2.561H19.322l-.427,1.1.4.112a15.728,15.728,0,0,1-.674,1.46,1.46,1.46,0,0,1-.18-1.326,3.976,3.976,0,0,1,.359-1.168c.09-.18-.135-.18-.247-.18a1.932,1.932,0,0,1-1.123-.2l-.494,1.123a.629.629,0,0,0,.449.292c.337,0,0,.337,0,.382a.494.494,0,0,0-.135.359c0,.18,0,2,0,2l3.662-.517c.157,0,.157,0,.27-.157s.629-.741.7-.809,0,0,0-.247.135-2.247.135-2.247Z" transform="translate(4.899 6.364)" fill="#2966ff"/>
    </g>
    <path id="Path_8" data-name="Path 8" d="M15.88,24.17l.022.022h.022l-.045-.022Z" transform="translate(10.797 12.281)" fill="#2966ff"/>
    <path id="Path_9" data-name="Path 9" d="M15.88,24.17Z" transform="translate(10.797 12.281)" fill="#2966ff"/>
    <g id="Group_2" data-name="Group 2" transform="translate(7.22 14.32)" clip-path="url(#clip-path)">
      <path id="Path_10" data-name="Path 10" d="M31.258,17.445c-.135.449-.494.9-.315,1.393s.292.607.112.854a.427.427,0,0,1-.607,0,.135.135,0,0,1,0-.157c.112-.2.4-.359.27-.629s0-.607-.157-.854-.472-.4-.562-.719.629-.427.989-.359.382.157.292.382m-.135,2.651c-.157,0-.382.112-.449,0s.225,0,.359,0h.135m0,1.056h-.157a2.573,2.573,0,0,1-.584-.225c-.18-.112-.157-.2,0-.2s.359-.157.584-.18h0c.135,0,.157-.18.225-.292s.135,0,.135,0a1.371,1.371,0,0,1,0,.854m0,.607c-.27,0-.494-.157-.764-.18s-.18,0-.157-.135H31.1c.225,0,.225,0,.292.2s0,.18,0,.18m0,.809c0,.18-.247.292-.292.539s-.112.112-.18,0-.4,0-.539-.225,0-.112,0-.112h.584c.157,0,0-.315.225-.4h.225v.225m-.292,1.483c0,.157-.315.225-.584.157s-.247-.18-.157-.27.292-.18.2-.315,0-.135,0-.157-.157,0-.2,0h0a.741.741,0,0,1,.786.27.427.427,0,0,1,0,.427m-.607.876a.4.4,0,0,1-.562.135s-.18,0-.18-.157v-.135a2.849,2.849,0,0,1,.449,0v-.112s-.359-.225-.225-.292a.449.449,0,0,1,.494.629m-.382,1.056h0s0,.27-.135.359,0,0-.112-.157a.337.337,0,0,0-.225-.157c-.112,0-.135-.18-.225-.247s.517-.112.764,0,0,.18,0,.225m-.652.921s-.112.315-.247.247-.27-.27-.427-.427h0s.27.112.359,0,0-.247,0-.337.112,0,.18,0h0a.459.459,0,0,1,.337.382c0,.157-.18.18-.27.27m-1.281,1.168h0c0,.18-.135.315-.157.494s-.2,0-.247,0a4.111,4.111,0,0,1-.584-.809h.18c.225.225.517,0,.719.157a.247.247,0,0,1,.135.2m-.876.7c0,.135-.157.315-.315.247a2.777,2.777,0,0,1-.584-.7h0a.2.2,0,0,0,.2.2c.2,0,0-.157.135-.2s.112,0,.2,0a.337.337,0,0,1,.225.427m-.809.292c0,.359-.472.449-.786.517-.741.247-1.483.4-2.247.607a3.842,3.842,0,0,1-1.236.112h.225a1.258,1.258,0,0,1-.472-.135h0a6.134,6.134,0,0,1,1.123-.135,11.233,11.233,0,0,0,1.483-.4,5.8,5.8,0,0,0,.719-.4h.2a2.09,2.09,0,0,1,.786-.359c.18,0,.315.157.292.247M23.215,31.8c0,.112,0,.27-.2.27s0,.382-.2.449a2.089,2.089,0,0,1-.921.112v-.112a.27.27,0,0,0,.135-.4h-.2c-.022,0,0,.382-.112.517s-.18,0-.292,0-.157-.112,0-.157.157,0,.225,0,0,0,0-.157h0c0-.135-.112-.27-.247-.225s-.135.112-.225.157a.292.292,0,0,0-.27-.27h-.18c-.022,0,0-.18,0-.292a16.447,16.447,0,0,0,1.82,0v-.112c0-.112.135-.135.225-.135s0-.112.135-.157a.2.2,0,0,1,.225,0,.607.607,0,0,1,0,.517m.112,1.887c.225,0,.517.292.359.539s-.18,0-.292,0a4.246,4.246,0,0,0-.517,0h-.112c-.18-.157-.337-.4-.517-.292a.517.517,0,0,1-.4,0h0s.112-.225.247-.247a1.034,1.034,0,0,1,.809.157h.472m-2.247-1.213s.157,0,0,.135-.157,0-.225,0,0,0,.135-.135m2.247,3.056c-.225,0-.539.112-.7,0s0-.18,0-.27-.18-.112-.2,0a2.426,2.426,0,0,0,0,.4c0,.09-.4,0-.449,0s.337,0,.27-.27a.4.4,0,0,0-.382-.18.966.966,0,0,1,0,.517c0,.112-.247,0-.359,0v-.876s.247,0,.2-.18-.2-.4-.382-.27,0,.472-.2.629a.247.247,0,0,1-.337,0h.27c.09,0,0-.315,0-.449s-.18-.135-.247,0-.135,0,0,.135a.4.4,0,0,1,0-.539c.247-.18.607,0,.921,0a10.761,10.761,0,0,0,1.483,0,2.09,2.09,0,0,0,.135,1.056m.225.382c.112,0,.157,0,.2.2a8.516,8.516,0,0,1,.652,1.73,2.7,2.7,0,0,1-.854,0s-.112,0-.112-.157-.2-.854-.337-1.415a.517.517,0,0,1,.18-.359.382.382,0,0,1,.27,0m-.764,1.82a2.562,2.562,0,0,0-.382-.337h0a8.538,8.538,0,0,1,0-1.056.292.292,0,0,1,.157-.2c.135,0,.315,0,.337.135a6.939,6.939,0,0,0,.2,1.393H22.7m-.674-.27c-.225,0-.247-.225-.359-.359h0a1.213,1.213,0,0,1,0-.7.2.2,0,0,1,.337,0c.2.359,0,.764,0,1.146m-.741-.472h-.315c-.157,0,0-.315,0-.517h.337a.472.472,0,0,1,0,.427v.135m-1.191-6.448a8.987,8.987,0,0,1-2.449-.584c-.225-.112-.427-.292-.652-.427H17.1a1.644,1.644,0,0,1,.337-.584h0a3.4,3.4,0,0,0,.292.562.629.629,0,0,0,.225.2,6,6,0,0,0,1.752.607h1.46c.09,0,0,0,0,.112H20.137m-3.954-1.415h-.2c-.067,0-.4-.18-.4-.382a.112.112,0,0,0,.112,0c0-.2,0-.4.292-.4s.741-.382.719,0-.539.472-.517.876m-.989-.652a.427.427,0,0,1-.427-.292v-.359c0-.045,0,0,.112,0a1.438,1.438,0,0,1,0-.157h.27c.045,0,0,.2,0,.247a3.753,3.753,0,0,0,.584-.382.112.112,0,0,1,0,.18c-.247.315-.359.786-.809.809M14.3,27.308c-.112,0-.112.27-.247.315s-.157,0-.225-.157,0,0,0-.112-.2,0-.27-.135,0-.112,0-.157.247,0,.292,0,0-.112,0-.135.2,0,.247,0,.18.135.27.225a.18.18,0,0,1,0,.157h-.18m-1.281-.7c0-.112.135-.18.247-.225l.449-.247a.517.517,0,0,1,0,.315c0,.112-.18.157-.292.247s-.247,0-.315,0m-.247-.472a.36.36,0,0,1-.2-.135v-.157h.315l.2-.135a1.011,1.011,0,0,1,.27-.135h0s-.382.562-.7.472m-.719-1.213v-.112c0-.112.584-.247.876-.427s.157,0,.2,0a.18.18,0,0,1,0,.18c-.247.27-.674.562-1.034.337m-.27-1.258h.135c.135,0,.2-.157.225-.315s0-.2-.18-.27h0a.382.382,0,0,1,.27,0V23.2c0,.135.112.157.157.225a.472.472,0,0,1-.337.652h0c-.157,0-.382,0-.337-.27m0-1.8s-.382,0-.292-.157a3.5,3.5,0,0,1,.427-.315c.18-.112,0-.4.225-.562s0,0,.135,0a2.067,2.067,0,0,1,0,.831.562.562,0,0,1-.472.18h0Zm-.584-1.8c.359-.225.27-.719.4-1.078h0l.135-.225c.135-.225,0-.427-.112-.607s-.247-.157-.337-.27,0-.2.135-.225a1.191,1.191,0,0,0,.517-.359s.135,0,.112.18h0a1.46,1.46,0,0,0,0,.7,8.246,8.246,0,0,1,0,2.112c-.247,0-.719.18-.719-.2m9.054,7.235a5.707,5.707,0,0,1-2.247-.652s-.18-.135-.157-.225.157,0,.225,0a4.628,4.628,0,0,0,2,.786h.27M17.261,26.3a.18.18,0,0,1,.157-.2h0c.18-.157.337-.494.607-.472a6.089,6.089,0,0,1-.382.876c-.112.135-.247,0-.292-.2m-.112-.652h0a.517.517,0,0,1-.247.315.227.227,0,0,1-.2-.247V25.6c.157-.135.315-.494.517-.292s0,.157,0,.247m-1.011-.4h0s0-.315.225-.292h0c.135,0,.292-.135.382,0s-.292.584-.449.517m4.246,0h.157c.539-.157,1.078.18,1.573,0a1.932,1.932,0,0,1,0,.876.449.449,0,0,1-.674.247c-.292-.225-.315-.674-.674-.9a.944.944,0,0,0-.292,0s-.157,0,0,0m0-7.774a.112.112,0,0,1,0-.135h.674c.2,0,.135-.135.247-.135s0-.112,0-.18a1.708,1.708,0,0,0,0-.337.719.719,0,0,1,.674.876.944.944,0,0,1-.247.359.989.989,0,0,0-.247.562c0,.472.247.9.18,1.348a.652.652,0,0,1-.2.449.27.27,0,0,1-.292,0c-.18,0-.472,0-.584-.225a.646.646,0,0,0,.629-.449,1.326,1.326,0,0,0,0-.831,2.248,2.248,0,0,0-.135-.989c-.135-.247-.517-.18-.786-.292m.854,5.3h0V22.59c0-.157.18,0,.27,0a.225.225,0,0,1,0,.157c0,.337.18.719,0,.944s-.7.135-1.034,0-.157-.27,0-.315a2.921,2.921,0,0,0,.674-.292m.27-1.078c.135-.135,0-.247,0-.315s.382.337.27.494-.517.135-.809.112-.157-.18,0-.2a2.7,2.7,0,0,1,.607,0Zm1.123,2.449a3.146,3.146,0,0,0,.359-.225s.18-.157.292-.112a.247.247,0,0,1,.112.4,3.123,3.123,0,0,1-1.326.539c-.517.112-1.573.18-1.528-.247h.517a4.494,4.494,0,0,0,1.573-.427m-.809,4.494a.652.652,0,0,1-.539,0c-.225,0-.18-.427-.292-.652s0,0-.157-.135-.382,0-.494-.247H20.7a8.582,8.582,0,0,0,1.528,0c0,.292.157.719-.18.9m.719-1.618.472-.157a14.38,14.38,0,0,0,1.371-.674s.382.337.292.4c-.449.2-.786.359-1.505.629a3.011,3.011,0,0,1-1.663.225,2.674,2.674,0,0,0-.472-.135h-.225c.539-.315,1.168,0,1.73-.2m-7.572-2.764s-.135,0,0-.135.157,0,.225,0h0a.382.382,0,0,1,.27,0,.382.382,0,0,1-.4.27m-.2-.629h-.2l.4-.18h0c.112.157-.135.27-.27.315m.135-.584a.157.157,0,0,1-.2,0h0c0,.135.2,0,.135.157M14.655,22.1c.18,0,.135-.225.225-.315s.247.112.292.247-.27.337-.494.247-.112-.135,0-.18M14,20.972h0a.989.989,0,0,1,.449,0H15.1c-.157.157-.382,0-.584,0a.449.449,0,0,1-.517,0m-.135-3.258v-.27h0a4.493,4.493,0,0,0,.786,0h.225a3.46,3.46,0,0,0,0,.674,4.156,4.156,0,0,0,0,1.056,5.145,5.145,0,0,1,0,.831h0v.18a.157.157,0,0,1-.18,0s-.18-.135-.135-.225a1.555,1.555,0,0,0,.135-.831.607.607,0,0,0-.247-.4s0,0,0-.112v-.7c0-.225-.225-.18-.292-.292m6.066,7.235a2.584,2.584,0,0,1-1.348-.359c-.337-.135-.7-.4-.494-.764s.2.112.292.247c.359.539,1.034.517,1.573.786h0M18,23.376s0-.247.135-.337.247-.225.4-.112,0,0,0,.157-.247.135-.359.27-.18,0-.2,0m-.359-.517s-.112.112-.135.112,0-.135,0-.2,0-.157.135-.135a.359.359,0,0,1,.427-.382.247.247,0,0,1,.135.247.764.764,0,0,1-.539.359m-.584-.944h0v-.247c0-.09,0,0,.157,0a1.46,1.46,0,0,1,.7,0s.2,0,.135.157-.629,0-.876.2m.382-.786c0,.135-.292.157-.449.18v-.112c.18,0,.427-.292.449,0m-.944-.831h0a1.1,1.1,0,0,1,.472,0h.629c-.157.157-.359,0-.584,0a.449.449,0,0,1-.517,0m-.2-2.741a.2.2,0,0,1,0-.315,1.753,1.753,0,0,1,.966,0h.315a.27.27,0,0,1,.225.359c-.067.157-.292.4-.382.629a3.294,3.294,0,0,0,0,.944.674.674,0,0,1-.539.562h-.247c-.045,0,.27-.359.382-.562s0-.157,0-.2a2.045,2.045,0,0,1-.359-.539c-.112-.2,0-.4,0-.562s-.27-.315-.359-.315M23.822,23.6h.292l.27-.27s.292,0,.382.18a.247.247,0,0,1,0,.225.8.8,0,0,1-.2.247l-.247.135a.507.507,0,0,1-.494-.4m.741-6V17.49a11.8,11.8,0,0,1,1.258,0c.157,0,0,0,0,.112s-.292.517-.157.786,0,.809.2,1.258a.427.427,0,0,1,0,.359.652.652,0,0,1-.786,0c-.112,0,0-.225.112-.247h.27a.539.539,0,0,0,.18-.584c0-.18-.27-.18-.449-.157s.382-.27.225-.382a3.191,3.191,0,0,1-.4-.18.35.35,0,0,0-.135-.27,2.4,2.4,0,0,1-.359-.315m1.505,2.471v.427c0-.022-.741-.18-.629-.315s.292,0,.494,0,.135-.292.225-.135m-.157.989h0a5.737,5.737,0,0,0-.562-.18c-.2-.045-.157,0-.112,0a2.162,2.162,0,0,0,.337-.2c.112-.067.315,0,.315.247h0v.135m-.584,1.1-.4-.2v-.157c0-.022.27,0,.359-.225s0-.27,0-.292.315,0,.315.135-.225.786-.449.7m-.157.966a.18.18,0,0,1-.247,0v-.112a1.532,1.532,0,0,0,.472-.292c.112.2,0,.359-.112.517m0,2.943h.337c.27,0,0-.247.135-.4s.337.382.247.584-.247.135-.382.18-.359-.2-.247-.337m.539-.764h.18c.18,0,0-.112,0-.2h0a1.1,1.1,0,0,1,.315.292c.067.135,0,0,0,.135a.247.247,0,0,1,0,.247h0s-.292-.157-.427-.247h0v-.112m.629-.674h.427v-.315a.607.607,0,0,1,.517.27.315.315,0,0,1,0,.315.391.391,0,0,0-.315.157c-.09.157,0,.157-.135.225s-.112,0-.135,0,0,0-.135-.112-.18-.112-.225-.157-.225-.157,0-.247m.674-1.505a.921.921,0,0,1,.876.18h0a.27.27,0,0,1-.315,0c-.18-.112-.382,0-.562-.2s-.112,0,0,0m.315-1.281h0v.135h0a1.056,1.056,0,0,1,.786.2.9.9,0,0,1-.27.786c-.27.2-.292,0-.382,0s-.135-.18,0-.225.337-.247.247-.427-.337,0-.449,0,0-.135,0-.18m.112-4.494a3.865,3.865,0,0,0,.584,0h.18c.045,0,0-.247.2-.292a.157.157,0,0,1,.247,0,.629.629,0,0,1,0,.4c0,.135-.157.27-.2.4a1.235,1.235,0,0,0,0,.4,6.223,6.223,0,0,0,0,1.438.292.292,0,0,1-.135.292,1.393,1.393,0,0,1-.607.112h0c0-.135.112-.112.157-.2v-.247a1.348,1.348,0,0,0-.135-.831.247.247,0,0,0,.27-.18c0-.292.112-.719-.18-.876s-.315,0-.449-.112,0-.18,0-.18m.809,4.134h-.315c-.09,0,0-.427.135-.652a.562.562,0,0,1,0-.337h0a.157.157,0,0,1,.18,0,.786.786,0,0,1,0,1.056m-.539,2.382c0,.157-.225.359-.359.2s-.27,0-.315-.2.135-.112.18-.247.225,0,.337,0,.2,0,.157.157m3.46-7.5a1.752,1.752,0,0,0-1.258.112.764.764,0,0,0-.2,1.034c.27.27.112.966.18,1.258a1.618,1.618,0,0,1,0,.652v.764a.562.562,0,0,0,0,.494v.337a3.213,3.213,0,0,0,0,.539,1.64,1.64,0,0,1,0,.652,6.74,6.74,0,0,1-.292.944,1.079,1.079,0,0,1-.225.719s-.112.472-.18.7a5.235,5.235,0,0,0-.584.652l-.494.719-.359.562s-.741.292-.854.584-.7.337-1.146.741l-.876.337s-.584,0-.741.225a9.232,9.232,0,0,0-.966.225,2.247,2.247,0,0,1-.674-.629v-.629a1.977,1.977,0,0,0,0-.315h0a5.774,5.774,0,0,0,1.123-.337,2.247,2.247,0,0,0,1.258-.517c.449,0,.472-.27.472-.27a3.28,3.28,0,0,0,.629-.247c.247,0,.494-.539.494-.539l.337-.315c.359-.18.652-.809.741-.944a4.494,4.494,0,0,0,.359-.629,7.01,7.01,0,0,0,.494-1.415,4.942,4.942,0,0,0,.247-.989c.112-.7.157-1.6.157-1.6a2.673,2.673,0,0,1,0-.741,2.853,2.853,0,0,1,0-.607,3.078,3.078,0,0,1,.337-1.415c.27-.427-.18-.9-.7-.921a1.64,1.64,0,0,0-1.1.337c-.27.135-.629.764-.337,1.034s.247.831.315,1.123a2.334,2.334,0,0,1,0,.719.944.944,0,0,0-.112.539,2,2,0,0,1,0,.4,1.325,1.325,0,0,0,0,.494v.494l-.135.786a4,4,0,0,0-.517.989,4.853,4.853,0,0,1-.427.809,1.28,1.28,0,0,0-.292.157,1.977,1.977,0,0,0-.809.786,1.932,1.932,0,0,0-.7.472,1.955,1.955,0,0,0-.719.292l-1.011.494h-.157a9.907,9.907,0,0,0,0-1.168,4.291,4.291,0,0,0,2.247-.854c.247-.27.112-.337.315-.382s.449-.7.652-.9a4.494,4.494,0,0,0,.449-.966,3.55,3.55,0,0,0,.315-1.348c.247-.337,0-.876,0-.876v-.876a9.37,9.37,0,0,1,.112-1.46c.135-.472.135-.741-.315-.9a2.4,2.4,0,0,0-1.483,0c-.247.135-.876.786-.607,1.056a3.056,3.056,0,0,1,.674,1.146c0,.27.135,1.056.135,1.056v.562s-.112.9-.292,1.034-.135.472-.135.472l-.427.7a5.235,5.235,0,0,1-.607.584,1.752,1.752,0,0,1-.944.315h-.27a3.146,3.146,0,0,1,0-.517v-.562c0-.292-.135-.292-.135-.292l.135-.315s.157,0,.157-.2a.2.2,0,0,0-.157-.225,3.6,3.6,0,0,0,0-.854,2.382,2.382,0,0,0,0-.472,2.247,2.247,0,0,0,0-.944,1.191,1.191,0,0,1,0-.741c.112-.225.494-.831.629-1.034s.247-.607-.764-.944a1.932,1.932,0,0,0-1.82.27c-.337.157-.2.674-.2.876s.652.674.652.9v1.034c0,.09-.247.135-.247.247s.135.2.2.337,0,.135,0,.135-.2.225-.18.359,0,.382.2.427,0,.157,0,.292a.517.517,0,0,0-.135.337.854.854,0,0,0,.247.449.174.174,0,0,0-.18.2,1.326,1.326,0,0,0,0,.4c0,.135,0,.449,0,.854h0a1.73,1.73,0,0,1-1.213-.584.989.989,0,0,0-.427-.4s-.157-.652-.427-.719,0-.337-.135-.472a3.639,3.639,0,0,1-.337-.854.494.494,0,0,0,.112-.247v-.315a8.852,8.852,0,0,1,0-1.191,3.393,3.393,0,0,1,.674-1.146.584.584,0,0,0,0-.9,4.493,4.493,0,0,0-2,0c-.472.157-.809.494-.539.9a3.011,3.011,0,0,1,.427,1.326c0,.27,0,.876,0,.876a.876.876,0,0,0,0,.809,5.235,5.235,0,0,0,.382,1.55c.2.427.157.809.337,1.011s.449.7.652.764,0,.135.337.4a3.258,3.258,0,0,0,2.045.944.562.562,0,0,0,0,.225.629.629,0,0,1,.135.337,1.016,1.016,0,0,1-.157.494l-.337-.135-.9-.4a1.55,1.55,0,0,0-.741-.27c-.135-.247-.652-.427-.652-.427a2.584,2.584,0,0,0-.4-.494l-.449-.494a5.235,5.235,0,0,1-.607-.854,5.1,5.1,0,0,0-.494-.809s0-.854-.225-.921a.944.944,0,0,1,0-.427,1.618,1.618,0,0,0,0-.494,1.55,1.55,0,0,1,0-.4c0-.135,0-.157,0-.292a8.786,8.786,0,0,1,0-.966c0-.292-.135-1.056.112-1.326a.674.674,0,0,0-.112-.966,2.09,2.09,0,0,0-1.371-.112c-.472.18-.809.517-.539.921a3.011,3.011,0,0,1,.427,1.326v.719a2.921,2.921,0,0,1,0,.764,6.735,6.735,0,0,0,.18,1.46,4.943,4.943,0,0,0,.247.989,4.291,4.291,0,0,0,.494,1.078,6.426,6.426,0,0,0,.359.629,2.494,2.494,0,0,0,.786,1.146l.382.27s.292.517.562.562a1.8,1.8,0,0,0,.584.337.921.921,0,0,0,.652.359s.18.315.876.382a4.494,4.494,0,0,0,.966.315h.4a.674.674,0,0,0,0,.2,3.343,3.343,0,0,1-.112.854l-.629-.135a8.986,8.986,0,0,0-.944-.225,1.73,1.73,0,0,0-.629-.292,4.044,4.044,0,0,1-.764-.382c-.449-.382-1.123-.652-1.168-.786S15.8,26.7,15.8,26.7a3.19,3.19,0,0,0-.7-.741,2.629,2.629,0,0,0-.427-.517c-.2-.315-.427-.741-.427-.741a3.325,3.325,0,0,1-.157-.7,1.483,1.483,0,0,1-.292-.674l-.786-1.123a3.258,3.258,0,0,1,0-.674,1.753,1.753,0,0,1-.2-.449,2.09,2.09,0,0,1,0-.472.315.315,0,0,0,0-.359.566.566,0,0,0-.135-.427,4.92,4.92,0,0,1,0-.989c0-.292-.157-1.056,0-1.326a.674.674,0,0,0-.135-.966,1.663,1.663,0,0,0-1.236,0,.629.629,0,0,0-.359,1.011,1.73,1.73,0,0,1,.135,1.123V20.3a7.37,7.37,0,0,0,.135,1.258,3.932,3.932,0,0,0,.157.809c0,.27,0,.989.2,1.191a2.966,2.966,0,0,0,.337.629,2.3,2.3,0,0,0,.629,1.213,2.247,2.247,0,0,0,.629,1.056s.292.494.427.472.315.584.494.629.157.562.607.629a1.326,1.326,0,0,0,.741.584,1.46,1.46,0,0,0,.876.539s-.135.382.719.382h0a1.056,1.056,0,0,0,.517.2,4.494,4.494,0,0,0,1.011.315h.809v.921s.449,0,.449.337,0,.337.157.382.135,0,0,.337a.562.562,0,0,0,0,.337.629.629,0,0,0-.337.607h-.225v.719h.427a.315.315,0,0,1,0,.157v.607c0,.09-.2.247-.27.337a2.4,2.4,0,0,0-.966,1.977c0,.382-.517.472-.966.607H24.72c-.494-.135-.719-.225-.741-.607a2.4,2.4,0,0,0-.989-1.977,3.361,3.361,0,0,1-.27-.337c-.067-.112,0-.494,0-.607a.315.315,0,0,1,0-.157h.449v-.4h-.247a.629.629,0,0,0-.337-.607.652.652,0,0,0,0-.337c-.112-.247,0-.337,0-.337a.591.591,0,0,0,.157-.382c0-.225.449-.337.449-.337V30.5l.989-.247a5.6,5.6,0,0,0,.719-.18c.225,0,.2-.2.449-.2.831,0,.854-.27.854-.27a.921.921,0,0,0,.764-.652,1.842,1.842,0,0,0,1.011-.629c.382,0,.562-.607.562-.607l.607-.629.337-.472a2.584,2.584,0,0,0,.629-1.258c.382-.315.359-.719.449-.831a5.46,5.46,0,0,0,.315-.876,6.4,6.4,0,0,0,.292-1.213,5.415,5.415,0,0,0,.135-.809,5.266,5.266,0,0,1,.157-1.281V18.77a1.73,1.73,0,0,1,0-1.056.741.741,0,0,0-.337-1.123" transform="translate(-2.747 -11.693)" fill="#2966ff"/>
      <path id="Path_11" data-name="Path 11" d="M19.444,28.185h.247a.359.359,0,0,1,.337,0,.27.27,0,0,1,.157.315,1.461,1.461,0,0,1,0,.292h0a.562.562,0,0,0,.292-.112h0l.135-.112h0l-.135.157h0a.562.562,0,0,1-.315.135h-.247a.786.786,0,0,0,.135-.315.27.27,0,0,0-.135-.27h-.27a.4.4,0,0,1-.27,0Zm-.989.359v.135h0a.4.4,0,0,1,.135.2h0a.292.292,0,0,1,0,.27.315.315,0,0,1-.247.157h-.472l-.449-.135h.067a1.1,1.1,0,0,0,.382.135,1.505,1.505,0,0,0,.449,0h0a.237.237,0,0,0,.225-.359h0a.4.4,0,0,0,0-.157h0a.135.135,0,0,1,0-.157.2.2,0,0,1,0-.135Zm-1.483.225h.09a1.213,1.213,0,0,0,.562,0h0s.18-.112.18-.18h0v-.135c0-.135,0-.292.18-.337a.315.315,0,0,1,.337,0,.472.472,0,0,0,.292.112h0a.382.382,0,0,1-.315-.112.337.337,0,0,0-.27,0c-.112,0-.135.18-.157.292s0,0,0,.135a.382.382,0,0,1-.2.247h-.135a1.3,1.3,0,0,1-.584,0h0Zm2.494-.247h0a1.1,1.1,0,0,1,0,.27v.472h0a.652.652,0,0,0,.359,0h.135a.7.7,0,0,0,.292,0h0a.562.562,0,0,0,.27-.292h0a.989.989,0,0,1-.292.315h0a.607.607,0,0,1-.315,0h-.135a.562.562,0,0,1-.382,0c-.225-.135-.18-.337-.112-.539s0-.157,0-.247h0Z" transform="translate(4.911 2.821)" fill="#2966ff"/>
      <path id="Path_12" data-name="Path 12" d="M18.056,26.942h0a.247.247,0,0,1,0,.112h0Zm.4.741h-.135a.631.631,0,0,1-.539-.315h0a.674.674,0,0,1-.112-.359h0a.4.4,0,0,1-.315-.315h0a.415.415,0,0,0-.337.27h0a.584.584,0,0,1,.382-.315h.135a.4.4,0,0,0,.27.337h.135a.494.494,0,0,1,.157-.2h.135a.315.315,0,0,1,.315,0h0a.517.517,0,0,1,0,.539h0a.494.494,0,0,0,0-.472h0a.2.2,0,0,0-.225,0h-.112a.472.472,0,0,0-.157.292.944.944,0,0,0,0,.337h0a.764.764,0,0,0,.517.292h.135Zm-1.46-.4h0a.292.292,0,0,0,.157-.112H17a.292.292,0,0,1,.2,0h0a.2.2,0,0,1,0,.112h0a.359.359,0,0,1-.2.157h0Zm.9.2h-.449l-.427.135h0l.472-.135h.472Z" transform="translate(4.973 1.053)" fill="#2966ff"/>
      <path id="Path_13" data-name="Path 13" d="M16.491,28.4a.449.449,0,0,0-.18,0,.315.315,0,0,0-.2,0h0c-.112,0-.112.157-.135.247a.607.607,0,0,0,0,.2H15.75a.2.2,0,0,1,0,.135.719.719,0,0,0,.584.112h.112a.2.2,0,0,0,.2-.18.472.472,0,0,0,0-.18.4.4,0,0,0-.112-.157" transform="translate(3.415 3.213)" fill="#2966ff"/>
      <path id="Path_14" data-name="Path 14" d="M15,28.322h0a.36.36,0,0,1,.18.112h.135A.831.831,0,0,0,15,28.3h0" transform="translate(2.48 3.11)" fill="#2966ff"/>
      <path id="Path_15" data-name="Path 15" d="M28.411,33.234H22.435V29.842h5.976Zm-6.268-6.965h4v2.966h-4Zm-.359,5.572h0a.4.4,0,0,1-.247.225h-.112a.652.652,0,0,1-.629-.112.741.741,0,0,1-.315.225,1.753,1.753,0,0,1-.584,0h0a1.64,1.64,0,0,0,.562,0,.562.562,0,0,0,.359-.359.292.292,0,0,0,0-.135.382.382,0,0,0,0-.157h0v-.112h0a.359.359,0,0,0-.337,0h0a.292.292,0,0,0,0,.135h0a.652.652,0,0,0-.225,0,.315.315,0,0,0-.2,0H19.9a.135.135,0,0,0-.112,0H19.4a.337.337,0,0,0-.247,0,.4.4,0,0,0,0,.382,1.46,1.46,0,0,0,0,.449h0a1.618,1.618,0,0,1-.112-.472.449.449,0,0,1,.135-.427.337.337,0,0,1,.292,0,.7.7,0,0,1,.292,0h-.584a.674.674,0,0,1,.472.225h0a.652.652,0,0,1,.225,0h0a.14.14,0,0,1,.112-.135.449.449,0,0,1,.4,0h0a.494.494,0,0,1,0,.18h.247v-.157c0-.045,0-.27.18-.315a.472.472,0,0,1,.449.112,11909.217,11909.217,0,0,1,0,.4m-2.741.135a.874.874,0,0,0-.247-.2.7.7,0,0,1-.2-.157h0a.539.539,0,0,1,0,.18h0v-.157a.315.315,0,0,1,0-.135h.157l.2.135a.333.333,0,0,1,.27.247Zm-.135.449h-.112a.157.157,0,0,1-.135,0h0a1.213,1.213,0,0,1-.337.2h0a.584.584,0,0,0,.315-.2h.27Zm-1.438.539H16.8V30.134h3.8v.18H17.469Zm-.4.27h.382v-3.5h4.494v.18H16.93Zm-1.011-4.831v-.112h0Zm.966-.652h0a.4.4,0,0,1-.315.315h0a.741.741,0,0,1,0,.382h.472l.449.135h0L16.66,28.4h-.449a.921.921,0,0,1-.517.247h-.135a.831.831,0,0,0,.517-.27h0a.584.584,0,0,0,0-.337.337.337,0,0,0-.157-.292h-.247a.4.4,0,0,0,0,.472h0a.517.517,0,0,1,0-.539h0a.292.292,0,0,1,.292,0H16.1a.4.4,0,0,1,.157.18h.135a.4.4,0,0,0,.27-.337h.112a.479.479,0,0,1,.4.337h0a.629.629,0,0,0-.4-.292m.27.517h-.18a.292.292,0,0,0,.27.135h0a.359.359,0,0,1-.337-.157.247.247,0,0,1,0-.112h0a.4.4,0,0,1,.225,0Zm-.719,4.494h-.449a.562.562,0,0,1-.382,0c-.225-.135-.18-.337,0-.539s0-.18,0-.247h0a.607.607,0,0,1,0,.27c0,.18,0,.359,0,.449h0a.674.674,0,0,0,.359,0h.135a.7.7,0,0,0,.292,0h0a.741.741,0,0,0,.292-.292h0a.786.786,0,0,1-.292.315M14.593,31.28h-.27c-.09,0-.135.18-.157.315h0a.472.472,0,0,1-.225.247h-.2a.382.382,0,0,1-.225,0,.584.584,0,0,1,0-.2v-.157h0v.135a.449.449,0,0,0,0,.18h.359a.315.315,0,0,0,.18-.2h0a.157.157,0,0,0,0-.112c0-.135,0-.292.2-.359h.337a.382.382,0,0,0,.27,0h0a.449.449,0,0,1-.337-.112m0,1.168a.4.4,0,0,1-.225.157h0a1.011,1.011,0,0,1-.449,0A1.708,1.708,0,0,1,13.4,32.2h.045l.4.112h.472a.337.337,0,0,0,.2-.135.36.36,0,0,0,0-.225h0a.225.225,0,0,0,0-.157h0a.2.2,0,0,1,0-.225h0v.135h0a.225.225,0,0,1,.112.18h0a.315.315,0,0,1,0,.27m-1.842.562h-.359V30.471h3.28v.135h-3.1Zm3.482-1.3.135-.135h0a.382.382,0,0,1-.135.135h0a.539.539,0,0,1-.315.112h-.157a1.056,1.056,0,0,0,.135-.337.27.27,0,0,0-.135-.247.292.292,0,0,0-.27,0,.607.607,0,0,1-.27,0h0a.517.517,0,0,0,.247,0,.359.359,0,0,1,.337,0,.315.315,0,0,1,.157.337,1.258,1.258,0,0,1,0,.27h0a.4.4,0,0,0,.292,0h0m-3.864,1.573h-.18v-3.1h3.887v.18H12.234Zm4.269-6.74v.157h-1.8v2.112h-.225V26.4h1.775ZM14.458,26H16.93v.157H14.481v2.831h-.157Zm2.876,0h4.494v.157H17.379v2.831H17.2Zm.584.539v2.112H17.6V26.4h3.82v.157Zm.809,1.55s0,.112-.157.135h0l.135-.112c.135-.112,0-.135.18-.135h.135a.382.382,0,0,1,.157.382h0a.27.27,0,0,0-.247-.157h-.2l-.135.112m2.112,0h0a.359.359,0,0,1,0-.27h0a1.236,1.236,0,0,1-.9,0,.7.7,0,0,1-.225-.112.606.606,0,0,1-.18-.157h0a.293.293,0,0,0,.225.337h0c-.157-.112-.292-.247-.247-.427h.292l.18.157h.2a1.191,1.191,0,0,0,1.056-.135h0a.359.359,0,0,0-.157.157.225.225,0,0,0,0,.2m.854-.517a.18.18,0,0,1-.157-.157h0s0-.225-.18-.27H21.2a.741.741,0,0,0-.225.135l-.157.112h0a.831.831,0,0,1-.607,0,1.977,1.977,0,0,1-.584-.27.382.382,0,0,0-.225,0h0a.359.359,0,0,0-.18.135.144.144,0,0,1-.135.135h-.315a.18.18,0,0,0,0,.18.18.18,0,0,1,0,.18h0v.135h0a.359.359,0,0,1,0-.157.2.2,0,0,1,0-.135h0v-.359a.337.337,0,0,1,.2,0h.135V27.1a.359.359,0,0,1,.2-.157h0a.607.607,0,0,1,.27,0h0a1.73,1.73,0,0,0,.539.27.764.764,0,0,0,.584,0h.135a.921.921,0,0,1,.247-.157H21.4a.517.517,0,0,1,.225.337h.09m-.449.472h0a.27.27,0,0,1,.27-.247.359.359,0,0,1,.2,0h.135l-.449.741a.247.247,0,0,0-.157,0s-.157,0-.2.2m5.325,1.168V25.91H13.9v3.64H11.65v4.022H28.7V29.55Z" transform="translate(-1.697 0.13)" fill="#2966ff"/>
    </g>
    <path id="Path_16" data-name="Path 16" d="M16.6,28.477h2.943v-2.09H16.6Zm-.112,0V26.23h3.168v2.247H16.49Z" transform="translate(11.558 14.849)" fill="#2966ff"/>
    <path id="Path_17" data-name="Path 17" d="M16.8,30.3h4.741V27.942H16.8Zm0,0V27.83h4.853v2.629H16.69Z" transform="translate(11.807 16.844)" fill="#2966ff"/>
    <g id="Group_3" data-name="Group 3" transform="translate(7.22 14.32)" clip-path="url(#clip-path)">
      <path id="Path_18" data-name="Path 18" d="M14.547,34.771c0,.584,0,.741-.2.876a7.66,7.66,0,0,1-1.326.652l.112-.382a7.684,7.684,0,0,0,.854-.337c.4-.157.247-1.326.247-1.528s0-.247-.135-.292H11.469a11.054,11.054,0,0,0,0-1.865c0-.517,0-1.123,0-1.123.607-.292-.157-.292-.157-.292V29.76c0,.135.607,0,.719,0s.2.135,0,.2,0,.27-.18.629a12.715,12.715,0,0,0,0,2.629v.135h2.7a3.909,3.909,0,0,0,0,1.348m-2.382-1.977h0V30.861c0-.09,0-.854.359-1.011s0-.27-.135-.225a3.415,3.415,0,0,1-1.415,0l-.225,1.168s.719,0,.135.4a4,4,0,0,1,0,.786,11.638,11.638,0,0,1-.135,2.247h2.876c.135,0,.18,0,.18.315s.157.831-.315.989a2.494,2.494,0,0,1-.944.2l-.2,1.168a11.954,11.954,0,0,0,1.618-.652c.337-.225.809-.4.809-1.123a7.414,7.414,0,0,1,.18-2.247Z" transform="translate(-2.819 4.75)" fill="#2966ff"/>
      <path id="Path_19" data-name="Path 19" d="M237.6,29.674V27.652a4.877,4.877,0,0,0-.2-1.191,2.247,2.247,0,0,0-.494-.9,1.932,1.932,0,0,0-.809-.584,3.258,3.258,0,0,0-1.213-.2h-2.763v6.156a4.494,4.494,0,0,0,.27,1.438,2.628,2.628,0,0,0,.652.944,2.381,2.381,0,0,0,.921.539,4.336,4.336,0,0,0,1.1.157,1.55,1.55,0,0,0,.494,0,2.247,2.247,0,0,0,.607-.225,3.394,3.394,0,0,0,.584-.4,2.245,2.245,0,0,0,.427-.607,2.581,2.581,0,0,0,.247-.652,6.456,6.456,0,0,0,.112-.7V30.64Zm6.538-.629a19.563,19.563,0,0,1-.112,2.022,9.8,9.8,0,0,1-.382,1.865,8.336,8.336,0,0,1-1.932,3.3,5.167,5.167,0,0,1-1.258,1.011,8.267,8.267,0,0,1-1.573.719,9.123,9.123,0,0,1-1.752.449,12.4,12.4,0,0,1-1.8.157,16.132,16.132,0,0,1-3.864-.449,8.2,8.2,0,0,1-3.056-1.46,7.055,7.055,0,0,1-2.045-2.629,10,10,0,0,1-.741-4V20.26H237.38l1.078.135,1.258.337a4.943,4.943,0,0,1,1.258.584,5.617,5.617,0,0,1,1.483,1.326,6.876,6.876,0,0,1,1.011,1.73,10.245,10.245,0,0,1,.562,2.134,17.684,17.684,0,0,1,.18,2.516m-21.816,1.6h-6.381V24.776h-2.247V20.282h8.605Zm-11.391,0h-6.381V24.776h-2.247V20.282h8.56Zm-9.549,7.392h-17.3V33.516h8.987l-.18-8.74h-8.74V20.282h15.233l-.18,13.233h2.045Zm-20.221,0h-6.4V27.629a3.393,3.393,0,0,0-.225-1.348,2.247,2.247,0,0,0-.584-.876,1.91,1.91,0,0,0-.831-.472,2.988,2.988,0,0,0-1.011-.157h-6.426V20.282h9.234a10.178,10.178,0,0,1,2.786.337,4.494,4.494,0,0,1,3.168,3.123,10.717,10.717,0,0,1,.382,3.033Zm-24.04-7.392h-6.381V24.776h-2.247V20.282h8.583ZM136.41,33.561a5.011,5.011,0,0,0,1.056-.157,3.1,3.1,0,0,0,1.078-.562,3.167,3.167,0,0,0,.854-1.123,4.29,4.29,0,0,0,.337-1.842l-.135-9.639h6.179v8.987a11.953,11.953,0,0,1-.337,2.966,7.3,7.3,0,0,1-.966,2.247,6.448,6.448,0,0,1-1.438,1.663,8,8,0,0,1-1.842,1.1,10.672,10.672,0,0,1-2.247.607,12.806,12.806,0,0,1-2.247.18H121.581l-.517-17.727h6.246l.27,13.278h3.056L130.3,20.282h6.134Zm-18.716,4.494h-6.4V27.629a3.841,3.841,0,0,0-.225-1.348,2.247,2.247,0,0,0-.584-.876,2,2,0,0,0-.854-.472,2.943,2.943,0,0,0-.989-.157h-6.448V20.282h9.167a10.4,10.4,0,0,1,2.786.337,4.651,4.651,0,0,1,1.977,1.123,4.494,4.494,0,0,1,1.168,2,9.976,9.976,0,0,1,.382,3.033Zm-17.412,0h-7.5l-3.752-6.606-.7-1.573-1.6,8.178H80.623l3.235-12.065L80.42,20.282h7.549l4,6.943,2.247-6.943h6.066L95.968,31.089ZM78.758,20.282v.2l-6.246,17.57h-6.74l4.9-13.256H61.682l-.2-9.908h6.381v5.392Z" transform="translate(60.43 -13.609)" fill="#fff"/>
      <path id="Path_20" data-name="Path 20" d="M208.678,41.292h-4.831v-1.46h3.37l-.18-3.46a7.012,7.012,0,0,0-.2-1.528,2.359,2.359,0,0,0-.494-1.011,1.3,1.3,0,0,0-.337-.292l-.359-.157h-.607a1.528,1.528,0,0,0-.741.2,2.247,2.247,0,0,0-.652.629l-.27.449c0,.18-.157.359-.225.562a4.5,4.5,0,0,0-.225.584.7.7,0,0,1-.157.539l-1.483,5.01h-1.573l1.977-6.224-2.247-1.8.652-1.64h0l2.247,1.955a7.418,7.418,0,0,1,.629-.786,2.426,2.426,0,0,1,.719-.539,2.853,2.853,0,0,1,.719-.292,2.471,2.471,0,0,1,.7,0h.764a2.359,2.359,0,0,1,.539.135,3.01,3.01,0,0,1,.539.27,2.831,2.831,0,0,1,.741.719,3.236,3.236,0,0,1,.472.921,4.493,4.493,0,0,1,.27,1.123,11.234,11.234,0,0,1,0,1.281ZM197.692,36.3a5.594,5.594,0,0,1-.18,1.438A3.977,3.977,0,0,1,197,38.866a3.731,3.731,0,0,1-.7.854,4,4,0,0,1-.854.562l-.4.18-.4.18-.359.135h-.27l-3.954,1.415v-1.55l2.247-.764-1.932-8.021h1.73l1.6,7.594.472-.2.382-.18.292-.157a2.786,2.786,0,0,0,.494-.4,2.517,2.517,0,0,0,.427-.539,3.684,3.684,0,0,0,.315-.741,3.593,3.593,0,0,0,.112-.876V31.856h1.505Zm-9.684-1.011v6h-1.55V35.406a3.19,3.19,0,0,0-.157-1.011,1.73,1.73,0,0,0-.427-.607,1.056,1.056,0,0,0-.539-.292,1.505,1.505,0,0,0-.539,0H181.11V32.058h3.842a4.966,4.966,0,0,1,1.213.157,2.247,2.247,0,0,1,.944.539,2.471,2.471,0,0,1,.607,1.034,4.7,4.7,0,0,1,.225,1.6m-8.852,0V44.37h-1.483V35.406a3.192,3.192,0,0,0-.157-1.011,2.045,2.045,0,0,0-.4-.607,1.011,1.011,0,0,0-.517-.292,1.348,1.348,0,0,0-.494,0h-3.775V32.058h3.864a5.123,5.123,0,0,1,1.213.157,2.247,2.247,0,0,1,.921.539,2.472,2.472,0,0,1,.607,1.034,4.7,4.7,0,0,1,.225,1.6m-19.906,6h-1.573V35.743h1.573Zm5.684-9.324v9.324h-1.483V33.406h-5.774V31.968ZM153.969,37v-.944a4.492,4.492,0,0,0-.135-.831,3.887,3.887,0,0,0-.315-.7,1.865,1.865,0,0,0-.494-.539,1.955,1.955,0,0,0-.809-.4,4.651,4.651,0,0,0-1.033,0h-2.247v3.842a4.022,4.022,0,0,0,.225,1.393,2.359,2.359,0,0,0,.562.9,2.4,2.4,0,0,0,.831.494,3.347,3.347,0,0,0,.966.135h.472l.494-.112a2.113,2.113,0,0,0,.494-.27,1.685,1.685,0,0,0,.427-.382,2.719,2.719,0,0,0,.517-1.123,6.536,6.536,0,0,0,.135-1.348m1.528-.135v.944a1.658,1.658,0,0,1-.18.921,5.076,5.076,0,0,1-.337.876,4.36,4.36,0,0,1-.472.764,2.989,2.989,0,0,1-.607.584,2.246,2.246,0,0,1-.719.4,3.191,3.191,0,0,1-.786.247,3.3,3.3,0,0,1-.809,0,5.1,5.1,0,0,1-1.842-.315,3.505,3.505,0,0,1-1.3-.876,3.909,3.909,0,0,1-.786-1.371,5.976,5.976,0,0,1-.27-1.752V32.08H151.5a5.887,5.887,0,0,1,.921,0,3.415,3.415,0,0,1,.719.135,2.629,2.629,0,0,1,.629.247l.539.315a3.213,3.213,0,0,1,.7.764,4.921,4.921,0,0,1,.449.989,6.225,6.225,0,0,1,.225,1.123,10.577,10.577,0,0,1,0,1.191m-10.829,0h-1.46v-3.46h-1.82V31.945h3.1Zm-5.213,0h-1.483v-3.46h-1.8V31.945h3.28Zm-4.673,4.494h-8.268v-1.46h5.37V33.451h-5.28V32.013h6.74v7.751h1.258Zm-10.447-6v6h-1.483V35.406a3.19,3.19,0,0,0-.157-1.011,1.73,1.73,0,0,0-.427-.607,1.056,1.056,0,0,0-.539-.292,1.505,1.505,0,0,0-.539,0H117.5V32.058h3.8a4.966,4.966,0,0,1,1.213.157,2.247,2.247,0,0,1,.944.539,2.471,2.471,0,0,1,.607,1.034,4.7,4.7,0,0,1,.225,1.6m-19.906,6H102.81V35.743h1.573Zm5.684-9.414v9.324h-1.483V33.406h-5.729V31.968Zm-9.3,0v.112a.921.921,0,0,1,0,.157,2.949,2.949,0,0,0,0,.337l-.135.382a.441.441,0,0,1-.18.427l-3.19,7.886h-1.55a.517.517,0,0,1,0-.2,2.714,2.714,0,0,1,0-.315,2.493,2.493,0,0,1,.157-.359L96,40.034l2.674-6.74H93.082V28.8h1.505v2.966Zm-9.257,9.3H89.644l-3.8-5.28-1.415,5.347H82.9l1.887-6.561-2.067-2.764h1.955l3.438,4.494,1.752-4.494h1.573L89.06,37.742Zm-10.74,0H79.287V33.383h-1.8V31.945h3.37Zm-5.235,0H70.749v-1.46h3.37l-.18-3.46a8.985,8.985,0,0,0-.18-1.528,2.651,2.651,0,0,0-.494-1.011,1.865,1.865,0,0,0-.359-.292l-.359-.157h-.674a1.6,1.6,0,0,0-.741.2,2.247,2.247,0,0,0-.652.629,2.877,2.877,0,0,0-.247.449,4.244,4.244,0,0,0-.247.562,4.492,4.492,0,0,0-.2.584,2.173,2.173,0,0,1-.18.539l-1.46,5.01h-1.6l1.977-6.224-2.247-1.8.652-1.64h0l2.247,1.955a5.237,5.237,0,0,1,.607-.786A2.741,2.741,0,0,1,70.5,32.3a3.235,3.235,0,0,1,.719-.292,2.584,2.584,0,0,1,.7,0H72.7l.517.135a3.011,3.011,0,0,1,.539.27,2.247,2.247,0,0,1,.741.719,4,4,0,0,1,.494.921,8.223,8.223,0,0,1,.27,1.123v1.281ZM64.593,36.776H63.11V33.383H61.29V31.945h3.3Z" transform="translate(60.193 3.733)" fill="#fff"/>
    </g>
    <rect id="Rectangle_5" data-name="Rectangle 5" width="5.797" height="11.593" transform="translate(67.883 31.71)" fill="#9ee0fc"/>
    <rect id="Rectangle_6" data-name="Rectangle 6" width="28.961" height="17.39" transform="translate(79.476 43.281)" fill="#9ee0fc"/>
    <rect id="Rectangle_7" data-name="Rectangle 7" width="23.164" height="11.571" transform="translate(79.476 43.281)" fill="#fff"/>
    <rect id="Rectangle_8" data-name="Rectangle 8" width="5.797" height="11.593" transform="translate(73.68 31.71)" fill="#fff"/>
    <rect id="Rectangle_9" data-name="Rectangle 9" width="5.797" height="11.571" transform="translate(73.68 43.281)" fill="#9ee0fc"/>
    <rect id="Rectangle_10" data-name="Rectangle 10" width="28.961" height="17.39" transform="translate(73.68 14.32)" fill="#9ee0fc"/>
    <rect id="Rectangle_11" data-name="Rectangle 11" width="23.164" height="11.571" transform="translate(79.476 20.117)" fill="#fff"/>
    <rect id="Rectangle_12" data-name="Rectangle 12" width="5.797" height="11.571" transform="translate(102.64 20.117)" fill="#9ee0fc"/>
  </g>
</svg>
