<svg xmlns="http://www.w3.org/2000/svg" width="68.202" height="58.12" viewBox="0 0 68.202 58.12">
  <g id="cyber-security_3_" data-name="cyber-security (3)" transform="translate(0.4 0.4)">
    <path id="Path_1005" data-name="Path 1005" d="M211.5,184.377a4.521,4.521,0,1,0-5.669,4.387l.023,4.805a1.138,1.138,0,0,0,1.152,1.13h.006a1.131,1.131,0,0,0,1.147-1.135l-.023-4.8A4.54,4.54,0,0,0,211.5,184.377Zm-4.521,2.231a2.231,2.231,0,1,1,2.217-2.231A2.226,2.226,0,0,1,206.979,186.607Z" transform="translate(-173.3 -158.982)" fill="#fff"/>
    <path id="Path_1005_-_Outline" data-name="Path 1005 - Outline" d="M206.979,179.442a4.937,4.937,0,0,1,1.558,9.616l.021,4.5a1.513,1.513,0,0,1-.442,1.082,1.546,1.546,0,0,1-1.1.455h-.006a1.547,1.547,0,0,1-1.552-1.529l-.021-4.508a4.937,4.937,0,0,1,1.546-9.62Zm.033,14.857a.752.752,0,0,0,.538-.219.718.718,0,0,0,.209-.514l-.024-5.112.3-.079a4.121,4.121,0,1,0-2.1,0l.3.078.024,5.112a.737.737,0,0,0,.752.732Zm-.033-12.553a2.631,2.631,0,1,1-2.617,2.63A2.627,2.627,0,0,1,206.979,181.746Zm0,4.461a1.831,1.831,0,1,0-1.817-1.831A1.826,1.826,0,0,0,206.979,186.207Z" transform="translate(-173.3 -158.982)" fill="#fff"/>
    <path id="Path_1006" data-name="Path 1006" d="M63.077,59.052a4.276,4.276,0,0,0-4.167,3.168H51.154c.455-2.16.786-4.321,1.043-6.625h5.627a1.055,1.055,0,0,0,1.08-1.107v-11a4.317,4.317,0,1,0-5.444-4.165A4.418,4.418,0,0,0,56.6,43.481v9.81H52.435c.167-1.728.3-3.59.425-5.425a1.139,1.139,0,0,0-1.327-1.185,22.106,22.106,0,0,1-4.147.459c-4.636,0-8.9-2.1-12.954-6.362a1.15,1.15,0,0,0-1.7.032A17.046,17.046,0,0,1,15.869,46.68,1.159,1.159,0,0,0,14.5,47.866c.126,1.864.259,3.7.422,5.424H11.09v-9.81a4.432,4.432,0,0,0,3.154-4.161,4.323,4.323,0,0,0-8.647,0,4.287,4.287,0,0,0,3.188,4.165v11a1.094,1.094,0,0,0,1.128,1.107h5.24c.255,2.3.579,4.465,1.027,6.625H8.492a4.276,4.276,0,0,0-4.167-3.168,4.32,4.32,0,1,0,0,8.64,4.276,4.276,0,0,0,4.167-3.168H16.73a43.9,43.9,0,0,0,2.461,6.625H9.913a1.094,1.094,0,0,0-1.128,1.108V83.838A4.317,4.317,0,0,0,9.919,92.32,4.335,4.335,0,0,0,14.253,88a4.268,4.268,0,0,0-3.164-4.163V73.454h9.42A24.82,24.82,0,0,0,33.293,83.4a1.4,1.4,0,0,0,.814,0A25.715,25.715,0,0,0,46.8,73.454h9.8V83.838A4.414,4.414,0,0,0,53.463,88,4.32,4.32,0,1,0,58.9,83.838V72.257a1.055,1.055,0,0,0-1.08-1.108h-9.7A41.775,41.775,0,0,0,50.6,64.524h8.308a4.276,4.276,0,0,0,4.167,3.168,4.32,4.32,0,1,0,0-8.64ZM55.81,39.32a2.02,2.02,0,1,1,2.02,2.015A2.02,2.02,0,0,1,55.81,39.32Zm-47.924,0a2.02,2.02,0,1,1,2.02,2.015A2.02,2.02,0,0,1,7.886,39.32ZM4.325,65.387a2.015,2.015,0,1,1,2.02-2.015A2.02,2.02,0,0,1,4.325,65.387ZM11.933,88a2.02,2.02,0,1,1-2.02-2.015A2.02,2.02,0,0,1,11.933,88Zm47.911,0a2.02,2.02,0,1,1-2.02-2.015A2.02,2.02,0,0,1,59.845,88ZM16.9,49.18a18.811,18.811,0,0,0,16.753-5.925c4.529,4.391,10.435,6.979,16.809,5.916-1.077,14.807-3.3,26.525-16.77,31.894C20.208,75.823,17.983,64.062,16.9,49.18ZM63.077,65.387a2.015,2.015,0,1,1,2.02-2.015A2.02,2.02,0,0,1,63.077,65.387Z" transform="translate(0 -35)" fill="#fff"/>
    <path id="Path_1006_-_Outline" data-name="Path 1006 - Outline" d="M9.913,34.6a4.731,4.731,0,0,1,4.731,4.72,4.848,4.848,0,0,1-3.154,4.45v9.121h2.992c-.153-1.695-.278-3.466-.382-5a1.494,1.494,0,0,1,.409-1.13,1.579,1.579,0,0,1,1.147-.5,1.516,1.516,0,0,1,.29.028,19.018,19.018,0,0,0,3.638.361,16.506,16.506,0,0,0,12.842-6.1l.016-.019.018-.017a1.67,1.67,0,0,1,1.132-.5,1.7,1.7,0,0,1,1.1.456l.03.029c4,4.2,8.141,6.238,12.664,6.238a21.335,21.335,0,0,0,4.072-.452l.014,0a1.584,1.584,0,0,1,.242-.019,1.568,1.568,0,0,1,1.142.495,1.493,1.493,0,0,1,.4,1.131c-.111,1.638-.234,3.368-.384,5H56.2V43.77a4.842,4.842,0,0,1-3.139-4.45,4.729,4.729,0,0,1,9.459,0,4.646,4.646,0,0,1-.99,2.884A4.791,4.791,0,0,1,59.3,43.781V54.488a1.461,1.461,0,0,1-1.48,1.507h-5.27c-.241,2.083-.54,4-.909,5.825h6.968a4.627,4.627,0,0,1,1.582-2.2,4.72,4.72,0,1,1,0,7.512,4.628,4.628,0,0,1-1.582-2.2H50.907a40.9,40.9,0,0,1-2.162,5.825h9.079a1.461,1.461,0,0,1,1.48,1.508V83.541A4.716,4.716,0,1,1,53.063,88,4.838,4.838,0,0,1,56.2,83.548V73.854H47.014a25.2,25.2,0,0,1-5.33,5.765,28.3,28.3,0,0,1-7.434,4.158l-.03.01a1.809,1.809,0,0,1-1.042,0l-.025-.008a25.192,25.192,0,0,1-12.861-9.923h-8.8v9.688A4.648,4.648,0,0,1,14.653,88,4.726,4.726,0,0,1,5.2,88a4.685,4.685,0,0,1,3.185-4.459V72.257a1.5,1.5,0,0,1,1.528-1.508h8.663a43.573,43.573,0,0,1-2.151-5.825H8.788a4.628,4.628,0,0,1-1.582,2.2,4.72,4.72,0,1,1,0-7.512,4.628,4.628,0,0,1,1.582,2.2h6.9c-.362-1.819-.656-3.733-.9-5.825H9.913a1.5,1.5,0,0,1-1.528-1.507V43.781A4.686,4.686,0,0,1,5.2,39.32,4.723,4.723,0,0,1,9.913,34.6Zm5.446,19.091H10.69V43.181l.287-.084a4.03,4.03,0,0,0,2.867-3.777A3.923,3.923,0,0,0,6,39.32,3.867,3.867,0,0,0,8.889,43.1l.3.08v11.31a.694.694,0,0,0,.728.707h5.6l.039.356c.265,2.394.6,4.549,1.022,6.588l.1.481H8.186l-.08-.3a3.864,3.864,0,0,0-3.781-2.872,3.92,3.92,0,1,0,0,7.84A3.864,3.864,0,0,0,8.106,64.42l.08-.3h8.851l.079.3a44.061,44.061,0,0,0,2.44,6.565l.252.563H9.913a.694.694,0,0,0-.728.708V84.144l-.3.08A3.868,3.868,0,0,0,6,88a3.926,3.926,0,0,0,7.853,0,3.858,3.858,0,0,0-2.868-3.777l-.3-.08V73.054H20.728l.118.184a24.384,24.384,0,0,0,12.573,9.784,1,1,0,0,0,.561,0,25.445,25.445,0,0,0,12.485-9.791l.119-.18H57V84.137l-.288.084A4.017,4.017,0,0,0,53.863,88,3.92,3.92,0,1,0,58.8,84.224l-.3-.08V72.257a.657.657,0,0,0-.68-.708H47.5l.259-.566a40.941,40.941,0,0,0,2.453-6.562l.079-.3h8.921l.08.3a3.864,3.864,0,0,0,3.781,2.872,3.92,3.92,0,1,0,0-7.84A3.864,3.864,0,0,0,59.3,62.324l-.08.3H50.661l.1-.482c.432-2.051.771-4.205,1.037-6.587l.04-.356h5.985a.657.657,0,0,0,.68-.707V43.178l.3-.08a3.917,3.917,0,1,0-4.94-3.778A4.022,4.022,0,0,0,56.713,43.1l.287.084V53.691H51.995l.043-.439c.169-1.745.3-3.633.424-5.413a.7.7,0,0,0-.189-.531.77.77,0,0,0-.671-.233,22.07,22.07,0,0,1-4.215.465,15.458,15.458,0,0,1-6.87-1.625,22.941,22.941,0,0,1-6.358-4.846.916.916,0,0,0-.566-.253.892.892,0,0,0-.574.271,18.345,18.345,0,0,1-6.085,4.734,17.023,17.023,0,0,1-7.35,1.627,19.82,19.82,0,0,1-3.792-.376.768.768,0,0,0-.7.237.7.7,0,0,0-.2.53c.112,1.659.25,3.6.421,5.414ZM9.907,36.9a2.415,2.415,0,1,1-2.42,2.415A2.421,2.421,0,0,1,9.907,36.9Zm0,4.031a1.615,1.615,0,1,0-1.62-1.615A1.62,1.62,0,0,0,9.907,40.935ZM57.831,36.9a2.415,2.415,0,1,1-2.42,2.415A2.421,2.421,0,0,1,57.831,36.9Zm0,4.031a1.615,1.615,0,1,0-1.62-1.615A1.62,1.62,0,0,0,57.831,40.935Zm-24.2,1.74.3.293c4.076,3.952,8.8,6.041,13.671,6.041a17.031,17.031,0,0,0,2.793-.233l.5-.084-.037.507c-.575,7.9-1.435,14.258-3.769,19.617a22.957,22.957,0,0,1-4.967,7.367,24.427,24.427,0,0,1-8.286,5.253l-.146.058-.147-.057a24.061,24.061,0,0,1-8.293-5.188A22.745,22.745,0,0,1,20.279,68.9c-2.336-5.362-3.2-11.749-3.779-19.688l-.036-.488.486.063a20.971,20.971,0,0,0,2.671.172,17.877,17.877,0,0,0,13.73-5.964ZM47.6,49.809a18.381,18.381,0,0,1-7.676-1.716,23.291,23.291,0,0,1-6.251-4.264,17.752,17.752,0,0,1-6.235,4.378,19.965,19.965,0,0,1-7.819,1.548,21.734,21.734,0,0,1-2.287-.122c1.037,13.881,3.089,25.762,16.355,31,13.255-5.362,15.306-17.188,16.336-30.993A17.79,17.79,0,0,1,47.6,49.809ZM4.325,60.957a2.421,2.421,0,0,1,2.42,2.415,2.42,2.42,0,0,1-2.42,2.415,2.415,2.415,0,1,1,0-4.831Zm0,4.031A1.615,1.615,0,1,0,2.7,63.372,1.612,1.612,0,0,0,4.325,64.987Zm58.752-4.031a2.415,2.415,0,1,1-2.42,2.415A2.421,2.421,0,0,1,63.077,60.957Zm0,4.031a1.615,1.615,0,1,0-1.62-1.615A1.62,1.62,0,0,0,63.077,64.987ZM9.913,85.585A2.415,2.415,0,1,1,7.493,88,2.421,2.421,0,0,1,9.913,85.585Zm0,4.031A1.615,1.615,0,1,0,8.293,88,1.62,1.62,0,0,0,9.913,89.616Zm47.911-4.031A2.415,2.415,0,1,1,55.4,88,2.421,2.421,0,0,1,57.824,85.585Zm0,4.031A1.615,1.615,0,1,0,56.2,88,1.62,1.62,0,0,0,57.824,89.616Z" transform="translate(0 -35)" fill="#fff"/>
  </g>
</svg>
