<svg xmlns="http://www.w3.org/2000/svg" width="43.501" height="43.5" viewBox="0 0 43.501 43.5">
  <g id="Layer_16" data-name="Layer 16" transform="translate(0 -0.001)">
    <path id="Path_1046" data-name="Path 1046" d="M42.821,31.031a.68.68,0,0,0-.68.68.68.68,0,0,1-.68.68H31.946a.68.68,0,0,1-.68-.68V27.633a.68.68,0,0,1,.68-.68.68.68,0,0,0,0-1.359,2.026,2.026,0,0,0-1.359.53,2.026,2.026,0,0,0-1.359-.53H8.156a.68.68,0,0,1-.68-.68V20.836a.68.68,0,0,1,.68-.68H19.711a.68.68,0,1,0,0-1.359H14.274a.68.68,0,0,1-.68-.68V14.039a.68.68,0,0,1,.68-.68h1.359a.68.68,0,0,0,0-1.359H14.274a2.026,2.026,0,0,0-1.359.53A2.026,2.026,0,0,0,11.555,12H2.039A2.039,2.039,0,0,0,0,14.039v4.078a2.026,2.026,0,0,0,.53,1.359A2.026,2.026,0,0,0,0,20.836v4.078a2.026,2.026,0,0,0,.53,1.359A2.026,2.026,0,0,0,0,27.633v4.078A2.026,2.026,0,0,0,.53,33.07,2.026,2.026,0,0,0,0,34.43v4.078a2.026,2.026,0,0,0,.53,1.359A2.026,2.026,0,0,0,0,41.227V45.3a2.039,2.039,0,0,0,2.039,2.039h9.516a2.026,2.026,0,0,0,1.359-.53,2.026,2.026,0,0,0,1.359.53H29.227a2.026,2.026,0,0,0,1.359-.53,2.026,2.026,0,0,0,1.359.53h9.516A2.039,2.039,0,0,0,43.5,45.3V41.227a2.026,2.026,0,0,0-.53-1.359,2.026,2.026,0,0,0,.53-1.359V34.43a2.026,2.026,0,0,0-.53-1.359,2.026,2.026,0,0,0,.53-1.359A.68.68,0,0,0,42.821,31.031ZM41.461,33.75a.68.68,0,0,1,.68.68v4.078a.68.68,0,0,1-.68.68h-3.4a.68.68,0,0,1-.68-.68V34.43a.68.68,0,0,1,.68-.68Zm-6.117,0a.68.68,0,0,1,.68.68v4.078a.68.68,0,0,1-.68.68H25.828a.68.68,0,0,1-.68-.68V34.43a.68.68,0,0,1,.68-.68Zm-6.117-6.8a.68.68,0,0,1,.68.68v4.078a.68.68,0,0,1-.68.68H19.711a.68.68,0,1,0,0,1.359h3.4a.68.68,0,0,1,.68.68v4.078a.68.68,0,0,1-.68.68H8.156a.68.68,0,0,1-.68-.68V34.43a.68.68,0,0,1,.68-.68h8.836a.68.68,0,0,0,0-1.359H14.274a.68.68,0,0,1-.68-.68V27.633a.68.68,0,0,1,.68-.68ZM1.359,38.508V34.43a.68.68,0,0,1,.68-.68h3.4a.68.68,0,0,1,.68.68v4.078a.68.68,0,0,1-.68.68h-3.4A.68.68,0,0,1,1.359,38.508Zm10.2-11.555a.68.68,0,0,1,.68.68v4.078a.68.68,0,0,1-.68.68H2.039a.68.68,0,0,1-.68-.68V27.633a.68.68,0,0,1,.68-.68Zm-10.2-2.039V20.836a.68.68,0,0,1,.68-.68h3.4a.68.68,0,0,1,.68.68v4.078a.68.68,0,0,1-.68.68h-3.4A.68.68,0,0,1,1.359,24.914Zm0-10.875a.68.68,0,0,1,.68-.68h9.516a.68.68,0,0,1,.68.68v4.078a.68.68,0,0,1-.68.68H2.039a.68.68,0,0,1-.68-.68Zm10.2,31.946H2.039a.68.68,0,0,1-.68-.68V41.227a.68.68,0,0,1,.68-.68h9.516a.68.68,0,0,1,.68.68V45.3A.68.68,0,0,1,11.555,45.985Zm17.672,0H14.274a.68.68,0,0,1-.68-.68V41.227a.68.68,0,0,1,.68-.68H29.227a.68.68,0,0,1,.68.68V45.3A.68.68,0,0,1,29.227,45.985Zm12.914-.68a.68.68,0,0,1-.68.68H31.946a.68.68,0,0,1-.68-.68V41.227a.68.68,0,0,1,.68-.68h9.516a.68.68,0,0,1,.68.68Z" transform="translate(0 -3.843)" fill="#fff"/>
    <path id="Path_1047" data-name="Path 1047" d="M30.662,19.463a3.422,3.422,0,0,0,2.539,1.93,3.552,3.552,0,0,0,.608.053,3.415,3.415,0,0,0,2.426-1.016L38.867,17.8l1.992,1.991-.5.5a.68.68,0,0,0,0,.961l4.921,4.92a3.464,3.464,0,1,0,4.9-4.9l-4.92-4.92a.68.68,0,0,0-.961,0l-.5.5L41.8,14.867l2.631-2.632a3.466,3.466,0,0,0-.967-5.573L37.886,4.018A.68.68,0,1,0,37.3,5.246l5.578,2.642a2.107,2.107,0,0,1,.587,3.388l-2.631,2.631L39.35,12.42a2.122,2.122,0,0,0-2.929,0,2.072,2.072,0,0,0,0,2.93l1.487,1.487-2.631,2.63a2.107,2.107,0,0,1-3.388-.587L25.564,5.526a2.107,2.107,0,0,1,.414-2.388L27.14,1.976a2.1,2.1,0,0,1,2.386-.413l5.058,2.4a.68.68,0,1,0,.582-1.228L30.109.334a3.466,3.466,0,0,0-3.931.68L25.016,2.175a3.466,3.466,0,0,0-.68,3.931Zm18.556,2.775a2.107,2.107,0,1,1-2.975,2.975l-4.44-4.44L44.778,17.8ZM37.173,13.885a.712.712,0,0,1,1.215-.5l4.44,4.44-1.007,1.007-4.44-4.44A.706.706,0,0,1,37.173,13.885Z" transform="translate(-7.688 0)" fill="#fff"/>
  </g>
</svg>
