<svg xmlns="http://www.w3.org/2000/svg" width="304.55" height="48.014" xmlns:v="https://vecta.io/nano"><defs><clipPath id="A"><path fill="none" d="M0 0h304.55v48.014H0z"/></clipPath></defs><path fill="#fff" d="M48.8 0h.539v46.194H48.8z"/><g clip-path="url(#A)"><path d="M37.027 0v34.08s.18 8.133-9.931 9.257c-.607 0-6.965 0-8.583 2.247-1.618-2.427-7.954-2.247-8.583-2.247C-.18 42.217 0 34.08 0 34.08V0z" fill="#fff"/><g fill="#2966ff"><path d="M6.988 38.105c0 .2 0 .247-.27 0a2.47 2.47 0 0 1-.9-.921c.297.24.621.443.966.607.2 0 .247 0 .2.2m.292-.449s-1.8-.449-1.955-1.393a2.25 2.25 0 0 1 .27-1.281s.517-.112.562-.315a.47.47 0 0 0-.27-.584.4.4 0 0 0-.584.157c-.052.05-.081.119-.081.191s.029.141.081.191c0 0 .315.427-.247.831-.196-.551-.317-1.125-.359-1.708a13.73 13.73 0 0 1 1.1-2.4c.247-.427.831-1.258.831-1.258-.078 1.259-.52 2.468-1.274 3.48 1.216-.91 1.926-2.345 1.91-3.864a11.01 11.01 0 0 0-.2-1.371 22.96 22.96 0 0 0-1.663 2.516 12.08 12.08 0 0 0-.786 1.91v-1.685a5.73 5.73 0 0 1 .741-1.056s.315 0 .427-.18.135-.539-.135-.652-.607.2-.607.2a.81.81 0 0 0 0 .539l-.472.4v-1.497a15.68 15.68 0 0 1 1.1-2.247c.247-.427.831-1.281.831-1.281a6.51 6.51 0 0 1-1.281 3.5 4.72 4.72 0 0 0 1.82-3.932c0-.359-.112-1.3-.112-1.3-.61.706-1.166 1.458-1.663 2.247-.299.597-.54 1.222-.719 1.865v-1.528a5.4 5.4 0 0 1 .741-1.034s.315 0 .427-.2.135-.539-.135-.652-.607.2-.607.2a.81.81 0 0 0 0 .539l-.472.4v-1.537a15.68 15.68 0 0 1 1.1-2.247c.247-.427.831-1.258.831-1.258-.079 1.259-.522 2.467-1.276 3.478 1.216-.91 1.926-2.345 1.91-3.864a11.15 11.15 0 0 0-.2-1.348 17.21 17.21 0 0 0-1.6 2.247 14.75 14.75 0 0 0-.786 1.955v-1.529a5.73 5.73 0 0 1 .741-1.056s.315 0 .427-.18.135-.562-.135-.674-.607.2-.607.2a.81.81 0 0 0 0 .539l-.472.427V19.12a10.21 10.21 0 0 1 .989-2.247l.629-1.034a5.39 5.39 0 0 1-1.034 3.123 3.64 3.64 0 0 0 1.708-3.325v-1.618a14.67 14.67 0 0 0-1.618 2.045 11.25 11.25 0 0 0-.652 1.977v-1.505c.134-.326.291-.642.472-.944 0 0 .337.112.449 0a.45.45 0 0 0 0-.629c-.225-.2-.562.112-.562.112a.54.54 0 0 0 0 .472l-.292.337v-1.078c.161-.79.449-1.549.854-2.247l.764-1.236c.011 1.075-.328 2.123-.966 2.988a4.83 4.83 0 0 0 1.932-3.8c0-.382-.112-1.483-.112-1.483a16.22 16.22 0 0 0-1.8 2.247 5.73 5.73 0 0 0-.584 2.247v-1.663a7.66 7.66 0 0 1 .359-.831c.136.041.284-.014.359-.135a.4.4 0 0 0-.2-.562c-.27-.157-.382 0-.382 0a.74.74 0 0 0 0 .539l-.225.18V9.841a10.94 10.94 0 0 1 .989-2.247c.27-.427.921-1.258.921-1.258.025 1.06-.325 2.094-.989 2.921a3.19 3.19 0 0 0 1.64-3.056c.064-.425.064-.856 0-1.281A11.8 11.8 0 0 0 5.19 7.01a12.83 12.83 0 0 0-.764 2.247v-6.74a6.36 6.36 0 0 1 .584 3.775 10.96 10.96 0 0 0 .427-1.91 3.42 3.42 0 0 0-.587-1.929 10.65 10.65 0 0 1-.472-1.236 3.55 3.55 0 0 1-.472 1.258 4.02 4.02 0 0 0-.491 1.978 8.97 8.97 0 0 0 .584 2.651v2.359a5.82 5.82 0 0 1-1.371-1.371 5.5 5.5 0 0 1-.607-1.91l.719.786a12.04 12.04 0 0 1 .921 1.371c.135-1.483-2.247-3.393-2.247-3.393a7.73 7.73 0 0 0 .607 3.73 5.08 5.08 0 0 0 1.955 1.415v.944l-.337-.2a.65.65 0 0 0 0-.539s-.337-.292-.607-.135-.18.472 0 .674a.48.48 0 0 0 .449.135c.224.198.42.424.584.674v2.561a4.74 4.74 0 0 1-1.215-1.444c-.314-.557-.549-1.154-.7-1.775l.809.719a9.93 9.93 0 0 1 .764 1.236c.135-1.483-2.247-3.595-2.247-3.595a8.4 8.4 0 0 0 .607 3.73 4.61 4.61 0 0 0 1.955 1.6v.921l-.517-.359a.72.72 0 0 0 0-.539s-.337-.27-.607-.135-.2.472 0 .674c.105.122.271.174.427.135a6 6 0 0 1 .764.944v2.556a5.01 5.01 0 0 1-1.281-1.46 7.28 7.28 0 0 1-.7-1.775l.809.7a9.8 9.8 0 0 1 .764 1.258c.135-1.483-2.247-3.617-2.247-3.617a8.54 8.54 0 0 0 .607 3.752 4.63 4.63 0 0 0 1.977 1.6v.989l-.517-.382a.72.72 0 0 0 0-.539s-.337-.247-.607-.112-.2.449 0 .652c.105.122.271.174.427.135.28.293.536.609.764.944v2.561a5.01 5.01 0 0 1-1.281-1.438 7.28 7.28 0 0 1-.685-1.788l.809.7a9.93 9.93 0 0 1 .764 1.236c.135-1.483-2.247-3.595-2.247-3.595a8.4 8.4 0 0 0 .607 3.73c.493.706 1.169 1.265 1.955 1.618v1.236l-.517-.359a.72.72 0 0 0 0-.539s-.337-.27-.607-.135-.2.472 0 .674c.105.122.271.174.427.135a6 6 0 0 1 .764.944v2.561a5.01 5.01 0 0 1-1.281-1.46 7.28 7.28 0 0 1-.7-1.775l.809.7a9.8 9.8 0 0 1 .764 1.258c.135-1.483-2.247-3.617-2.247-3.617a8.54 8.54 0 0 0 .607 3.752A4.5 4.5 0 0 0 4 28.983v1.236l-.517-.359a.72.72 0 0 0 0-.539s-.337-.27-.607-.135-.2.472 0 .674c.105.122.271.174.427.135.28.293.536.609.764.944v2.539a5.01 5.01 0 0 1-1.281-1.438 7.28 7.28 0 0 1-.7-1.775l.809.7a9.8 9.8 0 0 1 .764 1.258c.135-1.483-2.247-3.595-2.247-3.595a8.45 8.45 0 0 0 .61 3.725c.512.716 1.212 1.276 2.022 1.618a8.76 8.76 0 0 0 .2 1.55c-.449-.292-.247-.652-.247-.652a.54.54 0 0 0-.135-.472c-.2-.18-.4-.315-.674-.18s-.135.382 0 .584c.107.14.244.255.4.337.361.372.754.712 1.175 1.015.503 1.417 1.643 2.516 3.078 2.966zm23.123.608c-.2.135-.225 0-.27-.112s0-.157.2-.2a4.5 4.5 0 0 0 .989-.607c-.209.391-.53.712-.921.921m3.37-7.572a11.29 11.29 0 0 0-.786 1.932v-1.708a5.4 5.4 0 0 1 .741-1.034s.315 0 .427-.2.157-.539-.135-.652-.584.18-.584.18a.79.79 0 0 0 0 .562l-.472.4v-1.571a15.73 15.73 0 0 1 1.1-2.247l.854-1.281a6.56 6.56 0 0 1-1.258 3.527 4.74 4.74 0 0 0 1.8-3.977c0-.359-.112-1.3-.112-1.3-.605.71-1.161 1.461-1.663 2.247-.303.603-.544 1.235-.719 1.887v-1.55a5.73 5.73 0 0 1 .741-1.056s.315 0 .427-.18.157-.562-.135-.674-.584.2-.584.2a.74.74 0 0 0 0 .539l-.472.427v-1.572a15.48 15.48 0 0 1 1.1-2.247l.854-1.281a6.56 6.56 0 0 1-1.3 3.527c1.28-.916 2.028-2.403 2-3.977a9.92 9.92 0 0 0-.225-1.371 20.85 20.85 0 0 0-1.6 2.247 12.19 12.19 0 0 0-.786 1.955v-1.553a5.73 5.73 0 0 1 .741-1.056s.315 0 .427-.18.157-.562-.135-.652c-.212-.034-.428.033-.584.18a.79.79 0 0 0 0 .562l-.472.4v-1.317a12.09 12.09 0 0 1 .989-2.247l.652-1.034c-.015 1.132-.384 2.231-1.054 3.144 1.147-.714 1.811-1.999 1.73-3.348v-1.615a13.07 13.07 0 0 0-1.64 2.045c-.281.644-.499 1.314-.652 2v-1.529c.134-.326.291-.642.472-.944 0 0 .337.112.449 0 .169-.175.169-.454 0-.629a.54.54 0 0 0-.562 0 .58.58 0 0 0-.135.449l-.292.337v-1.1a7.37 7.37 0 0 1 .876-2.247l.764-1.236a4.9 4.9 0 0 1-.989 3.011 4.81 4.81 0 0 0 1.889-3.594c0-.382-.112-1.505-.112-1.505a16 16 0 0 0-1.8 2.247 6.05 6.05 0 0 0-.584 2.247v-1.685a6.5 6.5 0 0 1 .382-.831c.137.051.29-.007.359-.135.097-.211.008-.46-.2-.562-.292-.157-.4 0-.4 0-.035.195.005.395.112.562l-.225.18v-1.1a10.85 10.85 0 0 1 .989-2.247c.27-.427.944-1.281.944-1.281.024 1.07-.334 2.114-1.011 2.943a3.19 3.19 0 0 0 1.55-3.145c.027-.43-.011-.862-.112-1.281a12.11 12.11 0 0 0-1.91 2.112 15.93 15.93 0 0 0-.786 2.247v-6.74a6.27 6.27 0 0 1 .562 3.82 10.96 10.96 0 0 0 .427-1.91 3.44 3.44 0 0 0-.584-1.955 10.72 10.72 0 0 1-.472-1.258 3.73 3.73 0 0 1-.477 1.277 4.5 4.5 0 0 0-.517 2 9.84 9.84 0 0 0 .764 2.651 21.32 21.32 0 0 1 0 2.359 5.64 5.64 0 0 1-1.393-1.371 5.5 5.5 0 0 1-.607-1.91l.719.786a12.87 12.87 0 0 1 .944 1.371c.135-1.483-2.247-3.415-2.247-3.415a7.93 7.93 0 0 0 .607 3.775 5.08 5.08 0 0 0 1.977 1.415v.944l-.18-.27a.83.83 0 0 0 0-.562s-.337-.27-.607-.135-.2.494 0 .7c.105.122.271.174.427.135a2.56 2.56 0 0 1 .584.7v2.561a4.74 4.74 0 0 1-1.281-1.46 6.74 6.74 0 0 1-.719-1.8l.809.719a8.27 8.27 0 0 1 .786 1.258c.135-1.483-2.247-3.64-2.247-3.64a8.61 8.61 0 0 0 .607 3.775 4.9 4.9 0 0 0 1.979 1.614v.921l-.517-.292a.79.79 0 0 0 0-.562s-.359-.247-.607-.135-.225.494 0 .7c.105.122.271.174.427.135a5.05 5.05 0 0 1 .741.944v2.584c-.513-.404-.947-.899-1.281-1.46a7.12 7.12 0 0 1-.719-1.8l.809.7a8.27 8.27 0 0 1 .786 1.258c.135-1.483-2.247-3.617-2.247-3.617a8.54 8.54 0 0 0 .607 3.752 4.7 4.7 0 0 0 2 1.618v.989l-.517-.359a.79.79 0 0 0 0-.562s-.359-.247-.607-.112a.41.41 0 0 0 0 .674c.105.122.271.174.427.135a5.05 5.05 0 0 1 .741.944v2.584c-.513-.404-.947-.899-1.281-1.46a6.74 6.74 0 0 1-.719-1.8l.809.719a8.36 8.36 0 0 1 .786 1.236c.135-1.483-2.247-3.617-2.247-3.617a8.65 8.65 0 0 0 .607 3.775 4.9 4.9 0 0 0 1.979 1.608v1.258l-.517-.382a.72.72 0 0 0 0-.539s-.359-.27-.607-.135a.41.41 0 0 0 0 .674c.105.122.271.174.427.135a5.39 5.39 0 0 1 .741.966v2.561a5.01 5.01 0 0 1-1.281-1.438 7.12 7.12 0 0 1-.719-1.8l.809.7a8.27 8.27 0 0 1 .784 1.262c.135-1.505-2.247-3.64-2.247-3.64a8.61 8.61 0 0 0 .607 3.775 4.76 4.76 0 0 0 1.977 1.6v1.236l-.517-.359a.72.72 0 0 0 0-.539s-.359-.27-.607-.135a.41.41 0 0 0 0 .674c.105.122.271.174.427.135.278.289.526.605.741.944v2.584a5.01 5.01 0 0 1-1.281-1.467 6.74 6.74 0 0 1-.719-1.8l.809.719a8.27 8.27 0 0 1 .786 1.258c.135-1.505-2.247-3.64-2.247-3.64a8.61 8.61 0 0 0 .607 3.775c.501.705 1.174 1.27 1.955 1.64-.025.517-.139 1.027-.337 1.505-.562-.4-.225-.831-.225-.831v-.382a.4.4 0 0 0-.584-.157.47.47 0 0 0-.27.584c0 .2.562.315.562.315.219.396.313.849.27 1.3-.157.944-1.955 1.393-1.955 1.393l-.427 1.483c1.434-.464 2.572-1.568 3.078-2.988a10.65 10.65 0 0 0 1.197-1.006s.337-.157.4-.359.2-.472 0-.607-.472 0-.674.2a.54.54 0 0 0-.135.472s.135.292-.494.629a17.32 17.32 0 0 0 .27-1.752 14.27 14.27 0 0 1 1.1-2.449l.854-1.258a6.56 6.56 0 0 1-1.3 3.527 4.83 4.83 0 0 0 1.932-3.909 9.92 9.92 0 0 0-.225-1.371 27.41 27.41 0 0 0-1.6 2.382M20.872 38.33v2.471h-.315v-2.247h-1.73c-.083.006-.166-.021-.229-.076s-.102-.132-.108-.216v-.337a.65.65 0 0 0 .449.225h1.618a.2.2 0 0 1 .225.225m0-.741h-2.246a1.01 1.01 0 0 1-.584-.292l-.36 1.259a.4.4 0 0 0 .427.359h1.823v2.629l1.1-.449v-3.215s0-.337-.27-.337m8.199.764a4.33 4.33 0 0 0-.157.966h-.27v-.831c-.189.067-.395.067-.584 0l.2-.517h.652c.135 0 .2 0 .112.247m.247-.966h-.876a3.5 3.5 0 0 1-.472-.157l-.562 1.528c.135.135.831 0 .831 0l-.135 1.1 1.123-.292c-.001-.608.113-1.21.337-1.775 0-.337 0-.517-.247-.517m-12.309 3.888l-.2-.157-2.831-1.955v1.775h.764l-.247.382h-.9a9.93 9.93 0 0 0 0-1.191c0-.359-.112-1.258-.112-1.258a1.19 1.19 0 0 0 .157-.225s.135-.112.225 0a11.21 11.21 0 0 0 3.257 2.244zm-.427-3.1a.92.92 0 0 0 .315 0h.27c.157 0 .135.2.135.337v.247a1.01 1.01 0 0 1 0 .517 1.75 1.75 0 0 1-.315.247 3.64 3.64 0 0 0 0-.741H16.2a2.36 2.36 0 0 0 .18-.539m.4 2.112c-.135 0 0-.292 0-.292a2.44 2.44 0 0 0 .427-.315c.124-.106.191-.264.18-.427V37.88c0-.18 0-.247-.157-.27a5.88 5.88 0 0 0-.9 0c-.127.017-.255.017-.382 0a7.05 7.05 0 0 1-.449 1.258 1.82 1.82 0 0 0 .472.112c.18 0 0 0 .135.135a1.82 1.82 0 0 1 0 .607 18.47 18.47 0 0 1-2.471-1.91h-.315a8.43 8.43 0 0 0-.539.809l.247 1.348a11.91 11.91 0 0 1-.225 1.663h1.73l.449-1.1h-.944v-.944l2.606 1.932c.157.09.2 0 .2 0l.517-1.056c-.18 0-.517-.315-.652-.382"/><path d="M26.599 39.498a1.44 1.44 0 0 1 0 .427l-.629.607a.54.54 0 0 1-.225.135l-3.056.4v-1.973c0-.045.359-.427.157-.494a1.57 1.57 0 0 1-.4-.112l.247-.517h.427c.112 0 .247 0 .2.157l-.292.921c-.08.483-.08.977 0 1.46h.809l.854-2.022h-.472l.2-.4h.607c0 .112-.741 2.4-.741 2.4l1.438-.225a1.44 1.44 0 0 0 .539-.562c.069-.356.114-.716.135-1.078h-.337l.157-.539h.449l-.112 1.371m-.607-1.91l-.359 1.168h.382a2.72 2.72 0 0 1 0 .719.74.74 0 0 1-.337.427c-.311.078-.626.138-.944.18 0 0 .7-2.427.7-2.561h-1.168l-.427 1.1.4.112a15.73 15.73 0 0 1-.674 1.46 1.46 1.46 0 0 1-.18-1.326c.059-.406.18-.799.359-1.168.09-.18-.135-.18-.247-.18a1.93 1.93 0 0 1-1.123-.2l-.494 1.123a.63.63 0 0 0 .449.292c.337 0 0 .337 0 .382-.092.097-.14.226-.135.359v2l3.662-.517c.157 0 .157 0 .27-.157s.629-.741.7-.809 0 0 0-.247.135-2.247.135-2.247z"/></g></g><g fill="#2966ff"><path d="M19.457 22.131l.022.022h.022l-.045-.022z"/><path d="M19.457 22.131z"/></g><g clip-path="url(#A)" fill="#2966ff"><path d="M28.511 5.752c-.135.449-.494.9-.315 1.393s.292.607.112.854c-.08.081-.189.127-.303.127s-.223-.046-.303-.127c-.034-.047-.034-.11 0-.157.112-.2.4-.359.27-.629s0-.607-.157-.854-.472-.4-.562-.719.629-.427.989-.359.382.157.292.382m-.135 2.651c-.157 0-.382.112-.449 0s.225 0 .359 0h.135m0 1.056h-.157c-.203-.051-.399-.127-.584-.225-.18-.112-.157-.2 0-.2s.359-.157.584-.18h0c.135 0 .157-.18.225-.292s.135 0 .135 0a1.37 1.37 0 0 1 0 .854m0 .607c-.27 0-.494-.157-.764-.18s-.18 0-.157-.135h.628c.225 0 .225 0 .292.2s0 .18 0 .18m0 .809c0 .18-.247.292-.292.539s-.112.112-.18 0-.4 0-.539-.225 0-.112 0-.112h.584c.157 0 0-.315.225-.4h.225v.225m-.292 1.483c0 .157-.315.225-.584.157s-.247-.18-.157-.27.292-.18.2-.315 0-.135 0-.157-.157 0-.2 0h0a.74.74 0 0 1 .786.27.43.43 0 0 1 0 .427m-.607.876a.4.4 0 0 1-.562.135s-.18 0-.18-.157v-.135a2.85 2.85 0 0 1 .449 0v-.112s-.359-.225-.225-.292a.45.45 0 0 1 .494.629m-.382 1.056h0s0 .27-.135.359 0 0-.112-.157c-.049-.082-.131-.139-.225-.157-.112 0-.135-.18-.225-.247s.517-.112.764 0 0 .18 0 .225m-.652.921s-.112.315-.247.247-.27-.27-.427-.427h0s.27.112.359 0 0-.247 0-.337.112 0 .18 0h0a.46.46 0 0 1 .337.382c0 .157-.18.18-.27.27m-1.281 1.168h0c0 .18-.135.315-.157.494s-.2 0-.247 0a4.11 4.11 0 0 1-.584-.809h.18c.225.225.517 0 .719.157.077.039.128.114.135.2m-.876.7c0 .135-.157.315-.315.247-.232-.2-.429-.436-.584-.7h0a.2.2 0 0 0 .2.2c.2 0 0-.157.135-.2s.112 0 .2 0c.087.026.16.086.203.166s.05.174.022.261m-.809.292c0 .359-.472.449-.786.517-.741.247-1.483.4-2.247.607a3.84 3.84 0 0 1-1.236.112h.225a1.26 1.26 0 0 1-.472-.135h0a6.14 6.14 0 0 1 1.123-.135c.503-.099.998-.233 1.483-.4a5.8 5.8 0 0 0 .719-.4h.2a2.09 2.09 0 0 1 .786-.359c.18 0 .315.157.292.247m-3.315 2.368c0 .112 0 .27-.2.27s0 .382-.2.449a2.09 2.09 0 0 1-.921.112v-.112a.27.27 0 0 0 .135-.4h-.2c-.022 0 0 .382-.112.517s-.18 0-.292 0-.157-.112 0-.157.157 0 .225 0 0 0 0-.157h0c0-.135-.112-.27-.247-.225s-.135.112-.225.157c-.011-.145-.125-.259-.27-.27h-.18c-.022 0 0-.18 0-.292a16.25 16.25 0 0 0 1.82 0v-.112c0-.112.135-.135.225-.135s0-.112.135-.157a.2.2 0 0 1 .225 0c.077.164.077.353 0 .517m.112 1.887c.225 0 .517.292.359.539s-.18 0-.292 0c-.172-.011-.345-.011-.517 0h-.112c-.18-.157-.337-.4-.517-.292-.128.054-.272.054-.4 0h0s.112-.225.247-.247c.28-.062.573-.005.809.157h.472M18.3 20.943s.157 0 0 .135-.157 0-.225 0 0 0 .135-.135m2.247 3.056c-.225 0-.539.112-.7 0s0-.18 0-.27-.18-.112-.2 0a2.43 2.43 0 0 0 0 .4c0 .09-.4 0-.449 0s.337 0 .27-.27a.4.4 0 0 0-.382-.18c.047.169.047.348 0 .517 0 .112-.247 0-.359 0v-.876s.247 0 .2-.18-.2-.4-.382-.27 0 .472-.2.629c-.095.089-.242.089-.337 0h.27c.09 0 0-.315 0-.449s-.18-.135-.247 0-.135 0 0 .135a.4.4 0 0 1 0-.539c.247-.18.607 0 .921 0a10.76 10.76 0 0 0 1.483 0 2.09 2.09 0 0 0 .135 1.056m.225.382c.112 0 .157 0 .2.2.279.551.498 1.131.652 1.73a2.7 2.7 0 0 1-.854 0s-.112 0-.112-.157-.2-.854-.337-1.415c.009-.139.074-.268.18-.359a.38.38 0 0 1 .27 0m-.764 1.82a2.56 2.56 0 0 0-.382-.337h0a8.54 8.54 0 0 1 0-1.056c.019-.087.077-.161.157-.2.135 0 .315 0 .337.135a6.94 6.94 0 0 0 .2 1.393h-.299m-.674-.27c-.225 0-.247-.225-.359-.359h0a1.21 1.21 0 0 1 0-.7.2.2 0 0 1 .337 0c.2.359 0 .764 0 1.146m-.741-.472h-.315c-.157 0 0-.315 0-.517h.337a.47.47 0 0 1 0 .427v.135m-1.191-6.448a8.98 8.98 0 0 1-2.449-.584c-.225-.112-.427-.292-.652-.427h.107a1.65 1.65 0 0 1 .337-.584h0a3.4 3.4 0 0 0 .292.562.63.63 0 0 0 .225.2 6 6 0 0 0 1.752.607h1.46c.09 0 0 0 0 .112H17.39m-3.954-1.415h-.2c-.067 0-.4-.18-.4-.382.035.02.077.02.112 0 0-.2 0-.4.292-.4s.741-.382.719 0-.539.472-.517.876m-.989-.652c-.192.01-.367-.11-.427-.292v-.359c0-.045 0 0 .112 0a1.44 1.44 0 0 1 0-.157h.27c.045 0 0 .2 0 .247a3.76 3.76 0 0 0 .584-.382c.029.021.045.055.045.09s-.017.069-.045.09c-.247.315-.359.786-.809.809m-.63-1.124c-.112 0-.112.27-.247.315s-.157 0-.225-.157 0 0 0-.112-.2 0-.27-.135 0-.112 0-.157.247 0 .292 0 0-.112 0-.135.2 0 .247 0 .18.135.27.225a.18.18 0 0 1 0 .157h-.18m-1.281-.7c0-.112.135-.18.247-.225l.449-.247c.033.102.033.213 0 .315 0 .112-.18.157-.292.247s-.247 0-.315 0m-.247-.472a.36.36 0 0 1-.2-.135v-.157h.315l.2-.135a1.01 1.01 0 0 1 .27-.135h0s-.382.562-.7.472m-.719-1.213v-.112c0-.112.584-.247.876-.427s.157 0 .2 0a.18.18 0 0 1 0 .18c-.247.27-.674.562-1.034.337m-.27-1.258h.135c.135 0 .2-.157.225-.315s0-.2-.18-.27h0a.38.38 0 0 1 .27 0v.141c0 .135.112.157.157.225a.47.47 0 0 1-.337.652h0c-.157 0-.382 0-.337-.27m0-1.8s-.382 0-.292-.157a3.5 3.5 0 0 1 .427-.315c.18-.112 0-.4.225-.562s0 0 .135 0c.056.274.056.557 0 .831a.56.56 0 0 1-.472.18h0zm-.584-1.8c.359-.225.27-.719.4-1.078h0l.135-.225c.135-.225 0-.427-.112-.607s-.247-.157-.337-.27 0-.2.135-.225a1.19 1.19 0 0 0 .517-.359s.135 0 .112.18h0a1.46 1.46 0 0 0 0 .7c.091.701.091 1.411 0 2.112-.247 0-.719.18-.719-.2m9.054 7.235c-.786-.06-1.551-.282-2.247-.652 0 0-.18-.135-.157-.225s.157 0 .225 0a4.63 4.63 0 0 0 2 .786h.27m-3.05-1.079a.18.18 0 0 1 .157-.2h0c.18-.157.337-.494.607-.472a6.09 6.09 0 0 1-.382.876c-.112.135-.247 0-.292-.2m-.112-.652h0a.52.52 0 0 1-.247.315c-.123-.014-.212-.124-.2-.247v-.12c.157-.135.315-.494.517-.292s0 .157 0 .247m-1.011-.4h0s0-.315.225-.292h0c.135 0 .292-.135.382 0s-.292.584-.449.517m4.246 0h.157c.539-.157 1.078.18 1.573 0a1.93 1.93 0 0 1 0 .876.45.45 0 0 1-.674.247c-.292-.225-.315-.674-.674-.9-.097-.015-.195-.015-.292 0 0 0-.157 0 0 0m0-7.774c-.03-.04-.03-.095 0-.135h.674c.2 0 .135-.135.247-.135s0-.112 0-.18a1.71 1.71 0 0 0 0-.337.72.72 0 0 1 .674.876.95.95 0 0 1-.247.359.99.99 0 0 0-.247.562c0 .472.247.9.18 1.348a.65.65 0 0 1-.2.449.27.27 0 0 1-.292 0c-.18 0-.472 0-.584-.225.286.006.542-.177.629-.449a1.34 1.34 0 0 0 0-.831 2.25 2.25 0 0 0-.135-.989c-.135-.247-.517-.18-.786-.292m.854 5.3h0v-.56c0-.157.18 0 .27 0 .019.051.019.106 0 .157 0 .337.18.719 0 .944s-.7.135-1.034 0-.157-.27 0-.315a2.92 2.92 0 0 0 .674-.292m.27-1.078c.135-.135 0-.247 0-.315s.382.337.27.494-.517.135-.809.112-.157-.18 0-.2a2.7 2.7 0 0 1 .607 0zm1.123 2.449a3.09 3.09 0 0 0 .359-.225s.18-.157.292-.112a.25.25 0 0 1 .165.169c.023.08.003.168-.053.231-.394.28-.848.464-1.326.539-.517.112-1.573.18-1.528-.247h.517a4.49 4.49 0 0 0 1.573-.427m-.809 4.494a.65.65 0 0 1-.539 0c-.225 0-.18-.427-.292-.652s0 0-.157-.135-.382 0-.494-.247h.13a8.58 8.58 0 0 0 1.528 0c0 .292.157.719-.18.9m.719-1.618l.472-.157a14.38 14.38 0 0 0 1.371-.674s.382.337.292.4l-1.505.629a3.01 3.01 0 0 1-1.663.225c-.153-.059-.311-.105-.472-.135h-.225c.539-.315 1.168 0 1.73-.2m-7.572-2.764s-.135 0 0-.135.157 0 .225 0h0a.38.38 0 0 1 .27 0c-.052.173-.219.286-.4.27m-.2-.629h-.2l.4-.18h0c.112.157-.135.27-.27.315m.135-.584c-.058.048-.142.048-.2 0h0c0 .135.2 0 .135.157m-.435-1.563c.18 0 .135-.225.225-.315s.247.112.292.247-.27.337-.494.247-.112-.135 0-.18m-.678-1.127h0a.99.99 0 0 1 .449 0h.651c-.157.157-.382 0-.584 0a.45.45 0 0 1-.517 0m-.135-3.258v-.27h0c.261.023.525.023.786 0h.225a3.46 3.46 0 0 0 0 .674c-.045.351-.045.705 0 1.056a5.24 5.24 0 0 1 0 .831h0v.18c-.054.038-.126.038-.18 0 0 0-.18-.135-.135-.225.121-.259.167-.547.135-.831-.025-.161-.114-.305-.247-.4v-.112-.7c0-.225-.225-.18-.292-.292m6.066 7.235c-.474.006-.94-.118-1.348-.359-.337-.135-.7-.4-.494-.764s.2.112.292.247c.359.539 1.034.517 1.573.786h0m-2.245-1.394s0-.247.135-.337.247-.225.4-.112 0 0 0 .157-.247.135-.359.27-.18 0-.2 0m-.359-.517s-.112.112-.135.112 0-.135 0-.2 0-.157.135-.135a.36.36 0 0 1 .427-.382c.092.046.146.145.135.247-.118.194-.315.325-.539.359m-.584-.944h0v-.247c0-.09 0 0 .157 0a1.46 1.46 0 0 1 .7 0s.2 0 .135.157-.629 0-.876.2m.382-.786c0 .135-.292.157-.449.18v-.112c.18 0 .427-.292.449 0m-.944-.831h0a1.1 1.1 0 0 1 .472 0h.629c-.157.157-.359 0-.584 0a.45.45 0 0 1-.517 0m-.2-2.741a.2.2 0 0 1 0-.315 1.76 1.76 0 0 1 .966 0h.315a.27.27 0 0 1 .225.359c-.067.157-.292.4-.382.629-.045.313-.045.631 0 .944-.042.283-.258.508-.539.562h-.247c-.045 0 .27-.359.382-.562s0-.157 0-.2c-.148-.159-.269-.341-.359-.539-.112-.2 0-.4 0-.562s-.27-.315-.359-.315m7.41 5.885h.292l.27-.27s.292 0 .382.18c.036.071.036.154 0 .225a.8.8 0 0 1-.2.247l-.247.135c-.238-.001-.444-.167-.494-.4m.741-6v-.227a11.8 11.8 0 0 1 1.258 0c.157 0 0 0 0 .112s-.292.517-.157.786 0 .809.2 1.258c.053.114.053.245 0 .359a.65.65 0 0 1-.786 0c-.112 0 0-.225.112-.247h.27a.54.54 0 0 0 .18-.584c0-.18-.27-.18-.449-.157s.382-.27.225-.382a3.19 3.19 0 0 1-.4-.18.35.35 0 0 0-.135-.27 2.4 2.4 0 0 1-.359-.315m1.505 2.471v.427c0-.022-.741-.18-.629-.315s.292 0 .494 0 .135-.292.225-.135m-.157.989h0c-.184-.07-.372-.13-.562-.18-.2-.045-.157 0-.112 0a2.16 2.16 0 0 0 .337-.2c.112-.067.315 0 .315.247h0v.135m-.584 1.1l-.4-.2v-.157c0-.022.27 0 .359-.225s0-.27 0-.292.315 0 .315.135-.225.786-.449.7m-.157.966a.18.18 0 0 1-.247 0v-.112a1.53 1.53 0 0 0 .472-.292c.112.2 0 .359-.112.517m0 2.943h.337c.27 0 0-.247.135-.4s.337.382.247.584-.247.135-.382.18-.359-.2-.247-.337m.539-.764h.18c.18 0 0-.112 0-.2h0a1.1 1.1 0 0 1 .315.292c.067.135 0 0 0 .135.044.076.044.171 0 .247h0l-.427-.247h0v-.112m.629-.674h.427v-.315a.61.61 0 0 1 .517.27c.056.097.056.218 0 .315a.39.39 0 0 0-.315.157c-.09.157 0 .157-.135.225s-.112 0-.135 0 0 0-.135-.112-.18-.112-.225-.157-.225-.157 0-.247m.674-1.505a.92.92 0 0 1 .876.18h0a.27.27 0 0 1-.315 0c-.18-.112-.382 0-.562-.2s-.112 0 0 0m.315-1.281h0v.135h0c.278-.041.561.031.786.2a.9.9 0 0 1-.27.786c-.27.2-.292 0-.382 0s-.135-.18 0-.225.337-.247.247-.427-.337 0-.449 0 0-.135 0-.18m.112-4.494c.194.015.39.015.584 0h.18c.045 0 0-.247.2-.292.03-.038.075-.06.123-.06s.094.022.123.06a.63.63 0 0 1 0 .4c0 .135-.157.27-.2.4a1.22 1.22 0 0 0 0 .4c-.056.478-.056.96 0 1.438.018.116-.036.23-.135.292a1.39 1.39 0 0 1-.607.112h0c0-.135.112-.112.157-.2v-.247A1.35 1.35 0 0 0 25.039 8c.122.016.238-.061.27-.18 0-.292.112-.719-.18-.876s-.315 0-.449-.112 0-.18 0-.18m.809 4.134h-.315c-.09 0 0-.427.135-.652a.56.56 0 0 1 0-.337h0c.054-.038.126-.038.18 0 .272.3.272.756 0 1.056m-.539 2.382c0 .157-.225.359-.359.2s-.27 0-.315-.2.135-.112.18-.247.225 0 .337 0 .2 0 .157.157m3.46-7.5a1.75 1.75 0 0 0-1.258.112c-.332.236-.419.691-.2 1.034.27.27.112.966.18 1.258a1.62 1.62 0 0 1 0 .652v.764a.56.56 0 0 0 0 .494v.337c-.015.179-.015.36 0 .539a1.64 1.64 0 0 1 0 .652 6.74 6.74 0 0 1-.292.944 1.08 1.08 0 0 1-.225.719l-.18.7a5.23 5.23 0 0 0-.584.652l-.494.719-.359.562s-.741.292-.854.584-.7.337-1.146.741l-.876.337s-.584 0-.741.225a9.23 9.23 0 0 0-.966.225 2.25 2.25 0 0 1-.674-.629v-.629a2.07 2.07 0 0 0 0-.315h0c.385-.074.761-.187 1.123-.337.463-.038.902-.219 1.258-.517.449 0 .472-.27.472-.27a3.28 3.28 0 0 0 .629-.247c.247 0 .494-.539.494-.539l.337-.315c.359-.18.652-.809.741-.944a4.6 4.6 0 0 0 .359-.629 7.01 7.01 0 0 0 .494-1.415 4.94 4.94 0 0 0 .247-.989c.112-.7.157-1.6.157-1.6-.034-.246-.034-.495 0-.741a2.8 2.8 0 0 1 0-.607 3.08 3.08 0 0 1 .337-1.415c.27-.427-.18-.9-.7-.921a1.64 1.64 0 0 0-1.1.337c-.27.135-.629.764-.337 1.034s.247.831.315 1.123c.037.238.037.481 0 .719-.09.165-.129.352-.112.539a2 2 0 0 1 0 .4c-.031.163-.031.331 0 .494v.494l-.135.786a4 4 0 0 0-.517.989 4.92 4.92 0 0 1-.427.809 1.28 1.28 0 0 0-.292.157 1.98 1.98 0 0 0-.809.786 1.93 1.93 0 0 0-.7.472c-.257.048-.501.148-.719.292l-1.011.494h-.157c.023-.389.023-.779 0-1.168a4.29 4.29 0 0 0 2.247-.854c.247-.27.112-.337.315-.382s.449-.7.652-.9c.187-.303.338-.627.449-.966a3.55 3.55 0 0 0 .315-1.348c.247-.337 0-.876 0-.876v-.876a9.37 9.37 0 0 1 .112-1.46c.135-.472.135-.741-.315-.9a2.4 2.4 0 0 0-1.483 0c-.247.135-.876.786-.607 1.056a3.06 3.06 0 0 1 .674 1.146c0 .27.135 1.056.135 1.056v.562s-.112.9-.292 1.034-.135.472-.135.472l-.427.7c-.186.211-.389.406-.607.584a1.75 1.75 0 0 1-.944.315h-.27c-.014-.172-.014-.345 0-.517v-.562c0-.292-.135-.292-.135-.292l.135-.315s.157 0 .157-.2a.2.2 0 0 0-.157-.225 3.6 3.6 0 0 0 0-.854 2.38 2.38 0 0 0 0-.472 2.24 2.24 0 0 0 0-.944 1.19 1.19 0 0 1 0-.741c.112-.225.494-.831.629-1.034s.247-.607-.764-.944a1.93 1.93 0 0 0-1.82.27c-.337.157-.2.674-.2.876s.652.674.652.9v1.034c0 .09-.247.135-.247.247s.135.2.2.337 0 .135 0 .135-.2.225-.18.359 0 .382.2.427 0 .157 0 .292a.52.52 0 0 0-.135.337c.034.171.121.328.247.449-.052-.002-.102.019-.137.057s-.051.091-.043.143a1.34 1.34 0 0 0 0 .4v.854h0a1.73 1.73 0 0 1-1.213-.584.99.99 0 0 0-.427-.4s-.157-.652-.427-.719 0-.337-.135-.472a3.64 3.64 0 0 1-.337-.854c.06-.07.098-.156.112-.247v-.315a8.85 8.85 0 0 1 0-1.191c.147-.423.376-.812.674-1.146.134-.111.212-.276.212-.45s-.078-.339-.212-.45a4.5 4.5 0 0 0-2 0c-.472.157-.809.494-.539.9a3.01 3.01 0 0 1 .427 1.326v.876c-.132.254-.132.555 0 .809a5.22 5.22 0 0 0 .382 1.55c.2.427.157.809.337 1.011s.449.7.652.764 0 .135.337.4a3.26 3.26 0 0 0 2.045.944.56.56 0 0 0 0 .225.63.63 0 0 1 .135.337 1.02 1.02 0 0 1-.157.494l-.337-.135-.9-.4a1.55 1.55 0 0 0-.741-.27c-.135-.247-.652-.427-.652-.427a2.57 2.57 0 0 0-.4-.494l-.449-.494a5.27 5.27 0 0 1-.607-.854 5.1 5.1 0 0 0-.494-.809s0-.854-.225-.921c-.033-.14-.033-.287 0-.427a1.62 1.62 0 0 0 0-.494 1.55 1.55 0 0 1 0-.4v-.292c-.018-.322-.018-.644 0-.966 0-.292-.135-1.056.112-1.326.117-.142.171-.325.15-.507s-.116-.348-.262-.459a2.09 2.09 0 0 0-1.371-.112c-.472.18-.809.517-.539.921a3.01 3.01 0 0 1 .427 1.326v.719a2.92 2.92 0 0 1 0 .764c.007.492.067.981.18 1.46.048.337.131.669.247.989a4.29 4.29 0 0 0 .494 1.078c.108.216.228.426.359.629.148.449.421.846.786 1.146l.382.27s.292.517.562.562a1.8 1.8 0 0 0 .584.337.92.92 0 0 0 .652.359s.18.315.876.382c.309.141.633.247.966.315h.4a.67.67 0 0 0 0 .2 3.33 3.33 0 0 1-.112.854l-.629-.135c-.31-.092-.626-.167-.944-.225a1.73 1.73 0 0 0-.629-.292 4.04 4.04 0 0 1-.764-.382c-.449-.382-1.123-.652-1.168-.786s-.676-.478-.676-.478a3.19 3.19 0 0 0-.7-.741 2.63 2.63 0 0 0-.427-.517l-.427-.741a3.36 3.36 0 0 1-.157-.7c-.152-.197-.253-.428-.292-.674l-.786-1.123a3.26 3.26 0 0 1 0-.674 1.77 1.77 0 0 1-.2-.449 2.09 2.09 0 0 1 0-.472c.075-.108.075-.251 0-.359.016-.155-.033-.309-.135-.427a4.92 4.92 0 0 1 0-.989c0-.292-.157-1.056 0-1.326.114-.144.165-.329.139-.512s-.125-.347-.274-.454a1.66 1.66 0 0 0-1.236 0 .63.63 0 0 0-.359 1.011 1.73 1.73 0 0 1 .135 1.123v1.624a7.37 7.37 0 0 0 .135 1.258 3.93 3.93 0 0 0 .157.809c0 .27 0 .989.2 1.191a3 3 0 0 0 .337.629 2.3 2.3 0 0 0 .629 1.213 2.24 2.24 0 0 0 .629 1.056s.292.494.427.472.315.584.494.629.157.562.607.629c.167.279.431.487.741.584a1.46 1.46 0 0 0 .876.539s-.135.382.719.382h0c.151.112.33.181.517.2.323.144.663.25 1.011.315h.809v.921s.449 0 .449.337 0 .337.157.382.135 0 0 .337a.56.56 0 0 0 0 .337.63.63 0 0 0-.337.607h-.225v.719h.427a.32.32 0 0 1 0 .157v.607c0 .09-.2.247-.27.337a2.4 2.4 0 0 0-.966 1.977c0 .382-.517.472-.966.607h7.082c-.494-.135-.719-.225-.741-.607a2.4 2.4 0 0 0-.989-1.977 3.36 3.36 0 0 1-.27-.337c-.067-.112 0-.494 0-.607a.32.32 0 0 1 0-.157h.449v-.4h-.247a.63.63 0 0 0-.337-.607.65.65 0 0 0 0-.337c-.112-.247 0-.337 0-.337a.59.59 0 0 0 .157-.382c0-.225.449-.337.449-.337v-.946l.989-.247a5.6 5.6 0 0 0 .719-.18c.225 0 .2-.2.449-.2.831 0 .854-.27.854-.27a.92.92 0 0 0 .764-.652 1.84 1.84 0 0 0 1.011-.629c.382 0 .562-.607.562-.607l.607-.629.337-.472a2.58 2.58 0 0 0 .629-1.258c.382-.315.359-.719.449-.831a5.46 5.46 0 0 0 .315-.876 6.4 6.4 0 0 0 .292-1.213 5.4 5.4 0 0 0 .135-.809c0-.432.052-.862.157-1.281V7.077a1.73 1.73 0 0 1 0-1.056.74.74 0 0 0-.337-1.123m-4.021 26.108h.247a.36.36 0 0 1 .337 0 .27.27 0 0 1 .157.315 1.46 1.46 0 0 1 0 .292h0a.56.56 0 0 0 .292-.112h0l.135-.112h0l-.135.157h0a.56.56 0 0 1-.315.135h-.247c.068-.094.114-.201.135-.315a.27.27 0 0 0-.135-.27h-.27a.4.4 0 0 1-.27 0zm-.989.359v.135h0a.4.4 0 0 1 .135.2h0c.044.085.044.185 0 .27-.052.09-.144.148-.247.157h-.472l-.449-.135h.067a1.1 1.1 0 0 0 .382.135c.149.022.3.022.449 0h0c.089.008.176-.034.223-.11a.24.24 0 0 0 .002-.249h0a.4.4 0 0 0 0-.157h0c-.034-.047-.034-.11 0-.157a.2.2 0 0 1 0-.135zm-1.483.225h.09c.185.044.377.044.562 0h0s.18-.112.18-.18h0v-.135c0-.135 0-.292.18-.337.103-.065.234-.065.337 0a.47.47 0 0 0 .292.112h0a.38.38 0 0 1-.315-.112c-.086-.038-.184-.038-.27 0-.112 0-.135.18-.157.292s0 0 0 .135c-.028.107-.101.198-.2.247h-.135a1.3 1.3 0 0 1-.584 0h0zm2.494-.247h0a1.1 1.1 0 0 1 0 .27v.472h0a.65.65 0 0 0 .359 0h.135a.7.7 0 0 0 .292 0h0a.56.56 0 0 0 .27-.292h0a.99.99 0 0 1-.292.315h0a.6.6 0 0 1-.315 0h-.135a.56.56 0 0 1-.382 0c-.225-.135-.18-.337-.112-.539s0-.157 0-.247h0z"/><path d="M23.029 27.995h0c.009.037.009.075 0 .112h0zm.4.741h-.135a.63.63 0 0 1-.539-.315h0c-.071-.107-.109-.231-.112-.359h0a.4.4 0 0 1-.315-.315h0c-.154.02-.284.124-.337.27h0c.074-.156.214-.272.382-.315h.135a.4.4 0 0 0 .27.337h.135c.034-.079.088-.148.157-.2h.135c.097-.056.218-.056.315 0h0c.101.165.101.374 0 .539h0c.08-.147.08-.325 0-.472h0a.2.2 0 0 0-.225 0h-.112a.47.47 0 0 0-.157.292c-.02.111-.02.226 0 .337h0c.126.163.312.268.517.292h.135zm-1.46-.4h0c.064-.018.119-.058.157-.112h-.153c.065-.024.135-.024.2 0h0a.2.2 0 0 1 0 .112h0a.36.36 0 0 1-.2.157h0zm.9.2h-.449l-.427.135h0l.472-.135h.472zm-2.963 3.077a.45.45 0 0 0-.18 0 .31.31 0 0 0-.2 0h0c-.112 0-.112.157-.135.247a.61.61 0 0 0 0 .2h-.226a.2.2 0 0 1 0 .135.72.72 0 0 0 .584.112h.112a.2.2 0 0 0 .2-.18.47.47 0 0 0 0-.18.4.4 0 0 0-.112-.157m-2.469-.358h0a.36.36 0 0 1 .18.112h.135a.83.83 0 0 0-.315-.134h0"/><path d="M26.714 33.364h-5.976v-3.392h5.976zm-6.268-6.965h4v2.966h-4zm-.359 5.572h0a.4.4 0 0 1-.247.225h-.112a.65.65 0 0 1-.629-.112.74.74 0 0 1-.315.225c-.193.033-.391.033-.584 0h0a1.64 1.64 0 0 0 .562 0 .56.56 0 0 0 .359-.359c.011-.044.011-.091 0-.135.011-.052.011-.105 0-.157h0v-.112h0a.36.36 0 0 0-.337 0h0c-.011.044-.011.091 0 .135h0a.65.65 0 0 0-.225 0c-.065-.022-.135-.022-.2 0h-.156c-.036-.016-.076-.016-.112 0h-.388c-.079-.031-.168-.031-.247 0a.4.4 0 0 0 0 .382 1.46 1.46 0 0 0 0 .449h0a1.62 1.62 0 0 1-.112-.472.45.45 0 0 1 .135-.427c.092-.044.2-.044.292 0a.7.7 0 0 1 .292 0h-.584c.181.008.351.09.472.225h0a.65.65 0 0 1 .225 0h0a.14.14 0 0 1 .112-.135.45.45 0 0 1 .4 0h0c.011.059.011.121 0 .18h.247v-.157c0-.045 0-.27.18-.315a.47.47 0 0 1 .449.112v.4m-2.741.135c-.069-.081-.153-.149-.247-.2a.7.7 0 0 1-.2-.157h0a.54.54 0 0 1 0 .18h0v-.157c-.01-.044-.01-.091 0-.135h.157l.2.135c.131.021.237.118.27.247zm-.135.449h-.112c-.043.02-.092.02-.135 0h0c-.101.084-.215.152-.337.2h0c.124-.03.235-.101.315-.2h.27zm-1.438.539h-.147v-2.782h3.8v.18h-3.131zm-.4.27h.382v-3.5h4.494v.18h-4.493zm-1.011-4.831v-.112h0zm.966-.652h0a.4.4 0 0 1-.315.315h0a.74.74 0 0 1 0 .382h.472l.449.135h0l-.448-.135h-.449a.92.92 0 0 1-.517.247h-.135a.83.83 0 0 0 .517-.27h0c.033-.11.033-.227 0-.337.002-.118-.057-.229-.157-.292h-.247a.4.4 0 0 0 0 .472h0c-.101-.165-.101-.374 0-.539h0c.09-.052.202-.052.292 0h.136a.4.4 0 0 1 .157.18h.135a.4.4 0 0 0 .27-.337h.112a.48.48 0 0 1 .4.337h0a.63.63 0 0 0-.4-.292m.27.517h-.18c.058.092.162.144.27.135h0a.36.36 0 0 1-.337-.157c-.009-.037-.009-.075 0-.112h0a.4.4 0 0 1 .225 0zm-.719 4.494h-.449a.56.56 0 0 1-.382 0c-.225-.135-.18-.337 0-.539s0-.18 0-.247h0c.02.089.02.181 0 .27v.449h0c.117.032.242.032.359 0h.135a.7.7 0 0 0 .292 0h0a.74.74 0 0 0 .292-.292h0c-.066.13-.167.239-.292.315m-1.687-1.256h-.27c-.09 0-.135.18-.157.315h0a.47.47 0 0 1-.225.247h-.2c-.073.023-.152.023-.225 0-.012-.066-.012-.134 0-.2v-.157h0v.135a.45.45 0 0 0 0 .18h.359c.087-.036.153-.11.18-.2h0c.014-.036.014-.076 0-.112 0-.135 0-.292.2-.359h.337c.087.033.183.033.27 0h0a.45.45 0 0 1-.337-.112m0 1.168a.4.4 0 0 1-.225.157h0a1.01 1.01 0 0 1-.449 0 1.71 1.71 0 0 1-.451-.142h.045l.4.112h.472c.081-.019.152-.067.2-.135a.36.36 0 0 0 0-.225h0c.019-.051.019-.106 0-.157h0a.2.2 0 0 1 0-.225h0v.135h0c.065.038.107.105.112.18h0c.041.085.041.185 0 .27m-1.842.562h-.359v-2.246h3.28v.135h-3.1zm3.482-1.3l.135-.135h0c-.033.056-.079.102-.135.135h0a.54.54 0 0 1-.315.112H14.1c.064-.104.11-.218.135-.337a.27.27 0 0 0-.135-.247c-.085-.044-.185-.044-.27 0-.089.02-.181.02-.27 0h0c.081.02.166.02.247 0a.36.36 0 0 1 .337 0c.12.066.184.202.157.337a1.26 1.26 0 0 1 0 .27h0a.4.4 0 0 0 .292 0h0m-3.864 1.573h-.18v-3.1h3.887v.18h-3.899zm4.269-6.74v.157h-1.8v2.112h-.225V26.53h1.775zm-2.237-.385h2.472v.157h-2.449v2.831h-.157zm2.876 0h4.494v.157h-4.449v2.831h-.179zm.584.539v2.112h-.318V26.53h3.82v.157zm.809 1.55s0 .112-.157.135h0l.135-.112c.135-.112 0-.135.18-.135h.135c.123.086.184.235.157.382h0a.27.27 0 0 0-.247-.157h-.2l-.135.112m2.112 0h0a.36.36 0 0 1 0-.27h0c-.289.113-.611.113-.9 0a.7.7 0 0 1-.225-.112c-.07-.04-.131-.093-.18-.157h0c-.027.154.072.303.225.337h0c-.157-.112-.292-.247-.247-.427h.292l.18.157h.2a1.19 1.19 0 0 0 1.056-.135h0a.36.36 0 0 0-.157.157c-.031.063-.031.137 0 .2m.854-.517a.18.18 0 0 1-.157-.157h0s0-.225-.18-.27h-.268a.74.74 0 0 0-.225.135l-.157.112h0a.83.83 0 0 1-.607 0c-.208-.058-.405-.149-.584-.27-.073-.023-.152-.023-.225 0h0a.36.36 0 0 0-.18.135c-.004.073-.062.131-.135.135h-.315a.18.18 0 0 0 0 .18.18.18 0 0 1 0 .18h0v.135h0a.36.36 0 0 1 0-.157.2.2 0 0 1 0-.135h0v-.359c.065-.02.135-.02.2 0h.135v-.111a.36.36 0 0 1 .2-.157h0c.089-.02.181-.02.27 0h0a1.73 1.73 0 0 0 .539.27c.187.077.397.077.584 0h.135a.92.92 0 0 1 .247-.157h.318c.118.077.199.199.225.337h.09m-.449.472h0a.27.27 0 0 1 .27-.247.36.36 0 0 1 .2 0h.135l-.449.741c-.051-.017-.106-.017-.157 0 0 0-.157 0-.2.2m5.325 1.168V26.04h-12.49v3.64h-2.25v4.022h17.05V29.68z"/></g><path d="M20.938 29.006h2.943v-2.09h-2.943zm-.112 0v-2.247h3.168v2.247h-3.166zm.561 3.818h4.741v-2.358h-4.741zm0 0v-2.47h4.853v2.629h-4.963z" fill="#2966ff"/><g clip-path="url(#A)"><path d="M11.728 39.521c0 .584 0 .741-.2.876a7.66 7.66 0 0 1-1.326.652l.112-.382c.291-.095.576-.208.854-.337.4-.157.247-1.326.247-1.528s0-.247-.135-.292H8.65c.053-.621.053-1.244 0-1.865v-1.123c.607-.292-.157-.292-.157-.292v-.72c0 .135.607 0 .719 0s.2.135 0 .2 0 .27-.18.629c-.091.874-.091 1.755 0 2.629v.135h2.7a3.91 3.91 0 0 0 0 1.348M9.35 37.474h0v-1.863c0-.09 0-.854.359-1.011s0-.27-.135-.225c-.466.099-.949.099-1.415 0l-.225 1.168s.719 0 .135.4a4 4 0 0 1 0 .786 11.64 11.64 0 0 1-.135 2.247h2.876c.135 0 .18 0 .18.315s.157.831-.315.989c-.299.127-.619.195-.944.2l-.2 1.168c.554-.178 1.095-.396 1.618-.652.337-.225.809-.4.809-1.123-.055-.754.006-1.512.18-2.247z" fill="#2966ff"/><g fill="#fff"><path d="M298.03 16.065v-2.022a4.86 4.86 0 0 0-.2-1.191 2.25 2.25 0 0 0-.494-.9 1.93 1.93 0 0 0-.809-.584 3.26 3.26 0 0 0-1.213-.2h-2.763v6.156c.011.491.102.977.27 1.438a2.63 2.63 0 0 0 .652.944 2.38 2.38 0 0 0 .921.539 4.35 4.35 0 0 0 1.1.157 1.55 1.55 0 0 0 .494 0 2.23 2.23 0 0 0 .607-.225 3.43 3.43 0 0 0 .584-.4c.175-.177.319-.382.427-.607a2.58 2.58 0 0 0 .247-.652c.05-.231.088-.465.112-.7v-.787zm6.538-.629c-.002.675-.04 1.35-.112 2.022a9.8 9.8 0 0 1-.382 1.865c-.38 1.235-1.041 2.365-1.932 3.3a5.16 5.16 0 0 1-1.258 1.011c-.498.294-1.025.535-1.573.719a9.14 9.14 0 0 1-1.752.449 12.4 12.4 0 0 1-1.8.157 16.13 16.13 0 0 1-3.864-.449 8.2 8.2 0 0 1-3.056-1.46c-.882-.701-1.583-1.602-2.045-2.629a10 10 0 0 1-.741-4v-9.77h11.757l1.078.135 1.258.337a4.95 4.95 0 0 1 1.258.584 5.62 5.62 0 0 1 1.483 1.326 6.87 6.87 0 0 1 1.011 1.73 10.23 10.23 0 0 1 .562 2.134c.12.833.18 1.674.18 2.516m-21.816 1.6h-6.381v-5.846h-2.247V6.673h8.605zm-11.391 0h-6.381v-5.846h-2.247V6.673h8.56zm-9.549 7.392h-17.3v-4.498h8.987l-.18-8.74h-8.74V6.673h15.233l-.18 13.233h2.045zm-20.221 0h-6.4V14.02a3.39 3.39 0 0 0-.225-1.348 2.26 2.26 0 0 0-.584-.876 1.91 1.91 0 0 0-.831-.472 2.99 2.99 0 0 0-1.011-.157h-6.426V6.673h9.234a10.18 10.18 0 0 1 2.786.337c1.533.409 2.737 1.596 3.168 3.123.272.988.4 2.009.382 3.033zm-24.04-7.392h-6.381v-5.846h-2.247V6.673h8.583zm-20.783 2.939a5.01 5.01 0 0 0 1.056-.157 3.1 3.1 0 0 0 1.078-.562 3.17 3.17 0 0 0 .854-1.123 4.29 4.29 0 0 0 .337-1.842l-.135-9.639h6.179v8.987a11.95 11.95 0 0 1-.337 2.966 7.3 7.3 0 0 1-.966 2.247 6.45 6.45 0 0 1-1.438 1.663 8 8 0 0 1-1.842 1.1 10.67 10.67 0 0 1-2.247.607 12.81 12.81 0 0 1-2.247.18h-15.121l-.517-17.727h6.246l.27 13.278h3.056l-.336-13.257h6.134zm-18.716 4.494h-6.4V14.02a3.84 3.84 0 0 0-.225-1.348 2.26 2.26 0 0 0-.584-.876 2 2 0 0 0-.854-.472c-.318-.108-.653-.162-.989-.157h-6.448V6.673h9.167a10.4 10.4 0 0 1 2.786.337 4.65 4.65 0 0 1 1.977 1.123 4.5 4.5 0 0 1 1.168 2c.282.985.411 2.008.382 3.033zm-17.412 0h-7.5l-3.752-6.606-.7-1.573-1.6 8.178h-6.107l3.235-12.065-3.438-5.707h7.549l4 6.943 2.247-6.943h6.066l-4.314 10.807zM139.188 6.673v.2l-6.246 17.57h-6.74l4.9-13.256h-8.99l-.2-9.908h6.381v5.392zm129.683 38.352h-4.831v-1.46h3.37l-.18-3.46a7.01 7.01 0 0 0-.2-1.528 2.36 2.36 0 0 0-.494-1.011 1.3 1.3 0 0 0-.337-.292l-.359-.157h-.607a1.53 1.53 0 0 0-.741.2c-.258.163-.48.377-.652.629l-.27.449c0 .18-.157.359-.225.562a4.5 4.5 0 0 0-.225.584.7.7 0 0 1-.157.539l-1.483 5.01h-1.573l1.977-6.224-2.247-1.8.652-1.64h0l2.247 1.955a7.42 7.42 0 0 1 .629-.786 2.42 2.42 0 0 1 .719-.539 2.83 2.83 0 0 1 .719-.292 2.47 2.47 0 0 1 .7 0h.764a2.36 2.36 0 0 1 .539.135 3.01 3.01 0 0 1 .539.27 2.83 2.83 0 0 1 .741.719 3.24 3.24 0 0 1 .472.921 4.48 4.48 0 0 1 .27 1.123c.024.427.024.854 0 1.281zm-10.986-4.992c.003.485-.058.968-.18 1.438a3.98 3.98 0 0 1-.512 1.128 3.73 3.73 0 0 1-.7.854 4 4 0 0 1-.854.562l-.4.18-.4.18-.359.135h-.27l-3.954 1.415v-1.55l2.247-.764-1.932-8.021h1.73l1.6 7.594.472-.2.382-.18.292-.157a2.79 2.79 0 0 0 .494-.4 2.53 2.53 0 0 0 .427-.539c.132-.235.237-.483.315-.741.073-.286.111-.581.112-.876v-4.502h1.505zm-9.684-1.011v6h-1.55v-5.883a3.19 3.19 0 0 0-.157-1.011 1.73 1.73 0 0 0-.427-.607 1.06 1.06 0 0 0-.539-.292c-.178-.032-.361-.032-.539 0h-3.686v-1.438h3.842c.409.002.817.055 1.213.157.354.1.678.285.944.539a2.47 2.47 0 0 1 .607 1.034 4.7 4.7 0 0 1 .225 1.6m-8.852 0v8.982h-1.483v-8.964a3.19 3.19 0 0 0-.157-1.011c-.096-.225-.231-.43-.4-.607a1.01 1.01 0 0 0-.517-.292 1.35 1.35 0 0 0-.494 0h-3.775v-1.438h3.864a5.12 5.12 0 0 1 1.213.157c.346.103.662.288.921.539a2.47 2.47 0 0 1 .607 1.034 4.7 4.7 0 0 1 .225 1.6m-19.906 6h-1.573v-5.645h1.573zm5.684-9.324v9.324h-1.483v-7.982h-5.774v-1.438zm-10.902 4.936v-.944a4.49 4.49 0 0 0-.135-.831c-.082-.243-.187-.478-.315-.7-.127-.211-.295-.394-.494-.539a1.95 1.95 0 0 0-.809-.4 4.65 4.65 0 0 0-1.033 0h-2.247v3.842a4.02 4.02 0 0 0 .225 1.393 2.36 2.36 0 0 0 .562.9 2.4 2.4 0 0 0 .831.494 3.36 3.36 0 0 0 .966.135h.472l.494-.112c.176-.068.342-.158.494-.27.163-.102.308-.231.427-.382a2.72 2.72 0 0 0 .517-1.123 6.49 6.49 0 0 0 .135-1.348m1.528-.135v.944a1.66 1.66 0 0 1-.18.921 5.08 5.08 0 0 1-.337.876 4.36 4.36 0 0 1-.472.764 2.99 2.99 0 0 1-.607.584 2.26 2.26 0 0 1-.719.4 3.19 3.19 0 0 1-.786.247 3.3 3.3 0 0 1-.809 0 5.1 5.1 0 0 1-1.842-.315 3.51 3.51 0 0 1-1.3-.876 3.91 3.91 0 0 1-.786-1.371 5.95 5.95 0 0 1-.27-1.752v-5.322h4.021a5.9 5.9 0 0 1 .921 0 3.38 3.38 0 0 1 .719.135 2.63 2.63 0 0 1 .629.247l.539.315a3.2 3.2 0 0 1 .7.764 4.92 4.92 0 0 1 .449.989 6.24 6.24 0 0 1 .225 1.123c.022.397.022.794 0 1.191m-10.829 0h-1.46v-3.46h-1.82v-1.439h3.1zm-5.213 0h-1.483v-3.46h-1.8v-1.439h3.28zm-4.673 4.494h-8.268v-1.46h5.37v-6.427h-5.28v-1.438h6.74v7.751h1.258zm-10.447-6v6h-1.483v-5.932a3.19 3.19 0 0 0-.157-1.011 1.73 1.73 0 0 0-.427-.607 1.06 1.06 0 0 0-.539-.292c-.178-.032-.361-.032-.539 0h-3.875v-1.438h3.8c.409.002.817.055 1.213.157.354.1.678.285.944.539a2.47 2.47 0 0 1 .607 1.034 4.7 4.7 0 0 1 .225 1.6m-19.906 6h-1.573v-5.645h1.573zm5.684-9.414v9.324h-1.483v-7.892h-5.729v-1.438zm-9.3 0v.112a.92.92 0 0 1 0 .157 2.95 2.95 0 0 0 0 .337l-.135.382a.44.44 0 0 1-.18.427l-3.19 7.886h-1.55a.52.52 0 0 1 0-.2 2.76 2.76 0 0 1 0-.315 2.44 2.44 0 0 1 .157-.359l.131-.367 2.674-6.74h-5.592v-4.494h1.505v2.966zm-9.257 9.3h-1.866l-3.8-5.28-1.415 5.347h-1.529l1.887-6.561-2.067-2.764h1.955l3.438 4.494 1.752-4.494h1.573l-2.378 5.726zm-10.74 0h-1.483v-7.891h-1.8v-1.438h3.37zm-5.235 0h-4.786v-1.46h3.37l-.18-3.46c-.016-.514-.076-1.025-.18-1.528a2.65 2.65 0 0 0-.494-1.011c-.107-.112-.228-.21-.359-.292l-.359-.157h-.674a1.6 1.6 0 0 0-.741.2c-.258.163-.48.377-.652.629a2.84 2.84 0 0 0-.247.449c-.096.181-.178.369-.247.562a4.49 4.49 0 0 0-.2.584c-.036.187-.097.368-.18.539l-1.46 5.01h-1.6l1.977-6.224-2.247-1.8.652-1.64h0l2.247 1.955c.177-.281.38-.544.607-.786a2.74 2.74 0 0 1 .718-.544 3.21 3.21 0 0 1 .719-.292c.232-.032.468-.032.7 0h.781l.517.135a3.01 3.01 0 0 1 .539.27c.299.179.553.425.741.719a4 4 0 0 1 .494.921c.116.368.206.743.27 1.123v1.281zm-10.942-4.498h-1.483v-3.393h-1.82v-1.438h3.3z"/></g></g><path d="M60.663 17.39h5.797v11.593h-5.797zm11.593 11.571h28.961v17.39H72.256z" fill="#9ee0fc"/><g fill="#fff"><path d="M72.256 28.961H95.42v11.571H72.256z"/><path d="M66.46 17.39h5.797v11.593H66.46z"/></g><path d="M66.46 28.961h5.797v11.571H66.46zM66.46 0h28.961v17.39H66.46z" fill="#9ee0fc"/><path fill="#fff" d="M72.256 5.797H95.42v11.571H72.256z"/><path fill="#9ee0fc" d="M95.42 5.797h5.797v11.571H95.42z"/></svg>