<svg xmlns="http://www.w3.org/2000/svg" width="83.531" height="38.342" viewBox="0 0 83.531 38.342">
  <g id="Group_815" data-name="Group 815" transform="translate(-12 -19)">
    <g id="Group_814" data-name="Group 814" transform="translate(3854 -13021.877)">
      <rect id="Rectangle_1" data-name="Rectangle 1" width="0.445" height="38.122" transform="translate(-3801.727 13040.877)" fill="#fff"/>
      <path id="Path_1" data-name="Path 1" d="M37.777,14.32V42.448s.148,6.712-8.2,7.639c-.5,0-5.748,0-7.083,1.854-1.335-2-6.564-1.854-7.083-1.854-8.344-.927-8.2-7.639-8.2-7.639V14.32Z" transform="translate(-3849.22 13026.557)" fill="#fff"/>
      <path id="Path_2" data-name="Path 2" d="M12.459,45.306c0,.167,0,.2-.222,0a2.04,2.04,0,0,1-.742-.76,4,4,0,0,0,.8.5c.167,0,.2,0,.167.167m.241-.371s-1.483-.371-1.613-1.15a1.854,1.854,0,0,1,.223-1.057s.426-.093.464-.26a.389.389,0,0,0-.223-.482.334.334,0,0,0-.482.13.219.219,0,0,0,0,.315s.26.352-.2.686a5.359,5.359,0,0,1-.3-1.409,11.329,11.329,0,0,1,.909-1.984c.2-.352.686-1.038.686-1.038a5.359,5.359,0,0,1-1.057,2.874,3.931,3.931,0,0,0,1.576-3.189,9.086,9.086,0,0,0-.167-1.131,18.95,18.95,0,0,0-1.372,2.077,10.012,10.012,0,0,0-.649,1.576s0-1.242,0-1.391a4.728,4.728,0,0,1,.612-.871s.26,0,.352-.148.111-.445-.111-.538-.5.167-.5.167a.668.668,0,0,0,0,.445l-.389.334V37.555a12.979,12.979,0,0,1,.909-1.854c.2-.352.686-1.057.686-1.057a5.377,5.377,0,0,1-1.057,2.893,3.894,3.894,0,0,0,1.5-3.245c0-.3-.093-1.075-.093-1.075a15.426,15.426,0,0,0-1.372,1.854,8.529,8.529,0,0,0-.593,1.539s0-1.112,0-1.261a4.469,4.469,0,0,1,.612-.853s.26,0,.352-.167.111-.445-.111-.538-.5.167-.5.167a.667.667,0,0,0,0,.445l-.389.334V33.457A12.979,12.979,0,0,1,11.31,31.6c.2-.352.686-1.038.686-1.038a5.359,5.359,0,0,1-1.057,2.874,3.931,3.931,0,0,0,1.576-3.189,9.271,9.271,0,0,0-.167-1.113,14.2,14.2,0,0,0-1.316,1.854,12.2,12.2,0,0,0-.649,1.613V31.344a4.728,4.728,0,0,1,.612-.871s.26,0,.352-.148.111-.464-.111-.556-.5.167-.5.167a.667.667,0,0,0,0,.445l-.389.352V29.638a8.455,8.455,0,0,1,.816-1.854l.519-.853a4.45,4.45,0,0,1-.853,2.577,3,3,0,0,0,1.409-2.744c0-.315,0-1.335,0-1.335A12.108,12.108,0,0,0,10.9,27.116a9.271,9.271,0,0,0-.538,1.632V27.505a5.822,5.822,0,0,1,.389-.779s.278.093.371,0a.373.373,0,0,0,0-.519c-.185-.167-.464.093-.464.093a.445.445,0,0,0,0,.389l-.241.278v-.89a6.137,6.137,0,0,1,.7-1.854l.63-1.02a4.079,4.079,0,0,1-.8,2.466,3.986,3.986,0,0,0,1.595-3.134c0-.315-.093-1.224-.093-1.224a13.406,13.406,0,0,0-1.483,1.854,4.728,4.728,0,0,0-.482,1.854s0-1.242,0-1.372a6.324,6.324,0,0,1,.3-.686.26.26,0,0,0,.3-.111.334.334,0,0,0-.167-.464c-.223-.13-.315,0-.315,0a.612.612,0,0,0,0,.445l-.185.148v-1a9.03,9.03,0,0,1,.816-1.854c.222-.352.76-1.038.76-1.038a3.708,3.708,0,0,1-.816,2.41,2.633,2.633,0,0,0,1.354-2.522,3.56,3.56,0,0,0,0-1.057,9.734,9.734,0,0,0-1.558,1.724,10.587,10.587,0,0,0-.63,1.854V15.935a5.247,5.247,0,0,1,.482,3.115,9.067,9.067,0,0,0,.352-1.576A2.818,2.818,0,0,0,10.7,15.88a8.789,8.789,0,0,1-.389-1.02A2.93,2.93,0,0,1,9.919,15.9a3.319,3.319,0,0,0-.408,1.632,7.417,7.417,0,0,0,.482,2.188c0,.13,0,1.947,0,1.947a4.8,4.8,0,0,1-1.131-1.131,4.543,4.543,0,0,1-.5-1.576s.371.426.593.649a9.937,9.937,0,0,1,.76,1.131c.111-1.224-1.854-2.8-1.854-2.8a6.378,6.378,0,0,0,.5,3.078,4.19,4.19,0,0,0,1.613,1.168v.779L9.7,22.8a.538.538,0,0,0,0-.445s-.278-.241-.5-.111-.148.389,0,.556a.4.4,0,0,0,.371.111,2.762,2.762,0,0,1,.482.556v2.114a3.912,3.912,0,0,1-1-1.187,5.748,5.748,0,0,1-.575-1.465s.445.371.668.593a8.2,8.2,0,0,1,.63,1.02c.111-1.224-1.854-2.967-1.854-2.967a6.935,6.935,0,0,0,.5,3.078,3.8,3.8,0,0,0,1.613,1.316v.76l-.426-.3a.593.593,0,0,0,0-.445s-.278-.223-.5-.111-.167.389,0,.556a.352.352,0,0,0,.352.111,4.951,4.951,0,0,1,.63.779v2.114a4.135,4.135,0,0,1-1.057-1.205,6.008,6.008,0,0,1-.575-1.465s.445.352.668.575a8.083,8.083,0,0,1,.63,1.038C9.863,27.153,7.9,25.392,7.9,25.392a7.046,7.046,0,0,0,.5,3.1A3.82,3.82,0,0,0,10.03,29.8v.816L9.6,30.305a.593.593,0,0,0,0-.445s-.278-.2-.5-.093-.167.371,0,.538a.352.352,0,0,0,.352.111,6.063,6.063,0,0,1,.63.779v2.114a4.135,4.135,0,0,1-1.057-1.187,6.008,6.008,0,0,1-.575-1.465s.445.352.668.575a8.2,8.2,0,0,1,.63,1.02C9.863,31.028,7.9,29.285,7.9,29.285a6.935,6.935,0,0,0,.5,3.078A3.931,3.931,0,0,0,10.012,33.7v1.02l-.426-.3a.593.593,0,0,0,0-.445s-.278-.222-.5-.111-.167.389,0,.556a.352.352,0,0,0,.352.111,4.95,4.95,0,0,1,.63.779c0,.13,0,2.114,0,2.114A4.135,4.135,0,0,1,9.01,36.22a6.008,6.008,0,0,1-.575-1.465s.445.352.668.575a8.084,8.084,0,0,1,.63,1.038c.111-1.224-1.854-2.985-1.854-2.985a7.046,7.046,0,0,0,.5,3.1,3.708,3.708,0,0,0,1.613,1.3V38.8l-.426-.3a.593.593,0,0,0,0-.445s-.278-.223-.5-.111-.167.389,0,.556a.352.352,0,0,0,.352.111,6.063,6.063,0,0,1,.63.779v2.1A4.135,4.135,0,0,1,8.992,40.3a6.007,6.007,0,0,1-.575-1.465s.445.352.668.575a8.084,8.084,0,0,1,.63,1.038c.111-1.224-1.854-2.967-1.854-2.967a6.972,6.972,0,0,0,.5,3.078,3.931,3.931,0,0,0,1.669,1.335,7.228,7.228,0,0,0,.167,1.279c-.371-.241-.2-.538-.2-.538a.445.445,0,0,0-.111-.389c-.167-.148-.334-.26-.556-.148s-.111.315,0,.482a1,1,0,0,0,.334.278,7.231,7.231,0,0,0,.964.834,3.949,3.949,0,0,0,2.54,2.448Z" transform="translate(-3848.693 13027.019)" fill="#2966ff"/>
      <path id="Path_3" data-name="Path 3" d="M21.109,45.462c-.167.111-.185,0-.223-.093s0-.13.167-.167a3.709,3.709,0,0,0,.816-.5,1.854,1.854,0,0,1-.76.76m2.781-6.249a9.271,9.271,0,0,0-.649,1.595s0-1.261,0-1.409a4.469,4.469,0,0,1,.612-.853s.26,0,.352-.167.13-.445-.111-.538-.482.148-.482.148a.649.649,0,0,0,0,.464l-.389.334v-1.3a12.979,12.979,0,0,1,.909-1.854c.223-.352.7-1.057.7-1.057A5.414,5.414,0,0,1,23.8,37.489a3.912,3.912,0,0,0,1.483-3.282c0-.3-.093-1.075-.093-1.075a16.69,16.69,0,0,0-1.372,1.854,8.214,8.214,0,0,0-.593,1.558V35.264a4.728,4.728,0,0,1,.612-.871s.26,0,.352-.148.13-.464-.111-.556-.482.167-.482.167a.612.612,0,0,0,0,.445l-.389.352v-1.3a12.776,12.776,0,0,1,.909-1.854c.222-.352.7-1.057.7-1.057a5.414,5.414,0,0,1-1.075,2.911,3.949,3.949,0,0,0,1.65-3.282,8.233,8.233,0,0,0-.185-1.131A17.206,17.206,0,0,0,23.89,30.8a10.1,10.1,0,0,0-.649,1.613V31.129a4.727,4.727,0,0,1,.612-.871s.26,0,.352-.148.13-.464-.111-.538a.573.573,0,0,0-.482.148.649.649,0,0,0,0,.464l-.389.334V29.424a9.975,9.975,0,0,1,.816-1.854l.538-.853a4.487,4.487,0,0,1-.871,2.6,3.041,3.041,0,0,0,1.428-2.763V25.215A10.791,10.791,0,0,0,23.779,26.9a9.048,9.048,0,0,0-.538,1.65V27.291a5.822,5.822,0,0,1,.389-.779s.278.093.371,0a.374.374,0,0,0,0-.519.445.445,0,0,0-.464,0,.482.482,0,0,0-.111.371l-.241.278v-.909a6.082,6.082,0,0,1,.723-1.854c.2-.352.63-1.02.63-1.02a4.042,4.042,0,0,1-.816,2.485,3.968,3.968,0,0,0,1.558-2.967c0-.315-.093-1.242-.093-1.242A13.2,13.2,0,0,0,23.7,22.99a4.988,4.988,0,0,0-.482,1.854s0-1.242,0-1.391a5.377,5.377,0,0,1,.315-.686.241.241,0,0,0,.3-.111.352.352,0,0,0-.167-.464c-.241-.13-.334,0-.334,0a.649.649,0,0,0,.093.464l-.185.148V21.9a8.955,8.955,0,0,1,.816-1.854c.223-.352.779-1.057.779-1.057A3.708,3.708,0,0,1,24,21.414a2.633,2.633,0,0,0,1.279-2.6,3.56,3.56,0,0,0-.093-1.057A9.994,9.994,0,0,0,23.612,19.5a13.146,13.146,0,0,0-.649,1.854V15.8a5.173,5.173,0,0,1,.464,3.152,9.068,9.068,0,0,0,.352-1.576,2.837,2.837,0,0,0-.482-1.613,8.845,8.845,0,0,1-.389-1.038,3.078,3.078,0,0,1-.389,1.057,3.708,3.708,0,0,0-.426,1.65,8.121,8.121,0,0,0,.63,2.188,17.6,17.6,0,0,1,0,1.947,4.654,4.654,0,0,1-1.15-1.131,4.543,4.543,0,0,1-.5-1.576s.371.426.593.649a10.718,10.718,0,0,1,.779,1.131c.111-1.224-1.854-2.818-1.854-2.818a6.545,6.545,0,0,0,.5,3.115A4.19,4.19,0,0,0,22.722,22.1v.779l-.148-.222a.686.686,0,0,0,0-.464s-.278-.223-.5-.111-.167.408,0,.575a.352.352,0,0,0,.352.111,2.114,2.114,0,0,1,.482.575c0,.13,0,2.114,0,2.114A3.912,3.912,0,0,1,21.85,24.25a5.563,5.563,0,0,1-.593-1.483s.445.371.667.593a6.823,6.823,0,0,1,.649,1.038c.111-1.224-1.854-3-1.854-3a7.1,7.1,0,0,0,.5,3.115,4.042,4.042,0,0,0,1.632,1.335v.76l-.426-.241a.649.649,0,0,0,0-.464s-.3-.2-.5-.111-.185.408,0,.575a.352.352,0,0,0,.352.111,4.172,4.172,0,0,1,.612.779c0,.13,0,2.132,0,2.132a4.394,4.394,0,0,1-1.057-1.205,5.878,5.878,0,0,1-.593-1.483s.445.352.667.575a6.824,6.824,0,0,1,.649,1.038c.111-1.224-1.854-2.985-1.854-2.985a7.046,7.046,0,0,0,.5,3.1,3.875,3.875,0,0,0,1.65,1.335v.816l-.426-.3a.649.649,0,0,0,0-.464s-.3-.2-.5-.093a.337.337,0,0,0,0,.556.352.352,0,0,0,.352.111,4.172,4.172,0,0,1,.612.779V33.3a4.394,4.394,0,0,1-1.057-1.205,5.562,5.562,0,0,1-.593-1.483s.445.371.668.593a6.9,6.9,0,0,1,.649,1.02C22.666,31,20.7,29.238,20.7,29.238a7.138,7.138,0,0,0,.5,3.115,4.042,4.042,0,0,0,1.632,1.335v1.038l-.426-.315a.593.593,0,0,0,0-.445s-.3-.223-.5-.111a.337.337,0,0,0,0,.556.352.352,0,0,0,.352.111,4.45,4.45,0,0,1,.612.8c0,.13,0,2.114,0,2.114a4.135,4.135,0,0,1-1.057-1.187,5.878,5.878,0,0,1-.593-1.483s.445.352.668.575a6.823,6.823,0,0,1,.649,1.038c.111-1.242-1.854-3-1.854-3a7.1,7.1,0,0,0,.5,3.115A3.931,3.931,0,0,0,22.815,37.8v1.02l-.426-.3a.593.593,0,0,0,0-.445s-.3-.223-.5-.111a.337.337,0,0,0,0,.556.352.352,0,0,0,.352.111,4.914,4.914,0,0,1,.612.779V41.55a4.135,4.135,0,0,1-1.057-1.205,5.563,5.563,0,0,1-.593-1.483s.445.371.667.593a6.824,6.824,0,0,1,.649,1.038c.111-1.242-1.854-3-1.854-3a7.1,7.1,0,0,0,.5,3.115,4.172,4.172,0,0,0,1.613,1.354A3.708,3.708,0,0,1,22.5,43.2c-.464-.334-.185-.686-.185-.686V42.2a.334.334,0,0,0-.482-.13.389.389,0,0,0-.223.482c0,.167.464.26.464.26a1.854,1.854,0,0,1,.222,1.075c-.13.779-1.613,1.15-1.613,1.15l-.352,1.224a4.005,4.005,0,0,0,2.54-2.466,8.788,8.788,0,0,0,.983-.834s.278-.13.334-.3.167-.389,0-.5-.389,0-.556.167a.445.445,0,0,0-.111.389s.111.241-.408.519a14.3,14.3,0,0,0,.223-1.446,11.755,11.755,0,0,1,.909-2.021c.223-.352.7-1.038.7-1.038a5.414,5.414,0,0,1-1.075,2.911,3.986,3.986,0,0,0,1.595-3.226,8.233,8.233,0,0,0-.185-1.131,22.623,22.623,0,0,0-1.316,1.965" transform="translate(-3838.022 13026.898)" fill="#2966ff"/>
      <path id="Path_4" data-name="Path 4" d="M17.757,31.756V33.8H17.5V31.941H16.07a.26.26,0,0,1-.278-.241v-.278a.538.538,0,0,0,.371.185H17.5a.167.167,0,0,1,.185.185m0-.612H15.829a.834.834,0,0,1-.482-.241l-.3,1.038a.334.334,0,0,0,.352.3h1.5v2.169l.909-.371V31.422s0-.278-.223-.278" transform="translate(-3842.532 13040.753)" fill="#2966ff"/>
      <path id="Path_5" data-name="Path 5" d="M20.719,31.868a3.578,3.578,0,0,0-.13.8h-.223V31.98a.723.723,0,0,1-.482,0l.167-.426h.538c.111,0,.167,0,.093.2m.2-.8h-.723a2.893,2.893,0,0,1-.389-.13l-.464,1.261c.111.111.686,0,.686,0L19.885,33l.927-.241a3.95,3.95,0,0,1,.278-1.465c0-.278,0-.426-.2-.426" transform="translate(-3838.893 13040.659)" fill="#2966ff"/>
      <path id="Path_6" data-name="Path 6" d="M16.192,33.885l-.167-.13-2.336-1.613v1.465h.63l-.2.315h-.742a8.2,8.2,0,0,0,0-.983c0-.3-.093-1.038-.093-1.038a.982.982,0,0,0,.13-.185s.111-.093.185,0a9.271,9.271,0,0,0,2.689,1.854Zm-.352-2.559a.76.76,0,0,0,.26,0h.222c.13,0,.111.167.111.278v.2a.834.834,0,0,1,0,.426,1.465,1.465,0,0,1-.26.2,3,3,0,0,0,0-.612h-.445a1.947,1.947,0,0,0,.148-.445m.334,1.743c-.111,0,0-.241,0-.241a2,2,0,0,0,.352-.26.426.426,0,0,0,.148-.352v-.983c0-.148,0-.2-.13-.223a4.839,4.839,0,0,0-.742,0,1.168,1.168,0,0,1-.315,0,5.82,5.82,0,0,1-.371,1.038,1.5,1.5,0,0,0,.389.093c.148,0,0,0,.111.111a1.5,1.5,0,0,1,0,.5,15.242,15.242,0,0,1-2.04-1.576h-.26a6.956,6.956,0,0,0-.445.667s.167.779.2,1.113a9.828,9.828,0,0,1-.185,1.372h1.428l.371-.909h-.779V32.7s2.021,1.52,2.151,1.595.167,0,.167,0l.426-.871c-.148,0-.426-.26-.538-.315" transform="translate(-3844.36 13040.85)" fill="#2966ff"/>
      <path id="Path_7" data-name="Path 7" d="M20.871,32.746a1.187,1.187,0,0,1,0,.352s-.464.445-.519.5a.445.445,0,0,1-.185.111l-2.522.334V32.412c0-.037.3-.352.13-.408a1.3,1.3,0,0,1-.334-.093l.2-.426H18c.093,0,.2,0,.167.13s-.167.556-.241.76a3.708,3.708,0,0,0,0,1.205h.668l.7-1.669h-.389l.167-.334h.5c0,.093-.612,1.984-.612,1.984s1.094-.148,1.187-.185a1.187,1.187,0,0,0,.445-.464,6.787,6.787,0,0,0,.111-.89h-.278l.13-.445h.371s-.093,1.02-.093,1.131m-.5-1.576-.3.964h.315a2.244,2.244,0,0,1,0,.593.612.612,0,0,1-.278.352,6.786,6.786,0,0,1-.779.148s.575-2,.575-2.114h-.964l-.352.909.334.093a12.98,12.98,0,0,1-.556,1.205,1.205,1.205,0,0,1-.148-1.094,3.281,3.281,0,0,1,.3-.964c.074-.148-.111-.148-.2-.148a1.6,1.6,0,0,1-.927-.167l-.408.927a.519.519,0,0,0,.371.241c.278,0,0,.278,0,.315a.408.408,0,0,0-.111.3c0,.148,0,1.65,0,1.65l3.022-.426c.13,0,.13,0,.223-.13s.519-.612.575-.667,0,0,0-.2.111-1.854.111-1.854Z" transform="translate(-3840.917 13040.728)" fill="#2966ff"/>
      <path id="Path_8" data-name="Path 8" d="M15.88,24.17l.019.019h.019l-.037-.019Z" transform="translate(-3841.823 13034.971)" fill="#2966ff"/>
      <path id="Path_9" data-name="Path 9" d="M15.88,24.17Z" transform="translate(-3841.823 13034.971)" fill="#2966ff"/>
      <path id="Path_10" data-name="Path 10" d="M27.685,17.267c-.111.371-.408.742-.26,1.15s.241.5.093.7a.352.352,0,0,1-.5,0,.111.111,0,0,1,0-.13c.093-.167.334-.3.223-.519s0-.5-.13-.7-.389-.334-.464-.593.519-.352.816-.3.315.13.241.315m-.111,2.188c-.13,0-.315.093-.371,0s.185,0,.3,0h.111m0,.871H27.5a2.123,2.123,0,0,1-.482-.185c-.148-.093-.13-.167,0-.167s.3-.13.482-.148h0c.111,0,.13-.148.185-.241s.111,0,.111,0a1.131,1.131,0,0,1,0,.7m0,.5c-.223,0-.408-.13-.63-.148s-.148,0-.13-.111h.519c.185,0,.185,0,.241.167s0,.148,0,.148m0,.668c0,.148-.2.241-.241.445s-.093.093-.148,0-.334,0-.445-.185,0-.093,0-.093h.482c.13,0,0-.26.185-.334h.185v.185m-.241,1.224c0,.13-.26.185-.482.13s-.2-.148-.13-.223.241-.148.167-.26,0-.111,0-.13-.13,0-.167,0h0a.612.612,0,0,1,.649.223.352.352,0,0,1,0,.352m-.5.723a.334.334,0,0,1-.464.111s-.148,0-.148-.13v-.111a2.35,2.35,0,0,1,.371,0v-.093s-.3-.185-.185-.241a.371.371,0,0,1,.408.519m-.315.871h0s0,.222-.111.3,0,0-.093-.13a.278.278,0,0,0-.185-.13c-.093,0-.111-.148-.185-.2s.426-.093.63,0,0,.148,0,.185m-.538.76s-.093.26-.2.2-.222-.223-.352-.352h0s.223.093.3,0,0-.2,0-.278.093,0,.148,0h0a.379.379,0,0,1,.278.315c0,.13-.148.148-.222.223m-1.057.964h0c0,.148-.111.26-.13.408s-.167,0-.2,0a3.393,3.393,0,0,1-.482-.668h.148c.185.185.426,0,.593.13a.2.2,0,0,1,.111.167m-.723.575c0,.111-.13.26-.26.2a2.292,2.292,0,0,1-.482-.575h0a.163.163,0,0,0,.167.167c.167,0,0-.13.111-.167s.093,0,.167,0a.278.278,0,0,1,.185.352m-.668.241c0,.3-.389.371-.649.426-.612.2-1.224.334-1.854.5a3.171,3.171,0,0,1-1.02.093h.185a1.038,1.038,0,0,1-.389-.111h0a5.062,5.062,0,0,1,.927-.111,9.27,9.27,0,0,0,1.224-.334,4.783,4.783,0,0,0,.593-.334H22.9a1.724,1.724,0,0,1,.649-.3c.148,0,.26.13.241.2m-2.744,1.965c0,.093,0,.222-.167.222s0,.315-.167.371a1.724,1.724,0,0,1-.76.093v-.093a.222.222,0,0,0,.111-.334H19.9c-.019,0,0,.315-.093.426s-.148,0-.241,0-.13-.093,0-.13.13,0,.185,0,0,0,0-.13h0c0-.111-.093-.223-.2-.185s-.111.093-.185.13a.241.241,0,0,0-.223-.223h-.148c-.019,0,0-.148,0-.241a13.573,13.573,0,0,0,1.5,0V28.93c0-.093.111-.111.185-.111s0-.093.111-.13a.167.167,0,0,1,.185,0,.5.5,0,0,1,0,.426m.093,1.558c.185,0,.426.241.3.445s-.148,0-.241,0a3.505,3.505,0,0,0-.426,0H20.6c-.148-.13-.278-.334-.426-.241a.426.426,0,0,1-.334,0h0s.093-.185.2-.2a.853.853,0,0,1,.668.13H21.1m-1.854-1s.13,0,0,.111-.13,0-.185,0,0,0,.111-.111m1.854,2.522c-.185,0-.445.093-.575,0s0-.148,0-.222-.148-.093-.167,0a2,2,0,0,0,0,.334c0,.074-.334,0-.371,0s.278,0,.223-.223a.334.334,0,0,0-.315-.148.8.8,0,0,1,0,.426c0,.093-.2,0-.3,0v-.723s.2,0,.167-.148-.167-.334-.315-.223,0,.389-.167.519a.2.2,0,0,1-.278,0h.222c.074,0,0-.26,0-.371s-.148-.111-.2,0-.111,0,0,.111a.334.334,0,0,1,0-.445c.2-.148.5,0,.76,0a8.881,8.881,0,0,0,1.224,0,1.724,1.724,0,0,0,.111.871m.185.315c.093,0,.13,0,.167.167a7.028,7.028,0,0,1,.538,1.428,2.225,2.225,0,0,1-.7,0s-.093,0-.093-.13-.167-.7-.278-1.168a.426.426,0,0,1,.148-.3.315.315,0,0,1,.223,0m-.63,1.5a2.114,2.114,0,0,0-.315-.278h0a7.047,7.047,0,0,1,0-.871.241.241,0,0,1,.13-.167c.111,0,.26,0,.278.111a5.727,5.727,0,0,0,.167,1.15h-.241m-.556-.223c-.185,0-.2-.185-.3-.3h0a1,1,0,0,1,0-.575.167.167,0,0,1,.278,0c.167.3,0,.63,0,.946m-.612-.389h-.26c-.13,0,0-.26,0-.426h.278a.389.389,0,0,1,0,.352v.111m-.983-5.321a7.417,7.417,0,0,1-2.021-.482c-.185-.093-.352-.241-.538-.352H16a1.357,1.357,0,0,1,.278-.482h0a2.805,2.805,0,0,0,.241.464.519.519,0,0,0,.185.167,4.951,4.951,0,0,0,1.446.5H19.36c.074,0,0,0,0,.093h-.853M15.243,26.76h-.167c-.056,0-.334-.148-.334-.315a.093.093,0,0,0,.093,0c0-.167,0-.334.241-.334s.612-.315.593,0-.445.389-.426.723m-.816-.538a.352.352,0,0,1-.352-.241v-.3c0-.037,0,0,.093,0a1.187,1.187,0,0,1,0-.13h.223c.037,0,0,.167,0,.2a3.1,3.1,0,0,0,.482-.315.093.093,0,0,1,0,.148c-.2.26-.3.649-.668.668m-.519-.927c-.093,0-.093.223-.2.26s-.13,0-.185-.13,0,0,0-.093-.167,0-.223-.111,0-.093,0-.13.2,0,.241,0,0-.093,0-.111.167,0,.2,0,.148.111.223.185a.148.148,0,0,1,0,.13h-.148m-1.057-.575c0-.093.111-.148.2-.185l.371-.2a.426.426,0,0,1,0,.26c0,.093-.148.13-.241.2s-.2,0-.26,0m-.2-.389a.3.3,0,0,1-.167-.111v-.13h.26l.167-.111a.834.834,0,0,1,.223-.111h0s-.315.464-.575.389m-.593-1v-.093c0-.093.482-.2.723-.352s.13,0,.167,0a.148.148,0,0,1,0,.148c-.2.223-.556.464-.853.278m-.222-1.038h.111c.111,0,.167-.13.185-.26s0-.167-.148-.223h0a.315.315,0,0,1,.223,0v.111c0,.111.093.13.13.185a.389.389,0,0,1-.278.538h0c-.13,0-.315,0-.278-.223m0-1.483s-.315,0-.241-.13a2.893,2.893,0,0,1,.352-.26c.148-.093,0-.334.185-.464s0,0,.111,0a1.706,1.706,0,0,1,0,.686.464.464,0,0,1-.389.148h0ZM11,19.548c.3-.185.222-.593.334-.89h0l.111-.185c.111-.185,0-.352-.093-.5s-.2-.13-.278-.223,0-.167.111-.185a.983.983,0,0,0,.426-.3s.111,0,.093.148h0a1.205,1.205,0,0,0,0,.575,6.8,6.8,0,0,1,0,1.743c-.2,0-.593.148-.593-.167m7.472,5.97A4.71,4.71,0,0,1,16.727,25s-.148-.111-.13-.185.13,0,.185,0a3.82,3.82,0,0,0,1.65.649h.223m-2.522-.89a.148.148,0,0,1,.13-.167h0c.148-.13.278-.408.5-.389a5.025,5.025,0,0,1-.315.723c-.093.111-.2,0-.241-.167m-.093-.538h0a.426.426,0,0,1-.2.26.187.187,0,0,1-.167-.2V24c.13-.111.26-.408.426-.241s0,.13,0,.2m-.834-.334h0s0-.26.185-.241h0c.111,0,.241-.111.315,0s-.241.482-.371.426m3.5,0h.13c.445-.13.89.148,1.3,0a1.6,1.6,0,0,1,0,.723.371.371,0,0,1-.556.2c-.241-.185-.26-.556-.556-.742a.779.779,0,0,0-.241,0s-.13,0,0,0m0-6.415a.093.093,0,0,1,0-.111H19.6c.167,0,.111-.111.2-.111s0-.093,0-.148a1.41,1.41,0,0,0,0-.278.593.593,0,0,1,.556.723.779.779,0,0,1-.2.3.816.816,0,0,0-.2.464c0,.389.2.742.148,1.113a.538.538,0,0,1-.167.371.222.222,0,0,1-.241,0c-.148,0-.389,0-.482-.185a.533.533,0,0,0,.519-.371,1.094,1.094,0,0,0,0-.686,1.855,1.855,0,0,0-.111-.816c-.111-.2-.426-.148-.649-.241m.7,4.376h0v-.464c0-.13.148,0,.222,0a.185.185,0,0,1,0,.13c0,.278.148.593,0,.779s-.575.111-.853,0-.13-.223,0-.26a2.41,2.41,0,0,0,.556-.241m.222-.89c.111-.111,0-.2,0-.26s.315.278.223.408-.426.111-.668.093-.13-.148,0-.167a2.225,2.225,0,0,1,.5,0Zm.927,2.021a2.6,2.6,0,0,0,.3-.185s.148-.13.241-.093a.2.2,0,0,1,.093.334,2.577,2.577,0,0,1-1.094.445c-.426.093-1.3.148-1.261-.2h.426A3.708,3.708,0,0,0,20.75,23M20.083,26.7a.538.538,0,0,1-.445,0c-.185,0-.148-.352-.241-.538s0,0-.13-.111-.315,0-.408-.2h.111a7.082,7.082,0,0,0,1.261,0c0,.241.13.593-.148.742m.593-1.335.389-.13a11.867,11.867,0,0,0,1.131-.556s.315.278.241.334c-.371.167-.649.3-1.242.519a2.485,2.485,0,0,1-1.372.185,2.207,2.207,0,0,0-.389-.111h-.185c.445-.26.964,0,1.428-.167m-6.249-2.281s-.111,0,0-.111.13,0,.185,0h0a.315.315,0,0,1,.223,0,.315.315,0,0,1-.334.223m-.167-.519h-.167L14.5,22.5h0c.093.13-.111.223-.222.26m.111-.482a.13.13,0,0,1-.167,0h0c0,.111.167,0,.111.13m-.352-1.3c.148,0,.111-.185.185-.26s.2.093.241.2-.223.278-.408.2-.093-.111,0-.148m-.556-.927h0a.816.816,0,0,1,.371,0h.538c-.13.13-.315,0-.482,0a.371.371,0,0,1-.426,0m-.111-2.689v-.223h0a3.708,3.708,0,0,0,.649,0h.185a2.855,2.855,0,0,0,0,.556,3.43,3.43,0,0,0,0,.871,4.246,4.246,0,0,1,0,.686h0v.148a.13.13,0,0,1-.148,0s-.148-.111-.111-.185a1.284,1.284,0,0,0,.111-.686.5.5,0,0,0-.2-.334s0,0,0-.093v-.575c0-.185-.185-.148-.241-.241m5.006,5.97a2.132,2.132,0,0,1-1.113-.3c-.278-.111-.575-.334-.408-.63s.167.093.241.2c.3.445.853.426,1.3.649h0m-1.854-1.15s0-.2.111-.278.2-.185.334-.093,0,0,0,.13-.2.111-.3.223-.148,0-.167,0m-.3-.426s-.093.093-.111.093,0-.111,0-.167,0-.13.111-.111a.3.3,0,0,1,.352-.315.2.2,0,0,1,.111.2.63.63,0,0,1-.445.3m-.482-.779h0v-.2c0-.074,0,0,.13,0a1.205,1.205,0,0,1,.575,0s.167,0,.111.13-.519,0-.723.167m.315-.649c0,.111-.241.13-.371.148v-.093c.148,0,.352-.241.371,0m-.779-.686h0a.909.909,0,0,1,.389,0H16.5c-.13.13-.3,0-.482,0a.371.371,0,0,1-.426,0m-.167-2.262a.167.167,0,0,1,0-.26,1.446,1.446,0,0,1,.8,0h.26a.223.223,0,0,1,.185.3c-.056.13-.241.334-.315.519a2.718,2.718,0,0,0,0,.779.556.556,0,0,1-.445.464h-.2c-.037,0,.222-.3.315-.464s0-.13,0-.167a1.687,1.687,0,0,1-.3-.445c-.093-.167,0-.334,0-.464s-.223-.26-.3-.26m6.119,4.858h.241l.223-.223s.241,0,.315.148a.2.2,0,0,1,0,.185.658.658,0,0,1-.167.2l-.2.111a.418.418,0,0,1-.408-.334m.612-4.951V17.3a9.735,9.735,0,0,1,1.038,0c.13,0,0,0,0,.093s-.241.426-.13.649,0,.668.167,1.038a.352.352,0,0,1,0,.3.538.538,0,0,1-.649,0c-.093,0,0-.185.093-.2H22.9a.445.445,0,0,0,.148-.482c0-.148-.223-.148-.371-.13s.315-.223.185-.315a2.634,2.634,0,0,1-.334-.148.289.289,0,0,0-.111-.222,1.985,1.985,0,0,1-.3-.26m1.242,2.04v.352c0-.019-.612-.148-.519-.26s.241,0,.408,0,.111-.241.185-.111m-.13.816h0a4.735,4.735,0,0,0-.464-.148c-.167-.037-.13,0-.093,0a1.785,1.785,0,0,0,.278-.167c.093-.056.26,0,.26.2h0v.111m-.482.909-.334-.167v-.13c0-.019.223,0,.3-.185s0-.223,0-.241.26,0,.26.111-.185.649-.371.575m-.13.8a.148.148,0,0,1-.2,0v-.093a1.265,1.265,0,0,0,.389-.241c.093.167,0,.3-.093.426m0,2.429H22.9c.223,0,0-.2.111-.334s.278.315.2.482-.2.111-.315.148-.3-.167-.2-.278m.445-.63h.148c.148,0,0-.093,0-.167h0a.909.909,0,0,1,.26.241c.056.111,0,0,0,.111a.2.2,0,0,1,0,.2h0s-.241-.13-.352-.2h0v-.093m.519-.556h.352v-.26a.5.5,0,0,1,.426.223.26.26,0,0,1,0,.26.323.323,0,0,0-.26.13c-.074.13,0,.13-.111.185s-.093,0-.111,0,0,0-.111-.093-.148-.093-.185-.13-.185-.13,0-.2m.556-1.242a.76.76,0,0,1,.723.148h0a.222.222,0,0,1-.26,0c-.148-.093-.315,0-.464-.167s-.093,0,0,0m.26-1.057h0v.111h0a.871.871,0,0,1,.649.167.746.746,0,0,1-.223.649c-.223.167-.241,0-.315,0s-.111-.148,0-.185.278-.2.2-.352-.278,0-.371,0,0-.111,0-.148M24.57,17.9a3.189,3.189,0,0,0,.482,0H25.2c.037,0,0-.2.167-.241a.13.13,0,0,1,.2,0,.519.519,0,0,1,0,.334c0,.111-.13.223-.167.334a1.02,1.02,0,0,0,0,.334,5.136,5.136,0,0,0,0,1.187.241.241,0,0,1-.111.241,1.15,1.15,0,0,1-.5.093h0c0-.111.093-.093.13-.167v-.2a1.112,1.112,0,0,0-.111-.686.2.2,0,0,0,.222-.148c0-.241.093-.593-.148-.723s-.26,0-.371-.093,0-.148,0-.148m.668,3.412h-.26c-.074,0,0-.352.111-.538a.464.464,0,0,1,0-.278h0a.13.13,0,0,1,.148,0,.649.649,0,0,1,0,.871m-.445,1.965c0,.13-.185.3-.3.167s-.223,0-.26-.167.111-.093.148-.2.185,0,.278,0,.167,0,.13.13m2.855-6.193a1.446,1.446,0,0,0-1.038.093.63.63,0,0,0-.167.853c.222.223.093.8.148,1.038a1.335,1.335,0,0,1,0,.538v.63a.464.464,0,0,0,0,.408v.278a2.651,2.651,0,0,0,0,.445,1.354,1.354,0,0,1,0,.538,5.562,5.562,0,0,1-.241.779.891.891,0,0,1-.185.593s-.093.389-.148.575a4.32,4.32,0,0,0-.482.538l-.408.593-.3.464s-.612.241-.7.482-.575.278-.946.612l-.723.278s-.482,0-.612.185a7.618,7.618,0,0,0-.8.185,1.854,1.854,0,0,1-.556-.519v-.519a1.631,1.631,0,0,0,0-.26h0a4.765,4.765,0,0,0,.927-.278,1.854,1.854,0,0,0,1.038-.426c.371,0,.389-.223.389-.223a2.707,2.707,0,0,0,.519-.2c.2,0,.408-.445.408-.445l.278-.26c.3-.148.538-.668.612-.779a3.708,3.708,0,0,0,.3-.519,5.785,5.785,0,0,0,.408-1.168,4.079,4.079,0,0,0,.2-.816c.093-.575.13-1.316.13-1.316a2.206,2.206,0,0,1,0-.612,2.355,2.355,0,0,1,0-.5,2.54,2.54,0,0,1,.278-1.168c.223-.352-.148-.742-.575-.76a1.354,1.354,0,0,0-.909.278c-.223.111-.519.63-.278.853s.2.686.26.927a1.926,1.926,0,0,1,0,.593.779.779,0,0,0-.093.445,1.65,1.65,0,0,1,0,.334,1.094,1.094,0,0,0,0,.408v.408l-.111.649a3.3,3.3,0,0,0-.426.816,4.005,4.005,0,0,1-.352.668,1.056,1.056,0,0,0-.241.13,1.632,1.632,0,0,0-.668.649,1.6,1.6,0,0,0-.575.389,1.613,1.613,0,0,0-.593.241l-.834.408H20.4a8.176,8.176,0,0,0,0-.964,3.542,3.542,0,0,0,1.854-.7c.2-.223.093-.278.26-.315s.371-.575.538-.742a3.708,3.708,0,0,0,.371-.8,2.93,2.93,0,0,0,.26-1.113c.2-.278,0-.723,0-.723V18.62a7.732,7.732,0,0,1,.093-1.205c.111-.389.111-.612-.26-.742a1.984,1.984,0,0,0-1.224,0c-.2.111-.723.649-.5.871a2.522,2.522,0,0,1,.556.946c0,.223.111.871.111.871v.464s-.093.742-.241.853-.111.389-.111.389l-.352.575a4.32,4.32,0,0,1-.5.482,1.446,1.446,0,0,1-.779.26H20.25a2.6,2.6,0,0,1,0-.426v-.464c0-.241-.111-.241-.111-.241l.111-.26s.13,0,.13-.167a.168.168,0,0,0-.13-.185,2.966,2.966,0,0,0,0-.7,1.966,1.966,0,0,0,0-.389,1.854,1.854,0,0,0,0-.779.983.983,0,0,1,0-.612c.093-.185.408-.686.519-.853s.2-.5-.63-.779a1.6,1.6,0,0,0-1.5.223c-.278.13-.167.556-.167.723s.538.556.538.742v.853c0,.074-.2.111-.2.2s.111.167.167.278,0,.111,0,.111-.167.185-.148.3,0,.315.167.352,0,.13,0,.241a.426.426,0,0,0-.111.278.7.7,0,0,0,.2.371.144.144,0,0,0-.148.167,1.094,1.094,0,0,0,0,.334c0,.111,0,.371,0,.7h0a1.428,1.428,0,0,1-1-.482.816.816,0,0,0-.352-.334s-.13-.538-.352-.593,0-.278-.111-.389a3,3,0,0,1-.278-.7.408.408,0,0,0,.093-.2v-.26a7.306,7.306,0,0,1,0-.983,2.8,2.8,0,0,1,.556-.946.482.482,0,0,0,0-.742,3.708,3.708,0,0,0-1.65,0c-.389.13-.668.408-.445.742a2.485,2.485,0,0,1,.352,1.094c0,.223,0,.723,0,.723a.723.723,0,0,0,0,.668,4.32,4.32,0,0,0,.315,1.279c.167.352.13.668.278.834s.371.575.538.63,0,.111.278.334a2.689,2.689,0,0,0,1.687.779.464.464,0,0,0,0,.185.519.519,0,0,1,.111.278.838.838,0,0,1-.13.408l-.278-.111-.742-.334a1.279,1.279,0,0,0-.612-.223c-.111-.2-.538-.352-.538-.352a2.133,2.133,0,0,0-.334-.408l-.371-.408a4.32,4.32,0,0,1-.5-.7,4.209,4.209,0,0,0-.408-.668s0-.7-.185-.76a.779.779,0,0,1,0-.352,1.335,1.335,0,0,0,0-.408,1.279,1.279,0,0,1,0-.334c0-.111,0-.13,0-.241a7.25,7.25,0,0,1,0-.8c0-.241-.111-.871.093-1.094a.556.556,0,0,0-.093-.8,1.724,1.724,0,0,0-1.131-.093c-.389.148-.668.426-.445.76a2.485,2.485,0,0,1,.352,1.094v.593a2.41,2.41,0,0,1,0,.63,5.558,5.558,0,0,0,.148,1.205,4.079,4.079,0,0,0,.2.816,3.541,3.541,0,0,0,.408.89,5.3,5.3,0,0,0,.3.519,2.059,2.059,0,0,0,.649.946l.315.223s.241.426.464.464a1.483,1.483,0,0,0,.482.278.76.76,0,0,0,.538.3s.148.26.723.315a3.708,3.708,0,0,0,.8.26h.334a.556.556,0,0,0,0,.167,2.759,2.759,0,0,1-.093.7l-.519-.111A7.416,7.416,0,0,0,17.6,26.5a1.428,1.428,0,0,0-.519-.241,3.337,3.337,0,0,1-.63-.315c-.371-.315-.927-.538-.964-.649s-.556-.389-.556-.389a2.633,2.633,0,0,0-.575-.612A2.17,2.17,0,0,0,14,23.868c-.167-.26-.352-.612-.352-.612a2.744,2.744,0,0,1-.13-.575,1.224,1.224,0,0,1-.241-.556l-.649-.927a2.688,2.688,0,0,1,0-.556,1.446,1.446,0,0,1-.167-.371,1.724,1.724,0,0,1,0-.389.26.26,0,0,0,0-.3.467.467,0,0,0-.111-.352,4.06,4.06,0,0,1,0-.816c0-.241-.13-.871,0-1.094a.556.556,0,0,0-.111-.8,1.372,1.372,0,0,0-1.02,0,.519.519,0,0,0-.3.834,1.428,1.428,0,0,1,.111.927v1.335a6.082,6.082,0,0,0,.111,1.038,3.245,3.245,0,0,0,.13.668c0,.222,0,.816.167.983a2.447,2.447,0,0,0,.278.519,1.9,1.9,0,0,0,.519,1,1.854,1.854,0,0,0,.519.871s.241.408.352.389.26.482.408.519.13.464.5.519a1.094,1.094,0,0,0,.612.482,1.205,1.205,0,0,0,.723.445s-.111.315.593.315h0a.871.871,0,0,0,.426.167,3.709,3.709,0,0,0,.834.26h.668v.76s.371,0,.371.278,0,.278.13.315.111,0,0,.278a.464.464,0,0,0,0,.278.519.519,0,0,0-.278.5h-.185V30.8h.352a.26.26,0,0,1,0,.13v.5c0,.074-.167.2-.223.278a1.984,1.984,0,0,0-.8,1.632c0,.315-.426.389-.8.5h5.841c-.408-.111-.593-.185-.612-.5a1.984,1.984,0,0,0-.816-1.632,2.774,2.774,0,0,1-.223-.278c-.056-.093,0-.408,0-.5a.26.26,0,0,1,0-.13h.371v-.334h-.2a.519.519,0,0,0-.278-.5.538.538,0,0,0,0-.278c-.093-.2,0-.278,0-.278a.488.488,0,0,0,.13-.315c0-.185.371-.278.371-.278V28.04l.816-.2a4.618,4.618,0,0,0,.593-.148c.185,0,.167-.167.371-.167.686,0,.7-.223.7-.223a.76.76,0,0,0,.63-.538,1.52,1.52,0,0,0,.834-.519c.315,0,.464-.5.464-.5l.5-.519.278-.389a2.132,2.132,0,0,0,.519-1.038c.315-.26.3-.593.371-.686a4.506,4.506,0,0,0,.26-.723,5.284,5.284,0,0,0,.241-1,4.468,4.468,0,0,0,.111-.668,4.346,4.346,0,0,1,.13-1.057v-1.3a1.428,1.428,0,0,1,0-.871.612.612,0,0,0-.278-.927" transform="translate(-3846.156 13028.356)" fill="#2966ff"/>
      <path id="Path_11" data-name="Path 11" d="M19.008,28.164h.2a.3.3,0,0,1,.278,0,.223.223,0,0,1,.13.26,1.205,1.205,0,0,1,0,.241h0a.464.464,0,0,0,.241-.093h0l.111-.093h0l-.111.13h0a.464.464,0,0,1-.26.111h-.2a.649.649,0,0,0,.111-.26.222.222,0,0,0-.111-.222h-.223a.334.334,0,0,1-.222,0Zm-.816.3v.111h0a.334.334,0,0,1,.111.167h0a.241.241,0,0,1,0,.223.26.26,0,0,1-.2.13H17.71l-.371-.111h.056a.908.908,0,0,0,.315.111,1.242,1.242,0,0,0,.371,0h0a.2.2,0,0,0,.185-.3h0a.334.334,0,0,0,0-.13h0a.111.111,0,0,1,0-.13.167.167,0,0,1,0-.111Zm-1.224.185h.074a1,1,0,0,0,.464,0h0s.148-.093.148-.148h0v-.111c0-.111,0-.241.148-.278a.26.26,0,0,1,.278,0,.389.389,0,0,0,.241.093h0a.315.315,0,0,1-.26-.093.278.278,0,0,0-.222,0c-.093,0-.111.148-.13.241s0,0,0,.111a.315.315,0,0,1-.167.2h-.111a1.075,1.075,0,0,1-.482,0h0Zm2.058-.2h0a.908.908,0,0,1,0,.222v.389h0a.538.538,0,0,0,.3,0h.111a.575.575,0,0,0,.241,0h0a.464.464,0,0,0,.222-.241h0a.816.816,0,0,1-.241.26h0a.5.5,0,0,1-.26,0h-.111a.464.464,0,0,1-.315,0c-.185-.111-.148-.278-.093-.445s0-.13,0-.2h0Z" transform="translate(-3840.909 13038.301)" fill="#2966ff"/>
      <path id="Path_12" data-name="Path 12" d="M17.871,26.891h0a.2.2,0,0,1,0,.093h0Zm.334.612h-.111a.521.521,0,0,1-.445-.26h0a.556.556,0,0,1-.093-.3h0a.334.334,0,0,1-.26-.26h0a.342.342,0,0,0-.278.223h0a.482.482,0,0,1,.315-.26h.111a.334.334,0,0,0,.223.278h.111a.408.408,0,0,1,.13-.167h.111a.26.26,0,0,1,.26,0h0a.426.426,0,0,1,0,.445h0a.408.408,0,0,0,0-.389h0a.167.167,0,0,0-.185,0H18a.389.389,0,0,0-.13.241.779.779,0,0,0,0,.278h0a.63.63,0,0,0,.426.241h.111ZM17,27.169h0a.241.241,0,0,0,.13-.093H17a.241.241,0,0,1,.167,0h0a.167.167,0,0,1,0,.093h0A.3.3,0,0,1,17,27.3h0Zm.742.167h-.371l-.352.111h0l.389-.111H17.8Z" transform="translate(-3840.866 13037.089)" fill="#2966ff"/>
      <path id="Path_13" data-name="Path 13" d="M16.362,28.4a.371.371,0,0,0-.148,0,.26.26,0,0,0-.167,0h0c-.093,0-.093.13-.111.2a.5.5,0,0,0,0,.167H15.75a.167.167,0,0,1,0,.111.593.593,0,0,0,.482.093h.093a.168.168,0,0,0,.167-.148.389.389,0,0,0,0-.148.334.334,0,0,0-.093-.13" transform="translate(-3841.934 13038.568)" fill="#2966ff"/>
      <path id="Path_14" data-name="Path 14" d="M15,28.319h0a.3.3,0,0,1,.148.093h.111A.686.686,0,0,0,15,28.3h0" transform="translate(-3842.574 13038.498)" fill="#2966ff"/>
      <path id="Path_15" data-name="Path 15" d="M25.482,31.955H20.55v-2.8h4.932Zm-5.173-5.748h3.3v2.448h-3.3Zm-.3,4.6h0a.334.334,0,0,1-.2.185h-.093A.538.538,0,0,1,19.2,30.9a.612.612,0,0,1-.26.185,1.446,1.446,0,0,1-.482,0h0a1.353,1.353,0,0,0,.464,0,.464.464,0,0,0,.3-.3.241.241,0,0,0,0-.111.315.315,0,0,0,0-.13h0v-.093h0a.3.3,0,0,0-.278,0h0a.241.241,0,0,0,0,.111h0a.538.538,0,0,0-.185,0,.26.26,0,0,0-.167,0h-.13a.111.111,0,0,0-.093,0h-.315a.278.278,0,0,0-.2,0,.334.334,0,0,0,0,.315,1.205,1.205,0,0,0,0,.371h0a1.335,1.335,0,0,1-.093-.389.371.371,0,0,1,.111-.352.278.278,0,0,1,.241,0,.575.575,0,0,1,.241,0h-.482a.556.556,0,0,1,.389.185h0a.538.538,0,0,1,.185,0h0a.115.115,0,0,1,.093-.111.371.371,0,0,1,.334,0h0a.408.408,0,0,1,0,.148h.2V30.6c0-.037,0-.222.148-.26a.389.389,0,0,1,.371.093,16221.815,16221.815,0,0,1,0,.334m-2.262.111a.721.721,0,0,0-.2-.167.575.575,0,0,1-.167-.13h0a.445.445,0,0,1,0,.148h0V30.6a.26.26,0,0,1,0-.111h.13l.167.111a.275.275,0,0,1,.223.2Zm-.111.371H17.12a.13.13,0,0,1-.111,0h0a1,1,0,0,1-.278.167h0a.482.482,0,0,0,.26-.167h.222Zm-1.187.445H15.9V29.4H19.03v.148H16.452Zm-.334.223h.315V29.025h3.708v.148H16.007Zm-.834-3.986v-.093h0Zm.8-.538h0a.334.334,0,0,1-.26.26h0a.612.612,0,0,1,0,.315h.389l.371.111h0l-.371-.111h-.371a.76.76,0,0,1-.426.2h-.111a.686.686,0,0,0,.426-.222h0a.482.482,0,0,0,0-.278.278.278,0,0,0-.13-.241h-.2a.334.334,0,0,0,0,.389h0a.426.426,0,0,1,0-.445h0a.241.241,0,0,1,.241,0h.111a.334.334,0,0,1,.13.148h.111a.334.334,0,0,0,.223-.278h.093a.4.4,0,0,1,.334.278h0a.519.519,0,0,0-.334-.241m.223.426h-.148a.241.241,0,0,0,.223.111h0a.3.3,0,0,1-.278-.13.2.2,0,0,1,0-.093h0a.334.334,0,0,1,.185,0Zm-.593,3.708h-.371a.463.463,0,0,1-.315,0c-.185-.111-.148-.278,0-.445s0-.148,0-.2h0a.5.5,0,0,1,0,.222c0,.148,0,.3,0,.371h0a.556.556,0,0,0,.3,0h.111a.575.575,0,0,0,.241,0h0a.612.612,0,0,0,.241-.241h0a.649.649,0,0,1-.241.26m-1.391-1.038h-.222c-.074,0-.111.148-.13.26h0a.389.389,0,0,1-.185.2h-.167a.315.315,0,0,1-.185,0,.482.482,0,0,1,0-.167v-.13h0v.111a.371.371,0,0,0,0,.148h.3a.26.26,0,0,0,.148-.167h0a.13.13,0,0,0,0-.093c0-.111,0-.241.167-.3h.278a.315.315,0,0,0,.223,0h0a.371.371,0,0,1-.278-.093m0,.964a.334.334,0,0,1-.185.13h0a.834.834,0,0,1-.371,0A1.409,1.409,0,0,1,13.1,31.1h.037l.334.093h.389a.278.278,0,0,0,.167-.111.3.3,0,0,0,0-.185h0a.185.185,0,0,0,0-.13h0a.167.167,0,0,1,0-.185h0v.111h0a.185.185,0,0,1,.093.148h0a.26.26,0,0,1,0,.223m-1.52.464h-.3V29.674h2.707v.111H12.447Zm2.874-1.075.111-.111h0a.315.315,0,0,1-.111.111h0a.445.445,0,0,1-.26.093h-.13a.871.871,0,0,0,.111-.278.222.222,0,0,0-.111-.2.241.241,0,0,0-.223,0,.5.5,0,0,1-.222,0h0a.426.426,0,0,0,.2,0,.3.3,0,0,1,.278,0,.26.26,0,0,1,.13.278,1.038,1.038,0,0,1,0,.222h0a.334.334,0,0,0,.241,0h0m-3.189,1.3h-.148V29.3h3.208v.148H12.132ZM15.822,26.3v.13H14.339v1.743h-.185V26.318h1.465Zm-1.854-.315h2.04v.13H13.986V28.45h-.13Zm2.373,0h3.708v.13H16.378V28.45H16.23Zm.482.445v1.743h-.26V26.318h3.152v.13Zm.668,1.279s0,.093-.13.111h0l.111-.093c.111-.093,0-.111.148-.111h.111a.315.315,0,0,1,.13.315h0a.222.222,0,0,0-.2-.13h-.167l-.111.093m1.743,0h0a.3.3,0,0,1,0-.222h0a1.02,1.02,0,0,1-.742,0,.575.575,0,0,1-.185-.093.5.5,0,0,1-.148-.13h0a.242.242,0,0,0,.185.278h0c-.13-.093-.241-.2-.2-.352h.241l.148.13h.167a.983.983,0,0,0,.871-.111h0a.3.3,0,0,0-.13.13.185.185,0,0,0,0,.167m.7-.426a.148.148,0,0,1-.13-.13h0s0-.185-.148-.222H19.53a.612.612,0,0,0-.185.111l-.13.093h0a.686.686,0,0,1-.5,0,1.632,1.632,0,0,1-.482-.223.315.315,0,0,0-.185,0h0A.3.3,0,0,0,17.9,27a.119.119,0,0,1-.111.111h-.26a.148.148,0,0,0,0,.148.148.148,0,0,1,0,.148h0v.111h0a.3.3,0,0,1,0-.13.167.167,0,0,1,0-.111h0v-.3a.278.278,0,0,1,.167,0h.111v-.093a.3.3,0,0,1,.167-.13h0a.5.5,0,0,1,.222,0h0a1.428,1.428,0,0,0,.445.222.63.63,0,0,0,.482,0h.111a.76.76,0,0,1,.2-.13h.26a.426.426,0,0,1,.185.278h.074m-.371.389h0a.223.223,0,0,1,.222-.2.3.3,0,0,1,.167,0h.111l-.371.612a.2.2,0,0,0-.13,0s-.13,0-.167.167m4.394.964V25.91H13.5v3H11.65v3.319H25.723V28.914Z" transform="translate(-3845.436 13036.457)" fill="#2966ff"/>
      <path id="Path_16" data-name="Path 16" d="M16.583,28.084h2.429V26.36H16.583Zm-.093,0V26.23H19.1v1.854H16.49Z" transform="translate(-3841.302 13036.729)" fill="#2966ff"/>
      <path id="Path_17" data-name="Path 17" d="M16.783,29.87H20.7V27.923H16.783Zm0,0V27.83h4.005V30h-4.1Z" transform="translate(-3841.131 13038.097)" fill="#2966ff"/>
      <path id="Path_18" data-name="Path 18" d="M13.884,33.87c0,.482,0,.612-.167.723a6.322,6.322,0,0,1-1.094.538l.093-.315a6.339,6.339,0,0,0,.7-.278c.334-.13.2-1.094.2-1.261s0-.2-.111-.241H11.343a9.122,9.122,0,0,0,0-1.539c0-.426,0-.927,0-.927.5-.241-.13-.241-.13-.241v-.593c0,.111.5,0,.593,0s.167.111,0,.167,0,.223-.148.519a10.493,10.493,0,0,0,0,2.169V32.7h2.225a3.226,3.226,0,0,0,0,1.113m-1.965-1.632h0V30.644c0-.074,0-.7.3-.834s0-.223-.111-.185a2.818,2.818,0,0,1-1.168,0l-.185.964s.593,0,.111.334a3.3,3.3,0,0,1,0,.649,9.6,9.6,0,0,1-.111,1.854h2.373c.111,0,.148,0,.148.26s.13.686-.26.816a2.058,2.058,0,0,1-.779.167l-.167.964a9.865,9.865,0,0,0,1.335-.538c.278-.185.667-.334.667-.927a6.119,6.119,0,0,1,.148-1.854Z" transform="translate(-3846.205 13039.622)" fill="#2966ff"/>
      <rect id="Rectangle_5" data-name="Rectangle 5" width="4.784" height="9.568" transform="translate(-3791.937 13055.228)" fill="#9ee0fc"/>
      <rect id="Rectangle_6" data-name="Rectangle 6" width="23.9" height="14.351" transform="translate(-3782.37 13064.777)" fill="#9ee0fc"/>
      <rect id="Rectangle_7" data-name="Rectangle 7" width="19.117" height="9.549" transform="translate(-3782.37 13064.777)" fill="#fff"/>
      <rect id="Rectangle_8" data-name="Rectangle 8" width="4.784" height="9.568" transform="translate(-3787.154 13055.228)" fill="#fff"/>
      <rect id="Rectangle_9" data-name="Rectangle 9" width="4.784" height="9.549" transform="translate(-3787.154 13064.777)" fill="#9ee0fc"/>
      <rect id="Rectangle_10" data-name="Rectangle 10" width="23.9" height="14.351" transform="translate(-3787.154 13040.877)" fill="#9ee0fc"/>
      <rect id="Rectangle_11" data-name="Rectangle 11" width="19.117" height="9.549" transform="translate(-3782.37 13045.66)" fill="#fff"/>
      <rect id="Rectangle_12" data-name="Rectangle 12" width="4.784" height="9.549" transform="translate(-3763.253 13045.66)" fill="#9ee0fc"/>
    </g>
    <rect id="Rectangle_1-2" data-name="Rectangle 1" width="0.445" height="38.121" transform="translate(52.272 19.091)" fill="#0f4ea4"/>
    <path id="Path_1-2" data-name="Path 1" d="M37.776,14.32V42.447s.148,6.712-8.2,7.639c-.5,0-5.748,0-7.083,1.854-1.335-2-6.564-1.854-7.083-1.854-8.344-.927-8.2-7.639-8.2-7.639V14.32Z" transform="translate(4.78 4.771)" fill="#fff"/>
    <path id="Path_2-2" data-name="Path 2" d="M12.459,45.305c0,.167,0,.2-.222,0a2.04,2.04,0,0,1-.742-.76,4.005,4.005,0,0,0,.8.5c.167,0,.2,0,.167.167m.241-.371s-1.483-.371-1.613-1.15a1.854,1.854,0,0,1,.222-1.057s.426-.093.464-.26a.389.389,0,0,0-.222-.482.334.334,0,0,0-.482.13.219.219,0,0,0,0,.315s.26.352-.2.686a5.359,5.359,0,0,1-.3-1.409,11.329,11.329,0,0,1,.909-1.984c.2-.352.686-1.038.686-1.038a5.358,5.358,0,0,1-1.057,2.874,3.931,3.931,0,0,0,1.576-3.189,9.086,9.086,0,0,0-.167-1.131,18.95,18.95,0,0,0-1.372,2.077,10.013,10.013,0,0,0-.649,1.576s0-1.242,0-1.391a4.728,4.728,0,0,1,.612-.871s.26,0,.352-.148.111-.445-.111-.538-.5.167-.5.167a.668.668,0,0,0,0,.445l-.389.334V37.555a12.979,12.979,0,0,1,.909-1.854c.2-.352.686-1.057.686-1.057a5.377,5.377,0,0,1-1.057,2.892,3.894,3.894,0,0,0,1.5-3.245c0-.3-.093-1.075-.093-1.075a15.426,15.426,0,0,0-1.372,1.854,8.529,8.529,0,0,0-.593,1.539s0-1.112,0-1.261a4.468,4.468,0,0,1,.612-.853s.26,0,.352-.167.111-.445-.111-.538-.5.167-.5.167a.667.667,0,0,0,0,.445l-.389.334V33.457a12.979,12.979,0,0,1,.909-1.854c.2-.352.686-1.038.686-1.038a5.358,5.358,0,0,1-1.057,2.874,3.931,3.931,0,0,0,1.576-3.189,9.271,9.271,0,0,0-.167-1.112,14.2,14.2,0,0,0-1.316,1.854,12.2,12.2,0,0,0-.649,1.613V31.343a4.728,4.728,0,0,1,.612-.871s.26,0,.352-.148.111-.464-.111-.556-.5.167-.5.167a.668.668,0,0,0,0,.445l-.389.352V29.638a8.455,8.455,0,0,1,.816-1.854l.519-.853a4.45,4.45,0,0,1-.853,2.577,3,3,0,0,0,1.409-2.744c0-.315,0-1.335,0-1.335A12.108,12.108,0,0,0,10.9,27.116a9.271,9.271,0,0,0-.538,1.632V27.505a5.822,5.822,0,0,1,.389-.779s.278.093.371,0a.373.373,0,0,0,0-.519c-.185-.167-.464.093-.464.093a.445.445,0,0,0,0,.389l-.241.278v-.89a6.137,6.137,0,0,1,.7-1.854l.63-1.02a4.079,4.079,0,0,1-.8,2.466,3.986,3.986,0,0,0,1.595-3.134c0-.315-.093-1.224-.093-1.224a13.406,13.406,0,0,0-1.483,1.854,4.728,4.728,0,0,0-.482,1.854s0-1.242,0-1.372a6.323,6.323,0,0,1,.3-.686.26.26,0,0,0,.3-.111.334.334,0,0,0-.167-.464c-.222-.13-.315,0-.315,0a.612.612,0,0,0,0,.445l-.185.148v-1a9.03,9.03,0,0,1,.816-1.854c.222-.352.76-1.038.76-1.038a3.708,3.708,0,0,1-.816,2.41,2.633,2.633,0,0,0,1.354-2.522,3.56,3.56,0,0,0,0-1.057,9.734,9.734,0,0,0-1.557,1.724,10.587,10.587,0,0,0-.63,1.854V15.935a5.247,5.247,0,0,1,.482,3.115,9.067,9.067,0,0,0,.352-1.576A2.818,2.818,0,0,0,10.7,15.88a8.789,8.789,0,0,1-.389-1.02A2.93,2.93,0,0,1,9.919,15.9a3.319,3.319,0,0,0-.408,1.632,7.417,7.417,0,0,0,.482,2.188c0,.13,0,1.947,0,1.947a4.8,4.8,0,0,1-1.131-1.131,4.543,4.543,0,0,1-.5-1.576s.371.426.593.649a9.938,9.938,0,0,1,.76,1.131c.111-1.224-1.854-2.8-1.854-2.8a6.378,6.378,0,0,0,.5,3.078,4.19,4.19,0,0,0,1.613,1.168v.779L9.7,22.8a.538.538,0,0,0,0-.445s-.278-.241-.5-.111-.148.389,0,.556a.4.4,0,0,0,.371.111,2.762,2.762,0,0,1,.482.556v2.114a3.912,3.912,0,0,1-1-1.187,5.748,5.748,0,0,1-.575-1.465s.445.371.667.593a8.2,8.2,0,0,1,.63,1.02c.111-1.224-1.854-2.967-1.854-2.967a6.935,6.935,0,0,0,.5,3.078,3.8,3.8,0,0,0,1.613,1.316v.76l-.426-.3a.593.593,0,0,0,0-.445s-.278-.223-.5-.111-.167.389,0,.556a.352.352,0,0,0,.352.111,4.951,4.951,0,0,1,.63.779v2.114a4.135,4.135,0,0,1-1.057-1.205,6.008,6.008,0,0,1-.575-1.465s.445.352.667.575a8.084,8.084,0,0,1,.63,1.038C9.863,27.153,7.9,25.392,7.9,25.392a7.046,7.046,0,0,0,.5,3.1A3.82,3.82,0,0,0,10.03,29.8v.816L9.6,30.3a.593.593,0,0,0,0-.445s-.278-.2-.5-.093-.167.371,0,.538a.352.352,0,0,0,.352.111,6.063,6.063,0,0,1,.63.779v2.114a4.135,4.135,0,0,1-1.057-1.187,6.007,6.007,0,0,1-.575-1.465s.445.352.667.575a8.2,8.2,0,0,1,.63,1.02C9.863,31.028,7.9,29.285,7.9,29.285a6.934,6.934,0,0,0,.5,3.078A3.931,3.931,0,0,0,10.012,33.7v1.02l-.426-.3a.593.593,0,0,0,0-.445s-.278-.222-.5-.111-.167.389,0,.556a.352.352,0,0,0,.352.111,4.951,4.951,0,0,1,.63.779c0,.13,0,2.114,0,2.114A4.135,4.135,0,0,1,9.01,36.22a6.007,6.007,0,0,1-.575-1.465s.445.352.667.575a8.084,8.084,0,0,1,.63,1.038c.111-1.224-1.854-2.985-1.854-2.985a7.046,7.046,0,0,0,.5,3.1,3.708,3.708,0,0,0,1.613,1.3V38.8l-.426-.3a.593.593,0,0,0,0-.445s-.278-.222-.5-.111-.167.389,0,.556a.352.352,0,0,0,.352.111,6.063,6.063,0,0,1,.63.779v2.1A4.135,4.135,0,0,1,8.992,40.3a6.007,6.007,0,0,1-.575-1.465s.445.352.667.575a8.084,8.084,0,0,1,.63,1.038c.111-1.224-1.854-2.967-1.854-2.967a6.972,6.972,0,0,0,.5,3.078,3.931,3.931,0,0,0,1.669,1.335,7.228,7.228,0,0,0,.167,1.279c-.371-.241-.2-.538-.2-.538a.445.445,0,0,0-.111-.389c-.167-.148-.334-.26-.556-.148s-.111.315,0,.482a1,1,0,0,0,.334.278,7.231,7.231,0,0,0,.964.834,3.949,3.949,0,0,0,2.54,2.447Z" transform="translate(5.307 5.232)" fill="#2966ff"/>
    <path id="Path_3-2" data-name="Path 3" d="M21.109,45.462c-.167.111-.185,0-.222-.093s0-.13.167-.167a3.708,3.708,0,0,0,.816-.5,1.854,1.854,0,0,1-.76.76m2.781-6.248a9.271,9.271,0,0,0-.649,1.595s0-1.261,0-1.409a4.469,4.469,0,0,1,.612-.853s.26,0,.352-.167.13-.445-.111-.538-.482.148-.482.148a.649.649,0,0,0,0,.464l-.389.334v-1.3a12.98,12.98,0,0,1,.909-1.854c.222-.352.7-1.057.7-1.057A5.414,5.414,0,0,1,23.8,37.489a3.912,3.912,0,0,0,1.483-3.282c0-.3-.093-1.075-.093-1.075a16.689,16.689,0,0,0-1.372,1.854,8.214,8.214,0,0,0-.593,1.557V35.264a4.728,4.728,0,0,1,.612-.871s.26,0,.352-.148.13-.464-.111-.556-.482.167-.482.167a.612.612,0,0,0,0,.445l-.389.352v-1.3a12.775,12.775,0,0,1,.909-1.854c.222-.352.7-1.057.7-1.057a5.414,5.414,0,0,1-1.075,2.911,3.949,3.949,0,0,0,1.65-3.282,8.232,8.232,0,0,0-.185-1.131A17.206,17.206,0,0,0,23.89,30.8a10.1,10.1,0,0,0-.649,1.613V31.129a4.728,4.728,0,0,1,.612-.871s.26,0,.352-.148.13-.464-.111-.538a.573.573,0,0,0-.482.148.649.649,0,0,0,0,.464l-.389.334V29.423a9.976,9.976,0,0,1,.816-1.854l.538-.853a4.487,4.487,0,0,1-.871,2.6,3.041,3.041,0,0,0,1.428-2.763V25.214A10.791,10.791,0,0,0,23.779,26.9a9.048,9.048,0,0,0-.538,1.65V27.291a5.822,5.822,0,0,1,.389-.779s.278.093.371,0a.374.374,0,0,0,0-.519.445.445,0,0,0-.464,0,.482.482,0,0,0-.111.371l-.241.278v-.909a6.082,6.082,0,0,1,.723-1.854c.2-.352.63-1.02.63-1.02a4.042,4.042,0,0,1-.816,2.485,3.968,3.968,0,0,0,1.557-2.967c0-.315-.093-1.242-.093-1.242A13.2,13.2,0,0,0,23.7,22.989a4.987,4.987,0,0,0-.482,1.854s0-1.242,0-1.391a5.377,5.377,0,0,1,.315-.686.241.241,0,0,0,.3-.111.352.352,0,0,0-.167-.464c-.241-.13-.334,0-.334,0a.649.649,0,0,0,.093.464l-.185.148V21.9a8.955,8.955,0,0,1,.816-1.854c.223-.352.779-1.057.779-1.057A3.708,3.708,0,0,1,24,21.413a2.633,2.633,0,0,0,1.279-2.6,3.56,3.56,0,0,0-.093-1.057A9.994,9.994,0,0,0,23.612,19.5a13.146,13.146,0,0,0-.649,1.854V15.8a5.173,5.173,0,0,1,.464,3.152,9.067,9.067,0,0,0,.352-1.576,2.837,2.837,0,0,0-.482-1.613,8.845,8.845,0,0,1-.389-1.038,3.078,3.078,0,0,1-.389,1.057,3.708,3.708,0,0,0-.426,1.65,8.121,8.121,0,0,0,.63,2.188,17.6,17.6,0,0,1,0,1.947,4.654,4.654,0,0,1-1.15-1.131,4.543,4.543,0,0,1-.5-1.576s.371.426.593.649a10.718,10.718,0,0,1,.779,1.131c.111-1.224-1.854-2.818-1.854-2.818a6.545,6.545,0,0,0,.5,3.115A4.19,4.19,0,0,0,22.722,22.1v.779l-.148-.222a.686.686,0,0,0,0-.464s-.278-.223-.5-.111-.167.408,0,.575a.352.352,0,0,0,.352.111,2.114,2.114,0,0,1,.482.575c0,.13,0,2.114,0,2.114A3.912,3.912,0,0,1,21.85,24.25a5.563,5.563,0,0,1-.593-1.483s.445.371.667.593a6.823,6.823,0,0,1,.649,1.038c.111-1.224-1.854-3-1.854-3a7.1,7.1,0,0,0,.5,3.115,4.042,4.042,0,0,0,1.632,1.335v.76l-.426-.241a.649.649,0,0,0,0-.464s-.3-.2-.5-.111-.185.408,0,.575a.352.352,0,0,0,.352.111,4.172,4.172,0,0,1,.612.779c0,.13,0,2.132,0,2.132a4.394,4.394,0,0,1-1.057-1.205,5.878,5.878,0,0,1-.593-1.483s.445.352.667.575a6.824,6.824,0,0,1,.649,1.038c.111-1.224-1.854-2.985-1.854-2.985a7.046,7.046,0,0,0,.5,3.1,3.875,3.875,0,0,0,1.65,1.335v.816l-.426-.3a.649.649,0,0,0,0-.464s-.3-.2-.5-.093a.337.337,0,0,0,0,.556.352.352,0,0,0,.352.111,4.172,4.172,0,0,1,.612.779V33.3a4.394,4.394,0,0,1-1.057-1.205,5.562,5.562,0,0,1-.593-1.483s.445.371.667.593a6.9,6.9,0,0,1,.649,1.02C22.666,31,20.7,29.238,20.7,29.238a7.138,7.138,0,0,0,.5,3.115,4.042,4.042,0,0,0,1.632,1.335v1.038l-.426-.315a.593.593,0,0,0,0-.445s-.3-.223-.5-.111a.337.337,0,0,0,0,.556.352.352,0,0,0,.352.111,4.45,4.45,0,0,1,.612.8c0,.13,0,2.114,0,2.114a4.135,4.135,0,0,1-1.057-1.187,5.878,5.878,0,0,1-.593-1.483s.445.352.667.575a6.823,6.823,0,0,1,.649,1.038c.111-1.242-1.854-3-1.854-3a7.1,7.1,0,0,0,.5,3.115A3.931,3.931,0,0,0,22.815,37.8v1.02l-.426-.3a.593.593,0,0,0,0-.445s-.3-.222-.5-.111a.337.337,0,0,0,0,.556.352.352,0,0,0,.352.111,4.914,4.914,0,0,1,.612.779v2.132a4.135,4.135,0,0,1-1.057-1.205,5.562,5.562,0,0,1-.593-1.483s.445.371.667.593a6.823,6.823,0,0,1,.649,1.038c.111-1.242-1.854-3-1.854-3a7.1,7.1,0,0,0,.5,3.115,4.172,4.172,0,0,0,1.613,1.354A3.708,3.708,0,0,1,22.5,43.2c-.464-.334-.185-.686-.185-.686V42.2a.334.334,0,0,0-.482-.13.389.389,0,0,0-.223.482c0,.167.464.26.464.26a1.854,1.854,0,0,1,.222,1.075c-.13.779-1.613,1.15-1.613,1.15l-.352,1.224a4,4,0,0,0,2.54-2.466,8.789,8.789,0,0,0,.983-.834s.278-.13.334-.3.167-.389,0-.5-.389,0-.556.167a.445.445,0,0,0-.111.389s.111.241-.408.519a14.3,14.3,0,0,0,.223-1.446,11.755,11.755,0,0,1,.909-2.021c.222-.352.7-1.038.7-1.038a5.414,5.414,0,0,1-1.075,2.911,3.986,3.986,0,0,0,1.595-3.226,8.233,8.233,0,0,0-.185-1.131,22.622,22.622,0,0,0-1.316,1.965" transform="translate(15.978 5.112)" fill="#2966ff"/>
    <path id="Path_4-2" data-name="Path 4" d="M17.757,31.756V33.8H17.5V31.941H16.07a.26.26,0,0,1-.278-.241v-.278a.538.538,0,0,0,.371.185H17.5a.167.167,0,0,1,.185.185m0-.612H15.829a.834.834,0,0,1-.482-.241l-.3,1.038a.334.334,0,0,0,.352.3h1.5v2.169l.909-.371V31.422s0-.278-.222-.278" transform="translate(11.468 18.967)" fill="#2966ff"/>
    <path id="Path_5-2" data-name="Path 5" d="M20.719,31.868a3.578,3.578,0,0,0-.13.8h-.222V31.98a.723.723,0,0,1-.482,0l.167-.426h.538c.111,0,.167,0,.093.2m.2-.8h-.723a2.893,2.893,0,0,1-.389-.13l-.464,1.261c.111.111.686,0,.686,0L19.885,33l.927-.241a3.949,3.949,0,0,1,.278-1.465c0-.278,0-.426-.2-.426" transform="translate(15.107 18.873)" fill="#2966ff"/>
    <path id="Path_6-2" data-name="Path 6" d="M16.192,33.885l-.167-.13-2.336-1.613v1.465h.63l-.2.315h-.742a8.2,8.2,0,0,0,0-.983c0-.3-.093-1.038-.093-1.038a.982.982,0,0,0,.13-.185s.111-.093.185,0a9.271,9.271,0,0,0,2.689,1.854Zm-.352-2.559a.76.76,0,0,0,.26,0h.222c.13,0,.111.167.111.278v.2a.834.834,0,0,1,0,.426,1.465,1.465,0,0,1-.26.2,3,3,0,0,0,0-.612h-.445a1.947,1.947,0,0,0,.148-.445m.334,1.743c-.111,0,0-.241,0-.241a2,2,0,0,0,.352-.26.426.426,0,0,0,.148-.352v-.983c0-.148,0-.2-.13-.222a4.839,4.839,0,0,0-.742,0,1.168,1.168,0,0,1-.315,0,5.82,5.82,0,0,1-.371,1.038,1.5,1.5,0,0,0,.389.093c.148,0,0,0,.111.111a1.5,1.5,0,0,1,0,.5,15.242,15.242,0,0,1-2.04-1.576h-.26a6.956,6.956,0,0,0-.445.667s.167.779.2,1.112a9.827,9.827,0,0,1-.185,1.372h1.428l.371-.909h-.779V32.7s2.021,1.52,2.151,1.595.167,0,.167,0l.426-.871c-.148,0-.426-.26-.538-.315" transform="translate(9.64 19.063)" fill="#2966ff"/>
    <path id="Path_7-2" data-name="Path 7" d="M20.871,32.746a1.187,1.187,0,0,1,0,.352s-.464.445-.519.5a.445.445,0,0,1-.185.111l-2.522.334V32.412c0-.037.3-.352.13-.408a1.3,1.3,0,0,1-.334-.093l.2-.426H18c.093,0,.2,0,.167.13s-.167.556-.241.76a3.708,3.708,0,0,0,0,1.205h.667l.7-1.669h-.389l.167-.334h.5c0,.093-.612,1.984-.612,1.984s1.094-.148,1.187-.185a1.187,1.187,0,0,0,.445-.464,6.787,6.787,0,0,0,.111-.89h-.278l.13-.445h.371s-.093,1.02-.093,1.131m-.5-1.576-.3.964h.315a2.244,2.244,0,0,1,0,.593.612.612,0,0,1-.278.352,6.786,6.786,0,0,1-.779.148s.575-2,.575-2.114h-.964l-.352.909.334.093a12.979,12.979,0,0,1-.556,1.205,1.205,1.205,0,0,1-.148-1.094,3.281,3.281,0,0,1,.3-.964c.074-.148-.111-.148-.2-.148a1.6,1.6,0,0,1-.927-.167l-.408.927a.519.519,0,0,0,.371.241c.278,0,0,.278,0,.315a.408.408,0,0,0-.111.3c0,.148,0,1.65,0,1.65l3.022-.426c.13,0,.13,0,.222-.13s.519-.612.575-.667,0,0,0-.2.111-1.854.111-1.854Z" transform="translate(13.082 18.941)" fill="#2966ff"/>
    <path id="Path_8-2" data-name="Path 8" d="M15.88,24.17l.019.019h.019l-.037-.019Z" transform="translate(12.177 13.184)" fill="#2966ff"/>
    <path id="Path_9-2" data-name="Path 9" d="M15.88,24.17Z" transform="translate(12.177 13.184)" fill="#2966ff"/>
    <path id="Path_10-2" data-name="Path 10" d="M27.685,17.267c-.111.371-.408.742-.26,1.15s.241.5.093.7a.352.352,0,0,1-.5,0,.111.111,0,0,1,0-.13c.093-.167.334-.3.222-.519s0-.5-.13-.7-.389-.334-.464-.593.519-.352.816-.3.315.13.241.315m-.111,2.188c-.13,0-.315.093-.371,0s.185,0,.3,0h.111m0,.871H27.5a2.123,2.123,0,0,1-.482-.185c-.148-.093-.13-.167,0-.167s.3-.13.482-.148h0c.111,0,.13-.148.185-.241s.111,0,.111,0a1.131,1.131,0,0,1,0,.7m0,.5c-.222,0-.408-.13-.63-.148s-.148,0-.13-.111h.519c.185,0,.185,0,.241.167s0,.148,0,.148m0,.667c0,.148-.2.241-.241.445s-.093.093-.148,0-.334,0-.445-.185,0-.093,0-.093h.482c.13,0,0-.26.185-.334h.185v.185m-.241,1.224c0,.13-.26.185-.482.13s-.2-.148-.13-.222.241-.148.167-.26,0-.111,0-.13-.13,0-.167,0h0a.612.612,0,0,1,.649.222.352.352,0,0,1,0,.352m-.5.723a.334.334,0,0,1-.464.111s-.148,0-.148-.13v-.111a2.351,2.351,0,0,1,.371,0v-.093s-.3-.185-.185-.241a.371.371,0,0,1,.408.519m-.315.871h0s0,.222-.111.3,0,0-.093-.13a.278.278,0,0,0-.185-.13c-.093,0-.111-.148-.185-.2s.426-.093.63,0,0,.148,0,.185m-.538.76s-.093.26-.2.2-.222-.222-.352-.352h0s.223.093.3,0,0-.2,0-.278.093,0,.148,0h0a.379.379,0,0,1,.278.315c0,.13-.148.148-.222.222m-1.057.964h0c0,.148-.111.26-.13.408s-.167,0-.2,0a3.393,3.393,0,0,1-.482-.667h.148c.185.185.426,0,.593.13a.2.2,0,0,1,.111.167m-.723.575c0,.111-.13.26-.26.2a2.292,2.292,0,0,1-.482-.575h0a.163.163,0,0,0,.167.167c.167,0,0-.13.111-.167s.093,0,.167,0a.278.278,0,0,1,.185.352m-.667.241c0,.3-.389.371-.649.426-.612.2-1.224.334-1.854.5a3.171,3.171,0,0,1-1.02.093h.185a1.038,1.038,0,0,1-.389-.111h0a5.062,5.062,0,0,1,.927-.111,9.27,9.27,0,0,0,1.224-.334,4.783,4.783,0,0,0,.593-.334H22.9a1.724,1.724,0,0,1,.649-.3c.148,0,.26.13.241.2m-2.744,1.965c0,.093,0,.222-.167.222s0,.315-.167.371a1.724,1.724,0,0,1-.76.093v-.093a.222.222,0,0,0,.111-.334H19.9c-.019,0,0,.315-.093.426s-.148,0-.241,0-.13-.093,0-.13.13,0,.185,0,0,0,0-.13h0c0-.111-.093-.222-.2-.185s-.111.093-.185.13a.241.241,0,0,0-.222-.222h-.148c-.019,0,0-.148,0-.241a13.572,13.572,0,0,0,1.5,0v-.093c0-.093.111-.111.185-.111s0-.093.111-.13a.167.167,0,0,1,.185,0,.5.5,0,0,1,0,.426m.093,1.557c.185,0,.426.241.3.445s-.148,0-.241,0a3.5,3.5,0,0,0-.426,0H20.6c-.148-.13-.278-.334-.426-.241a.426.426,0,0,1-.334,0h0s.093-.185.2-.2a.853.853,0,0,1,.667.13H21.1m-1.854-1s.13,0,0,.111-.13,0-.185,0,0,0,.111-.111m1.854,2.522c-.185,0-.445.093-.575,0s0-.148,0-.222-.148-.093-.167,0a2,2,0,0,0,0,.334c0,.074-.334,0-.371,0s.278,0,.222-.222a.334.334,0,0,0-.315-.148.8.8,0,0,1,0,.426c0,.093-.2,0-.3,0v-.723s.2,0,.167-.148-.167-.334-.315-.222,0,.389-.167.519a.2.2,0,0,1-.278,0h.222c.074,0,0-.26,0-.371s-.148-.111-.2,0-.111,0,0,.111a.334.334,0,0,1,0-.445c.2-.148.5,0,.76,0a8.88,8.88,0,0,0,1.224,0,1.724,1.724,0,0,0,.111.871m.185.315c.093,0,.13,0,.167.167a7.028,7.028,0,0,1,.538,1.428,2.225,2.225,0,0,1-.7,0s-.093,0-.093-.13-.167-.7-.278-1.168a.426.426,0,0,1,.148-.3.315.315,0,0,1,.222,0m-.63,1.5a2.114,2.114,0,0,0-.315-.278h0a7.046,7.046,0,0,1,0-.871.241.241,0,0,1,.13-.167c.111,0,.26,0,.278.111a5.727,5.727,0,0,0,.167,1.15H20.62m-.556-.222c-.185,0-.2-.185-.3-.3h0a1,1,0,0,1,0-.575.167.167,0,0,1,.278,0c.167.3,0,.63,0,.946m-.612-.389h-.26c-.13,0,0-.26,0-.426h.278a.389.389,0,0,1,0,.352v.111m-.983-5.321a7.417,7.417,0,0,1-2.021-.482c-.185-.093-.352-.241-.538-.352H16a1.357,1.357,0,0,1,.278-.482h0a2.805,2.805,0,0,0,.241.464.519.519,0,0,0,.185.167,4.95,4.95,0,0,0,1.446.5H19.36c.074,0,0,0,0,.093h-.853M15.243,26.76h-.167c-.056,0-.334-.148-.334-.315a.093.093,0,0,0,.093,0c0-.167,0-.334.241-.334s.612-.315.593,0-.445.389-.426.723m-.816-.538a.352.352,0,0,1-.352-.241v-.3c0-.037,0,0,.093,0a1.186,1.186,0,0,1,0-.13h.222c.037,0,0,.167,0,.2a3.1,3.1,0,0,0,.482-.315.093.093,0,0,1,0,.148c-.2.26-.3.649-.667.667m-.519-.927c-.093,0-.093.222-.2.26s-.13,0-.185-.13,0,0,0-.093-.167,0-.222-.111,0-.093,0-.13.2,0,.241,0,0-.093,0-.111.167,0,.2,0,.148.111.222.185a.148.148,0,0,1,0,.13h-.148m-1.057-.575c0-.093.111-.148.2-.185l.371-.2a.426.426,0,0,1,0,.26c0,.093-.148.13-.241.2s-.2,0-.26,0m-.2-.389a.3.3,0,0,1-.167-.111v-.13h.26l.167-.111a.834.834,0,0,1,.222-.111h0s-.315.464-.575.389m-.593-1v-.093c0-.093.482-.2.723-.352s.13,0,.167,0a.148.148,0,0,1,0,.148c-.2.223-.556.464-.853.278m-.222-1.038h.111c.111,0,.167-.13.185-.26s0-.167-.148-.223h0a.315.315,0,0,1,.222,0v.111c0,.111.093.13.13.185a.389.389,0,0,1-.278.538h0c-.13,0-.315,0-.278-.222m0-1.483s-.315,0-.241-.13a2.892,2.892,0,0,1,.352-.26c.148-.093,0-.334.185-.464s0,0,.111,0a1.706,1.706,0,0,1,0,.686.464.464,0,0,1-.389.148h0ZM11,19.548c.3-.185.222-.593.334-.89h0l.111-.185c.111-.185,0-.352-.093-.5s-.2-.13-.278-.222,0-.167.111-.185a.983.983,0,0,0,.426-.3s.111,0,.093.148h0a1.205,1.205,0,0,0,0,.575,6.8,6.8,0,0,1,0,1.743c-.2,0-.593.148-.593-.167m7.472,5.97A4.709,4.709,0,0,1,16.727,25s-.148-.111-.13-.185.13,0,.185,0a3.82,3.82,0,0,0,1.65.649h.222m-2.522-.89a.148.148,0,0,1,.13-.167h0c.148-.13.278-.408.5-.389a5.025,5.025,0,0,1-.315.723c-.093.111-.2,0-.241-.167m-.093-.538h0a.426.426,0,0,1-.2.26.187.187,0,0,1-.167-.2V24c.13-.111.26-.408.426-.241s0,.13,0,.2m-.834-.334h0s0-.26.185-.241h0c.111,0,.241-.111.315,0s-.241.482-.371.426m3.5,0h.13c.445-.13.89.148,1.3,0a1.6,1.6,0,0,1,0,.723.371.371,0,0,1-.556.2c-.241-.185-.26-.556-.556-.742a.779.779,0,0,0-.241,0s-.13,0,0,0m0-6.415a.093.093,0,0,1,0-.111H19.6c.167,0,.111-.111.2-.111s0-.093,0-.148a1.409,1.409,0,0,0,0-.278.593.593,0,0,1,.556.723.779.779,0,0,1-.2.3.816.816,0,0,0-.2.464c0,.389.2.742.148,1.112a.538.538,0,0,1-.167.371.222.222,0,0,1-.241,0c-.148,0-.389,0-.482-.185a.533.533,0,0,0,.519-.371,1.094,1.094,0,0,0,0-.686,1.855,1.855,0,0,0-.111-.816c-.111-.2-.426-.148-.649-.241m.7,4.376h0v-.464c0-.13.148,0,.222,0a.185.185,0,0,1,0,.13c0,.278.148.593,0,.779s-.575.111-.853,0-.13-.222,0-.26a2.411,2.411,0,0,0,.556-.241m.222-.89c.111-.111,0-.2,0-.26s.315.278.222.408-.426.111-.667.093-.13-.148,0-.167a2.225,2.225,0,0,1,.5,0Zm.927,2.021a2.6,2.6,0,0,0,.3-.185s.148-.13.241-.093a.2.2,0,0,1,.093.334,2.577,2.577,0,0,1-1.094.445c-.426.093-1.3.148-1.261-.2h.426A3.708,3.708,0,0,0,20.75,23M20.083,26.7a.538.538,0,0,1-.445,0c-.185,0-.148-.352-.241-.538s0,0-.13-.111-.315,0-.408-.2h.111a7.082,7.082,0,0,0,1.261,0c0,.241.13.593-.148.742m.593-1.335.389-.13a11.866,11.866,0,0,0,1.131-.556s.315.278.241.334c-.371.167-.649.3-1.242.519a2.485,2.485,0,0,1-1.372.185,2.207,2.207,0,0,0-.389-.111h-.185c.445-.26.964,0,1.428-.167m-6.248-2.281s-.111,0,0-.111.13,0,.185,0h0a.315.315,0,0,1,.222,0,.315.315,0,0,1-.334.222m-.167-.519h-.167L14.5,22.5h0c.093.13-.111.222-.222.26m.111-.482a.13.13,0,0,1-.167,0h0c0,.111.167,0,.111.13m-.352-1.3c.148,0,.111-.185.185-.26s.2.093.241.2-.222.278-.408.2-.093-.111,0-.148m-.556-.927h0a.816.816,0,0,1,.371,0h.538c-.13.13-.315,0-.482,0a.371.371,0,0,1-.426,0m-.111-2.689v-.222h0a3.708,3.708,0,0,0,.649,0h.185a2.855,2.855,0,0,0,0,.556,3.43,3.43,0,0,0,0,.871,4.246,4.246,0,0,1,0,.686h0v.148a.13.13,0,0,1-.148,0s-.148-.111-.111-.185a1.284,1.284,0,0,0,.111-.686.5.5,0,0,0-.2-.334s0,0,0-.093v-.575c0-.185-.185-.148-.241-.241m5.006,5.97a2.132,2.132,0,0,1-1.112-.3c-.278-.111-.575-.334-.408-.63s.167.093.241.2c.3.445.853.426,1.3.649h0m-1.854-1.15s0-.2.111-.278.2-.185.334-.093,0,0,0,.13-.2.111-.3.222-.148,0-.167,0m-.3-.426s-.093.093-.111.093,0-.111,0-.167,0-.13.111-.111a.3.3,0,0,1,.352-.315.2.2,0,0,1,.111.2.63.63,0,0,1-.445.3m-.482-.779h0v-.2c0-.074,0,0,.13,0a1.205,1.205,0,0,1,.575,0s.167,0,.111.13-.519,0-.723.167m.315-.649c0,.111-.241.13-.371.148v-.093c.148,0,.352-.241.371,0m-.779-.686h0a.909.909,0,0,1,.389,0H16.5c-.13.13-.3,0-.482,0a.371.371,0,0,1-.426,0m-.167-2.262a.167.167,0,0,1,0-.26,1.446,1.446,0,0,1,.8,0h.26a.223.223,0,0,1,.185.3c-.056.13-.241.334-.315.519a2.718,2.718,0,0,0,0,.779.556.556,0,0,1-.445.464h-.2c-.037,0,.222-.3.315-.464s0-.13,0-.167a1.687,1.687,0,0,1-.3-.445c-.093-.167,0-.334,0-.464s-.222-.26-.3-.26m6.119,4.858h.241l.222-.222s.241,0,.315.148a.2.2,0,0,1,0,.185.658.658,0,0,1-.167.2l-.2.111a.418.418,0,0,1-.408-.334m.612-4.951V17.3a9.734,9.734,0,0,1,1.038,0c.13,0,0,0,0,.093s-.241.426-.13.649,0,.667.167,1.038a.352.352,0,0,1,0,.3.538.538,0,0,1-.649,0c-.093,0,0-.185.093-.2H22.9a.445.445,0,0,0,.148-.482c0-.148-.223-.148-.371-.13s.315-.222.185-.315a2.634,2.634,0,0,1-.334-.148.289.289,0,0,0-.111-.222,1.985,1.985,0,0,1-.3-.26m1.242,2.04v.352c0-.019-.612-.148-.519-.26s.241,0,.408,0,.111-.241.185-.111m-.13.816h0a4.734,4.734,0,0,0-.464-.148c-.167-.037-.13,0-.093,0a1.784,1.784,0,0,0,.278-.167c.093-.056.26,0,.26.2h0v.111m-.482.909-.334-.167v-.13c0-.019.222,0,.3-.185s0-.222,0-.241.26,0,.26.111-.185.649-.371.575m-.13.8a.148.148,0,0,1-.2,0v-.093a1.265,1.265,0,0,0,.389-.241c.093.167,0,.3-.093.426m0,2.429H22.9c.222,0,0-.2.111-.334s.278.315.2.482-.2.111-.315.148-.3-.167-.2-.278m.445-.63h.148c.148,0,0-.093,0-.167h0a.909.909,0,0,1,.26.241c.056.111,0,0,0,.111a.2.2,0,0,1,0,.2h0s-.241-.13-.352-.2h0v-.093m.519-.556h.352v-.26a.5.5,0,0,1,.426.222.26.26,0,0,1,0,.26.323.323,0,0,0-.26.13c-.074.13,0,.13-.111.185s-.093,0-.111,0,0,0-.111-.093-.148-.093-.185-.13-.185-.13,0-.2m.556-1.242a.76.76,0,0,1,.723.148h0a.222.222,0,0,1-.26,0c-.148-.093-.315,0-.464-.167s-.093,0,0,0m.26-1.057h0v.111h0a.871.871,0,0,1,.649.167.746.746,0,0,1-.223.649c-.222.167-.241,0-.315,0s-.111-.148,0-.185.278-.2.2-.352-.278,0-.371,0,0-.111,0-.148M24.57,17.9a3.189,3.189,0,0,0,.482,0H25.2c.037,0,0-.2.167-.241a.13.13,0,0,1,.2,0,.519.519,0,0,1,0,.334c0,.111-.13.222-.167.334a1.02,1.02,0,0,0,0,.334,5.136,5.136,0,0,0,0,1.187.241.241,0,0,1-.111.241,1.15,1.15,0,0,1-.5.093h0c0-.111.093-.093.13-.167v-.2a1.112,1.112,0,0,0-.111-.686.2.2,0,0,0,.222-.148c0-.241.093-.593-.148-.723s-.26,0-.371-.093,0-.148,0-.148m.667,3.412h-.26c-.074,0,0-.352.111-.538a.464.464,0,0,1,0-.278h0a.13.13,0,0,1,.148,0,.649.649,0,0,1,0,.871m-.445,1.965c0,.13-.185.3-.3.167s-.222,0-.26-.167.111-.093.148-.2.185,0,.278,0,.167,0,.13.13m2.855-6.193a1.446,1.446,0,0,0-1.038.093.63.63,0,0,0-.167.853c.222.222.093.8.148,1.038a1.335,1.335,0,0,1,0,.538v.63a.464.464,0,0,0,0,.408v.278a2.651,2.651,0,0,0,0,.445,1.354,1.354,0,0,1,0,.538,5.562,5.562,0,0,1-.241.779.891.891,0,0,1-.185.593s-.093.389-.148.575a4.32,4.32,0,0,0-.482.538l-.408.593-.3.464s-.612.241-.7.482-.575.278-.946.612l-.723.278s-.482,0-.612.185a7.619,7.619,0,0,0-.8.185,1.854,1.854,0,0,1-.556-.519v-.519a1.632,1.632,0,0,0,0-.26h0a4.765,4.765,0,0,0,.927-.278,1.854,1.854,0,0,0,1.038-.426c.371,0,.389-.222.389-.222a2.707,2.707,0,0,0,.519-.2c.2,0,.408-.445.408-.445l.278-.26c.3-.148.538-.667.612-.779a3.708,3.708,0,0,0,.3-.519,5.785,5.785,0,0,0,.408-1.168,4.079,4.079,0,0,0,.2-.816c.093-.575.13-1.316.13-1.316a2.206,2.206,0,0,1,0-.612,2.355,2.355,0,0,1,0-.5,2.54,2.54,0,0,1,.278-1.168c.222-.352-.148-.742-.575-.76a1.354,1.354,0,0,0-.909.278c-.222.111-.519.63-.278.853s.2.686.26.927a1.926,1.926,0,0,1,0,.593.779.779,0,0,0-.093.445,1.65,1.65,0,0,1,0,.334,1.094,1.094,0,0,0,0,.408v.408l-.111.649a3.3,3.3,0,0,0-.426.816,4.005,4.005,0,0,1-.352.667,1.057,1.057,0,0,0-.241.13,1.632,1.632,0,0,0-.667.649,1.6,1.6,0,0,0-.575.389,1.613,1.613,0,0,0-.593.241l-.834.408H20.4a8.176,8.176,0,0,0,0-.964,3.541,3.541,0,0,0,1.854-.7c.2-.222.093-.278.26-.315s.371-.575.538-.742a3.708,3.708,0,0,0,.371-.8,2.93,2.93,0,0,0,.26-1.112c.2-.278,0-.723,0-.723V18.62a7.732,7.732,0,0,1,.093-1.205c.111-.389.111-.612-.26-.742a1.984,1.984,0,0,0-1.224,0c-.2.111-.723.649-.5.871a2.522,2.522,0,0,1,.556.946c0,.222.111.871.111.871v.464s-.093.742-.241.853-.111.389-.111.389l-.352.575a4.321,4.321,0,0,1-.5.482,1.446,1.446,0,0,1-.779.26H20.25a2.6,2.6,0,0,1,0-.426v-.464c0-.241-.111-.241-.111-.241l.111-.26s.13,0,.13-.167a.168.168,0,0,0-.13-.185,2.966,2.966,0,0,0,0-.7,1.966,1.966,0,0,0,0-.389,1.854,1.854,0,0,0,0-.779.983.983,0,0,1,0-.612c.093-.185.408-.686.519-.853s.2-.5-.63-.779a1.6,1.6,0,0,0-1.5.223c-.278.13-.167.556-.167.723s.538.556.538.742v.853c0,.074-.2.111-.2.2s.111.167.167.278,0,.111,0,.111-.167.185-.148.3,0,.315.167.352,0,.13,0,.241a.426.426,0,0,0-.111.278.7.7,0,0,0,.2.371.144.144,0,0,0-.148.167,1.094,1.094,0,0,0,0,.334c0,.111,0,.371,0,.7h0a1.428,1.428,0,0,1-1-.482.816.816,0,0,0-.352-.334s-.13-.538-.352-.593,0-.278-.111-.389a3,3,0,0,1-.278-.7.408.408,0,0,0,.093-.2v-.26a7.306,7.306,0,0,1,0-.983,2.8,2.8,0,0,1,.556-.946.482.482,0,0,0,0-.742,3.708,3.708,0,0,0-1.65,0c-.389.13-.667.408-.445.742a2.485,2.485,0,0,1,.352,1.094c0,.222,0,.723,0,.723a.723.723,0,0,0,0,.667,4.32,4.32,0,0,0,.315,1.279c.167.352.13.667.278.834s.371.575.538.63,0,.111.278.334a2.689,2.689,0,0,0,1.687.779.464.464,0,0,0,0,.185.519.519,0,0,1,.111.278.838.838,0,0,1-.13.408l-.278-.111-.742-.334a1.279,1.279,0,0,0-.612-.223c-.111-.2-.538-.352-.538-.352a2.133,2.133,0,0,0-.334-.408l-.371-.408a4.32,4.32,0,0,1-.5-.7,4.209,4.209,0,0,0-.408-.667s0-.7-.185-.76a.779.779,0,0,1,0-.352,1.335,1.335,0,0,0,0-.408,1.279,1.279,0,0,1,0-.334c0-.111,0-.13,0-.241a7.25,7.25,0,0,1,0-.8c0-.241-.111-.871.093-1.094a.556.556,0,0,0-.093-.8,1.724,1.724,0,0,0-1.131-.093c-.389.148-.667.426-.445.76a2.485,2.485,0,0,1,.352,1.094v.593a2.41,2.41,0,0,1,0,.63,5.558,5.558,0,0,0,.148,1.205,4.079,4.079,0,0,0,.2.816,3.541,3.541,0,0,0,.408.89,5.3,5.3,0,0,0,.3.519,2.059,2.059,0,0,0,.649.946l.315.222s.241.426.464.464a1.483,1.483,0,0,0,.482.278.76.76,0,0,0,.538.3s.148.26.723.315a3.708,3.708,0,0,0,.8.26h.334a.556.556,0,0,0,0,.167,2.759,2.759,0,0,1-.093.7l-.519-.111A7.416,7.416,0,0,0,17.6,26.5a1.428,1.428,0,0,0-.519-.241,3.337,3.337,0,0,1-.63-.315c-.371-.315-.927-.538-.964-.649s-.556-.389-.556-.389a2.633,2.633,0,0,0-.575-.612A2.17,2.17,0,0,0,14,23.868c-.167-.26-.352-.612-.352-.612a2.744,2.744,0,0,1-.13-.575,1.224,1.224,0,0,1-.241-.556l-.649-.927a2.688,2.688,0,0,1,0-.556,1.446,1.446,0,0,1-.167-.371,1.724,1.724,0,0,1,0-.389.26.26,0,0,0,0-.3.467.467,0,0,0-.111-.352,4.061,4.061,0,0,1,0-.816c0-.241-.13-.871,0-1.094a.556.556,0,0,0-.111-.8,1.372,1.372,0,0,0-1.02,0,.519.519,0,0,0-.3.834,1.428,1.428,0,0,1,.111.927v1.335a6.082,6.082,0,0,0,.111,1.038,3.245,3.245,0,0,0,.13.667c0,.222,0,.816.167.983a2.447,2.447,0,0,0,.278.519,1.9,1.9,0,0,0,.519,1,1.854,1.854,0,0,0,.519.871s.241.408.352.389.26.482.408.519.13.464.5.519a1.094,1.094,0,0,0,.612.482,1.205,1.205,0,0,0,.723.445s-.111.315.593.315h0a.871.871,0,0,0,.426.167,3.708,3.708,0,0,0,.834.26h.667v.76s.371,0,.371.278,0,.278.13.315.111,0,0,.278a.464.464,0,0,0,0,.278.519.519,0,0,0-.278.5h-.185V30.8h.352a.26.26,0,0,1,0,.13v.5c0,.074-.167.2-.222.278a1.984,1.984,0,0,0-.8,1.632c0,.315-.426.389-.8.5h5.841c-.408-.111-.593-.185-.612-.5a1.984,1.984,0,0,0-.816-1.632,2.774,2.774,0,0,1-.222-.278c-.056-.093,0-.408,0-.5a.26.26,0,0,1,0-.13h.371v-.334h-.2a.519.519,0,0,0-.278-.5.538.538,0,0,0,0-.278c-.093-.2,0-.278,0-.278a.488.488,0,0,0,.13-.315c0-.185.371-.278.371-.278v-.779l.816-.2a4.618,4.618,0,0,0,.593-.148c.185,0,.167-.167.371-.167.686,0,.7-.222.7-.222a.76.76,0,0,0,.63-.538,1.52,1.52,0,0,0,.834-.519c.315,0,.464-.5.464-.5l.5-.519.278-.389a2.132,2.132,0,0,0,.519-1.038c.315-.26.3-.593.371-.686a4.506,4.506,0,0,0,.26-.723,5.284,5.284,0,0,0,.241-1,4.468,4.468,0,0,0,.111-.667,4.346,4.346,0,0,1,.13-1.057v-1.3a1.428,1.428,0,0,1,0-.871.612.612,0,0,0-.278-.927" transform="translate(7.844 6.57)" fill="#2966ff"/>
    <path id="Path_11-2" data-name="Path 11" d="M19.008,28.164h.2a.3.3,0,0,1,.278,0,.223.223,0,0,1,.13.26,1.205,1.205,0,0,1,0,.241h0a.464.464,0,0,0,.241-.093h0l.111-.093h0l-.111.13h0a.464.464,0,0,1-.26.111h-.2a.649.649,0,0,0,.111-.26.222.222,0,0,0-.111-.222h-.222a.334.334,0,0,1-.222,0Zm-.816.3v.111h0a.334.334,0,0,1,.111.167h0a.241.241,0,0,1,0,.222.26.26,0,0,1-.2.13H17.71l-.371-.111h.056a.908.908,0,0,0,.315.111,1.242,1.242,0,0,0,.371,0h0a.2.2,0,0,0,.185-.3h0a.334.334,0,0,0,0-.13h0a.111.111,0,0,1,0-.13.167.167,0,0,1,0-.111Zm-1.224.185h.074a1,1,0,0,0,.464,0h0s.148-.093.148-.148h0v-.111c0-.111,0-.241.148-.278a.26.26,0,0,1,.278,0,.389.389,0,0,0,.241.093h0a.315.315,0,0,1-.26-.093.278.278,0,0,0-.222,0c-.093,0-.111.148-.13.241s0,0,0,.111a.315.315,0,0,1-.167.2h-.111a1.075,1.075,0,0,1-.482,0h0Zm2.058-.2h0a.908.908,0,0,1,0,.222v.389h0a.538.538,0,0,0,.3,0h.111a.575.575,0,0,0,.241,0h0a.464.464,0,0,0,.222-.241h0a.816.816,0,0,1-.241.26h0a.5.5,0,0,1-.26,0h-.111a.464.464,0,0,1-.315,0c-.185-.111-.148-.278-.093-.445s0-.13,0-.2h0Z" transform="translate(13.091 16.514)" fill="#2966ff"/>
    <path id="Path_12-2" data-name="Path 12" d="M17.871,26.891h0a.2.2,0,0,1,0,.093h0Zm.334.612h-.111a.521.521,0,0,1-.445-.26h0a.556.556,0,0,1-.093-.3h0a.334.334,0,0,1-.26-.26h0a.342.342,0,0,0-.278.222h0a.482.482,0,0,1,.315-.26h.111a.334.334,0,0,0,.223.278h.111a.408.408,0,0,1,.13-.167h.111a.26.26,0,0,1,.26,0h0a.426.426,0,0,1,0,.445h0a.408.408,0,0,0,0-.389h0a.167.167,0,0,0-.185,0H18a.389.389,0,0,0-.13.241.779.779,0,0,0,0,.278h0a.63.63,0,0,0,.426.241h.111ZM17,27.169h0a.241.241,0,0,0,.13-.093H17a.241.241,0,0,1,.167,0h0a.167.167,0,0,1,0,.093h0A.3.3,0,0,1,17,27.3h0Zm.742.167h-.371l-.352.111h0l.389-.111H17.8Z" transform="translate(13.134 15.303)" fill="#2966ff"/>
    <path id="Path_13-2" data-name="Path 13" d="M16.362,28.4a.371.371,0,0,0-.148,0,.26.26,0,0,0-.167,0h0c-.093,0-.093.13-.111.2a.5.5,0,0,0,0,.167H15.75a.167.167,0,0,1,0,.111.593.593,0,0,0,.482.093h.093a.168.168,0,0,0,.167-.148.389.389,0,0,0,0-.148.334.334,0,0,0-.093-.13" transform="translate(12.066 16.782)" fill="#2966ff"/>
    <path id="Path_14-2" data-name="Path 14" d="M15,28.319h0a.3.3,0,0,1,.148.093h.111A.686.686,0,0,0,15,28.3h0" transform="translate(11.425 16.712)" fill="#2966ff"/>
    <path id="Path_15-2" data-name="Path 15" d="M25.482,31.955H20.55v-2.8h4.932Zm-5.173-5.748h3.3v2.447h-3.3Zm-.3,4.6h0a.334.334,0,0,1-.2.185h-.093A.538.538,0,0,1,19.2,30.9a.612.612,0,0,1-.26.185,1.446,1.446,0,0,1-.482,0h0a1.353,1.353,0,0,0,.464,0,.464.464,0,0,0,.3-.3.241.241,0,0,0,0-.111.315.315,0,0,0,0-.13h0v-.093h0a.3.3,0,0,0-.278,0h0a.241.241,0,0,0,0,.111h0a.538.538,0,0,0-.185,0,.26.26,0,0,0-.167,0h-.13a.111.111,0,0,0-.093,0h-.315a.278.278,0,0,0-.2,0,.334.334,0,0,0,0,.315,1.205,1.205,0,0,0,0,.371h0a1.335,1.335,0,0,1-.093-.389.371.371,0,0,1,.111-.352.278.278,0,0,1,.241,0,.575.575,0,0,1,.241,0h-.482a.556.556,0,0,1,.389.185h0a.538.538,0,0,1,.185,0h0a.115.115,0,0,1,.093-.111.371.371,0,0,1,.334,0h0a.408.408,0,0,1,0,.148h.2V30.6c0-.037,0-.222.148-.26a.389.389,0,0,1,.371.093,8110.648,8110.648,0,0,1,0,.334m-2.262.111a.721.721,0,0,0-.2-.167.575.575,0,0,1-.167-.13h0a.445.445,0,0,1,0,.148h0V30.6a.26.26,0,0,1,0-.111h.13l.167.111a.275.275,0,0,1,.222.2Zm-.111.371H17.12a.13.13,0,0,1-.111,0h0a1,1,0,0,1-.278.167h0a.482.482,0,0,0,.26-.167h.222Zm-1.187.445H15.9V29.4h3.134v.148H16.452Zm-.334.223h.315V29.025h3.708v.148H16.007Zm-.834-3.986v-.093h0Zm.8-.538h0a.334.334,0,0,1-.26.26h0a.612.612,0,0,1,0,.315h.389l.371.111h0l-.371-.111h-.371a.76.76,0,0,1-.426.2h-.111a.686.686,0,0,0,.426-.222h0a.482.482,0,0,0,0-.278.278.278,0,0,0-.13-.241h-.2a.334.334,0,0,0,0,.389h0a.426.426,0,0,1,0-.445h0a.241.241,0,0,1,.241,0h.111a.334.334,0,0,1,.13.148h.111a.334.334,0,0,0,.222-.278h.093a.4.4,0,0,1,.334.278h0a.519.519,0,0,0-.334-.241m.222.426h-.148a.241.241,0,0,0,.222.111h0a.3.3,0,0,1-.278-.13.2.2,0,0,1,0-.093h0a.334.334,0,0,1,.185,0Zm-.593,3.708h-.371a.463.463,0,0,1-.315,0c-.185-.111-.148-.278,0-.445s0-.148,0-.2h0a.5.5,0,0,1,0,.222c0,.148,0,.3,0,.371h0a.556.556,0,0,0,.3,0h.111a.574.574,0,0,0,.241,0h0a.612.612,0,0,0,.241-.241h0a.649.649,0,0,1-.241.26m-1.391-1.038h-.222c-.074,0-.111.148-.13.26h0a.389.389,0,0,1-.185.2h-.167a.315.315,0,0,1-.185,0,.482.482,0,0,1,0-.167v-.13h0v.111a.371.371,0,0,0,0,.148h.3a.26.26,0,0,0,.148-.167h0a.13.13,0,0,0,0-.093c0-.111,0-.241.167-.3h.278a.315.315,0,0,0,.222,0h0a.371.371,0,0,1-.278-.093m0,.964a.334.334,0,0,1-.185.13h0a.834.834,0,0,1-.371,0A1.409,1.409,0,0,1,13.1,31.1h.037l.334.093h.389a.278.278,0,0,0,.167-.111.3.3,0,0,0,0-.185h0a.185.185,0,0,0,0-.13h0a.167.167,0,0,1,0-.185h0v.111h0a.185.185,0,0,1,.093.148h0a.26.26,0,0,1,0,.223m-1.52.464h-.3V29.674h2.707v.111H12.447Zm2.874-1.075.111-.111h0a.315.315,0,0,1-.111.111h0a.445.445,0,0,1-.26.093h-.13a.871.871,0,0,0,.111-.278.222.222,0,0,0-.111-.2.241.241,0,0,0-.222,0,.5.5,0,0,1-.222,0h0a.426.426,0,0,0,.2,0,.3.3,0,0,1,.278,0,.26.26,0,0,1,.13.278,1.038,1.038,0,0,1,0,.222h0a.334.334,0,0,0,.241,0h0m-3.189,1.3h-.148V29.3h3.208v.148H12.132ZM15.822,26.3v.13H14.339v1.743h-.185V26.318h1.465Zm-1.854-.315h2.04v.13H13.986V28.45h-.13Zm2.373,0h3.708v.13H16.378V28.45H16.23Zm.482.445v1.743h-.26V26.318h3.152v.13Zm.667,1.279s0,.093-.13.111h0l.111-.093c.111-.093,0-.111.148-.111h.111a.315.315,0,0,1,.13.315h0a.222.222,0,0,0-.2-.13h-.167l-.111.093m1.743,0h0a.3.3,0,0,1,0-.222h0a1.02,1.02,0,0,1-.742,0,.575.575,0,0,1-.185-.093.5.5,0,0,1-.148-.13h0a.242.242,0,0,0,.185.278h0c-.13-.093-.241-.2-.2-.352h.241l.148.13h.167a.983.983,0,0,0,.871-.111h0a.3.3,0,0,0-.13.13.185.185,0,0,0,0,.167m.7-.426a.148.148,0,0,1-.13-.13h0s0-.185-.148-.222H19.53a.612.612,0,0,0-.185.111l-.13.093h0a.686.686,0,0,1-.5,0,1.632,1.632,0,0,1-.482-.222.315.315,0,0,0-.185,0h0A.3.3,0,0,0,17.9,27a.119.119,0,0,1-.111.111h-.26a.148.148,0,0,0,0,.148.148.148,0,0,1,0,.148h0v.111h0a.3.3,0,0,1,0-.13.167.167,0,0,1,0-.111h0v-.3a.278.278,0,0,1,.167,0h.111v-.093a.3.3,0,0,1,.167-.13h0a.5.5,0,0,1,.222,0h0a1.428,1.428,0,0,0,.445.222.63.63,0,0,0,.482,0h.111a.76.76,0,0,1,.2-.13h.26a.426.426,0,0,1,.185.278h.074m-.371.389h0a.223.223,0,0,1,.222-.2.3.3,0,0,1,.167,0h.111l-.371.612a.2.2,0,0,0-.13,0s-.13,0-.167.167m4.394.964V25.91H13.5v3H11.65v3.319H25.723V28.914Z" transform="translate(8.564 14.67)" fill="#2966ff"/>
    <path id="Path_16-2" data-name="Path 16" d="M16.583,28.084h2.429V26.36H16.583Zm-.093,0V26.23H19.1v1.854H16.49Z" transform="translate(12.698 14.943)" fill="#2966ff"/>
    <path id="Path_17-2" data-name="Path 17" d="M16.783,29.87h3.912V27.923H16.783Zm0,0V27.83h4V30h-4.1Z" transform="translate(12.869 16.31)" fill="#2966ff"/>
    <path id="Path_18-2" data-name="Path 18" d="M13.884,33.87c0,.482,0,.612-.167.723a6.322,6.322,0,0,1-1.094.538l.093-.315a6.34,6.34,0,0,0,.7-.278c.334-.13.2-1.094.2-1.261s0-.2-.111-.241H11.343a9.122,9.122,0,0,0,0-1.539c0-.426,0-.927,0-.927.5-.241-.13-.241-.13-.241v-.593c0,.111.5,0,.593,0s.167.111,0,.167,0,.222-.148.519a10.493,10.493,0,0,0,0,2.169V32.7h2.225a3.226,3.226,0,0,0,0,1.112m-1.965-1.632h0V30.644c0-.074,0-.7.3-.834s0-.222-.111-.185a2.818,2.818,0,0,1-1.168,0l-.185.964s.593,0,.111.334a3.3,3.3,0,0,1,0,.649,9.6,9.6,0,0,1-.111,1.854h2.373c.111,0,.148,0,.148.26s.13.686-.26.816a2.058,2.058,0,0,1-.779.167l-.167.964a9.865,9.865,0,0,0,1.335-.538c.278-.185.667-.334.667-.927a6.119,6.119,0,0,1,.148-1.854Z" transform="translate(7.795 17.835)" fill="#2966ff"/>
    <rect id="Rectangle_5-2" data-name="Rectangle 5" width="4.784" height="9.567" transform="translate(62.062 33.441)" fill="#9ee0fc"/>
    <rect id="Rectangle_6-2" data-name="Rectangle 6" width="23.9" height="14.351" transform="translate(71.629 42.99)" fill="#9ee0fc"/>
    <rect id="Rectangle_7-2" data-name="Rectangle 7" width="19.116" height="9.549" transform="translate(71.629 42.99)" fill="#0f4ea4"/>
    <rect id="Rectangle_8-2" data-name="Rectangle 8" width="4.784" height="9.567" transform="translate(66.846 33.441)" fill="#0f4ea4"/>
    <rect id="Rectangle_9-2" data-name="Rectangle 9" width="4.784" height="9.549" transform="translate(66.846 42.99)" fill="#9ee0fc"/>
    <rect id="Rectangle_10-2" data-name="Rectangle 10" width="23.9" height="14.351" transform="translate(66.846 19.091)" fill="#9ee0fc"/>
    <rect id="Rectangle_11-2" data-name="Rectangle 11" width="19.116" height="9.549" transform="translate(71.629 23.874)" fill="#0f4ea4"/>
    <rect id="Rectangle_12-2" data-name="Rectangle 12" width="4.784" height="9.549" transform="translate(90.746 23.874)" fill="#9ee0fc"/>
  </g>
</svg>
