<svg xmlns="http://www.w3.org/2000/svg" xmlns:xlink="http://www.w3.org/1999/xlink" width="1920" height="811" xmlns:v="https://vecta.io/nano"><style><![CDATA[.B{stroke-width:2}]]></style><defs><clipPath id="A"><path transform="translate(0 810)" fill="#fff" stroke="#707070" stroke-width="1" d="M0 0h1920v811H0z"/></clipPath><clipPath id="B"><path fill="#fff" stroke="#050c27" stroke-width="1" d="M0 0h2837.611v719.413H0z"/></clipPath><radialGradient id="C" cx=".5" cy=".5" r=".5"><stop offset="0" stop-color="#0655f1"/><stop offset="1" stop-color="#050c27"/></radialGradient><radialGradient id="D" cx=".5" cy=".5" r=".664"><stop offset="0" stop-color="#ee6352"/><stop offset="1" stop-color="#050c27"/></radialGradient><radialGradient id="E" cx=".706" cy=".38" r=".879"><stop offset="0" stop-color="#30c8a2"/><stop offset="1" stop-color="#050c27"/></radialGradient><radialGradient id="F" cx="0.706" cy="0.38" r=".879"><stop offset="0" stop-color="#fac05e"/><stop offset="1" stop-color="#050c27"/></radialGradient><path id="G" d="M127.077 575.617c71.7-49.875 151.82-82.9 219.484-90.57 63.217-7.172 112.556 5.376 164.8 18.662C578.287 520.72 647.429 538.3 748.3 511.78c41.491-10.922 79.189-27.958 113.746-44.74 26.959-13.088 54.692-27.328 81.511-41.1 57.218-29.379 116.375-59.757 177.327-84.068 73.954-29.5 153.127-45.843 242.168-49.987 24.832-1.153 48.68-1.536 70.885-1.138 38.12.69 73.163 2.765 107.048 4.771l64.719 3.467c23.955 1.024 50.062 1.294 79.8.827 163.546-2.55 324.396-41.522 506.176-122.612 18.313-8.171 37.283-16.106 55.629-23.783l26.35-11.075c63.14-26.828 145.809-59.8 225.159-76.778 38.113-8.141 75.774-10.717 112.356-7.7 32.4 2.673 62.693 8.239 94.738 14.134l28.137 5.088c14.941 2.608 30.381 5.059 46.449 7.1l-2.206 3.32c-17.2-2.124-33.672-4.727-49.582-7.5l-28.18-5.1c-31.911-5.87-62.05-11.413-94.134-14.053a371.849 371.849 0 0 0-108.331 7.347c-77.6 16.6-159.082 49.121-221.4 75.59l-26.424 11.113-55.255 23.619c-184.286 82.207-347.411 121.716-513.329 124.308-29.951.474-56.24.2-80.392-.831l-64.861-3.472c-33.8-2.006-68.748-4.074-106.694-4.755-21.967-.4-45.57-.018-70.15 1.122-87.024 4.043-164.222 19.938-236.036 48.582-60.158 24-118.976 54.2-175.852 83.4l-81.813 41.249c-35.414 17.2-74.134 34.678-117.352 46.052-104.564 27.526-174.863 9.657-242.834-7.629-51.624-13.127-100.389-25.528-161.659-18.575-64.732 7.342-141.868 39.348-211.512 87.8C92.652 603.5 56.8 634.4 23.718 665.135L27.4 656.5c30.511-27.89 63.425-55.662 99.682-80.884"/><path id="H" d="M145.846 562.916c75-51.338 157.042-84.32 225.151-90.513 63.022-5.728 110.692 9.156 161.157 24.921 65.015 20.3 132.3 41.3 233.99 14.034 42.477-11.382 81.705-29.968 114.494-46.655 27.8-14.15 56.409-29.71 84.069-44.755 56.1-30.524 114.126-62.085 174.144-86.953 75.9-31.457 156.026-47.892 244.922-50.256 24.732-.658 48.523-.39 70.708.793 37.334 1.987 71.608 5.656 104.752 9.2l65.413 6.479c24.3 2.034 50.96 3.213 79.263 3.5 163.888 1.645 326.117-37.545 510.53-123.322l55.334-24.844 27.1-12.006c70.777-31.634 152.744-66.756 229.827-83.022 41.615-8.8 80.854-12.068 116.664-9.778S2713.9 58.1 2747.5 63.979q11.52 2.011 23.1 3.993 9.2 1.556 18.655 3.022L2787 74.4q-11.015-1.68-21.707-3.5-11.611-1.966-23.118-4c-34.976-6.118-68.014-11.9-103.439-14.156-34.728-2.219-72.677.953-112.862 9.424-75.033 15.835-155.825 50.47-225.652 81.686l-27.189 12.042-55.031 24.7c-187.122 87.05-351.782 126.807-518.205 125.133-28.544-.286-55.431-1.478-79.914-3.533l-65.58-6.491c-33.052-3.526-67.231-7.182-104.353-9.163-21.931-1.17-45.448-1.434-69.9-.787-86.79 2.306-164.741 18.245-238.331 48.745-59.172 24.522-116.841 55.892-172.618 86.231l-84.406 44.932c-33.612 17.111-73.951 36.2-118.264 48.074-105.647 28.318-174.074 7.01-240.143-13.626-49.913-15.583-97.052-30.3-158.175-24.747-65.066 5.933-144.054 37.892-216.906 87.752-50.4 34.5-94.86 74.233-129.779 107.4l3.823-8.981c33.422-31.257 74.5-67.071 120.595-98.62"/><path id="I" d="M164.6 550.215c78.374-52.806 162.491-85.772 230.823-90.455 62.987-4.319 109.116 12.931 157.96 31.189 63 23.564 128.017 47.958 230.591 19.995 43.31-11.812 82.564-31.184 115.234-48.571 28.486-15.158 57.739-31.973 86.026-48.236 55.2-31.729 112.28-64.542 171.577-90.021 77.722-33.4 158.723-49.917 247.686-50.519 24.676-.169 48.4.749 70.528 2.726 36.742 3.273 70.41 8.512 102.983 13.577l65.558 9.529c24.86 3.118 51.36 5.2 78.765 6.175 164.3 5.867 327.9-33.552 514.892-124.033l55-25.863 27.884-12.974c72.1-33.8 155.619-71.368 234.265-89.22 42.669-9.685 83.41-13.68 121.178-11.9 39.3 1.852 77.154 8.176 113.766 14.3l8.975 1.489-2.278 3.431-11.995-1.995c-36.43-6.086-74.091-12.379-112.953-14.21-36.626-1.726-76 2.131-117.2 11.474-76.592 17.385-158.95 54.447-230.141 87.822l-27.95 13.008-54.777 25.753c-189.9 91.888-356.107 131.908-523.057 125.944-27.656-.982-54.381-3.081-79.43-6.233-22.606-2.841-44.548-6.251-65.743-9.548-32.467-5.052-66.038-10.272-102.571-13.528-21.859-1.951-45.287-2.86-69.65-2.693-86.678.581-165.417 16.585-240.632 48.914-58.442 25.112-115.163 57.716-170.011 89.244l-86.395 48.439c-33.541 17.844-73.911 37.746-119.164 50.087-106.845 29.132-172.966 4.331-237.006-19.617-46.2-17.273-93.957-35.134-155.127-30.94-65.2 4.467-146.22 36.44-222.3 87.7C123.347 581.831 76.92 620.369 23.8 671.734l-4.9 4.751 3.969-9.333c51.178-49.074 96.363-86.36 141.732-116.936"/><path id="J" d="M32.542 661.366c52.362-50.729 101.69-91.24 150.829-123.852 81.692-54.24 167.848-87.181 236.444-90.389 63.135-2.948 109.88 17.6 155.1 37.476 60.892 26.767 123.882 54.417 226.907 25.927 35.172-9.78 69.859-24.881 115.982-50.491 29.05-16.133 58.827-34.177 87.618-51.627 54.391-32.959 110.626-67.042 169.361-93.166 78.312-34.844 162.569-51.933 250.432-50.784a635.527 635.527 0 0 1 70.33 4.655c36.247 4.546 69.379 11.347 101.423 17.925l65.505 12.618a749.061 749.061 0 0 0 78.249 8.85c164.7 10.113 329.711-29.532 519.278-124.748l54.925-26.978q14.353-6.964 28.439-13.853c76.744-37.622 158.38-75.973 238.7-95.413 43.643-10.562 85.9-15.268 125.674-14.021 34.291 1.08 67.341 5.5 99.472 10.469l-2.263 3.4c-32.856-5.129-66.654-9.752-101.56-10.852-38.568-1.222-79.5 3.335-121.535 13.512-78.286 18.938-158.835 56.8-234.628 93.965l-28.479 13.876-54.762 26.894c-192.644 96.754-360.344 137.033-527.874 126.752a757.92 757.92 0 0 1-78.954-8.93c-22.615-3.806-44.512-8.3-65.686-12.652-31.936-6.558-64.969-13.338-100.982-17.857a627.568 627.568 0 0 0-69.456-4.591c-85.471-1.123-167.257 15.407-242.944 49.084-57.862 25.736-113.731 59.6-167.769 92.342l-88.028 51.861C888.9 479.311 848.519 500 802.284 512.866c-107.628 29.749-171.621 1.626-233.538-25.591-44.776-19.667-91.064-40.005-152.411-37.148-65.41 3.048-148.394 35-227.708 87.661-48.747 32.358-97.771 72.621-149.865 123.1q-11.337 10.976-22.629 22.087l4.066-9.547 12.345-12.054"/><path id="K" d="M47.51 650.519C98.941 600.594 150.957 558.3 202.138 524.81c85.05-55.673 173.272-88.585 242.075-90.317 63.363-1.587 108.665 21.5 152.467 43.838 58.758 29.934 119.48 60.936 222.962 31.774 35.348-9.986 71.348-26.152 116.76-52.414 29.522-17.079 59.719-36.328 88.917-54.944 53.666-34.209 109.149-69.581 167.447-96.388a565.444 565.444 0 0 1 323.272-44.446c35.85 5.808 68.509 14.175 100.1 22.27 21.021 5.386 42.776 10.954 65.21 15.7a648.295 648.295 0 0 0 77.736 11.53c165.152 14.37 331.563-25.5 523.7-125.475l55.263-28.285 28.585-14.543c78.006-39.878 161.03-80.571 243.131-101.6 44.616-11.428 88.408-16.858 130.157-16.138a700.008 700.008 0 0 1 75.742 5.86l-2.213 3.329c-25.29-3.255-51.158-5.72-77.73-6.172-40.532-.7-82.923 4.548-125.888 15.559-80.049 20.507-162.02 60.7-239.119 100.115l-28.618 14.56-55.14 28.219C2091.6 288.493 1922.324 329.026 1754.283 314.4a656.492 656.492 0 0 1-78.45-11.626c-22.519-4.779-44.324-10.353-65.386-15.751-31.5-8.068-64.069-16.409-99.667-22.187a547.9 547.9 0 0 0-69.21-6.505c-85.571-2.805-168.089 13.759-245.3 49.261-57.392 26.392-112.525 61.538-165.84 95.526l-89.332 55.193c-31.379 18.152-73.484 40.706-120.882 54.1-108.286 30.497-170.068-1.003-229.816-31.451-43.379-22.126-88.263-45-149.94-43.447-66.553 1.66-149.369 32.781-233.136 87.609-50.758 33.224-102.432 75.249-153.607 124.91L14.563 688.6l-1.42 1.4 4.172-9.8q15.042-14.913 30.2-29.672"/><path id="L" d="M23.035 678.8l39.44-39.136c51.362-49.934 104.663-92.846 158.422-127.556 89.716-57.923 177.657-89.983 247.7-90.25 63.711-.243 107.613 25.439 150.061 50.277 56.53 33.069 114.924 67.3 218.814 37.559 35.954-10.326 72.213-27.087 117.542-54.347 29.951-18.012 60.473-38.446 89.985-58.206 52.994-35.481 107.785-72.161 165.749-99.666 81.51-38.679 167.6-55.924 255.873-51.294a490.5 490.5 0 0 1 69.906 8.525c35.455 7.072 67.661 17 98.811 26.594 20.9 6.442 42.524 13.1 64.867 18.815a563.467 563.467 0 0 0 77.253 14.2c165.592 18.663 333.43-21.447 528.126-126.2l55.507-29.545q14.48-7.666 28.789-15.271c79.256-42.136 163.643-85.163 247.589-107.791 45.515-12.271 90.852-18.429 134.639-18.258 17.427.069 34.479.975 51.245 2.393l-2.138 3.214c-17.408-1.537-35.117-2.518-53.191-2.586-42.474-.169-86.336 5.763-130.245 17.606-81.9 22.08-165.245 64.6-243.594 106.26q-14.331 7.614-28.84 15.286l-55.429 29.5c-198.053 106.577-368.845 147.356-537.453 128.365a567.663 567.663 0 0 1-77.958-14.326c-22.428-5.74-44.092-12.412-65.03-18.864-31.062-9.569-63.184-19.466-98.423-26.5a483.856 483.856 0 0 0-68.975-8.413c-85.728-4.5-169.054 12.135-247.659 49.439-57.056 27.075-111.487 63.52-164.143 98.77-29.616 19.831-60.238 40.327-90.416 58.474-46.535 27.986-84.073 45.288-121.745 56.1-108.876 31.179-168.358-3.622-225.849-37.262-42.073-24.611-85.575-50.067-147.672-49.828-66.759.252-151.491 31.365-238.553 87.574-53.335 34.44-106.275 77.071-157.355 126.728l-39.367 39.079Q19.749 687.882 9.8 697.85l4.277-10.05q4.516-4.533 8.958-9"/><path id="M" d="M37.767 668.488l39.675-39.673c50.57-49.256 106.661-94.005 162.223-129.4 93.134-59.358 183.118-91.388 253.29-90.174 64.158 1.1 106.672 29.413 147.793 56.8 56.792 37.8 110.357 73.538 214.56 43.243 36.555-10.654 73.051-28.013 118.318-56.274 30.343-18.938 61.116-40.541 90.9-61.435 52.353-36.745 106.512-74.743 164.213-102.968 81.821-40.019 171.253-57.861 258.565-51.545a440.976 440.976 0 0 1 69.716 10.449c35.1 8.331 66.873 19.811 97.6 30.916 20.751 7.5 42.216 15.247 64.454 21.932a502.6 502.6 0 0 0 76.758 16.875c166.077 22.956 335.28-17.363 532.57-126.93l57.689-31.869 27.109-14.946c80.415-44.376 166.109-89.734 252-113.971a529.138 529.138 0 0 1 139.109-20.382c8.7-.075 17.291.073 25.789.362l-2.053 3.093c-9.122-.345-18.347-.513-27.692-.433-45.047.378-89.048 6.8-134.59 19.653-83.847 23.663-168.545 68.512-248.109 112.416l-27.106 14.951-57.655 31.848c-200.724 111.489-373.02 152.54-542.213 129.153a508.694 508.694 0 0 1-77.464-17.021c-22.316-6.716-43.81-14.485-64.606-21.995-30.637-11.069-62.308-22.52-97.217-30.8a434.493 434.493 0 0 0-68.763-10.319c-85.94-6.2-170.035 10.492-250.054 49.625-56.778 27.772-110.582 65.529-162.6 102.04-29.871 20.964-60.765 42.641-91.326 61.718-46.468 29.016-84.287 46.937-122.588 58.106-109.434 31.8-166.542-6.2-221.772-42.979-40.783-27.156-82.942-55.23-145.526-56.306-66.986-1.145-153.615 29.937-244.007 87.536-55.11 35.116-110.817 79.562-161.1 128.538l-39.595 39.6Q24.983 687.4 5.872 707.095l4.469-10.512q13.718-14.09 27.426-28.1"/><path id="N" d="M52.488 658.173l39.92-40.206c50.609-49.374 108.011-94.761 166.01-131.251 96.568-60.77 188.509-92.768 258.9-90.1 64.678 2.439 105.839 33.433 145.652 63.409 54.412 40.967 105.813 79.683 210.182 48.84 36.648-10.845 74.5-29.343 119.1-58.207 30.682-19.853 61.669-42.618 91.645-64.632 51.773-38.029 105.31-77.348 162.826-106.308 83.311-41.941 173.63-59.846 261.274-51.8a400.923 400.923 0 0 1 69.483 12.382c34.5 9.511 65.578 22.441 95.631 34.95 20.819 8.662 42.363 17.616 64.781 25.334a450.221 450.221 0 0 0 76.275 19.553c82.207 13.462 164.089 10.416 250.192-9.387 90.145-20.7 183.981-59.392 286.841-118.279l16.5-9.445 68.794-39.364c81.57-46.624 168.562-94.3 256.444-120.162a540.508 540.508 0 0 1 142.781-22.458l-1.98 2.984-1.054.013a522.757 522.757 0 0 0-138.966 21.7c-85.848 25.257-171.861 72.423-252.6 118.575l-68.765 39.353-16.5 9.446c-104.338 59.731-199.83 99.045-291.967 120.2-88.2 20.248-171.535 23.422-255.014 9.748a454.346 454.346 0 0 1-76.947-19.722c-22.512-7.746-44.077-16.718-64.941-25.4-29.972-12.471-60.974-25.368-95.273-34.821a395.664 395.664 0 0 0-68.567-12.223c-59.218-5.439-151.089-1.221-252.409 49.8-56.609 28.5-109.8 67.573-161.245 105.36-30.077 22.087-61.173 44.927-92.086 64.925-45.789 29.636-85.014 48.735-123.423 60.1q-15.937 4.706-30.331 7.464c-89.71 17.364-137.208-18.408-187.227-56.065-39.5-29.731-80.338-60.477-143.505-62.863-67.209-2.529-155.767 28.541-249.447 87.494-57.533 36.2-114.527 81.271-164.848 130.356-12.533 12.223-25.559 25.343-39.808 40.11L.92 718.731l4.813-11.3 46.756-49.253"/><path id="O" d="M135.668-734.323c84.412,0,230.744,272.416,230.744,319.847S190.3-349.206,105.884-349.206-24-475.812-24-523.242,51.255-734.323,135.668-734.323Z"/></defs><g transform="translate(0 -810)" clip-path="url(#A)"><g opacity=".12"><g clip-path="url(#B)" transform="translate(-572 985.587)" fill="#fff" stroke="#050c27"><use xlink:href="#G"/><use xlink:href="#G" class="B"/><use xlink:href="#H"/><use xlink:href="#H" class="B"/><use xlink:href="#I"/><use xlink:href="#I" class="B"/><use xlink:href="#J"/><use xlink:href="#J" class="B"/><use xlink:href="#K"/><use xlink:href="#K" class="B"/><use xlink:href="#L"/><use xlink:href="#L" class="B"/><use xlink:href="#M"/><use xlink:href="#M" class="B"/><use xlink:href="#N"/><use xlink:href="#N" class="B"/></g></g><path d="M878 1367c104.658 0 469.333 71.22 469.333 124.593s-334.009 164.74-438.667 164.74S530 1522.816 530 1469.443 773.342 1367 878 1367z" opacity=".16" fill="url(#C)"/><path d="M1693.333 908.1c1.989 0 235.756 37.217 237.9 37.333 97.8 5.277 59.436 92 59.436 194.667 0 104.658 78.555 205-26.1 205s-651.236 8.991-651.236-95.667 275.342-341.333 380-341.333z" opacity=".2" fill="url(#D)" style="mix-blend-mode:screen"/><use xlink:href="#O" transform="matrix(.939693 .34202 -.34202 .939693 935.032 1760.247)" opacity=".3" fill="url(#E)"/><use xlink:href="#O" transform="matrix(.939693 .34202 -.34202 .939693 251.338 1612.747)" opacity=".27" fill="url(#F)"/></g></svg>