<svg version="1.2" xmlns="http://www.w3.org/2000/svg" viewBox="0 0 849 648" width="849" height="648"><defs><clipPath clipPathUnits="userSpaceOnUse" id="cp1"><path d="m71.02-13h760.43v665.51h-760.43z"/></clipPath><clipPath clipPathUnits="userSpaceOnUse" id="cp2"><path d="m1.52-12.57h829.94v665.16h-829.94z"/></clipPath><clipPath clipPathUnits="userSpaceOnUse" id="cp3"><path d="m709.32 41.72v373.15q0 3.38-1.1 6.57c-0.72 2.11-1.79 4.09-3.16 5.85-1.38 1.76-3.03 3.28-4.9 4.51-1.87 1.22-3.93 2.12-6.09 2.67l-514.46 130.19c-2.98 0.76-6.1 0.82-9.11 0.19-3.01-0.63-5.84-1.94-8.26-3.83-2.43-1.89-4.39-4.31-5.74-7.08-1.35-2.76-2.05-5.8-2.05-8.87v-373.16c0-2.23 0.37-4.45 1.09-6.56 0.73-2.12 1.8-4.09 3.17-5.86 1.37-1.76 3.02-3.28 4.89-4.5 1.87-1.22 3.93-2.13 6.1-2.68l514.46-130.19c2.98-0.76 6.1-0.83 9.11-0.2 3.01 0.62 5.84 1.94 8.27 3.83 2.43 1.89 4.39 4.31 5.74 7.08 1.35 2.77 2.05 5.81 2.04 8.89z"/></clipPath><clipPath clipPathUnits="userSpaceOnUse" id="cp4"><path d="m1.52-12.57h829.94v665.16h-829.94z"/></clipPath><clipPath clipPathUnits="userSpaceOnUse" id="cp5"><path d="m302.85 163.41h210.1v307.44h-210.1z"/></clipPath><clipPath clipPathUnits="userSpaceOnUse" id="cp6"><path d="m393.63 240.24h115.75v161.19h-115.75z"/></clipPath><clipPath clipPathUnits="userSpaceOnUse" id="cp7"><path d="m1.52-12.57h829.94v665.16h-829.94z"/></clipPath><clipPath clipPathUnits="userSpaceOnUse" id="cp8"><path d="m593.15 223.45h116.17v159.42h-116.17z"/></clipPath><clipPath clipPathUnits="userSpaceOnUse" id="cp9"><path d="m807.96 235.6l-2.37 99.64c-0.25 10.53-6.41 18.55-16.17 21.06l-155.41 38.96c-13.66 3.51-24.56-6.06-24.21-20.8l2.04-90.37c0.27-11.35 6.92-20 17.43-22.7l162.95-41.83q0.4-0.1 0.8-0.18 0.4-0.08 0.81-0.13 0.41-0.06 0.82-0.09 0.41-0.02 0.82-0.02c7.33 0 12.73 6.74 12.49 16.46z"/></clipPath><clipPath clipPathUnits="userSpaceOnUse" id="cp10"><path d="m660.5 296.22c9.23 5.41 20.88 10.83 37.82 7.51 11.03-2.16 19.7 1.63 26.62 5.41 5.73 3.13 10.26 6.27 13.95 6.03 13.81-0.87 7.79-1.83 19.35-4.85 2.06-0.6 4.2-0.9 6.34-0.87 2.15 0.03 4.28 0.38 6.32 1.04 2.04 0.66 3.97 1.62 5.73 2.85 1.75 1.23 3.32 2.71 4.64 4.4l-0.27 11.79-148.91 39.71 1.75-78.38q0.81-0.74 1.75-1.32 0.93-0.58 1.95-0.99 1.02-0.4 2.09-0.62 1.08-0.22 2.18-0.24c5.67 0 11.43 4.26 18.69 8.53z"/></clipPath><clipPath clipPathUnits="userSpaceOnUse" id="cp11"><path d="m605.13 114.43h104.19v78.97h-104.19z"/></clipPath><clipPath clipPathUnits="userSpaceOnUse" id="cp12"><path d="m539.63 571.65c-0.02 2.74 6.85 4.09 10.88 2.15q1.96-0.81 4.04-1.23 2.08-0.42 4.21-0.42 2.12 0 4.2 0.41 2.08 0.41 4.04 1.22l2.34 1.12c4.54 2.19 4.51 5.74-0.05 7.93-4.04 1.94-1.21 5.24 4.48 5.24 6.43-0.01 11.64 2.49 11.62 5.59l-0.01 1.59c-0.02 3.1-5.26 5.62-11.7 5.63-5.69 0.01-8.55 3.32-4.55 5.25 4.54 2.18 4.52 5.74-0.05 7.93l-2.35 1.13q-1.96 0.81-4.04 1.23-2.08 0.42-4.2 0.42-2.12 0-4.2-0.41-2.08-0.41-4.04-1.22c-4.01-1.93-10.9-0.55-10.92 2.19-0.02 3.1-5.25 5.62-11.69 5.63h-3.31c-6.44 0.01-11.65-2.49-11.63-5.59 0.02-2.73-6.85-4.09-10.88-2.15q-1.96 0.81-4.04 1.23-2.08 0.42-4.2 0.42-2.12 0.01-4.21-0.41-2.08-0.41-4.04-1.22l-2.33-1.12c-4.54-2.18-4.52-5.74 0.05-7.93 4.03-1.94 1.21-5.24-4.49-5.24-6.44 0.01-11.64-2.49-11.62-5.59l0.01-1.59c0.02-3.1 5.26-5.62 11.7-5.63 5.68-0.01 8.55-3.32 4.54-5.25-4.53-2.18-4.51-5.73 0.06-7.92l2.35-1.14q1.95-0.81 4.03-1.23 2.08-0.42 4.21-0.42 2.12 0 4.2 0.41 2.08 0.41 4.04 1.22c4.01 1.93 10.9 0.55 10.92-2.19 0.02-3.1 5.25-5.62 11.69-5.63h3.35c6.42 0 11.61 2.51 11.59 5.59zm6.93 32.71c11.34-5.45 11.39-14.26 0.13-19.68-11.26-5.42-29.58-5.39-40.92 0.06-11.33 5.45-11.39 14.26-0.13 19.68 5.61 2.7 12.97 4.05 20.34 4.05 7.44 0 14.89-1.37 20.58-4.11z"/></clipPath><clipPath clipPathUnits="userSpaceOnUse" id="cp13"><path d="m421.18 545.79c-0.02 2.21 5.53 3.31 8.79 1.74q1.58-0.66 3.26-1 1.68-0.33 3.4-0.34 1.71 0 3.4 0.33 1.68 0.34 3.26 0.99l1.89 0.91c3.67 1.76 3.65 4.63-0.04 6.41-3.26 1.56-0.98 4.24 3.62 4.23 5.2-0.01 9.4 2.01 9.39 4.52l-0.01 1.28c-0.02 2.51-4.25 4.54-9.45 4.55-4.6 0.01-6.92 2.68-3.68 4.24 3.67 1.77 3.65 4.64-0.04 6.41l-1.9 0.92q-1.58 0.66-3.26 0.99-1.68 0.34-3.4 0.34-1.71 0.01-3.39-0.33-1.69-0.33-3.27-0.98c-3.24-1.56-8.8-0.45-8.82 1.76-0.01 2.51-4.24 4.54-9.45 4.55h-2.68c-5.2 0.01-9.4-2.01-9.38-4.52 0.01-2.21-5.54-3.31-8.8-1.74q-1.58 0.66-3.26 1-1.68 0.34-3.4 0.34-1.71 0-3.39-0.33-1.69-0.33-3.27-0.99l-1.89-0.91c-3.67-1.76-3.65-4.63 0.04-6.4 3.26-1.57 0.98-4.24-3.62-4.24-5.2 0.01-9.4-2.01-9.38-4.51v-1.29c0.02-2.5 4.25-4.54 9.45-4.55 4.6 0 6.92-2.68 3.68-4.24-3.67-1.77-3.65-4.63 0.04-6.41l1.9-0.91q1.58-0.66 3.26-1 1.69-0.34 3.4-0.34 1.71 0 3.4 0.33 1.68 0.33 3.26 0.99c3.24 1.56 8.81 0.44 8.82-1.77 0.02-2.5 4.25-4.54 9.45-4.55h2.71c5.19 0 9.37 2.02 9.36 4.52zm5.6 26.43c9.16-4.41 9.2-11.53 0.1-15.91-9.1-4.37-23.9-4.35-33.06 0.05-9.17 4.41-9.21 11.53-0.11 15.91q1.94 0.85 3.95 1.48 2.02 0.63 4.09 1.05 2.08 0.41 4.18 0.59 2.11 0.19 4.22 0.15 2.14 0.04 4.27-0.15 2.12-0.19 4.22-0.61 2.1-0.42 4.14-1.06 2.04-0.64 4-1.5z"/></clipPath></defs><style>.a{opacity:0;fill:#0068f5}.b{fill:#0068f5}.c{fill:#e6efff}.d{fill:#fff;stroke:#ceddff}.e{fill:#3a8eff}.f{mix-blend-mode:multiply;fill:#0049d8}.g{fill:#f5f6f7}.h{fill:#0049d8}.i{fill:#0039aa}.j{fill:#1d69ff}.k{fill:none;stroke:#002e8a;stroke-linecap:round;stroke-linejoin:round;stroke-width:4.4}.l{fill:#fff}.m{fill:#dce8ff}.n{mix-blend-mode:multiply;fill:#050c27}.o{fill:#2380ff}.p{fill:none;stroke:#2380ff;stroke-linecap:round;stroke-linejoin:round;stroke-width:4.3}.q{fill:none}.r{mix-blend-mode:multiply;fill:#719bf8}.s{fill:#fac05e}.t{fill:#e59000}.u{fill:#11274b}.v{fill:#ce8100}.w{fill:#ffb12e}.x{fill:#183668}.y{fill:none;stroke:#fffcfa;stroke-linecap:round;stroke-linejoin:round;stroke-width:1.9}.z{fill:#fff;stroke:#fff}.A{fill:#0060e2}.B{fill:none;stroke:#183668;stroke-linecap:round;stroke-linejoin:round;stroke-width:2.9}.C{fill:none;stroke:#183668;stroke-linecap:round;stroke-width:2.9}.D{fill:none;stroke:#ceddff}.E{fill:#719bf8}.F{fill:#004de5}.G{opacity:.1;fill:#0049d8}.H{fill:#004de3}.I{fill:#4a87ff}</style><g clip-path="url(#cp1)"><path class="a" d="m231.5 636.1q-3.2 0.2-6.4-0.2-3.2-0.5-6.2-1.6-3-1.1-5.7-2.8l-208-130.5c-16.6-10.4-12.1-36.1 7.4-41.2l515.1-135.1 228.7 143.5c13.1 8.2 9.5 28.4-5.8 32.4l-512.8 134.5q-3.1 0.9-6.3 1z"/><g clip-path="url(#cp2)"><path class="b" d="m150.4 139.2l514.4-130.2q2.3-0.6 4.7-0.6 2.4 0 4.8 0.5 2.3 0.5 4.4 1.6 2.2 1.1 4 2.6l18.1 12.4-10.8 14.7v361.6c0 2.2-0.4 4.4-1.1 6.5-0.7 2.2-1.8 4.1-3.2 5.9-1.4 1.8-3 3.3-4.9 4.5-1.9 1.2-3.9 2.1-6.1 2.7l-510.7 140.8c0 0-15.3-10.4-19.9-13.4q-2-1.4-3.7-3.2-1.7-1.9-2.9-4.1-1.2-2.2-1.8-4.6-0.6-2.4-0.6-4.9v-373.2c0-2.2 0.4-4.4 1.1-6.5 0.7-2.2 1.8-4.1 3.2-5.9 1.3-1.8 3-3.3 4.9-4.5 1.8-1.2 3.9-2.1 6.1-2.7z"/></g><g clip-path="url(#cp3)"><path class="c" d="m154.4 21.5h554.9v546.4h-554.9z"/></g><path class="d" d="m270.2 313.7l-2.2 90.2c-0.2 9.6-5.8 16.9-14.6 19.1l-140.8 35.3c-12.4 3.2-22.3-5.5-22-18.8l1.9-81.9c0.2-10.3 6.3-18.1 15.8-20.6l147.6-37.9q0.4-0.1 0.8-0.1 0.3-0.1 0.7-0.2 0.4 0 0.7 0 0.4-0.1 0.8-0.1c6.6 0 11.5 6.2 11.3 15z"/><g clip-path="url(#cp4)"><path class="e" d="m154.4 222.1v-50.2c0-2.2 0.4-4.4 1.1-6.6 0.8-2.1 1.8-4 3.2-5.8 1.4-1.8 3-3.3 4.9-4.5 1.9-1.2 3.9-2.1 6.1-2.7l514.5-130.2c2.9-0.7 6.1-0.8 9.1-0.2 3 0.7 5.8 2 8.2 3.9 2.5 1.9 4.4 4.3 5.8 7 1.3 2.8 2 5.8 2 8.9v33.5z"/><g style="opacity:.2"><g clip-path="url(#cp5)"><path class="f" d="m303.9 382.2l-1.1-142.4 104.2-76.4 104.9 18.7 1 142.4c0.5 60.6-42.6 107.2-100.9 146.4-67.9-16.9-109.2-68.3-108.1-88.7z"/></g></g><path class="g" d="m219.6 168.5q0.7-1.5 1.8-2.6 1.2-1.1 2.6-1.8 1.4-0.7 2.9-0.9c1-0.2 1.9-0.1 2.8 0.1 0.9 0.3 1.7 0.8 2.3 1.4q1.1 1.1 1.5 2.4c0.3 0.8 0.4 1.8 0.3 2.7q-0.3 1.6-1 3-0.6 1.4-1.8 2.5-1.1 1.1-2.5 1.9-1.4 0.7-3 0.9c-0.9 0.1-1.8 0.1-2.7-0.2-0.9-0.3-1.7-0.8-2.4-1.4-0.6-0.6-1.1-1.4-1.4-2.3q-0.4-1.4-0.3-2.7 0.2-1.6 0.9-3z"/><path class="g" d="m197.1 174.3q0.7-1.4 1.8-2.6 1.1-1.1 2.5-1.8 1.4-0.7 3-0.9c0.9-0.2 1.8-0.1 2.7 0.2 0.9 0.2 1.7 0.7 2.4 1.4 0.6 0.6 1.1 1.4 1.4 2.3q0.5 1.4 0.3 2.7-0.2 1.6-0.9 3-0.7 1.4-1.8 2.5-1.1 1.2-2.5 1.9-1.5 0.7-3 0.9c-0.9 0.2-1.9 0.1-2.8-0.2-0.8-0.3-1.6-0.7-2.3-1.4-0.7-0.6-1.2-1.4-1.5-2.3-0.3-0.9-0.4-1.8-0.2-2.7q0.2-1.6 0.9-3z"/><path class="g" d="m175 180.4q0.7-1.4 1.8-2.6 1.1-1.1 2.5-1.8 1.4-0.7 3-0.9c0.9-0.2 1.8-0.1 2.7 0.1 0.9 0.3 1.7 0.8 2.4 1.4 0.6 0.7 1.1 1.5 1.4 2.4 0.3 0.8 0.4 1.8 0.3 2.7q-0.2 1.6-0.9 3-0.7 1.4-1.8 2.5-1.1 1.1-2.6 1.9-1.4 0.7-2.9 0.9c-0.9 0.1-1.9 0.1-2.8-0.2-0.8-0.3-1.7-0.7-2.3-1.4-0.7-0.6-1.2-1.4-1.5-2.3-0.3-0.9-0.4-1.8-0.2-2.7q0.2-1.6 0.9-3z"/><path class="h" d="m329.9 381.9l-1.1-142.4 104.2-76.4 104.9 18.7 23.6 17.4-22.6 125c0.5 60.6-36 127.3-89.6 146.1-59.6 7.6-120.5-38.6-119.4-88.4z"/><path class="i" d="m329.9 381.9l-1.1-142.4 104.2-76.4 23.7 17.5 82.2 143.6c0.5 60.6-36 127.3-89.6 146.1-59.6 7.6-120.5-38.6-119.4-88.4z"/><path class="h" d="m329.9 381.9l-1.1-142.4 23.7 17.4 186.4 67.3c0.5 60.6-36 127.3-89.6 146.1-59.6 7.6-120.5-38.6-119.4-88.4z"/><path class="j" d="m353.5 399.3l-1-142.4 104.2-76.3 104.8 18.6 1.1 142.4c0.4 60.7-42.7 107.2-101 146.4-67.8-16.8-109.1-68.3-108.1-88.7z"/><path class="k" d="m353.5 399.3l-1-142.4 104.2-76.3 104.8 18.6 1.1 142.4c0.4 60.7-42.7 107.2-101 146.4-67.8-16.8-109.1-68.3-108.1-88.7z"/><path class="l" d="m391.9 346.8l-14.3-73.1 83.3-61.1 83.9 14.9 0.9 113.9c0.3 48.5-44.4 85.9-83.7 123.4 0 0-69.7-69.5-70.1-118z"/><path class="m" d="m378.4 387.6l-0.8-113.9 83.3-61.1 1.1 252.2c-51.1-20-79.4-53.5-83.6-77.2z"/><g style="opacity:.1"><g clip-path="url(#cp6)"><path fill-rule="evenodd" class="n" d="m393.6 387.4l0.3-63.3v-10.9c0.1-3.7 3.9-7.1 10.9-8.9l15.2-3.9c-0.3-18.9 2.7-56.3 31.6-59.8 0 0 31.9-7.3 31.6 45.7 8.4 0.4 16.8 2.7 21.8 6.5 2.7 2.1 4.1 4.3 4.3 6.4v0.2q0.1 0.3 0 0.6l0.1 73.5h-0.1c0.6 4.1-3.3 7.9-10.9 9.9l-65.2 16.8c-11.4 2.9-27.1 0.5-34.9-5.3q-0.7-0.4-1.3-1-0.6-0.5-1-1.1-0.5-0.6-1-1.3-0.4-0.6-0.7-1.3-0.2-0.4-0.3-0.7-0.1-0.3-0.2-0.7-0.1-0.4-0.1-0.7-0.1-0.4-0.1-0.7zm60.6-124.5q-0.4 0-0.9 0-0.4 0-0.9 0.1-0.4 0.1-0.8 0.2-0.5 0.1-0.9 0.3c-3.5 1.7-10.9 7.9-11.6 32l25.6-6.6c0.3-11.1-0.9-26.6-10.5-26z"/></g></g></g><path class="o" d="m222 333.5c18.1-4.7 32.9 7.5 33.2 27.2 0.2 19.6-14.3 39.3-32.3 44-18.1 4.6-32.9-7.5-33.2-27.2-0.2-19.6 14.3-39.3 32.3-44z"/><path fill-rule="evenodd" class="l" d="m211.2 390.9c-2.9 0.7-6.4-2.7-5.6-5.5 0.7-2.8 1.7-5.2 2.6-6.2q0.2-0.3 0.5-0.6 0.3-0.2 0.7-0.5 0.3-0.2 0.6-0.5 0.4-0.2 0.7-0.4c0.9-0.5 2-1.3 3.1-2q0.6-0.4 1.1-0.8l2.2-1.6 1-0.9q0-0.1 0.1-0.1 0.1-0.1 0.1-0.1 0-0.1 0-0.2 0 0 0-0.1 0 0 0-0.1 0 0 0-0.1 0.1-1.4 0.1-2.9-0.3-0.3-0.6-0.6-0.3-0.4-0.5-0.8-0.2-0.5-0.3-0.9-0.2-0.5-0.2-1c-1.5 0.5-1.8-1.5-2-2.8-0.1-1-0.2-3.3 0.9-3.9q0-0.2-0.1-0.4 0-0.3-0.1-0.6-0.1-0.3-0.1-0.7-0.1-0.3-0.1-0.6 0-0.3 0-0.6 0-0.4 0-0.7 0-0.4 0.1-0.7 0.1-0.4 0.2-0.7 0.1-0.3 0.2-0.7 0.1 0 0.1-0.1 0-0.1 0.1-0.1 0-0.1 0.1-0.2 0 0 0.1-0.1 0-0.1 0-0.3 0-0.1 0-0.2 0.1-0.1 0.1-0.3 0-0.1 0.1-0.2 0.3-0.9 0.7-1.7 0.4-0.8 1-1.5 0.6-0.7 1.2-1.3 0.7-0.5 1.5-1 0.6-0.3 1.3-0.6 0.7-0.2 1.4-0.3 0.7-0.1 1.4-0.1 0.7 0 1.4 0.1c1.3 0.2 3 0.9 3.1 3.1q0 0.1 0 0.2 0 0.1-0.1 0.2 0 0.1 0 0.2 0 0.1-0.1 0.2c0.3-0.1 0.5 0.1 0.6 0.3q0.1 0.3 0.2 0.6 0.1 0.3 0.2 0.6 0.1 0.3 0.1 0.6 0 0.4 0 0.7 0 0.3-0.1 0.7 0 0.3 0 0.6-0.1 0.4-0.2 0.7 0 0.4-0.1 0.7-0.1 0.2-0.1 0.5c1.4-0.4 1.2 2.3 1 3.4-0.2 1.4-0.6 3.4-1.9 3.8q-0.1 0.3-0.1 0.5-0.1 0.2-0.1 0.4-0.1 0.3-0.1 0.5-0.1 0.2-0.2 0.4-0.1 0.3-0.2 0.6-0.1 0.3-0.3 0.6-0.1 0.3-0.3 0.5-0.2 0.3-0.4 0.5 0 0.1 0 0.1 0 1.4-0.1 2.9 0 0.1 0 0.1 0 0 0 0.1 0 0 0 0.1c0 0 0.2 0.2 0.3 0.3l0.6 0.4 0.6 0.1c0.1 0 0.3 0 0.4 0q0.2 0 0.3 0.1 0.2 0 0.3 0 0.2 0 0.3 0.1h0.1q0.7 0.1 1.5 0.3c0.9 0.3 1.8 0.3 2.6 0.6 2.2 0.7 5.2 3.4 5.6 8.3q0.2 0.7 0 1.5-0.1 0.8-0.5 1.4-0.5 0.7-1.1 1.1-0.6 0.5-1.3 0.7zm3.9-28.6q0 0.2 0.1 0.3-0.1-0.2-0.1-0.3z"/><path class="b" d="m129 377.5l32.8-8.4c4.2-1.1 8.3 2.4 8.4 7.1q0 1.1-0.3 2.2-0.3 1-0.9 1.9-0.7 0.9-1.6 1.6-0.9 0.6-2 0.9l-32.8 8.5c-4.1 1.1-8.3-2.5-8.4-7.1q0-1.2 0.3-2.2 0.3-1.1 1-2 0.6-0.9 1.5-1.6 1-0.6 2-0.9z"/><path class="b" d="m170.5 401.7q0 1.2-0.3 2.2-0.3 1.1-0.9 2-0.7 0.9-1.6 1.6-0.9 0.6-2 0.9l-56.5 14.6c-4.2 1-8.4-2.5-8.4-7.1q-0.1-1.2 0.2-2.2 0.4-1.1 1-2 0.7-0.9 1.6-1.6 0.9-0.6 2-0.9l56.5-14.6c4.2-1.1 8.3 2.5 8.4 7.1z"/><path class="p" d="m246.4 328.4c18.6 11 22.5 38.6 8.8 61.8-13.8 23.2-39.9 33-58.5 22-18.5-11-22.5-38.7-8.7-61.8 13.7-23.2 39.8-33 58.4-22z"/><path class="q" d="m1.5-12.6h830v665.2h-830z"/><g clip-path="url(#cp7)"><g style="opacity:.3"><g clip-path="url(#cp8)"><path class="r" d="m595.2 271c0.3-11.4 6.9-20 17.4-22.7l96.7-24.9v135.7l-91.9 23c-13.7 3.6-24.6-6-24.2-20.8z"/></g></g><path class="s" d="m410.3 400.6c-7.8-5.9-4.9-13 6.6-16l65.2-16.8c11.4-2.9 27.1-0.5 34.9 5.3 7.9 5.9 4.9 13-6.5 16l-65.2 16.8c-11.4 2.9-27.2 0.5-35-5.3z"/><path class="s" d="m521.4 304.9v74.3l-115.5 14.4v-74.7z"/><path class="t" d="m435.4 314.7v75.8c0 3.1 1.9 6.3 5.9 9.3q0.9 0.7 1.9 1.3 1 0.6 2 1.1 1 0.6 2 1.1 1.1 0.4 2.1 0.9l-4.3 1.1c-11.4 2.9-27.1 0.5-35-5.3-2.9-2.2-4.4-4.7-4.3-7l0.3-73.3z"/><path class="u" d="m467.5 384.8v-21.4c0-3.8 3.1-8 6.9-9.3 3.7-1.3 6.8 0.7 6.8 4.5v21.5c0 3.8-3.1 7.9-6.8 9.2-3.8 1.3-6.9-0.7-6.9-4.5z"/><path class="u" d="m463.7 352.1c0.7-1.5 1.7-2.9 2.9-4.1 1.2-1.2 2.6-2.2 4.1-3q2.3-1.2 4.8-1.5c6.7-0.8 11.6 4 11 10.7-0.2 1.7-0.7 3.3-1.5 4.9-0.7 1.5-1.7 2.9-2.9 4.1-1.2 1.2-2.6 2.2-4.1 2.9-1.5 0.8-3.1 1.3-4.8 1.6-6.7 0.7-11.6-4.1-11-10.8q0.3-2.6 1.5-4.8z"/><path class="v" d="m476.4 382.2v-16.1q1.1-0.9 2-2 0.9-1.1 1.6-2.4 0.7-1.2 1.1-2.6 0.4-1.4 0.6-2.8c0.6-6.7-4.3-11.5-11-10.7q-0.2 0-0.4 0-0.2 0.1-0.4 0.1-0.1 0-0.3 0.1-0.2 0-0.4 0 0.7-0.4 1.5-0.8 0.7-0.4 1.5-0.7 0.8-0.3 1.6-0.5 0.9-0.2 1.7-0.3c6.7-0.7 11.6 4.1 11 10.7q-0.2 1.4-0.6 2.8-0.4 1.4-1.1 2.6-0.7 1.3-1.6 2.4-0.9 1.1-2 2v16.1c0 3.8-3.1 7.9-6.8 9.2q-0.3 0.1-0.5 0.2-0.2 0-0.5 0.1-0.2 0-0.4 0.1-0.3 0-0.5 0 0.9-0.7 1.6-1.5 0.6-0.9 1.2-1.8 0.5-1 0.7-2.1 0.3-1 0.4-2.1z"/><path class="w" d="m410.3 326c-7.8-5.9-4.9-13.1 6.6-16l65.2-16.8c11.4-2.9 27.1-0.5 34.9 5.3 7.9 5.8 4.9 13-6.5 16l-65.2 16.7c-11.4 3-27.2 0.6-35-5.2z"/><path class="x" d="m442.1 320.8c-5.1 0-9.3-1.9-9.3-4.2 0-2.4 4.2-4.3 9.3-4.3 5.2 0 9.4 1.9 9.4 4.3 0 2.3-4.2 4.2-9.4 4.2z"/><path class="x" d="m485.2 309.8c-5.2 0-9.3-1.9-9.3-4.2 0-2.4 4.1-4.3 9.3-4.3 5.2 0 9.4 1.9 9.4 4.3 0 2.3-4.2 4.2-9.4 4.2z"/><path class="x" d="m463.6 246.3c0 0 37.1-8.5 31 59.3h-18.7c0 0 5.3-37.9-9.6-37q-0.5-0.1-0.9 0-0.5 0-0.9 0.1-0.5 0.1-0.9 0.2-0.4 0.1-0.9 0.2c-4.1 2.1-13.8 10.4-11.2 47.8h-18.8c0 0-7.9-65.9 30.9-70.6z"/><path class="y" d="m510.5 314.5l-65.2 16.7c0 0-8.8 2.3-9.9 1.3"/><path class="y" d="m451.5 316.6c0 0-0.4 4.4-9.4 4.2-8.9-0.1-9.4-3.9-9.4-3.9"/><path class="y" d="m495.3 305.6c0 0-0.4 4.4-9.3 4.2-9-0.2-9.4-3.9-9.4-3.9"/></g><g clip-path="url(#cp9)"><path class="z" d="m792.4 446.4l-237.8-61.9 70.6-213 237.8 61.9z"/></g><g clip-path="url(#cp10)"><path class="A" d="m653 404l-63.1-104.9 170.4-46.2 63.1 104.9z"/></g><path class="B" d="m781 330l1.7-78.3"/><path class="B" d="m743.9 339l1.8-78.3"/><path class="B" d="m706.8 348.9l1.8-78.3"/><path class="C" d="m669.7 358.9l1.8-78.3"/><path class="B" d="m632.6 370.1l1.8-78.3"/><path class="x" d="m776.8 339.6l4.8-1.4q0.1 0 0.1 0l3.6-1c0.5-0.1 0.9 0.3 0.9 1q0 0.2 0 0.4-0.1 0.3-0.3 0.5-0.1 0.2-0.3 0.3-0.2 0.2-0.4 0.3l-4.8 1.3q-0.1 0-0.1 0l-3.6 1.1c-0.5 0.1-0.9-0.3-0.9-1q0-0.2 0-0.5 0.1-0.2 0.3-0.4 0.1-0.2 0.3-0.3 0.2-0.2 0.4-0.3z"/><path class="x" d="m743.4 348.3l4.9-1.4 3.6-1c0.6-0.1 1 0.3 1 1q0 0.2-0.1 0.4-0.1 0.3-0.2 0.5-0.1 0.2-0.3 0.3-0.2 0.2-0.4 0.3l-4.9 1.3-3.6 1.1c-0.6 0.1-1-0.3-1-1q0-0.2 0.1-0.5 0.1-0.2 0.2-0.4 0.1-0.2 0.3-0.3 0.2-0.2 0.4-0.3z"/><path class="x" d="m710.1 357l4.8-1.4q0.1 0 0.1 0l3.6-1c0.5-0.1 1 0.3 0.9 0.9q0 0.3 0 0.5-0.1 0.2-0.2 0.4-0.2 0.2-0.4 0.4-0.1 0.2-0.4 0.2l-4.8 1.4q0 0-0.1 0l-3.6 1c-0.5 0.2-0.9-0.2-0.9-0.9q0-0.2 0.1-0.5 0-0.2 0.2-0.4 0.1-0.2 0.3-0.3 0.2-0.2 0.4-0.3z"/><path class="x" d="m672.2 366.8l4.8-1.4q0 0 0.1 0l3.6-1c0.5-0.1 0.9 0.3 0.9 1q0 0.2-0.1 0.4 0 0.3-0.2 0.5-0.1 0.2-0.3 0.3-0.2 0.2-0.4 0.3l-4.9 1.3-3.6 1.1c-0.5 0.1-1-0.3-1-1q0.1-0.2 0.1-0.5 0.1-0.2 0.2-0.4 0.2-0.2 0.3-0.3 0.2-0.2 0.5-0.3z"/><path class="x" d="m635.2 376.9l4.9-1.4 3.6-1c0.6-0.2 1 0.3 1 0.9q0 0.3-0.1 0.5-0.1 0.2-0.2 0.4-0.1 0.2-0.3 0.4-0.2 0.1-0.4 0.2l-4.9 1.4-3.6 1c-0.6 0.2-1-0.2-1-0.9q0-0.2 0.1-0.5 0.1-0.2 0.2-0.4 0.1-0.2 0.3-0.4 0.2-0.1 0.4-0.2z"/><path class="q" d="m1.5-12.6h830v665.2h-830z"/><path class="D" d="m808 235.6l-2.4 99.6c-0.3 10.6-6.4 18.6-16.2 21.1l-155.4 39c-13.7 3.5-24.5-6.1-24.2-20.8l2-90.4c0.3-11.4 7-20 17.5-22.7l162.9-41.8q0.4-0.1 0.8-0.2 0.4-0.1 0.8-0.2 0.4 0 0.8 0 0.5-0.1 0.9-0.1c7.3 0 12.7 6.8 12.5 16.5z"/><g style="opacity:.4"><g clip-path="url(#cp11)"><path class="E" d="m629.6 136.4l79.7-22v57.8l-73.3 20.2c-15.2 4.2-28.9-5-30.7-20.5-1.7-15.4 9.2-31.4 24.3-35.5z"/></g></g><path class="F" d="m616.7 185.9c-1.7-15.4 9.3-31.5 24.4-35.6l122.3-33.7c15.1-4.1 28.9 5.1 30.6 20.5 1.7 15.4-9.2 31.4-24.3 35.6l-122.3 33.6c-15.1 4.2-28.9-5-30.7-20.4z"/><path class="l" d="m752.8 150.2l3.9-1-2.9-1.9 2.6-3.2 2.9 1.9-0.2-3.6 3.9-0.9 0.2 3.6 2.6-3.2 2.8 1.9-2.6 3.2 3.9-1 0.2 3.6-3.9 1 2.8 1.9-2.6 3.2-2.8-1.9 0.1 3.6-3.8 0.9-0.2-3.6-2.6 3.2-2.9-1.8 2.7-3.3-3.9 1z"/><path class="l" d="m732 155.6l3.8-0.9-2.8-1.9 2.6-3.2 2.9 1.9-0.2-3.7 3.8-0.9 0.2 3.6 2.6-3.2 2.9 1.9-2.6 3.2 3.8-0.9 0.2 3.6-3.9 0.9 2.9 1.9-2.6 3.2-2.9-1.9 0.2 3.6-3.9 1-0.1-3.6-2.7 3.2-2.8-1.9 2.6-3.2-3.9 0.9z"/><path class="l" d="m711.1 161l3.9-0.9-2.9-1.9 2.6-3.2 2.9 1.9-0.2-3.6 3.9-1 0.2 3.7 2.6-3.3 2.8 1.9-2.6 3.2 3.9-0.9 0.2 3.6-3.9 0.9 2.8 1.9-2.6 3.2-2.8-1.9 0.1 3.7-3.8 0.9-0.2-3.6-2.6 3.2-2.9-1.9 2.7-3.2-3.9 0.9z"/><path class="l" d="m690.3 166.5l3.9-1-2.9-1.9 2.6-3.2 2.9 1.9-0.2-3.6 3.9-0.9 0.1 3.6 2.6-3.2 2.9 1.9-2.6 3.2 3.8-1 0.2 3.6-3.9 1 2.9 1.9-2.6 3.2-2.9-1.9 0.2 3.6-3.9 0.9-0.1-3.6-2.7 3.2-2.8-1.8 2.6-3.3-3.9 1z"/><path class="l" d="m669.4 171.9l3.9-0.9-2.9-1.9 2.7-3.2 2.8 1.9-0.2-3.7 3.9-0.9 0.2 3.6 2.6-3.2 2.8 1.9-2.6 3.2 3.9-0.9 0.2 3.6-3.9 0.9 2.9 1.9-2.6 3.2-2.9-1.9 0.2 3.6-3.9 1-0.2-3.7-2.6 3.3-2.8-1.9 2.6-3.2-3.9 0.9z"/><path class="l" d="m648.6 177.3l3.9-0.9-2.9-1.9 2.6-3.2 2.9 1.9-0.2-3.6 3.9-1 0.1 3.7 2.7-3.3 2.8 1.9-2.6 3.2 3.9-0.9 0.1 3.6-3.9 0.9 2.9 1.9-2.6 3.2-2.9-1.9 0.2 3.7-3.8 0.9-0.2-3.6-2.6 3.2-2.9-1.9 2.6-3.2-3.8 0.9z"/><path fill-rule="evenodd" class="G" d="m471.5 626.7c4.1-2 1.2-5.3-4.5-5.3-6.4 0-11.6-2.5-11.6-5.6v-1.6c0.1-3.1 5.3-5.6 11.7-5.6 5.7 0 8.6-3.3 4.6-5.2-4.6-2.2-4.5-5.8 0-8l2.4-1.1q1.9-0.8 4-1.2 2.1-0.5 4.2-0.5 2.1 0 4.2 0.5 2.1 0.4 4.1 1.2c4 1.9 10.9 0.5 10.9-2.2 0-3.1 5.2-5.6 11.7-5.6h3.3c6.4-0.1 11.6 2.5 11.6 5.5 0 2.8 6.9 4.1 10.9 2.2q2-0.8 4-1.2 2.1-0.4 4.2-0.5 2.2 0 4.2 0.5 2.1 0.4 4.1 1.2l2.3 1.1c4.6 2.2 4.5 5.7 0 7.9-4.1 2-1.2 5.3 4.5 5.3 6.4 0 11.6 2.5 11.6 5.6v1.6c-0.1 3-5.3 5.6-11.7 5.6-5.7 0-8.6 3.3-4.6 5.2 4.6 2.2 4.5 5.8 0 8l-2.4 1.1q-1.9 0.8-4 1.2-2.1 0.4-4.2 0.4-2.1 0-4.2-0.4-2.1-0.4-4.1-1.2c-4-1.9-10.9-0.5-10.9 2.2 0 3.1-5.2 5.6-11.7 5.6h-3.3c-6.4 0-11.6-2.5-11.6-5.6 0-2.7-6.9-4.1-10.9-2.1q-1.9 0.8-4 1.2-2.1 0.4-4.2 0.4-2.2 0-4.2-0.4-2.1-0.4-4.1-1.2l-2.3-1.1c-4.6-2.2-4.5-5.8 0-7.9zm63.6-1.9c11.3-5.5 11.3-14.3 0.1-19.7-11.3-5.4-29.6-5.4-40.9 0-11.4 5.5-11.4 14.3-0.2 19.7 11.3 5.4 29.6 5.4 41 0z"/><path fill-rule="evenodd" class="H" d="m466.9 595.8l9.2-1.3 4-1.5q0.2-0.5 0.6-0.9 0.3-0.4 0.7-0.8 0.4-0.4 0.9-0.6 0.4-0.3 0.9-0.5l2.4-1.2q0.2-0.1 0.4-0.1 0.2-0.1 0.4-0.2 0.2-0.1 0.4-0.2 0.2 0 0.4-0.1l-7-0.3-0.4-8.8 30.6-3 2.9-6 26.3 0.7-3.7 5.7c6.8 0.5 15.6 1 15.6 1l1.4 1.5c2.8-0.1 19.7-1.1 19.7-1.1v11.5l-6.2-0.9q0.3 0.1 0.6 0.2l2.3 1.1q0.6 0.2 1 0.5 0.5 0.3 0.9 0.7 0.4 0.4 0.7 0.8 0.4 0.5 0.6 1l12.9 0.7v14.3h-0.1q0 0.1 0 0.2 0 0.1 0.1 0.2 0 0.1 0 0.2 0 0.1 0 0.2v1.6c0 3.1-5.3 5.6-11.7 5.6q-0.6 0-1.1 0.1l-0.1 9c0.1 1.5-1.1 3-3.4 4.1l-2.4 1.1q-1.9 0.8-4 1.3-2.1 0.4-4.2 0.4-2.1 0-4.2-0.4-2.1-0.4-4.1-1.2c-4-2-10.8-0.6-10.9 2.1 0 3.1-5.2 5.7-11.7 5.7h-3.3c-6.4 0-11.6-2.5-11.6-5.6 0-2.8-6.8-4.1-10.9-2.2q-1.9 0.8-4 1.3-2.1 0.4-4.2 0.4-2.1 0-4.2-0.4-2.1-0.4-4.1-1.3l-2.3-1.1c-2.8-1.3-3.9-3.2-3.2-5v-8.1q-0.6 0-1.2 0c-6.3 0-11.3-2.4-11.6-5.3v-0.2q0-0.1-0.1-0.1l0.1-1.6zm79 6.6c0-5.5-9.2-9.9-20.5-9.9-11.4 0-20.6 4.4-20.6 9.9 0 5.4 9.2 9.8 20.6 9.8 11.3 0 20.5-4.4 20.5-9.8z"/><g clip-path="url(#cp12)"><path class="I" d="m466.9 566.1h118.5v56.9h-118.5z"/></g><path fill-rule="evenodd" class="G" d="m366.2 590.2c3.2-1.5 0.9-4.2-3.7-4.2-5.2 0-9.4-2-9.4-4.5l0.1-1.3c0-2.5 4.2-4.5 9.4-4.5 4.6-0.1 6.9-2.7 3.7-4.3-3.7-1.8-3.7-4.6 0-6.4l1.9-0.9q1.6-0.7 3.3-1 1.7-0.3 3.4-0.3 1.7-0.1 3.4 0.3 1.7 0.3 3.2 1c3.3 1.5 8.8 0.4 8.9-1.8 0-2.5 4.2-4.5 9.4-4.6h2.7c5.2 0 9.4 2.1 9.4 4.6 0 2.2 5.5 3.3 8.8 1.7q1.6-0.7 3.2-1 1.7-0.3 3.4-0.3 1.7 0 3.4 0.3 1.7 0.3 3.3 1l1.9 0.9c3.7 1.8 3.6 4.6-0.1 6.4-3.2 1.6-0.9 4.2 3.7 4.2 5.2 0 9.4 2.1 9.4 4.6l-0.1 1.2c0 2.5-4.2 4.6-9.4 4.6-4.6 0-6.9 2.7-3.7 4.2 3.7 1.8 3.7 4.7 0 6.4l-1.9 1q-1.6 0.6-3.3 0.9-1.7 0.4-3.4 0.4-1.7 0-3.4-0.3-1.7-0.4-3.2-1c-3.3-1.6-8.8-0.5-8.9 1.7 0 2.5-4.2 4.6-9.4 4.6h-2.7c-5.2 0-9.4-2-9.4-4.5 0-2.2-5.5-3.3-8.8-1.8q-1.6 0.7-3.2 1-1.7 0.4-3.4 0.4-1.7 0-3.4-0.4-1.7-0.3-3.3-0.9l-1.9-1c-3.6-1.7-3.6-4.6 0.1-6.4zm51.3-1.5c9.1-4.4 9.2-11.5 0.1-15.9-9.1-4.4-23.9-4.4-33.1 0-9.1 4.4-9.2 11.6-0.1 15.9 9.1 4.4 23.9 4.4 33.1 0z"/><path fill-rule="evenodd" class="H" d="m362.4 565.3l7.5-1 3.2-1.3q0.2-0.4 0.4-0.7 0.3-0.4 0.6-0.6 0.4-0.3 0.7-0.6 0.4-0.2 0.8-0.4l1.9-0.9q0.2 0 0.3-0.1 0.2-0.1 0.4-0.1 0.1-0.1 0.3-0.2 0.1 0 0.3-0.1l-5.7-0.2-0.2-7.2 24.7-2.4 2.3-4.8 21.2 0.6-2.9 4.6c5.5 0.3 12.6 0.8 12.6 0.8l1.1 1.2c2.3-0.1 15.9-0.9 15.9-0.9v9.3l-5-0.8q0.3 0.1 0.5 0.2l1.9 0.9q0.4 0.2 0.8 0.4 0.4 0.3 0.7 0.6 0.3 0.3 0.6 0.6 0.3 0.4 0.5 0.8l10.3 0.6c0 0.1 0 11.7 0 11.7q0 0.1 0 0.2 0 0.1 0 0.1 0 0.1 0 0.2v1.3c0 2.5-4.2 4.5-9.4 4.5q-0.5 0-0.9 0.1l-0.1 7.3c0.1 1.2-0.8 2.4-2.7 3.3l-1.9 0.9q-1.6 0.7-3.3 1-1.7 0.3-3.4 0.3-1.7 0-3.4-0.3-1.7-0.3-3.2-1c-3.3-1.5-8.8-0.4-8.9 1.8 0 2.5-4.2 4.5-9.4 4.5h-2.7c-5.2 0-9.4-2-9.4-4.5 0-2.2-5.5-3.3-8.8-1.7q-1.6 0.6-3.2 1-1.7 0.3-3.4 0.3-1.7 0-3.4-0.3-1.7-0.4-3.3-1l-1.9-0.9c-2.3-1.1-3.1-2.6-2.5-4.1v-6.5q-0.5-0.1-1.1-0.1c-5 0.1-9.1-1.8-9.3-4.2 0 0 0-0.2 0-0.3v-1.3zm63.8 5.3c0-4.4-7.4-8-16.5-8-9.2 0-16.6 3.6-16.6 8 0 4.4 7.4 8 16.6 8 9.1 0 16.5-3.6 16.5-8z"/><g clip-path="url(#cp13)"><path class="I" d="m362.4 541.3h95.8v46h-95.8z"/></g></g></svg>