<svg id="Layer_1" data-name="Layer 1" xmlns="http://www.w3.org/2000/svg" xmlns:xlink="http://www.w3.org/1999/xlink" viewBox="0 0 150 50">
  <defs>
    <style>
      .cls-1 {
        fill: none;
      }

      .cls-2 {
        fill: #fff;
      }

      .cls-3 {
        clip-path: url(#clip-path);
      }

      .cls-4 {
        fill: #2966ff;
      }

      .cls-5 {
        fill: #9ee0fc;
      }
    </style>
    <clipPath id="clip-path">
      <rect class="cls-1" x="7.22" y="14.32" width="135.55" height="21.37"/>
    </clipPath>
  </defs>
  <g>
    <rect class="cls-2" x="28.94" y="14.32" width="0.24" height="20.56"/>
    <g class="cls-3">
      <path class="cls-2" d="M23.7,14.32V29.49s.08,3.62-4.42,4.12c-.27,0-3.1,0-3.82,1-.72-1.08-3.54-1-3.82-1-4.5-.5-4.42-4.12-4.42-4.12V14.32Z"/>
      <path class="cls-4" d="M10.33,31.28c0,.09,0,.11-.12,0a1.1,1.1,0,0,1-.4-.41,2.16,2.16,0,0,0,.43.27c.09,0,.11,0,.09.09m.13-.2s-.8-.2-.87-.62a1,1,0,0,1,.12-.57s.23-.05.25-.14a.21.21,0,0,0-.12-.26.18.18,0,0,0-.26.07c-.08.1,0,.17,0,.17s.14.19-.11.37a2.89,2.89,0,0,1-.16-.76,6.11,6.11,0,0,1,.49-1.07c.11-.19.37-.56.37-.56a2.89,2.89,0,0,1-.57,1.55,2.12,2.12,0,0,0,.85-1.72,4.9,4.9,0,0,0-.09-.61A10.22,10.22,0,0,0,9.62,28a5.4,5.4,0,0,0-.35.85s0-.67,0-.75a2.55,2.55,0,0,1,.33-.47s.14,0,.19-.08.06-.24-.06-.29-.27.09-.27.09a.36.36,0,0,0,0,.24l-.21.18v-.67a7,7,0,0,1,.49-1c.11-.19.37-.57.37-.57a2.9,2.9,0,0,1-.57,1.56,2.1,2.1,0,0,0,.81-1.75c0-.16-.05-.58-.05-.58a8.32,8.32,0,0,0-.74,1,4.6,4.6,0,0,0-.32.83s0-.6,0-.68a2.41,2.41,0,0,1,.33-.46s.14,0,.19-.09.06-.24-.06-.29-.27.09-.27.09a.36.36,0,0,0,0,.24l-.21.18v-.69a7,7,0,0,1,.49-1c.11-.19.37-.56.37-.56a2.89,2.89,0,0,1-.57,1.55,2.12,2.12,0,0,0,.85-1.72,5,5,0,0,0-.09-.6,7.66,7.66,0,0,0-.71,1,6.58,6.58,0,0,0-.35.87s0-.61,0-.68a2.55,2.55,0,0,1,.33-.47s.14,0,.19-.08.06-.25-.06-.3-.27.09-.27.09a.36.36,0,0,0,0,.24l-.21.19v-.59a4.56,4.56,0,0,1,.44-1l.28-.46a2.4,2.4,0,0,1-.46,1.39,1.62,1.62,0,0,0,.76-1.48c0-.17,0-.72,0-.72a6.53,6.53,0,0,0-.72.91,5,5,0,0,0-.29.88s0-.59,0-.67a3.14,3.14,0,0,1,.21-.42s.15.05.2,0,.1-.19,0-.28-.25.05-.25.05a.24.24,0,0,0,0,.21l-.13.15v-.48a3.31,3.31,0,0,1,.38-1l.34-.55a2.2,2.2,0,0,1-.43,1.33A2.15,2.15,0,0,0,10.38,19c0-.17-.05-.66-.05-.66a7.23,7.23,0,0,0-.8,1,2.55,2.55,0,0,0-.26,1s0-.67,0-.74a3.41,3.41,0,0,1,.16-.37.14.14,0,0,0,.16-.06.18.18,0,0,0-.09-.25c-.12-.07-.17,0-.17,0a.33.33,0,0,0,0,.24l-.1.08V18.7a4.87,4.87,0,0,1,.44-1c.12-.19.41-.56.41-.56a2,2,0,0,1-.44,1.3,1.42,1.42,0,0,0,.73-1.36,1.92,1.92,0,0,0,0-.57,5.25,5.25,0,0,0-.84.93,5.71,5.71,0,0,0-.34,1c0-1,0-2,0-3a2.83,2.83,0,0,1,.26,1.68,4.89,4.89,0,0,0,.19-.85,1.52,1.52,0,0,0-.26-.86,4.74,4.74,0,0,1-.21-.55,1.58,1.58,0,0,1-.21.56,1.79,1.79,0,0,0-.22.88A4,4,0,0,0,9,17.48c0,.07,0,1.05,0,1.05a2.59,2.59,0,0,1-.61-.61,2.45,2.45,0,0,1-.27-.85s.2.23.32.35a5.36,5.36,0,0,1,.41.61c.06-.66-1-1.51-1-1.51a3.44,3.44,0,0,0,.27,1.66,2.26,2.26,0,0,0,.87.63v.42l-.15-.09a.29.29,0,0,0,0-.24s-.15-.13-.27-.06-.08.21,0,.3.2.06.2.06a1.49,1.49,0,0,1,.26.3c0,.08,0,1.14,0,1.14A2.11,2.11,0,0,1,8.49,20a3.1,3.1,0,0,1-.31-.79s.24.2.36.32a4.42,4.42,0,0,1,.34.55c.06-.66-1-1.6-1-1.6a3.74,3.74,0,0,0,.27,1.66,2.05,2.05,0,0,0,.87.71v.41l-.23-.16a.32.32,0,0,0,0-.24s-.15-.12-.27-.06-.09.21,0,.3a.19.19,0,0,0,.19.06,2.67,2.67,0,0,1,.34.42c0,.07,0,1.14,0,1.14a2.23,2.23,0,0,1-.57-.65,3.24,3.24,0,0,1-.31-.79s.24.19.36.31a4.36,4.36,0,0,1,.34.56c.06-.66-1-1.61-1-1.61a3.8,3.8,0,0,0,.27,1.67,2.06,2.06,0,0,0,.88.71v.44l-.23-.17a.32.32,0,0,0,0-.24s-.15-.11-.27-.05-.09.2,0,.29a.19.19,0,0,0,.19.06,3.27,3.27,0,0,1,.34.42c0,.08,0,1.14,0,1.14a2.23,2.23,0,0,1-.57-.64,3.24,3.24,0,0,1-.31-.79s.24.19.36.31a4.42,4.42,0,0,1,.34.55c.06-.66-1-1.6-1-1.6a3.74,3.74,0,0,0,.27,1.66,2.12,2.12,0,0,0,.87.72v.55l-.23-.16a.32.32,0,0,0,0-.24s-.15-.12-.27-.06-.09.21,0,.3a.19.19,0,0,0,.19.06,2.67,2.67,0,0,1,.34.42c0,.07,0,1.14,0,1.14a2.23,2.23,0,0,1-.57-.65,3.24,3.24,0,0,1-.31-.79s.24.19.36.31a4.36,4.36,0,0,1,.34.56c.06-.66-1-1.61-1-1.61a3.8,3.8,0,0,0,.27,1.67,2,2,0,0,0,.87.7v.55l-.23-.16a.32.32,0,0,0,0-.24s-.15-.12-.27-.06-.09.21,0,.3a.19.19,0,0,0,.19.06,3.27,3.27,0,0,1,.34.42c0,.07,0,1.13,0,1.13a2.23,2.23,0,0,1-.57-.64,3.24,3.24,0,0,1-.31-.79s.24.19.36.31a4.36,4.36,0,0,1,.34.56c.06-.66-1-1.6-1-1.6a3.76,3.76,0,0,0,.27,1.66,2.12,2.12,0,0,0,.9.72c0,.29.09.69.09.69C8.91,30,9,29.84,9,29.84a.24.24,0,0,0-.06-.21c-.09-.08-.18-.14-.3-.08s-.06.17,0,.26.18.15.18.15a3.9,3.9,0,0,0,.52.45,2.13,2.13,0,0,0,1.37,1.32Z"/>
      <path class="cls-4" d="M20.75,31.3c-.09.06-.1,0-.12-.05s0-.07.09-.09a2,2,0,0,0,.44-.27,1,1,0,0,1-.41.41m1.5-3.37a5,5,0,0,0-.35.86s0-.68,0-.76a2.41,2.41,0,0,1,.33-.46s.14,0,.19-.09.07-.24-.06-.29-.26.08-.26.08a.35.35,0,0,0,0,.25l-.21.18V27a7,7,0,0,1,.49-1c.12-.19.38-.57.38-.57A2.92,2.92,0,0,1,22.2,27,2.11,2.11,0,0,0,23,25.23c0-.16-.05-.58-.05-.58a9,9,0,0,0-.74,1,4.43,4.43,0,0,0-.32.84s0-.61,0-.69a2.55,2.55,0,0,1,.33-.47s.14,0,.19-.08.07-.25-.06-.3-.26.09-.26.09a.33.33,0,0,0,0,.24l-.21.19v-.7a6.89,6.89,0,0,1,.49-1c.12-.19.38-.57.38-.57a2.92,2.92,0,0,1-.58,1.57A2.13,2.13,0,0,0,23.06,23a4.44,4.44,0,0,0-.1-.61,9.28,9.28,0,0,0-.71,1,5.45,5.45,0,0,0-.35.87s0-.61,0-.69a2.55,2.55,0,0,1,.33-.47s.14,0,.19-.08.07-.25-.06-.29-.26.08-.26.08a.35.35,0,0,0,0,.25l-.21.18v-.59a5.38,5.38,0,0,1,.44-1l.29-.46a2.42,2.42,0,0,1-.47,1.4,1.64,1.64,0,0,0,.77-1.49c0-.17,0-.72,0-.72a5.82,5.82,0,0,0-.73.91,4.88,4.88,0,0,0-.29.89s0-.6,0-.68a3.14,3.14,0,0,1,.21-.42s.15.05.2,0,.1-.2,0-.28a.24.24,0,0,0-.25,0A.26.26,0,0,0,22,21l-.13.15v-.49a3.28,3.28,0,0,1,.39-1c.11-.19.34-.55.34-.55a2.18,2.18,0,0,1-.44,1.34A2.14,2.14,0,0,0,23,18.85c0-.17-.05-.67-.05-.67a7.12,7.12,0,0,0-.8,1,2.69,2.69,0,0,0-.26,1s0-.67,0-.75a2.9,2.9,0,0,1,.17-.37.13.13,0,0,0,.16-.06.19.19,0,0,0-.09-.25c-.13-.07-.18,0-.18,0A.35.35,0,0,0,22,19l-.1.08v-.49a4.83,4.83,0,0,1,.44-1c.12-.19.42-.57.42-.57a2,2,0,0,1-.45,1.31A1.42,1.42,0,0,0,23,16.93a1.92,1.92,0,0,0-.05-.57,5.39,5.39,0,0,0-.85.94,7.09,7.09,0,0,0-.35,1c0-1,0-2,0-3A2.79,2.79,0,0,1,22,17a4.89,4.89,0,0,0,.19-.85,1.53,1.53,0,0,0-.26-.87,4.77,4.77,0,0,1-.21-.56,1.66,1.66,0,0,1-.21.57,2,2,0,0,0-.23.89,4.38,4.38,0,0,0,.34,1.18,9.49,9.49,0,0,1,0,1.05,2.51,2.51,0,0,1-.62-.61,2.45,2.45,0,0,1-.27-.85s.2.23.32.35a5.78,5.78,0,0,1,.42.61c.06-.66-1-1.52-1-1.52a3.53,3.53,0,0,0,.27,1.68,2.26,2.26,0,0,0,.88.63v.42L21.54,19a.37.37,0,0,0,0-.25s-.15-.12-.27-.06-.09.22,0,.31a.19.19,0,0,0,.19.06,1.14,1.14,0,0,1,.26.31c0,.07,0,1.14,0,1.14a2.11,2.11,0,0,1-.57-.65,3,3,0,0,1-.32-.8s.24.2.36.32a3.68,3.68,0,0,1,.35.56c.06-.66-1-1.62-1-1.62A3.83,3.83,0,0,0,20.81,20a2.18,2.18,0,0,0,.88.72v.41L21.46,21a.35.35,0,0,0,0-.25s-.16-.11-.27-.06-.1.22,0,.31a.19.19,0,0,0,.19.06,2.25,2.25,0,0,1,.33.42c0,.07,0,1.15,0,1.15a2.37,2.37,0,0,1-.57-.65,3.17,3.17,0,0,1-.32-.8s.24.19.36.31a3.68,3.68,0,0,1,.35.56c.06-.66-1-1.61-1-1.61a3.8,3.8,0,0,0,.27,1.67,2.09,2.09,0,0,0,.89.72v.44l-.23-.16a.35.35,0,0,0,0-.25s-.16-.11-.27-.05-.1.21,0,.3a.19.19,0,0,0,.19.06,2.25,2.25,0,0,1,.33.42c0,.07,0,1.15,0,1.15a2.37,2.37,0,0,1-.57-.65,3,3,0,0,1-.32-.8s.24.2.36.32a3.72,3.72,0,0,1,.35.55c.06-.66-1-1.61-1-1.61a3.85,3.85,0,0,0,.27,1.68,2.18,2.18,0,0,0,.88.72v.56l-.23-.17a.32.32,0,0,0,0-.24s-.16-.12-.27-.06-.1.21,0,.3a.19.19,0,0,0,.19.06,2.4,2.4,0,0,1,.33.43c0,.07,0,1.14,0,1.14a2.23,2.23,0,0,1-.57-.64,3.17,3.17,0,0,1-.32-.8s.24.19.36.31a3.68,3.68,0,0,1,.35.56c.06-.67-1-1.62-1-1.62a3.83,3.83,0,0,0,.27,1.68,2.12,2.12,0,0,0,.88.71v.55l-.23-.16a.32.32,0,0,0,0-.24s-.16-.12-.27-.06-.1.21,0,.3a.19.19,0,0,0,.19.06,2.65,2.65,0,0,1,.33.42c0,.08,0,1.15,0,1.15a2.23,2.23,0,0,1-.57-.65,3,3,0,0,1-.32-.8s.24.2.36.32a3.68,3.68,0,0,1,.35.56c.06-.67-1-1.62-1-1.62a3.83,3.83,0,0,0,.27,1.68,2.25,2.25,0,0,0,.87.73,2,2,0,0,1-.15.67c-.25-.18-.1-.37-.1-.37s0-.07,0-.17a.18.18,0,0,0-.26-.07.21.21,0,0,0-.12.26c0,.09.25.14.25.14a1,1,0,0,1,.12.58c-.07.42-.87.62-.87.62l-.19.66a2.16,2.16,0,0,0,1.37-1.33,4.74,4.74,0,0,0,.53-.45s.15-.07.18-.16.09-.21,0-.27-.21,0-.3.09a.24.24,0,0,0-.06.21s.06.13-.22.28a7.71,7.71,0,0,0,.12-.78,6.34,6.34,0,0,1,.49-1.09c.12-.19.38-.56.38-.56a2.92,2.92,0,0,1-.58,1.57,2.15,2.15,0,0,0,.86-1.74,4.44,4.44,0,0,0-.1-.61,12.2,12.2,0,0,0-.71,1.06"/>
      <path class="cls-4" d="M16.51,31.38v1c0,.08,0,.09,0,.1l-.14,0v-1H15.6a.14.14,0,0,1-.15-.13l0-.15a.29.29,0,0,0,.2.1h.72a.09.09,0,0,1,.1.1m0-.33h-1a.45.45,0,0,1-.26-.13l-.16.56a.18.18,0,0,0,.19.16h.81v1.17l.49-.2s0,0,0-.12V31.2s0-.15-.12-.15"/>
      <path class="cls-4" d="M20.07,31.39a1.93,1.93,0,0,0-.07.43l-.12,0,0-.37a.39.39,0,0,1-.26,0l.09-.23H20c.06,0,.09,0,.05.11m.11-.43c-.09,0-.3,0-.39,0a1.56,1.56,0,0,1-.21-.07l-.25.68c.06.06.37,0,.37,0l-.06.49.5-.13a2.13,2.13,0,0,1,.15-.79c0-.15,0-.23-.11-.23"/>
      <path class="cls-4" d="M14.68,32.58l-.09-.07-1.26-.87v.14s0,.65,0,.65h.34l-.11.17h-.4a4.42,4.42,0,0,0,0-.53c0-.16-.05-.56-.05-.56a.53.53,0,0,0,.07-.1s.06-.05.1,0a5,5,0,0,0,1.45,1Zm-.19-1.38a.41.41,0,0,0,.14,0h.12c.07,0,.06.09.06.15v.11a.45.45,0,0,1,0,.23.79.79,0,0,1-.14.11,1.62,1.62,0,0,0,0-.33s0,0-.05,0-.15,0-.19,0a1.05,1.05,0,0,0,.08-.24m.18.94c-.06,0,0-.13,0-.13a1.08,1.08,0,0,0,.19-.14.23.23,0,0,0,.08-.19v-.53c0-.08,0-.11-.07-.12a2.61,2.61,0,0,0-.4,0,.63.63,0,0,1-.17,0c0,.11-.2.56-.2.56a.81.81,0,0,0,.21.05c.08,0,0,0,.06.06a.81.81,0,0,1,0,.27,8.22,8.22,0,0,1-1.1-.85c-.06,0-.12,0-.14,0s-.24.36-.24.36.09.42.11.6a5.3,5.3,0,0,1-.1.74h.77l.2-.49h-.42V32c0-.06,0-.06,0-.06s1.09.82,1.16.86.09,0,.09,0l.23-.47c-.08,0-.23-.14-.29-.17"/>
      <path class="cls-4" d="M19.06,31.9a.64.64,0,0,1,0,.19s-.25.24-.28.27a.24.24,0,0,1-.1.06l-1.36.18s0-.65,0-.71,0-.15,0-.17.16-.19.07-.22a.7.7,0,0,1-.18-.05l.11-.23c.11,0,.14,0,.19,0s.11,0,.09.07-.09.3-.13.41a2,2,0,0,0,0,.65s.36,0,.36,0,.38-.9.38-.9H18l.09-.18h.27c0,.05-.33,1.07-.33,1.07s.59-.08.64-.1a.64.64,0,0,0,.24-.25,3.66,3.66,0,0,0,.06-.48h-.15l.07-.24h.2s-.05.55-.05.61m-.27-.85-.16.52.17,0a1.21,1.21,0,0,1,0,.32.33.33,0,0,1-.15.19,3.66,3.66,0,0,1-.42.08s.31-1.08.31-1.14H18l-.19.49.18.05a7,7,0,0,1-.3.65.65.65,0,0,1-.08-.59c0-.14.12-.44.16-.52s-.06-.08-.11-.08a.86.86,0,0,1-.5-.09l-.22.5a.28.28,0,0,0,.2.13c.15,0,0,.15,0,.17a.22.22,0,0,0-.06.16c0,.08,0,.89,0,.89l1.63-.23c.07,0,.07,0,.12-.07s.28-.33.31-.36,0,0,0-.11.06-1,.06-1Z"/>
    </g>
    <polygon class="cls-4" points="15.88 24.17 15.89 24.18 15.89 24.18 15.9 24.18 15.9 24.18 15.88 24.17 15.88 24.17"/>
    <path class="cls-4" d="M15.88,24.17v0Z"/>
    <g class="cls-3">
      <path class="cls-4" d="M19.91,16.88c-.06.2-.22.4-.14.62s.13.27.05.38a.19.19,0,0,1-.27,0,.06.06,0,0,1,0-.07c.05-.09.18-.16.12-.28s0-.27-.07-.38-.21-.18-.25-.32.28-.19.44-.16.17.07.13.17m-.06,1.18c-.07,0-.17.05-.2,0s.1,0,.16,0,0,0,.06,0,0,0,0,0m0,.47s-.06,0-.07,0-.18-.05-.26-.1-.07-.09,0-.09.16-.07.26-.08l0,0c.06,0,.07-.08.1-.13s.06,0,.06,0a.61.61,0,0,1,0,.38m0,.27c-.12,0-.22-.07-.34-.08s-.08,0-.07-.06l0,0c.09,0,.18,0,.28,0s.1,0,.13.09,0,.08,0,.08m0,.36c0,.08-.11.13-.13.24s-.05.05-.08,0-.18,0-.24-.1,0-.05,0-.05.19,0,.26,0,0-.14.1-.18h.1s0,.07,0,.1m-.13.66c0,.07-.14.1-.26.07s-.11-.08-.07-.12.13-.08.09-.14,0-.06,0-.07-.07,0-.09,0v0a.33.33,0,0,1,.35.12.19.19,0,0,1,0,.19m-.27.39a.18.18,0,0,1-.25.06s-.08,0-.08-.07,0-.05,0-.06.14,0,.2,0v-.05s-.16-.1-.1-.13a.2.2,0,0,1,.22.28m-.17.47s0,0,0,0,0,.12-.06.16,0,0-.05-.07a.15.15,0,0,0-.1-.07c-.05,0-.06-.08-.1-.11s.23-.05.34,0,0,.08,0,.1m-.29.41s-.05.14-.11.11-.12-.12-.19-.19,0,0,0,0,.12.05.16,0,0-.11,0-.15.05,0,.08,0v0c.06,0,.15.1.15.17s-.08.08-.12.12m-.57.52v0c0,.08-.06.14-.07.22s-.09,0-.11,0a1.83,1.83,0,0,1-.26-.36h.08c.1.1.23,0,.32.07a.11.11,0,0,1,.06.09m-.39.31c0,.06-.07.14-.14.11s-.18-.2-.26-.31,0,0,0,0h0s0,.09.09.09,0-.07.06-.09.05,0,.09,0a.15.15,0,0,1,.1.19m-.36.13c0,.16-.21.2-.35.23-.33.11-.66.18-1,.27a1.71,1.71,0,0,1-.55.05h0l.1,0a.56.56,0,0,1-.21-.06v0a2.73,2.73,0,0,1,.5-.06,5,5,0,0,0,.66-.18,2.58,2.58,0,0,0,.32-.18l.09,0a.93.93,0,0,1,.35-.16c.08,0,.14.07.13.11m-1.48,1.06c0,.05,0,.12-.09.12s0,.17-.09.2a.93.93,0,0,1-.41.05v-.05a.12.12,0,0,0,.06-.18s-.08,0-.09,0,0,.17-.05.23-.08,0-.13,0-.07-.05,0-.07.07,0,.1,0,0,0,0-.07v0c0-.06-.05-.12-.11-.1s-.06.05-.1.07a.13.13,0,0,0-.12-.12s-.07,0-.08,0,0-.08,0-.13a7.32,7.32,0,0,0,.81,0s0,0,0-.05.06-.06.1-.06,0-.05.06-.07a.09.09,0,0,1,.1,0,.27.27,0,0,1,0,.23m.05.84c.1,0,.23.13.16.24s-.08,0-.13,0a1.89,1.89,0,0,0-.23,0s0,0,0,0l-.05,0h0c-.08-.07-.15-.18-.23-.13a.23.23,0,0,1-.18,0s0,0,0,0,.05-.1.11-.11a.46.46,0,0,1,.36.07c.06,0,.14,0,.21,0m-1-.54s.07,0,0,.06-.07,0-.1,0,0,0,.06-.06m1,1.36c-.1,0-.24.05-.31,0s0-.08,0-.12-.08-.05-.09,0,0,.14,0,.18-.18,0-.2,0,.15,0,.12-.12a.18.18,0,0,0-.17-.08.43.43,0,0,1,0,.23c0,.05-.11,0-.16,0V24.7s.11,0,.09-.08-.09-.18-.17-.12,0,.21-.09.28a.11.11,0,0,1-.15,0v0s.08,0,.12,0,0-.14,0-.2-.08-.06-.11,0-.06,0,0,.06a.18.18,0,0,1,0-.24c.11-.08.27,0,.41,0a4.79,4.79,0,0,0,.66,0,.93.93,0,0,0,.06.47m.1.17c.05,0,.07,0,.09.09a3.79,3.79,0,0,1,.29.77,1.2,1.2,0,0,1-.38,0s-.05,0-.05-.07-.09-.38-.15-.63a.23.23,0,0,1,.08-.16.17.17,0,0,1,.12,0m-.34.81a1.14,1.14,0,0,0-.17-.15v0a3.8,3.8,0,0,1,0-.47.13.13,0,0,1,.07-.09c.06,0,.14,0,.15.06,0,.23.05.41.09.62,0,0-.11,0-.13,0m-.3-.12c-.1,0-.11-.1-.16-.16s0,0,0,0a.54.54,0,0,1,0-.31.09.09,0,0,1,.15,0c.09.16,0,.34,0,.51m-.33-.21,0,0-.14,0c-.07,0,0-.14,0-.23s0,0,0,0,.12,0,.15,0a.21.21,0,0,1,0,.19s0,0,0,.06m-.53-2.87a4,4,0,0,1-1.09-.26c-.1-.05-.19-.13-.29-.19l.05,0,0,0h0s0,0,0,0,.07-.2.15-.26,0,0,0,0,.07.17.13.25a.28.28,0,0,0,.1.09,2.67,2.67,0,0,0,.78.27c.15,0,.32,0,.48,0s.13,0,.17,0,0,0,0,.05c-.16,0-.31,0-.46,0M13.2,22s-.06,0-.09,0-.18-.08-.18-.17a.05.05,0,0,0,.05,0c0-.09,0-.18.13-.18s.33-.17.32,0-.24.21-.23.39m-.44-.29a.19.19,0,0,1-.19-.13s0-.06,0-.09,0-.05,0-.07,0,0,.05,0a.64.64,0,0,1,0-.07c.05,0,.1,0,.12,0s0,.09,0,.11.17-.11.26-.17a.05.05,0,0,1,0,.08c-.11.14-.16.35-.36.36m-.28-.5c-.05,0-.05.12-.11.14s-.07,0-.1-.07,0,0,0-.05-.09,0-.12-.06,0-.05,0-.07.11,0,.13,0,0-.05,0-.06.09,0,.11,0,.08.06.12.1a.08.08,0,0,1,0,.07l-.08,0m-.57-.31c0-.05.06-.08.11-.1l.2-.11a.23.23,0,0,1,0,.14c0,.05-.08.07-.13.11s-.11,0-.14,0m-.11-.21a.16.16,0,0,1-.09-.06s0-.06,0-.07h.14l.09-.06a.45.45,0,0,1,.12-.06s0,0,0,0-.17.25-.31.21m-.32-.54s0,0,0-.05.26-.11.39-.19.07,0,.09,0a.08.08,0,0,1,0,.08c-.11.12-.3.25-.46.15m-.12-.56s0,0,.06,0,.09-.07.1-.14,0-.09-.08-.12v0a.17.17,0,0,1,.12,0s0,0,0,.06.05.07.07.1a.21.21,0,0,1-.15.29v0c-.07,0-.17,0-.15-.12m0-.8s-.17,0-.13-.07a1.56,1.56,0,0,1,.19-.14c.08-.05,0-.18.1-.25s0,0,.06,0a.92.92,0,0,1,0,.37.25.25,0,0,1-.21.08h0Zm-.26-.8c.16-.1.12-.32.18-.48h0l.06-.1c.06-.1,0-.19-.05-.27s-.11-.07-.15-.12,0-.09.06-.1a.53.53,0,0,0,.23-.16s.06,0,.05.08h0a.65.65,0,0,0,0,.31,3.67,3.67,0,0,1,0,.94c-.11,0-.32.08-.32-.09M15,21.34a2.54,2.54,0,0,1-1-.29s-.08-.06-.07-.1.07,0,.1,0a2.06,2.06,0,0,0,.89.35s.17,0,.17,0,0,0-.05,0m-1.36-.48a.08.08,0,0,1,.07-.09h0c.08-.07.15-.22.27-.21a2.71,2.71,0,0,1-.17.39c-.05.06-.11,0-.13-.09m-.05-.29,0,0a.23.23,0,0,1-.11.14c-.05,0-.1-.06-.09-.11l0-.05c.07-.06.14-.22.23-.13s0,.07,0,.11m-.45-.18s0,0,0,0,0-.14.1-.13l0,0c.06,0,.13-.06.17,0s-.13.26-.2.23m1.89,0s0,0,.07,0c.24-.07.48.08.7,0a.86.86,0,0,1,0,.39.2.2,0,0,1-.3.11c-.13-.1-.14-.3-.3-.4a.42.42,0,0,0-.13,0s-.07,0,0,0m0-3.46a.05.05,0,0,1,0-.06s0,0,0,0v0h0c.1,0,.21,0,.3,0s.06-.06.11-.06,0-.05,0-.08a.76.76,0,0,0,0-.15.32.32,0,0,1,.3.39.42.42,0,0,1-.11.16.44.44,0,0,0-.11.25c0,.21.11.4.08.6a.29.29,0,0,1-.09.2.12.12,0,0,1-.13,0c-.08,0-.21,0-.26-.1.12,0,.24-.07.28-.2a.59.59,0,0,0,0-.37c0-.16,0-.33-.06-.44s-.23-.08-.35-.13m.38,2.36v0c0-.09,0-.18,0-.25s.08,0,.12,0a.1.1,0,0,1,0,.07c0,.15.08.32,0,.42s-.31.06-.46,0-.07-.12,0-.14a1.3,1.3,0,0,0,.3-.13m.12-.48c.06-.06,0-.11,0-.14s.17.15.12.22-.23.06-.36.05-.07-.08,0-.09a1.2,1.2,0,0,1,.27,0ZM16.17,20a1.4,1.4,0,0,0,.16-.1s.08-.07.13-.05a.11.11,0,0,1,.05.18,1.39,1.39,0,0,1-.59.24c-.23.05-.7.08-.68-.11l.16,0h.07a2,2,0,0,0,.7-.19m-.36,2a.29.29,0,0,1-.24,0c-.1,0-.08-.19-.13-.29s0,0-.07-.06-.17,0-.22-.11h.06a3.82,3.82,0,0,0,.68,0c0,.13.07.32-.08.4m.32-.72.21-.07a6.4,6.4,0,0,0,.61-.3s.17.15.13.18c-.2.09-.35.16-.67.28a1.34,1.34,0,0,1-.74.1,1.19,1.19,0,0,0-.21-.06c-.05,0-.13,0-.1,0,.24-.14.52,0,.77-.09M12.76,20s-.06,0,0-.06.07,0,.1,0v0a.17.17,0,0,1,.12,0,.17.17,0,0,1-.18.12m-.09-.28s-.06,0-.09,0v0l.18-.08h0c.05.07-.06.12-.12.14m.06-.26a.07.07,0,0,1-.09,0s0-.06,0,0,.09,0,.06.07m-.19-.7c.08,0,.06-.1.1-.14s.11.05.13.11-.12.15-.22.11-.05-.06,0-.08m-.3-.5v0a.44.44,0,0,1,.2,0h0c.1,0,.2,0,.29,0v0c-.07.07-.17,0-.26,0a.2.2,0,0,1-.23,0M12.17,17c0-.05,0-.09,0-.12h0a2,2,0,0,0,.35,0l.1,0a1.54,1.54,0,0,0,0,.3,1.85,1.85,0,0,0,0,.47,2.29,2.29,0,0,1,0,.37h0c0,.09,0,0,0,.08a.07.07,0,0,1-.08,0s-.08-.06-.06-.1.08-.18.06-.37a.27.27,0,0,0-.11-.18s0,0,0-.05,0-.21,0-.31-.1-.08-.13-.13M15,20.18a1.15,1.15,0,0,1-.6-.16c-.15-.06-.31-.18-.22-.34s.09.05.13.11c.16.24.46.23.7.35,0,0,0,0,0,0m-1-.62s0-.11.06-.15.11-.1.18-.05,0,0,0,.07-.11.06-.16.12-.08,0-.09,0m-.16-.23s-.05.05-.06.05,0-.06,0-.09,0-.07.06-.06a.16.16,0,0,1,.19-.17.11.11,0,0,1,.06.11.34.34,0,0,1-.24.16m-.26-.42a0,0,0,0,1,0,0h0v0s0-.07,0-.11,0,0,.07,0a.65.65,0,0,1,.31,0s.09,0,.06.07-.28,0-.39.09m.17-.35c0,.06-.13.07-.2.08v-.05c.08,0,.19-.13.2,0m-.42-.37v0a.49.49,0,0,1,.21,0h0c.09,0,.19,0,.28,0v0c-.07.07-.16,0-.26,0a.2.2,0,0,1-.23,0M13.3,17a.09.09,0,0,1,0-.14.78.78,0,0,1,.43,0l.14,0c.07,0,.13.09.1.16s-.13.18-.17.28,0,.27,0,.42a.3.3,0,0,1-.24.25s-.09,0-.11,0,.12-.16.17-.25,0-.07,0-.09a.91.91,0,0,1-.16-.24c-.05-.09,0-.18,0-.25S13.34,17,13.3,17m3.3,2.62s.09,0,.13,0l.12-.12s.13,0,.17.08a.11.11,0,0,1,0,.1s-.05.09-.09.11l-.11.06c-.11,0-.2-.08-.22-.18a0,0,0,0,1,0,0M16.93,17s0-.09,0-.1a5.25,5.25,0,0,1,.56,0c.07,0,0,0,0,.05s-.13.23-.07.35,0,.36.09.56a.19.19,0,0,1,0,.16.29.29,0,0,1-.35,0c-.05,0,0-.1.05-.11h.12a.24.24,0,0,0,.08-.26c0-.08-.12-.08-.2-.07s.17-.12.1-.17a1.42,1.42,0,0,1-.18-.08s0-.08-.06-.12-.11-.09-.16-.14m.67,1.1c0,.06,0,.2,0,.19s-.33-.08-.28-.14.13,0,.22,0,.06-.13.1-.06m-.07.44s0,0,0,0-.16-.06-.25-.08-.07,0-.05,0,.1-.06.15-.09.14,0,.14.11l0,0s0,0,0,.06m-.26.49L17.1,19s0-.06,0-.07.12,0,.16-.1,0-.12,0-.13.14,0,.14.06-.1.35-.2.31m-.07.43a.08.08,0,0,1-.11,0,.09.09,0,0,1,0,0s0-.05,0-.05.15-.06.21-.13c.05.09,0,.16-.05.23m0,1.31s.1,0,.15,0l0,0c.12,0,0-.11.06-.18s.15.17.11.26-.11.06-.17.08-.16-.09-.11-.15m.24-.34s0,0,.08,0,0-.05,0-.09,0,0,0,0,0,0,0,0,.11.07.14.13,0,0,0,.06a.11.11,0,0,1,0,.11s0,0,0,0-.13-.07-.19-.11h0s0,0,0-.05m.28-.3s.08,0,.12,0h0l.07,0s0-.13,0-.14a.27.27,0,0,1,.23.12.14.14,0,0,1,0,.14s-.1,0-.14.07,0,.07-.06.1-.05,0-.06,0,0,0-.06-.05-.08-.05-.1-.07-.1-.07,0-.11m.3-.67c.13-.06.26,0,.39.08s0,0,0,0a.12.12,0,0,1-.14,0c-.08-.05-.17,0-.25-.09s-.05,0,0,0m.14-.57h0l0,.06v0s0,0,0,0a.47.47,0,0,1,.35.09c0,.11,0,.26-.12.35s-.13,0-.17,0-.06-.08,0-.1.15-.11.11-.19-.15,0-.2,0,0-.06,0-.08m.05-2a1.72,1.72,0,0,0,.26,0s.06,0,.08,0,0-.11.09-.13a.07.07,0,0,1,.11,0,.28.28,0,0,1,0,.18c0,.06-.07.12-.09.18a.55.55,0,0,0,0,.18,2.77,2.77,0,0,0,0,.64.13.13,0,0,1-.06.13.62.62,0,0,1-.27.05s0,0,0,0v0c0-.06.05-.05.07-.09l0-.11a.6.6,0,0,0-.06-.37.11.11,0,0,0,.12-.08c0-.13.05-.32-.08-.39s-.14,0-.2-.05,0-.08,0-.08m.36,1.84s-.1,0-.14,0,0-.19.06-.29a.25.25,0,0,1,0-.15s0,0,0,0a.07.07,0,0,1,.08,0,.35.35,0,0,1,0,.47m-.24,1.06c0,.07-.1.16-.16.09s-.12,0-.14-.09.06-.05.08-.11.1,0,.15,0,.09,0,.07.07m1.54-3.34a.78.78,0,0,0-.56.05.34.34,0,0,0-.09.46c.12.12.05.43.08.56a.72.72,0,0,1,0,.29c0,.06,0,.29,0,.34a.25.25,0,0,0,0,.22s0,.06,0,.15a1.43,1.43,0,0,0,0,.24.73.73,0,0,1,0,.29,3,3,0,0,1-.13.42c0,.11,0,.15-.1.32,0,0-.05.21-.08.31a2.33,2.33,0,0,0-.26.29l-.22.32-.16.25s-.33.13-.38.26-.31.15-.51.33l-.39.15s-.26,0-.33.1a4.11,4.11,0,0,0-.43.1A1,1,0,0,1,16,22l0-.28a.88.88,0,0,0,0-.14h0a2.57,2.57,0,0,0,.5-.15,1,1,0,0,0,.56-.23c.2,0,.21-.12.21-.12a1.46,1.46,0,0,0,.28-.11c.11,0,.22-.24.22-.24l.15-.14c.16-.08.29-.36.33-.42a2,2,0,0,0,.16-.28,3.12,3.12,0,0,0,.22-.63,2.2,2.2,0,0,0,.11-.44c.05-.31.07-.71.07-.71a1.19,1.19,0,0,1,0-.33,1.27,1.27,0,0,1,0-.27,1.37,1.37,0,0,1,.15-.63c.12-.19-.08-.4-.31-.41a.73.73,0,0,0-.49.15c-.12.06-.28.34-.15.46s.11.37.14.5,0,.32,0,.32a.42.42,0,0,0-.05.24.89.89,0,0,1,0,.18.59.59,0,0,0,0,.22c0,.1,0,.22,0,.22s-.06.35-.06.35a1.78,1.78,0,0,0-.23.44,2.16,2.16,0,0,1-.19.36.57.57,0,0,0-.13.07.88.88,0,0,0-.36.35.86.86,0,0,0-.31.21.87.87,0,0,0-.32.13l-.45.22-.07,0a4.41,4.41,0,0,0,0-.52,1.91,1.91,0,0,0,1-.38c.11-.12.05-.15.14-.17s.2-.31.29-.4a2,2,0,0,0,.2-.43,1.58,1.58,0,0,0,.14-.6c.11-.15,0-.39,0-.39s0-.27,0-.39a4.17,4.17,0,0,1,.05-.65c.06-.21.06-.33-.14-.4a1.07,1.07,0,0,0-.66,0c-.11.06-.39.35-.27.47a1.36,1.36,0,0,1,.3.51c0,.12.06.47.06.47s0,.09,0,.15v.1s-.05.4-.13.46-.06.21-.06.21-.19.31-.19.31a2.33,2.33,0,0,1-.27.26.78.78,0,0,1-.42.14l-.12,0a1.4,1.4,0,0,1,0-.23s0-.12,0-.25-.06-.13-.06-.13l.06-.14s.07,0,.07-.09-.07-.1-.07-.1a1.6,1.6,0,0,0,0-.38,1.06,1.06,0,0,0,0-.21,1,1,0,0,0,0-.42.53.53,0,0,1,0-.33c.05-.1.22-.37.28-.46s.11-.27-.34-.42a.86.86,0,0,0-.81.12c-.15.07-.09.3-.09.39s.29.3.29.4,0,.16,0,.25,0,.17,0,.21-.11.06-.11.11.06.09.09.15,0,.06,0,.06-.09.1-.08.16,0,.17.09.19,0,.07,0,.13a.23.23,0,0,0-.06.15.38.38,0,0,0,.11.2s-.09,0-.08.09a.59.59,0,0,0,0,.18c0,.06,0,.2,0,.38h0a.77.77,0,0,1-.54-.26.44.44,0,0,0-.19-.18s-.07-.29-.19-.32,0-.15-.06-.21-.15-.38-.15-.38a.22.22,0,0,0,.05-.11c0-.07,0-.08,0-.14a3.94,3.94,0,0,1,0-.53,1.51,1.51,0,0,1,.3-.51.26.26,0,0,0,0-.4,2,2,0,0,0-.89,0c-.21.07-.36.22-.24.4a1.34,1.34,0,0,1,.19.59c0,.12,0,.39,0,.39a.39.39,0,0,0,0,.36,2.33,2.33,0,0,0,.17.69c.09.19.07.36.15.45s.2.31.29.34,0,.06.15.18a1.45,1.45,0,0,0,.91.42.25.25,0,0,0,0,.1.28.28,0,0,1,.06.15s0,.11-.07.22l-.15-.06-.4-.18a.69.69,0,0,0-.33-.12c-.06-.11-.29-.19-.29-.19a1.15,1.15,0,0,0-.18-.22l-.2-.22a2.33,2.33,0,0,1-.27-.38,2.27,2.27,0,0,0-.22-.36s0-.38-.1-.41a.42.42,0,0,1,0-.19.72.72,0,0,0,0-.22.69.69,0,0,1,0-.18c0-.06,0-.07,0-.13a3.91,3.91,0,0,1,0-.43c0-.13-.06-.47.05-.59a.3.3,0,0,0-.05-.43.93.93,0,0,0-.61-.05c-.21.08-.36.23-.24.41a1.34,1.34,0,0,1,.19.59c0,.12,0,.32,0,.32a1.3,1.3,0,0,1,0,.34s0,.34.08.65a2.2,2.2,0,0,0,.11.44,1.91,1.91,0,0,0,.22.48,2.86,2.86,0,0,0,.16.28c0,.05.19.43.35.51l.17.12s.13.23.25.25a.8.8,0,0,0,.26.15.41.41,0,0,0,.29.16s.08.14.39.17a2,2,0,0,0,.43.14l.18,0a.3.3,0,0,0,0,.09s0,.23-.05.38l-.28-.06a4,4,0,0,0-.42-.1.77.77,0,0,0-.28-.13,1.8,1.8,0,0,1-.34-.17c-.2-.17-.5-.29-.52-.35s-.3-.21-.3-.21a1.42,1.42,0,0,0-.31-.33,1.17,1.17,0,0,0-.19-.23c-.09-.14-.19-.33-.19-.33a1.48,1.48,0,0,1-.07-.31.66.66,0,0,1-.13-.3L11.79,19a1.45,1.45,0,0,1,0-.3.78.78,0,0,1-.09-.2.93.93,0,0,1,0-.21.14.14,0,0,0,0-.16c0-.05,0-.13-.06-.19a2.19,2.19,0,0,1,0-.44c0-.13-.07-.47,0-.59a.3.3,0,0,0-.06-.43.74.74,0,0,0-.55,0,.28.28,0,0,0-.16.45.77.77,0,0,1,.06.5v.72s0,.25.06.56a1.75,1.75,0,0,0,.07.36c0,.12,0,.44.09.53a1.32,1.32,0,0,0,.15.28c0,.05.1.4.28.54a1,1,0,0,0,.28.47s.13.22.19.21.14.26.22.28.07.25.27.28a.59.59,0,0,0,.33.26.65.65,0,0,0,.39.24s-.06.17.32.17l0,0a.47.47,0,0,0,.23.09,2,2,0,0,0,.45.14l.36,0v.41s.2,0,.2.15,0,.15.07.17.06,0,0,.15a.25.25,0,0,0,0,.15.28.28,0,0,0-.15.27h-.1v.32h.19a.14.14,0,0,1,0,.07c0,.05,0,.23,0,.27s-.09.11-.12.15a1.07,1.07,0,0,0-.43.88c0,.17-.23.21-.43.27H17c-.22-.06-.32-.1-.33-.27a1.07,1.07,0,0,0-.44-.88s-.09-.1-.12-.15,0-.22,0-.27a.14.14,0,0,1,0-.07h.2V24h-.11a.28.28,0,0,0-.15-.27.29.29,0,0,0,0-.15c-.05-.11,0-.15,0-.15s.07-.07.07-.17.2-.15.2-.15v-.42l.44-.11a2.49,2.49,0,0,0,.32-.08c.1,0,.09-.09.2-.09.37,0,.38-.12.38-.12A.41.41,0,0,0,18,22a.82.82,0,0,0,.45-.28c.17,0,.25-.27.25-.27s.27-.28.27-.28.15-.21.15-.21a1.15,1.15,0,0,0,.28-.56c.17-.14.16-.32.2-.37a2.43,2.43,0,0,0,.14-.39,2.85,2.85,0,0,0,.13-.54,2.41,2.41,0,0,0,.06-.36c0-.32.07-.57.07-.57,0-.21,0-.42,0-.42s0-.16,0-.28A.77.77,0,0,1,20,17a.33.33,0,0,0-.15-.5"/>
      <path class="cls-4" d="M18.06,28.12l.11,0a.16.16,0,0,1,.15,0,.12.12,0,0,1,.07.14.65.65,0,0,1,0,.13h0a.25.25,0,0,0,.13-.05h0l0,0,.06-.05h0l-.06.07h0l0,0a.25.25,0,0,1-.14.06h-.11l0,0a.35.35,0,0,0,.06-.14.12.12,0,0,0-.06-.12h0s-.08,0-.12,0a.18.18,0,0,1-.12,0Zm-.44.16s0,0,0,.06a0,0,0,0,0,0,0h0l0,0a.18.18,0,0,1,.06.09h0a.13.13,0,0,1,0,.12.14.14,0,0,1-.11.07h-.21l-.2-.06-.07,0h.1a.49.49,0,0,0,.17.06.67.67,0,0,0,.2,0h0a.14.14,0,0,0,.1-.05.14.14,0,0,0,0-.11h0a.18.18,0,0,0,0-.07l0,0h0a.06.06,0,0,1,0-.07.09.09,0,0,1,0-.06Zm-.66.1H17a.54.54,0,0,0,.25,0h0s.08-.05.08-.08h0s0,0,0-.06,0-.13.08-.15a.14.14,0,0,1,.15,0,.21.21,0,0,0,.13.05v0a.17.17,0,0,1-.14-.05.15.15,0,0,0-.12,0c-.05,0-.06.08-.07.13s0,0,0,.06a.17.17,0,0,1-.09.11h-.06a.58.58,0,0,1-.26,0h0Zm1.11-.11h0a.05.05,0,0,1,0,0h0a.49.49,0,0,1,0,.12c0,.08,0,.16,0,.21h0a.29.29,0,0,0,.16,0h.06a.31.31,0,0,0,.13,0l0,0a.25.25,0,0,0,.12-.13l0,0a.44.44,0,0,1-.13.14h0a.27.27,0,0,1-.14,0h-.06a.25.25,0,0,1-.17,0c-.1-.06-.08-.15-.05-.24s0-.07,0-.11h0Z"/>
      <path class="cls-4" d="M17.47,26.78s0,0,0,0a.11.11,0,0,1,0,.05h0v0l0,0Zm.18.33h-.06c-.09,0-.19-.05-.24-.14v0a.3.3,0,0,1-.05-.16v0h0l0,0h0a.18.18,0,0,1-.14-.14l0,0c-.06,0-.13.06-.15.12h0a.26.26,0,0,1,.17-.14l.06,0h0v0a.18.18,0,0,0,.12.15h.06a.22.22,0,0,1,.07-.09h.06a.14.14,0,0,1,.14,0h0l0,0s0,0,0,0a.23.23,0,0,1,0,.24h0a.22.22,0,0,0,0-.21l0,0,0,0h0a.09.09,0,0,0-.1,0h-.05a.21.21,0,0,0-.07.13.42.42,0,0,0,0,.15h0a.34.34,0,0,0,.23.13h.06ZM17,26.93h0a.13.13,0,0,0,.07-.05h0v0l0,0,0,0H17v0a.13.13,0,0,1,.09,0l0,0,0,0a.09.09,0,0,1,0,.05h0A.16.16,0,0,1,17,27H17Zm.4.09h-.2l-.19.06,0,0,.21-.06h.21Z"/>
      <path class="cls-4" d="M16.08,28.39a.2.2,0,0,0-.08,0,.14.14,0,0,0-.09,0h0c-.05,0-.05.07-.06.11s0,.06,0,.09h0s-.06,0-.1,0h0v0h0a.09.09,0,0,1,0,.06.32.32,0,0,0,.26.05l.05,0,0,0h0l0,0s.08,0,.09-.08a.21.21,0,0,0,0-.08.18.18,0,0,0-.05-.07"/>
      <path class="cls-4" d="M15,28.31h0l0,0v0h0a.16.16,0,0,1,.08.05h0l0,0,.06,0A.37.37,0,0,0,15,28.3h0"/>
      <path class="cls-4" d="M19.11,29.17H16.45V27.66h2.66Zm-2.79-3.1H18.1v1.32H16.32Zm-.16,2.48h0a.18.18,0,0,1-.11.1l0,0h0l0,0-.05,0a.29.29,0,0,1-.28-.05.33.33,0,0,1-.14.1.78.78,0,0,1-.26,0v0a.73.73,0,0,0,.25,0,.25.25,0,0,0,.16-.16.13.13,0,0,0,0-.06.17.17,0,0,0,0-.07h0l0-.05,0,0h0a.16.16,0,0,0-.15,0h0s0,0,0,0a.13.13,0,0,0,0,.06h0l0,0h0l0,0a.29.29,0,0,0-.1,0,.14.14,0,0,0-.09,0,.08.08,0,0,0,0,0h0l0,0-.07,0a0,0,0,0,1,0,0h0l0,0,0,0a.06.06,0,0,0-.05,0h0l-.05,0-.12,0a.15.15,0,0,0-.11,0,.18.18,0,0,0,0,.17.65.65,0,0,0,0,.2h0a.72.72,0,0,1-.05-.21.2.2,0,0,1,.06-.19.15.15,0,0,1,.13,0,.31.31,0,0,1,.13,0h0l.05,0h0a0,0,0,0,1,.05,0H15a.3.3,0,0,1,.21.1h0a.29.29,0,0,1,.1,0v0s0-.05.05-.06a.2.2,0,0,1,.18,0h0l0,0h0l0,0h0v0h0a.22.22,0,0,1,0,.08h.11s0-.05,0-.07,0-.12.08-.14a.21.21,0,0,1,.2.05.16.16,0,0,1,0,.08.16.16,0,0,1,0,.1m-1.22.06s-.06-.07-.11-.09a.31.31,0,0,1-.09-.07h0s0,0,0,0h0v0a.24.24,0,0,1,0,.08h0s0-.05,0-.07a.14.14,0,0,1,0-.06h.07l0,0h0l.09.06c.05,0,.1.05.12.11Zm-.06.2-.05,0a.07.07,0,0,1-.06,0s0,0,0,0h0l0,0a.54.54,0,0,1-.15.09v0a.26.26,0,0,0,.14-.09l0,0h0s.07,0,.09,0l.06,0,.05,0Zm-.64.24h-.07V27.79h1.69v.08H14.24Zm-.18.12H14V27.59h2v.08h-2ZM13.38,27a.11.11,0,0,1,0,0s0,0,0-.05l0,0a.08.08,0,0,0,0,0,.06.06,0,0,0,0,0Zm.43-.29h0a.18.18,0,0,1-.14.14l0,0h0v0a.33.33,0,0,1,0,.17h0l0,0h.21l.2.06v0l-.2-.06h-.2v0a.41.41,0,0,1-.23.11h-.06v0h0a.37.37,0,0,0,.23-.12v0a.26.26,0,0,0,0-.15.15.15,0,0,0-.07-.13h0s-.09,0-.11,0h0l0,0,0,0a.18.18,0,0,0,0,.21h0a.23.23,0,0,1,0-.24l0,0,0,0h0a.13.13,0,0,1,.13,0h.06a.18.18,0,0,1,.07.08h.06a.18.18,0,0,0,.12-.15v0h0l.05,0c.07,0,.16.07.18.15h0a.28.28,0,0,0-.18-.13m.12.23h-.08l0,0,0,0v0h0a.13.13,0,0,0,.12.06v0a.16.16,0,0,1-.15-.07.11.11,0,0,1,0-.05l0,0,0,0a.18.18,0,0,1,.1,0Zm-.32,2,0,0-.14,0h-.06a.25.25,0,0,1-.17,0c-.1-.06-.08-.15,0-.24s0-.08,0-.11h0l0,0h0a.07.07,0,0,1,0,0h0a.27.27,0,0,1,0,.12c0,.08,0,.16,0,.2h0a.3.3,0,0,0,.16,0h.06a.31.31,0,0,0,.13,0h0a.33.33,0,0,0,.13-.13h0a.35.35,0,0,1-.13.14m-.75-.56s-.08,0-.12,0-.06.08-.07.14a.11.11,0,0,1,0,0h0a.21.21,0,0,1-.1.11h-.09a.17.17,0,0,1-.1,0,.26.26,0,0,1,0-.09s0-.05,0-.07h0s0,0,0,.06a.2.2,0,0,0,0,.08l.08,0h.08a.14.14,0,0,0,.08-.09h0a.07.07,0,0,0,0-.05c0-.06,0-.13.09-.16h0c.06,0,.1,0,.15,0a.17.17,0,0,0,.12,0v0a.2.2,0,0,1-.15-.05m0,.52a.18.18,0,0,1-.1.07h0a.45.45,0,0,1-.2,0,.76.76,0,0,1-.2-.06l-.08,0h.1l.18.05h.21a.15.15,0,0,0,.09-.06.16.16,0,0,0,0-.1h0a.1.1,0,0,0,0-.07l0,0a.09.09,0,0,1,0-.1h0v0h0v0a0,0,0,0,0,0,.06h0l0,0a.1.1,0,0,1,.05.08v0a.14.14,0,0,1,0,.12m-.82.25H12V27.94h1.46V28H12.08Zm1.55-.58.06-.06,0,0a.17.17,0,0,1-.06.06l0,0a.24.24,0,0,1-.14.05l-.07,0h0l0,0a.47.47,0,0,0,.06-.15.12.12,0,0,0-.06-.11.13.13,0,0,0-.12,0,.27.27,0,0,1-.12,0v0a.23.23,0,0,0,.11,0,.16.16,0,0,1,.15,0,.14.14,0,0,1,.07.15.56.56,0,0,1,0,.12h0a.18.18,0,0,0,.13,0h0l0,0m-1.72.7h-.08V27.74h1.73v.08H11.91Zm1.9-3v.07H13.1v.94H13v-1h.79Zm-1-.17v0H14v.07H12.91v1.26h-.07Zm1.28,0v0h2v.07H14.2v1.26h-.08Zm.26.24v.94H14.3v-1H16v.07Zm.36.69s0,.05-.07.06v0s0,0,.06-.05,0-.06.08-.06h.06A.17.17,0,0,1,15,27h0a.12.12,0,0,0-.11-.07H14.8s0,0-.06.05m.94,0h0a.16.16,0,0,1,0-.12h0a.55.55,0,0,1-.4,0,.31.31,0,0,1-.1-.05.27.27,0,0,1-.08-.07h0l0,0h0v0c0,.06,0,.11.1.15l0,0,0,0h0v0h0l0,0,0,0c-.07-.05-.13-.11-.11-.19h0v0h.06l.07,0h0l.08.07.09,0a.53.53,0,0,0,.47-.06v0h0a.16.16,0,0,0-.07.07.1.1,0,0,0,0,.09m.38-.23a.08.08,0,0,1-.07-.07h0s0-.1-.08-.12h-.12a.33.33,0,0,0-.1.06l-.07.05h0a.37.37,0,0,1-.27,0,.88.88,0,0,1-.26-.12.17.17,0,0,0-.1,0h0a.16.16,0,0,0-.08.06s0,.05-.06.06h-.14a.08.08,0,0,0,0,.08.08.08,0,0,1,0,.08h0l0,0,0,0h0s0,0,0,0,0,0,0,.06h0a.16.16,0,0,1,0-.07.09.09,0,0,1,0-.06l0,0,0,0s0,0,0-.06,0-.08,0-.1a.15.15,0,0,1,.09,0h.06s0,0,0-.05a.16.16,0,0,1,.09-.07h0a.27.27,0,0,1,.12,0h0a.77.77,0,0,0,.24.12.34.34,0,0,0,.26,0l.06,0a.41.41,0,0,1,.11-.07h.14a.23.23,0,0,1,.1.15h0s0,0,.05,0h.09v0h-.1m-.2.21h0l0,0h0l0,0c0-.05.05-.11.12-.11a.16.16,0,0,1,.09,0l.06,0v0L16,27a.11.11,0,0,0-.07,0s-.07,0-.09.09m2.37.52V25.91H12.65v1.62h-1v1.79h7.59V27.53Z"/>
    </g>
    <path class="cls-4" d="M16.54,27.23h1.31V26.3H16.54Zm-.05,0v-1H17.9v1H16.49Z"/>
    <path class="cls-4" d="M16.74,28.93h2.11V27.88H16.74Zm0,0V27.83H18.9V29H16.69Z"/>
    <g class="cls-3">
      <path class="cls-4" d="M12.44,31.91c0,.26,0,.33-.09.39a3.41,3.41,0,0,1-.59.29l.05-.17a3.42,3.42,0,0,0,.38-.15c.18-.07.11-.59.11-.68s0-.11-.06-.13H11.07a4.92,4.92,0,0,0,0-.83c0-.23,0-.5,0-.5C11.34,30,11,30,11,30l0-.32c0,.06.27,0,.32,0s.09.06,0,.09,0,.12-.08.28,0,1.17,0,1.17v.06h1.2a1.74,1.74,0,0,0,0,.6M11.38,31V31s0-.79,0-.83,0-.38.16-.45,0-.12-.06-.1a1.52,1.52,0,0,1-.63,0l-.1.52s.32,0,.06.18a1.78,1.78,0,0,1,0,.35,5.18,5.18,0,0,1-.06,1h1.28c.06,0,.08,0,.08.14s.07.37-.14.44a1.11,1.11,0,0,1-.42.09l-.09.52a5.32,5.32,0,0,0,.72-.29c.15-.1.36-.18.36-.5a3.3,3.3,0,0,1,.08-1Z"/>
      <path class="cls-2" d="M139.87,21.47V21c0-.16,0-.31,0-.43a2.17,2.17,0,0,0-.09-.53,1,1,0,0,0-.22-.4.86.86,0,0,0-.36-.26,1.45,1.45,0,0,0-.54-.09l-1.23,0,0,2.74a2,2,0,0,0,.12.64,1.17,1.17,0,0,0,.29.42,1.06,1.06,0,0,0,.41.24,1.93,1.93,0,0,0,.49.07.69.69,0,0,0,.22,0,1,1,0,0,0,.27-.1,1.51,1.51,0,0,0,.26-.18,1,1,0,0,0,.19-.27,1.15,1.15,0,0,0,.11-.29,2.87,2.87,0,0,0,.05-.31c0-.11,0-.23,0-.35Zm2.91-.28a8.72,8.72,0,0,1-.05.9,4.36,4.36,0,0,1-.17.83,3.71,3.71,0,0,1-.86,1.47,2.3,2.3,0,0,1-.56.45,3.68,3.68,0,0,1-.7.32,4.06,4.06,0,0,1-.78.2,5.52,5.52,0,0,1-.8.07,7.18,7.18,0,0,1-1.72-.2,3.65,3.65,0,0,1-1.36-.65,3.14,3.14,0,0,1-.91-1.17,4.45,4.45,0,0,1-.33-1.78l0-4.35h4.91l.32,0,.48.06.56.15a2.2,2.2,0,0,1,.56.26,2.5,2.5,0,0,1,.66.59,3.06,3.06,0,0,1,.45.77,4.56,4.56,0,0,1,.25.95,7.87,7.87,0,0,1,.08,1.12m-9.71.71h-2.84V19.29h-1v-2h3.83Zm-5.07,0h-2.84V19.29h-1v-2H128Zm-4.25,3.29h-7.7v-2h4L120,19.29h-3.89v-2h6.78l-.08,5.89h.91Zm-9,0h-2.85V20.56a1.51,1.51,0,0,0-.1-.6,1,1,0,0,0-.26-.39.85.85,0,0,0-.37-.21,1.33,1.33,0,0,0-.45-.07h-2.86v-2H112a4.53,4.53,0,0,1,1.24.15,2,2,0,0,1,1.41,1.39,4.77,4.77,0,0,1,.17,1.35Zm-10.7-3.29h-2.84V19.29h-1v-2h3.82Zm-9.25,1.31a2.23,2.23,0,0,0,.47-.07,1.38,1.38,0,0,0,.48-.25,1.41,1.41,0,0,0,.38-.5,1.91,1.91,0,0,0,.15-.82l-.06-4.29H99v4a5.32,5.32,0,0,1-.15,1.32,3.25,3.25,0,0,1-.43,1,2.87,2.87,0,0,1-.64.74,3.56,3.56,0,0,1-.82.49,4.75,4.75,0,0,1-1,.27,5.7,5.7,0,0,1-1,.08H88.23L88,17.28h2.78l.12,5.91h1.36l-.15-5.9h2.73Zm-8.33,2H83.65V20.56a1.71,1.71,0,0,0-.1-.6,1,1,0,0,0-.26-.39.89.89,0,0,0-.38-.21,1.31,1.31,0,0,0-.44-.07H79.6v-2h4.08a4.63,4.63,0,0,1,1.24.15,2.07,2.07,0,0,1,.88.5,2,2,0,0,1,.52.89,4.44,4.44,0,0,1,.17,1.35Zm-7.75,0H75.41l-1.67-2.94-.31-.7-.71,3.64H70l1.44-5.37-1.53-2.54h3.36l1.78,3.09,1-3.09h2.7L76.83,22.1Zm-9.58-7.91v.09l-2.78,7.82h-3l2.18-5.9h-4l-.09-4.41h2.84l0,2.4Z"/>
      <path class="cls-2" d="M126.89,34.36h-2.15v-.65h1.5l-.08-1.54a3.12,3.12,0,0,0-.09-.68,1.05,1.05,0,0,0-.22-.45.58.58,0,0,0-.15-.13l-.16-.07-.15,0h-.12a.68.68,0,0,0-.33.09,1,1,0,0,0-.29.28l-.12.2c0,.08-.07.16-.1.25a2,2,0,0,0-.1.26c0,.08,0,.17-.07.24l-.66,2.23h-.7l.88-2.77-1-.8.29-.73h0l1,.87a3.3,3.3,0,0,1,.28-.35,1.08,1.08,0,0,1,.32-.24,1.27,1.27,0,0,1,.32-.13,1.1,1.1,0,0,1,.31,0h.14l.2,0a1.05,1.05,0,0,1,.24.06,1.34,1.34,0,0,1,.24.12,1.26,1.26,0,0,1,.33.32,1.44,1.44,0,0,1,.21.41,2,2,0,0,1,.12.5,5,5,0,0,1,0,.57ZM122,32.14a2.49,2.49,0,0,1-.08.64,1.77,1.77,0,0,1-.23.5,1.66,1.66,0,0,1-.31.38,1.78,1.78,0,0,1-.38.25l-.18.08-.18.08-.16.06-.12,0-1.76.63v-.69l1-.34-.86-3.57h.77l.71,3.38.21-.09.17-.08.13-.07a1.24,1.24,0,0,0,.22-.18,1.12,1.12,0,0,0,.19-.24,1.64,1.64,0,0,0,.14-.33,1.6,1.6,0,0,0,.05-.39v-2H122Zm-4.31-.45v2.67H117V31.74a1.42,1.42,0,0,0-.07-.45.77.77,0,0,0-.19-.27.47.47,0,0,0-.24-.13.67.67,0,0,0-.24,0h-1.64v-.64h1.71a2.21,2.21,0,0,1,.54.07,1,1,0,0,1,.42.24,1.1,1.1,0,0,1,.27.46,2.09,2.09,0,0,1,.1.71m-3.94,0v4h-.66V31.74a1.42,1.42,0,0,0-.07-.45.91.91,0,0,0-.18-.27.45.45,0,0,0-.23-.13.6.6,0,0,0-.22,0h-1.68v-.64h1.72a2.28,2.28,0,0,1,.54.07,1,1,0,0,1,.41.24,1.1,1.1,0,0,1,.27.46,2.09,2.09,0,0,1,.1.71m-8.86,2.67h-.7V31.89h.7Zm2.53-4.15v4.15h-.66V30.85h-2.57v-.64Zm-4.85,2.2c0-.15,0-.29,0-.42a2,2,0,0,0-.06-.37,1.73,1.73,0,0,0-.14-.31.83.83,0,0,0-.22-.24.87.87,0,0,0-.36-.18,2.07,2.07,0,0,0-.46,0h-1l0,1.71a1.79,1.79,0,0,0,.1.62,1.05,1.05,0,0,0,.25.4,1.07,1.07,0,0,0,.37.22,1.49,1.49,0,0,0,.43.06l.21,0,.22-.05a.94.94,0,0,0,.22-.12.75.75,0,0,0,.19-.17,1.21,1.21,0,0,0,.23-.5,2.91,2.91,0,0,0,.06-.6m.68-.06c0,.14,0,.28,0,.42s0,.28-.08.41a2.26,2.26,0,0,1-.15.39,1.94,1.94,0,0,1-.21.34,1.33,1.33,0,0,1-.27.26,1,1,0,0,1-.32.18,1.42,1.42,0,0,1-.35.11,1.47,1.47,0,0,1-.36,0,2.27,2.27,0,0,1-.82-.14,1.56,1.56,0,0,1-.58-.39,1.74,1.74,0,0,1-.35-.61,2.66,2.66,0,0,1-.12-.78l0-2.37h1.79a2.62,2.62,0,0,1,.41,0,1.52,1.52,0,0,1,.32.06,1.17,1.17,0,0,1,.28.11l.24.14a1.43,1.43,0,0,1,.31.34,2.19,2.19,0,0,1,.2.44,2.77,2.77,0,0,1,.1.5,4.71,4.71,0,0,1,0,.53m-4.82,0h-.65V30.84h-.81v-.64H98.4Zm-2.32,0h-.66V30.84h-.8v-.64h1.46Zm-2.08,2H90.4v-.65h2.39l0-2.86H90.44v-.64h3l0,3.24v.21s0,0,0,0l0,0H94Zm-4.65-2.67v2.67h-.66V31.74a1.42,1.42,0,0,0-.07-.45.77.77,0,0,0-.19-.27.47.47,0,0,0-.24-.13.67.67,0,0,0-.24,0H86.31v-.64H88a2.21,2.21,0,0,1,.54.07,1,1,0,0,1,.42.24,1.1,1.1,0,0,1,.27.46,2.09,2.09,0,0,1,.1.71m-8.86,2.67h-.7V31.89h.7ZM83,30.21v4.15h-.66V30.85H79.79v-.64Zm-4.14,0v.05a.41.41,0,0,1,0,.07,1.31,1.31,0,0,0,0,.15l-.06.17c0,.07,0,.13-.08.19l-1.42,3.51h-.69a.23.23,0,0,1,0-.09,1.21,1.21,0,0,1,0-.14,1.11,1.11,0,0,1,.07-.16l.06-.16,1.19-3H75.44l0-2h.67v1.32Zm-4.12,4.14h-.83L72.22,32l-.63,2.38h-.68l.84-2.92-.92-1.23h.87l1.53,2,.78-2h.7l-1.06,2.55Zm-4.78,0h-.66V30.84H68.5v-.64H70Zm-2.33,0H65.5v-.65H67l-.08-1.54a4,4,0,0,0-.08-.68,1.18,1.18,0,0,0-.22-.45.83.83,0,0,0-.16-.13l-.16-.07-.15,0H66a.71.71,0,0,0-.33.09,1,1,0,0,0-.29.28,1.28,1.28,0,0,0-.11.2,1.89,1.89,0,0,0-.11.25,2,2,0,0,0-.09.26c0,.08-.06.17-.08.24l-.65,2.23h-.71l.88-2.77-1-.8.29-.73h0l1,.87a2.33,2.33,0,0,1,.27-.35,1.22,1.22,0,0,1,.32-.24,1.44,1.44,0,0,1,.32-.13,1.15,1.15,0,0,1,.31,0h.15l.2,0,.23.06a1.34,1.34,0,0,1,.24.12,1,1,0,0,1,.33.32,1.78,1.78,0,0,1,.22.41,3.66,3.66,0,0,1,.12.5c0,.18,0,.37,0,.57Zm-4.87-2h-.66V30.84h-.81v-.64h1.47Z"/>
    </g>
    <rect class="cls-5" x="34.22" y="22.06" width="2.58" height="5.16"/>
    <rect class="cls-5" x="39.38" y="27.21" width="12.89" height="7.74"/>
    <rect class="cls-2" x="39.38" y="27.21" width="10.31" height="5.15"/>
    <rect class="cls-2" x="36.8" y="22.06" width="2.58" height="5.16"/>
    <rect class="cls-5" x="36.8" y="27.21" width="2.58" height="5.15"/>
    <rect class="cls-5" x="36.8" y="14.32" width="12.89" height="7.74"/>
    <rect class="cls-2" x="39.38" y="16.9" width="10.31" height="5.15"/>
    <rect class="cls-5" x="49.69" y="16.9" width="2.58" height="5.15"/>
  </g>
</svg>
