<svg id="Layer_1" data-name="Layer 1" xmlns="http://www.w3.org/2000/svg" xmlns:xlink="http://www.w3.org/1999/xlink" viewBox="0 0 150 50">
  <defs>
    <style>
      .cls-1 {
        fill: none;
      }

      .cls-2 {
        clip-path: url(#clip-path);
      }

      .cls-3 {
        fill: #21409a;
      }

      .cls-4 {
        fill: #fff;
      }
    </style>
    <clipPath id="clip-path">
      <rect class="cls-1" x="7.12" y="14.3" width="135.77" height="21.4"/>
    </clipPath>
  </defs>
  <g>
    <g class="cls-2">
      <path class="cls-3" d="M23.79,14.31V29.67s.09,3.66-4.47,4.17c-.28,0-3.14,0-3.87,1.06-.72-1.1-3.59-1-3.86-1.06C7,33.33,7.12,29.67,7.12,29.67V14.31Z"/>
      <path class="cls-4" d="M10.26,31.48c0,.09,0,.1-.12,0a1.19,1.19,0,0,1-.41-.41,2.84,2.84,0,0,0,.44.28c.09,0,.11,0,.09.09m.13-.21s-.81-.2-.88-.62a1.13,1.13,0,0,1,.12-.58s.23-.05.26-.14a.22.22,0,0,0-.13-.26.18.18,0,0,0-.26.07c-.08.1,0,.17,0,.17s.15.19-.11.37a3,3,0,0,1-.16-.76,6.34,6.34,0,0,1,.49-1.09c.12-.2.37-.57.37-.57a3,3,0,0,1-.57,1.57,2.15,2.15,0,0,0,.86-1.74,5.14,5.14,0,0,0-.09-.62,12.26,12.26,0,0,0-.72,1.07,6,6,0,0,0-.35.86s0-.67,0-.75a2.55,2.55,0,0,1,.33-.47s.14,0,.19-.09.07-.25-.06-.29-.27.08-.27.08a.38.38,0,0,0,0,.25l-.21.19v-.69a6.89,6.89,0,0,1,.49-1l.37-.57a3,3,0,0,1-.57,1.57,2.11,2.11,0,0,0,.82-1.77c0-.16-.05-.58-.05-.58a8.71,8.71,0,0,0-.75,1,5,5,0,0,0-.32.84s0-.61,0-.69a2.55,2.55,0,0,1,.33-.47s.14,0,.19-.08.07-.25-.06-.3-.27.09-.27.09a.36.36,0,0,0,0,.24l-.21.19V25a6.89,6.89,0,0,1,.49-1l.37-.57A3,3,0,0,1,9.49,25a2.14,2.14,0,0,0,.86-1.74,5.23,5.23,0,0,0-.09-.61,8.39,8.39,0,0,0-.72,1,6.08,6.08,0,0,0-.35.87s0-.61,0-.69a2.55,2.55,0,0,1,.33-.47s.14,0,.19-.08.07-.25-.06-.3-.27.09-.27.09a.36.36,0,0,0,0,.24l-.21.19v-.6a4.5,4.5,0,0,1,.45-1l.28-.46a2.42,2.42,0,0,1-.47,1.4,1.64,1.64,0,0,0,.77-1.49c0-.18,0-.73,0-.73a6.06,6.06,0,0,0-.73.92,4.88,4.88,0,0,0-.29.89s0-.6,0-.68a3.46,3.46,0,0,1,.21-.43s.15.06.21,0,.09-.2,0-.29-.25.05-.25.05a.24.24,0,0,0,0,.21l-.13.16v-.49a3.52,3.52,0,0,1,.38-1.05l.35-.55a2.23,2.23,0,0,1-.44,1.35A2.18,2.18,0,0,0,10.31,19c0-.17-.05-.67-.05-.67a7,7,0,0,0-.81,1,2.5,2.5,0,0,0-.26,1s0-.67,0-.75a3.41,3.41,0,0,1,.16-.37.13.13,0,0,0,.16-.06.17.17,0,0,0-.09-.25c-.12-.07-.17,0-.17,0a.35.35,0,0,0,0,.25l-.1.08v-.49a5,5,0,0,1,.44-1c.12-.19.42-.57.42-.57a2,2,0,0,1-.45,1.32,1.44,1.44,0,0,0,.74-1.38,1.92,1.92,0,0,0-.05-.57,5,5,0,0,0-.85.94,6.81,6.81,0,0,0-.35,1c0-1,0-2,0-3a2.84,2.84,0,0,1,.27,1.7,4.85,4.85,0,0,0,.19-.86,1.48,1.48,0,0,0-.26-.87A4.74,4.74,0,0,1,9,14.87a2,2,0,0,1-.21.57,1.83,1.83,0,0,0-.23.89,4,4,0,0,0,.34,1.18,9.52,9.52,0,0,1,0,1.06A2.93,2.93,0,0,1,8.32,18a2.74,2.74,0,0,1-.27-.86s.2.23.33.35a5.29,5.29,0,0,1,.41.62c.06-.67-1-1.53-1-1.53a3.44,3.44,0,0,0,.28,1.68,2.32,2.32,0,0,0,.87.64v.42l-.15-.09a.35.35,0,0,0,0-.25.31.31,0,0,0-.28-.06c-.11.06-.08.22,0,.31s.2.06.2.06a1.14,1.14,0,0,1,.26.31c0,.07,0,1.15,0,1.15a2.56,2.56,0,0,1-.57-.65,3.18,3.18,0,0,1-.32-.81l.37.32a4.36,4.36,0,0,1,.34.56c.06-.66-1-1.62-1-1.62a3.74,3.74,0,0,0,.28,1.68,2,2,0,0,0,.87.72v.42l-.22-.17a.35.35,0,0,0,0-.24s-.15-.12-.27-.06-.09.21,0,.3.2.06.2.06a2.4,2.4,0,0,1,.33.43c0,.07,0,1.15,0,1.15a2.56,2.56,0,0,1-.57-.65,3.17,3.17,0,0,1-.32-.8s.24.19.37.31a4.36,4.36,0,0,1,.34.56c.06-.66-1-1.62-1-1.62a3.74,3.74,0,0,0,.28,1.68A2.09,2.09,0,0,0,9,23v.44l-.22-.17a.35.35,0,0,0,0-.24s-.15-.12-.27-.06-.09.21,0,.3.2.06.2.06a2.4,2.4,0,0,1,.33.43c0,.07,0,1.15,0,1.15a2.56,2.56,0,0,1-.57-.65,3.17,3.17,0,0,1-.32-.8s.24.19.37.31a4.36,4.36,0,0,1,.34.56c.06-.66-1-1.62-1-1.62A3.74,3.74,0,0,0,8.1,24.4a2.09,2.09,0,0,0,.87.73v.56l-.22-.16a.37.37,0,0,0,0-.25s-.15-.12-.27-.06-.09.21,0,.31.2.06.2.06A2.25,2.25,0,0,1,9,26c0,.07,0,1.15,0,1.15a2.4,2.4,0,0,1-.57-.65,3,3,0,0,1-.32-.8s.24.19.37.31a4.31,4.31,0,0,1,.34.57c.06-.67-1-1.63-1-1.63a3.79,3.79,0,0,0,.28,1.69,2.05,2.05,0,0,0,.87.71v.56l-.22-.17a.35.35,0,0,0,0-.24s-.15-.12-.27-.06-.09.21,0,.3.2.06.2.06a2.65,2.65,0,0,1,.33.42c0,.08,0,1.16,0,1.16a2.56,2.56,0,0,1-.57-.65,3.18,3.18,0,0,1-.32-.81l.37.32a4.36,4.36,0,0,1,.34.56c.06-.66-1-1.62-1-1.62a3.74,3.74,0,0,0,.28,1.68,2.1,2.1,0,0,0,.9.73c0,.3.1.7.1.7-.28-.16-.22-.28-.22-.28a.24.24,0,0,0-.06-.21c-.09-.09-.18-.15-.3-.09s-.06.18,0,.27.18.15.18.15a4.08,4.08,0,0,0,.53.46,2.13,2.13,0,0,0,1.38,1.33Z"/>
      <path class="cls-4" d="M20.81,31.5c-.09.06-.11,0-.12-.05s0-.08.09-.09a2.84,2.84,0,0,0,.44-.28,1.25,1.25,0,0,1-.41.42m1.52-3.41A5,5,0,0,0,22,29s0-.68,0-.76a2.5,2.5,0,0,1,.34-.47s.14,0,.19-.09.06-.25-.06-.3-.27.09-.27.09a.35.35,0,0,0,0,.25l-.21.19v-.69a6.72,6.72,0,0,1,.5-1l.38-.58a3,3,0,0,1-.59,1.59,2.14,2.14,0,0,0,.83-1.79c0-.16-.06-.58-.06-.58a7.87,7.87,0,0,0-.74,1,5.16,5.16,0,0,0-.33.85S22,26,22,26a2.65,2.65,0,0,1,.34-.48s.14,0,.19-.08.06-.25-.06-.3-.27.09-.27.09a.36.36,0,0,0,0,.25l-.21.18v-.7a6.29,6.29,0,0,1,.5-1c.12-.2.38-.58.38-.58a3,3,0,0,1-.59,1.59,2.18,2.18,0,0,0,.88-1.76A4.57,4.57,0,0,0,23,22.5a7.88,7.88,0,0,0-.71,1,5.61,5.61,0,0,0-.36.88s0-.61,0-.69a2.65,2.65,0,0,1,.34-.48s.14,0,.19-.08.06-.25-.06-.3-.27.09-.27.09a.33.33,0,0,0,0,.24l-.21.19v-.6a5,5,0,0,1,.45-1.05l.29-.47a2.41,2.41,0,0,1-.48,1.42A1.65,1.65,0,0,0,23,21.14c0-.17,0-.73,0-.73a5.48,5.48,0,0,0-.73.92,4.53,4.53,0,0,0-.3.9s0-.6,0-.68a3.16,3.16,0,0,1,.22-.43s.14.05.2,0,.1-.2,0-.28a.18.18,0,0,0-.25.26l-.13.16v-.5a3.3,3.3,0,0,1,.39-1l.35-.56a2.21,2.21,0,0,1-.45,1.36,2.2,2.2,0,0,0,.83-1.58c0-.16-.06-.67-.06-.67a7.25,7.25,0,0,0-.81,1,2.74,2.74,0,0,0-.26,1s0-.68,0-.76a2.9,2.9,0,0,1,.17-.37A.14.14,0,0,0,22.3,19a.19.19,0,0,0-.09-.26.13.13,0,0,0-.18,0A.36.36,0,0,0,22,19l-.1.08v-.5a4.76,4.76,0,0,1,.45-1c.11-.19.42-.58.42-.58a2,2,0,0,1-.46,1.33A1.45,1.45,0,0,0,23.09,17a2,2,0,0,0-.05-.58,5.29,5.29,0,0,0-.86,1,6.81,6.81,0,0,0-.35,1c0-1,0-2,0-3.06A2.81,2.81,0,0,1,22.09,17a5.08,5.08,0,0,0,.19-.87,1.49,1.49,0,0,0-.26-.88,4.77,4.77,0,0,1-.21-.56,1.58,1.58,0,0,1-.22.57,2,2,0,0,0-.23.91,5.11,5.11,0,0,0,.35,1.19,9.85,9.85,0,0,1,0,1.07,2.58,2.58,0,0,1-.63-.62,2.69,2.69,0,0,1-.28-.87l.33.36a5.68,5.68,0,0,1,.42.62c.06-.68-1-1.54-1-1.54a3.49,3.49,0,0,0,.28,1.69,2.29,2.29,0,0,0,.89.65v.42l-.16-.09a.35.35,0,0,0,0-.25s-.16-.12-.28-.06-.09.21,0,.31.2.06.2.06a1.14,1.14,0,0,1,.26.31c0,.07,0,1.16,0,1.16a2.16,2.16,0,0,1-.58-.66,3.23,3.23,0,0,1-.33-.81s.25.2.37.32a4.2,4.2,0,0,1,.35.57c.06-.67-1-1.64-1-1.64a3.83,3.83,0,0,0,.28,1.7,2.15,2.15,0,0,0,.89.73v.42l-.23-.17a.37.37,0,0,0,0-.25s-.15-.12-.27-.06-.1.22,0,.31a.19.19,0,0,0,.19.06,2.35,2.35,0,0,1,.34.43c0,.07,0,1.16,0,1.16a2.16,2.16,0,0,1-.58-.66,3.39,3.39,0,0,1-.33-.81s.25.2.37.32a3.66,3.66,0,0,1,.35.57c.06-.68-1-1.64-1-1.64a3.83,3.83,0,0,0,.28,1.7,2.15,2.15,0,0,0,.89.73v.44l-.23-.16a.37.37,0,0,0,0-.25s-.15-.12-.27-.06-.1.21,0,.31a.19.19,0,0,0,.19.06,2.58,2.58,0,0,1,.34.42c0,.08,0,1.17,0,1.17a2.16,2.16,0,0,1-.58-.66,3.39,3.39,0,0,1-.33-.81s.25.2.37.32a3.66,3.66,0,0,1,.35.57c.06-.68-1-1.64-1-1.64a3.83,3.83,0,0,0,.28,1.7,2.15,2.15,0,0,0,.89.73v.56l-.23-.16a.37.37,0,0,0,0-.25s-.15-.12-.27-.06-.1.21,0,.31a.19.19,0,0,0,.19.06,2.35,2.35,0,0,1,.34.43c0,.07,0,1.16,0,1.16a2.16,2.16,0,0,1-.58-.66,3.39,3.39,0,0,1-.33-.81s.25.2.37.32a3.66,3.66,0,0,1,.35.57c.06-.68-1-1.64-1-1.64a3.83,3.83,0,0,0,.28,1.7,2,2,0,0,0,.89.71v.57l-.23-.17a.35.35,0,0,0,0-.24s-.15-.13-.27-.06-.1.21,0,.3a.19.19,0,0,0,.19.06,2.35,2.35,0,0,1,.34.43c0,.08,0,1.16,0,1.16a2.16,2.16,0,0,1-.58-.66,3.23,3.23,0,0,1-.33-.81,4.44,4.44,0,0,1,.37.33,3.68,3.68,0,0,1,.35.56c.06-.67-1-1.63-1-1.63a3.78,3.78,0,0,0,.28,1.69,2.29,2.29,0,0,0,.87.75,2.11,2.11,0,0,1-.14.67c-.26-.18-.11-.37-.11-.37s0-.07,0-.17-.13-.13-.26-.08a.22.22,0,0,0-.12.27c0,.09.25.14.25.14a1,1,0,0,1,.12.58c-.07.43-.88.63-.88.63l-.19.67a2.19,2.19,0,0,0,1.39-1.35,4.08,4.08,0,0,0,.53-.46s.15-.06.18-.15.09-.21,0-.27-.21,0-.3.09a.24.24,0,0,0-.06.21s.06.12-.22.28a7.65,7.65,0,0,0,.12-.79,6.21,6.21,0,0,1,.5-1.1l.38-.57a3,3,0,0,1-.59,1.59,2.2,2.2,0,0,0,.88-1.76A4.28,4.28,0,0,0,23,27a10,10,0,0,0-.71,1.08"/>
      <path class="cls-4" d="M16.52,31.58v1c0,.08,0,.09,0,.1l-.15,0v-1h-.75a.14.14,0,0,1-.15-.13l0-.16a.34.34,0,0,0,.2.11h.73c.12,0,.11.1.11.1m0-.34h-1a.42.42,0,0,1-.26-.13l-.16.57a.18.18,0,0,0,.19.16h.82V33s.47-.18.49-.2,0,0,0-.12V31.39s0-.15-.12-.15"/>
      <path class="cls-4" d="M20.12,31.59A1.91,1.91,0,0,0,20,32l-.12,0,0-.37a.39.39,0,0,1-.26,0l.08-.23h.14a.66.66,0,0,0,.14,0c.06,0,.08,0,.05.12m.11-.43a2.67,2.67,0,0,1-.4,0,.79.79,0,0,1-.21-.07l-.25.69c.06.06.37,0,.37,0l-.06.5.51-.14a2.13,2.13,0,0,1,.15-.79c0-.15,0-.23-.11-.23"/>
      <path class="cls-4" d="M14.66,32.79a.27.27,0,0,0-.09-.07l-1.27-.88s0,.09,0,.14,0,.66,0,.66h.34l-.11.17h-.41a4.64,4.64,0,0,0,0-.54c0-.15,0-.56,0-.56l.07-.1a.06.06,0,0,1,.1,0,4.9,4.9,0,0,0,1.47,1Zm-.19-1.39a.58.58,0,0,0,.14,0h.12c.08,0,.06.09.06.15v.11a.63.63,0,0,1,0,.23,1.27,1.27,0,0,1-.15.11,1.62,1.62,0,0,0,0-.33s0,0-.05-.05-.15,0-.19,0a1.28,1.28,0,0,0,.08-.24m.19,1c-.06,0,0-.14,0-.14l.19-.13a.27.27,0,0,0,.08-.2v-.54c0-.07,0-.1-.08-.12a2.61,2.61,0,0,0-.4,0,.76.76,0,0,1-.18,0,4.68,4.68,0,0,1-.19.57.81.81,0,0,0,.21.05c.08,0,0,0,.06.06a.81.81,0,0,1,0,.27,8.42,8.42,0,0,1-1.11-.85c-.07-.05-.13,0-.15,0a3.43,3.43,0,0,1-.24.37,5.53,5.53,0,0,1,.11.61,4.47,4.47,0,0,1-.09.75h.77l.2-.5h-.42v-.34c0-.06,0-.06,0-.06l1.18.87c.07,0,.08,0,.08,0l.24-.47a2.48,2.48,0,0,1-.29-.17"/>
      <path class="cls-4" d="M19.09,32.1a.77.77,0,0,1,0,.2,3.84,3.84,0,0,1-.29.27.24.24,0,0,1-.1.06l-1.37.18s0-.66,0-.72a.35.35,0,0,1,0-.17s.16-.2.08-.22a.5.5,0,0,1-.18-.06l.1-.22c.12,0,.14,0,.19,0s.12,0,.1.06a2.64,2.64,0,0,0-.13.42,2.45,2.45,0,0,0,0,.66s.37,0,.37,0,.39-.91.39-.91H18l.09-.18h.28l-.34,1.08s.6-.08.65-.1a.85.85,0,0,0,.25-.25,3.67,3.67,0,0,0,.05-.49h-.15l.07-.24h.21s0,.55-.06.61m-.27-.86-.16.53.17,0a1.21,1.21,0,0,1,0,.32.33.33,0,0,1-.15.19,4.12,4.12,0,0,1-.42.09s.31-1.1.31-1.16H18l-.19.5.18.05a7,7,0,0,1-.3.66.68.68,0,0,1-.08-.6,4.76,4.76,0,0,1,.16-.52s-.06-.09-.11-.09a.94.94,0,0,1-.51-.08l-.22.5a.29.29,0,0,0,.21.13c.15,0,0,.15,0,.17a.23.23,0,0,0-.07.17c0,.07,0,.89,0,.89l1.65-.23c.08,0,.08,0,.12-.07s.29-.33.31-.36,0,0,0-.12.06-1,.06-1Z"/>
      <path class="cls-4" d="M15.9,24.29h0Z"/>
      <path class="cls-4" d="M15.86,24.27h0s0,0,0,0"/>
      <path class="cls-4" d="M20,16.9c-.07.2-.22.41-.14.63s.12.27.05.38a.19.19,0,0,1-.27,0s0-.05,0-.07.18-.15.13-.28a2.92,2.92,0,0,1-.07-.39c-.05-.12-.22-.18-.26-.31s.28-.2.44-.17.17.07.14.17m-.06,1.19c-.08,0-.18.06-.21,0s.1,0,.17,0,0-.05.05,0,0,0,0,0m0,.49s-.06,0-.07,0-.18,0-.26-.1-.07-.09,0-.09.16-.07.26-.08l0,0c.06,0,.07-.08.1-.13s.06,0,.06,0a.65.65,0,0,1,0,.39m0,.27a2.84,2.84,0,0,0-.34-.08s-.08,0-.07-.07l0,0c.09-.05.18,0,.28,0s.11,0,.13.1,0,.08,0,.08m0,.36c0,.08-.11.13-.13.24s0,.05-.08,0-.18,0-.25-.11,0-.05,0-.05.19,0,.26,0,.05-.14.11-.19h.1s0,.08,0,.11m-.13.66c0,.08-.14.11-.26.08s-.12-.08-.08-.12.14-.08.1-.14,0-.06,0-.07-.07,0-.1,0v0a.37.37,0,0,1,.37.13.19.19,0,0,1,0,.18m-.27.4a.18.18,0,0,1-.25.06s-.08,0-.08-.07,0-.05,0-.06.15,0,.21,0a0,0,0,0,0,0-.05s-.17-.1-.1-.13.3.14.22.28m-.17.48s0,0,0,0,0,.12-.06.16,0,0-.05-.07a.18.18,0,0,0-.11-.07c-.05,0-.05-.08-.1-.12s.24,0,.35,0,0,.08,0,.1m-.3.42s-.05.13-.11.11a1.21,1.21,0,0,1-.19-.2s0,0,0,0,.13.05.17,0,0-.12,0-.16.05,0,.08,0v0c.06,0,.16.1.15.17s-.07.09-.12.13m-.58.52v0l0-.05c0,.08-.06.14-.07.22s-.08,0-.1,0a1.88,1.88,0,0,1-.27-.36s.07,0,.09,0,.22,0,.32.07a.09.09,0,0,1,0,.09m-.39.31c0,.07-.07.14-.14.12s-.18-.2-.27-.32,0,0,0,0h0s0,.09.1.1,0-.08.06-.1.05,0,.09,0a.16.16,0,0,1,.1.19m-.36.14c0,.16-.22.19-.35.23-.34.11-.68.18-1,.27a1.75,1.75,0,0,1-.56.05h0l.11,0a.47.47,0,0,1-.21-.06s0,0,0,0a2.54,2.54,0,0,1,.5-.06,5.09,5.09,0,0,0,.67-.18c.11,0,.21-.13.32-.18s.07,0,.09,0a1.11,1.11,0,0,1,.35-.16c.08,0,.15.08.14.12m-1.5,1.07c0,.05,0,.12-.09.12s0,.17-.1.2a.9.9,0,0,1-.4,0s0,0,0,0a.13.13,0,0,0,0-.18s-.07,0-.09,0,0,.18,0,.23-.08,0-.13,0-.07-.06,0-.08.07,0,.1,0,0,0,0-.07v0c0-.06-.05-.12-.11-.1s-.06.05-.1.07a.14.14,0,0,0-.12-.12c0,.05-.07,0-.09,0s0-.08,0-.13c.27-.05.54,0,.82,0,0,0,0,0,0-.05s.06-.06.11-.06,0-.06.06-.08a.09.09,0,0,1,.1,0,.29.29,0,0,1,0,.24m.05.85c.11,0,.23.13.17.24s-.09,0-.14,0-.15,0-.23,0,0,0,0,0l-.05,0h0c-.07-.07-.14-.18-.23-.13a.21.21,0,0,1-.17,0,0,0,0,0,1,0-.06c.05,0,.05-.09.11-.11a.55.55,0,0,1,.37.08c.06,0,.14,0,.21,0m-1-.54s.07,0,0,.05-.07.05-.09,0,0,0,.06-.05m1,1.37c-.11,0-.25.05-.32,0s.06-.07,0-.11-.07-.06-.09,0,0,.14,0,.19-.18.05-.2,0,.16,0,.13-.12a.19.19,0,0,0-.18-.08.4.4,0,0,1,0,.22c0,.06-.11,0-.16,0v-.08c.05,0,.11,0,.09-.08s-.09-.18-.17-.12,0,.22-.1.29a.11.11,0,0,1-.14,0,0,0,0,0,1,0,0s.08,0,.12,0,0-.13,0-.19-.08-.06-.11,0-.06,0,0,.06a.21.21,0,0,1,0-.25.51.51,0,0,1,.42,0,4.93,4.93,0,0,0,.67,0,1,1,0,0,0,.06.48m.11.17s.06.05.08.09a3.7,3.7,0,0,1,.3.78,1.23,1.23,0,0,1-.38,0s-.06,0-.06-.07-.09-.39-.15-.64a.23.23,0,0,1,.08-.16.19.19,0,0,1,.13,0m-.35.82a1.14,1.14,0,0,0-.17-.15v.05a2.63,2.63,0,0,1,0-.48.09.09,0,0,1,.07-.09c.06,0,.13,0,.14.07.05.23.06.41.1.62,0,0-.11,0-.13,0m-.31-.12c-.1,0-.11-.11-.15-.17s0,0,0,0a.55.55,0,0,1,0-.31c0-.06.12-.08.15,0s0,.35,0,.52m-.33-.22a0,0,0,0,1,0,0l-.14,0c-.07,0,0-.15,0-.23a.05.05,0,0,1,0-.05.11.11,0,0,1,.15,0,.21.21,0,0,1,0,.19s0,0,0,.06m-.54-2.9a4.11,4.11,0,0,1-1.1-.26l-.29-.19,0,0h0s0,0,0,0,.07-.19.15-.26,0,0,0,0,.07.18.13.26a.48.48,0,0,0,.11.09,2.88,2.88,0,0,0,.78.27c.16,0,.32,0,.48,0s.13,0,.18,0,0,0,0,.05c-.16,0-.31,0-.47,0m-1.54-.56s-.07,0-.09,0-.19-.09-.19-.18,0,0,.06-.05.05-.18.12-.18.34-.17.32,0-.23.21-.22.4m-.45-.3a.19.19,0,0,1-.19-.13s0-.06,0-.1,0,0,0-.07,0,0,0,0a.07.07,0,0,1,0-.06.08.08,0,0,1,.13,0s0,.09,0,.11.18-.11.26-.17.08,0,.05.08-.16.35-.36.36m-.28-.5s0,.11-.11.14-.07-.05-.11-.08a.1.1,0,0,0,0,0c-.05,0-.09,0-.12-.06a.06.06,0,0,1,0-.07s.11,0,.14,0,0-.06,0-.07a.07.07,0,0,1,.11,0c0,.05.08.07.12.11a.06.06,0,0,1,0,.06.18.18,0,0,1-.08.05M11.86,21c0-.05.06-.08.11-.1l.2-.11a.22.22,0,0,1,0,.14A.38.38,0,0,1,12,21c-.06,0-.11,0-.14,0m-.11-.21a.16.16,0,0,1-.09-.06s0-.06,0-.07.09,0,.14,0a.55.55,0,0,0,.09-.07s.07-.05.12-.05,0,0,0,0-.18.26-.32.22m-.33-.55s0,0,0,0,.26-.12.39-.2.07,0,.09,0a.08.08,0,0,1,0,.08c-.11.12-.31.25-.47.15m-.12-.56s0-.06.06,0c0-.12.09-.08.11-.14s-.05-.1-.09-.13,0,0,0,0a.12.12,0,0,1,.12,0s.05,0,0,.06,0,.06.06.09a.21.21,0,0,1-.14.3.14.14,0,0,0,0,0c-.06,0-.16,0-.15-.12m0-.81s-.17,0-.13-.07.13-.09.2-.14,0-.19.1-.26,0,0,.06,0,0,.26,0,.37-.12.09-.21.09h0M11,18c.16-.1.13-.33.18-.49h0s0-.06,0-.1,0-.19,0-.28-.11-.06-.15-.11,0-.1.06-.11a.46.46,0,0,0,.23-.16s.06,0,.05.09v0a.69.69,0,0,0,0,.32,3.77,3.77,0,0,1,0,.95c-.11,0-.32.08-.32-.09m4,3.4a2.38,2.38,0,0,1-1-.3s-.09-.05-.08-.09A.09.09,0,0,1,14,21a2.1,2.1,0,0,0,.9.34s.17,0,.17,0,0,0-.06,0m-1.37-.49c0-.05,0-.08.08-.09h-.05c.08-.07.15-.22.27-.21a1.92,1.92,0,0,1-.17.39c0,.06-.11,0-.13-.09m-.05-.29,0,0a.22.22,0,0,1-.11.15s-.11-.06-.09-.11l0-.05c.08-.06.15-.22.24-.13s0,.07,0,.11m-.45-.19s-.05,0-.05,0,0-.15.11-.14l0,0c.06,0,.12-.06.16,0s-.13.26-.19.23m1.91,0h.07c.24-.06.48.09.7,0a.86.86,0,0,1,0,.39.2.2,0,0,1-.3.11c-.14-.1-.15-.3-.31-.4a.42.42,0,0,0-.13,0s-.07,0,0-.05m0-3.5s-.05,0,0-.06,0,0,0,0l0,0h0c.1-.05.21,0,.31-.05s0-.06.1-.06,0,0,.05-.08a.39.39,0,0,0,0-.15.33.33,0,0,1,.31.39.38.38,0,0,1-.12.17.51.51,0,0,0-.1.25c-.06.21.11.4.07.61a.28.28,0,0,1-.08.2.14.14,0,0,1-.14,0c-.08,0-.21,0-.26-.1a.38.38,0,0,0,.29-.2.62.62,0,0,0,0-.38c0-.16,0-.33-.07-.45s-.23-.08-.35-.13m.38,2.4v.06s0,0,0,0,0-.17,0-.25.09,0,.13,0a.1.1,0,0,1,0,.07c0,.15.08.32,0,.43s-.31.06-.47,0-.07-.11,0-.13l.3-.13m.12-.49c.07-.07,0-.11,0-.14s.17.15.13.22-.24.06-.37,0-.07-.08,0-.09a1.18,1.18,0,0,1,.27,0v0M16.17,20a1.4,1.4,0,0,0,.16-.1s.08-.08.13-.05.11.14.06.18a1.47,1.47,0,0,1-.61.24c-.22.05-.7.09-.68-.1h.23a2,2,0,0,0,.71-.19m-.37,2a.27.27,0,0,1-.23,0c-.11,0-.09-.19-.14-.29s0,0-.07-.06-.17,0-.22-.11h.06a3.94,3.94,0,0,0,.68,0c0,.13.07.32-.08.41m.33-.74a1.66,1.66,0,0,0,.21-.06,6,6,0,0,0,.62-.31s.17.16.13.18a6,6,0,0,1-.67.29,1.65,1.65,0,0,1-.76.1,1.19,1.19,0,0,0-.21-.06s-.12,0-.09,0c.23-.15.51,0,.77-.1M12.72,20s-.06,0,0-.06.07,0,.1-.05,0,0,0,0a.2.2,0,0,1,.13,0,.2.2,0,0,1-.19.12m-.09-.28s-.06,0-.09,0,0,0,0,0a.71.71,0,0,1,.18-.08h0c.05.08-.06.13-.12.15m.06-.26s-.07,0-.09,0,0-.05,0-.05.09,0,.06.08m-.19-.71c.08,0,.06-.11.1-.14s.11,0,.13.11-.12.14-.22.11,0-.07,0-.08m-.31-.51s0,0,0,0a.38.38,0,0,1,.21,0h0c.1,0,.2,0,.29,0s0,0,0,0-.17,0-.26,0-.18,0-.24,0M12.12,17a.14.14,0,0,1,0-.13h0c.14,0,.21,0,.35,0l.1,0a1.45,1.45,0,0,0,0,.29,1.93,1.93,0,0,0,0,.48c0,.13,0,.25,0,.38h0c0,.1,0,0-.06.09s0,0-.08,0a.09.09,0,0,1-.06-.11c.06-.19.09-.17.07-.37a.27.27,0,0,0-.11-.18.12.12,0,0,1-.05,0c0-.1,0-.22,0-.31s-.1-.08-.13-.13M15,20.24a1.31,1.31,0,0,1-.61-.15c-.14-.07-.3-.19-.21-.35s.09.05.13.1c.16.25.46.24.71.36,0,0,0,0,0,0m-1-.63s0-.11.07-.14.11-.11.18-.06,0,.05,0,.07-.12.07-.16.12a.08.08,0,0,1-.1,0m-.16-.22s0,0-.06,0,0-.05,0-.09,0-.06.05-.05a.16.16,0,0,1,.19-.18.09.09,0,0,1,.06.11.31.31,0,0,1-.24.17M13.59,19h-.05v0h0v0h0s0-.07,0-.1a.14.14,0,0,1,.08-.05.69.69,0,0,1,.32,0s.09,0,.05.06-.28,0-.39.1m.17-.36c0,.06-.13.07-.2.09v-.06c.08,0,.19-.12.2,0m-.42-.37s0,0,0,0a.37.37,0,0,1,.21,0h0c.09,0,.2,0,.28,0s0,0,0,0-.16,0-.26,0a.2.2,0,0,1-.23,0M13.26,17a.09.09,0,0,1,.05-.14.73.73,0,0,1,.44,0l.13,0c.08,0,.13.09.1.17s-.12.18-.17.28,0,.28,0,.42a.31.31,0,0,1-.25.26s-.09,0-.11,0,.12-.16.17-.26,0-.07,0-.08a1.17,1.17,0,0,1-.16-.25c-.05-.09,0-.18,0-.26s-.12-.07-.16-.11m3.34,2.64s.1,0,.13,0a1.59,1.59,0,0,0,.13-.13c.05-.05.13,0,.17.09a.12.12,0,0,1,0,.1s-.05.08-.09.11l-.11.05c-.11.05-.2-.07-.23-.17s0,0,0-.05m.34-2.6a.06.06,0,0,1,0-.1,5.25,5.25,0,0,1,.56,0c.07,0,0,0,0,0s-.13.23-.07.35,0,.38.08.57a.17.17,0,0,1-.05.16.26.26,0,0,1-.35,0c-.05,0,0-.09,0-.1s.09,0,.12,0a.21.21,0,0,0,.08-.26c0-.08-.11-.08-.2-.07.07,0,.17-.12.1-.17a1.42,1.42,0,0,1-.18-.08s0-.08-.06-.12-.11-.09-.16-.15m.68,1.12c0,.06,0,.2,0,.19s-.34-.08-.29-.14.14,0,.23,0,.06-.13.1-.06m-.07.44a0,0,0,0,0,0,0c-.09,0-.17-.07-.26-.08s-.07,0,0,0,.1-.07.14-.1.14,0,.15.11l0,0s0,0,0,.06m-.27.5L17.12,19s0-.05,0-.06.13,0,.16-.11,0-.11.06-.12.14,0,.14.06-.1.35-.21.31m-.07.43a.08.08,0,0,1-.11,0,.08.08,0,0,1,0,0s0-.05,0-.06.15-.06.21-.12,0,.15-.05.22m0,1.33s.1,0,.16,0l-.05,0c.13,0,0-.11.07-.19.07.08.15.18.11.27s-.12.06-.18.09-.16-.1-.11-.16m.24-.34a.1.1,0,0,1,.09,0s0-.06,0-.09l0,0s0,0,0,0,.12.08.15.14,0,0,0,.06a.1.1,0,0,1,0,.1,0,0,0,0,1,0,0c-.09,0-.13-.07-.2-.12s0,0,0,0-.05,0,0,0m.29-.31s.08,0,.12,0h0l.07,0s0-.13,0-.14a.26.26,0,0,1,.22.12.11.11,0,0,1,0,.14s-.1,0-.14.07,0,.08-.05.1-.06,0-.07,0,0,0-.06-.06-.08,0-.1-.07-.1-.07,0-.11m.31-.67c.12-.07.26,0,.39.07s0,0,0,0-.1,0-.14,0-.17,0-.24-.09-.06,0,0,0m.13-.59h0l0,.07v0a.09.09,0,0,0,0-.05.5.5,0,0,1,.35.1c0,.11,0,.26-.12.35s-.13,0-.18,0-.05-.08,0-.1.15-.11.1-.19-.14,0-.19,0a.07.07,0,0,1,0-.09m.06-2a1.58,1.58,0,0,0,.25-.05s.07,0,.09,0,.05-.11.09-.13a.07.07,0,0,1,.11,0,.23.23,0,0,1,0,.18c0,.07-.07.12-.09.19a.53.53,0,0,0,0,.18,2.77,2.77,0,0,0,0,.64.13.13,0,0,1-.06.14.65.65,0,0,1-.27.05s0,0,0,0v0l0,.05c0-.06.06-.06.08-.1a.36.36,0,0,0,0-.1.61.61,0,0,0-.05-.38.09.09,0,0,0,.11-.08c.05-.14.06-.32-.07-.4a1.29,1.29,0,0,0-.21-.05c-.05,0,0-.07,0-.08m.36,1.87a.17.17,0,0,1-.14,0c-.14-.08,0-.19,0-.29a.41.41,0,0,1,0-.16s0,0,0-.05a.07.07,0,0,1,.08,0,.37.37,0,0,1,0,.48m-.24,1.07c0,.07-.11.16-.17.09s-.12-.05-.14-.09.07-.05.08-.11.1,0,.16,0,.09,0,.07.07m1.56-3.38a.81.81,0,0,0-.57.05.32.32,0,0,0-.09.46c.12.13.05.44.08.57a.76.76,0,0,1,0,.3c-.05.06,0,.29,0,.33a.27.27,0,0,0,0,.23s0,.06,0,.15,0,.25,0,.25a1.09,1.09,0,0,1,0,.29,4.44,4.44,0,0,1-.14.43c0,.1,0,.15-.1.32,0,0-.05.21-.08.31a2,2,0,0,0-.26.3s-.15.2-.22.32a1.68,1.68,0,0,0-.16.25s-.34.13-.39.27-.32.15-.52.33l-.39.15s-.26,0-.33.1-.37.07-.44.1L16,22c0-.13,0-.29,0-.29s0-.07,0-.14h0a2.45,2.45,0,0,0,.5-.16,1,1,0,0,0,.57-.23c.2,0,.21-.12.21-.12a1.35,1.35,0,0,0,.28-.1c.12,0,.23-.25.23-.25a2.09,2.09,0,0,0,.15-.15c.16-.07.3-.36.34-.41a2.61,2.61,0,0,0,.16-.29,3.22,3.22,0,0,0,.22-.64,2.2,2.2,0,0,0,.11-.44c.05-.32.07-.73.07-.73a2.22,2.22,0,0,1,0-.33,1.27,1.27,0,0,1,0-.27,1.4,1.4,0,0,1,.15-.64c.13-.19-.08-.4-.31-.42a.84.84,0,0,0-.5.16c-.12.06-.27.34-.15.46a1,1,0,0,1,.14.51,2.09,2.09,0,0,1,0,.33.51.51,0,0,0,0,.24.82.82,0,0,1,0,.18.62.62,0,0,0,0,.22c0,.11,0,.23,0,.23s-.06.35-.06.35a2.23,2.23,0,0,0-.23.44,1.86,1.86,0,0,1-.19.37.42.42,0,0,0-.13.07.83.83,0,0,0-.36.35.94.94,0,0,0-.32.22.79.79,0,0,0-.33.13l-.45.22-.07,0a4.41,4.41,0,0,0,0-.52,2,2,0,0,0,1-.39c.12-.12.05-.15.15-.18s.19-.3.29-.4a1.57,1.57,0,0,0,.19-.44,1.55,1.55,0,0,0,.14-.59c.12-.16,0-.4,0-.4s0-.28,0-.4a4.46,4.46,0,0,1,.06-.66c.05-.21.06-.33-.15-.41a1.14,1.14,0,0,0-.66,0c-.12.06-.39.35-.27.47a1.55,1.55,0,0,1,.3.52c0,.12.06.47.06.47s0,.09,0,.16v.1s-.05.4-.13.46-.07.21-.07.21-.18.32-.18.32a1.91,1.91,0,0,1-.28.26.7.7,0,0,1-.42.14l-.12,0c0-.13,0-.23,0-.23a1.72,1.72,0,0,0,0-.25c0-.12-.06-.13-.06-.13l.06-.14a.11.11,0,0,0,.06-.09.17.17,0,0,0-.06-.11,1.6,1.6,0,0,0,0-.38,1.06,1.06,0,0,0,0-.21,1.2,1.2,0,0,0,0-.43.56.56,0,0,1,0-.34,3.78,3.78,0,0,1,.28-.46c.05-.09.12-.27-.34-.42a.84.84,0,0,0-.83.12c-.15.07-.09.3-.09.39s.29.31.29.4,0,.17,0,.26,0,.17,0,.22-.11.06-.11.1.06.09.09.16,0,.06,0,.06-.08.1-.07.16,0,.17.09.19-.05.07,0,.13a.27.27,0,0,0-.06.16.38.38,0,0,0,.11.2s-.1,0-.08.09a.5.5,0,0,0,0,.18c0,.06,0,.2,0,.38h0a.76.76,0,0,1-.55-.26.43.43,0,0,0-.2-.18s-.06-.29-.18-.32,0-.15-.06-.21-.15-.39-.15-.39a.25.25,0,0,0,0-.12.19.19,0,0,0,0-.14,3.94,3.94,0,0,1,0-.53,1.74,1.74,0,0,1,.3-.52.25.25,0,0,0,0-.4,2,2,0,0,0-.89-.06c-.22.08-.37.23-.25.41a1.45,1.45,0,0,1,.2.6c0,.12,0,.4,0,.4a.39.39,0,0,0,0,.36,2.33,2.33,0,0,0,.17.69c.09.2.07.38.15.46s.2.32.29.35,0,.06.15.18a1.48,1.48,0,0,0,.93.43v.09a.35.35,0,0,1,.06.16s0,.11-.06.22l-.16-.06-.4-.19a.77.77,0,0,0-.33-.11.77.77,0,0,0-.29-.2,1.44,1.44,0,0,0-.19-.22l-.21-.22a2.16,2.16,0,0,1-.26-.39,2,2,0,0,0-.23-.36s0-.38-.1-.41a.44.44,0,0,1,0-.2.74.74,0,0,0,0-.22.82.82,0,0,1,0-.18c0-.06,0-.08,0-.14a4,4,0,0,1,0-.43c0-.13-.06-.47,0-.6a.29.29,0,0,0,0-.43.94.94,0,0,0-.61-.05c-.22.08-.37.23-.25.41a1.45,1.45,0,0,1,.2.6c0,.12,0,.33,0,.33a1.72,1.72,0,0,1,0,.33s0,.35.09.67a2.46,2.46,0,0,0,.1.44,2,2,0,0,0,.23.49,2.86,2.86,0,0,0,.16.28c0,.06.19.44.35.51l.18.13s.13.23.24.25a.88.88,0,0,0,.27.15.43.43,0,0,0,.29.17.53.53,0,0,0,.4.17,1.89,1.89,0,0,0,.44.14l.18,0a.17.17,0,0,0,0,.09s0,.24,0,.38A2.16,2.16,0,0,1,14.7,22a4.11,4.11,0,0,0-.43-.1.75.75,0,0,0-.27-.13,1.63,1.63,0,0,1-.35-.17c-.2-.18-.51-.3-.53-.36s-.3-.2-.3-.2a1.48,1.48,0,0,0-.31-.35,1.65,1.65,0,0,0-.19-.23,3.41,3.41,0,0,1-.2-.33,2.6,2.6,0,0,1-.07-.31.73.73,0,0,1-.13-.31l-.18-.42a1.51,1.51,0,0,1,0-.31.78.78,0,0,1-.09-.2.93.93,0,0,1,0-.21.15.15,0,0,0,0-.17s0-.12-.06-.18a1.67,1.67,0,0,1,0-.45c0-.13-.07-.47.05-.6a.3.3,0,0,0-.06-.43.79.79,0,0,0-.57,0,.28.28,0,0,0-.15.45.8.8,0,0,1,.06.51c0,.12,0,.28,0,.28s0,.23,0,.45c0,0,0,.25.07.57a2.16,2.16,0,0,0,.06.36c0,.13,0,.45.1.54a1.11,1.11,0,0,0,.16.28c0,.05.1.41.27.54a1.13,1.13,0,0,0,.28.48s.14.23.2.22.14.26.22.27.07.26.28.29a.59.59,0,0,0,.33.26.65.65,0,0,0,.4.25s-.07.17.32.17l0,0a.47.47,0,0,0,.23.09,2,2,0,0,0,.46.14l.37,0v.42s.19,0,.19.15,0,.15.08.17.06,0,0,.15a.25.25,0,0,0-.05.15.28.28,0,0,0-.16.28h-.1v.32h.2a.24.24,0,0,1,0,.07c0,.05,0,.23,0,.28l-.13.15a1.14,1.14,0,0,0-.44.89c0,.17-.23.21-.42.27H17c-.23-.06-.32-.1-.34-.27a1.08,1.08,0,0,0-.44-.89l-.12-.15c0-.05,0-.23,0-.28a.14.14,0,0,1,0-.07h.2v-.32h-.11a.28.28,0,0,0-.15-.28.29.29,0,0,0,0-.15c-.05-.11,0-.15,0-.15s.07-.07.07-.17.21-.15.21-.15v-.43l.44-.11a2.49,2.49,0,0,0,.32-.08c.1,0,.09-.09.2-.09.38,0,.39-.13.39-.13a.39.39,0,0,0,.32-.24.93.93,0,0,0,.46-.29c.17,0,.25-.28.25-.28s.27-.27.27-.27.15-.22.15-.22a1.12,1.12,0,0,0,.29-.57c.17-.14.16-.32.2-.37a1.3,1.3,0,0,0,.14-.39,2.33,2.33,0,0,0,.14-.55,2.39,2.39,0,0,0,.06-.37L20,18.2a3.79,3.79,0,0,0-.05-.43s0-.16,0-.28A.8.8,0,0,1,20,17a.32.32,0,0,0-.14-.5"/>
      <path class="cls-4" d="M18.08,28.28a.2.2,0,0,0,.11,0,.18.18,0,0,1,.16,0,.16.16,0,0,1,.07.15.69.69,0,0,1-.05.13h0a.25.25,0,0,0,.13-.05h0l0,0,.06-.05h0l-.06.07h0l0,0a.34.34,0,0,1-.14.05h-.07l0,0,0,0a.59.59,0,0,0,.06-.14.12.12,0,0,0-.06-.12h0s-.08,0-.13,0a.24.24,0,0,1-.12,0Zm-.44.16s0,0,0,.06a0,0,0,0,0,0,0h0l0,0a.18.18,0,0,1,.06.09h0a.15.15,0,0,1,0,.13.18.18,0,0,1-.11.07h-.22a.76.76,0,0,1-.2-.06l-.07,0h.1l.18.05a.61.61,0,0,0,.19,0h0a.17.17,0,0,0,.1-.06.14.14,0,0,0,0-.11h0l-.05-.07,0,0h0a.06.06,0,0,1,0-.07l0-.07Zm-.67.1H17a.54.54,0,0,0,.25,0h.05a.15.15,0,0,0,.08-.08h0a.43.43,0,0,0,0-.05.19.19,0,0,1,.09-.16c.06,0,.1,0,.15,0a.21.21,0,0,0,.13.05v0a.27.27,0,0,1-.15,0s-.07-.06-.12,0-.06.08-.07.13a.13.13,0,0,1,0,.06.16.16,0,0,1-.1.11h0a.63.63,0,0,1-.27,0h0Zm1.12-.11h0s0,0,0,0h0a.5.5,0,0,1,0,.12c0,.08,0,.16,0,.21h0a.21.21,0,0,0,.16,0h.05a.35.35,0,0,0,.14,0h0a.37.37,0,0,0,.12-.13h0a.35.35,0,0,1-.13.14l0,0a.4.4,0,0,1-.15,0h-.05a.36.36,0,0,1-.18,0c-.1-.06-.07-.15-.05-.25a.36.36,0,0,0,0-.11h0Z"/>
      <path class="cls-4" d="M17.48,26.92a.09.09,0,0,1,0,0,.13.13,0,0,1,0,.06h0a.08.08,0,0,0,0,0s0,0,0,0Zm.19.34h0l-.05,0a.35.35,0,0,1-.25-.14h0a.33.33,0,0,1,0-.17v0h-.07c-.06,0-.13-.08-.13-.15l-.05,0c-.06,0-.13.06-.15.12h0a.26.26,0,0,1,.17-.14l.06,0h0v0c0,.07.06.12.13.15h.06a.15.15,0,0,1,.06-.09h.07a.13.13,0,0,1,.13,0h0l0,0,0,0a.25.25,0,0,1,0,.25l0,0a.18.18,0,0,0,0-.21.08.08,0,0,0,0,0l0,0h0a.11.11,0,0,0-.11,0H17.4a.16.16,0,0,0-.06.13.26.26,0,0,0,0,.15v0h0a.33.33,0,0,0,.23.12l.05,0h0Zm-.7-.19h0a.13.13,0,0,0,.07-.05h0a0,0,0,0,0,0,0l0,0,0,0A.11.11,0,0,0,17,27v0a.13.13,0,0,1,.09,0l.05,0a.05.05,0,0,1,0,0,.09.09,0,0,1,0,.05h0a.11.11,0,0,1-.09.07H17Zm.41.09a.74.74,0,0,0-.21,0,.7.7,0,0,0-.19.06l0,0a.83.83,0,0,1,.21-.06.74.74,0,0,1,.21,0Z"/>
      <path class="cls-4" d="M16.08,28.55l-.08,0a.14.14,0,0,0-.09,0h0a.11.11,0,0,0-.06.11.32.32,0,0,1,0,.09h0s-.05,0-.09,0h-.05v0h0l0,.06a.25.25,0,0,0,.26.05l.05,0,0,0h0s.09,0,.1-.09a.21.21,0,0,0,0-.08.18.18,0,0,0-.05-.07"/>
      <path class="cls-4" d="M14.93,28.47h0v0l0,0s0,0,0,0h0a.19.19,0,0,1,.09,0h0l0,0,.06,0a.37.37,0,0,0-.18-.08h-.05"/>
      <path class="cls-4" d="M19.14,29.34H16.46V27.81h2.68Zm-2.82-3.13h1.8v1.33h-1.8Zm-.16,2.5h0c0,.06-.07.08-.11.11h0l0,0-.05,0a.31.31,0,0,1-.29-.05.34.34,0,0,1-.14.09.8.8,0,0,1-.26,0v0a.74.74,0,0,0,.25-.05.27.27,0,0,0,.17-.16s0,0,0-.06a.11.11,0,0,0,0-.07h0l0,0,0,0h0a.16.16,0,0,0-.15,0h0l0,0a.07.07,0,0,0,0,.06h0l0,0a.29.29,0,0,0-.1,0h-.09a.1.1,0,0,0,0,0v0h0l0,0-.07,0s0,0,0,0h0a0,0,0,0,0,0,0l0,0s0,0,0,0h0l-.05,0-.13,0a.15.15,0,0,0-.11,0,.18.18,0,0,0,0,.17.65.65,0,0,0,0,.2h0a.65.65,0,0,1-.05-.21.2.2,0,0,1,.06-.19.17.17,0,0,1,.13,0,.35.35,0,0,1,.14,0h0l.05,0h0a.06.06,0,0,1,.06,0H15a.3.3,0,0,1,.21.1h0a.29.29,0,0,1,.1,0v0s0-.05,0-.06a.2.2,0,0,1,.18,0h0l0,0h0s0,0,.05,0v0h0a.13.13,0,0,1,0,.08h.11a.64.64,0,0,0,0-.07c0-.06,0-.11.08-.13a.14.14,0,0,1,.11,0l.09.05a.22.22,0,0,1,0,.08.16.16,0,0,1,0,.1m-1.24.06a.15.15,0,0,0-.1-.09l-.1-.07h0l0,0h0v0a.14.14,0,0,1,0,.09h0a.11.11,0,0,0,0-.08s0,0,0-.06h.07a.05.05,0,0,1,0,0h0a.47.47,0,0,0,.09.06c.06,0,.11.06.12.11Zm-.05.21,0,0-.07,0s0,0-.05,0h0l0,0a.45.45,0,0,1-.14.1v0a.38.38,0,0,0,.13-.09l.05,0h0s.07,0,.08,0l.06,0,.06,0Zm-.65.24h-.08V27.94h1.72V28H14.22Zm-.18.12H14v-1.6H16v.08H14Zm-.69-2.22a.13.13,0,0,1,0-.06l0,0,0,0,0,0v.05Zm.44-.3h0a.21.21,0,0,1-.14.15h-.06v0a.47.47,0,0,1,0,.17v0h0s0,0,0,0a.5.5,0,0,1,.21,0,.66.66,0,0,1,.2.06v0a.66.66,0,0,0-.2-.06.45.45,0,0,0-.2,0v0a.41.41,0,0,1-.22.1l-.06,0h0v0h0l.06,0a.33.33,0,0,0,.23-.12h0a.32.32,0,0,0,0-.16.12.12,0,0,0-.07-.12h0a.13.13,0,0,0-.12,0h0l0,0,0,0a.22.22,0,0,0,0,.21l0,0a.23.23,0,0,1,0-.24.05.05,0,0,1,0,0l0,0h0a.17.17,0,0,1,.14,0h.06a.16.16,0,0,1,.07.09h.06c.06,0,.12-.07.12-.15v0h0l.05,0A.28.28,0,0,1,14,27h0c0-.08-.1-.11-.17-.14m.12.24a.12.12,0,0,0-.08,0h0v0s0,0,0,0a.12.12,0,0,0,.12.05v0a.18.18,0,0,1-.15-.08s0,0,0-.05,0,0,0,0l.05,0a.12.12,0,0,1,.1,0Zm-.33,2,0,0a.4.4,0,0,1-.15,0h-.05a.28.28,0,0,1-.18,0c-.09-.06-.07-.15-.05-.25a.43.43,0,0,0,0-.11h0v0h0s0,0,0,0h0a.5.5,0,0,1,0,.12c0,.08,0,.16,0,.21h0a.21.21,0,0,0,.16,0h.05a.35.35,0,0,0,.14,0h0a.35.35,0,0,0,.13-.14l0,0a.38.38,0,0,1-.14.14m-.76-.57s-.08,0-.12,0-.06.08-.07.14a.09.09,0,0,1,0,.05h0a.16.16,0,0,1-.1.11h-.09a.12.12,0,0,1-.1,0,.13.13,0,0,1-.05-.09.15.15,0,0,1,0-.07h0a.13.13,0,0,0,0,.06.12.12,0,0,0,0,.08.09.09,0,0,0,.07,0h.09a.14.14,0,0,0,.08-.09h0a.07.07,0,0,0,0-.05c0-.06,0-.13.09-.16h0c.06,0,.1,0,.15,0a.2.2,0,0,0,.13,0v0a.2.2,0,0,1-.15-.05m0,.52a.2.2,0,0,1-.1.08h-.23a.7.7,0,0,1-.19-.06l-.08,0h.1l.18.05a.67.67,0,0,0,.2,0h0a.2.2,0,0,0,.09-.06.12.12,0,0,0,0-.1v0h0l0-.07,0,0a.07.07,0,0,1,0-.09v0h0v0h0a.06.06,0,0,0,0,.07h0l0,0a.18.18,0,0,1,.06.09h0a.12.12,0,0,1,0,.12m-.82.26H12V28.1h1.47v.07H12Zm1.56-.59.06-.05h0l-.06.07,0,0a.25.25,0,0,1-.14.06h-.11l0,0a.42.42,0,0,0,.06-.14.12.12,0,0,0-.06-.12.15.15,0,0,0-.13,0,.17.17,0,0,1-.12,0v0l.1,0a.15.15,0,0,1,.16,0,.16.16,0,0,1,.07.15.26.26,0,0,1,0,.12h0a.25.25,0,0,0,.13,0h0l0,0m-1.75.71h-.07V27.9h1.75V28H11.85Zm1.94-3v.08h-.73v.95H13v-1h.81Zm-1-.16v0h1.13v.08h-1v1.27H12.8Zm1.3,0v0h2v.08h-2v1.27H14.1Zm.26.24v.95h-.08v-1H16v.08Zm.37.69a.14.14,0,0,1-.08.07v0s0,0,.06-.05a.14.14,0,0,1,.08-.07h.07a.15.15,0,0,1,.13.1h0c0-.05-.06-.07-.1-.08h-.06a.1.1,0,0,0-.06.05m.94,0h0a.11.11,0,0,1,0-.11h0a.55.55,0,0,1-.4,0l-.1,0a.3.3,0,0,1-.08-.08h0l-.05,0h0a0,0,0,0,0,0,0,.18.18,0,0,0,.1.16l0,0h0v0h0l0,0a.21.21,0,0,1-.12-.19h0l0,0H15l.07,0h0a.27.27,0,0,0,.08.07l.09.05a.53.53,0,0,0,.47-.07l0,0h0a.27.27,0,0,0-.08.07.12.12,0,0,0,0,.1m.39-.24a.09.09,0,0,1-.07-.06h0c0-.06,0-.11-.07-.13h-.13l-.1.06a.18.18,0,0,1-.07.05h0a.37.37,0,0,1-.27,0,.88.88,0,0,1-.26-.12l-.1,0h0a.13.13,0,0,0-.07.06s0,.05-.07.06h-.07a.1.1,0,0,0-.07,0h0a.08.08,0,0,0,0,.07.08.08,0,0,1,0,.08h0l0,0,0,0h0s0,0,0,0,0,0,0,.06h0s0-.05,0-.07a.06.06,0,0,1,0-.06l0,0,0,0s0,0,0-.06a.12.12,0,0,1,0-.1.15.15,0,0,1,.09,0h.06a.12.12,0,0,0,.05-.05s.05-.06.09-.07H15l.11,0h0a.72.72,0,0,0,.25.12.32.32,0,0,0,.25,0l.06,0,.11-.07h.15a.19.19,0,0,1,.09.15h0s0,0,.05,0h.09v0h-.1m-.21.22h0v0l0,0s0,0,0,0S15.88,27,16,27l.09,0s0,0,.06,0v0l-.08,0-.07,0s-.07.05-.1.1m2.41.52V26H12.61v1.64h-1v1.81h7.68V27.68Z"/>
    </g>
    <path class="cls-4" d="M16.54,27.38h1.33v-.95H16.54Zm-.05,0v-1h1.43v1H16.49Z"/>
    <path class="cls-4" d="M16.75,29.1h2.14V28H16.75Zm-.05,0V28h2.23v1.15H16.7Z"/>
    <g class="cls-2">
      <path class="cls-4" d="M12.39,32.11c0,.27,0,.34-.08.4a3.81,3.81,0,0,1-.6.29l0-.17a3.42,3.42,0,0,0,.38-.15c.18-.07.11-.6.11-.69s0-.11-.06-.13H11a5.12,5.12,0,0,0,0-.85c0-.23,0-.5,0-.5.22-.18-.12-.14-.12-.14l0-.32s.27,0,.32,0,.09.06.05.09-.05.12-.08.28,0,1.18,0,1.18v.07h1.22c-.07.09,0,.33,0,.6m-1.06-.87v-.92c0-.2.06-.39.16-.46s.06-.12-.06-.11a1.52,1.52,0,0,1-.63,0l-.1.53s.32,0,.06.19a1.65,1.65,0,0,1,0,.35,5.28,5.28,0,0,1-.06,1H12c.06,0,.08,0,.08.15s.08.37-.14.44a1.11,1.11,0,0,1-.43.09l-.09.52a4.64,4.64,0,0,0,.74-.29c.15-.1.36-.18.36-.5a3.31,3.31,0,0,1,.08-1Z"/>
    </g>
    <rect class="cls-3" x="28.94" y="14.3" width="0.24" height="20.69"/>
    <g class="cls-2">
      <path class="cls-3" d="M140,21.47c0-.15,0-.31,0-.48s0-.31,0-.43a2.09,2.09,0,0,0-.09-.53,1.08,1.08,0,0,0-.22-.41.86.86,0,0,0-.36-.25,1.45,1.45,0,0,0-.54-.09l-1.23,0,0,2.74a1.92,1.92,0,0,0,.12.64,1.17,1.17,0,0,0,.29.42,1.14,1.14,0,0,0,.41.24,1.61,1.61,0,0,0,.49.07l.22,0a1.53,1.53,0,0,0,.27-.11,1.51,1.51,0,0,0,.26-.18,1.05,1.05,0,0,0,.2-.27,1.66,1.66,0,0,0,.1-.29,2.87,2.87,0,0,0,.05-.31c0-.11,0-.23,0-.35Zm2.9-.28a8.77,8.77,0,0,1,0,.9,5.3,5.3,0,0,1-.17.83,4.36,4.36,0,0,1-.33.77,4.16,4.16,0,0,1-.53.7,2.58,2.58,0,0,1-.57.45,4.09,4.09,0,0,1-.7.33,4.94,4.94,0,0,1-.78.19,4.29,4.29,0,0,1-.79.07,7.21,7.21,0,0,1-1.73-.2,3.57,3.57,0,0,1-1.36-.64,3,3,0,0,1-.91-1.18,4.29,4.29,0,0,1-.33-1.78l0-4.35h5.23a3.2,3.2,0,0,1,.49.07,5.08,5.08,0,0,1,.56.14,3.2,3.2,0,0,1,.56.27,2.46,2.46,0,0,1,.66.58,3,3,0,0,1,.44.78,3.89,3.89,0,0,1,.25.95,6.63,6.63,0,0,1,.08,1.12m-9.72.71h-2.84V19.29h-1v-2h3.83Zm-5.07,0h-2.84V19.29h-1v-2h3.83Zm-4.26,3.3h-7.71v-2h4l-.06-3.88h-3.89v-2H123l-.08,5.89h.91Zm-9,0H112V20.55a1.8,1.8,0,0,0-.09-.6,1,1,0,0,0-.64-.6,1.63,1.63,0,0,0-.45-.06H108v-2H112a4.53,4.53,0,0,1,1.24.15,2,2,0,0,1,.89.49,2.21,2.21,0,0,1,.52.9,4.72,4.72,0,0,1,.17,1.35Zm-10.71-3.3h-2.84V19.29h-1v-2h3.83Zm-9.26,1.31a1.73,1.73,0,0,0,.47-.07,1.38,1.38,0,0,0,.48-.25,1.3,1.3,0,0,0,.38-.5,1.65,1.65,0,0,0,.15-.82l-.06-4.3h2.77v4a5.32,5.32,0,0,1-.15,1.32,3.69,3.69,0,0,1-.42,1,2.86,2.86,0,0,1-.65.73,3.24,3.24,0,0,1-.82.49,3.64,3.64,0,0,1-.94.27,5.89,5.89,0,0,1-1,.09H88.27L88,17.27h2.79L91,23.19H92.3l-.14-5.91H94.9Zm-8.34,2H83.68V20.55a1.8,1.8,0,0,0-.09-.6,1,1,0,0,0-.26-.38,1.11,1.11,0,0,0-.38-.22,1.61,1.61,0,0,0-.44-.06H79.64v-2h4.08a4.63,4.63,0,0,1,1.24.15,2.05,2.05,0,0,1,.88.49,2.1,2.1,0,0,1,.52.9,4.39,4.39,0,0,1,.17,1.35Zm-7.76,0H75.44l-1.67-2.94-.31-.71-.72,3.65H70l1.45-5.39-1.54-2.53h3.37l1.78,3.09,1-3.09h2.72l-1.9,4.82Zm-9.59-7.92v.09L66.4,25.2h-3l2.19-5.91h-4l-.09-4.42h2.85l0,2.41Z"/>
      <path class="cls-3" d="M127,34.37h-2.15v-.65h1.49l-.07-1.54a3.2,3.2,0,0,0-.09-.68,1.05,1.05,0,0,0-.22-.45.48.48,0,0,0-.16-.13l-.16-.07-.15,0h-.12a.68.68,0,0,0-.32.09,1.13,1.13,0,0,0-.3.28,2,2,0,0,0-.11.21c0,.07-.07.15-.11.24l-.09.26c0,.09-.06.17-.08.24l-.65,2.23H123l.88-2.77-1-.8.29-.73h0l1,.87a2.33,2.33,0,0,1,.27-.35,1.41,1.41,0,0,1,.32-.24,1.66,1.66,0,0,1,.32-.13,1.15,1.15,0,0,1,.31,0h.15l.2,0a1.2,1.2,0,0,1,.24.06,1.34,1.34,0,0,1,.24.12,1.26,1.26,0,0,1,.33.32,1.44,1.44,0,0,1,.21.41,2.11,2.11,0,0,1,.12.51,3.43,3.43,0,0,1,0,.56Zm-4.93-2.21a2.47,2.47,0,0,1-.08.63,2.38,2.38,0,0,1-.22.51,1.94,1.94,0,0,1-.32.37,1.47,1.47,0,0,1-.38.25.75.75,0,0,1-.18.08l-.18.08-.16.07-.12,0-1.76.63v-.68l1-.35-.86-3.57h.77l.71,3.39.21-.1.17-.08.13-.07a.87.87,0,0,0,.22-.17,1,1,0,0,0,.19-.25,1.34,1.34,0,0,0,.14-.32,1.68,1.68,0,0,0,.05-.4v-2h.7Zm-4.31-.45v2.66h-.66V31.75a1.17,1.17,0,0,0-.08-.45.91.91,0,0,0-.18-.27.47.47,0,0,0-.24-.13.75.75,0,0,0-.24,0H114.7v-.64h1.7a2.29,2.29,0,0,1,.55.07,1,1,0,0,1,.42.24,1.1,1.1,0,0,1,.27.46,2.12,2.12,0,0,1,.1.72m-3.95,0v4h-.66v-4a1.18,1.18,0,0,0-.07-.45.91.91,0,0,0-.18-.27.46.46,0,0,0-.22-.13.7.7,0,0,0-.23,0h-1.68v-.64h1.72a2.21,2.21,0,0,1,.54.07,1.1,1.1,0,0,1,.42.24,1.36,1.36,0,0,1,.27.46,2.43,2.43,0,0,1,.09.72m-8.87,2.66h-.69V31.91h.69Zm2.54-4.15v4.15h-.66V30.86h-2.57v-.64Zm-4.86,2.21c0-.15,0-.3,0-.43a2,2,0,0,0-.06-.37,1.73,1.73,0,0,0-.14-.31.83.83,0,0,0-.22-.24.87.87,0,0,0-.36-.18,2.07,2.07,0,0,0-.46,0h-1l0,1.71a1.79,1.79,0,0,0,.1.62,1,1,0,0,0,.25.4,1,1,0,0,0,.36.22,1.61,1.61,0,0,0,.44.06h.21a.9.9,0,0,0,.22-.06l.22-.11a1.07,1.07,0,0,0,.19-.18,1.21,1.21,0,0,0,.23-.5,2.88,2.88,0,0,0,.06-.59m.68-.07c0,.14,0,.28,0,.42s-.05.28-.08.42a2.5,2.5,0,0,1-.15.38,2,2,0,0,1-.21.35,1.46,1.46,0,0,1-.59.44,2,2,0,0,1-.35.11,2.19,2.19,0,0,1-.36,0,2.07,2.07,0,0,1-.82-.14,1.49,1.49,0,0,1-.58-.39,1.56,1.56,0,0,1-.35-.6,2.78,2.78,0,0,1-.13-.79l0-2.37h1.8a2.49,2.49,0,0,1,.4,0,1.61,1.61,0,0,1,.33.06,1.36,1.36,0,0,1,.28.11l.24.14a1.43,1.43,0,0,1,.31.34,1.93,1.93,0,0,1,.2.44,2.77,2.77,0,0,1,.1.5,4.71,4.71,0,0,1,0,.53m-4.82,0H97.8V30.85H97v-.64h1.46Zm-2.33,0h-.66V30.85h-.8v-.64h1.46Zm-2.08,2h-3.6v-.64h2.39l0-2.87H90.48v-.64h3l0,3.25v.13a.56.56,0,0,0,0,.07s0,0,0,0l0,0h.52Zm-4.66-2.66v2.66h-.66V31.75a1.18,1.18,0,0,0-.07-.45.91.91,0,0,0-.18-.27.57.57,0,0,0-.24-.13.77.77,0,0,0-.25,0H86.35v-.64h1.71a2.36,2.36,0,0,1,.55.07,1.1,1.1,0,0,1,.42.24,1.36,1.36,0,0,1,.27.46,2.43,2.43,0,0,1,.09.72m-8.87,2.66h-.69V31.91h.69Zm2.54-4.15v4.15H82.4V30.86H79.83v-.64Zm-4.14,0v.05l0,.07,0,.15-.06.17c0,.07,0,.13-.07.19l-1.43,3.51h-.69a.27.27,0,0,1,0-.08.78.78,0,0,1,0-.14,1.22,1.22,0,0,1,.07-.17l.06-.16,1.19-3H75.47l0-1.95h.67v1.32Zm-4.13,4.14H74L72.24,32l-.62,2.38h-.69l.84-2.92-.91-1.23h.86l1.54,2,.78-2h.7l-1.06,2.55Zm-4.78,0h-.67V30.85h-.82v-.64H70Zm-2.34,0H65.52v-.65H67l-.08-1.54a3.2,3.2,0,0,0-.09-.68,1,1,0,0,0-.22-.45.58.58,0,0,0-.15-.13l-.16-.07-.15,0h-.12a.68.68,0,0,0-.33.09,1,1,0,0,0-.29.28,2,2,0,0,0-.12.21c0,.07-.07.15-.1.24a2.77,2.77,0,0,0-.1.26c0,.09,0,.17-.07.24l-.66,2.23h-.7l.88-2.77-1-.8.29-.73h0l1,.87a3.3,3.3,0,0,1,.28-.35,1.18,1.18,0,0,1,.31-.24,1.51,1.51,0,0,1,.33-.13,1.1,1.1,0,0,1,.31,0h.14l.21,0,.23.06a1.34,1.34,0,0,1,.24.12,1.26,1.26,0,0,1,.33.32,1.78,1.78,0,0,1,.22.41,3.81,3.81,0,0,1,.12.51c0,.18,0,.37,0,.56Zm-4.88-2h-.66V30.85h-.8v-.64h1.46Z"/>
    </g>
    <rect class="cls-4" x="34.21" y="22.06" width="2.58" height="5.16"/>
    <rect class="cls-4" x="39.37" y="27.22" width="12.9" height="7.75"/>
    <rect class="cls-3" x="39.37" y="27.22" width="10.32" height="5.16"/>
    <rect class="cls-3" x="36.79" y="22.06" width="2.58" height="5.16"/>
    <rect class="cls-4" x="36.79" y="27.22" width="2.58" height="5.16"/>
    <rect class="cls-4" x="36.79" y="14.31" width="12.9" height="7.75"/>
    <rect class="cls-3" x="39.37" y="16.9" width="10.32" height="5.16"/>
    <rect class="cls-4" x="49.69" y="16.9" width="2.58" height="5.16"/>
  </g>
</svg>
