<svg id="Layer_1" data-name="Layer 1" xmlns="http://www.w3.org/2000/svg" viewBox="0 0 150 150">
  <defs>
    <style>
      .cls-1, .cls-3 {
        fill: #d7dde4;
      }

      .cls-1, .cls-2 {
        fill-rule: evenodd;
      }

      .cls-2, .cls-4 {
        fill: #b5c0cc;
      }
    </style>
  </defs>
  <g id="Group_322" data-name="Group 322">
    <g id="Group_300" data-name="Group 300">
      <path id="Path_22" data-name="Path 22" class="cls-1" d="M58.87,66a.86.86,0,0,1-.86.86H54.28a.86.86,0,0,1-.86-.86V58.08h-8a.86.86,0,0,1-.85-.86V53.48a.86.86,0,0,1,.85-.86h8V44.68a.85.85,0,0,1,.86-.86H58a.85.85,0,0,1,.86.86v7.94h7.95a.87.87,0,0,1,.86.86v3.74a.88.88,0,0,1-.86.86H58.87ZM39.25,38.44l-1.36,3.27v31.9H74.41V37.09H42.51a4.62,4.62,0,0,0-4.62,4.62Z"/>
      <path id="Path_23" data-name="Path 23" class="cls-1" d="M77.2,37.09V73.6h36.51V41.7a4.61,4.61,0,0,0-4.62-4.61Zm28.92,21H84.78a.86.86,0,0,1-.86-.86V53.48a.87.87,0,0,1,.86-.86h21.34a.86.86,0,0,1,.86.86v3.73A.85.85,0,0,1,106.12,58.07Z"/>
      <path id="Path_24" data-name="Path 24" class="cls-2" d="M113.71,76.4H77.2v36.51h31.9a4.64,4.64,0,0,0,4.62-4.62ZM84.78,87h21.34a.85.85,0,0,1,.86.86v3.74a.87.87,0,0,1-.86.86H84.78a.88.88,0,0,1-.86-.86V87.87a.87.87,0,0,1,.86-.86Zm0,9.83h21.34a.85.85,0,0,1,.86.86v3.73a.85.85,0,0,1-.86.86H84.78a.87.87,0,0,1-.86-.86V97.7a.87.87,0,0,1,.86-.86Z"/>
      <path id="Path_25" data-name="Path 25" class="cls-1" d="M74.41,112.91V76.4H37.89v31.9a4.63,4.63,0,0,0,4.62,4.61ZM63,85.18l2.64,2.64a.85.85,0,0,1,0,1.21L60,94.65l5.62,5.62a.85.85,0,0,1,0,1.21L63,104.13a.86.86,0,0,1-1.21,0l-5.62-5.62-5.62,5.62a.86.86,0,0,1-1.21,0l-2.65-2.65a.86.86,0,0,1,0-1.21l5.62-5.62L46.67,89a.86.86,0,0,1,0-1.21l2.65-2.64a.85.85,0,0,1,1.21,0l5.62,5.62,5.62-5.62A.85.85,0,0,1,63,85.18Z"/>
    </g>
    <g id="Group_307" data-name="Group 307">
      <g id="Group_306" data-name="Group 306">
        <g id="Group_301" data-name="Group 301">
          <path id="Path_26" data-name="Path 26" class="cls-3" d="M36.93,123.9h-9.5A1.94,1.94,0,0,1,25.49,122h0v-9.83a1.95,1.95,0,1,1,3.89,0h0V120h7.56a1.95,1.95,0,0,1,0,3.89Z"/>
        </g>
        <g id="Group_303" data-name="Group 303">
          <g id="Group_302" data-name="Group 302">
            <path id="Path_27" data-name="Path 27" class="cls-3" d="M27.27,38.89a2,2,0,0,1-1.95-2h0v-9.5a1.94,1.94,0,0,1,1.94-2H37.1a1.95,1.95,0,0,1,0,3.89H29.21v7.56a2,2,0,0,1-1.94,2Z"/>
          </g>
        </g>
        <g id="Group_304" data-name="Group 304">
          <path id="Path_28" data-name="Path 28" class="cls-3" d="M122.65,123.9h-9.51a1.95,1.95,0,0,1-.09-3.89h7.65v-7.89a1.95,1.95,0,1,1,3.89,0h0V122a1.94,1.94,0,0,1-1.94,2Z"/>
        </g>
        <g id="Group_305" data-name="Group 305">
          <path id="Path_29" data-name="Path 29" class="cls-3" d="M122.81,38.89a2,2,0,0,1-2-2h0V29.38H113a1.95,1.95,0,0,1,0-3.89h9.83a1.94,1.94,0,0,1,1.94,1.94h0v9.5a1.94,1.94,0,0,1-1.94,2Z"/>
        </g>
      </g>
    </g>
    <g id="Group_321" data-name="Group 321">
      <g id="Group_310" data-name="Group 310">
        <g id="Group_309" data-name="Group 309">
          <g id="Group_308" data-name="Group 308">
            <path id="Path_30" data-name="Path 30" class="cls-4" d="M122.2,81.63a2.19,2.19,0,1,0,2.19,2.18h0A2.18,2.18,0,0,0,122.2,81.63Z"/>
            <path id="Path_31" data-name="Path 31" class="cls-4" d="M122.2,72.81A2.19,2.19,0,1,0,124.39,75h0A2.19,2.19,0,0,0,122.2,72.81Z"/>
            <path id="Path_32" data-name="Path 32" class="cls-4" d="M122.2,64a2.19,2.19,0,1,0,2.19,2.19h0A2.19,2.19,0,0,0,122.2,64Z"/>
          </g>
        </g>
      </g>
      <g id="Group_313" data-name="Group 313">
        <g id="Group_312" data-name="Group 312">
          <g id="Group_311" data-name="Group 311">
            <path id="Path_33" data-name="Path 33" class="cls-4" d="M27.43,81.63a2.19,2.19,0,1,0,2.19,2.18h0A2.18,2.18,0,0,0,27.43,81.63Z"/>
            <path id="Path_34" data-name="Path 34" class="cls-4" d="M27.43,72.81A2.19,2.19,0,1,0,29.62,75h0A2.19,2.19,0,0,0,27.43,72.81Z"/>
            <path id="Path_35" data-name="Path 35" class="cls-4" d="M27.43,64a2.19,2.19,0,1,0,2.19,2.19h0A2.19,2.19,0,0,0,27.43,64Z"/>
          </g>
        </g>
      </g>
      <g id="Group_320" data-name="Group 320">
        <g id="Group_316" data-name="Group 316">
          <g id="Group_315" data-name="Group 315">
            <g id="Group_314" data-name="Group 314">
              <path id="Path_36" data-name="Path 36" class="cls-4" d="M69.18,122.38A2.19,2.19,0,1,0,67,124.57a2.19,2.19,0,0,0,2.19-2.19Z"/>
              <path id="Path_37" data-name="Path 37" class="cls-4" d="M78,122.38a2.19,2.19,0,1,0-2.19,2.19h0A2.19,2.19,0,0,0,78,122.38Z"/>
              <path id="Path_38" data-name="Path 38" class="cls-4" d="M86.8,122.38a2.19,2.19,0,1,0-2.19,2.19h0A2.19,2.19,0,0,0,86.8,122.38Z"/>
            </g>
          </g>
        </g>
        <g id="Group_319" data-name="Group 319">
          <g id="Group_318" data-name="Group 318">
            <g id="Group_317" data-name="Group 317">
              <path id="Path_39" data-name="Path 39" class="cls-4" d="M69.18,27.62A2.19,2.19,0,1,0,67,29.81a2.19,2.19,0,0,0,2.19-2.19Z"/>
              <path id="Path_40" data-name="Path 40" class="cls-4" d="M78,27.62a2.19,2.19,0,1,0-2.19,2.19h0A2.19,2.19,0,0,0,78,27.62Z"/>
              <path id="Path_41" data-name="Path 41" class="cls-4" d="M86.8,27.62a2.19,2.19,0,1,0-2.19,2.19h0A2.19,2.19,0,0,0,86.8,27.62Z"/>
            </g>
          </g>
        </g>
      </g>
    </g>
  </g>
</svg>
