<svg id="Layer_1" data-name="Layer 1" xmlns="http://www.w3.org/2000/svg" viewBox="0 0 150 150">
  <defs>
    <style>
      .cls-1 {
        fill: #21409a;
      }

      .cls-2 {
        fill: #fff;
      }
    </style>
  </defs>
  <g>
    <g>
      <path class="cls-1" d="M117.34,22.71v78s.44,18.6-22.72,21.16c-1.38.15-15.9-.16-19.62,5.4-3.69-5.56-18.22-5.25-19.62-5.4-23.14-2.56-22.72-21.16-22.72-21.16v-78Z"/>
      <path class="cls-2" d="M48.63,109.9c-.07.46-.16.55-.62.24A6,6,0,0,1,46,108.06a13.83,13.83,0,0,0,2.22,1.4c.46.06.55,0,.46.44m.64-1s-4.09-1-4.43-3.19a5.27,5.27,0,0,1,.58-2.92s1.19-.25,1.31-.71a1.1,1.1,0,0,0-.63-1.35.94.94,0,0,0-1.32.37c-.4.51-.18.87-.18.87s.75,1-.56,1.88a15.24,15.24,0,0,1-.81-3.88,31.62,31.62,0,0,1,2.5-5.54c.6-1,1.91-2.88,1.91-2.88,0,4.23-2.93,8-2.93,8,4.08-2.39,4.39-8,4.39-8.86a24.55,24.55,0,0,0-.49-3.12A57.17,57.17,0,0,0,45,93a27.65,27.65,0,0,0-1.8,4.37s-.11-3.43,0-3.84a12.69,12.69,0,0,1,1.71-2.39,1,1,0,0,0,1-.42c.26-.49.33-1.26-.31-1.51s-1.35.45-1.35.45a1.71,1.71,0,0,0,.06,1.24l-1.06.95,0-3.48a34.34,34.34,0,0,1,2.5-5.23c.6-1,1.91-2.9,1.91-2.9,0,4.23-2.93,8-2.93,8,4.08-2.37,4.17-8.15,4.17-9s-.27-3-.27-3a43.76,43.76,0,0,0-3.79,5.19,27.72,27.72,0,0,0-1.64,4.27s-.11-3.1,0-3.5a12.69,12.69,0,0,1,1.71-2.39,1,1,0,0,0,1-.42c.26-.49.33-1.26-.31-1.5s-1.35.44-1.35.44a1.71,1.71,0,0,0,.06,1.24l-1.06,1,0-3.56a34.22,34.22,0,0,1,2.5-5.24c.6-1,1.91-2.9,1.91-2.9,0,4.24-2.93,8-2.93,8,4.08-2.37,4.39-8,4.39-8.84a24.55,24.55,0,0,0-.49-3.12,42.06,42.06,0,0,0-3.63,5,28.72,28.72,0,0,0-1.8,4.43s-.11-3.1,0-3.5a12.5,12.5,0,0,1,1.71-2.4,1,1,0,0,0,1-.42c.26-.48.33-1.26-.31-1.5s-1.35.44-1.35.44a1.7,1.7,0,0,0,.06,1.24l-1.06.95,0-3a24.27,24.27,0,0,1,2.28-5.3c.59-1,1.44-2.34,1.44-2.34a12.21,12.21,0,0,1-2.4,7.13c4.08-2.37,3.93-6.76,3.93-7.6s-.11-3.68-.11-3.68A31.49,31.49,0,0,0,44.66,59a29.17,29.17,0,0,0-1.48,4.52s-.11-3,0-3.43a15.67,15.67,0,0,1,1.08-2.17s.76.26,1.05-.18.48-1-.25-1.44-1.26.22-1.26.22a1.33,1.33,0,0,0,.05,1.09l-.67.8,0-2.48a17.64,17.64,0,0,1,2-5.32c.59-1,1.75-2.82,1.75-2.82a11.18,11.18,0,0,1-2.24,6.85,11.15,11.15,0,0,0,4.17-7.93c0-.84-.27-3.39-.27-3.39a36.18,36.18,0,0,0-4.1,5.07,13.65,13.65,0,0,0-1.33,4.9s-.11-3.42,0-3.81A13.91,13.91,0,0,1,44,47.58a.73.73,0,0,0,.82-.34A.93.93,0,0,0,44.38,46c-.62-.33-.89.13-.89.13a1.81,1.81,0,0,0,0,1.24l-.51.42,0-2.5a24.56,24.56,0,0,1,2.26-5.14c.6-1,2.13-2.9,2.13-2.9a10.29,10.29,0,0,1-2.31,6.69,7.29,7.29,0,0,0,3.77-7A9.76,9.76,0,0,0,48.57,34s-3.48,3.13-4.32,4.81a34.42,34.42,0,0,0-1.76,5.16q0-7.71,0-15.42c1.62,2.8,1.5,5.48,1.35,8.64a25.89,25.89,0,0,0,1-4.36,7.47,7.47,0,0,0-1.3-4.43,25,25,0,0,1-1.09-2.82,8.64,8.64,0,0,1-1.06,2.88A9.53,9.53,0,0,0,40.15,33c-.07,1.71,1.59,5.79,1.72,6,.18.37.07,5.38.07,5.38a14.12,14.12,0,0,1-3.15-3.12,13.51,13.51,0,0,1-1.39-4.37s1,1.18,1.66,1.8a27.25,27.25,0,0,1,2.1,3.12c.31-3.39-4.91-7.73-4.91-7.73s-.43,5.76,1.39,8.53c1.22,1.88,4.45,3.24,4.45,3.24V48l-.77-.48a1.7,1.7,0,0,0-.07-1.24s-.77-.62-1.39-.31-.44,1.08-.16,1.55,1,.31,1,.31A6.51,6.51,0,0,1,42,49.37c.15.38.06,5.85.06,5.85a12,12,0,0,1-2.92-3.32,16,16,0,0,1-1.62-4.08s1.24,1,1.87,1.62a19.9,19.9,0,0,1,1.74,2.85c.31-3.39-4.91-8.24-4.91-8.24s-.31,5.7,1.39,8.56a10.77,10.77,0,0,0,4.45,3.65v2.1l-1.15-.84a1.85,1.85,0,0,0-.06-1.24s-.78-.59-1.4-.31-.46,1.09-.15,1.55,1,.31,1,.31A13,13,0,0,1,42,60c.15.38.06,5.85.06,5.85a12.17,12.17,0,0,1-2.92-3.3,16.34,16.34,0,0,1-1.62-4.08s1.24,1,1.87,1.6a19.86,19.86,0,0,1,1.74,2.86c.31-3.39-4.91-8.25-4.91-8.25s-.31,5.7,1.39,8.56a10.72,10.72,0,0,0,4.5,3.67l0,2.24-1.15-.84a1.85,1.85,0,0,0-.06-1.24s-.78-.6-1.4-.29-.46,1.06-.15,1.53,1,.31,1,.31A13,13,0,0,1,42,70.75c.15.38.06,5.85.06,5.85a12.17,12.17,0,0,1-2.92-3.3,16.34,16.34,0,0,1-1.62-4.08s1.24,1,1.87,1.62a18.9,18.9,0,0,1,1.74,2.83c.31-3.39-4.91-8.24-4.91-8.24s-.31,5.7,1.39,8.56a10.83,10.83,0,0,0,4.45,3.69v2.84l-1.15-.84a1.85,1.85,0,0,0-.06-1.24s-.78-.6-1.4-.31-.46,1.08-.15,1.55,1,.31,1,.31A13,13,0,0,1,42,82.14c.15.37.06,5.85.06,5.85a12.32,12.32,0,0,1-2.92-3.3,16.49,16.49,0,0,1-1.62-4.08s1.24,1,1.87,1.59a19.86,19.86,0,0,1,1.74,2.86c.31-3.39-4.91-8.24-4.91-8.24s-.31,5.69,1.39,8.55A10.34,10.34,0,0,0,42.09,89v2.84L40.94,91a1.8,1.8,0,0,0-.06-1.22s-.78-.62-1.4-.31S39,90.51,39.33,91s1,.31,1,.31A14,14,0,0,1,42,93.44c.15.4.06,5.85.06,5.85A12.47,12.47,0,0,1,39.17,96a16,16,0,0,1-1.62-4.08s1.24,1,1.87,1.62a20,20,0,0,1,1.74,2.83c.31-3.36-4.91-8.22-4.91-8.22s-.31,5.7,1.39,8.53a10.93,10.93,0,0,0,4.61,3.7c.16,1.53.46,3.55.46,3.55-1.39-.78-1.08-1.4-1.08-1.4a1.19,1.19,0,0,0-.31-1.08c-.44-.45-.91-.76-1.53-.45s-.31.91-.16,1.38.94.77.94.77a24.05,24.05,0,0,0,2.68,2.31,10.91,10.91,0,0,0,7,6.77Z"/>
      <path class="cls-2" d="M102.21,110c-.47.31-.53.22-.63-.25s0-.37.47-.44a13.53,13.53,0,0,0,2.26-1.41,5.85,5.85,0,0,1-2.1,2.1m7.71-17.31a24.35,24.35,0,0,0-1.81,4.4s-.11-3.46,0-3.87a11.84,11.84,0,0,1,1.7-2.41,1,1,0,0,0,1-.43c.25-.48.34-1.27-.31-1.51s-1.37.44-1.37.44a1.8,1.8,0,0,0,0,1.25l-1.07,1,0-3.51a36.53,36.53,0,0,1,2.55-5.28c.6-1,1.92-2.92,1.92-2.92,0,4.27-2.95,8.06-2.95,8.06,4.11-2.38,4.18-8.22,4.18-9.07s-.27-3-.27-3a44.36,44.36,0,0,0-3.8,5.23,23.55,23.55,0,0,0-1.65,4.31s-.11-3.13,0-3.53a11.84,11.84,0,0,1,1.7-2.41,1.09,1.09,0,0,0,1-.43c.25-.49.34-1.27-.31-1.52s-1.36.45-1.36.45a1.78,1.78,0,0,0,0,1.25l-1.07,1,0-3.6a36.67,36.67,0,0,1,2.55-5.27c.6-1,1.92-2.92,1.92-2.92,0,4.26-2.95,8.06-2.95,8.06,4.11-2.39,4.42-8.06,4.42-8.91a24,24,0,0,0-.51-3.15,42.7,42.7,0,0,0-3.64,5.07,25.66,25.66,0,0,0-1.81,4.47s-.11-3.13,0-3.53a12,12,0,0,1,1.7-2.42s.71.07,1-.42.34-1.27-.31-1.52-1.37.45-1.37.45a1.81,1.81,0,0,0,0,1.25l-1.07,1,0-3.06a25.59,25.59,0,0,1,2.3-5.34l1.48-2.37a12.29,12.29,0,0,1-2.42,7.19c4.12-2.39,4-6.81,4-7.66s-.11-3.71-.11-3.71a30.37,30.37,0,0,0-3.73,4.69c-.88,1.68-.9,2.73-1.5,4.56,0,0-.11-3.06,0-3.46a13.72,13.72,0,0,1,1.1-2.19s.73.27,1-.18.5-1-.22-1.45-1.28.22-1.28.22a1.27,1.27,0,0,0,0,1.1l-.69.8,0-2.5a17.64,17.64,0,0,1,2-5.37c.59-1,1.77-2.83,1.77-2.83a11.25,11.25,0,0,1-2.26,6.9,11.14,11.14,0,0,0,4.18-8c0-.85-.27-3.42-.27-3.42a36,36,0,0,0-4.11,5.12,13.33,13.33,0,0,0-1.34,4.94s-.11-3.44,0-3.84a11.91,11.91,0,0,1,.85-1.88.73.73,0,0,0,.83-.33,1,1,0,0,0-.47-1.3c-.63-.34-.9.13-.9.13a1.7,1.7,0,0,0,0,1.25l-.54.43,0-2.52a23.69,23.69,0,0,1,2.26-5.19c.6-1,2.16-2.93,2.16-2.93A10.36,10.36,0,0,1,110,43.2a7.39,7.39,0,0,0,3.82-7.06,9.5,9.5,0,0,0-.27-3S110,36.34,109.18,38a35.5,35.5,0,0,0-1.78,5.21q0-7.78-.05-15.55c1.65,2.81,1.53,5.53,1.36,8.71a25.55,25.55,0,0,0,1-4.4,8,8,0,0,0-1.32-4.47,25.46,25.46,0,0,1-1.1-2.84,8.55,8.55,0,0,1-1.09,2.91A10.15,10.15,0,0,0,105,32.19c0,1.72,1.63,5.83,1.74,6.05a50.65,50.65,0,0,1,.09,5.43,15.1,15.1,0,0,1-3.2-3.15,13.29,13.29,0,0,1-1.38-4.4s1,1.18,1.67,1.81a30.73,30.73,0,0,1,2.13,3.15c.31-3.42-5-7.8-5-7.8s-.43,5.81,1.38,8.6c1.25,1.9,4.52,3.26,4.52,3.26v2.17l-.79-.49a1.79,1.79,0,0,0-.07-1.25s-.77-.62-1.4-.31-.47,1.09-.16,1.56,1,.32,1,.32a6,6,0,0,1,1.32,1.58c.15.38.09,5.9.09,5.9a12.08,12.08,0,0,1-3-3.35,16.14,16.14,0,0,1-1.63-4.11s1.22,1,1.85,1.63a18.59,18.59,0,0,1,1.79,2.88c.31-3.42-5-8.31-5-8.31s-.31,5.74,1.38,8.62A11,11,0,0,0,107,55.67v2.12l-1.17-.85a1.75,1.75,0,0,0-.08-1.25s-.79-.6-1.39-.31-.47,1.09-.16,1.56a1,1,0,0,0,1,.31,12,12,0,0,1,1.7,2.17c.15.38.09,5.9.09,5.9a12.36,12.36,0,0,1-3-3.33,16.43,16.43,0,0,1-1.63-4.11s1.22,1,1.85,1.61a18.59,18.59,0,0,1,1.79,2.88c.31-3.42-5-8.31-5-8.31s-.31,5.74,1.38,8.62a11,11,0,0,0,4.56,3.71l0,2.26-1.17-.85a1.75,1.75,0,0,0-.08-1.25s-.79-.61-1.39-.29-.47,1.07-.16,1.54a1,1,0,0,0,1,.31,12,12,0,0,1,1.7,2.17c.15.38.09,5.9.09,5.9a12.36,12.36,0,0,1-3-3.33,16.43,16.43,0,0,1-1.63-4.11s1.22,1,1.85,1.63a17.72,17.72,0,0,1,1.79,2.86c.31-3.42-5-8.31-5-8.31s-.31,5.74,1.38,8.62A11.1,11.1,0,0,0,107,77.27v2.86l-1.17-.85a1.75,1.75,0,0,0-.08-1.25s-.79-.6-1.39-.31-.47,1.09-.16,1.56a1,1,0,0,0,1,.31,12,12,0,0,1,1.7,2.17c.15.38.09,5.9.09,5.9a12.36,12.36,0,0,1-3-3.33,16.28,16.28,0,0,1-1.63-4.11s1.22,1,1.85,1.61a18.59,18.59,0,0,1,1.79,2.88c.31-3.42-5-8.31-5-8.31s-.31,5.74,1.38,8.62A10.6,10.6,0,0,0,107,88.67v2.85l-1.17-.84a1.7,1.7,0,0,0-.08-1.23s-.79-.63-1.39-.31-.47,1.07-.16,1.54a1,1,0,0,0,1,.31,13.09,13.09,0,0,1,1.7,2.16c.15.41.09,5.9.09,5.9a12.07,12.07,0,0,1-3-3.33,16,16,0,0,1-1.63-4.11s1.22,1,1.85,1.63a19.14,19.14,0,0,1,1.79,2.86c.31-3.39-5-8.29-5-8.29s-.31,5.75,1.38,8.61A11.44,11.44,0,0,0,107,100.2a10.26,10.26,0,0,1-.75,3.43c-1.3-.91-.54-1.9-.54-1.9s.21-.35-.2-.87a1,1,0,0,0-1.34-.38,1.11,1.11,0,0,0-.6,1.37c.09.46,1.3.71,1.3.71a5.17,5.17,0,0,1,.58,3c-.34,2.16-4.45,3.22-4.45,3.22l-1,3.37a11,11,0,0,0,7.06-6.84,23.84,23.84,0,0,0,2.72-2.32s.76-.31.92-.78.47-1.07-.16-1.39-1.07,0-1.54.45a1.21,1.21,0,0,0-.31,1.09s.31.63-1.1,1.41c.43-2.25.58-4,.58-4a33.4,33.4,0,0,1,2.55-5.58c.6-1,1.92-2.91,1.92-2.91,0,4.27-2.95,8.07-2.95,8.07,4.11-2.42,4.42-8.07,4.42-8.94a24,24,0,0,0-.51-3.15,59.21,59.21,0,0,0-3.64,5.48"/>
      <path class="cls-2" d="M80.41,110.42v5c0,.4-.07.45-.16.49a4.4,4.4,0,0,1-.74.2v-5.27H75.72a.7.7,0,0,1-.76-.67l.17-.78a1.69,1.69,0,0,0,1,.53h3.71a.48.48,0,0,1,.54.51m.15-1.69H75.49a2.2,2.2,0,0,1-1.29-.67l-.85,2.88a.88.88,0,0,0,1,.8h4.18v6s2.37-.93,2.48-1,.2-.11.2-.63v-6.63s.11-.76-.63-.76"/>
      <path class="cls-2" d="M98.7,110.47a10.38,10.38,0,0,0-.38,2.23l-.62.18.22-1.9a2,2,0,0,1-1.32,0l.45-1.16a3,3,0,0,1,.69.05,4.12,4.12,0,0,0,.7,0c.33,0,.44,0,.26.58m.56-2.19a19.56,19.56,0,0,1-2,.09,5.78,5.78,0,0,1-1.09-.38l-1.25,3.48c.31.32,1.87.16,1.87.16l-.31,2.55,2.57-.69c-.25-.85.54-3.27.76-4s-.07-1.18-.54-1.18"/>
      <path class="cls-2" d="M71,116.57a2.86,2.86,0,0,0-.47-.36c-.31-.18-6.43-4.44-6.43-4.44s0,.44,0,.69.07,3.35.07,3.35h1.74l-.53.87H63.2a24,24,0,0,0,.23-2.73l-.25-2.88a2.66,2.66,0,0,0,.36-.51c.07-.2.31-.27.54-.07.51.47,4.26,4.05,7.44,5.1Zm-1-7.06a2.81,2.81,0,0,0,.71.11c.36,0,.25,0,.61,0s.31.47.31.76v.56a2.52,2.52,0,0,1-.18,1.18,5.4,5.4,0,0,1-.74.56,7.62,7.62,0,0,0,.09-1.65c-.13-.18.05-.18-.24-.25s-.78.09-1,0a8.29,8.29,0,0,0,.4-1.23m.94,4.83c-.31-.16,0-.7,0-.7a10.08,10.08,0,0,0,1-.69,1.22,1.22,0,0,0,.42-1v-2.72c0-.38.09-.54-.38-.63s-1.56-.06-2-.06a3.31,3.31,0,0,1-.92-.16c-.09.54-1,2.86-1,2.86a3.83,3.83,0,0,0,1.07.25c.4.06.16.06.31.31a3.94,3.94,0,0,1,0,1.38c-1.47-.62-5.34-4.11-5.65-4.33s-.62-.16-.71.07-1.23,1.87-1.23,1.87.47,2.17.53,3.08a23.61,23.61,0,0,1-.47,3.83H65.8l1-2.53H64.66v-1.74c0-.31.15-.31.15-.31s5.59,4.17,6,4.42.45.07.45.07l1.18-2.42a13.28,13.28,0,0,1-1.47-.84"/>
      <path class="cls-2" d="M93.5,113.08a3,3,0,0,1-.25,1c-.08.13-1.27,1.23-1.45,1.39a.93.93,0,0,1-.51.27c-.45.08-7,.93-7,.93s.06-3.33.06-3.64a1.69,1.69,0,0,1,.2-.87c.14-.09.83-1,.41-1.12a3.59,3.59,0,0,1-.92-.29l.54-1.16c.58,0,.71.2,1,.2s.6.11.47.34-.47,1.56-.65,2.14a10.82,10.82,0,0,0,0,3.31c.11.24,1.87,0,1.87,0,.23-.2,2-4.62,2-4.62h-1l.47-.92H90c0,.25-1.72,5.52-1.72,5.52s3-.4,3.33-.53a3.78,3.78,0,0,0,1.23-1.28,16.85,16.85,0,0,0,.27-2.46l-.76,0,.36-1.25,1,0s-.25,2.79-.27,3.1m-1.41-4.35-.78,2.65.85.16a5.32,5.32,0,0,1-.07,1.63,1.78,1.78,0,0,1-.73,1,21.3,21.3,0,0,1-2.17.44s1.58-5.58,1.61-5.87H88l-.94,2.5.9.25a34.46,34.46,0,0,1-1.55,3.37,3.56,3.56,0,0,1-.4-3c.23-.71.61-2.28.83-2.66s-.29-.42-.58-.42a4.76,4.76,0,0,1-2.57-.45l-1.12,2.57a1.53,1.53,0,0,0,1,.67c.76.16.14.74,0,.85a1.18,1.18,0,0,0-.31.85c0,.38-.09,4.53-.09,4.53s7.82-1,8.38-1.16c.4-.06.4-.15.62-.36a23.48,23.48,0,0,0,1.59-1.85c.11-.16.11-.2.16-.58s.31-5.07.31-5.07Z"/>
      <path class="cls-2" d="M77.28,73.43l0,0-.06-.05h0s0,0,0,0h0Z"/>
      <path class="cls-2" d="M77.09,73.28l.09.07a.31.31,0,0,0-.09-.07"/>
      <path class="cls-2" d="M97.88,35.87c-.34,1-1.12,2.08-.72,3.18.25.62.65,1.4.27,2a1,1,0,0,1-1.38.21c-.14-.07-.12-.25-.07-.36.25-.47.89-.79.63-1.41s-.14-1.41-.36-2-1.12-.92-1.3-1.61c-.27-1.16,1.43-1,2.26-.85.35,0,.85.38.67.87m-.29,6.06c-.38.09-.9.29-1.07,0-.29-.42.53-.16.84-.16.12,0,.2-.22.3-.08a.14.14,0,0,1-.07.22m-.25,2.46c-.09.15-.29-.07-.33-.09-.38-.34-.92-.23-1.34-.52-.18-.11-.39-.44-.16-.47.49,0,.8-.33,1.32-.38a.53.53,0,0,0-.09.16c.29-.13.36-.43.49-.69a.17.17,0,0,1,.31,0,3.09,3.09,0,0,1-.2,2m-.2,1.38c-.58,0-1.09-.38-1.72-.4-.14,0-.42-.09-.38-.34,0,0,.07-.13.09-.13.47-.24.94.07,1.45,0,.36-.07.54.22.67.47s0,.42-.11.42M97,47.58a4.45,4.45,0,0,0-.7,1.25.29.29,0,0,1-.4.13c-.4-.28-.93-.2-1.25-.53,0-.07-.16-.24-.09-.27.47-.09,1,.12,1.34-.15s.25-.7.54-.94c.07,0,.18,0,.29,0s.18,0,.22,0c.2.13.11.38.05.51M96.34,51c-.16.4-.74.53-1.32.38-.34-.11-.61-.43-.4-.63s.66-.38.47-.71c-.07-.12,0-.29-.21-.34s-.35.11-.47-.09a.34.34,0,0,1,0-.2,1.84,1.84,0,0,1,1.84.63,1,1,0,0,1,.09,1m-1.41,2a.92.92,0,0,1-1.28.29c-.13-.09-.4-.11-.4-.36s0-.24,0-.29c.29-.29.73.09,1-.17a.24.24,0,0,0,0-.23c-.21-.22-.83-.54-.5-.67.63-.25,1.52.71,1.1,1.43m-.85,2.39s-.07.25-.2.11c-.14.27,0,.63-.31.85-.07-.15-.2-.22-.27-.38a.88.88,0,0,0-.51-.36c-.27-.06-.3-.42-.54-.58.38-.47,1.2-.24,1.76-.13.25,0,.22.4.07.49m-1.5,2.15c-.15.18-.27.69-.56.55s-.62-.64-1-1c-.09-.09.09-.18.13-.2.29-.07.63.24.83-.05s-.18-.58,0-.8.25,0,.39,0v-.07c.33.2.8.49.78.85s-.38.44-.61.65m-3,2.67a.44.44,0,0,1,0,.1l-.09-.25c0,.4-.29.69-.36,1.09,0,.21-.42.12-.53.05a11.34,11.34,0,0,1-1.37-1.83c.16,0,.36-.05.45,0,.52.49,1.14.13,1.63.36a.45.45,0,0,1,.29.46m-2,1.55c-.11.33-.38.74-.73.6-.72-.24-.9-1-1.34-1.61,0,0,0-.11.09-.13a.41.41,0,0,1,.22,0c.18.11.16.42.47.47s.18-.38.34-.52.22.18.42.25a.79.79,0,0,1,.53.94m-1.85.71c-.11.81-1.09,1-1.79,1.19-1.72.53-3.41.89-5.2,1.34a9.33,9.33,0,0,1-2.83.28h-.16l.53.08a2.45,2.45,0,0,1-1.07-.26s0-.11,0-.11a10.6,10.6,0,0,1,2.55-.32,20.48,20.48,0,0,0,3.39-.94,11.28,11.28,0,0,0,1.65-.91c.14-.07.34,0,.45-.12a5.07,5.07,0,0,1,1.81-.8c.4-.18.72.36.67.58m-7.62,5.43c-.07.25-.15.61-.44.63-.47,0-.23.85-.5,1a4.26,4.26,0,0,1-2,.22c0-.09,0-.2,0-.22a.66.66,0,0,0,.27-.94c-.07-.16-.38-.14-.47,0-.25.35,0,.89-.25,1.18-.09.13-.4.09-.65,0s-.35-.26-.2-.4.36,0,.5-.06,0-.23,0-.36c0,0,0,.11,0,.06,0-.31-.25-.6-.59-.51-.17,0-.28.29-.49.36a.71.71,0,0,0-.6-.61c0,.27-.36.18-.45.11-.26-.15.07-.42,0-.67,1.39-.22,2.77.16,4.18-.17.06,0,.11-.2.18-.27s.29-.31.53-.31c0-.25.18-.29.31-.38a.43.43,0,0,1,.5.09,1.45,1.45,0,0,1,.24,1.2m.25,4.33c.56.09,1.21.68.87,1.21-.09.16-.45-.07-.69-.09-.4,0-.78.22-1.19.25-.1,0-.14-.11-.21-.22L77,73.27a.23.23,0,0,1,.12,0c-.39-.35-.75-.88-1.17-.63a1.12,1.12,0,0,1-.9.13c-.06,0-.15-.2-.06-.27s.24-.49.53-.56a2.48,2.48,0,0,1,1.88.41c.31.2.71-.18,1-.12m-5.18-2.77c0,.14.38.12.2.27s-.36.25-.5,0,.16-.25.3-.3m5.2,7c-.54-.08-1.25.25-1.61-.17-.13-.16.27-.38.11-.58s-.4-.29-.47-.14,0,.72-.11.94-.91.24-1-.2c.35-.09.8-.18.64-.6a.86.86,0,0,0-.89-.41A2.23,2.23,0,0,1,75,76.42c-.16.29-.54,0-.81,0v-.37c.27.06.56,0,.45-.41s-.47-.93-.87-.62,0,1.09-.47,1.45a.58.58,0,0,1-.74-.13.34.34,0,0,1,0-.2c.16-.21.43-.12.61-.21s.2-.67.2-1-.38-.31-.56-.2-.29.09-.25.29a1,1,0,0,1,.07-1.23c.58-.4,1.41-.15,2.12,0a27.29,27.29,0,0,0,3.4.15,5,5,0,0,0,.31,2.41m.54.88c.22,0,.33.26.44.47a18.94,18.94,0,0,1,1.5,3.93,7.46,7.46,0,0,1-1.94.13.43.43,0,0,1-.29-.36c-.2-.8-.45-2-.76-3.26a1.11,1.11,0,0,1,.4-.8.92.92,0,0,1,.65-.11m-1.77,4.15a6.86,6.86,0,0,0-.87-.76V81a15.22,15.22,0,0,1,0-2.41.49.49,0,0,1,.35-.45c.32-.09.7,0,.74.31.23,1.19.29,2.1.49,3.15a.94.94,0,0,1-.67-.09m-1.56-.6c-.52,0-.54-.54-.78-.85-.07-.07-.2.11-.25-.09a3,3,0,0,1,0-1.61.45.45,0,0,1,.78-.06c.47.78.11,1.74.2,2.61M74,79.77c0,.07-.12.16-.14.14a6.15,6.15,0,0,0-.69-.11c-.36-.12-.14-.76-.16-1.19a.26.26,0,0,1,.16-.22.55.55,0,0,1,.74.09,1.3,1.3,0,0,1,.08,1,1.08,1.08,0,0,1,0,.3M71.23,65a19,19,0,0,1-5.57-1.32c-.53-.27-1-.65-1.49-1l.22.13a.6.6,0,0,0-.08-.08l-.1-.05c-.09,0-.15-.08-.09-.14.34-.42.34-1,.76-1.31.05-.05.2-.18.27-.09.33.38.36.87.65,1.29a1.9,1.9,0,0,0,.53.45,12.94,12.94,0,0,0,4,1.36c.8.18,1.63,0,2.46.18.31.07.67,0,.91.27.09.09-.11.13-.06.22-.81,0-1.59.16-2.39.05M63.4,62.17c0,.2-.33.09-.46,0-.4-.13-1-.42-.94-.89.16,0,.24-.16.27-.25.09-.46.26-.91.64-.91.61,0,1.7-.89,1.64,0s-1.21,1.07-1.15,2m-2.27-1.5a1.13,1.13,0,0,1-1-.67c-.08-.2,0-.33.2-.49s0-.22,0-.36.18,0,.22-.15a1.22,1.22,0,0,1,.14-.34.39.39,0,0,1,.62.05c.11.15-.16.47,0,.56.59.22.88-.54,1.32-.85.14-.09.41.2.25.4-.56.71-.8,1.79-1.83,1.85M59.68,58.1c-.25.14-.25.58-.56.72s-.34-.22-.52-.38,0-.14,0-.22c-.29.08-.47-.09-.61-.32s.05-.29.16-.35.54,0,.67-.21c.05-.08,0-.29.05-.33s.44-.22.55,0,.43.35.63.56a.29.29,0,0,1,0,.33,1,1,0,0,1-.42.22m-2.91-1.63c-.16-.22.31-.38.54-.49s.67-.38,1-.56a1.08,1.08,0,0,1-.17.7c-.16.29-.43.4-.7.6s-.56-.07-.69-.25m-.58-1a1,1,0,0,1-.47-.31c-.11-.18.05-.31.22-.36s.47,0,.7,0a4.81,4.81,0,0,0,.49-.34,1.83,1.83,0,0,1,.6-.27c0,.1.14.14.07.23-.47.53-.9,1.32-1.61,1.09m-1.65-2.79c.06-.07,0-.18,0-.22.65-.38,1.34-.58,2-1,.11-.07.33-.14.44,0a.35.35,0,0,1-.08.38c-.58.63-1.59,1.31-2.39.78m-.63-2.86c.16,0,.14-.27.31-.16,0-.58.45-.37.54-.71s-.22-.49-.45-.62c0,0,0-.12.07-.14a.61.61,0,0,1,.6.16c.07.09.23.15.18.31.29,0,.27.31.34.47a1.07,1.07,0,0,1-.74,1.52s0-.16-.07-.2c-.33-.23-.85-.12-.78-.63m0-4.1c-.23-.23-.86-.05-.65-.37s.65-.44,1-.71.18-.94.51-1.32c.07-.11.19.07.29,0,0,.65.21,1.37-.06,1.93a1.22,1.22,0,0,1-1.07.43l0,.06-.29-.07h.25m-1.34-4.12c.84-.52.64-1.65.93-2.48h.08a2.52,2.52,0,0,1,.28-.48c.31-.52,0-1-.24-1.43s-.61-.32-.81-.58.14-.49.32-.54a2.76,2.76,0,0,0,1.18-.8c.15-.14.31.2.27.42v-.09a3.62,3.62,0,0,0-.23,1.63A18,18,0,0,1,54.16,42c-.54.11-1.61.42-1.63-.45M72.77,58.82a12.65,12.65,0,0,1-5.32-1.5c-.16-.06-.42-.29-.38-.49s.36-.24.54-.16a10.63,10.63,0,0,0,4.58,1.77c.2,0,.84,0,.87.18s-.2.2-.29.2m-7-2.48c-.09-.25.11-.4.36-.45H66c.43-.38.76-1.14,1.39-1.09a9.69,9.69,0,0,1-.9,2c-.24.31-.53-.16-.62-.45m-.29-1.48s-.16.14-.18.18a1.08,1.08,0,0,1-.58.72c-.27.13-.54-.27-.45-.56a1.31,1.31,0,0,1,.23-.25c.4-.31.75-1.11,1.2-.64.07.09-.15.35-.22.55m-2.28-1s-.23,0-.25-.17a.58.58,0,0,1,.54-.7.6.6,0,0,0-.15-.09c.31-.06.64-.29.84-.2s-.64,1.32-1,1.16m9.69,0c.07-.06.25,0,.36,0,1.23-.34,2.46.45,3.58-.07a4.41,4.41,0,0,1,0,2,1,1,0,0,1-1.52.56c-.69-.53-.76-1.56-1.54-2a2.35,2.35,0,0,0-.67-.16c-.11,0-.36-.11-.23-.25m.23-17.76c-.07,0-.25-.17-.16-.33s.09,0,.16,0l-.09.22.09-.05c.47-.26,1,0,1.54-.24.2-.09.29-.34.54-.34,0-.2.2-.22.22-.37a2.12,2.12,0,0,0-.07-.79,1.67,1.67,0,0,1,1.57,2,2.29,2.29,0,0,1-.61.85,2.53,2.53,0,0,0-.53,1.3c-.27,1.07.56,2,.4,3.08a1.5,1.5,0,0,1-.45,1,.61.61,0,0,1-.67,0c-.44-.2-1.07.11-1.34-.51a1.78,1.78,0,0,0,1.46-1,3.15,3.15,0,0,0,0-1.92c-.2-.81.11-1.68-.33-2.28-.36-.45-1.17-.4-1.77-.65M75.09,48.3v.31a1.29,1.29,0,0,0,0-.19c.05-.43-.09-.89.16-1.26.11-.16.45-.18.65-.16s.2.25.2.36c.07.76.43,1.63,0,2.16s-1.59.32-2.4.12c-.26-.07-.33-.58-.13-.68.49-.2,1-.4,1.52-.66m.62-2.48c.34-.34-.19-.56,0-.72.47-.38.9.76.65,1.12-.38.56-1.21.31-1.85.24-.2,0-.36-.38-.16-.44A5.24,5.24,0,0,1,75.71,46s0-.11,0-.13m2.93,5.92c.27-.14.56-.38.83-.52s.4-.4.67-.29.51.76.27.94a7.4,7.4,0,0,1-3.06,1.23c-1.17.27-3.6.42-3.49-.54a7.12,7.12,0,0,1,.81.09l.26,0H75a9.75,9.75,0,0,0,3.6-.94M76.79,62a1.39,1.39,0,0,1-1.21,0c-.53-.19-.44-1-.67-1.47,0-.15-.24-.22-.38-.29-.38-.18-.87-.18-1.14-.58.12,0,.2.07.31.07a25.57,25.57,0,0,0,3.49.17c-.11.68.36,1.66-.4,2.08m1.63-3.73c.38-.13.74-.18,1.09-.33a25.51,25.51,0,0,0,3.13-1.57c.16,0,.89.81.69.92a34.8,34.8,0,0,1-3.44,1.47,7.54,7.54,0,0,1-3.82.5A8.39,8.39,0,0,0,75,59c-.23,0-.63-.13-.47-.22,1.2-.71,2.64,0,3.91-.47M61.13,51.74c-.09,0-.31-.16-.2-.34s.33-.15.51-.24c0,0,0-.14,0-.14a1.07,1.07,0,0,1,.63.07,1,1,0,0,1-.94.65m-.47-1.46c-.16.07-.32-.06-.45-.15s0-.16,0-.2a5.38,5.38,0,0,1,.92-.41c.07,0,.13,0,.15,0,.27.38-.31.62-.62.73M61,49a.3.3,0,0,1-.43-.13c0-.13.07-.29.14-.27.22,0,.47.18.29.4m-1-3.59c.4-.11.33-.56.51-.74.34-.33.58.25.65.56.13.63-.58.76-1.09.58-.14,0-.27-.34-.07-.4m-1.57-2.59c0-.05,0-.2,0-.2a2.63,2.63,0,0,1,1.08-.12h0c.49.07,1-.15,1.47.12,0,0,.05.15,0,.2-.36.38-.87.09-1.32.2s-.89.2-1.23-.2m-.33-6.53a.59.59,0,0,1,.15-.64s.12,0,.16,0l0,0a17.13,17.13,0,0,0,1.78-.13c.09,0,.47.2.54.2a6.56,6.56,0,0,0-.22,1.52,8.88,8.88,0,0,0,.06,2.41,17.59,17.59,0,0,1-.06,1.92s-.07,0-.07,0c-.09.49,0,0-.27.45a.33.33,0,0,1-.4.11.51.51,0,0,1-.31-.56c.27-1,.44-.89.33-1.87a1.45,1.45,0,0,0-.56-.94.78.78,0,0,1-.24-.27c-.23-.49,0-1.07-.2-1.57-.14-.29-.5-.4-.65-.67m14.52,16.6a6.24,6.24,0,0,1-3.08-.8c-.74-.36-1.57-1-1.1-1.77.2-.35.45.25.65.54.85,1.27,2.37,1.19,3.6,1.83,0,0,0,.2-.07.2m-4.92-3.19c-.17-.22.07-.56.34-.76s.56-.54.92-.27c.06,0,0,.22,0,.36-.11.4-.56.33-.81.6s-.4.16-.47.07m-.82-1.16c-.16,0-.22.24-.29.22-.25-.09,0-.27,0-.47.14,0,.12-.31.27-.26a.79.79,0,0,1,1-.88.46.46,0,0,1,.32.54,1.63,1.63,0,0,1-1.23.85m-1.34-2.17a.22.22,0,0,1-.22,0,.64.64,0,0,0,0,.07l-.05.09v-.25a.13.13,0,0,0,.07.09c0-.18-.15-.36,0-.53s.25-.18.38-.23a3.36,3.36,0,0,1,1.61-.07c.2,0,.47.21.29.32-.63.4-1.43-.14-2,.49m.89-1.83c0,.33-.67.38-1,.45v-.29c.4,0,.95-.63,1-.16m-2.17-1.88s0-.2,0-.2a2.61,2.61,0,0,1,1.08-.12h0c.49.07,1-.16,1.45.11,0,0,0,.16,0,.2-.36.38-.85.09-1.32.2s-.87.2-1.21-.2m-.37-6.21a.44.44,0,0,1,.22-.71,3.92,3.92,0,0,1,2.23-.07,3.4,3.4,0,0,1,.7.11.65.65,0,0,1,.51.83c-.22.51-.65.91-.87,1.43s.09,1.4,0,2.14a1.59,1.59,0,0,1-1.25,1.32c-.23,0-.47,0-.59-.16-.44-.73.61-.82.87-1.31.07-.14.09-.36,0-.43a7.39,7.39,0,0,1-.82-1.27c-.25-.43.11-.92-.18-1.3s-.6-.33-.8-.58m17,13.45c.21-.07.49,0,.65,0a4.17,4.17,0,0,0,.63-.63c.27-.25.69.07.87.42a.52.52,0,0,1-.09.52c-.16.18-.25.44-.45.56s-.38.2-.56.29c-.56.22-1-.38-1.16-.9a.23.23,0,0,1,.11-.22m1.7-13.23a.31.31,0,0,1,.16-.51c1-.2,1.9,0,2.86-.15.35,0,.24.22.24.26,0,.58-.67,1.19-.35,1.79.49,1,.2,1.9.42,2.9a.93.93,0,0,1-.27.81c-.49.47-1.27.22-1.78-.16-.25-.18-.07-.47.26-.54A4.65,4.65,0,0,0,84.7,41a1.18,1.18,0,0,0,.42-1.34c-.11-.38-.6-.38-1-.34.36-.13.87-.62.52-.87s-.67-.22-.94-.42-.16-.43-.31-.63-.56-.45-.81-.74M86,42.33c.14.29,0,1-.2,1-.71-.27-1.7-.42-1.45-.74.47,0,.69.11,1.16.07.14-.22.29-.67.49-.29m-.33,2.23c-.09,0-.14.07-.16.07-.47,0-.85-.33-1.32-.4-.06,0-.33,0-.22-.2s.51-.31.74-.49.71.11.76.56c0,0,.13.11.18.18s0,.17,0,.28M84.3,47.09c-.18-.07-.59-.25-.85-.38s0-.29.08-.33c.3-.27.63-.2.81-.54s.06-.58.29-.65c.25.18.71.07.71.31,0,.63-.51,1.79-1,1.59m-.38,2.19a.36.36,0,0,1-.56,0,.34.34,0,0,1-.12-.22c0-.12-.15-.25-.13-.27.34-.29.76-.31,1.07-.65.27.44,0,.8-.26,1.14M83.85,56c.13-.18.49.18.78.09L84.4,56c.63-.05.21-.52.32-.92.36.38.78.87.58,1.37-.13.31-.6.31-.92.42s-.8-.49-.53-.8m1.2-1.75a.91.91,0,0,1,.43-.2c.22-.09,0-.27,0-.45.07,0,.11,0,.16-.06s-.14,0-.09-.07c.4-.15.58.38.76.7,0,.08,0,.22,0,.29s.27.33.2.55a.24.24,0,0,1-.15.13c-.45.14-.67-.37-1-.6-.07,0-.15,0-.22,0s-.23-.18-.14-.27m1.48-1.54c.16-.09.4,0,.6-.18h-.4a1.81,1.81,0,0,0,.4,0,1,1,0,0,0,.34-.16c.17-.15-.18-.65.2-.69a1.35,1.35,0,0,1,1.14.6.6.6,0,0,1,0,.72c-.13.22-.49.2-.69.38s-.14.38-.29.49-.29.16-.31.09-.25-.16-.32-.29-.42-.23-.53-.36-.49-.36-.18-.56m1.54-3.42c.65-.33,1.34.18,2,.38.07,0,.18.16.13.2a.6.6,0,0,1-.71.05c-.4-.25-.87-.2-1.25-.45,0,0-.27-.11-.16-.18m.69-3s.09,0,.14,0l.09.32a.23.23,0,0,1,0-.11.37.37,0,0,0,0-.21,2.56,2.56,0,0,1,1.79.47c-.22.6-.16,1.34-.6,1.81-.2.2-.67,0-.92-.15s-.27-.43-.07-.52c.45-.22.76-.54.54-1s-.74.11-1-.2a.34.34,0,0,1,0-.43M89.05,36a12.83,12.83,0,0,0,1.3-.23c.11,0,.31,0,.42-.18s.25-.53.47-.67a.41.41,0,0,1,.58.22,1.52,1.52,0,0,1,0,.92c-.09.34-.38.6-.49.94a3.22,3.22,0,0,0,0,.94,12.89,12.89,0,0,0,.18,3.26.72.72,0,0,1-.32.67,3,3,0,0,1-1.38.29c-.12,0-.17-.11-.18-.23a.59.59,0,0,1,0-.13l-.09.23c0-.29.29-.27.38-.47A2.38,2.38,0,0,0,90,41a3.22,3.22,0,0,0-.27-1.92c.29.07.49-.16.58-.4.22-.7.27-1.63-.4-2a6.8,6.8,0,0,0-1-.24c-.27-.07-.13-.38.13-.42m1.83,9.49a.74.74,0,0,1-.71,0c-.7-.4.08-1,.28-1.49a1.74,1.74,0,0,1,.06-.79c0-.07,0-.2.11-.22a.35.35,0,0,1,.42.09,1.8,1.8,0,0,1-.16,2.41m-1.22,5.45c-.2.36-.54.8-.85.45s-.61-.23-.72-.45.34-.27.43-.58.49.2.78.22.45.18.36.36m7.9-17.16a3.9,3.9,0,0,0-2.88.23,1.75,1.75,0,0,0-.47,2.36c.63.63.29,2.24.43,2.86a4.26,4.26,0,0,1-.11,1.52c-.23.31.13,1.48-.07,1.72a1.39,1.39,0,0,0-.2,1.17,6.18,6.18,0,0,0-.2.75A11.17,11.17,0,0,0,94,45.62a4.49,4.49,0,0,1-.16,1.47,18.38,18.38,0,0,1-.69,2.17c-.24.53.11.78-.51,1.63,0,0-.27,1.09-.43,1.59A12.11,12.11,0,0,0,90.88,54s-.78,1-1.11,1.63c0,0-.29.38-.83,1.28,0,0-1.7.67-2,1.36-.14.31-1.61.78-2.64,1.67a11.42,11.42,0,0,1-2,.76,3.78,3.78,0,0,0-1.7.52,21.26,21.26,0,0,0-2.19.54s-.48.13-.93.22c0-.67-.14-1.45-.14-1.45a1.73,1.73,0,0,0,.1-.74h.08A11.61,11.61,0,0,0,80.14,59,4.87,4.87,0,0,0,83,57.84c1-.16,1.09-.63,1.09-.63a8.63,8.63,0,0,0,1.43-.54c.58-.08,1.14-1.23,1.14-1.23.16-.13.76-.75.76-.75.83-.38,1.52-1.86,1.72-2.13A10.2,10.2,0,0,0,90,51.11a16.34,16.34,0,0,0,1.16-3.24,10.89,10.89,0,0,0,.56-2.25c.22-1.64.33-3.69.33-3.69a9.62,9.62,0,0,1,.09-1.7,6.22,6.22,0,0,1-.2-1.36,7.06,7.06,0,0,1,.78-3.26c.63-.94-.4-2-1.56-2.1a4,4,0,0,0-2.55.78c-.62.31-1.41,1.74-.78,2.37s.6,1.92.74,2.54.2,1.68.2,1.68a2.25,2.25,0,0,0-.25,1.25,4.64,4.64,0,0,1-.18.92,3.34,3.34,0,0,0,0,1.09c.09.56.15,1.16.15,1.16-.62.16-.31,1.79-.31,1.79a10,10,0,0,0-1.16,2.26,11.07,11.07,0,0,1-1,1.85,2.08,2.08,0,0,0-.65.36,4.45,4.45,0,0,0-1.85,1.81,4.25,4.25,0,0,0-1.61,1.09,4.33,4.33,0,0,0-1.66.65s-2,1-2.3,1.14a1.55,1.55,0,0,1-.36.08,22.77,22.77,0,0,0-.13-2.64,10.32,10.32,0,0,0,4.89-1.95c.61-.63.29-.78.76-.92s1-1.56,1.48-2a9,9,0,0,0,1-2.24,8,8,0,0,0,.72-3c.6-.79-.16-2-.16-2s.16-1.4.16-2a19.18,19.18,0,0,1,.29-3.36c.27-1.07.31-1.69-.76-2.07A5.44,5.44,0,0,0,82.42,34c-.61.31-2,1.78-1.39,2.41A7.35,7.35,0,0,1,82.57,39c.16.63.32,2.4.32,2.4-.23.31.08.47.08.78v.53s-.24,2-.69,2.35S82,46.15,82,46.15c-.63.16-.94,1.63-.94,1.63a13,13,0,0,1-1.4,1.32,3.67,3.67,0,0,1-2.17.69l-.6.12c0-.69,0-1.19,0-1.19a10.16,10.16,0,0,0,.09-1.25c0-.63-.31-.69-.31-.69l.31-.7a.56.56,0,0,0,.31-.46.76.76,0,0,0-.31-.54,7.81,7.81,0,0,0,0-1.94,5.7,5.7,0,0,0-.15-1.1,5.48,5.48,0,0,0-.07-2.17,2.56,2.56,0,0,1-.09-1.69c.22-.47,1.1-1.88,1.4-2.35s.61-1.38-1.71-2.17a4.34,4.34,0,0,0-4.18.63c-.78.38-.47,1.54-.47,2s1.47,1.56,1.47,2-.15.85-.15,1.32-.09.85.06,1.07c0,0-.53.31-.53.54s.31.47.47.78-.09.31-.09.31-.45.54-.38.85.15.85.47.94-.25.38,0,.69a1.21,1.21,0,0,0-.32.79,1.88,1.88,0,0,0,.54,1s-.47.16-.38.47a2.91,2.91,0,0,0-.24.94c0,.3.05,1,.11,1.92h0a3.93,3.93,0,0,1-2.79-1.32,2.37,2.37,0,0,0-1-.92s-.31-1.47-.94-1.63c0,0,.16-.78-.31-1.09s-.76-1.94-.76-1.94a1.31,1.31,0,0,0,.22-.61c0-.31.07-.4-.16-.71A19.44,19.44,0,0,1,67.07,39a8,8,0,0,1,1.54-2.63,1.31,1.31,0,0,0-.16-2,9.89,9.89,0,0,0-4.55-.29c-1.1.38-1.88,1.16-1.25,2.07a7,7,0,0,1,1,3c0,.6.16,2,.16,2A2,2,0,0,0,64,43.05a12.47,12.47,0,0,0,.85,3.5c.47,1,.36,1.9.78,2.33s1,1.63,1.48,1.78.16.3.78.92a7.5,7.5,0,0,0,4.7,2.16,1.05,1.05,0,0,0,0,.48,1.75,1.75,0,0,1,.31.78c0,.15-.22.56-.33,1.12a5.53,5.53,0,0,1-.79-.27l-2.05-1A3.8,3.8,0,0,0,68,54.31a3.57,3.57,0,0,0-1.5-1,6.69,6.69,0,0,0-.94-1.14c-.11-.15-1-1.12-1-1.12a13.42,13.42,0,0,1-1.37-1.94A9.82,9.82,0,0,0,62,47.25s.16-2-.47-2.1a1.71,1.71,0,0,1-.16-1,3.62,3.62,0,0,0,0-1.09,4.24,4.24,0,0,1-.2-.92c0-.31.09-.4-.15-.71a19.33,19.33,0,0,1,.11-2.22c.13-.62-.34-2.39.26-3A1.54,1.54,0,0,0,61.1,34a4.52,4.52,0,0,0-3.1-.23c-1.1.38-1.88,1.16-1.25,2.08a6.94,6.94,0,0,1,1,3c0,.63,0,1.65,0,1.65a8.73,8.73,0,0,1,.06,1.72s.2,1.74.45,3.38a11.32,11.32,0,0,0,.54,2.25A10.43,10.43,0,0,0,60,50.35c.16.21.31.72.8,1.43.21.27,1,2.21,1.79,2.59l.9.63s.66,1.21,1.25,1.27a4.61,4.61,0,0,0,1.36.78,2.08,2.08,0,0,0,1.47.85,2.56,2.56,0,0,0,2,.85,8.85,8.85,0,0,0,2.24.72,7.57,7.57,0,0,0,.9.15,1.35,1.35,0,0,0,.15.5s-.19,1.18-.22,1.91c-.56-.08-1.48-.28-1.48-.28A20.48,20.48,0,0,0,69,61.21a4,4,0,0,0-1.4-.67,8.61,8.61,0,0,1-1.75-.85c-1-.89-2.59-1.52-2.7-1.81-.29-.72-1.52-1.05-1.52-1.05a8.33,8.33,0,0,0-1.58-1.74,6.65,6.65,0,0,0-1-1.19c-.47-.69-1-1.65-1-1.65a11.62,11.62,0,0,1-.33-1.59,3.93,3.93,0,0,1-.67-1.56c-.36-.85-.94-2.16-.94-2.16a6.57,6.57,0,0,1-.07-1.57,3.3,3.3,0,0,1-.46-1,4,4,0,0,1,0-1.07.71.71,0,0,0-.11-.85c-.2-.24-.09-.62-.31-.94A10.76,10.76,0,0,1,55,39.2c.14-.62-.35-2.39.27-3A1.52,1.52,0,0,0,55,34a4,4,0,0,0-2.86,0,1.45,1.45,0,0,0-.78,2.32,3.93,3.93,0,0,1,.31,2.57c0,.63,0,1.43,0,1.43s0,1.16,0,2.26c0,0,.11,1.27.35,2.9a11.38,11.38,0,0,0,.32,1.85c.15.63.11,2.26.47,2.73a10.54,10.54,0,0,0,.8,1.43c.2.27.52,2.06,1.41,2.75a5.11,5.11,0,0,0,1.43,2.41s.69,1.16,1,1.12c0,0,.69,1.31,1.12,1.4,0,0,.36,1.32,1.41,1.48A2.94,2.94,0,0,0,61.6,62a3.08,3.08,0,0,0,2,1.22s-.34.9,1.63.9l.2.09a2.39,2.39,0,0,0,1.16.47,9.58,9.58,0,0,0,2.32.69s.79.1,1.88.21v2.11s1,.23,1,.78,0,.76.38.85c0,0,.31.23.08.79a1.34,1.34,0,0,0-.24.76,1.44,1.44,0,0,0-.78,1.4h-.54v1.63h1a.85.85,0,0,1,.09.38c0,.25.22,1.17.06,1.41s-.47.54-.62.76-1.92,1-2.24,4.51c-.09.85-1.16,1.08-2.16,1.39H83c-1.16-.31-1.63-.54-1.71-1.39-.32-3.55-2.08-4.26-2.24-4.51s-.47-.54-.62-.76.06-1.16.06-1.41a.85.85,0,0,1,.09-.38h1V72.22H79a1.44,1.44,0,0,0-.78-1.4,1.38,1.38,0,0,0-.23-.76c-.24-.56.07-.79.07-.79.38-.09.38-.31.38-.85s1-.78,1-.78V65.49c.77-.19,1.88-.5,2.23-.57a15.19,15.19,0,0,0,1.64-.38c.53-.16.47-.47,1-.47,1.9,0,1.95-.65,1.95-.65A2.07,2.07,0,0,0,88,62.17a4.47,4.47,0,0,0,2.33-1.48c.87-.13,1.31-1.38,1.31-1.38C92.05,59.22,93,57.9,93,57.9c.31.05.75-1.11.75-1.11A5.87,5.87,0,0,0,95.2,53.9c.89-.69.8-1.61,1-1.89a8,8,0,0,0,.74-2,12.52,12.52,0,0,0,.69-2.79A12.07,12.07,0,0,0,98,45.37c.22-1.61.35-2.91.35-2.91a17.37,17.37,0,0,0-.24-2.16s0-.8,0-1.43a3.93,3.93,0,0,1,.31-2.57,1.65,1.65,0,0,0-.76-2.55"/>
      <path class="cls-2" d="M88.37,93.66a1.08,1.08,0,0,0,.55-.12.79.79,0,0,1,.77-.05.69.69,0,0,1,.37.74,2.11,2.11,0,0,1-.22.64l.19,0a1.33,1.33,0,0,0,.65-.23h0l.19-.14a1.23,1.23,0,0,0,.31-.29l.13.09a1.32,1.32,0,0,1-.35.32h0l-.18.14a1.32,1.32,0,0,1-.72.27l-.35.08h0l-.2.06.11-.17a2,2,0,0,0,.29-.74.54.54,0,0,0-.28-.58h0a.73.73,0,0,0-.64.05,1.16,1.16,0,0,1-.63.13Zm-2.27.84a1.07,1.07,0,0,0-.16.27A.26.26,0,0,0,86,95h0a1.14,1.14,0,0,0,.15.16.89.89,0,0,1,.28.45v0h0a.83.83,0,0,1-.14.66.93.93,0,0,1-.57.36h0a2.9,2.9,0,0,1-1.06,0,5.62,5.62,0,0,1-1-.29l-.4-.15h.51v0a5,5,0,0,0,.91.27,2.8,2.8,0,0,0,1,0h0a.82.82,0,0,0,.49-.3.71.71,0,0,0,.11-.54.06.06,0,0,0,0,0h0a.79.79,0,0,0-.24-.37,1,1,0,0,1-.17-.18h0a.36.36,0,0,1,0-.36.81.81,0,0,1,.18-.31ZM82.71,95,83,95a3.5,3.5,0,0,0,1.28,0h0l.12,0,.13-.06a.75.75,0,0,0,.41-.45h0a1.36,1.36,0,0,0,.06-.29c.07-.33.13-.65.46-.79s.51,0,.76.19a.9.9,0,0,0,.64.23l0,.15a1,1,0,0,1-.75-.25c-.21-.13-.4-.26-.62-.18s-.3.39-.35.68c0,.1,0,.2-.07.3a.94.94,0,0,1-.49.55l-.14.06-.14,0h0a3.63,3.63,0,0,1-1.34,0l-.23,0Zm5.69-.53h0l0,0,0,0c.09.06.16.14.16.18h0a2.76,2.76,0,0,1-.1.62c-.1.41-.2.82.2,1.06h0a1.27,1.27,0,0,0,.8.11l.29,0h0a1.67,1.67,0,0,0,.68-.15l.16-.08a1.54,1.54,0,0,0,.63-.66l.14.07a1.71,1.71,0,0,1-.69.72l-.18.09a1.81,1.81,0,0,1-.74.17h0l-.28,0a1.37,1.37,0,0,1-.89-.14c-.49-.31-.38-.77-.27-1.24a2.52,2.52,0,0,0,.1-.58h0s0,0-.08-.05l0,0,0,0h0Z"/>
      <path class="cls-2" d="M85.32,86.79a1,1,0,0,1,.14.24.65.65,0,0,1,0,.28l-.16,0a.44.44,0,0,0,0-.2,1.13,1.13,0,0,0-.12-.21Zm.92,1.68h0L86,88.4a1.79,1.79,0,0,1-1.26-.7.22.22,0,0,1,0-.08,1.55,1.55,0,0,1-.22-.87s0-.1,0-.15l-.12,0-.22-.07a1,1,0,0,1-.7-.76l-.21.1c-.33.15-.69.31-.81.65l-.15,0a1.42,1.42,0,0,1,.9-.74l.3-.15.12-.07v.14c0,.35.29.59.62.73l.21.08.11,0a.9.9,0,0,1,.33-.46l0,0h0l.12,0,.13,0a.77.77,0,0,1,.7.16h0a1.43,1.43,0,0,1,.15.18,1.07,1.07,0,0,1,.13.21,1.18,1.18,0,0,1,0,1.23L86,87.57a1,1,0,0,0,0-1.07,1.18,1.18,0,0,0-.11-.19l-.14-.16h0a.61.61,0,0,0-.56-.12l-.11,0-.11,0,0,0a.78.78,0,0,0-.32.64,1.51,1.51,0,0,0,.2.78l0,.08h0a1.7,1.7,0,0,0,1.16.63l.29.07h0Zm-3.53-.93h.11l.1,0a.54.54,0,0,0,.37-.25h0a.31.31,0,0,0,0-.15.21.21,0,0,0-.08-.11.36.36,0,0,0-.19-.07.58.58,0,0,0-.39,0l-.08-.13a.87.87,0,0,1,.5-.08.69.69,0,0,1,.25.1.34.34,0,0,1,.14.21.48.48,0,0,1,0,.25h0a.67.67,0,0,1-.47.33.5.5,0,0,1-.13,0H82.7Zm2.06.47a3,3,0,0,0-1,0,7.08,7.08,0,0,0-1,.28l-.06-.14a5.55,5.55,0,0,1,1-.29,3.25,3.25,0,0,1,1.08,0Z"/>
      <path class="cls-2" d="M78.18,95a1,1,0,0,0-.39-.2.83.83,0,0,0-.49,0h0c-.22.07-.26.32-.3.56a1.43,1.43,0,0,1-.12.43h0c-.09.14-.27.09-.48,0a1.7,1.7,0,0,0-.22,0l0,.15h0a1.14,1.14,0,0,1-.16.31,1.44,1.44,0,0,0,1.32.24l.25-.1.23-.14h0a.8.8,0,0,1,.16-.08c.19-.09.41-.2.47-.43a.78.78,0,0,0,0-.43.79.79,0,0,0-.24-.35"/>
      <path class="cls-2" d="M72.35,94.63l-.13,0,.09.11a.35.35,0,0,1,.09.15s0,0,0,0h0a.73.73,0,0,1,.45.24l.09.07a.63.63,0,0,1,.22-.18.9.9,0,0,1,.27-.07,1.21,1.21,0,0,0-.9-.4,1,1,0,0,0-.24,0"/>
      <path class="cls-2" d="M93.75,99.05H80.1V91.3H93.75ZM79.4,83.15h9.16v6.77H79.4Zm-.82,12.7h0a.85.85,0,0,1-.56.53l-.14.07h0a1.65,1.65,0,0,1-.25.15l-.27.11a1.61,1.61,0,0,1-1.46-.26,1.8,1.8,0,0,1-.7.47,4.26,4.26,0,0,1-1.34.24V97a4.05,4.05,0,0,0,1.28-.22A1.4,1.4,0,0,0,76,96a1.46,1.46,0,0,0,0-.31.74.74,0,0,0-.06-.35h0l0-.06h0a.21.21,0,0,0,0-.06,2.17,2.17,0,0,0-.2-.26l-.13-.09-.13-.07a.85.85,0,0,0-.77.08h0a.35.35,0,0,0-.19.23.55.55,0,0,0,.07.33h0l-.14.07h0a.41.41,0,0,0-.15-.14,1.44,1.44,0,0,0-.47-.17.92.92,0,0,0-.5,0,.43.43,0,0,0-.21.19l0,.07-.07,0-.17-.14a.6.6,0,0,0-.35-.19.18.18,0,0,1-.2-.15h0a.31.31,0,0,0,0-.1,1,1,0,0,1-.14-.17.27.27,0,0,0-.24-.16h0l0,0-.06,0-.25-.14a2.88,2.88,0,0,0-.65-.13.71.71,0,0,0-.56.2,1.06,1.06,0,0,0-.27.89,4,4,0,0,0,.27,1l-.15,0a4.23,4.23,0,0,1-.27-1.06,1.21,1.21,0,0,1,.31-1,.92.92,0,0,1,.68-.25,3.25,3.25,0,0,1,.69.14h0l.27.15.06,0h0l0,0a.38.38,0,0,1,.27.13l.2,0,.26,0a1.41,1.41,0,0,1,1.06.51L73.6,95l.21,0a1.45,1.45,0,0,1,.52.19.81.81,0,0,1,0-.16.48.48,0,0,1,.26-.34,1,1,0,0,1,.91-.09l.16.08.14.11h0a1.94,1.94,0,0,1,.24.29l0,.07,0,.07h0a1,1,0,0,1,.08.41v0l.24,0h0c.15,0,.28.07.31,0h0a1.84,1.84,0,0,0,.1-.39c0-.28.09-.58.4-.68a1.15,1.15,0,0,1,.58,0,1.07,1.07,0,0,1,.45.23,1.1,1.1,0,0,1,.29.42.88.88,0,0,1,0,.51m-6.27.32c-.06-.22-.29-.35-.53-.48a1.89,1.89,0,0,1-.5-.33h0a.57.57,0,0,0-.16-.14.19.19,0,0,0-.11,0,1.21,1.21,0,0,0,0,.18,1.22,1.22,0,0,1,.09.46l-.16,0a1,1,0,0,0-.07-.39,1.29,1.29,0,0,1-.08-.28l0-.08h.08a.37.37,0,0,1,.28,0h0a.6.6,0,0,1,.21.17h0a2.18,2.18,0,0,0,.46.31c.27.14.54.29.61.57Zm-.29,1a.63.63,0,0,0-.24-.13.82.82,0,0,1-.35-.23s-.16,0-.26,0l-.06,0,0,0-.22.19a2.42,2.42,0,0,1-.76.49l0-.15a2.2,2.2,0,0,0,.71-.47l.23-.19h0l0,0,.08,0c.14-.07.35-.12.44,0a.7.7,0,0,0,.29.18.79.79,0,0,1,.29.17Zm-3.28,1.22h-.4V92h8.74v.4H68.74Zm-.93.62H67.4V91H77.86v.4h-10Zm-3.5-11.28a.8.8,0,0,1,0-.27.69.69,0,0,1,.14-.25l.11.1a.87.87,0,0,0-.1.19.85.85,0,0,0,0,.23Zm2.23-1.52-.13-.06a1,1,0,0,1-.71.76l-.23.07-.1,0s0,.11,0,.17a1.69,1.69,0,0,1-.21.88l0,.07h0a.83.83,0,0,1-.11.15,3,3,0,0,1,1.08,0,7,7,0,0,1,1,.31l0,.14a6.62,6.62,0,0,0-1-.29,3,3,0,0,0-1,0l0-.14a2.2,2.2,0,0,1-1.15.54l-.29.07h0l0-.15h0l.29-.07A1.81,1.81,0,0,0,65,88.09.16.16,0,0,0,65,88a1.55,1.55,0,0,0,.2-.79.76.76,0,0,0-.33-.64l0,0h0l-.09,0-.11,0a.64.64,0,0,0-.57.13h0a1.07,1.07,0,0,0-.14.16,1.18,1.18,0,0,0-.11.19,1,1,0,0,0,0,1.07l-.13.09a1.18,1.18,0,0,1,0-1.23,2,2,0,0,1,.12-.21,1.43,1.43,0,0,1,.15-.18h0a.81.81,0,0,1,.72-.17l.13,0,.12.06h0l0,0a.78.78,0,0,1,.34.44l.11,0,.21-.07c.33-.13.63-.37.61-.72V86l.12,0,.23.11c.4.17.83.35,1,.79l-.15,0c-.12-.37-.52-.54-.88-.7m.6,1.21a.63.63,0,0,0-.41,0,.44.44,0,0,0-.17.07.16.16,0,0,0-.08.1.22.22,0,0,0,0,.13.64.64,0,0,0,.6.3v.15a.78.78,0,0,1-.73-.37.37.37,0,0,1,0-.24.35.35,0,0,1,.14-.2.43.43,0,0,1,.23-.09.77.77,0,0,1,.52.06ZM65.47,97.54l-.18.09a1.8,1.8,0,0,1-.74.16h0l-.27,0a1.42,1.42,0,0,1-.91-.14c-.49-.3-.38-.77-.27-1.24a2,2,0,0,0,.09-.58h0s0,0-.08,0l0,0,0,0h0l.07-.14h0l0,0a.05.05,0,0,1,0,0c.09.06.16.14.16.18h0a2.29,2.29,0,0,1-.1.62c-.1.41-.19.82.2,1.07h0a1.31,1.31,0,0,0,.81.11h.29a1.85,1.85,0,0,0,.68-.15l.16-.08a1.56,1.56,0,0,0,.65-.67l.14.07a1.62,1.62,0,0,1-.71.73m-3.84-2.88c-.2-.13-.39-.26-.61-.18s-.3.41-.35.7a2.56,2.56,0,0,1-.05.27h0a1,1,0,0,1-.51.55l-.14.06-.14,0-.21,0a.69.69,0,0,1-.49-.18,1,1,0,0,1-.26-.47,2,2,0,0,1-.06-.35H59a1.64,1.64,0,0,0,.05.32.72.72,0,0,0,.22.39.48.48,0,0,0,.38.14l.17,0h0l.12,0,.12,0a.85.85,0,0,0,.43-.45h0a1.84,1.84,0,0,0,.05-.25c0-.33.11-.69.44-.83h0a.84.84,0,0,1,.75.2.92.92,0,0,0,.65.22l0,.16a1,1,0,0,1-.76-.25m.21,2.64a.92.92,0,0,1-.53.36l-.08,0a2.7,2.7,0,0,1-1.06,0,5.25,5.25,0,0,1-1-.28l-.4-.16h.49v0a4.66,4.66,0,0,0,.93.27,2.8,2.8,0,0,0,1,0l.07,0a.8.8,0,0,0,.45-.3.67.67,0,0,0,.11-.51s0,0,0-.06h0a.74.74,0,0,0-.22-.34,1.73,1.73,0,0,1-.17-.21.44.44,0,0,1,0-.49.35.35,0,0,1,.06-.09.41.41,0,0,1,.05-.09l0,0,.09.06h0a.18.18,0,0,0,0,.07.56.56,0,0,0,0,.08c-.06.12-.09.25,0,.33h0c0,.06.1.12.15.18a.77.77,0,0,1,.26.42s0,.05,0,.07a.8.8,0,0,1-.14.63m-4.2,1.29h-.4V92.73h7.51v.4H57.64Zm7.94-3a1.19,1.19,0,0,0,.31-.28l.13.08a1.17,1.17,0,0,1-.35.32l-.18.14a1.42,1.42,0,0,1-.72.28l-.35.07h0l-.19.07.1-.18a2,2,0,0,0,.29-.73.55.55,0,0,0-.28-.59.72.72,0,0,0-.65.06,1.32,1.32,0,0,1-.62.15l0-.15a1.21,1.21,0,0,0,.54-.14.82.82,0,0,1,.79-.06.7.7,0,0,1,.36.74,2.11,2.11,0,0,1-.22.64l.19,0a1.14,1.14,0,0,0,.64-.23h0c.06-.06.13-.1.19-.15m-8.85,3.6h-.41V91.73h8.9v.4H56.73ZM66.53,84v.41H62.85V89.2h-.41V84h4.09Zm-5-.82V83h5.78v.4H61.91v6.48h-.4Zm6.61,0V83H78.55v.4h-10v6.48h-.4Zm1.32,1.23V89.2H69V84h8.73v.41Zm1.87,3.52a.69.69,0,0,1-.38.33l0-.15a.54.54,0,0,0,.29-.27.62.62,0,0,1,.41-.34h.18a.49.49,0,0,1,.17,0,.87.87,0,0,1,.68.49l-.15.07a.72.72,0,0,0-.56-.41h-.14l-.15,0h0c-.15,0-.23.14-.31.27m4.8.17-.16,0a.75.75,0,0,1,.13-.6l0,0a2.82,2.82,0,0,1-2.06.09,2.21,2.21,0,0,1-.48-.25,2.48,2.48,0,0,1-.43-.37h0a.57.57,0,0,0-.26-.16h-.1l-.06,0a.22.22,0,0,0,0,.08c0,.3.21.59.52.79l.2.11.19.09h0l-.06.14h0l-.21-.09-.21-.12a1,1,0,0,1-.59-1h0a.31.31,0,0,1,.09-.16.3.3,0,0,1,.15-.07h.15a.66.66,0,0,1,.35.21h0a2.63,2.63,0,0,0,.41.35,1.91,1.91,0,0,0,.45.23,2.79,2.79,0,0,0,2.41-.33l.09.13h0a1.82,1.82,0,0,0-.4.38.62.62,0,0,0-.1.48m2-1.22a.46.46,0,0,1-.35-.31l0-.05a.92.92,0,0,0-.39-.66.68.68,0,0,0-.29,0,2.29,2.29,0,0,0-.34.07,1.76,1.76,0,0,0-.51.3,2.22,2.22,0,0,1-.35.25h0a1.85,1.85,0,0,1-1.4.14,4.35,4.35,0,0,1-1.31-.61,1.19,1.19,0,0,0-.51-.17h-.19a.83.83,0,0,0-.38.32,1.3,1.3,0,0,1-.32.3h0a1,1,0,0,1-.35.06.7.7,0,0,0-.37.07h0c-.13.08-.14.24-.15.39a.58.58,0,0,1-.13.41h0l-.2.15-.2.14h0a.29.29,0,0,0-.09.21,1.51,1.51,0,0,0,0,.3l-.16,0a1.9,1.9,0,0,1,0-.34.4.4,0,0,1,.16-.31l.2-.15.19-.14a.45.45,0,0,0,.09-.3.56.56,0,0,1,.21-.51.85.85,0,0,1,.45-.1.91.91,0,0,0,.3,0,1.1,1.1,0,0,0,.27-.26,1,1,0,0,1,.45-.37h0l.12,0h.12a1.14,1.14,0,0,1,.57.19h0a4.44,4.44,0,0,0,1.27.59,1.69,1.69,0,0,0,1.28-.13,2.54,2.54,0,0,0,.34-.23,1.79,1.79,0,0,1,.55-.33h0a1.33,1.33,0,0,1,.38-.07.78.78,0,0,1,.37,0h0a1.1,1.1,0,0,1,.47.76l0,0h0c0,.11.12.17.25.2a1.51,1.51,0,0,0,.48,0v.16a1.84,1.84,0,0,1-.53-.06M77,88h0l-.09.17-.13-.08a1.19,1.19,0,0,0,.08-.16c.14-.26.29-.55.61-.55a1,1,0,0,1,.47.15,1.36,1.36,0,0,0,.33.14l0,.15a1.37,1.37,0,0,1-.37-.15,1,1,0,0,0-.4-.14c-.22,0-.35.25-.47.47m12.22,2.65V82.3H60.55v8.31H55.36v9.23h39V90.61Z"/>
    </g>
    <path class="cls-2" d="M80.53,89.08h6.75V84.3H80.53Zm-.25.12V84.05h7.24v5.27H80.28Z"/>
    <path class="cls-2" d="M81.58,97.81H92.44V92.43H81.58Zm-.24.13V92.18H92.68v5.88H81.34Z"/>
    <path class="cls-2" d="M59.45,113.13c0,1.36,0,1.72-.42,2a18,18,0,0,1-3,1.46l.24-.83c.41-.13,1-.4,2-.78s.54-3,.54-3.51-.07-.58-.32-.65h-6a21.47,21.47,0,0,0,.25-4.31c0-1.19.07-2.57.07-2.57,1.11-.92-.58-.69-.58-.69L52,101.62c.11.3,1.38.25,1.62.2.5-.06.48.34.27.47-.44.29-.29.61-.44,1.46-.05.17-.09,6-.09,6v.34h6.19c-.34.44-.14,1.67-.14,3.06M54,108.68v-.4s0-4.06,0-4.27c.2-1,.29-2,.82-2.32.23-.16.27-.6-.31-.53-.31,0-2.75.2-3.21-.21l-.52,2.68s1.63-.15.31.94a9.9,9.9,0,0,1,.09,1.79c0,1.39,0,4.65-.31,5.27h6.59c.31.07.38.23.38.76s.4,1.88-.69,2.26a6.08,6.08,0,0,1-2.17.47l-.47,2.63a25.15,25.15,0,0,0,3.73-1.47c.76-.54,1.86-.94,1.86-2.55s0-4.51.38-5Z"/>
  </g>
</svg>
