<svg id="Layer_1" data-name="Layer 1" xmlns="http://www.w3.org/2000/svg" viewBox="0 0 150 150">
  <defs>
    <style>
      .cls-1 {
        fill: #b5c0cc;
      }

      .cls-2 {
        fill: #d7dde4;
      }
    </style>
  </defs>
  <g id="Group_299" data-name="Group 299">
    <path id="Path_18" data-name="Path 18" class="cls-1" d="M74.83,15.47a2.12,2.12,0,0,0-2.12,1.91c-.62,7.09-2.49,20-7.86,26.7-6.68,8.34-8.38,11.75-8.8,14H60.5c.66-1.93,2.53-5,7.67-11.39,4.5-5.59,7.62-15.92,8.76-28.93a2.11,2.11,0,0,0-2.1-2.29Z"/>
    <path id="Path_19" data-name="Path 19" class="cls-2" d="M48,91.88a4.11,4.11,0,0,0-5.1-.79,10.86,10.86,0,0,0-4.25,4.75,14.66,14.66,0,0,0-1,2.4,6.68,6.68,0,0,0,1.19,6.69,5.6,5.6,0,0,0,6.84-.74,19.42,19.42,0,0,0,3.41-4.25c.33-1.44.64-2.91.92-4.24a.5.5,0,0,1-.1-.19A9.84,9.84,0,0,0,48,91.88Z"/>
    <path id="Path_20" data-name="Path 20" class="cls-1" d="M77.12,79.16v4.25a19.86,19.86,0,0,0,17-20,16.89,16.89,0,0,0-.21-2.84,20.46,20.46,0,0,0-4.67-10.62,1.9,1.9,0,0,0-2.12-.55A2.12,2.12,0,0,0,85.73,52a2,2,0,0,0,.35.67,16.22,16.22,0,0,1,3.44,7,17.17,17.17,0,0,1,.33,3.72A15.58,15.58,0,0,1,77.12,79.16Z"/>
    <path id="Path_21" data-name="Path 21" class="cls-2" d="M130.18,62.37H98.35v1.07a24.06,24.06,0,0,1-21.23,24.4V90a2.13,2.13,0,0,1-4.25,0V73a2.13,2.13,0,1,1,4.25,0v1.89a11.47,11.47,0,0,0,8.49-11.45,9.37,9.37,0,0,0,0-1.06H19.82a4.24,4.24,0,0,0-4.25,4.24h0v63.67a4.24,4.24,0,0,0,4.24,4.24H130.18a4.24,4.24,0,0,0,4.25-4.24h0V66.62a4.24,4.24,0,0,0-4.24-4.25Zm-104,67.92H21.94a2.13,2.13,0,0,1,0-4.25h4.24a2.13,2.13,0,0,1,0,4.25Zm1.07-19.52a18.68,18.68,0,0,1-2.74-14.69A24.53,24.53,0,0,1,35.38,80.69a21.51,21.51,0,0,1,17.74-2.55,17.77,17.77,0,0,1,12,16.37,17,17,0,0,1-3.8,11.91,9,9,0,0,1-9,3.39,5.4,5.4,0,0,1-3.4-2.4l-.1-.25-.19.18a10.83,10.83,0,0,1-7.07,2.72,8.29,8.29,0,0,1-5.33-1.87c-3.43-2.86-3.54-7.79-2.59-11.14a19,19,0,0,1,1.28-3.18A14.83,14.83,0,0,1,41,87.31,8.49,8.49,0,0,1,51.21,89l.13.15A2.23,2.23,0,1,1,55.73,89h0c0,.36-1.59,9.27-3.14,15.39a1.08,1.08,0,0,0,0,.83,1.13,1.13,0,0,0,.75.46,5.11,5.11,0,0,0,4.68-2,12.93,12.93,0,0,0,2.8-9,13.53,13.53,0,0,0-9-12.53A17,17,0,0,0,37.6,84.32a20.25,20.25,0,0,0-9,12.73,14.33,14.33,0,0,0,8.94,16.79c7.92,3,19.4,2.25,25.11-5.1a2.13,2.13,0,0,1,3.38,2.44,23.63,23.63,0,0,1-19.1,8.5,30.91,30.91,0,0,1-10.89-2,18.66,18.66,0,0,1-8.83-6.94Zm43.51,19.52H34.67a2.13,2.13,0,1,1,0-4.25h36.1a2.13,2.13,0,0,1,0,4.25Zm55.18-12.73H85.61a2.13,2.13,0,1,1,0-4.25h40.34a2.13,2.13,0,1,1,0,4.25Zm0-10.61H85.61a2.13,2.13,0,1,1,0-4.25h40.34a2.13,2.13,0,1,1,0,4.25Zm0-10.62H85.61a2.13,2.13,0,1,1,0-4.25h40.34a2.13,2.13,0,0,1,0,4.25Zm0-10.61H102.59a2.13,2.13,0,1,1,0-4.25h23.35a2.13,2.13,0,1,1,0,4.25h0Z"/>
  </g>
</svg>
