<svg id="Layer_1" data-name="Layer 1" xmlns="http://www.w3.org/2000/svg" viewBox="0 0 150 150">
  <defs>
    <style>
      .cls-1 {
        fill: #b5c0cc;
      }

      .cls-2 {
        fill: #d7dde4;
      }
    </style>
  </defs>
  <g id="Group_326" data-name="Group 326">
    <g id="Group_296" data-name="Group 296">
      <path id="Path_311" data-name="Path 311" class="cls-1" d="M117.81,117.53a1.89,1.89,0,0,0,1.89-1.89V110a1.89,1.89,0,0,0-3.78,0h0v5.67a1.89,1.89,0,0,0,1.89,1.89Z"/>
      <path id="Path_312" data-name="Path 312" class="cls-1" d="M117.81,130.76a1.89,1.89,0,0,0,1.89-1.89h0V123.2a1.89,1.89,0,1,0-3.78,0v5.67a1.89,1.89,0,0,0,1.89,1.89Z"/>
      <path id="Path_313" data-name="Path 313" class="cls-1" d="M121.59,121.3h5.67a1.89,1.89,0,1,0,0-3.78h-5.67a1.89,1.89,0,0,0,0,3.78Z"/>
      <path id="Path_314" data-name="Path 314" class="cls-1" d="M108.36,121.3H114a1.89,1.89,0,0,0,0-3.78h-5.67a1.89,1.89,0,1,0,0,3.78Z"/>
      <path id="Path_315" data-name="Path 315" class="cls-1" d="M44.1,33.42A6.61,6.61,0,1,1,50.71,40h0A6.61,6.61,0,0,1,44.1,33.42Zm3.78,0a2.84,2.84,0,1,0,2.83-2.83h0a2.83,2.83,0,0,0-2.83,2.83Z"/>
      <path id="Path_316" data-name="Path 316" class="cls-1" d="M30.87,28.69a1.89,1.89,0,0,0,3.78,0,1.9,1.9,0,0,0-1.89-1.9h0A1.89,1.89,0,0,0,30.87,28.69Z"/>
      <path id="Path_317" data-name="Path 317" class="cls-1" d="M89.46,125.09a1.89,1.89,0,1,0,1.89-1.89A1.89,1.89,0,0,0,89.46,125.09Z"/>
      <path id="Path_318" data-name="Path 318" class="cls-1" d="M83.79,21.13a1.89,1.89,0,1,0,1.89-1.89h0A1.89,1.89,0,0,0,83.79,21.13Z"/>
    </g>
    <g id="Group_325" data-name="Group 325">
      <g id="Group_324" data-name="Group 324">
        <g id="Group_323" data-name="Group 323">
          <path id="Path_42" data-name="Path 42" class="cls-2" d="M68.53,39.69V42a23.68,23.68,0,0,1,5,.07,3.14,3.14,0,0,1,2.31,1.74l4.4,9.39a3,3,0,0,1,1.45.8,4.17,4.17,0,0,0,1.89,1.1,4.08,4.08,0,0,0,3.88-1,3.1,3.1,0,1,1,4.42,4.34,10.21,10.21,0,0,1-7.27,3h-.53L90,74c.25.54.48,1.07.71,1.61a19.45,19.45,0,0,1,19.54,4.7,3.15,3.15,0,0,1,.21,4.33,3.1,3.1,0,0,1-4.37.26.8.8,0,0,1-.13-.13,13.29,13.29,0,0,0-13.3-3.28,41,41,0,0,1-.17,20.61c.84.28,1.69.53,2.56.74a6.34,6.34,0,0,0,3.06,0,34.91,34.91,0,0,0,26.52-33.9V39.69a3.46,3.46,0,0,0-2.24-3.25c-4.27-1.6-12.52-3.78-25.8-3.78S75,34.84,70.78,36.44a3.47,3.47,0,0,0-2.25,3.25ZM102.78,54a3.1,3.1,0,0,1,4.38,0,4.07,4.07,0,0,0,5.77,0h0a3.1,3.1,0,1,1,4.54,4.22c0,.06-.11.11-.16.16a10.28,10.28,0,0,1-14.54,0h0a3.1,3.1,0,0,1,0-4.38Z"/>
          <path id="Path_43" data-name="Path 43" class="cls-2" d="M84.38,76.6,71.9,50a3.22,3.22,0,0,0-3.19-1.86c-4.5.34-12.95,1.83-25.12,7.54S25,66.82,21.83,70.09a3.46,3.46,0,0,0-.65,3.9l12.41,26.44A34.91,34.91,0,0,0,72,119.86a6.18,6.18,0,0,0,2.76-1.3,34.92,34.92,0,0,0,9.62-42Zm-25.07-2a10.28,10.28,0,0,1,13.16-6.17,3.1,3.1,0,0,1-2.1,5.82,4.09,4.09,0,0,0-5.23,2.46,3.1,3.1,0,0,1-5.91-1.9,1.8,1.8,0,0,1,.08-.21Zm-12,10.46a4.09,4.09,0,0,0-5.23,2.46,3.1,3.1,0,0,1-5.92-1.87l.09-.23a10.28,10.28,0,0,1,13.16-6.18h0a3.1,3.1,0,1,1-1.92,5.89l-.18-.06Zm10.4,20.25a19.45,19.45,0,0,1-6.59-1.15,3.1,3.1,0,0,1,2.1-5.83,13.27,13.27,0,0,0,17-8,3.1,3.1,0,0,1,5.89,1.93,1.34,1.34,0,0,1-.07.18,19.48,19.48,0,0,1-18.3,12.84Z"/>
        </g>
      </g>
    </g>
  </g>
</svg>
