<svg id="Layer_1" data-name="Layer 1" xmlns="http://www.w3.org/2000/svg" viewBox="0 0 150 150">
  <defs>
    <style>
      .cls-1 {
        fill: #d7dde4;
      }

      .cls-1, .cls-2 {
        fill-rule: evenodd;
      }

      .cls-2 {
        fill: #b5c0cc;
      }
    </style>
  </defs>
  <g id="Group_371" data-name="Group 371">
    <path id="Path_103" data-name="Path 103" class="cls-1" d="M24.56,79.77l6.86,5.16-2.18,38h9.92l1.65-32.35H45l2,32.35h9.31l-1.46-38-.78-23.19,22.68-.38,4.89-8.59-25.48-1.2H44.75L45.6,53l-1.13,2.28,2.45,17.47-3.81,3.88v.31L43,76.79l-.14.15v-.31L39,72.75l2.45-17.47L40.32,53l.84-1.43H29.8L24.56,79.76ZM43.12,27.1A10.85,10.85,0,1,0,54,38h0A10.84,10.84,0,0,0,43.12,27.1ZM68.88,117h33.18v5.87H68.88ZM89.77,98.14v17.09H80.3V98.14H62.4V91.25h56.14V37h-59v-6.9h65.88v68Z"/>
    <path id="Path_104" data-name="Path 104" class="cls-2" d="M67.08,74.31l9.81-3.42.78-.27.7.44,7.41,4.66,6.13-17.57.94-2.68,1.94,2.07,5.6,6,8.19-14.08,3,1.72-9.35,16.08-1.17,2-1.58-1.68L94.23,62,88.33,78.9l-.73,2-1.83-1.16-8.53-5.36-9,3.14-1.13-3.24Z"/>
  </g>
</svg>
