<svg id="Layer_1" data-name="Layer 1" xmlns="http://www.w3.org/2000/svg" viewBox="0 50 400 300">
  <defs>
    <style>
      .cls-1 {
        fill: #0068f5;
      }

    </style>
  </defs>
  <defs>
  </defs>
  <g id="Group_371" data-name="Group 371">

  <path class="cls-1" d="M310.42,142.68c-4.95.61-11.29,4.43-11.29,4.43S292,143.2,281,143.89a72.43,72.43,0,0,0-18.59,3.48s-10.94-8.43-15.29-4.35,1.65,31.11,3,34.93a29.81,29.81,0,0,0,1.48,3.82S218.77,160.49,178.29,165,121.65,210.7,123,229.64,138.33,284,138.33,284l14.07,1.39s9.73-26.23,38.22-37.7,35.62,5.56,35.62,12.51.87,25.84,2.78,30.06,13.12,2,13.12,2-4.52-24.85,8.51-31.8,12.17,14.77,14.43,19.46,18.07,4.52,18.07,4.52-6.43-23.63,9.2-49.69,19.46-36.14,22.5-64.16A29,29,0,0,0,320.24,154C320.24,144.07,315.38,142.07,310.42,142.68Zm-39.36,30.69a4.58,4.58,0,0,1-5.88.49,5.89,5.89,0,0,1-.62-.52,4.61,4.61,0,1,1,6.5,0Zm26,0a4.58,4.58,0,0,1-5.88.49,5.89,5.89,0,0,1-.62-.52,4.61,4.61,0,1,1,6.5,0Z"/><path class="cls-1" d="M123.91,210.57S122.17,219.43,97,230,57.36,250.18,55.8,266.34s52.64,3.3,60.11-10.07-.87-27.46,8-45.7Z"/>
  </g>
  </svg>