<svg xmlns="http://www.w3.org/2000/svg" width="59" height="59" viewBox="0 0 59 59">
  <g id="settings" transform="translate(0.5 0.5)">
    <g id="Group_767" data-name="Group 767" transform="translate(0 19.333)">
      <g id="Group_766" data-name="Group 766">
        <path id="Path_1007" data-name="Path 1007" d="M35.767,174.5H34.7a.951.951,0,0,1-.9-.624c-.118-.309-.245-.612-.381-.912a.953.953,0,0,1,.193-1.079l.758-.759a2.907,2.907,0,0,0,0-4.1L31.642,164.3a2.907,2.907,0,0,0-4.1,0l-.758.757a.957.957,0,0,1-1.079.193c-.3-.136-.6-.263-.913-.387a.95.95,0,0,1-.627-.9V162.9a2.9,2.9,0,0,0-2.9-2.9H17.4a2.9,2.9,0,0,0-2.9,2.9v1.063a.951.951,0,0,1-.624.9c-.309.118-.612.245-.912.381a.956.956,0,0,1-1.079-.193l-.759-.758a2.907,2.907,0,0,0-4.1,0L4.3,167.029a2.907,2.907,0,0,0,0,4.1l.757.758a.953.953,0,0,1,.193,1.079c-.136.3-.263.6-.382.913a.95.95,0,0,1-.9.624H2.9A2.9,2.9,0,0,0,0,177.4v3.867a2.9,2.9,0,0,0,2.9,2.9H3.963a.951.951,0,0,1,.9.624c.118.309.245.612.381.912a.953.953,0,0,1-.193,1.079l-.758.759a2.907,2.907,0,0,0,0,4.1L7.02,194.37a2.907,2.907,0,0,0,4.1,0l.758-.757a.957.957,0,0,1,1.079-.193c.3.136.6.263.913.387a.95.95,0,0,1,.632.9v1.063a2.9,2.9,0,0,0,2.9,2.9h3.867a2.9,2.9,0,0,0,2.9-2.9V194.7a.951.951,0,0,1,.624-.9c.309-.118.612-.245.912-.381a.956.956,0,0,1,1.079.193l.759.758a2.908,2.908,0,0,0,4.1,0l2.732-2.732a2.907,2.907,0,0,0,0-4.1l-.757-.758a.953.953,0,0,1-.193-1.079c.136-.3.263-.6.387-.913a.95.95,0,0,1,.9-.627h1.063a2.9,2.9,0,0,0,2.9-2.9V177.4A2.9,2.9,0,0,0,35.767,174.5Zm.967,6.767a.967.967,0,0,1-.967.967H34.7A2.91,2.91,0,0,0,32,184.1q-.154.406-.333.8a2.909,2.909,0,0,0,.58,3.244L33,188.9a.967.967,0,0,1,0,1.367h0L30.268,193a.967.967,0,0,1-1.367,0l-.758-.757a2.906,2.906,0,0,0-3.244-.58c-.262.119-.529.23-.8.333a2.909,2.909,0,0,0-1.869,2.7v1.063a.967.967,0,0,1-.967.967H17.4a.967.967,0,0,1-.967-.967V194.7A2.91,2.91,0,0,0,14.564,192q-.406-.154-.8-.333a2.91,2.91,0,0,0-3.244.58L9.763,193A.967.967,0,0,1,8.4,193h0l-2.732-2.729a.967.967,0,0,1,0-1.367l.757-.758A2.909,2.909,0,0,0,7,184.9c-.119-.262-.23-.529-.333-.8a2.909,2.909,0,0,0-2.7-1.871H2.9a.967.967,0,0,1-.967-.967V177.4a.967.967,0,0,1,.967-.967H3.963a2.91,2.91,0,0,0,2.707-1.87q.154-.406.333-.8a2.909,2.909,0,0,0-.58-3.244l-.76-.757a.967.967,0,0,1,0-1.367h0l2.732-2.732a.967.967,0,0,1,1.367,0l.758.757a2.906,2.906,0,0,0,3.244.58c.262-.119.529-.23.8-.333a2.909,2.909,0,0,0,1.872-2.7V162.9a.967.967,0,0,1,.967-.967h3.867a.967.967,0,0,1,.967.967v1.063a2.91,2.91,0,0,0,1.87,2.707q.406.154.8.333a2.906,2.906,0,0,0,3.244-.58l.757-.756a.972.972,0,0,1,1.368,0L33,168.4a.967.967,0,0,1,0,1.367l-.757.758a2.909,2.909,0,0,0-.58,3.244c.119.262.23.529.333.8a2.909,2.909,0,0,0,2.7,1.869h1.063a.967.967,0,0,1,.967.967Z" transform="translate(0 -160)" fill="#fff"/>
        <path id="Path_1007_-_Outline" data-name="Path 1007 - Outline" d="M17.4,159.5h3.867a3.4,3.4,0,0,1,3.4,3.4v1.063a.452.452,0,0,0,.3.427l.015.006c.347.138.653.268.934.4a.458.458,0,0,0,.518-.091l.759-.758a3.407,3.407,0,0,1,4.8,0l2.733,2.733a3.415,3.415,0,0,1,.006,4.8l-.759.76a.455.455,0,0,0-.094.515c.143.314.275.63.395.944l0,.006a.453.453,0,0,0,.424.3h1.065a3.4,3.4,0,0,1,3.4,3.4v3.867a3.4,3.4,0,0,1-3.4,3.4H34.7a.453.453,0,0,0-.427.3l-.006.015c-.139.348-.268.654-.4.934a.456.456,0,0,0,.09.517l.759.76a3.415,3.415,0,0,1,0,4.8l-2.733,2.733a3.408,3.408,0,0,1-4.8.006l-.76-.759a.456.456,0,0,0-.516-.093c-.313.142-.629.275-.943.394l-.006,0a.453.453,0,0,0-.3.425v1.064a3.4,3.4,0,0,1-3.4,3.4H17.4a3.4,3.4,0,0,1-3.4-3.4V194.7a.451.451,0,0,0-.3-.426l-.018-.007c-.348-.139-.653-.268-.934-.4a.458.458,0,0,0-.518.091l-.759.758a3.407,3.407,0,0,1-4.8,0l-2.733-2.733a3.416,3.416,0,0,1,0-4.8l.759-.76a.455.455,0,0,0,.094-.515c-.143-.314-.275-.63-.395-.944l0-.006a.453.453,0,0,0-.424-.3H2.9a3.4,3.4,0,0,1-3.4-3.4V177.4A3.4,3.4,0,0,1,2.9,174H3.968a.453.453,0,0,0,.427-.3l0-.007c.123-.321.252-.629.394-.941a.456.456,0,0,0-.09-.517l-.759-.76a3.415,3.415,0,0,1,0-4.8l2.732-2.741a3.407,3.407,0,0,1,4.8,0l.76.759a.456.456,0,0,0,.516.093c.313-.142.629-.274.943-.394l.006,0a.453.453,0,0,0,.3-.425V162.9A3.4,3.4,0,0,1,17.4,159.5Zm7.216,5.828a1.454,1.454,0,0,1-.949-1.366V162.9a2.4,2.4,0,0,0-2.4-2.4H17.4a2.4,2.4,0,0,0-2.4,2.4v1.063a1.455,1.455,0,0,1-.949,1.363c-.294.112-.59.236-.88.368a1.456,1.456,0,0,1-1.64-.3l-.758-.757a2.407,2.407,0,0,0-3.392,0l-2.73,2.739a2.412,2.412,0,0,0,0,3.393l.756.757a1.456,1.456,0,0,1,.293,1.643c-.131.288-.252.576-.367.878a1.455,1.455,0,0,1-1.36.948H2.9a2.4,2.4,0,0,0-2.4,2.4v3.867a2.4,2.4,0,0,0,2.4,2.4H3.963a1.457,1.457,0,0,1,1.364.949c.112.294.236.59.368.88a1.456,1.456,0,0,1-.3,1.641l-.756.757a2.412,2.412,0,0,0,0,3.392l2.731,2.731a2.407,2.407,0,0,0,3.393,0l.757-.756a1.457,1.457,0,0,1,1.642-.294c.262.119.551.242.88.373A1.453,1.453,0,0,1,15,194.7v1.062a2.4,2.4,0,0,0,2.4,2.4h3.867a2.4,2.4,0,0,0,2.4-2.4V194.7a1.455,1.455,0,0,1,.948-1.363c.294-.112.59-.236.881-.368a1.456,1.456,0,0,1,1.64.3l.758.757a2.408,2.408,0,0,0,3.392-.005l2.731-2.731a2.412,2.412,0,0,0,0-3.393l-.756-.757a1.456,1.456,0,0,1-.293-1.643c.119-.261.241-.55.373-.88a1.454,1.454,0,0,1,1.361-.949h1.067a2.4,2.4,0,0,0,2.4-2.4V177.4a2.4,2.4,0,0,0-2.4-2.4H34.7a1.457,1.457,0,0,1-1.363-.949c-.112-.294-.236-.59-.368-.88a1.456,1.456,0,0,1,.3-1.641l.756-.757a2.412,2.412,0,0,0-.005-3.392l-2.731-2.731a2.407,2.407,0,0,0-3.393,0l-.757.756a1.457,1.457,0,0,1-1.642.294C25.234,165.582,24.945,165.459,24.616,165.328ZM17.4,161.433h3.867a1.468,1.468,0,0,1,1.467,1.467v1.063a2.424,2.424,0,0,0,1.548,2.24c.278.105.557.221.828.344a2.405,2.405,0,0,0,2.686-.48l.755-.754a1.472,1.472,0,0,1,2.073,0l2.734,2.734a1.469,1.469,0,0,1,0,2.074l-.757.758a2.422,2.422,0,0,0-.478,2.685c.122.269.238.547.344.826a2.424,2.424,0,0,0,2.24,1.547h1.061a1.468,1.468,0,0,1,1.467,1.467v3.867a1.468,1.468,0,0,1-1.467,1.467H34.7a2.424,2.424,0,0,0-2.24,1.548c-.105.278-.221.557-.344.828A2.422,2.422,0,0,0,32.6,187.8l.754.755a1.467,1.467,0,0,1,.008,2.066l-.011.011-2.729,2.729a1.467,1.467,0,0,1-2.074,0l-.758-.757a2.406,2.406,0,0,0-2.684-.478c-.269.122-.547.238-.826.344a2.424,2.424,0,0,0-1.547,2.24v1.061a1.468,1.468,0,0,1-1.467,1.467H17.4a1.468,1.468,0,0,1-1.467-1.467V194.7a2.424,2.424,0,0,0-1.548-2.24c-.278-.105-.557-.221-.828-.344a2.409,2.409,0,0,0-2.686.481l-.755.754a1.467,1.467,0,0,1-2.061.014l-.014-.014L5.31,190.625a1.468,1.468,0,0,1,0-2.074l.757-.758a2.422,2.422,0,0,0,.478-2.685c-.122-.269-.238-.547-.344-.826a2.424,2.424,0,0,0-2.24-1.55H2.9a1.468,1.468,0,0,1-1.467-1.467V177.4A1.468,1.468,0,0,1,2.9,175.933H3.963a2.424,2.424,0,0,0,2.24-1.548c.105-.278.221-.557.344-.828a2.423,2.423,0,0,0-.481-2.686l-.757-.754a1.467,1.467,0,0,1,0-2.075l2.733-2.733a1.467,1.467,0,0,1,2.074,0l.758.757a2.405,2.405,0,0,0,2.684.478c.27-.123.548-.238.826-.344a2.424,2.424,0,0,0,1.551-2.24V162.9A1.468,1.468,0,0,1,17.4,161.433Zm8.7,6.329a3.382,3.382,0,0,1-1.407-.3c-.251-.114-.51-.222-.77-.32a3.432,3.432,0,0,1-2.193-3.172V162.9a.467.467,0,0,0-.467-.467H17.4a.467.467,0,0,0-.467.467v1.063a3.431,3.431,0,0,1-2.194,3.172c-.259.1-.517.207-.769.321a3.405,3.405,0,0,1-3.8-.68l-.76-.759a.467.467,0,0,0-.66,0L6,168.763a.467.467,0,0,0,.013.647l.759.756a3.43,3.43,0,0,1,.683,3.8c-.114.252-.222.51-.32.77a3.432,3.432,0,0,1-3.172,2.193H2.9a.467.467,0,0,0-.467.467v3.867a.467.467,0,0,0,.467.467H3.963a3.431,3.431,0,0,1,3.172,2.193c.1.26.207.518.321.769a3.429,3.429,0,0,1-.68,3.8l-.759.76a.467.467,0,0,0,0,.66l2.732,2.729a.467.467,0,0,0,.66,0l.757-.756a3.409,3.409,0,0,1,3.8-.682c.252.114.511.222.77.32a3.432,3.432,0,0,1,2.193,3.172v1.065a.467.467,0,0,0,.467.467h3.867a.467.467,0,0,0,.467-.467V194.7a3.431,3.431,0,0,1,2.19-3.172c.26-.1.519-.207.77-.321a3.405,3.405,0,0,1,3.8.68l.76.759a.467.467,0,0,0,.66,0l2.732-2.732a.467.467,0,0,0,0-.66l-.756-.757a3.429,3.429,0,0,1-.682-3.8c.114-.252.222-.511.32-.77a3.432,3.432,0,0,1,3.172-2.193h1.065a.467.467,0,0,0,.467-.467V177.4a.467.467,0,0,0-.467-.467H34.7a3.431,3.431,0,0,1-3.172-2.19c-.1-.26-.207-.519-.321-.77a3.429,3.429,0,0,1,.68-3.8l.759-.76a.467.467,0,0,0,0-.66l-2.732-2.732a.473.473,0,0,0-.663,0l-.755.754A3.388,3.388,0,0,1,26.1,167.762Z" transform="translate(0 -160)" fill="#fff"/>
      </g>
    </g>
    <g id="Group_769" data-name="Group 769" transform="translate(10.628 29.967)">
      <g id="Group_768" data-name="Group 768">
        <path id="Path_1008" data-name="Path 1008" d="M105.344,256.313c-.01-.232-.026-.463-.054-.693-.031-.247-.068-.493-.119-.734-.034-.158-.078-.313-.121-.47q-.081-.3-.183-.589c-.047-.134-.1-.268-.147-.4a8.619,8.619,0,0,0-.426-.9c-.013-.022-.02-.046-.033-.069a8.573,8.573,0,0,0-.87-1.267c-.028-.035-.06-.068-.089-.1-.133-.158-.271-.31-.415-.456-.075-.078-.155-.152-.234-.227-.1-.09-.193-.179-.29-.264q-.176-.153-.359-.3l-.159-.118A8.639,8.639,0,0,0,96.664,248c-.1,0-.193.015-.29.018-.206.006-.413.017-.621.039-.109.012-.219.024-.329.04a8.865,8.865,0,0,0-.937.175,8.7,8.7,0,0,0,.007,16.858.225.225,0,0,1,.048.009,9.223,9.223,0,0,0,1.013.193c.225.028.45.034.677.044.151.008.29.03.448.03.275,0,.562-.018.854-.047a.946.946,0,0,0,.1-.013c.235-.026.473-.061.715-.109.1-.018.187-.043.279-.064.17-.04.339-.081.513-.132.135-.041.267-.088.4-.134s.27-.1.407-.149.252-.112.377-.17c.162-.074.324-.148.483-.235h.006a11.438,11.438,0,0,0,2.478-1.789,3.044,3.044,0,0,0,.518-.634,10.319,10.319,0,0,0,1.456-3.973c.027-.187.051-.373.066-.564.014-.175.023-.349.027-.523,0-.055.008-.107.008-.162C105.364,256.57,105.35,256.445,105.344,256.313Zm-1.927.633c0,.08-.007.16-.012.24-.017.234-.047.468-.087.7a6.781,6.781,0,0,1-3.4,4.737c-.12.063-.238.122-.356.176l-.08.039a6.985,6.985,0,0,1-1.763.534c-.043.007-.086.014-.13.02-.121.017-.24.032-.358.043-.156.014-.312.021-.472.024h-.2a6.829,6.829,0,0,1-.684-.043l-.116-.014a7.168,7.168,0,0,1-.79-.149,6.767,6.767,0,0,1-.007-13.109h0a7,7,0,0,1,1.7-.213,6.672,6.672,0,0,1,.826.056c.073.009.146.022.218.033.209.033.416.074.62.127.067.017.133.033.2.051a6.825,6.825,0,0,1,1.474.621c.074.044.147.089.22.134.153.1.3.193.447.3.078.057.158.113.233.174a6.981,6.981,0,0,1,.544.483c.069.07.131.146.2.218.111.121.219.245.323.375.072.09.14.183.208.276.1.139.193.284.28.431l.146.241a6.636,6.636,0,0,1,.333.709c.039.1.072.193.106.29.063.178.117.358.164.539.024.1.051.183.072.276a6.812,6.812,0,0,1,.123.792c.006.071.006.142.011.213C103.422,256.5,103.426,256.722,103.418,256.946Z" transform="translate(-87.959 -248)" fill="#fff"/>
        <path id="Path_1008_-_Outline" data-name="Path 1008 - Outline" d="M96.664,247.5h0a9.2,9.2,0,0,1,5.479,1.824l.167.124c.128.1.255.2.378.312s.214.193.3.275l.048.045c.066.063.135.128.2.2.143.145.287.3.438.482l.025.028c.024.026.047.053.069.08a9.093,9.093,0,0,1,.919,1.339.836.836,0,0,1,.039.079h0a9.151,9.151,0,0,1,.448.952l0,.009c.057.15.106.285.151.411.072.2.137.414.194.624l.021.077c.037.135.075.274.106.419.048.226.088.473.126.777.028.227.046.466.058.734,0,.041,0,.083.007.124.006.088.012.187.011.294,0,.042,0,.082-.005.114,0,.015,0,.03,0,.045v.011c0,.173-.013.353-.028.55-.017.221-.046.435-.069.6a10.755,10.755,0,0,1-1.526,4.166,3.536,3.536,0,0,1-.6.735,11.931,11.931,0,0,1-2.583,1.864l-.111.059h-.008c-.13.067-.259.125-.384.183l-.014.007-.089.042c-.1.047-.2.095-.318.141-.144.055-.285.106-.42.153l-.055.019c-.117.041-.238.084-.366.122-.2.059-.387.1-.544.141l-.086.02c-.067.016-.136.033-.213.048-.238.047-.486.085-.754.115l-.009,0a.873.873,0,0,1-.11.013c-.331.032-.621.048-.886.048-.118,0-.225-.01-.319-.018-.054-.005-.105-.01-.154-.012l-.116-.005c-.192-.008-.391-.017-.6-.042a9.777,9.777,0,0,1-1.048-.2h-.016l-.061-.016a9.2,9.2,0,0,1-.007-17.826l.007,0a9.389,9.389,0,0,1,.99-.185c.121-.017.246-.031.341-.041.206-.021.42-.034.656-.041l.1-.007C96.515,247.506,96.586,247.5,96.664,247.5Zm5.039,2.74-.154-.114a8.192,8.192,0,0,0-4.881-1.626V248l0,.5c-.034,0-.078,0-.125.008s-.093.008-.145.01h-.006c-.213.006-.4.018-.584.036-.085.009-.2.022-.31.037a8.428,8.428,0,0,0-.885.165,8.2,8.2,0,0,0-.024,15.88c.029,0,.052.01.067.014l.011,0a8.758,8.758,0,0,0,.958.183c.161.02.331.027.512.035l.122.005c.072,0,.135.01.2.015.083.008.155.014.227.014.236,0,.5-.015.8-.045l.025,0,.065-.01c.24-.027.46-.06.673-.1.057-.011.112-.024.169-.038l.1-.023c.141-.033.311-.074.484-.125.1-.031.208-.068.319-.107l.056-.02c.126-.044.259-.093.394-.144.082-.031.16-.068.242-.108l.1-.048.017-.008c.153-.07.3-.137.438-.213l.112-.061h.006a10.942,10.942,0,0,0,2.26-1.652,2.554,2.554,0,0,0,.436-.533,9.766,9.766,0,0,0,1.387-3.784c.022-.155.047-.339.062-.529s.022-.339.026-.492c0-.043,0-.08.005-.11,0-.015,0-.03,0-.045,0-.074,0-.147-.009-.225,0-.049-.006-.1-.009-.147-.01-.242-.027-.456-.051-.655-.034-.273-.07-.493-.112-.69-.025-.117-.058-.237-.093-.364l-.021-.078c-.051-.187-.109-.373-.172-.555-.041-.116-.087-.242-.141-.383a8.148,8.148,0,0,0-.4-.846c-.017-.031-.029-.058-.036-.075h0a8.1,8.1,0,0,0-.813-1.183l0-.005c-.011-.014-.023-.027-.035-.04l-.044-.049c-.138-.163-.265-.3-.391-.431l0,0c-.053-.055-.111-.11-.173-.169l-.043-.041c-.083-.078-.182-.168-.278-.253S101.815,250.328,101.7,250.24Zm-5.039-.807a7.2,7.2,0,0,1,.889.06c.056.007.11.015.157.023l.073.011h.005c.231.036.455.082.666.136l.075.019.135.035a7.343,7.343,0,0,1,1.586.667l.006,0c.065.038.129.077.193.117l.043.026c.151.1.313.2.477.324l.037.027c.069.05.14.1.212.16a7.487,7.487,0,0,1,.581.516l.005.005c.052.053.1.1.142.155l.068.076c.133.144.246.276.347.4.066.083.135.174.221.294l.005.007c.123.177.218.324.3.462l.064.105.08.133.011.019a7.167,7.167,0,0,1,.358.762c.033.081.06.16.087.236l.025.07c.066.186.125.381.178.583v0c.009.035.018.068.027.1.016.06.033.122.049.192a7.341,7.341,0,0,1,.132.85v.006c0,.046.006.092.007.139,0,.027,0,.054,0,.081.015.248.018.487.01.714,0,.076-.005.147-.009.211l0,.056c-.018.241-.048.486-.093.749v.005a7.251,7.251,0,0,1-3.647,5.086l-.01.005c-.137.072-.26.132-.375.185l-.087.042a7.488,7.488,0,0,1-1.889.572l-.04.007-.1.015c-.136.02-.261.034-.381.045-.166.014-.331.023-.507.026h-.217a7.351,7.351,0,0,1-.735-.046L95.7,263.9a7.711,7.711,0,0,1-.845-.159,7.267,7.267,0,0,1-.387-13.971v-.013l.378-.1A7.505,7.505,0,0,1,96.663,249.433Zm.97,1.083-.084-.013c-.039-.006-.078-.013-.118-.017h-.006a6.194,6.194,0,0,0-.765-.052,6.5,6.5,0,0,0-1.5.18l-.068.018a6.267,6.267,0,0,0,.006,12.14,6.671,6.671,0,0,0,.728.137l.112.013c.206.023.418.037.629.039h.195c.152,0,.293-.01.433-.022.1-.009.21-.022.33-.039h.006l.073-.011.044-.007a6.482,6.482,0,0,0,1.629-.493l.084-.04c.1-.045.206-.1.328-.162a6.255,6.255,0,0,0,3.141-4.382c.039-.23.065-.444.081-.653l0-.049c0-.056.007-.109.007-.155v-.019a6.179,6.179,0,0,0-.008-.62c0-.033,0-.071-.005-.108s0-.06,0-.09a6.337,6.337,0,0,0-.113-.73c-.009-.043-.022-.088-.036-.139s-.021-.078-.032-.119c-.045-.173-.1-.34-.151-.5l-.026-.072c-.025-.07-.048-.136-.074-.2a6.164,6.164,0,0,0-.3-.646l-.071-.118-.069-.113c-.07-.119-.152-.245-.26-.4-.076-.105-.135-.184-.191-.254-.087-.11-.182-.22-.3-.348l-.082-.092c-.036-.041-.07-.079-.1-.112a6.5,6.5,0,0,0-.5-.446c-.054-.044-.112-.085-.173-.13l-.05-.036c-.135-.1-.277-.194-.411-.279l-.037-.023c-.056-.034-.111-.069-.168-.1a6.333,6.333,0,0,0-1.364-.574l-.1-.027-.083-.021C98.024,250.587,97.832,250.548,97.633,250.516Z" transform="translate(-87.959 -248)" fill="#fff"/>
      </g>
    </g>
    <g id="Group_771" data-name="Group 771" transform="translate(10.544)">
      <g id="Group_770" data-name="Group 770">
        <path id="Path_1009" data-name="Path 1009" d="M131.817,20.3h-3.04a.944.944,0,0,1-.9-.634,20.132,20.132,0,0,0-1.086-2.621.946.946,0,0,1,.186-1.091l2.156-2.159a2.9,2.9,0,0,0,0-4.1l-4.11-4.1a2.9,2.9,0,0,0-4.1,0l-2.155,2.154a.946.946,0,0,1-1.09.187,20.082,20.082,0,0,0-2.622-1.091.943.943,0,0,1-.638-.9V2.9a2.9,2.9,0,0,0-2.9-2.9h-5.8a2.9,2.9,0,0,0-2.9,2.9V5.94a.943.943,0,0,1-.634.9,20.146,20.146,0,0,0-2.621,1.09.944.944,0,0,1-1.091-.186L96.312,5.59a2.906,2.906,0,0,0-4.1,0l-4.1,4.1a2.9,2.9,0,0,0,0,4.1l3.17,3.176A.967.967,0,0,0,92.649,15.6l-3.172-3.175a.967.967,0,0,1,0-1.367l4.1-4.1a.967.967,0,0,1,1.367,0l2.16,2.156a2.874,2.874,0,0,0,3.321.545,18.289,18.289,0,0,1,2.369-.985,2.876,2.876,0,0,0,1.954-2.736V2.9a.967.967,0,0,1,.967-.967h5.8a.967.967,0,0,1,.967.967V5.94a2.875,2.875,0,0,0,1.954,2.735,18.233,18.233,0,0,1,2.37.986,2.881,2.881,0,0,0,3.321-.546l2.16-2.155a.967.967,0,0,1,1.367,0l4.1,4.1a.967.967,0,0,1,0,1.366l-2.156,2.16a2.877,2.877,0,0,0-.545,3.321,18.292,18.292,0,0,1,.985,2.369,2.875,2.875,0,0,0,2.736,1.954h3.04a.967.967,0,0,1,.967.967V29a.967.967,0,0,1-.967.967h-3.04a2.875,2.875,0,0,0-2.735,1.954,18.22,18.22,0,0,1-.986,2.37,2.878,2.878,0,0,0,.546,3.321l2.156,2.16a.967.967,0,0,1,0,1.367l-4.1,4.1a.967.967,0,0,1-1.366,0l-3.176-3.17a.967.967,0,0,0-1.389,1.345l.024.024,3.175,3.17a2.9,2.9,0,0,0,4.1,0l4.1-4.1a2.9,2.9,0,0,0,0-4.1l-2.153-2.157a.947.947,0,0,1-.187-1.09,20.081,20.081,0,0,0,1.091-2.622.943.943,0,0,1,.9-.638h3.04a2.9,2.9,0,0,0,2.9-2.9V23.2A2.9,2.9,0,0,0,131.817,20.3Z" transform="translate(-87.261)" fill="#fff"/>
        <path id="Path_1009_-_Outline" data-name="Path 1009 - Outline" d="M105.717-.5h5.8a3.4,3.4,0,0,1,3.4,3.4V5.94a.444.444,0,0,0,.3.428A20.641,20.641,0,0,1,117.9,7.484a.446.446,0,0,0,.513-.089l2.158-2.157a3.4,3.4,0,0,1,4.807,0l4.11,4.1a3.4,3.4,0,0,1,0,4.807l-2.156,2.158a.447.447,0,0,0-.091.518,20.688,20.688,0,0,1,1.11,2.68.444.444,0,0,0,.418.3h3.05a3.4,3.4,0,0,1,3.4,3.4V29a3.4,3.4,0,0,1-3.4,3.4h-3.04l-.008-.5v.5a.443.443,0,0,0-.419.3,20.637,20.637,0,0,1-1.116,2.681.447.447,0,0,0,.089.513l2.156,2.16a3.4,3.4,0,0,1,0,4.807l-4.1,4.1a3.4,3.4,0,0,1-4.807,0L117.4,43.8l-.032-.032a1.467,1.467,0,0,1,2.1-2.044l3.174,3.167a.467.467,0,0,0,.659,0l4.1-4.1a.467.467,0,0,0,0-.66l-2.156-2.16a3.373,3.373,0,0,1-.64-3.9,17.785,17.785,0,0,0,.96-2.307,3.373,3.373,0,0,1,3.2-2.295h3.052a.467.467,0,0,0,.467-.467V23.2a.467.467,0,0,0-.467-.467h-3.053a3.373,3.373,0,0,1-3.2-2.293,17.858,17.858,0,0,0-.958-2.306,3.372,3.372,0,0,1,.64-3.9l2.155-2.158a.467.467,0,0,0,0-.659l-4.1-4.1a.467.467,0,0,0-.66,0l-2.16,2.155a3.358,3.358,0,0,1-2.394.993,3.4,3.4,0,0,1-1.5-.353,17.8,17.8,0,0,0-2.307-.96,3.371,3.371,0,0,1-2.295-3.211V2.9a.467.467,0,0,0-.467-.467h-5.8a.467.467,0,0,0-.467.467V5.94a3.371,3.371,0,0,1-2.293,3.209,17.856,17.856,0,0,0-2.306.959,3.39,3.39,0,0,1-1.506.355,3.352,3.352,0,0,1-2.393-1L94.593,7.314a.467.467,0,0,0-.66,0l-4.1,4.1a.467.467,0,0,0,0,.66l3.178,3.181a1.467,1.467,0,0,1-2.077,2.071l-.006-.006-3.17-3.176a3.4,3.4,0,0,1,0-4.807l4.1-4.1a3.406,3.406,0,0,1,4.806,0l2.159,2.156a.444.444,0,0,0,.517.091,20.7,20.7,0,0,1,2.679-1.115.443.443,0,0,0,.3-.423V2.9A3.4,3.4,0,0,1,105.717-.5Zm12.375,9.029a1.454,1.454,0,0,1-.635-.147l0,0A19.648,19.648,0,0,0,114.9,7.315a1.442,1.442,0,0,1-.979-1.379V2.9a2.4,2.4,0,0,0-2.4-2.4h-5.8a2.4,2.4,0,0,0-2.4,2.4V5.938a1.442,1.442,0,0,1-.97,1.375l0,0a19.714,19.714,0,0,0-2.556,1.063A1.444,1.444,0,0,1,98.114,8.1L95.959,5.944a2.406,2.406,0,0,0-3.394,0l-4.1,4.1a2.4,2.4,0,0,0,0,3.394l3.167,3.172a.467.467,0,0,0,.661-.659l-3.168-3.171a1.468,1.468,0,0,1,0-2.074l4.1-4.1a1.467,1.467,0,0,1,2.074,0l2.159,2.155a2.36,2.36,0,0,0,1.686.7,2.385,2.385,0,0,0,1.059-.25A18.854,18.854,0,0,1,102.638,8.2a2.372,2.372,0,0,0,1.613-2.26V2.9a1.468,1.468,0,0,1,1.467-1.467h5.8A1.468,1.468,0,0,1,112.984,2.9V5.94A2.372,2.372,0,0,0,114.6,8.2a18.793,18.793,0,0,1,2.434,1.013,2.38,2.38,0,0,0,2.742-.452l2.16-2.156a1.467,1.467,0,0,1,2.074,0l4.1,4.1a1.469,1.469,0,0,1,0,2.073l-2.156,2.16a2.374,2.374,0,0,0-.452,2.745,18.853,18.853,0,0,1,1.012,2.433,2.373,2.373,0,0,0,2.249,1.613h3.053a1.468,1.468,0,0,1,1.467,1.467V29a1.468,1.468,0,0,1-1.467,1.467h-3.052a2.373,2.373,0,0,0-2.249,1.614,18.78,18.78,0,0,1-1.013,2.434,2.374,2.374,0,0,0,.452,2.742l2.157,2.161a1.468,1.468,0,0,1,0,2.074l-4.1,4.1a1.467,1.467,0,0,1-2.073,0l-3.182-3.176a.467.467,0,1,0-.67.649l.013.013.005.005,3.175,3.17a2.4,2.4,0,0,0,3.393,0l4.1-4.1a2.4,2.4,0,0,0,0-3.394L126.617,36.6a1.445,1.445,0,0,1-.282-1.663l0-.005a19.648,19.648,0,0,0,1.064-2.556,1.444,1.444,0,0,1,1.366-.979h3.049a2.4,2.4,0,0,0,2.4-2.4V23.2a2.4,2.4,0,0,0-2.4-2.4h-3.05a1.445,1.445,0,0,1-1.364-.97l0-.006a19.7,19.7,0,0,0-1.059-2.556,1.445,1.445,0,0,1,.282-1.671l2.153-2.156a2.4,2.4,0,0,0,0-3.393l-4.11-4.1a2.4,2.4,0,0,0-3.393,0L119.121,8.1A1.453,1.453,0,0,1,118.092,8.529Z" transform="translate(-87.261)" fill="#fff"/>
      </g>
    </g>
    <g id="Group_773" data-name="Group 773" transform="translate(22.743 13.539)">
      <g id="Group_772" data-name="Group 772">
        <path id="Path_1010" data-name="Path 1010" d="M206.261,115.724a12.579,12.579,0,0,0-17.771,0,.967.967,0,0,0,1.367,1.367A10.633,10.633,0,1,1,205,132.028l-.1.1a.967.967,0,1,0,1.343,1.391l.024-.024A12.579,12.579,0,0,0,206.261,115.724Z" transform="translate(-188.219 -112.049)" fill="#fff"/>
        <path id="Path_1010_-_Outline" data-name="Path 1010 - Outline" d="M197.376,111.549a13.066,13.066,0,0,1,9.242,22.3l-.032.032a1.467,1.467,0,0,1-2.041-2.107l.094-.094a10.133,10.133,0,1,0-14.426-14.235l-.009.008a1.467,1.467,0,0,1-2.074-2.074l.007-.007A13,13,0,0,1,197.376,111.549Zm8.19,21.741a.464.464,0,0,0,.324-.131l.012-.012,0,0a12.066,12.066,0,0,0-17.06-17.068.467.467,0,0,0,.659.661,11.055,11.055,0,0,1,7.92-3.309h0a11.133,11.133,0,0,1,7.924,18.953l-.105.106,0,0a.467.467,0,0,0,.324.8Z" transform="translate(-188.219 -112.049)" fill="#fff"/>
      </g>
    </g>
  </g>
</svg>
