<svg xmlns="http://www.w3.org/2000/svg" width="49.001" height="48.999" viewBox="0 0 49.001 48.999">
  <g id="Layer_16" data-name="Layer 16" transform="translate(0 -0.001)">
    <path id="Path_1046" data-name="Path 1046" d="M48.235,33.438a.766.766,0,0,0-.766.766.766.766,0,0,1-.766.766H35.985a.766.766,0,0,1-.766-.766V29.609a.766.766,0,0,1,.766-.766.766.766,0,1,0,0-1.531,2.282,2.282,0,0,0-1.531.6,2.282,2.282,0,0,0-1.531-.6H9.188a.766.766,0,0,1-.766-.766V21.953a.766.766,0,0,1,.766-.766H22.2a.766.766,0,1,0,0-1.531H16.078a.766.766,0,0,1-.766-.766V14.3a.766.766,0,0,1,.766-.766h1.531a.766.766,0,0,0,0-1.531H16.078a2.282,2.282,0,0,0-1.531.6,2.282,2.282,0,0,0-1.531-.6H2.3A2.3,2.3,0,0,0,0,14.3v4.594a2.282,2.282,0,0,0,.6,1.531A2.282,2.282,0,0,0,0,21.953v4.594a2.282,2.282,0,0,0,.6,1.531A2.282,2.282,0,0,0,0,29.609V34.2a2.282,2.282,0,0,0,.6,1.531A2.282,2.282,0,0,0,0,37.266v4.594a2.282,2.282,0,0,0,.6,1.531A2.282,2.282,0,0,0,0,44.922v4.594a2.3,2.3,0,0,0,2.3,2.3H13.016a2.282,2.282,0,0,0,1.531-.6,2.282,2.282,0,0,0,1.531.6H32.922a2.282,2.282,0,0,0,1.531-.6,2.282,2.282,0,0,0,1.531.6H46.7a2.3,2.3,0,0,0,2.3-2.3V44.922a2.282,2.282,0,0,0-.6-1.531,2.282,2.282,0,0,0,.6-1.531V37.266a2.282,2.282,0,0,0-.6-1.531A2.282,2.282,0,0,0,49,34.2.766.766,0,0,0,48.235,33.438ZM46.7,36.5a.766.766,0,0,1,.766.766v4.594a.766.766,0,0,1-.766.766H42.875a.766.766,0,0,1-.766-.766V37.266a.766.766,0,0,1,.766-.766Zm-6.891,0a.766.766,0,0,1,.766.766v4.594a.766.766,0,0,1-.766.766H29.094a.766.766,0,0,1-.766-.766V37.266a.766.766,0,0,1,.766-.766Zm-6.891-7.656a.766.766,0,0,1,.766.766V34.2a.766.766,0,0,1-.766.766H22.2a.766.766,0,0,0,0,1.531h3.828a.766.766,0,0,1,.766.766v4.594a.766.766,0,0,1-.766.766H9.188a.766.766,0,0,1-.766-.766V37.266a.766.766,0,0,1,.766-.766h9.953a.766.766,0,0,0,0-1.531H16.078a.766.766,0,0,1-.766-.766V29.609a.766.766,0,0,1,.766-.766ZM1.531,41.859V37.266A.766.766,0,0,1,2.3,36.5H6.125a.766.766,0,0,1,.766.766v4.594a.766.766,0,0,1-.766.766H2.3A.766.766,0,0,1,1.531,41.859ZM13.016,28.844a.766.766,0,0,1,.766.766V34.2a.766.766,0,0,1-.766.766H2.3a.766.766,0,0,1-.766-.766V29.609a.766.766,0,0,1,.766-.766Zm-11.484-2.3V21.953a.766.766,0,0,1,.766-.766H6.125a.766.766,0,0,1,.766.766v4.594a.766.766,0,0,1-.766.766H2.3A.766.766,0,0,1,1.531,26.547Zm0-12.25a.766.766,0,0,1,.766-.766H13.016a.766.766,0,0,1,.766.766v4.594a.766.766,0,0,1-.766.766H2.3a.766.766,0,0,1-.766-.766ZM13.016,50.281H2.3a.766.766,0,0,1-.766-.766V44.922a.766.766,0,0,1,.766-.766H13.016a.766.766,0,0,1,.766.766v4.594A.766.766,0,0,1,13.016,50.281Zm19.906,0H16.078a.766.766,0,0,1-.766-.766V44.922a.766.766,0,0,1,.766-.766H32.922a.766.766,0,0,1,.766.766v4.594A.766.766,0,0,1,32.922,50.281Zm14.547-.766a.766.766,0,0,1-.766.766H35.985a.766.766,0,0,1-.766-.766V44.922a.766.766,0,0,1,.766-.766H46.7a.766.766,0,0,1,.766.766Z" transform="translate(0 -2.812)" fill="#050c27"/>
    <path id="Path_1047" data-name="Path 1047" d="M31.5,21.923a3.855,3.855,0,0,0,2.86,2.174,4,4,0,0,0,.684.06,3.847,3.847,0,0,0,2.733-1.145l2.964-2.964,2.243,2.243-.567.567a.766.766,0,0,0,0,1.083l5.543,5.542a3.9,3.9,0,0,0,5.519-5.519l-5.542-5.542a.766.766,0,0,0-1.083,0l-.567.567-2.243-2.243,2.964-2.965A3.9,3.9,0,0,0,45.924,7.5L39.641,4.526a.766.766,0,1,0-.655,1.383l6.283,2.976A2.373,2.373,0,0,1,45.93,12.7l-2.964,2.964-1.675-1.675a2.39,2.39,0,0,0-3.3,0,2.334,2.334,0,0,0,0,3.3l1.675,1.675L36.7,21.929a2.373,2.373,0,0,1-3.817-.662L25.762,6.225a2.373,2.373,0,0,1,.466-2.69l1.309-1.309a2.369,2.369,0,0,1,2.688-.465l5.7,2.7a.766.766,0,1,0,.655-1.383l-5.7-2.7a3.9,3.9,0,0,0-4.428.766L25.144,2.45a3.9,3.9,0,0,0-.766,4.428Zm20.9,3.126A2.373,2.373,0,1,1,49.054,28.4l-5-5L47.4,20.048ZM38.839,15.641a.8.8,0,0,1,1.369-.567l5,5-1.134,1.134-5-5A.8.8,0,0,1,38.839,15.641Z" transform="translate(-5.626 0)" fill="#050c27"/>
  </g>
</svg>
