<svg xmlns="http://www.w3.org/2000/svg" viewBox="0 0 150 150" xmlns:v="https://vecta.io/nano"><path d="M116.83,23.33v77.09s.44,18.38-22.44,20.91c-1.36.16-15.72-.15-19.39,5.34-3.65-5.49-18-5.18-19.39-5.34-22.86-2.53-22.44-20.91-22.44-20.91V23.33Z" fill="#fff"/><g fill="#2966ff"><path d="M48.94 109.49c-.06.45-.15.54-.61.24a6 6 0 0 1-2-2.06 14.41 14.41 0 0 0 2.19 1.38c.46.07.55 0 .46.44m.64-1s-4-1-4.38-3.15a5.21 5.21 0 0 1 .57-2.89s1.18-.24 1.29-.7a1.08 1.08 0 0 0-.61-1.34 1 1 0 0 0-1.32.37c-.39.51-.17.86-.17.86s.74 1-.55 1.86a14.88 14.88 0 0 1-.81-3.83 31.37 31.37 0 0 1 2.47-5.48L48 91.35c0 4.18-2.89 7.9-2.89 7.9 4-2.36 4.33-7.9 4.33-8.76a24.38 24.38 0 0 0-.48-3.08 56.58 56.58 0 0 0-3.59 5.36 27.83 27.83 0 0 0-1.77 4.31V93.3a12.11 12.11 0 0 1 1.68-2.37 1 1 0 0 0 .94-.41c.27-.49.33-1.25-.3-1.49s-1.34.44-1.34.44a1.69 1.69 0 0 0 .07 1.22l-1 .94v-3.44A34.23 34.23 0 0 1 46.07 83l1.89-2.87c0 4.18-2.89 7.9-2.89 7.9 4-2.34 4.11-8 4.11-8.89s-.26-2.93-.26-2.93a43.08 43.08 0 0 0-3.74 5.12 26.59 26.59 0 0 0-1.62 4.23V82.1a12.11 12.11 0 0 1 1.68-2.37 1 1 0 0 0 .94-.41c.27-.48.33-1.25-.3-1.49s-1.34.44-1.34.44a1.68 1.68 0 0 0 .07 1.22l-1 .94v-3.52a34.11 34.11 0 0 1 2.47-5.17l1.89-2.86c0 4.18-2.89 7.9-2.89 7.9 4-2.34 4.33-7.9 4.33-8.74a24.38 24.38 0 0 0-.49-3.04 40.65 40.65 0 0 0-3.59 5 29.37 29.37 0 0 0-1.77 4.37v-3.45a12.11 12.11 0 0 1 1.68-2.37 1 1 0 0 0 .94-.42c.27-.48.33-1.24-.3-1.48s-1.34.43-1.34.43a1.71 1.71 0 0 0 .07 1.23l-1 .94v-3A23.76 23.76 0 0 1 45.86 61l1.42-2.32a12.08 12.08 0 0 1-2.36 7.05c4-2.34 3.87-6.68 3.87-7.51l-.11-3.63A31.12 31.12 0 0 0 45 59.15a28.52 28.52 0 0 0-1.46 4.47v-3.39a14.84 14.84 0 0 1 1.07-2.15s.74.26 1-.18.48-1-.24-1.42-1.25.22-1.25.22a1.3 1.3 0 0 0 0 1.07l-.65.79v-2.45a17.66 17.66 0 0 1 1.95-5.26l1.73-2.78a11.06 11.06 0 0 1-2.21 6.77A11 11 0 0 0 49.18 47c0-.83-.26-3.35-.26-3.35a35.45 35.45 0 0 0-4.05 5 13.52 13.52 0 0 0-1.31 4.84v-3.77a13 13 0 0 1 .83-1.84.72.72 0 0 0 .81-.33.93.93 0 0 0-.46-1.27c-.61-.33-.88.13-.88.13a1.76 1.76 0 0 0 0 1.23l-.51.41v-2.47a24.29 24.29 0 0 1 2.23-5.08c.6-1 2.1-2.87 2.1-2.87a10.21 10.21 0 0 1-2.27 6.62 7.21 7.21 0 0 0 3.72-6.92 9.41 9.41 0 0 0-.26-2.89s-3.44 3.08-4.27 4.75a34.74 34.74 0 0 0-1.73 5.1q0-7.62 0-15.24c1.59 2.77 1.48 5.41 1.33 8.54a24.67 24.67 0 0 0 .94-4.31 7.35 7.35 0 0 0-1.29-4.38 23.42 23.42 0 0 1-1.07-2.78 8.56 8.56 0 0 1-1 2.84 9.42 9.42 0 0 0-1.14 4.49c-.07 1.69 1.57 5.72 1.71 5.94.17.37.06 5.31.06 5.31a13.77 13.77 0 0 1-3.11-3.08 13.35 13.35 0 0 1-1.38-4.31l1.65 1.77a26.87 26.87 0 0 1 2.07 3.08c.31-3.34-4.85-7.64-4.85-7.64s-.42 5.7 1.38 8.43c1.2 1.86 4.39 3.2 4.39 3.2v2.12l-.76-.48a1.65 1.65 0 0 0-.07-1.22s-.76-.62-1.38-.31-.43 1.07-.15 1.53 1 .31 1 .31a6.32 6.32 0 0 1 1.29 1.55c.15.38.06 5.78.06 5.78a11.42 11.42 0 0 1-2.88-3.28 15.73 15.73 0 0 1-1.6-4l1.84 1.6a18.89 18.89 0 0 1 1.72 2.82c.31-3.35-4.85-8.14-4.85-8.14s-.31 5.63 1.38 8.45a10.59 10.59 0 0 0 4.39 3.61v2.08l-1.13-.83a1.86 1.86 0 0 0-.07-1.23s-.76-.59-1.38-.3-.46 1.07-.15 1.53 1 .31 1 .31a12.14 12.14 0 0 1 1.69 2.12c.15.37.06 5.78.06 5.78a12 12 0 0 1-2.88-3.26 16.17 16.17 0 0 1-1.6-4l1.84 1.58a18.89 18.89 0 0 1 1.72 2.82c.31-3.35-4.85-8.14-4.85-8.14s-.31 5.62 1.38 8.45a10.55 10.55 0 0 0 4.35 3.6l-.05 2.21-1.13-.83a1.86 1.86 0 0 0-.07-1.23s-.76-.59-1.38-.28-.46 1-.15 1.51 1 .3 1 .3a12.31 12.31 0 0 1 1.69 2.13c.15.37.06 5.78.06 5.78a12 12 0 0 1-2.88-3.26 16 16 0 0 1-1.6-4l1.84 1.6a18 18 0 0 1 1.72 2.8c.31-3.35-4.85-8.15-4.85-8.15s-.33 5.59 1.36 8.42a10.66 10.66 0 0 0 4.39 3.65v2.8l-1.13-.83a1.83 1.83 0 0 0-.07-1.22s-.76-.6-1.38-.31-.46 1.07-.15 1.53 1 .31 1 .31a12.55 12.55 0 0 1 1.69 2.12c.15.37.06 5.78.06 5.78a11.83 11.83 0 0 1-2.88-3.26 16 16 0 0 1-1.6-4l1.84 1.58a18.89 18.89 0 0 1 1.72 2.82c.31-3.35-4.85-8.14-4.85-8.14s-.31 5.62 1.38 8.45a10.17 10.17 0 0 0 4.39 3.57v2.8l-1.13-.83a1.77 1.77 0 0 0-.07-1.2s-.76-.62-1.38-.31-.46 1-.15 1.51 1 .31 1 .31a13.45 13.45 0 0 1 1.69 2.12c.15.39.06 5.78.06 5.78a12 12 0 0 1-2.88-3.26 15.73 15.73 0 0 1-1.6-4l1.84 1.6a19 19 0 0 1 1.72 2.8c.31-3.33-4.85-8.12-4.85-8.12s-.31 5.62 1.38 8.42a10.67 10.67 0 0 0 4.55 3.66l.46 3.5c-1.38-.76-1.07-1.38-1.07-1.38a1.2 1.2 0 0 0-.31-1.07c-.44-.44-.9-.74-1.51-.44s-.31.9-.16 1.36.92.77.92.77a24.47 24.47 0 0 0 2.65 2.28 10.81 10.81 0 0 0 6.92 6.69zm52.27 1.1c-.46.31-.53.22-.62-.25s0-.37.46-.44a13.18 13.18 0 0 0 2.23-1.39 5.81 5.81 0 0 1-2.07 2.08m7.62-17.11a23.12 23.12 0 0 0-1.79 4.35v-3.82a11.29 11.29 0 0 1 1.68-2.39 1 1 0 0 0 1-.42c.24-.48.33-1.26-.31-1.5s-1.35.44-1.35.44a1.81 1.81 0 0 0 0 1.24l-1 1v-3.47a35.83 35.83 0 0 1 2.51-5.21l1.9-2.89c0 4.22-2.91 8-2.91 8 4.06-2.36 4.13-8.12 4.13-9s-.27-3-.27-3a44.59 44.59 0 0 0-3.75 5.19 23.37 23.37 0 0 0-1.63 4.27v-3.49a11.56 11.56 0 0 1 1.68-2.39 1.06 1.06 0 0 0 1-.42c.24-.48.33-1.26-.31-1.5s-1.35.44-1.35.44a1.81 1.81 0 0 0 0 1.24l-1 .95v-3.55a35.26 35.26 0 0 1 2.52-5.21l1.89-2.9c0 4.22-2.91 8-2.91 8 4.06-2.36 4.37-8 4.37-8.81a23.74 23.74 0 0 0-.51-3.11 42.09 42.09 0 0 0-3.59 5 24.64 24.64 0 0 0-1.79 4.42v-3.49A11.44 11.44 0 0 1 109.4 68a1.08 1.08 0 0 0 1-.42c.24-.49.33-1.26-.31-1.51s-1.35.45-1.35.45a1.79 1.79 0 0 0 0 1.23l-1 1v-3a25.56 25.56 0 0 1 2.26-5.33l1.46-2.34a12.17 12.17 0 0 1-2.38 7.11c4.06-2.36 3.9-6.73 3.9-7.57l-.11-3.67a30.24 30.24 0 0 0-3.68 4.64 24.71 24.71 0 0 0-1.48 4.5v-3.42a13 13 0 0 1 1.08-2.16s.73.26 1-.18.49-1-.22-1.43-1.25.22-1.25.22a1.21 1.21 0 0 0 0 1.08l-.68.79v-2.47a17.24 17.24 0 0 1 2-5.3l1.74-2.8a11.13 11.13 0 0 1-2.23 6.82 11 11 0 0 0 4.13-7.9c0-.84-.27-3.38-.27-3.38A35.36 35.36 0 0 0 109 48a13.24 13.24 0 0 0-1.32 4.88v-3.79a10.8 10.8 0 0 1 .84-1.86.71.71 0 0 0 .81-.33 1 1 0 0 0-.46-1.28c-.62-.33-.88.13-.88.13a1.63 1.63 0 0 0 0 1.24l-.53.42v-2.5a23.44 23.44 0 0 1 2.23-5.12c.6-1 2.14-2.89 2.14-2.89a10.21 10.21 0 0 1-2.32 6.67 7.31 7.31 0 0 0 3.78-7 9.25 9.25 0 0 0-.27-2.91s-3.47 3.11-4.3 4.79a35.35 35.35 0 0 0-1.72 5.17q0-7.68 0-15.36c1.62 2.77 1.51 5.46 1.34 8.61a24.05 24.05 0 0 0 1-4.35A7.79 7.79 0 0 0 108 28.1a23.85 23.85 0 0 1-1.08-2.8 8.47 8.47 0 0 1-1.08 2.87 10.2 10.2 0 0 0-1.15 4.53c0 1.7 1.61 5.76 1.72 6a49.34 49.34 0 0 1 .09 5.36 15.22 15.22 0 0 1-3.16-3.11 13 13 0 0 1-1.34-4.37l1.65 1.79a30.36 30.36 0 0 1 2.1 3.11c.31-3.38-4.9-7.7-4.9-7.7s-.42 5.74 1.37 8.5c1.23 1.87 4.45 3.22 4.45 3.22v2.14l-.77-.49a1.83 1.83 0 0 0-.06-1.23s-.78-.62-1.4-.31-.46 1.08-.15 1.54a1 1 0 0 0 1 .31 6.07 6.07 0 0 1 1.26 1.54c.15.38.08 5.83.08 5.83a12.12 12.12 0 0 1-2.91-3.31 16.25 16.25 0 0 1-1.61-4.06l1.83 1.61a18.15 18.15 0 0 1 1.77 2.93c.31-3.38-4.9-8.22-4.9-8.22s-.31 5.68 1.37 8.52a10.92 10.92 0 0 0 4.45 3.65V58l-1.14-.83a1.75 1.75 0 0 0-.09-1.24s-.77-.6-1.37-.31-.46 1.08-.15 1.55 1 .3 1 .3a12.06 12.06 0 0 1 1.68 2.14c.15.38.08 5.83.08 5.83a12.12 12.12 0 0 1-2.91-3.29 16.4 16.4 0 0 1-1.61-4.06l1.83 1.59a18.15 18.15 0 0 1 1.77 2.85c.31-3.38-4.9-8.21-4.9-8.21s-.31 5.67 1.37 8.52a10.81 10.81 0 0 0 4.5 3.66l-.05 2.23-1.14-.84a1.72 1.72 0 0 0-.09-1.23s-.77-.6-1.37-.29-.46 1.06-.15 1.52a1 1 0 0 0 1 .31 12.06 12.06 0 0 1 1.68 2.14c.15.38.08 5.83.08 5.83a12.27 12.27 0 0 1-2.91-3.29 16.4 16.4 0 0 1-1.61-4.06l1.83 1.61a17.31 17.31 0 0 1 1.77 2.83c.31-3.38-4.9-8.22-4.9-8.22s-.31 5.68 1.37 8.53a10.93 10.93 0 0 0 4.45 3.68v2.83l-1.14-.84a1.75 1.75 0 0 0-.11-1.24s-.77-.59-1.37-.31-.46 1.09-.15 1.55a1 1 0 0 0 1 .31 12.06 12.06 0 0 1 1.68 2.14c.15.38.08 5.83.08 5.83a12.42 12.42 0 0 1-2.91-3.29 16.55 16.55 0 0 1-1.61-4.06l1.83 1.59a17.72 17.72 0 0 1 1.77 2.84c.31-3.37-4.9-8.21-4.9-8.21s-.31 5.68 1.37 8.52a10.34 10.34 0 0 0 4.45 3.6v2.83l-1.14-.84a1.7 1.7 0 0 0-.09-1.22s-.77-.61-1.37-.3-.46 1.06-.15 1.52a1 1 0 0 0 1 .31 12.87 12.87 0 0 1 1.68 2.14c.15.4.08 5.83.08 5.83a12.42 12.42 0 0 1-2.91-3.29 16.25 16.25 0 0 1-1.61-4.06l1.83 1.61a17.77 17.77 0 0 1 1.77 2.82c.31-3.35-4.9-8.19-4.9-8.19s-.31 5.68 1.37 8.5a11.23 11.23 0 0 0 4.4 3.74 10.21 10.21 0 0 1-.74 3.39c-1.28-.9-.53-1.87-.53-1.87s.2-.35-.2-.86a1 1 0 0 0-1.32-.38 1.08 1.08 0 0 0-.6 1.35c.09.46 1.28.7 1.28.7a5.07 5.07 0 0 1 .58 2.92c-.33 2.14-4.4 3.18-4.4 3.18l-1 3.33a10.86 10.86 0 0 0 7-6.76 24.14 24.14 0 0 0 2.7-2.29s.75-.31.9-.77.47-1.06-.15-1.37-1.06 0-1.52.44a1.19 1.19 0 0 0-.31 1.08s.31.62-1.08 1.39l.57-3.95a32.25 32.25 0 0 1 2.52-5.52c.59-1 1.89-2.87 1.89-2.87 0 4.22-2.91 8-2.91 8 4.06-2.38 4.37-8 4.37-8.83a23.44 23.44 0 0 0-.51-3.11 58.57 58.57 0 0 0-3.59 5.41M80.34 110v4.93c0 .4-.06.44-.15.48a4.33 4.33 0 0 1-.73.2v-5.21h-3.75a.69.69 0 0 1-.75-.66l.17-.77a1.63 1.63 0 0 0 1 .53h3.66c.58 0 .53.5.53.5m.16-1.67h-5a2.12 2.12 0 0 1-1.28-.67l-.84 2.85a.88.88 0 0 0 1 .8h4.12v5.94l2.46-1c.11-.07.2-.11.2-.62v-6.55s.11-.75-.62-.75m17.9 1.72a10.1 10.1 0 0 0-.37 2.21l-.62.17.22-1.87a2 2 0 0 1-1.3 0l.44-1.15a3.31 3.31 0 0 1 .68 0 3.19 3.19 0 0 0 .69 0c.33 0 .44 0 .26.58m.55-2.16a18.94 18.94 0 0 1-2 .08 5.14 5.14 0 0 1-1.08-.37L94.67 111c.31.31 1.85.16 1.85.16l-.3 2.52 2.53-.69c-.24-.84.53-3.22.76-4s-.07-1.17-.54-1.17M71 116.08a2.86 2.86 0 0 0-.47-.36c-.31-.17-6.36-4.39-6.36-4.39v.68l.07 3.32H66l-.53.86h-2.13a23.54 23.54 0 0 0 .23-2.7l-.25-2.85a2.84 2.84 0 0 0 .36-.5c.06-.2.3-.27.52-.07.51.47 4.22 4 7.36 5zm-1-7a2.68 2.68 0 0 0 .7.11h.6c.35 0 .31.46.31.75v.55a2.45 2.45 0 0 1-.18 1.17 4.65 4.65 0 0 1-.73.55 7.43 7.43 0 0 0 .09-1.63c-.13-.18 0-.18-.24-.25s-.77.09-.95 0a7.79 7.79 0 0 0 .4-1.21m.92 4.77c-.3-.16 0-.69 0-.69a8.61 8.61 0 0 0 1-.68 1.21 1.21 0 0 0 .42-1v-2.69c0-.37.09-.53-.37-.61a19.38 19.38 0 0 0-2-.07 3.49 3.49 0 0 1-.91-.15c-.08.52-1 2.82-1 2.82a3.46 3.46 0 0 0 1.06.24c.4.07.16.07.31.31a4.14 4.14 0 0 1 0 1.37c-1.46-.62-5.28-4.06-5.58-4.28s-.62-.16-.71.06a20.86 20.86 0 0 1-1.14 1.84l.53 3a23.23 23.23 0 0 1-.46 3.78h3.89l1-2.49h-2.18V113c0-.3.15-.3.15-.3l5.92 4.36c.4.24.44.07.44.07l1.17-2.38a11.7 11.7 0 0 1-1.46-.84"/><path d="M93.28 112.63a3.32 3.32 0 0 1-.24 1c-.09.13-1.26 1.21-1.44 1.37a.92.92 0 0 1-.51.26c-.44.09-6.88.93-6.88.93l.06-3.6a1.64 1.64 0 0 1 .2-.86c.13-.09.82-1 .4-1.11a3.94 3.94 0 0 1-.91-.28l.53-1.15a9.47 9.47 0 0 1 1 .2c.27 0 .6.11.47.33s-.47 1.54-.64 2.12a10.89 10.89 0 0 0 0 3.27c.11.24 1.86 0 1.86 0 .22-.2 1.92-4.57 1.92-4.57H88l.47-.9h1.38c0 .24-1.7 5.45-1.7 5.45l3.29-.53a3.6 3.6 0 0 0 1.22-1.26 17.59 17.59 0 0 0 .26-2.43h-.75l.36-1.24h1l-.26 3.07m-1.39-4.3l-.76 2.6.83.16a5.1 5.1 0 0 1-.06 1.61 1.73 1.73 0 0 1-.73 1 20.49 20.49 0 0 1-2.14.44l1.59-5.8h-2.78l-.93 2.47.88.24a35.8 35.8 0 0 1-1.52 3.34 3.48 3.48 0 0 1-.4-3 24.82 24.82 0 0 1 .82-2.63c.15-.27-.29-.42-.58-.42a4.84 4.84 0 0 1-2.54-.44l-1.1 2.54a1.53 1.53 0 0 0 1 .66c.75.15.13.73 0 .84a1.11 1.11 0 0 0-.31.83l-.09 4.49 8.28-1.15c.55-.15.4-.16.62-.35s1.46-1.68 1.57-1.84.11-.19.15-.57l.31-5zM77.16 73.38l.01.03h.01l.07.04-.03-.03-.07-.05.01.01z"/><path d="M77.15,73.37l-.09-.07Z"/><path d="M97.61 36.34c-.33 1-1.11 2-.71 3.13.24.62.64 1.39.27 1.94a1 1 0 0 1-1.37.2c-.14-.06-.12-.24-.07-.35.24-.46.88-.77.62-1.39s-.14-1.39-.36-2-1.1-.9-1.28-1.58c-.26-1.15 1.42-1 2.23-.84.36 0 .84.37.67.86m-.29 6c-.38.09-.88.29-1.06 0-.29-.42.53-.15.84-.15.11 0 .2-.22.29-.09a.14.14 0 0 1-.07.22m-.24 2.43c-.09.15-.29-.07-.34-.09-.37-.33-.9-.22-1.32-.51-.18-.11-.38-.44-.16-.46.49 0 .8-.33 1.31-.38l-.09.16c.29-.14.35-.42.49-.69s.31-.06.31 0a3.16 3.16 0 0 1-.2 2m-.2 1.37c-.58 0-1.08-.38-1.7-.4-.14 0-.42-.09-.38-.33l.09-.13c.46-.25.93.06 1.44 0 .35-.06.52.22.66.47s0 .42-.11.42m-.14 1.78c-.22.42-.57.69-.68 1.24a.29.29 0 0 1-.4.13c-.4-.28-.92-.2-1.23-.52-.05-.07-.16-.25-.09-.27.46-.09 1 .11 1.32-.16s.25-.68.53-.92h.29.22c.2.13.11.37 0 .5m-.66 3.36c-.15.4-.73.53-1.3.38-.33-.11-.6-.42-.4-.62s.66-.38.47-.71c-.07-.11 0-.28-.2-.33s-.36.11-.47-.09v-.2a1.82 1.82 0 0 1 1.81.62 1 1 0 0 1 .09.95m-1.39 2a.9.9 0 0 1-1.26.28c-.13-.08-.39-.11-.39-.35s-.05-.24 0-.28c.29-.29.73.09 1-.18v-.22c-.2-.22-.82-.53-.49-.66.62-.25 1.5.7 1.08 1.41m-.84 2.36s-.06.24-.2.11c-.13.27 0 .62-.3.84-.07-.15-.2-.22-.27-.37a.81.81 0 0 0-.51-.36c-.26-.06-.29-.42-.53-.57.38-.46 1.2-.24 1.75-.13.24 0 .22.39.06.48m-1.48 2.12c-.15.18-.26.68-.55.55s-.62-.64-1-1c-.09-.09.09-.17.13-.2.29-.06.62.24.82 0s-.18-.58 0-.8.24 0 .38.05v-.07c.33.2.79.49.77.84s-.38.44-.6.64m-2.91 2.64v.1l-.09-.25c0 .4-.29.69-.35 1.09 0 .2-.42.11-.53 0a10.15 10.15 0 0 1-1.35-1.81h.44c.51.49 1.13.14 1.61.36a.45.45 0 0 1 .29.45m-2 1.53c-.1.34-.37.73-.72.6-.71-.24-.89-1-1.33-1.59 0 0 0-.11.09-.13a.41.41 0 0 1 .22 0c.18.11.16.42.47.46s.17-.37.33-.5.22.17.42.24a.77.77 0 0 1 .52.92m-1.83.71c-.11.79-1.08 1-1.76 1.17l-5.15 1.33a9.7 9.7 0 0 1-2.79.28h-.16l.53.09a2.49 2.49 0 0 1-1.07-.27v-.1a11 11 0 0 1 2.52-.31 21.39 21.39 0 0 0 3.36-.92 12.11 12.11 0 0 0 1.79-.87c.13-.07.33 0 .44-.11a4.88 4.88 0 0 1 1.79-.83c.4-.18.71.35.66.57M78.13 68c-.06.24-.15.59-.44.61-.46 0-.22.84-.48 1a4.22 4.22 0 0 1-2 .22v-.22a.64.64 0 0 0 .27-.93c-.07-.15-.37-.13-.46 0-.25.35 0 .88-.25 1.17-.08.13-.39.09-.64 0s-.35-.26-.19-.39.35 0 .48-.07 0-.22 0-.35v.06c0-.31-.24-.6-.57-.51s-.29.29-.49.36a.71.71 0 0 0-.59-.6c0 .27-.36.18-.45.11-.26-.15.07-.42 0-.66 1.37-.22 2.74.16 4.13-.18.07 0 .11-.2.18-.26s.28-.31.53-.31c0-.24.17-.29.31-.38a.41.41 0 0 1 .48.09 1.41 1.41 0 0 1 .24 1.2m.25 4.28c.55.09 1.19.66.86 1.19-.09.15-.44-.07-.69-.09s-.77.22-1.17.24c-.09 0-.14-.11-.2-.21l-.24-.12h.13c-.39-.35-.74-.87-1.16-.63a1.06 1.06 0 0 1-.89.14c-.06 0-.15-.2-.06-.27s.24-.49.52-.55a2.38 2.38 0 0 1 1.86.4c.31.2.71-.18 1-.11m-5.12-2.74c0 .13.37.11.19.26s-.35.25-.48 0 .15-.25.29-.29m5.14 6.89c-.53-.09-1.24.24-1.59-.18-.13-.15.27-.37.11-.57s-.4-.29-.46-.14 0 .71-.11.93-.91.24-1-.2c.35-.08.8-.17.64-.59a.85.85 0 0 0-.88-.4 2.2 2.2 0 0 1-.13 1.21c-.16.28-.53 0-.8 0v-.38c.27.07.55 0 .44-.4s-.46-.92-.86-.61 0 1.08-.46 1.43a.57.57 0 0 1-.73-.13v-.2c.16-.2.42-.11.6-.2s.2-.66.2-1-.38-.31-.56-.2-.28.09-.24.29a.94.94 0 0 1 .07-1.22 2.59 2.59 0 0 1 2.09 0 26.65 26.65 0 0 0 3.36.15 5.19 5.19 0 0 0 .31 2.39m.53.86c.22 0 .33.26.44.46a19.11 19.11 0 0 1 1.48 3.89 7.31 7.31 0 0 1-1.92.13.46.46 0 0 1-.29-.35l-.75-3.23a1.13 1.13 0 0 1 .4-.79.9.9 0 0 1 .64-.11m-1.74 4.1a8.39 8.39 0 0 0-.86-.75v.25a14 14 0 0 1 0-2.39.49.49 0 0 1 .35-.44c.31-.09.69 0 .73.31l.49 3.11a.91.91 0 0 1-.66-.09m-1.55-.59c-.51 0-.53-.53-.77-.84-.07-.07-.2.11-.25-.09a3.05 3.05 0 0 1 0-1.59.45.45 0 0 1 .77-.06c.47.77.11 1.72.2 2.58M74 79.72c0 .06-.11.15-.14.13a6 6 0 0 0-.68-.11c-.35-.11-.13-.75-.15-1.17a.25.25 0 0 1 .15-.22.54.54 0 0 1 .73.09 1.26 1.26 0 0 1 .08 1 1.2 1.2 0 0 1 0 .31m-2.72-14.62a18.9 18.9 0 0 1-5.5-1.31 14.78 14.78 0 0 1-1.47-1l.21.13-.07-.07-.11-.06c-.08 0-.14-.07-.08-.13.33-.42.33-1 .75-1.3 0 0 .2-.18.26-.09.34.38.36.86.64 1.28a2.18 2.18 0 0 0 .53.44 13 13 0 0 0 3.93 1.35c.8.18 1.62 0 2.43.18.31.06.66 0 .91.26.09.09-.11.13-.07.22-.79 0-1.57.16-2.36 0m-7.73-2.81c0 .2-.33.09-.46 0-.4-.14-.95-.42-.93-.89a.31.31 0 0 0 .27-.24c.09-.46.26-.91.64-.91.59 0 1.68-.88 1.61 0s-1.19 1.06-1.13 2m-2.25-1.48a1.09 1.09 0 0 1-1-.66c-.09-.2 0-.33.2-.49s0-.22 0-.35.18 0 .22-.15a.84.84 0 0 1 .13-.33.38.38 0 0 1 .62 0c.11.15-.15.46.05.55.57.22.86-.53 1.3-.84.13-.09.4.2.24.4-.55.71-.79 1.77-1.81 1.83m-1.38-2.36c-.25.13-.25.58-.56.71s-.33-.22-.5-.38 0-.13 0-.22c-.29.09-.46-.08-.6-.31s0-.28.16-.35.53 0 .66-.2v-.33c0-.05.45-.22.56 0s.42.35.61.55a.29.29 0 0 1 0 .33.86.86 0 0 1-.41.22M57 56.69c-.16-.22.3-.37.53-.48s.66-.38 1-.56a1 1 0 0 1-.17.69 2.13 2.13 0 0 1-.69.6c-.29.19-.55-.07-.68-.25m-.58-1a1 1 0 0 1-.46-.31c-.11-.17 0-.3.22-.35s.46 0 .68 0 .29-.22.49-.33a1.57 1.57 0 0 1 .6-.27c0 .09.13.13.06.22-.46.53-.88 1.3-1.59 1.08m-1.63-2.76c.06-.06-.05-.17 0-.22.64-.37 1.33-.57 2-1 .11-.06.33-.13.44 0a.34.34 0 0 1-.09.37c-.57.62-1.57 1.3-2.36.77m-.62-2.82c.16 0 .13-.27.31-.15 0-.58.44-.38.53-.71s-.22-.49-.44-.62l.06-.13a.63.63 0 0 1 .6.15c.07.09.22.16.18.31.28 0 .26.31.33.46a1.07 1.07 0 0 1-.72 1.51l-.07-.2c-.33-.22-.84-.12-.77-.62m0-4c-.23-.23-.85-.06-.64-.37s.64-.44 1-.7.17-.93.51-1.31c.06-.11.17.07.28 0a5 5 0 0 1-.06 1.9 1.22 1.22 0 0 1-1.06.43h0l-.32-.02h.25zM52.79 42c.84-.51.64-1.64.93-2.46h.07a4.33 4.33 0 0 1 .28-.48c.31-.51 0-1-.24-1.41s-.6-.31-.8-.58.14-.48.31-.53a2.65 2.65 0 0 0 1.17-.79c.16-.13.31.2.27.42V36a3.51 3.51 0 0 0-.22 1.61 17.93 17.93 0 0 1-.16 4.75c-.53.11-1.59.42-1.61-.44m20 17.08a12.41 12.41 0 0 1-5.25-1.48c-.16-.06-.42-.29-.38-.49a.43.43 0 0 1 .53-.15 10.68 10.68 0 0 0 4.53 1.74c.2 0 .84 0 .86.18s-.2.2-.29.2m-6.86-2.45c-.09-.24.11-.4.35-.44h-.22c.42-.38.75-1.13 1.37-1.08a9.41 9.41 0 0 1-.89 2c-.24.31-.52-.16-.61-.44m-.29-1.46l-.18.18a1.06 1.06 0 0 1-.57.7c-.27.14-.53-.26-.44-.55a1 1 0 0 1 .22-.24c.4-.31.75-1.1 1.19-.64.07.09-.15.35-.22.55m-2.25-1s-.22 0-.25-.17a.57.57 0 0 1 .53-.69l-.15-.09c.31-.06.64-.28.84-.19s-.64 1.3-1 1.14m9.58 0c.07-.06.24 0 .35 0 1.22-.33 2.43.44 3.53-.07a4.32 4.32 0 0 1 0 2 1 1 0 0 1-1.51.55c-.68-.53-.75-1.54-1.52-2a1.94 1.94 0 0 0-.66-.15c-.11 0-.35-.11-.22-.25m.22-17.55c-.07 0-.24-.17-.15-.33s.08 0 .15 0l-.09.22.09-.05c.47-.25 1 0 1.52-.23.2-.09.29-.34.53-.34 0-.2.2-.22.22-.37a2.21 2.21 0 0 0-.06-.77 1.63 1.63 0 0 1 1.54 2 2.19 2.19 0 0 1-.59.84 2.5 2.5 0 0 0-.53 1.28c-.27 1.06.55 2 .4 3a1.57 1.57 0 0 1-.45 1 .57.57 0 0 1-.66 0c-.44-.19-1.06.12-1.32-.5a1.76 1.76 0 0 0 1.43-1 3.16 3.16 0 0 0 0-1.9c-.2-.79.1-1.65-.33-2.25-.36-.44-1.15-.4-1.75-.64m1.9 12v.31-.19c0-.43-.08-.88.17-1.24.11-.16.44-.18.64-.16s.2.24.2.35c.06.76.42 1.62 0 2.15s-1.57.31-2.36.11c-.27-.07-.33-.58-.13-.67a14.92 14.92 0 0 0 1.5-.66m.61-2.45c.34-.33-.19-.55 0-.71.47-.37.89.75.65 1.11-.38.55-1.2.31-1.84.24-.2 0-.35-.37-.15-.44a5.54 5.54 0 0 1 1.36-.07zM78.6 52c.26-.13.55-.37.82-.51s.39-.39.66-.28.51.75.26.92a7.3 7.3 0 0 1-3 1.22c-1.15.26-3.56.42-3.45-.53a6.74 6.74 0 0 1 .8.09h.26.05a9.79 9.79 0 0 0 3.6-.91m-1.83 10.17a1.44 1.44 0 0 1-1.2 0c-.52-.2-.44-.95-.66-1.46 0-.15-.24-.22-.37-.28-.38-.18-.86-.18-1.13-.58.11 0 .2.07.31.07a24.85 24.85 0 0 0 3.44.17c-.11.67.36 1.64-.39 2.06m1.61-3.69c.37-.13.73-.18 1.08-.33a24.11 24.11 0 0 0 3.09-1.55c.15 0 .88.8.68.91a35.14 35.14 0 0 1-3.4 1.51 7.25 7.25 0 0 1-3.77.49 9.28 9.28 0 0 0-1.06-.33c-.22 0-.62-.13-.47-.22 1.19-.7 2.61 0 3.87-.46M61.29 52c-.09 0-.31-.15-.2-.33s.33-.15.51-.24v-.13a1 1 0 0 1 .62.06 1 1 0 0 1-.93.64m-.46-1.44c-.16.07-.31-.06-.44-.15v-.2a4.8 4.8 0 0 1 .9-.39h.15c.27.37-.3.62-.61.72m.29-1.3a.29.29 0 0 1-.42-.13c-.05-.13.06-.28.13-.26s.46.17.29.39m-.95-3.55c.39-.11.33-.55.5-.73.34-.33.58.24.64.55.13.62-.57.75-1.08.58-.13 0-.26-.34-.06-.4m-1.55-2.56V43a2.54 2.54 0 0 1 1.06-.12h0c.49.06 1-.15 1.46.11v.2c-.36.37-.87.09-1.31.2s-.88.2-1.21-.2m-.33-6.45c-.13-.24 0-.46.15-.64h.16l-.05.05a17.13 17.13 0 0 0 1.77-.15c.09 0 .46.2.53.2a7.06 7.06 0 0 0-.22 1.5 8.27 8.27 0 0 0 .07 2.3c.08.65-.09 1.26-.07 1.91h-.07c-.09.48 0 0-.26.44a.35.35 0 0 1-.4.11.51.51 0 0 1-.31-.55c.27-.95.44-.89.33-1.86a1.41 1.41 0 0 0-.55-.92.69.69 0 0 1-.24-.27c-.22-.48 0-1.06-.2-1.54-.13-.29-.49-.4-.64-.67m14.35 16.4a6.12 6.12 0 0 1-3-.79c-.73-.35-1.54-1-1.08-1.75.2-.35.44.25.64.54.84 1.25 2.34 1.17 3.55 1.81 0 0 0 .19-.06.19M67.78 50c-.18-.22.07-.55.33-.75s.56-.53.91-.27c.06.05 0 .22 0 .36-.11.39-.55.33-.79.59s-.4.16-.47.07M67 48.81c-.15 0-.22.24-.28.22-.25-.09 0-.26-.05-.46.14 0 .11-.31.27-.27a.78.78 0 0 1 1-.86.44.44 0 0 1 .31.53 1.59 1.59 0 0 1-1.22.84m-1.32-2.14a.22.22 0 0 1-.22 0v.06l-.06.09v-.22l.07.09c0-.18-.15-.36 0-.53s.25-.18.38-.22a3.17 3.17 0 0 1 1.59-.07c.2.05.46.2.29.31-.62.4-1.42-.13-2 .49m.88-1.81c0 .33-.66.37-1 .44V45c.39 0 .95-.61 1-.15M64.38 43v-.2a2.5 2.5 0 0 1 1.06-.12h0c.49.06 1-.16 1.44.11V43c-.36.37-.84.08-1.31.19s-.86.2-1.19-.19M64 36.87a.45.45 0 0 1 .22-.71 3.91 3.91 0 0 1 2.2-.06 3.2 3.2 0 0 1 .69.11c.37.11.66.44.51.81s-.64.91-.86 1.42c-.29.66.08 1.38 0 2.11a1.55 1.55 0 0 1-1.23 1.31c-.22 0-.46 0-.58-.16-.44-.73.6-.81.86-1.3.07-.13.09-.36 0-.42a7.25 7.25 0 0 1-.81-1.26c-.24-.42.11-.9-.18-1.28s-.59-.33-.79-.57m16.75 13.29c.2-.07.49 0 .64 0a3.64 3.64 0 0 0 .62-.62c.27-.24.69.07.86.43a.49.49 0 0 1-.09.5c-.15.18-.24.44-.44.55l-.55.29c-.55.22-1-.37-1.15-.88a.23.23 0 0 1 .11-.22m1.68-13.07a.31.31 0 0 1 .16-.51c1-.2 1.87 0 2.82-.15.35 0 .24.22.24.26 0 .57-.66 1.17-.35 1.77.49.95.2 1.87.42 2.87a.91.91 0 0 1-.26.79 1.43 1.43 0 0 1-1.77-.17c-.24-.18-.07-.47.27-.53a4.16 4.16 0 0 0 .59-.07A1.16 1.16 0 0 0 85 40c-.11-.37-.6-.37-1-.32.35-.14.86-.62.5-.86s-.66-.23-.93-.42-.15-.42-.3-.62-.56-.44-.8-.73m3.4 5.63c.13.29 0 1-.2 1-.7-.27-1.67-.42-1.43-.73.46 0 .68.11 1.15.07.13-.23.28-.67.48-.29m-.33 2.2c-.09 0-.13.07-.15.07-.47 0-.84-.33-1.31-.4-.06 0-.33 0-.22-.19s.51-.31.73-.49.71.11.75.55c0 0 .13.11.18.18s0 .17 0 .28m-1.35 2.5l-.83-.37c-.26-.13 0-.29.08-.34.29-.26.62-.19.8-.53s.06-.57.28-.64c.25.18.71.07.71.31 0 .62-.51 1.77-1 1.57m-.37 2.16a.35.35 0 0 1-.55 0 .31.31 0 0 1-.11-.22c0-.11-.16-.24-.14-.26.34-.29.75-.31 1.06-.64.27.44 0 .79-.26 1.12m-.07 6.67c.14-.18.49.18.77.09l-.22-.16c.62 0 .2-.51.31-.9.36.37.78.86.58 1.34-.14.32-.6.32-.91.42s-.79-.48-.53-.79m1.19-1.72a.82.82 0 0 1 .43-.2c.21-.09 0-.26 0-.44.06 0 .11 0 .15-.07s-.13 0-.09-.07c.4-.15.58.38.75.69v.29c0 .07.26.33.2.55a.35.35 0 0 1-.16.13c-.44.13-.66-.37-1-.59h-.22c-.06 0-.22-.17-.14-.26M86.39 53c.16-.09.4 0 .6-.18h-.4a1.83 1.83 0 0 0 .4 0 .78.78 0 0 0 .33-.15c.17-.16-.18-.64.2-.69a1.34 1.34 0 0 1 1.12.6.61.61 0 0 1 0 .71c-.14.22-.49.2-.69.37s-.13.38-.29.49-.28.15-.3.09-.25-.16-.31-.29-.42-.22-.53-.36-.49-.35-.18-.54m1.52-3.38c.64-.33 1.33.17 2 .37.07 0 .18.16.13.2a.6.6 0 0 1-.71 0c-.39-.24-.86-.19-1.23-.44 0 0-.27-.11-.16-.17m.69-2.94h.13l.09.31v-.1a.49.49 0 0 0 0-.21 2.48 2.48 0 0 1 1.76.47c-.22.59-.15 1.32-.59 1.78-.2.2-.67.05-.91-.15s-.26-.42-.07-.51c.45-.22.76-.53.53-1s-.72.11-1-.2a.33.33 0 0 1 0-.42m.29-10.26a10.61 10.61 0 0 0 1.28-.22c.11-.05.3-.05.42-.18s.24-.53.46-.66a.39.39 0 0 1 .57.22 1.53 1.53 0 0 1 0 .9c-.08.33-.37.6-.48.93a3.54 3.54 0 0 0 0 .93 13.52 13.52 0 0 0 .18 3.22.72.72 0 0 1-.31.66 3 3 0 0 1-1.37.29c-.11 0-.17-.11-.17-.23v-.12l-.09.22c0-.29.29-.27.38-.47a2.17 2.17 0 0 0 .13-.53 3.09 3.09 0 0 0-.27-1.9.51.51 0 0 0 .58-.39c.22-.69.26-1.61-.4-2a6.62 6.62 0 0 0-1-.25c-.26-.06-.13-.37.14-.41m1.81 9.38a.74.74 0 0 1-.71 0c-.69-.39.08-1 .27-1.47a1.83 1.83 0 0 1 .06-.78c0-.07 0-.2.11-.23a.36.36 0 0 1 .42.09 1.8 1.8 0 0 1-.15 2.39m-1.22 5.38c-.2.36-.53.8-.84.45s-.59-.22-.7-.45.33-.26.42-.57.48.2.77.22.44.18.35.35m7.85-16.93a3.87 3.87 0 0 0-2.85.22A1.72 1.72 0 0 0 94 36.8c.61.62.28 2.21.41 2.83a3.93 3.93 0 0 1-.11 1.5c-.22.31.14 1.45-.06 1.7A1.35 1.35 0 0 0 94 44a5.58 5.58 0 0 0-.2.75 10.65 10.65 0 0 0-.04 1.25 4.54 4.54 0 0 1-.15 1.46 19.3 19.3 0 0 1-.68 2.14c-.25.53.11.77-.51 1.61L92 52.78a11.4 11.4 0 0 0-1.3 1.5s-.78 1-1.11 1.61a14.37 14.37 0 0 0-.81 1.26s-1.68.66-2 1.35c-.13.31-1.59.77-2.6 1.65a12 12 0 0 1-2 .75 3.74 3.74 0 0 0-1.67.51l-2.17.53-.92.22c0-.66-.14-1.43-.14-1.43a1.7 1.7 0 0 0 .1-.73h.08a11.51 11.51 0 0 0 2.54-.77A4.77 4.77 0 0 0 82.9 58c1-.16 1.09-.62 1.09-.62a8.81 8.81 0 0 0 1.41-.53c.57-.09 1.12-1.22 1.12-1.22.16-.13.76-.74.76-.74.81-.38 1.5-1.84 1.69-2.1a9.84 9.84 0 0 0 .8-1.44 16.59 16.59 0 0 0 1.15-3.2 11.51 11.51 0 0 0 .55-2.15l.33-3.64a9.36 9.36 0 0 1 .09-1.68 6.06 6.06 0 0 1-.2-1.34 7 7 0 0 1 .77-3.23c.62-.92-.4-2-1.54-2.07a4 4 0 0 0-2.52.77c-.62.31-1.39 1.72-.77 2.34s.59 1.9.73 2.52.19 1.65.19 1.65a2.3 2.3 0 0 0-.24 1.24 4.57 4.57 0 0 1-.17.9 3.22 3.22 0 0 0 0 1.09l.16 1.14c-.62.16-.31 1.77-.31 1.77a9.9 9.9 0 0 0-1.15 2.23 10.84 10.84 0 0 1-1 1.83 2.05 2.05 0 0 0-.64.36 4.44 4.44 0 0 0-1.83 1.78 4.31 4.31 0 0 0-1.6 1.09 4.22 4.22 0 0 0-1.63.63l-2.27 1.13a1.53 1.53 0 0 1-.37.08 20.06 20.06 0 0 0-.12-2.6A10.24 10.24 0 0 0 82.2 52c.59-.62.28-.77.75-.9s1-1.55 1.45-2a8.85 8.85 0 0 0 1-2.21 8 8 0 0 0 .7-3c.6-.77-.15-2-.15-2l.15-2a19.77 19.77 0 0 1 .29-3.32c.27-1.06.31-1.67-.75-2.05a5.46 5.46 0 0 0-3.31-.09c-.6.31-2 1.77-1.37 2.39a7.24 7.24 0 0 1 1.52 2.6 23.29 23.29 0 0 1 .31 2.36c-.22.31.09.47.09.77v.54s-.24 2-.68 2.31-.31 1.06-.31 1.06c-.62.16-.93 1.61-.93 1.61a12.81 12.81 0 0 1-1.39 1.31 3.61 3.61 0 0 1-2.14.68l-.59.12a11.56 11.56 0 0 1 0-1.18 9.84 9.84 0 0 0 .09-1.23c0-.62-.31-.69-.31-.69l.31-.68a.59.59 0 0 0 .31-.47.75.75 0 0 0-.31-.53 8.15 8.15 0 0 0 0-1.92 5.33 5.33 0 0 0-.16-1.08 5.17 5.17 0 0 0-.06-2.14 2.53 2.53 0 0 1-.09-1.68c.22-.46 1.08-1.85 1.39-2.32s.6-1.36-1.7-2.14a4.31 4.31 0 0 0-4.13.62c-.77.38-.46 1.52-.46 2s1.46 1.54 1.46 2-.16.84-.16 1.3-.09.84.07 1.06c0 0-.53.31-.53.53s.31.46.46.77-.09.31-.09.31-.44.53-.37.84.15.84.46.93-.24.37 0 .68a1.18 1.18 0 0 0-.31.77 1.84 1.84 0 0 0 .53 1s-.46.15-.37.46a2.73 2.73 0 0 0-.25.93c0 .29.06 1 .12 1.9h0a3.93 3.93 0 0 1-2.76-1.31 2.31 2.31 0 0 0-1-.9s-.31-1.46-.93-1.61c0 0 .16-.78-.31-1.08s-.75-1.93-.75-1.93a1.19 1.19 0 0 0 .22-.59c0-.31.07-.4-.15-.71a20.11 20.11 0 0 1 .15-2.67 7.75 7.75 0 0 1 1.53-2.6 1.31 1.31 0 0 0-.16-2 9.8 9.8 0 0 0-4.5-.29c-1.08.38-1.86 1.15-1.24 2.05a6.84 6.84 0 0 1 1 3c0 .59.15 2 .15 2a2 2 0 0 0 .15 1.83 12.42 12.42 0 0 0 .84 3.47c.47 1 .36 1.88.77 2.3s1 1.61 1.46 1.76.16.29.78.91A7.33 7.33 0 0 0 72.58 54a1.27 1.27 0 0 0 0 .47 1.68 1.68 0 0 1 .31.78c0 .14-.21.55-.32 1.1a4.38 4.38 0 0 1-.78-.27l-2-.94a3.84 3.84 0 0 0-1.66-.58 3.48 3.48 0 0 0-1.48-1 6.08 6.08 0 0 0-.93-1.13c-.11-.15-1-1.1-1-1.1a13.56 13.56 0 0 1-1.35-1.92 9.37 9.37 0 0 0-1.15-1.83s.16-1.93-.46-2.08a1.69 1.69 0 0 1-.15-1 3.85 3.85 0 0 0 0-1.09 4 4 0 0 1-.2-.9c0-.31.09-.4-.15-.71a18.65 18.65 0 0 1 .11-2.18c.13-.62-.33-2.37.27-3a1.54 1.54 0 0 0-.29-2.19 4.56 4.56 0 0 0-3.07-.22c-1.08.38-1.85 1.15-1.24 2a6.84 6.84 0 0 1 1 3v1.63a8.88 8.88 0 0 1 .07 1.7l.44 3.33a11.22 11.22 0 0 0 .45 2.32 9.83 9.83 0 0 0 1.15 2.45c.15.2.31.71.79 1.42.2.26 1 2.18 1.77 2.56l.88.62s.66 1.19 1.24 1.25a4.81 4.81 0 0 0 1.34.78 2.09 2.09 0 0 0 1.46.83s.44.71 2 .84a8.65 8.65 0 0 0 2.2.71 7.57 7.57 0 0 0 .9.15 1.55 1.55 0 0 0 .14.49l-.22 1.89c-.55-.07-1.46-.28-1.46-.28a21.79 21.79 0 0 0-2.14-.53 4 4 0 0 0-1.39-.66 8.58 8.58 0 0 1-1.66-.84c-1-.88-2.56-1.5-2.67-1.79-.29-.71-1.5-1-1.5-1a8.06 8.06 0 0 0-1.57-1.72 6.41 6.41 0 0 0-1-1.17l-1-1.63a11.41 11.41 0 0 1-.32-1.56 3.88 3.88 0 0 1-.67-1.54l-.92-2.14a5.84 5.84 0 0 1-.07-1.55 3.14 3.14 0 0 1-.47-1 4.23 4.23 0 0 1 0-1.06.69.69 0 0 0-.11-.84c-.2-.25-.09-.62-.31-.93a10.65 10.65 0 0 1-.2-2.27c.13-.62-.35-2.37.27-3a1.53 1.53 0 0 0-.31-2.19 4 4 0 0 0-2.83 0 1.44 1.44 0 0 0-.77 2.3 3.84 3.84 0 0 1 .31 2.54v1.41 2.23l.36 2.87a10.52 10.52 0 0 0 .31 1.83c.15.62.11 2.23.46 2.69a10.72 10.72 0 0 0 .79 1.42c.2.26.51 2 1.4 2.71a5.16 5.16 0 0 0 1.41 2.39s.68 1.14 1 1.1c0 0 .69 1.3 1.11 1.39 0 0 .35 1.3 1.39 1.46a2.91 2.91 0 0 0 1.68 1.3 3 3 0 0 0 2 1.21s-.33.89 1.61.89l.2.09a2.41 2.41 0 0 0 1.15.46 9.48 9.48 0 0 0 2.29.68l1.86.21v2.09s1 .22 1 .77 0 .75.38.84c0 0 .31.22.09.77a1.3 1.3 0 0 0-.25.75 1.43 1.43 0 0 0-.77 1.39h-.53v1.62h1a.78.78 0 0 1 .09.37c0 .24.22 1.15.07 1.39s-.46.53-.62.75-1.9 1-2.21 4.46c-.09.84-1.14 1.06-2.14 1.37h15.89c-1.15-.31-1.61-.53-1.7-1.37-.31-3.51-2.05-4.21-2.21-4.46s-.46-.53-.61-.75.06-1.15.06-1.39a.78.78 0 0 1 .09-.37h1v-1.64H79a1.43 1.43 0 0 0-.77-1.39 1.41 1.41 0 0 0-.22-.75c-.24-.55.07-.77.07-.77.37-.09.37-.31.37-.84s1-.77 1-.77V65.6l2.2-.56a14.37 14.37 0 0 0 1.62-.38c.53-.15.46-.46 1-.46 1.88 0 1.93-.64 1.93-.64a2 2 0 0 0 1.6-1.24 4.39 4.39 0 0 0 2.3-1.46c.86-.13 1.3-1.37 1.3-1.37.42-.08 1.35-1.39 1.35-1.39.31 0 .75-1.1.75-1.1a5.72 5.72 0 0 0 1.5-2.85c.88-.68.79-1.59 1-1.87a7.69 7.69 0 0 0 .73-2 12.67 12.67 0 0 0 .68-2.76 10.93 10.93 0 0 0 .31-1.85l.35-2.87a17.06 17.06 0 0 0-.24-2.14v-1.41a3.84 3.84 0 0 1 .31-2.54 1.64 1.64 0 0 0-.75-2.52m-9.18 59.25a1.12 1.12 0 0 0 .54-.12.81.81 0 0 1 .77 0 .69.69 0 0 1 .36.73 2 2 0 0 1-.22.63h.19a1.2 1.2 0 0 0 .64-.23h0l.19-.14a1.16 1.16 0 0 0 .3-.28l.13.08a1.15 1.15 0 0 1-.34.32h0l-.18.14a1.43 1.43 0 0 1-.71.27l-.35.07h0l-.2.07.11-.18a2.12 2.12 0 0 0 .28-.72.52.52 0 0 0-.28-.58h0a.68.68 0 0 0-.63 0 1.2 1.2 0 0 1-.62.13zm-2.21.83a.8.8 0 0 0-.16.26.28.28 0 0 0 0 .22h0l.15.17a.85.85 0 0 1 .28.43h0 0a.82.82 0 0 1-.14.64 1 1 0 0 1-.57.37h0a3 3 0 0 1-1 0 5 5 0 0 1-1-.28L83.1 96h.51 0a5 5 0 0 0 .89.26 2.74 2.74 0 0 0 1 0h.05A.82.82 0 0 0 86 96a.71.71 0 0 0 .12-.54h0 0a.82.82 0 0 0-.24-.36 1.49 1.49 0 0 1-.17-.18h0a.39.39 0 0 1 0-.36 1 1 0 0 1 .17-.3zm-3.35.47h.23a3.06 3.06 0 0 0 1.27 0h0 .12l.12-.06a.73.73 0 0 0 .41-.44h0a2.46 2.46 0 0 0 .07-.29c.06-.32.12-.64.44-.78a.75.75 0 0 1 .75.19.92.92 0 0 0 .64.23v.15a1 1 0 0 1-.74-.25c-.2-.13-.4-.26-.61-.18s-.3.39-.35.67c0 .1 0 .2-.07.3a.88.88 0 0 1-.48.54l-.14.06-.14.05h0a3.53 3.53 0 0 1-1.32 0h-.23zm5.62-.52h0 0 0c.09.06.16.13.16.17h0a2.76 2.76 0 0 1-.1.62c-.1.4-.19.81.19 1.05h0a1.27 1.27 0 0 0 .8.11h.29a1.9 1.9 0 0 0 .68-.15l.15-.09a1.47 1.47 0 0 0 .62-.64l.14.06a1.69 1.69 0 0 1-.68.72l-.17.09a2 2 0 0 1-.74.16h0-.28a1.37 1.37 0 0 1-.89-.14c-.48-.3-.37-.76-.26-1.22a2 2 0 0 0 .09-.57h0 0-.08 0 0 0zm-3.07-7.57a1.41 1.41 0 0 1 .13.24.63.63 0 0 1 0 .27h-.16a.49.49 0 0 0 0-.21 1.51 1.51 0 0 0-.12-.2zm.9 1.66h0l-.27-.07a1.81 1.81 0 0 1-1.25-.69v-.08a1.53 1.53 0 0 1-.21-.86v-.15h-.12l-.25-.11h0a1 1 0 0 1-.69-.75l-.21.1c-.33.15-.68.31-.8.64h-.14a1.4 1.4 0 0 1 .88-.73l.3-.15h0l.12-.06v.13c0 .35.29.59.62.73l.2.07h.11a.8.8 0 0 1 .32-.45h0 0 .12.13a.77.77 0 0 1 .7.16h0a1.43 1.43 0 0 1 .15.18 1.37 1.37 0 0 1 .13.2 1.16 1.16 0 0 1 0 1.22l-.13-.09a1 1 0 0 0 0-1.06 1.08 1.08 0 0 0-.11-.18l-.11-.31h0a.59.59 0 0 0-.59-.1h-.11-.11 0a.75.75 0 0 0-.31.63 1.49 1.49 0 0 0 .19.77v.08h0a1.71 1.71 0 0 0 1.15.62l.28.08h0zm-3.48-.92h.11.1a.5.5 0 0 0 .36-.24h0V87l-.08-.11a.36.36 0 0 0-.11-.09.58.58 0 0 0-.39 0l-.08-.14a.92.92 0 0 1 .49-.07.63.63 0 0 1 .25.1.35.35 0 0 1 .14.2.45.45 0 0 1 0 .25h0a.67.67 0 0 1-.47.33h-.12-.13zm2 .46a3.16 3.16 0 0 0-1 0 6 6 0 0 0-1 .29v-.15a6.21 6.21 0 0 1 1-.29 3.2 3.2 0 0 1 1.07 0zm-6.48 6.95a.91.91 0 0 0-.38-.19.79.79 0 0 0-.48 0h0c-.23.06-.27.31-.3.54a1.35 1.35 0 0 1-.12.43h0c-.09.14-.27.1-.47 0h-.22v.15h0a1.48 1.48 0 0 1-.15.31 1.43 1.43 0 0 0 1.3.23 1.09 1.09 0 0 0 .25-.1 1 1 0 0 0 .23-.13h0l.15-.07a.72.72 0 0 0 .47-.43.78.78 0 0 0 0-.43.81.81 0 0 0-.24-.34m-5.8-.38h-.13l.09.1.09.16h0 0a.7.7 0 0 1 .44.23L73 95a.63.63 0 0 1 .22-.18 1.34 1.34 0 0 1 .27-.07 1.19 1.19 0 0 0-.89-.39h-.24"/><path d="M93.52 98.77H80v-7.66h13.52zM79.35 83.05h9.05v6.69h-9.05zm-.81 12.56h0a.85.85 0 0 1-.55.53l-.14.07h0a2 2 0 0 1-.25.14l-.26.11a1.57 1.57 0 0 1-1.44-.26 1.8 1.8 0 0 1-.7.47 3.79 3.79 0 0 1-1.32.23v-.15a4 4 0 0 0 1.27-.22 1.34 1.34 0 0 0 .85-.81 1.36 1.36 0 0 0 0-.3.86.86 0 0 0-.06-.35h0v-.06h0v-.06a2 2 0 0 0-.2-.26l-.12-.08-.13-.07a.8.8 0 0 0-.76.08h0c-.12.07-.18.14-.19.23a.53.53 0 0 0 .06.33h0l-.14.07h0a.52.52 0 0 0-.15-.13 1.44 1.44 0 0 0-.47-.17.89.89 0 0 0-.49 0 .43.43 0 0 0-.21.19v.06h-.06a.76.76 0 0 1-.17-.13.64.64 0 0 0-.35-.19c-.14 0-.17-.06-.19-.14h0l-.06-.1a.86.86 0 0 1-.13-.17.28.28 0 0 0-.25-.16h0-.06-.05l-.25-.14a2.8 2.8 0 0 0-.64-.13.68.68 0 0 0-.55.2A1 1 0 0 0 70 95a4.55 4.55 0 0 0 .26 1h-.15a4.75 4.75 0 0 1-.26-1 1.19 1.19 0 0 1 .31-1 .85.85 0 0 1 .67-.24 2.23 2.23 0 0 1 .68.14h0l.27.15h.06 0 0a.38.38 0 0 1 .27.13h.2.26a1.38 1.38 0 0 1 1 .5h-.06.22a1.54 1.54 0 0 1 .51.19v-.16a.48.48 0 0 1 .26-.33 1 1 0 0 1 .89-.1l.16.08.14.11h0a1.43 1.43 0 0 1 .22.28v.07.07h0a.87.87 0 0 1 .07.41h0a2 2 0 0 1 .24 0h0c.15 0 .28.07.3 0h0a1.06 1.06 0 0 0 .1-.38c.05-.28.1-.57.41-.67a.93.93 0 0 1 .57 0 1 1 0 0 1 .44.23.89.89 0 0 1 .28.41.8.8 0 0 1 0 .51m-6.2.31c0-.22-.29-.34-.52-.47a1.72 1.72 0 0 1-.49-.34h0a.69.69 0 0 0-.17-.13h-.11l.06.18a1 1 0 0 1 .08.45h-.15a.9.9 0 0 0 .18-.2 2.29 2.29 0 0 1-.08-.28v-.08h.07a.5.5 0 0 1 .28 0h0a.52.52 0 0 1 .21.17h0a1.68 1.68 0 0 0 .45.3c.27.15.53.29.6.57zm-.29 1a.79.79 0 0 0-.23-.14.71.71 0 0 1-.35-.22H71h-.06 0l-.22.18a2.32 2.32 0 0 1-.75.49l-.05-.15a2.13 2.13 0 0 0 .7-.46l.22-.18h0 0 .07c.15-.06.35-.11.44 0a.7.7 0 0 0 .29.18.84.84 0 0 1 .28.17zm-3.23 1.2h-.4v-6.4h8.63v.4h-8.01zm-.93.62h-.4v-8h10.56v.39h-9.94zm-3.23-10.91a.8.8 0 0 1 0-.27.56.56 0 0 1 .13-.24l.12.1a.49.49 0 0 0-.11.18.85.85 0 0 0 0 .23zm2.2-1.5l-.13-.06a1 1 0 0 1-.7.75l-.22.07h-.11v.18a1.72 1.72 0 0 1-.22.86v.07h0l-.11.15a2.9 2.9 0 0 1 1.06 0 6.44 6.44 0 0 1 1 .29v.15a6.5 6.5 0 0 0-1-.29 2.85 2.85 0 0 0-1 0v-.14a2.15 2.15 0 0 1-1.21.55l-.28.08h0l-.05-.15h0l.28-.08a1.76 1.76 0 0 0 1.17-.62v-.06a1.45 1.45 0 0 0 .19-.79.75.75 0 0 0-.32-.63h0 0-.09-.11a.67.67 0 0 0-.56.13h0l-.14.16a1.18 1.18 0 0 0-.11.19 1 1 0 0 0 0 1l-.13.1a1.21 1.21 0 0 1 0-1.22 1.48 1.48 0 0 1 .13-.21l.14-.18h0a.86.86 0 0 1 .71-.17h.13l.12.05h0 0a.83.83 0 0 1 .34.43h.11l.2-.07c.32-.13.62-.36.61-.71v-.13l.12.05.23.11c.39.16.82.34 1 .78h-.15c-.12-.36-.51-.53-.87-.68m.6 1.19a.72.72 0 0 0-.41 0 .38.38 0 0 0-.17.07l-.07.1v.13h0a.64.64 0 0 0 .6.29V88a.79.79 0 0 1-.73-.37.37.37 0 0 1 0-.24.35.35 0 0 1 .14-.2.69.69 0 0 1 .23-.09.81.81 0 0 1 .51.07zm-1.66 10l-.17.09a1.8 1.8 0 0 1-.74.16h-.3a1.4 1.4 0 0 1-.9-.13c-.48-.3-.37-.76-.26-1.22a2 2 0 0 0 .09-.57h0 0-.08 0 0 0l.07-.13h0 0 0c.09 0 .16.13.16.17h0a2.59 2.59 0 0 1-.1.61c-.1.41-.19.82.19 1.06h0a1.27 1.27 0 0 0 .8.11h.28a1.71 1.71 0 0 0 .68-.15l.16-.08a1.51 1.51 0 0 0 .64-.66l.13.07a1.62 1.62 0 0 1-.7.72m-3.79-2.84c-.2-.13-.39-.26-.6-.18s-.3.41-.35.69a2 2 0 0 1-.05.26h0a1 1 0 0 1-.5.54l-.14.06h-.14a.76.76 0 0 1-.21 0 .62.62 0 0 1-.48-.17 1 1 0 0 1-.26-.46 1.34 1.34 0 0 1-.05-.35h.15a1.13 1.13 0 0 0 .05.32.87.87 0 0 0 .21.39.55.55 0 0 0 .38.13h.17 0 .12l.13-.05a.89.89 0 0 0 .42-.46h0v-.25c.05-.33.11-.68.44-.81h0a.78.78 0 0 1 .74.19.94.94 0 0 0 .65.22v.15a1 1 0 0 1-.75-.24M62 97a.91.91 0 0 1-.53.35h-.08a2.8 2.8 0 0 1-1 0 6.17 6.17 0 0 1-1-.29L59 97h.49 0a5.92 5.92 0 0 0 .91.27 3 3 0 0 0 1 0h.08a.74.74 0 0 0 .43-.29.64.64 0 0 0 .11-.51v-.06h0a.87.87 0 0 0-.22-.35 1.12 1.12 0 0 1-.17-.2.44.44 0 0 1 0-.49v-.09-.08h0l.09.06h0v.08l-.05.07c-.06.12-.09.25 0 .33h0c0 .06.1.12.15.18a.93.93 0 0 1 .26.41v.07a.8.8 0 0 1-.08.6m-4.15 1.27h-.4v-5.75h7.42v.4h-7zm7.84-3a.9.9 0 0 0 .3-.28l.13.09a1.15 1.15 0 0 1-.34.32l-.18.14a1.33 1.33 0 0 1-.71.26l-.34.08h0l-.2.06.11-.17a2 2 0 0 0 .28-.72.54.54 0 0 0-.28-.59.68.68 0 0 0-.64.07 1.27 1.27 0 0 1-.61.14v-.15a1.12 1.12 0 0 0 .53-.13.81.81 0 0 1 .78-.06.68.68 0 0 1 .36.73 2.06 2.06 0 0 1-.22.63h.19a1.2 1.2 0 0 0 .64-.23h0l.19-.15m-8.75 3.56h-.4v-7.34h8.79v.39h-8.38zm9.69-15v.39H63V89h-.4v-5.13h4zm-5-.82v-.2h5.71v.4h-5.26v6.4h-.4zm6.53 0v-.2h10.36v.4H68.6v6.4h-.4zm1.3 1.21V89h-.39v-5.13h8.63v.39zm1.85 3.48a.64.64 0 0 1-.37.33v-.15a.51.51 0 0 0 .28-.26.64.64 0 0 1 .41-.34H72a.86.86 0 0 1 .67.49l-.14.06a.72.72 0 0 0-.55-.4h-.14-.15 0c-.15 0-.23.14-.31.26m4.74.17h-.15a.71.71 0 0 1 .13-.59h0a2.79 2.79 0 0 1-2 .09 1.94 1.94 0 0 1-.47-.25 2.11 2.11 0 0 1-.43-.37h0a.67.67 0 0 0-.27-.16h-.13-.07v.08c0 .3.21.58.52.78l.19.11.19.08h0v.15h0l-.2-.09-.21-.12c-.35-.23-.65-.57-.58-.94h0a.31.31 0 0 1 .09-.16l.14-.07h.16a.64.64 0 0 1 .34.21h0a2.57 2.57 0 0 0 .4.35 2.08 2.08 0 0 0 .45.22 2.78 2.78 0 0 0 2.39-.32l.08.12h0a1.57 1.57 0 0 0-.4.37.6.6 0 0 0-.1.47m2-1.2a.46.46 0 0 1-.36-.31v-.05a1 1 0 0 0-.39-.65.64.64 0 0 0-.28 0 2.05 2.05 0 0 0-.34.07 1.59 1.59 0 0 0-.5.3 2.16 2.16 0 0 1-.35.24h0a1.85 1.85 0 0 1-1.38.13 4.27 4.27 0 0 1-1.3-.6 1.15 1.15 0 0 0-.5-.17h-.19a.93.93 0 0 0-.38.31 1 1 0 0 1-.31.3h0a1 1 0 0 1-.35 0 .8.8 0 0 0-.36.07h0c-.12.08-.13.24-.14.39a.55.55 0 0 1-.13.4h0l-.2.15-.2.14h0a.31.31 0 0 0-.09.2 1.08 1.08 0 0 0 0 .31h-.16a1.79 1.79 0 0 1 0-.33.39.39 0 0 1 .15-.31l.2-.14.19-.14a.45.45 0 0 0 .09-.3.56.56 0 0 1 .21-.51 1 1 0 0 1 .45-.09 1.27 1.27 0 0 0 .29 0 1.15 1.15 0 0 0 .27-.27 1 1 0 0 1 .44-.36h0 .12.12a1.33 1.33 0 0 1 .57.19h0a4.17 4.17 0 0 0 1.25.58 1.73 1.73 0 0 0 1.28-.12l.32-.23a1.92 1.92 0 0 1 .55-.33h0a2.79 2.79 0 0 1 .38-.07.74.74 0 0 1 .36 0h0a1.08 1.08 0 0 1 .47.75h0 0c0 .1.12.16.24.19a1.51 1.51 0 0 0 .48.06v.15a1.73 1.73 0 0 1-.52-.06m-1 1.1h0l-.09.16-.13-.08.08-.15c.14-.26.29-.55.6-.55a1 1 0 0 1 .46.15 1.56 1.56 0 0 0 .33.14v.15a1.51 1.51 0 0 1-.37-.15.88.88 0 0 0-.39-.14c-.22 0-.35.25-.46.47m12.07 2.61v-8.05H60.72v8.21H55.6v9.12h38.54v-9.12z"/><path d="M80.46 88.91h6.67v-4.72h-6.67zm-.24.12V84h7.15v5.21h-7.15zm1.28 8.51h10.73v-5.31H81.5zm-.24.13V92h11.21v5.81H81.26zm-21.62 15.01c0 1.34 0 1.7-.42 2a18 18 0 0 1-3 1.44l.25-.82c.39-.13 1-.39 1.94-.77s.53-3 .53-3.46-.07-.58-.31-.65h-5.95a20.84 20.84 0 0 0 .25-4.25l.06-2.55c1.1-.9-.57-.68-.57-.68l-.11-1.63c.11.29 1.37.24 1.61.2.48-.07.46.33.26.46-.44.29-.28.6-.44 1.43l-.09 5.92v.33h6.12c-.33.44-.13 1.66-.13 3m-5.35-4.4v-.39-4.22c.19-1 .28-1.94.81-2.3.22-.15.27-.59-.31-.53-.31 0-2.71.2-3.18-.19l-.5 2.64s1.61-.15.3.93a9.74 9.74 0 0 1 .09 1.77c0 1.37 0 4.59-.31 5.21h6.52c.31.06.37.22.37.75s.4 1.85-.68 2.23a5.84 5.84 0 0 1-2.14.46l-.47 2.61a24.35 24.35 0 0 0 3.69-1.46c.75-.53 1.83-.93 1.83-2.52s0-4.46.38-5z"/></g></svg>