<svg version="1.2" xmlns="http://www.w3.org/2000/svg" viewBox="0 0 320 320" width="320" height="320"><style>.a{fill:#ffb100}</style><path class="a" d="m171.2 23.5c32.8 23.5 73.8 37.6 118.4 37.6v90.3c0 34.4-9.6 66.7-26.4 94.7h-31.8v-147c0-0.6-0.3-1-0.8-1.2l-18-5.4c-0.3-0.1-0.7-0.1-1 0.1-0.3 0.3-0.5 0.6-0.5 1v142.9l-4.7 0.3v-171.2c0-0.5-0.3-1-0.7-1.1l-14-5.2q-0.4-0.1-0.8 0l-14.6 5.5c-0.5 0.2-0.8 0.6-0.8 1.1v235.1h-4.3z"/><path class="a" d="m56.7 246.1c-16.8-28-26.4-60.3-26.4-94.7v-90.3c47.3 0 90.6-15.8 124.3-42v158.3h-3.4v-135.8c0-0.6-0.5-1.2-1.1-1.2h-13c-0.6 0-1.1 0.6-1.1 1.2v189.1h-3.4v-162.4c0-0.6-0.5-1.2-1.1-1.2h-7.4c-5.9 0-10.8 5-10.8 11.1v186.4h-4.1v-133.7c0-0.5-0.3-1-0.8-1.1l-17.9-0.2c-0.4-0.1-0.8-0.1-1.1 0.2-0.2 0.2-0.4 0.5-0.4 0.9v115.4z"/></svg>