<svg xmlns="http://www.w3.org/2000/svg" xmlns:xlink="http://www.w3.org/1999/xlink" width="24.954" height="25.009" viewBox="0 0 24.954 25.009">
  <defs>
    <clipPath id="clip-path">
      <rect id="Rectangle_671" data-name="Rectangle 671" width="24.954" height="25.009" transform="translate(0 0)" fill="#050c27"/>
    </clipPath>
  </defs>
  <g id="Group_837" data-name="Group 837" transform="translate(0 0)">
    <g id="Group_830" data-name="Group 830" clip-path="url(#clip-path)">
      <path id="Path_1051" data-name="Path 1051" d="M20.67,25.009c-.106,0-.2,0-.305-.013a22.868,22.868,0,0,1-9.937-3.531,22.547,22.547,0,0,1-6.894-6.9A22.816,22.816,0,0,1,.014,4.6a3.2,3.2,0,0,1,2.9-3.487C3.006,1.1,3.1,1.1,3.194,1.1h3.3a3.219,3.219,0,0,1,3.19,2.75A13.211,13.211,0,0,0,10.4,6.728,3.209,3.209,0,0,1,9.674,10.1l-.852.851A16.568,16.568,0,0,0,14,16.135l.848-.848a3.213,3.213,0,0,1,3.378-.723,13.191,13.191,0,0,0,2.868.714,3.2,3.2,0,0,1,2.759,3.233V21.8a3.2,3.2,0,0,1-3.185,3.209M6.516,3.1H3.194l-.1.005A1.2,1.2,0,0,0,2,4.406a20.815,20.815,0,0,0,3.214,9.083,20.559,20.559,0,0,0,6.29,6.293,20.863,20.863,0,0,0,9.055,3.224c.022,0,.062,0,.1,0a1.2,1.2,0,0,0,1.19-1.2V18.476a1.2,1.2,0,0,0-1.03-1.217,15.126,15.126,0,0,1-3.3-.822,1.2,1.2,0,0,0-1.266.268l-1.4,1.4a1,1,0,0,1-1.2.162,18.6,18.6,0,0,1-6.969-6.969,1,1,0,0,1,.162-1.2l1.4-1.4a1.205,1.205,0,0,0,.27-1.265A15.157,15.157,0,0,1,7.7,4.122,1.2,1.2,0,0,0,6.516,3.1m13.041,7.641a1,1,0,0,1-.98-.808,4.482,4.482,0,0,0-3.552-3.552,1,1,0,0,1,.385-1.963,6.477,6.477,0,0,1,5.13,5.131,1,1,0,0,1-.789,1.174,1.078,1.078,0,0,1-.194.018m4.4-.015a1,1,0,0,1-.993-.889,8.84,8.84,0,0,0-7.853-7.843A1,1,0,0,1,15.328.006a10.833,10.833,0,0,1,9.62,9.609,1,1,0,0,1-.883,1.105,1.065,1.065,0,0,1-.112.006" fill="#050c27"/>
    </g>
  </g>
</svg>
